solid OpenSCAD_Model
  facet normal 1 -0 0
    outer loop
      vertex 50 0 25
      vertex 50 50 0
      vertex 50 50 25
    endloop
  endfacet
  facet normal 1 0 0
    outer loop
      vertex 50 50 0
      vertex 50 0 25
      vertex 50 0 0
    endloop
  endfacet
  facet normal 0 0 -1
    outer loop
      vertex 40 10 20
      vertex 25 40 20
      vertex 40 40 20
    endloop
  endfacet
  facet normal 0 -0 -1
    outer loop
      vertex 25 40 20
      vertex 40 10 20
      vertex 10 10 20
    endloop
  endfacet
  facet normal 0 0 -1
    outer loop
      vertex 50 0 0
      vertex 40 10 0
      vertex 50 50 0
    endloop
  endfacet
  facet normal 0 0 -1
    outer loop
      vertex 50 0 0
      vertex 10 10 0
      vertex 40 10 0
    endloop
  endfacet
  facet normal -0 0 -1
    outer loop
      vertex 10 10 0
      vertex 0 0 0
      vertex 10 40 0
    endloop
  endfacet
  facet normal 0 0 -1
    outer loop
      vertex 0 0 0
      vertex 10 10 0
      vertex 50 0 0
    endloop
  endfacet
  facet normal 0 0 -1
    outer loop
      vertex 40 40 0
      vertex 50 50 0
      vertex 40 10 0
    endloop
  endfacet
  facet normal 0 0 -1
    outer loop
      vertex 10 40 0
      vertex 50 50 0
      vertex 40 40 0
    endloop
  endfacet
  facet normal 0 0 -1
    outer loop
      vertex 10 40 0
      vertex 0 50 0
      vertex 50 50 0
    endloop
  endfacet
  facet normal 0 0 -1
    outer loop
      vertex 0 50 0
      vertex 10 40 0
      vertex 0 0 0
    endloop
  endfacet
  facet normal -1 0 0
    outer loop
      vertex 0 0 0
      vertex 0 50 25
      vertex 0 50 0
    endloop
  endfacet
  facet normal -1 -0 0
    outer loop
      vertex 0 50 25
      vertex 0 0 0
      vertex 0 0 25
    endloop
  endfacet
  facet normal 0 1 -0
    outer loop
      vertex 50 50 0
      vertex 0 50 25
      vertex 50 50 25
    endloop
  endfacet
  facet normal 0 1 0
    outer loop
      vertex 0 50 25
      vertex 50 50 0
      vertex 0 50 0
    endloop
  endfacet
  facet normal 0 -1 0
    outer loop
      vertex 0 0 0
      vertex 50 0 25
      vertex 0 0 25
    endloop
  endfacet
  facet normal 0 -1 -0
    outer loop
      vertex 50 0 25
      vertex 0 0 0
      vertex 50 0 0
    endloop
  endfacet
  facet normal -1 0 0
    outer loop
      vertex 40 10 0
      vertex 40 40 20
      vertex 40 40 0
    endloop
  endfacet
  facet normal -1 -0 0
    outer loop
      vertex 40 40 20
      vertex 40 10 0
      vertex 40 10 20
    endloop
  endfacet
  facet normal 0 0 -1
    outer loop
      vertex 10 40 10
      vertex 25 40 10
      vertex 10 10 10
    endloop
  endfacet
  facet normal 1 -0 0
    outer loop
      vertex 10 10 10
      vertex 10 40 0
      vertex 10 40 10
    endloop
  endfacet
  facet normal 1 0 0
    outer loop
      vertex 10 40 0
      vertex 10 10 10
      vertex 10 10 0
    endloop
  endfacet
  facet normal 0 -1 0
    outer loop
      vertex 10 40 10
      vertex 10 40 0
      vertex 25 40 10
    endloop
  endfacet
  facet normal 0 -1 0
    outer loop
      vertex 25 40 10
      vertex 40 40 20
      vertex 25 40 20
    endloop
  endfacet
  facet normal 0 -1 0
    outer loop
      vertex 40 40 0
      vertex 25 40 10
      vertex 10 40 0
    endloop
  endfacet
  facet normal 0 -1 0
    outer loop
      vertex 25 40 10
      vertex 40 40 0
      vertex 40 40 20
    endloop
  endfacet
  facet normal 0 1 0
    outer loop
      vertex 40 10 20
      vertex 10 10 10
      vertex 10 10 20
    endloop
  endfacet
  facet normal 0 1 -0
    outer loop
      vertex 40 10 0
      vertex 10 10 10
      vertex 40 10 20
    endloop
  endfacet
  facet normal 0 1 0
    outer loop
      vertex 10 10 10
      vertex 40 10 0
      vertex 10 10 0
    endloop
  endfacet
  facet normal 0.894427 -0.447214 0
    outer loop
      vertex 10 10 20
      vertex 25 40 10
      vertex 25 40 20
    endloop
  endfacet
  facet normal 0.894427 -0.447214 0
    outer loop
      vertex 25 40 10
      vertex 10 10 20
      vertex 10 10 10
    endloop
  endfacet
  facet normal -0 0 1
    outer loop
      vertex 0 50 25
      vertex 50 0 25
      vertex 50 50 25
    endloop
  endfacet
  facet normal 0 0 1
    outer loop
      vertex 50 0 25
      vertex 0 50 25
      vertex 0 0 25
    endloop
  endfacet
endsolid OpenSCAD_Model
