solid OpenSCAD_Model
  facet normal 1 -0 0
    outer loop
      vertex 50 0 10
      vertex 50 50 0
      vertex 50 50 10
    endloop
  endfacet
  facet normal 1 0 0
    outer loop
      vertex 50 50 0
      vertex 50 0 10
      vertex 50 0 0
    endloop
  endfacet
  facet normal -0 0 1
    outer loop
      vertex 0 50 10
      vertex 20 0 10
      vertex 20 50 10
    endloop
  endfacet
  facet normal 0 0 1
    outer loop
      vertex 20 0 10
      vertex 0 50 10
      vertex 0 0 10
    endloop
  endfacet
  facet normal -0 0 1
    outer loop
      vertex 30 50 10
      vertex 50 0 10
      vertex 50 50 10
    endloop
  endfacet
  facet normal 0 0 1
    outer loop
      vertex 50 0 10
      vertex 30 50 10
      vertex 30 0 10
    endloop
  endfacet
  facet normal 0 0 -1
    outer loop
      vertex 0 0 0
      vertex 50 50 0
      vertex 50 0 0
    endloop
  endfacet
  facet normal -0 0 -1
    outer loop
      vertex 50 50 0
      vertex 0 0 0
      vertex 0 50 0
    endloop
  endfacet
  facet normal -1 0 0
    outer loop
      vertex 0 0 0
      vertex 0 50 10
      vertex 0 50 0
    endloop
  endfacet
  facet normal -1 -0 0
    outer loop
      vertex 0 50 10
      vertex 0 0 0
      vertex 0 0 10
    endloop
  endfacet
  facet normal 0 1 -0
    outer loop
      vertex 50 50 0
      vertex 30 50 10
      vertex 50 50 10
    endloop
  endfacet
  facet normal 0 1 0
    outer loop
      vertex 30 50 10
      vertex 50 50 0
      vertex 20 50 10
    endloop
  endfacet
  facet normal 0 1 0
    outer loop
      vertex 0 50 0
      vertex 20 50 10
      vertex 50 50 0
    endloop
  endfacet
  facet normal 0 1 0
    outer loop
      vertex 20 50 10
      vertex 0 50 0
      vertex 0 50 10
    endloop
  endfacet
  facet normal 0 1 -0
    outer loop
      vertex 30 50 10
      vertex 20 50 50
      vertex 30 50 50
    endloop
  endfacet
  facet normal 0 1 0
    outer loop
      vertex 20 50 50
      vertex 30 50 10
      vertex 20 50 10
    endloop
  endfacet
  facet normal 0 -1 0
    outer loop
      vertex 0 0 0
      vertex 20 0 10
      vertex 0 0 10
    endloop
  endfacet
  facet normal 0 -1 -0
    outer loop
      vertex 20 0 10
      vertex 0 0 0
      vertex 30 0 10
    endloop
  endfacet
  facet normal 0 -1 0
    outer loop
      vertex 50 0 0
      vertex 30 0 10
      vertex 0 0 0
    endloop
  endfacet
  facet normal 0 -1 0
    outer loop
      vertex 30 0 10
      vertex 50 0 0
      vertex 50 0 10
    endloop
  endfacet
  facet normal 0 -1 0
    outer loop
      vertex 20 0 10
      vertex 30 0 50
      vertex 20 0 50
    endloop
  endfacet
  facet normal 0 -1 -0
    outer loop
      vertex 30 0 50
      vertex 20 0 10
      vertex 30 0 10
    endloop
  endfacet
  facet normal 1 -0 0
    outer loop
      vertex 30 30 50
      vertex 30 50 10
      vertex 30 50 50
    endloop
  endfacet
  facet normal 1 -0 0
    outer loop
      vertex 30 20 50
      vertex 30 50 10
      vertex 30 30 50
    endloop
  endfacet
  facet normal 1 0 0
    outer loop
      vertex 30 0 10
      vertex 30 20 50
      vertex 30 0 50
    endloop
  endfacet
  facet normal 1 0 0
    outer loop
      vertex 30 20 50
      vertex 30 0 10
      vertex 30 50 10
    endloop
  endfacet
  facet normal 0 0 -1
    outer loop
      vertex 30 20 50
      vertex 50 30 50
      vertex 50 20 50
    endloop
  endfacet
  facet normal -0 0 -1
    outer loop
      vertex 50 30 50
      vertex 30 20 50
      vertex 30 30 50
    endloop
  endfacet
  facet normal 0 0 -1
    outer loop
      vertex 0 20 50
      vertex 20 30 50
      vertex 20 20 50
    endloop
  endfacet
  facet normal -0 0 -1
    outer loop
      vertex 20 30 50
      vertex 0 20 50
      vertex 0 30 50
    endloop
  endfacet
  facet normal -0 0 1
    outer loop
      vertex 20 50 50
      vertex 30 30 50
      vertex 30 50 50
    endloop
  endfacet
  facet normal 0 0 1
    outer loop
      vertex 30 30 50
      vertex 20 50 50
      vertex 20 30 50
    endloop
  endfacet
  facet normal -0 0 1
    outer loop
      vertex 20 20 50
      vertex 30 0 50
      vertex 30 20 50
    endloop
  endfacet
  facet normal 0 0 1
    outer loop
      vertex 30 0 50
      vertex 20 20 50
      vertex 20 0 50
    endloop
  endfacet
  facet normal -1 0 0
    outer loop
      vertex 20 50 10
      vertex 20 30 50
      vertex 20 50 50
    endloop
  endfacet
  facet normal -1 0 0
    outer loop
      vertex 20 50 10
      vertex 20 20 50
      vertex 20 30 50
    endloop
  endfacet
  facet normal -1 0 0
    outer loop
      vertex 20 0 10
      vertex 20 20 50
      vertex 20 50 10
    endloop
  endfacet
  facet normal -1 -0 0
    outer loop
      vertex 20 20 50
      vertex 20 0 10
      vertex 20 0 50
    endloop
  endfacet
  facet normal 1 -0 0
    outer loop
      vertex 50 20 60
      vertex 50 30 50
      vertex 50 30 60
    endloop
  endfacet
  facet normal 1 0 0
    outer loop
      vertex 50 30 50
      vertex 50 20 60
      vertex 50 20 50
    endloop
  endfacet
  facet normal -0 0 1
    outer loop
      vertex 0 30 60
      vertex 50 20 60
      vertex 50 30 60
    endloop
  endfacet
  facet normal 0 0 1
    outer loop
      vertex 50 20 60
      vertex 0 30 60
      vertex 0 20 60
    endloop
  endfacet
  facet normal -1 0 0
    outer loop
      vertex 0 20 50
      vertex 0 30 60
      vertex 0 30 50
    endloop
  endfacet
  facet normal -1 -0 0
    outer loop
      vertex 0 30 60
      vertex 0 20 50
      vertex 0 20 60
    endloop
  endfacet
  facet normal 0 1 0
    outer loop
      vertex 30 30 50
      vertex 50 30 60
      vertex 50 30 50
    endloop
  endfacet
  facet normal 0 1 0
    outer loop
      vertex 50 30 60
      vertex 30 30 50
      vertex 0 30 60
    endloop
  endfacet
  facet normal 0 1 -0
    outer loop
      vertex 20 30 50
      vertex 0 30 60
      vertex 30 30 50
    endloop
  endfacet
  facet normal 0 1 0
    outer loop
      vertex 0 30 60
      vertex 20 30 50
      vertex 0 30 50
    endloop
  endfacet
  facet normal 0 -1 0
    outer loop
      vertex 20 20 50
      vertex 0 20 60
      vertex 0 20 50
    endloop
  endfacet
  facet normal 0 -1 0
    outer loop
      vertex 0 20 60
      vertex 20 20 50
      vertex 50 20 60
    endloop
  endfacet
  facet normal 0 -1 0
    outer loop
      vertex 30 20 50
      vertex 50 20 60
      vertex 20 20 50
    endloop
  endfacet
  facet normal 0 -1 -0
    outer loop
      vertex 50 20 60
      vertex 30 20 50
      vertex 50 20 50
    endloop
  endfacet
endsolid OpenSCAD_Model
