solid OpenSCAD_Model
  facet normal 1 -0 0
    outer loop
      vertex 90 15 50
      vertex 90 20 0
      vertex 90 20 50
    endloop
  endfacet
  facet normal 1 0 0
    outer loop
      vertex 90 20 0
      vertex 90 15 50
      vertex 90 15 0
    endloop
  endfacet
  facet normal 0 0 1
    outer loop
      vertex 45 70 50
      vertex 40 70 50
      vertex 45 20 50
    endloop
  endfacet
  facet normal -0 0 1
    outer loop
      vertex 45 20 50
      vertex 90 15 50
      vertex 90 20 50
    endloop
  endfacet
  facet normal 0 0 1
    outer loop
      vertex 45 20 50
      vertex 40 15 50
      vertex 90 15 50
    endloop
  endfacet
  facet normal 0 0 1
    outer loop
      vertex 40 15 50
      vertex 45 20 50
      vertex 40 70 50
    endloop
  endfacet
  facet normal 0 0 -1
    outer loop
      vertex 90 15 0
      vertex 45 20 0
      vertex 90 20 0
    endloop
  endfacet
  facet normal 0 0 -1
    outer loop
      vertex 40 15 0
      vertex 45 20 0
      vertex 90 15 0
    endloop
  endfacet
  facet normal 0 0 -1
    outer loop
      vertex 40 70 0
      vertex 45 20 0
      vertex 40 15 0
    endloop
  endfacet
  facet normal 0 0 -1
    outer loop
      vertex 45 20 0
      vertex 40 70 0
      vertex 45 70 0
    endloop
  endfacet
  facet normal -1 0 0
    outer loop
      vertex 40 15 0
      vertex 40 70 50
      vertex 40 70 0
    endloop
  endfacet
  facet normal -1 -0 0
    outer loop
      vertex 40 70 50
      vertex 40 15 0
      vertex 40 15 50
    endloop
  endfacet
  facet normal 0 1 -0
    outer loop
      vertex 90 20 0
      vertex 45 20 50
      vertex 90 20 50
    endloop
  endfacet
  facet normal 0 1 0
    outer loop
      vertex 45 20 50
      vertex 90 20 0
      vertex 45 20 0
    endloop
  endfacet
  facet normal 0 -1 0
    outer loop
      vertex 40 15 0
      vertex 90 15 50
      vertex 40 15 50
    endloop
  endfacet
  facet normal 0 -1 -0
    outer loop
      vertex 90 15 50
      vertex 40 15 0
      vertex 90 15 0
    endloop
  endfacet
  facet normal 1 -0 0
    outer loop
      vertex 45 20 50
      vertex 45 70 0
      vertex 45 70 50
    endloop
  endfacet
  facet normal 1 0 0
    outer loop
      vertex 45 70 0
      vertex 45 20 50
      vertex 45 20 0
    endloop
  endfacet
  facet normal 0 1 -0
    outer loop
      vertex 45 70 0
      vertex 40 70 50
      vertex 45 70 50
    endloop
  endfacet
  facet normal 0 1 0
    outer loop
      vertex 40 70 50
      vertex 45 70 0
      vertex 40 70 0
    endloop
  endfacet
  facet normal 0.309019 0.951056 -0
    outer loop
      vertex 13.5457 90.2303 0
      vertex 8.7904 91.7754 50
      vertex 13.5457 90.2303 50
    endloop
  endfacet
  facet normal 0.309019 0.951056 0
    outer loop
      vertex 8.7904 91.7754 50
      vertex 13.5457 90.2303 0
      vertex 8.7904 91.7754 0
    endloop
  endfacet
  facet normal 0 0 1
    outer loop
      vertex -5.11537 48.9779 50
      vertex 13.5457 90.2303 50
      vertex 8.7904 91.7754 50
    endloop
  endfacet
  facet normal 0 0 1
    outer loop
      vertex 13.5457 90.2303 50
      vertex -5.11537 48.9779 50
      vertex -1.90517 42.6775 50
    endloop
  endfacet
  facet normal -0 0 1
    outer loop
      vertex -54.2133 59.6735 50
      vertex -5.11537 48.9779 50
      vertex -52.6682 64.4287 50
    endloop
  endfacet
  facet normal 0 0 1
    outer loop
      vertex -5.11537 48.9779 50
      vertex -54.2133 59.6735 50
      vertex -1.90517 42.6775 50
    endloop
  endfacet
  facet normal 0 0 -1
    outer loop
      vertex -5.11537 48.9779 0
      vertex 13.5457 90.2303 0
      vertex -1.90517 42.6775 0
    endloop
  endfacet
  facet normal -0 0 -1
    outer loop
      vertex 13.5457 90.2303 0
      vertex -5.11537 48.9779 0
      vertex 8.7904 91.7754 0
    endloop
  endfacet
  facet normal 0 0 -1
    outer loop
      vertex -54.2133 59.6735 0
      vertex -5.11537 48.9779 0
      vertex -1.90517 42.6775 0
    endloop
  endfacet
  facet normal 0 0 -1
    outer loop
      vertex -5.11537 48.9779 0
      vertex -54.2133 59.6735 0
      vertex -52.6682 64.4287 0
    endloop
  endfacet
  facet normal -0.309018 -0.951056 0
    outer loop
      vertex -54.2133 59.6735 0
      vertex -1.90517 42.6775 50
      vertex -54.2133 59.6735 50
    endloop
  endfacet
  facet normal -0.309018 -0.951056 -0
    outer loop
      vertex -1.90517 42.6775 50
      vertex -54.2133 59.6735 0
      vertex -1.90517 42.6775 0
    endloop
  endfacet
  facet normal -0.951056 0.309017 0
    outer loop
      vertex -5.11537 48.9779 0
      vertex 8.7904 91.7754 50
      vertex 8.7904 91.7754 0
    endloop
  endfacet
  facet normal -0.951056 0.309017 0
    outer loop
      vertex 8.7904 91.7754 50
      vertex -5.11537 48.9779 0
      vertex -5.11537 48.9779 50
    endloop
  endfacet
  facet normal 0.951056 -0.309018 0
    outer loop
      vertex -1.90517 42.6775 50
      vertex 13.5457 90.2303 0
      vertex 13.5457 90.2303 50
    endloop
  endfacet
  facet normal 0.951056 -0.309018 0
    outer loop
      vertex 13.5457 90.2303 0
      vertex -1.90517 42.6775 50
      vertex -1.90517 42.6775 0
    endloop
  endfacet
  facet normal 0.309016 0.951057 -0
    outer loop
      vertex -5.11537 48.9779 0
      vertex -52.6682 64.4287 50
      vertex -5.11537 48.9779 50
    endloop
  endfacet
  facet normal 0.309016 0.951057 0
    outer loop
      vertex -52.6682 64.4287 50
      vertex -5.11537 48.9779 0
      vertex -52.6682 64.4287 0
    endloop
  endfacet
  facet normal -0.951054 0.309025 0
    outer loop
      vertex -54.2133 59.6735 0
      vertex -52.6682 64.4287 50
      vertex -52.6682 64.4287 0
    endloop
  endfacet
  facet normal -0.951054 0.309025 0
    outer loop
      vertex -52.6682 64.4287 50
      vertex -54.2133 59.6735 0
      vertex -54.2133 59.6735 50
    endloop
  endfacet
  facet normal -0.809021 0.58778 0
    outer loop
      vertex -84.5672 36.7203 0
      vertex -81.6283 40.7654 50
      vertex -81.6283 40.7654 0
    endloop
  endfacet
  facet normal -0.809021 0.58778 0
    outer loop
      vertex -81.6283 40.7654 50
      vertex -84.5672 36.7203 0
      vertex -84.5672 36.7203 50
    endloop
  endfacet
  facet normal 0 0 1
    outer loop
      vertex -81.6283 40.7654 50
      vertex -48.1615 10.27 50
      vertex -41.1775 11.3762 50
    endloop
  endfacet
  facet normal 0 0 1
    outer loop
      vertex -48.1615 10.27 50
      vertex -81.6283 40.7654 50
      vertex -84.5672 36.7203 50
    endloop
  endfacet
  facet normal -0 0 1
    outer loop
      vertex -48.1615 10.27 50
      vertex -73.5056 -33.1198 50
      vertex -41.1775 11.3762 50
    endloop
  endfacet
  facet normal 0 -0 1
    outer loop
      vertex -73.5056 -33.1198 50
      vertex -48.1615 10.27 50
      vertex -77.5507 -30.1809 50
    endloop
  endfacet
  facet normal 0 0 -1
    outer loop
      vertex -73.5056 -33.1198 0
      vertex -48.1615 10.27 0
      vertex -41.1775 11.3762 0
    endloop
  endfacet
  facet normal 0 0 -1
    outer loop
      vertex -48.1615 10.27 0
      vertex -73.5056 -33.1198 0
      vertex -77.5507 -30.1809 0
    endloop
  endfacet
  facet normal 0 0 -1
    outer loop
      vertex -48.1615 10.27 0
      vertex -81.6283 40.7654 0
      vertex -41.1775 11.3762 0
    endloop
  endfacet
  facet normal 0 -0 -1
    outer loop
      vertex -81.6283 40.7654 0
      vertex -48.1615 10.27 0
      vertex -84.5672 36.7203 0
    endloop
  endfacet
  facet normal 0.809018 -0.587784 0
    outer loop
      vertex -73.5056 -33.1198 50
      vertex -41.1775 11.3762 0
      vertex -41.1775 11.3762 50
    endloop
  endfacet
  facet normal 0.809018 -0.587784 0
    outer loop
      vertex -41.1775 11.3762 0
      vertex -73.5056 -33.1198 50
      vertex -73.5056 -33.1198 0
    endloop
  endfacet
  facet normal -0.587785 -0.809017 0
    outer loop
      vertex -84.5672 36.7203 0
      vertex -48.1615 10.27 50
      vertex -84.5672 36.7203 50
    endloop
  endfacet
  facet normal -0.587785 -0.809017 -0
    outer loop
      vertex -48.1615 10.27 50
      vertex -84.5672 36.7203 0
      vertex -48.1615 10.27 0
    endloop
  endfacet
  facet normal 0.587785 0.809017 -0
    outer loop
      vertex -41.1775 11.3762 0
      vertex -81.6283 40.7654 50
      vertex -41.1775 11.3762 50
    endloop
  endfacet
  facet normal 0.587785 0.809017 0
    outer loop
      vertex -81.6283 40.7654 50
      vertex -41.1775 11.3762 0
      vertex -81.6283 40.7654 0
    endloop
  endfacet
  facet normal -0.809018 0.587784 0
    outer loop
      vertex -77.5507 -30.1809 0
      vertex -48.1615 10.27 50
      vertex -48.1615 10.27 0
    endloop
  endfacet
  facet normal -0.809018 0.587784 0
    outer loop
      vertex -48.1615 10.27 50
      vertex -77.5507 -30.1809 0
      vertex -77.5507 -30.1809 50
    endloop
  endfacet
  facet normal -0.58778 -0.809021 0
    outer loop
      vertex -77.5507 -30.1809 0
      vertex -73.5056 -33.1198 50
      vertex -77.5507 -30.1809 50
    endloop
  endfacet
  facet normal -0.58778 -0.809021 -0
    outer loop
      vertex -73.5056 -33.1198 50
      vertex -77.5507 -30.1809 0
      vertex -73.5056 -33.1198 0
    endloop
  endfacet
  facet normal -0.809011 -0.587793 0
    outer loop
      vertex -61.0558 -69.081 0
      vertex -63.9948 -65.0359 50
      vertex -63.9948 -65.0359 0
    endloop
  endfacet
  facet normal -0.809011 -0.587793 0
    outer loop
      vertex -63.9948 -65.0359 50
      vertex -61.0558 -69.081 0
      vertex -61.0558 -69.081 50
    endloop
  endfacet
  facet normal -0 0 1
    outer loop
      vertex -24.6501 -42.6307 50
      vertex 8.78429 -80.1426 50
      vertex -23.5439 -35.6467 50
    endloop
  endfacet
  facet normal 0 0 1
    outer loop
      vertex 8.78429 -80.1426 50
      vertex -24.6501 -42.6307 50
      vertex 4.7392 -83.0815 50
    endloop
  endfacet
  facet normal 0 0 1
    outer loop
      vertex -63.9948 -65.0359 50
      vertex -24.6501 -42.6307 50
      vertex -23.5439 -35.6467 50
    endloop
  endfacet
  facet normal 0 0 1
    outer loop
      vertex -24.6501 -42.6307 50
      vertex -63.9948 -65.0359 50
      vertex -61.0558 -69.081 50
    endloop
  endfacet
  facet normal 0 0 -1
    outer loop
      vertex -24.6501 -42.6307 0
      vertex 8.78429 -80.1426 0
      vertex 4.7392 -83.0815 0
    endloop
  endfacet
  facet normal 0 0 -1
    outer loop
      vertex 8.78429 -80.1426 0
      vertex -24.6501 -42.6307 0
      vertex -23.5439 -35.6467 0
    endloop
  endfacet
  facet normal 0 0 -1
    outer loop
      vertex -63.9948 -65.0359 0
      vertex -24.6501 -42.6307 0
      vertex -61.0558 -69.081 0
    endloop
  endfacet
  facet normal -0 0 -1
    outer loop
      vertex -24.6501 -42.6307 0
      vertex -63.9948 -65.0359 0
      vertex -23.5439 -35.6467 0
    endloop
  endfacet
  facet normal 0.809017 0.587786 0
    outer loop
      vertex 8.78429 -80.1426 50
      vertex -23.5439 -35.6467 0
      vertex -23.5439 -35.6467 50
    endloop
  endfacet
  facet normal 0.809017 0.587786 0
    outer loop
      vertex -23.5439 -35.6467 0
      vertex 8.78429 -80.1426 50
      vertex 8.78429 -80.1426 0
    endloop
  endfacet
  facet normal 0.587785 -0.809017 0
    outer loop
      vertex -61.0558 -69.081 0
      vertex -24.6501 -42.6307 50
      vertex -61.0558 -69.081 50
    endloop
  endfacet
  facet normal 0.587785 -0.809017 0
    outer loop
      vertex -24.6501 -42.6307 50
      vertex -61.0558 -69.081 0
      vertex -24.6501 -42.6307 0
    endloop
  endfacet
  facet normal -0.587784 0.809018 0
    outer loop
      vertex -23.5439 -35.6467 0
      vertex -63.9948 -65.0359 50
      vertex -23.5439 -35.6467 50
    endloop
  endfacet
  facet normal -0.587784 0.809018 0
    outer loop
      vertex -63.9948 -65.0359 50
      vertex -23.5439 -35.6467 0
      vertex -63.9948 -65.0359 0
    endloop
  endfacet
  facet normal -0.809016 -0.587786 0
    outer loop
      vertex 4.7392 -83.0815 0
      vertex -24.6501 -42.6307 50
      vertex -24.6501 -42.6307 0
    endloop
  endfacet
  facet normal -0.809016 -0.587786 0
    outer loop
      vertex -24.6501 -42.6307 50
      vertex 4.7392 -83.0815 0
      vertex 4.7392 -83.0815 50
    endloop
  endfacet
  facet normal 0.587781 -0.80902 0
    outer loop
      vertex 4.7392 -83.0815 0
      vertex 8.78429 -80.1426 50
      vertex 4.7392 -83.0815 50
    endloop
  endfacet
  facet normal 0.587781 -0.80902 0
    outer loop
      vertex 8.78429 -80.1426 50
      vertex 4.7392 -83.0815 0
      vertex 8.78429 -80.1426 0
    endloop
  endfacet
  facet normal 0.309019 -0.951056 0
    outer loop
      vertex 42.0774 -80.9598 0
      vertex 46.8327 -79.4147 50
      vertex 42.0774 -80.9598 50
    endloop
  endfacet
  facet normal 0.309019 -0.951056 0
    outer loop
      vertex 46.8327 -79.4147 50
      vertex 42.0774 -80.9598 0
      vertex 46.8327 -79.4147 0
    endloop
  endfacet
  facet normal 0 0 1
    outer loop
      vertex 78.9346 -16.4111 50
      vertex 32.9269 -36.6172 50
      vertex 80.4797 -21.1664 50
    endloop
  endfacet
  facet normal 0 -0 1
    outer loop
      vertex 32.9269 -36.6172 50
      vertex 78.9346 -16.4111 50
      vertex 26.6265 -33.407 50
    endloop
  endfacet
  facet normal 0 0 1
    outer loop
      vertex 32.9269 -36.6172 50
      vertex 42.0774 -80.9598 50
      vertex 46.8327 -79.4147 50
    endloop
  endfacet
  facet normal 0 0 1
    outer loop
      vertex 42.0774 -80.9598 50
      vertex 32.9269 -36.6172 50
      vertex 26.6265 -33.407 50
    endloop
  endfacet
  facet normal 0 0 -1
    outer loop
      vertex 42.0774 -80.9598 0
      vertex 32.9269 -36.6172 0
      vertex 46.8327 -79.4147 0
    endloop
  endfacet
  facet normal -0 -0 -1
    outer loop
      vertex 32.9269 -36.6172 0
      vertex 42.0774 -80.9598 0
      vertex 26.6265 -33.407 0
    endloop
  endfacet
  facet normal 0 0 -1
    outer loop
      vertex 32.9269 -36.6172 0
      vertex 78.9346 -16.4111 0
      vertex 80.4797 -21.1664 0
    endloop
  endfacet
  facet normal 0 0 -1
    outer loop
      vertex 78.9346 -16.4111 0
      vertex 32.9269 -36.6172 0
      vertex 26.6265 -33.407 0
    endloop
  endfacet
  facet normal -0.309016 0.951057 0
    outer loop
      vertex 78.9346 -16.4111 0
      vertex 26.6265 -33.407 50
      vertex 78.9346 -16.4111 50
    endloop
  endfacet
  facet normal -0.309016 0.951057 0
    outer loop
      vertex 26.6265 -33.407 50
      vertex 78.9346 -16.4111 0
      vertex 26.6265 -33.407 0
    endloop
  endfacet
  facet normal 0.951056 0.309018 0
    outer loop
      vertex 46.8327 -79.4147 50
      vertex 32.9269 -36.6172 0
      vertex 32.9269 -36.6172 50
    endloop
  endfacet
  facet normal 0.951056 0.309018 0
    outer loop
      vertex 32.9269 -36.6172 0
      vertex 46.8327 -79.4147 50
      vertex 46.8327 -79.4147 0
    endloop
  endfacet
  facet normal -0.951056 -0.309018 0
    outer loop
      vertex 42.0774 -80.9598 0
      vertex 26.6265 -33.407 50
      vertex 26.6265 -33.407 0
    endloop
  endfacet
  facet normal -0.951056 -0.309018 0
    outer loop
      vertex 26.6265 -33.407 50
      vertex 42.0774 -80.9598 0
      vertex 42.0774 -80.9598 50
    endloop
  endfacet
  facet normal 0.309016 -0.951057 0
    outer loop
      vertex 32.9269 -36.6172 0
      vertex 80.4797 -21.1664 50
      vertex 32.9269 -36.6172 50
    endloop
  endfacet
  facet normal 0.309016 -0.951057 0
    outer loop
      vertex 80.4797 -21.1664 50
      vertex 32.9269 -36.6172 0
      vertex 80.4797 -21.1664 0
    endloop
  endfacet
  facet normal 0.951056 0.309019 0
    outer loop
      vertex 80.4797 -21.1664 50
      vertex 78.9346 -16.4111 0
      vertex 78.9346 -16.4111 50
    endloop
  endfacet
  facet normal 0.951056 0.309019 0
    outer loop
      vertex 78.9346 -16.4111 0
      vertex 80.4797 -21.1664 50
      vertex 80.4797 -21.1664 0
    endloop
  endfacet
  facet normal 1 -0 0
    outer loop
      vertex 100 0 60
      vertex 100 50 55
      vertex 100 50 60
    endloop
  endfacet
  facet normal 1 0 0
    outer loop
      vertex 100 50 55
      vertex 100 0 60
      vertex 100 0 55
    endloop
  endfacet
  facet normal -0 0 1
    outer loop
      vertex 0 50 60
      vertex 100 0 60
      vertex 100 50 60
    endloop
  endfacet
  facet normal 0 0 1
    outer loop
      vertex 100 0 60
      vertex 0 50 60
      vertex 0 0 60
    endloop
  endfacet
  facet normal 0 0 -1
    outer loop
      vertex 0 0 55
      vertex 100 50 55
      vertex 100 0 55
    endloop
  endfacet
  facet normal -0 0 -1
    outer loop
      vertex 100 50 55
      vertex 0 0 55
      vertex 0 50 55
    endloop
  endfacet
  facet normal -1 0 0
    outer loop
      vertex 0 0 55
      vertex 0 50 60
      vertex 0 50 55
    endloop
  endfacet
  facet normal -1 -0 0
    outer loop
      vertex 0 50 60
      vertex 0 0 55
      vertex 0 0 60
    endloop
  endfacet
  facet normal 0 1 -0
    outer loop
      vertex 100 50 55
      vertex 0 50 60
      vertex 100 50 60
    endloop
  endfacet
  facet normal 0 1 0
    outer loop
      vertex 0 50 60
      vertex 100 50 55
      vertex 0 50 55
    endloop
  endfacet
  facet normal 0 -1 0
    outer loop
      vertex 0 0 55
      vertex 100 0 60
      vertex 0 0 60
    endloop
  endfacet
  facet normal 0 -1 -0
    outer loop
      vertex 100 0 60
      vertex 0 0 55
      vertex 100 0 55
    endloop
  endfacet
endsolid OpenSCAD_Model
