solid OpenSCAD_Model
  facet normal 1 -0 0
    outer loop
      vertex 25 -10 42.5
      vertex 25 10 32.5
      vertex 25 10 42.5
    endloop
  endfacet
  facet normal 1 0 0
    outer loop
      vertex 25 10 32.5
      vertex 25 -10 42.5
      vertex 25 -10 32.5
    endloop
  endfacet
  facet normal -0 0 1
    outer loop
      vertex -25 10 42.5
      vertex 25 -10 42.5
      vertex 25 10 42.5
    endloop
  endfacet
  facet normal 0 0 1
    outer loop
      vertex 25 -10 42.5
      vertex -25 10 42.5
      vertex -25 -10 42.5
    endloop
  endfacet
  facet normal 0 0 -1
    outer loop
      vertex -25 -10 32.5
      vertex 25 10 32.5
      vertex 25 -10 32.5
    endloop
  endfacet
  facet normal -0 0 -1
    outer loop
      vertex 25 10 32.5
      vertex -25 -10 32.5
      vertex -25 10 32.5
    endloop
  endfacet
  facet normal -1 0 0
    outer loop
      vertex -25 -10 32.5
      vertex -25 10 42.5
      vertex -25 10 32.5
    endloop
  endfacet
  facet normal -1 -0 0
    outer loop
      vertex -25 10 42.5
      vertex -25 -10 32.5
      vertex -25 -10 42.5
    endloop
  endfacet
  facet normal 0 1 -0
    outer loop
      vertex 25 10 32.5
      vertex -25 10 42.5
      vertex 25 10 42.5
    endloop
  endfacet
  facet normal 0 1 0
    outer loop
      vertex -25 10 42.5
      vertex 25 10 32.5
      vertex -25 10 32.5
    endloop
  endfacet
  facet normal 0 -1 0
    outer loop
      vertex -25 -10 32.5
      vertex 25 -10 42.5
      vertex -25 -10 42.5
    endloop
  endfacet
  facet normal 0 -1 -0
    outer loop
      vertex 25 -10 42.5
      vertex -25 -10 32.5
      vertex 25 -10 32.5
    endloop
  endfacet
  facet normal 1 -0 0
    outer loop
      vertex 25 -10 27.5
      vertex 25 10 17.5
      vertex 25 10 27.5
    endloop
  endfacet
  facet normal 1 0 0
    outer loop
      vertex 25 10 17.5
      vertex 25 -10 27.5
      vertex 25 -10 17.5
    endloop
  endfacet
  facet normal -0 0 1
    outer loop
      vertex -25 10 27.5
      vertex 25 -10 27.5
      vertex 25 10 27.5
    endloop
  endfacet
  facet normal 0 0 1
    outer loop
      vertex 25 -10 27.5
      vertex -25 10 27.5
      vertex -25 -10 27.5
    endloop
  endfacet
  facet normal 0 0 -1
    outer loop
      vertex -25 -10 17.5
      vertex 25 10 17.5
      vertex 25 -10 17.5
    endloop
  endfacet
  facet normal -0 0 -1
    outer loop
      vertex 25 10 17.5
      vertex -25 -10 17.5
      vertex -25 10 17.5
    endloop
  endfacet
  facet normal -1 0 0
    outer loop
      vertex -25 -10 17.5
      vertex -25 10 27.5
      vertex -25 10 17.5
    endloop
  endfacet
  facet normal -1 -0 0
    outer loop
      vertex -25 10 27.5
      vertex -25 -10 17.5
      vertex -25 -10 27.5
    endloop
  endfacet
  facet normal 0 1 -0
    outer loop
      vertex 25 10 17.5
      vertex -25 10 27.5
      vertex 25 10 27.5
    endloop
  endfacet
  facet normal 0 1 0
    outer loop
      vertex -25 10 27.5
      vertex 25 10 17.5
      vertex -25 10 17.5
    endloop
  endfacet
  facet normal 0 -1 0
    outer loop
      vertex -25 -10 17.5
      vertex 25 -10 27.5
      vertex -25 -10 27.5
    endloop
  endfacet
  facet normal 0 -1 -0
    outer loop
      vertex 25 -10 27.5
      vertex -25 -10 17.5
      vertex 25 -10 17.5
    endloop
  endfacet
  facet normal 1 -0 0
    outer loop
      vertex 25 -10 12.5
      vertex 25 10 2.5
      vertex 25 10 12.5
    endloop
  endfacet
  facet normal 1 0 0
    outer loop
      vertex 25 10 2.5
      vertex 25 -10 12.5
      vertex 25 -10 2.5
    endloop
  endfacet
  facet normal -0 0 1
    outer loop
      vertex -25 10 12.5
      vertex 25 -10 12.5
      vertex 25 10 12.5
    endloop
  endfacet
  facet normal 0 0 1
    outer loop
      vertex 25 -10 12.5
      vertex -25 10 12.5
      vertex -25 -10 12.5
    endloop
  endfacet
  facet normal 0 0 -1
    outer loop
      vertex -25 -10 2.5
      vertex 25 10 2.5
      vertex 25 -10 2.5
    endloop
  endfacet
  facet normal -0 0 -1
    outer loop
      vertex 25 10 2.5
      vertex -25 -10 2.5
      vertex -25 10 2.5
    endloop
  endfacet
  facet normal -1 0 0
    outer loop
      vertex -25 -10 2.5
      vertex -25 10 12.5
      vertex -25 10 2.5
    endloop
  endfacet
  facet normal -1 -0 0
    outer loop
      vertex -25 10 12.5
      vertex -25 -10 2.5
      vertex -25 -10 12.5
    endloop
  endfacet
  facet normal 0 1 -0
    outer loop
      vertex 25 10 2.5
      vertex -25 10 12.5
      vertex 25 10 12.5
    endloop
  endfacet
  facet normal 0 1 0
    outer loop
      vertex -25 10 12.5
      vertex 25 10 2.5
      vertex -25 10 2.5
    endloop
  endfacet
  facet normal 0 -1 0
    outer loop
      vertex -25 -10 2.5
      vertex 25 -10 12.5
      vertex -25 -10 12.5
    endloop
  endfacet
  facet normal 0 -1 -0
    outer loop
      vertex 25 -10 12.5
      vertex -25 -10 2.5
      vertex 25 -10 2.5
    endloop
  endfacet
  facet normal 1 -0 0
    outer loop
      vertex 25 -10 -2.5
      vertex 25 10 -12.5
      vertex 25 10 -2.5
    endloop
  endfacet
  facet normal 1 0 0
    outer loop
      vertex 25 10 -12.5
      vertex 25 -10 -2.5
      vertex 25 -10 -12.5
    endloop
  endfacet
  facet normal -0 0 1
    outer loop
      vertex -25 10 -2.5
      vertex 25 -10 -2.5
      vertex 25 10 -2.5
    endloop
  endfacet
  facet normal 0 0 1
    outer loop
      vertex 25 -10 -2.5
      vertex -25 10 -2.5
      vertex -25 -10 -2.5
    endloop
  endfacet
  facet normal 0 0 -1
    outer loop
      vertex -25 -10 -12.5
      vertex 25 10 -12.5
      vertex 25 -10 -12.5
    endloop
  endfacet
  facet normal -0 0 -1
    outer loop
      vertex 25 10 -12.5
      vertex -25 -10 -12.5
      vertex -25 10 -12.5
    endloop
  endfacet
  facet normal -1 0 0
    outer loop
      vertex -25 -10 -12.5
      vertex -25 10 -2.5
      vertex -25 10 -12.5
    endloop
  endfacet
  facet normal -1 -0 0
    outer loop
      vertex -25 10 -2.5
      vertex -25 -10 -12.5
      vertex -25 -10 -2.5
    endloop
  endfacet
  facet normal 0 1 -0
    outer loop
      vertex 25 10 -12.5
      vertex -25 10 -2.5
      vertex 25 10 -2.5
    endloop
  endfacet
  facet normal 0 1 0
    outer loop
      vertex -25 10 -2.5
      vertex 25 10 -12.5
      vertex -25 10 -12.5
    endloop
  endfacet
  facet normal 0 -1 0
    outer loop
      vertex -25 -10 -12.5
      vertex 25 -10 -2.5
      vertex -25 -10 -2.5
    endloop
  endfacet
  facet normal 0 -1 -0
    outer loop
      vertex 25 -10 -2.5
      vertex -25 -10 -12.5
      vertex 25 -10 -12.5
    endloop
  endfacet
  facet normal 1 -0 0
    outer loop
      vertex 25 -10 -17.5
      vertex 25 10 -27.5
      vertex 25 10 -17.5
    endloop
  endfacet
  facet normal 1 0 0
    outer loop
      vertex 25 10 -27.5
      vertex 25 -10 -17.5
      vertex 25 -10 -27.5
    endloop
  endfacet
  facet normal -0 0 1
    outer loop
      vertex -25 10 -17.5
      vertex 25 -10 -17.5
      vertex 25 10 -17.5
    endloop
  endfacet
  facet normal 0 0 1
    outer loop
      vertex 25 -10 -17.5
      vertex -25 10 -17.5
      vertex -25 -10 -17.5
    endloop
  endfacet
  facet normal 0 0 -1
    outer loop
      vertex -25 -10 -27.5
      vertex 25 10 -27.5
      vertex 25 -10 -27.5
    endloop
  endfacet
  facet normal -0 0 -1
    outer loop
      vertex 25 10 -27.5
      vertex -25 -10 -27.5
      vertex -25 10 -27.5
    endloop
  endfacet
  facet normal -1 0 0
    outer loop
      vertex -25 -10 -27.5
      vertex -25 10 -17.5
      vertex -25 10 -27.5
    endloop
  endfacet
  facet normal -1 -0 0
    outer loop
      vertex -25 10 -17.5
      vertex -25 -10 -27.5
      vertex -25 -10 -17.5
    endloop
  endfacet
  facet normal 0 1 -0
    outer loop
      vertex 25 10 -27.5
      vertex -25 10 -17.5
      vertex 25 10 -17.5
    endloop
  endfacet
  facet normal 0 1 0
    outer loop
      vertex -25 10 -17.5
      vertex 25 10 -27.5
      vertex -25 10 -27.5
    endloop
  endfacet
  facet normal 0 -1 0
    outer loop
      vertex -25 -10 -27.5
      vertex 25 -10 -17.5
      vertex -25 -10 -17.5
    endloop
  endfacet
  facet normal 0 -1 -0
    outer loop
      vertex 25 -10 -17.5
      vertex -25 -10 -27.5
      vertex 25 -10 -27.5
    endloop
  endfacet
  facet normal 1 -0 0
    outer loop
      vertex 25 -10 -32.5
      vertex 25 10 -42.5
      vertex 25 10 -32.5
    endloop
  endfacet
  facet normal 1 0 0
    outer loop
      vertex 25 10 -42.5
      vertex 25 -10 -32.5
      vertex 25 -10 -42.5
    endloop
  endfacet
  facet normal -0 0 1
    outer loop
      vertex -25 10 -32.5
      vertex 25 -10 -32.5
      vertex 25 10 -32.5
    endloop
  endfacet
  facet normal 0 0 1
    outer loop
      vertex 25 -10 -32.5
      vertex -25 10 -32.5
      vertex -25 -10 -32.5
    endloop
  endfacet
  facet normal 0 0 -1
    outer loop
      vertex -25 -10 -42.5
      vertex 25 10 -42.5
      vertex 25 -10 -42.5
    endloop
  endfacet
  facet normal -0 0 -1
    outer loop
      vertex 25 10 -42.5
      vertex -25 -10 -42.5
      vertex -25 10 -42.5
    endloop
  endfacet
  facet normal -1 0 0
    outer loop
      vertex -25 -10 -42.5
      vertex -25 10 -32.5
      vertex -25 10 -42.5
    endloop
  endfacet
  facet normal -1 -0 0
    outer loop
      vertex -25 10 -32.5
      vertex -25 -10 -42.5
      vertex -25 -10 -32.5
    endloop
  endfacet
  facet normal 0 1 -0
    outer loop
      vertex 25 10 -42.5
      vertex -25 10 -32.5
      vertex 25 10 -32.5
    endloop
  endfacet
  facet normal 0 1 0
    outer loop
      vertex -25 10 -32.5
      vertex 25 10 -42.5
      vertex -25 10 -42.5
    endloop
  endfacet
  facet normal 0 -1 0
    outer loop
      vertex -25 -10 -42.5
      vertex 25 -10 -32.5
      vertex -25 -10 -32.5
    endloop
  endfacet
  facet normal 0 -1 -0
    outer loop
      vertex 25 -10 -32.5
      vertex -25 -10 -42.5
      vertex 25 -10 -42.5
    endloop
  endfacet
endsolid OpenSCAD_Model
