solid OpenSCAD_Model
  facet normal -0.743147 -0.669129 0
    outer loop
      vertex -6.69131 -7.43145 -6
      vertex -8.09017 -5.87785 6
      vertex -8.09017 -5.87785 -6
    endloop
  endfacet
  facet normal -0.743147 -0.669129 0
    outer loop
      vertex -8.09017 -5.87785 6
      vertex -6.69131 -7.43145 -6
      vertex -6.69131 -7.43145 6
    endloop
  endfacet
  facet normal 0.951055 0.309021 0
    outer loop
      vertex 9.78148 2.07912 6
      vertex 9.13545 4.06737 -6
      vertex 9.13545 4.06737 6
    endloop
  endfacet
  facet normal 0.951055 0.309021 0
    outer loop
      vertex 9.13545 4.06737 -6
      vertex 9.78148 2.07912 6
      vertex 9.78148 2.07912 -6
    endloop
  endfacet
  facet normal 0.994522 0.104526 0
    outer loop
      vertex 10 0 6
      vertex 9.78148 2.07912 -6
      vertex 9.78148 2.07912 6
    endloop
  endfacet
  facet normal 0.994522 0.104526 0
    outer loop
      vertex 9.78148 2.07912 -6
      vertex 10 0 6
      vertex 10 0 -6
    endloop
  endfacet
  facet normal 0.866026 0.5 0
    outer loop
      vertex 9.13545 4.06737 6
      vertex 8.09017 5.87785 -6
      vertex 8.09017 5.87785 6
    endloop
  endfacet
  facet normal 0.866026 0.5 0
    outer loop
      vertex 8.09017 5.87785 -6
      vertex 9.13545 4.06737 6
      vertex 9.13545 4.06737 -6
    endloop
  endfacet
  facet normal 0.951055 -0.309021 0
    outer loop
      vertex 9.13545 -4.06737 6
      vertex 9.78148 -2.07912 -6
      vertex 9.78148 -2.07912 6
    endloop
  endfacet
  facet normal 0.951055 -0.309021 0
    outer loop
      vertex 9.78148 -2.07912 -6
      vertex 9.13545 -4.06737 6
      vertex 9.13545 -4.06737 -6
    endloop
  endfacet
  facet normal 0.587783 -0.809019 0
    outer loop
      vertex 5 -8.66025 -6
      vertex 6.69131 -7.43145 6
      vertex 5 -8.66025 6
    endloop
  endfacet
  facet normal 0.587783 -0.809019 0
    outer loop
      vertex 6.69131 -7.43145 6
      vertex 5 -8.66025 -6
      vertex 6.69131 -7.43145 -6
    endloop
  endfacet
  facet normal 0.743147 -0.669129 0
    outer loop
      vertex 6.69131 -7.43145 6
      vertex 8.09017 -5.87785 -6
      vertex 8.09017 -5.87785 6
    endloop
  endfacet
  facet normal 0.743147 -0.669129 0
    outer loop
      vertex 8.09017 -5.87785 -6
      vertex 6.69131 -7.43145 6
      vertex 6.69131 -7.43145 -6
    endloop
  endfacet
  facet normal 0.994522 -0.104526 0
    outer loop
      vertex 9.78148 -2.07912 6
      vertex 10 0 -6
      vertex 10 0 6
    endloop
  endfacet
  facet normal 0.994522 -0.104526 0
    outer loop
      vertex 10 0 -6
      vertex 9.78148 -2.07912 6
      vertex 9.78148 -2.07912 -6
    endloop
  endfacet
  facet normal -0.406736 -0.913546 0
    outer loop
      vertex -5 -8.66025 -6
      vertex -3.09017 -9.51056 6
      vertex -5 -8.66025 6
    endloop
  endfacet
  facet normal -0.406736 -0.913546 -0
    outer loop
      vertex -3.09017 -9.51056 6
      vertex -5 -8.66025 -6
      vertex -3.09017 -9.51056 -6
    endloop
  endfacet
  facet normal 0.406736 0.913546 -0
    outer loop
      vertex 5 8.66025 -6
      vertex 3.09017 9.51056 6
      vertex 5 8.66025 6
    endloop
  endfacet
  facet normal 0.406736 0.913546 0
    outer loop
      vertex 3.09017 9.51056 6
      vertex 5 8.66025 -6
      vertex 3.09017 9.51056 -6
    endloop
  endfacet
  facet normal 0.743147 0.669129 0
    outer loop
      vertex 8.09017 5.87785 6
      vertex 6.69131 7.43145 -6
      vertex 6.69131 7.43145 6
    endloop
  endfacet
  facet normal 0.743147 0.669129 0
    outer loop
      vertex 6.69131 7.43145 -6
      vertex 8.09017 5.87785 6
      vertex 8.09017 5.87785 -6
    endloop
  endfacet
  facet normal -0.587783 -0.809019 0
    outer loop
      vertex -6.69131 -7.43145 -6
      vertex -5 -8.66025 6
      vertex -6.69131 -7.43145 6
    endloop
  endfacet
  facet normal -0.587783 -0.809019 -0
    outer loop
      vertex -5 -8.66025 6
      vertex -6.69131 -7.43145 -6
      vertex -5 -8.66025 -6
    endloop
  endfacet
  facet normal -0.743147 0.669129 0
    outer loop
      vertex -8.09017 5.87785 -6
      vertex -6.69131 7.43145 6
      vertex -6.69131 7.43145 -6
    endloop
  endfacet
  facet normal -0.743147 0.669129 0
    outer loop
      vertex -6.69131 7.43145 6
      vertex -8.09017 5.87785 -6
      vertex -8.09017 5.87785 6
    endloop
  endfacet
  facet normal 0 1 -0
    outer loop
      vertex 1.04528 9.94522 -6
      vertex -1.04528 9.94522 6
      vertex 1.04528 9.94522 6
    endloop
  endfacet
  facet normal 0 1 0
    outer loop
      vertex -1.04528 9.94522 6
      vertex 1.04528 9.94522 -6
      vertex -1.04528 9.94522 -6
    endloop
  endfacet
  facet normal 0.406736 -0.913546 0
    outer loop
      vertex 3.09017 -9.51056 -6
      vertex 5 -8.66025 6
      vertex 3.09017 -9.51056 6
    endloop
  endfacet
  facet normal 0.406736 -0.913546 0
    outer loop
      vertex 5 -8.66025 6
      vertex 3.09017 -9.51056 -6
      vertex 5 -8.66025 -6
    endloop
  endfacet
  facet normal 0.207914 -0.978147 0
    outer loop
      vertex 1.04528 -9.94522 -6
      vertex 3.09017 -9.51056 6
      vertex 1.04528 -9.94522 6
    endloop
  endfacet
  facet normal 0.207914 -0.978147 0
    outer loop
      vertex 3.09017 -9.51056 6
      vertex 1.04528 -9.94522 -6
      vertex 3.09017 -9.51056 -6
    endloop
  endfacet
  facet normal -0.951055 0.309021 0
    outer loop
      vertex -9.78148 2.07912 -6
      vertex -9.13545 4.06737 6
      vertex -9.13545 4.06737 -6
    endloop
  endfacet
  facet normal -0.951055 0.309021 0
    outer loop
      vertex -9.13545 4.06737 6
      vertex -9.78148 2.07912 -6
      vertex -9.78148 2.07912 6
    endloop
  endfacet
  facet normal 0 0 -1
    outer loop
      vertex 9.78148 -2.07912 -6
      vertex 9.78148 2.07912 -6
      vertex 10 0 -6
    endloop
  endfacet
  facet normal 0 0 -1
    outer loop
      vertex 9.13545 -4.06737 -6
      vertex 9.78148 2.07912 -6
      vertex 9.78148 -2.07912 -6
    endloop
  endfacet
  facet normal 0 0 -1
    outer loop
      vertex 9.13545 -4.06737 -6
      vertex 9.13545 4.06737 -6
      vertex 9.78148 2.07912 -6
    endloop
  endfacet
  facet normal 0 0 -1
    outer loop
      vertex 8.09017 -5.87785 -6
      vertex 9.13545 4.06737 -6
      vertex 9.13545 -4.06737 -6
    endloop
  endfacet
  facet normal 0 0 -1
    outer loop
      vertex 8.09017 -5.87785 -6
      vertex 8.09017 5.87785 -6
      vertex 9.13545 4.06737 -6
    endloop
  endfacet
  facet normal 0 0 -1
    outer loop
      vertex 6.69131 -7.43145 -6
      vertex 8.09017 5.87785 -6
      vertex 8.09017 -5.87785 -6
    endloop
  endfacet
  facet normal 0 0 -1
    outer loop
      vertex 6.69131 -7.43145 -6
      vertex 6.69131 7.43145 -6
      vertex 8.09017 5.87785 -6
    endloop
  endfacet
  facet normal 0 0 -1
    outer loop
      vertex 5 -8.66025 -6
      vertex 6.69131 7.43145 -6
      vertex 6.69131 -7.43145 -6
    endloop
  endfacet
  facet normal 0 0 -1
    outer loop
      vertex 5 -8.66025 -6
      vertex 5 8.66025 -6
      vertex 6.69131 7.43145 -6
    endloop
  endfacet
  facet normal 0 0 -1
    outer loop
      vertex 3.09017 -9.51056 -6
      vertex 5 8.66025 -6
      vertex 5 -8.66025 -6
    endloop
  endfacet
  facet normal 0 0 -1
    outer loop
      vertex 3.09017 -9.51056 -6
      vertex 3.09017 9.51056 -6
      vertex 5 8.66025 -6
    endloop
  endfacet
  facet normal 0 0 -1
    outer loop
      vertex 1.04528 -9.94522 -6
      vertex 3.09017 9.51056 -6
      vertex 3.09017 -9.51056 -6
    endloop
  endfacet
  facet normal 0 0 -1
    outer loop
      vertex 1.04528 -9.94522 -6
      vertex 1.04528 9.94522 -6
      vertex 3.09017 9.51056 -6
    endloop
  endfacet
  facet normal 0 0 -1
    outer loop
      vertex -1.04528 -9.94522 -6
      vertex 1.04528 9.94522 -6
      vertex 1.04528 -9.94522 -6
    endloop
  endfacet
  facet normal 0 0 -1
    outer loop
      vertex -1.04528 -9.94522 -6
      vertex -1.04528 9.94522 -6
      vertex 1.04528 9.94522 -6
    endloop
  endfacet
  facet normal 0 0 -1
    outer loop
      vertex -3.09017 -9.51056 -6
      vertex -1.04528 9.94522 -6
      vertex -1.04528 -9.94522 -6
    endloop
  endfacet
  facet normal 0 0 -1
    outer loop
      vertex -3.09017 -9.51056 -6
      vertex -3.09017 9.51056 -6
      vertex -1.04528 9.94522 -6
    endloop
  endfacet
  facet normal 0 0 -1
    outer loop
      vertex -5 -8.66025 -6
      vertex -3.09017 9.51056 -6
      vertex -3.09017 -9.51056 -6
    endloop
  endfacet
  facet normal 0 0 -1
    outer loop
      vertex -5 -8.66025 -6
      vertex -5 8.66025 -6
      vertex -3.09017 9.51056 -6
    endloop
  endfacet
  facet normal 0 0 -1
    outer loop
      vertex -6.69131 -7.43145 -6
      vertex -5 8.66025 -6
      vertex -5 -8.66025 -6
    endloop
  endfacet
  facet normal 0 0 -1
    outer loop
      vertex -6.69131 -7.43145 -6
      vertex -6.69131 7.43145 -6
      vertex -5 8.66025 -6
    endloop
  endfacet
  facet normal 0 0 -1
    outer loop
      vertex -8.09017 -5.87785 -6
      vertex -6.69131 7.43145 -6
      vertex -6.69131 -7.43145 -6
    endloop
  endfacet
  facet normal 0 0 -1
    outer loop
      vertex -8.09017 -5.87785 -6
      vertex -8.09017 5.87785 -6
      vertex -6.69131 7.43145 -6
    endloop
  endfacet
  facet normal 0 0 -1
    outer loop
      vertex -9.13545 -4.06737 -6
      vertex -8.09017 5.87785 -6
      vertex -8.09017 -5.87785 -6
    endloop
  endfacet
  facet normal 0 0 -1
    outer loop
      vertex -9.13545 -4.06737 -6
      vertex -9.13545 4.06737 -6
      vertex -8.09017 5.87785 -6
    endloop
  endfacet
  facet normal 0 0 -1
    outer loop
      vertex -9.78148 -2.07912 -6
      vertex -9.13545 4.06737 -6
      vertex -9.13545 -4.06737 -6
    endloop
  endfacet
  facet normal 0 0 -1
    outer loop
      vertex -9.78148 -2.07912 -6
      vertex -9.78148 2.07912 -6
      vertex -9.13545 4.06737 -6
    endloop
  endfacet
  facet normal 0 -0 -1
    outer loop
      vertex -9.78148 2.07912 -6
      vertex -9.78148 -2.07912 -6
      vertex -10 0 -6
    endloop
  endfacet
  facet normal -0.951055 -0.309021 0
    outer loop
      vertex -9.13545 -4.06737 -6
      vertex -9.78148 -2.07912 6
      vertex -9.78148 -2.07912 -6
    endloop
  endfacet
  facet normal -0.951055 -0.309021 0
    outer loop
      vertex -9.78148 -2.07912 6
      vertex -9.13545 -4.06737 -6
      vertex -9.13545 -4.06737 6
    endloop
  endfacet
  facet normal -0.406736 0.913546 0
    outer loop
      vertex -3.09017 9.51056 -6
      vertex -5 8.66025 6
      vertex -3.09017 9.51056 6
    endloop
  endfacet
  facet normal -0.406736 0.913546 0
    outer loop
      vertex -5 8.66025 6
      vertex -3.09017 9.51056 -6
      vertex -5 8.66025 -6
    endloop
  endfacet
  facet normal 0 0 -1
    outer loop
      vertex 10 0 6
      vertex 15 0 6
      vertex 14.6722 -3.11868 6
    endloop
  endfacet
  facet normal 0 0 -1
    outer loop
      vertex 9.78148 -2.07912 6
      vertex 14.6722 -3.11868 6
      vertex 13.7032 -6.10105 6
    endloop
  endfacet
  facet normal 0 0 -1
    outer loop
      vertex 15 0 6
      vertex 10 0 6
      vertex 14.6722 3.11868 6
    endloop
  endfacet
  facet normal 0 0 -1
    outer loop
      vertex 9.13545 -4.06737 6
      vertex 13.7032 -6.10105 6
      vertex 12.1353 -8.81678 6
    endloop
  endfacet
  facet normal 0 0 -1
    outer loop
      vertex 9.78148 2.07912 6
      vertex 14.6722 3.11868 6
      vertex 10 0 6
    endloop
  endfacet
  facet normal 0 0 -1
    outer loop
      vertex 8.09017 -5.87785 6
      vertex 12.1353 -8.81678 6
      vertex 10.037 -11.1472 6
    endloop
  endfacet
  facet normal -0 0 -1
    outer loop
      vertex 14.6722 3.11868 6
      vertex 9.78148 2.07912 6
      vertex 13.7032 6.10105 6
    endloop
  endfacet
  facet normal 0 0 -1
    outer loop
      vertex 9.13545 4.06737 6
      vertex 13.7032 6.10105 6
      vertex 9.78148 2.07912 6
    endloop
  endfacet
  facet normal 0 0 -1
    outer loop
      vertex 14.6722 -3.11868 6
      vertex 9.78148 -2.07912 6
      vertex 10 0 6
    endloop
  endfacet
  facet normal 0 0 -1
    outer loop
      vertex 13.7032 -6.10105 6
      vertex 9.13545 -4.06737 6
      vertex 9.78148 -2.07912 6
    endloop
  endfacet
  facet normal 0 0 -1
    outer loop
      vertex 12.1353 -8.81678 6
      vertex 8.09017 -5.87785 6
      vertex 9.13545 -4.06737 6
    endloop
  endfacet
  facet normal 0 0 -1
    outer loop
      vertex 6.69131 -7.43145 6
      vertex 10.037 -11.1472 6
      vertex 7.5 -12.9904 6
    endloop
  endfacet
  facet normal 0 0 -1
    outer loop
      vertex 10.037 -11.1472 6
      vertex 6.69131 -7.43145 6
      vertex 8.09017 -5.87785 6
    endloop
  endfacet
  facet normal 0 0 -1
    outer loop
      vertex 7.5 -12.9904 6
      vertex 5 -8.66025 6
      vertex 6.69131 -7.43145 6
    endloop
  endfacet
  facet normal 0 0 -1
    outer loop
      vertex 4.63525 -14.2658 6
      vertex 5 -8.66025 6
      vertex 7.5 -12.9904 6
    endloop
  endfacet
  facet normal 0 0 -1
    outer loop
      vertex 4.63525 -14.2658 6
      vertex 3.09017 -9.51056 6
      vertex 5 -8.66025 6
    endloop
  endfacet
  facet normal 0 0 -1
    outer loop
      vertex 1.56793 -14.9178 6
      vertex 3.09017 -9.51056 6
      vertex 4.63525 -14.2658 6
    endloop
  endfacet
  facet normal 0 0 -1
    outer loop
      vertex 1.56793 -14.9178 6
      vertex 1.04528 -9.94522 6
      vertex 3.09017 -9.51056 6
    endloop
  endfacet
  facet normal 0 0 -1
    outer loop
      vertex 1.56793 -14.9178 6
      vertex -1.04528 -9.94522 6
      vertex 1.04528 -9.94522 6
    endloop
  endfacet
  facet normal 0 0 -1
    outer loop
      vertex -1.56793 -14.9178 6
      vertex -1.04528 -9.94522 6
      vertex 1.56793 -14.9178 6
    endloop
  endfacet
  facet normal 0 0 -1
    outer loop
      vertex -1.56793 -14.9178 6
      vertex -3.09017 -9.51056 6
      vertex -1.04528 -9.94522 6
    endloop
  endfacet
  facet normal 0 0 -1
    outer loop
      vertex -4.63525 -14.2658 6
      vertex -3.09017 -9.51056 6
      vertex -1.56793 -14.9178 6
    endloop
  endfacet
  facet normal 0 0 -1
    outer loop
      vertex -4.63525 -14.2658 6
      vertex -5 -8.66025 6
      vertex -3.09017 -9.51056 6
    endloop
  endfacet
  facet normal 0 0 -1
    outer loop
      vertex -7.5 -12.9904 6
      vertex -5 -8.66025 6
      vertex -4.63525 -14.2658 6
    endloop
  endfacet
  facet normal -0 0 -1
    outer loop
      vertex -5 -8.66025 6
      vertex -7.5 -12.9904 6
      vertex -6.69131 -7.43145 6
    endloop
  endfacet
  facet normal 0 0 -1
    outer loop
      vertex -10.037 -11.1472 6
      vertex -6.69131 -7.43145 6
      vertex -7.5 -12.9904 6
    endloop
  endfacet
  facet normal -0 0 -1
    outer loop
      vertex -6.69131 -7.43145 6
      vertex -10.037 -11.1472 6
      vertex -8.09017 -5.87785 6
    endloop
  endfacet
  facet normal 0 0 -1
    outer loop
      vertex -12.1353 -8.81678 6
      vertex -8.09017 -5.87785 6
      vertex -10.037 -11.1472 6
    endloop
  endfacet
  facet normal 0 0 -1
    outer loop
      vertex -13.7032 -6.10105 6
      vertex -9.13545 -4.06737 6
      vertex -12.1353 -8.81678 6
    endloop
  endfacet
  facet normal -0 0 -1
    outer loop
      vertex -8.09017 -5.87785 6
      vertex -12.1353 -8.81678 6
      vertex -9.13545 -4.06737 6
    endloop
  endfacet
  facet normal -0 0 -1
    outer loop
      vertex 13.7032 6.10105 6
      vertex 9.13545 4.06737 6
      vertex 12.1353 8.81678 6
    endloop
  endfacet
  facet normal 0 0 -1
    outer loop
      vertex 8.09017 5.87785 6
      vertex 12.1353 8.81678 6
      vertex 9.13545 4.06737 6
    endloop
  endfacet
  facet normal -0 0 -1
    outer loop
      vertex 12.1353 8.81678 6
      vertex 8.09017 5.87785 6
      vertex 10.037 11.1472 6
    endloop
  endfacet
  facet normal 0 0 -1
    outer loop
      vertex 6.69131 7.43145 6
      vertex 10.037 11.1472 6
      vertex 8.09017 5.87785 6
    endloop
  endfacet
  facet normal -0 0 -1
    outer loop
      vertex 10.037 11.1472 6
      vertex 6.69131 7.43145 6
      vertex 7.5 12.9904 6
    endloop
  endfacet
  facet normal 0 0 -1
    outer loop
      vertex 5 8.66025 6
      vertex 7.5 12.9904 6
      vertex 6.69131 7.43145 6
    endloop
  endfacet
  facet normal 0 0 -1
    outer loop
      vertex 5 8.66025 6
      vertex 4.63525 14.2658 6
      vertex 7.5 12.9904 6
    endloop
  endfacet
  facet normal 0 0 -1
    outer loop
      vertex 3.09017 9.51056 6
      vertex 4.63525 14.2658 6
      vertex 5 8.66025 6
    endloop
  endfacet
  facet normal 0 0 -1
    outer loop
      vertex 3.09017 9.51056 6
      vertex 1.56793 14.9178 6
      vertex 4.63525 14.2658 6
    endloop
  endfacet
  facet normal 0 0 -1
    outer loop
      vertex 1.04528 9.94522 6
      vertex 1.56793 14.9178 6
      vertex 3.09017 9.51056 6
    endloop
  endfacet
  facet normal 0 0 -1
    outer loop
      vertex -1.04528 9.94522 6
      vertex 1.56793 14.9178 6
      vertex 1.04528 9.94522 6
    endloop
  endfacet
  facet normal 0 0 -1
    outer loop
      vertex -1.04528 9.94522 6
      vertex -1.56793 14.9178 6
      vertex 1.56793 14.9178 6
    endloop
  endfacet
  facet normal 0 0 -1
    outer loop
      vertex -3.09017 9.51056 6
      vertex -1.56793 14.9178 6
      vertex -1.04528 9.94522 6
    endloop
  endfacet
  facet normal 0 0 -1
    outer loop
      vertex -3.09017 9.51056 6
      vertex -4.63525 14.2658 6
      vertex -1.56793 14.9178 6
    endloop
  endfacet
  facet normal 0 0 -1
    outer loop
      vertex -5 8.66025 6
      vertex -4.63525 14.2658 6
      vertex -3.09017 9.51056 6
    endloop
  endfacet
  facet normal 0 0 -1
    outer loop
      vertex -7.5 12.9904 6
      vertex -5 8.66025 6
      vertex -6.69131 7.43145 6
    endloop
  endfacet
  facet normal 0 0 -1
    outer loop
      vertex -5 8.66025 6
      vertex -7.5 12.9904 6
      vertex -4.63525 14.2658 6
    endloop
  endfacet
  facet normal 0 0 -1
    outer loop
      vertex -10.037 11.1472 6
      vertex -6.69131 7.43145 6
      vertex -8.09017 5.87785 6
    endloop
  endfacet
  facet normal 0 0 -1
    outer loop
      vertex -12.1353 8.81678 6
      vertex -8.09017 5.87785 6
      vertex -9.13545 4.06737 6
    endloop
  endfacet
  facet normal 0 0 -1
    outer loop
      vertex -13.7032 6.10105 6
      vertex -9.13545 4.06737 6
      vertex -9.78148 2.07912 6
    endloop
  endfacet
  facet normal 0 0 -1
    outer loop
      vertex -6.69131 7.43145 6
      vertex -10.037 11.1472 6
      vertex -7.5 12.9904 6
    endloop
  endfacet
  facet normal 0 0 -1
    outer loop
      vertex -14.6722 3.11868 6
      vertex -9.78148 2.07912 6
      vertex -10 0 6
    endloop
  endfacet
  facet normal -0 0 -1
    outer loop
      vertex -9.13545 -4.06737 6
      vertex -13.7032 -6.10105 6
      vertex -9.78148 -2.07912 6
    endloop
  endfacet
  facet normal 0 0 -1
    outer loop
      vertex -14.6722 -3.11868 6
      vertex -9.78148 -2.07912 6
      vertex -13.7032 -6.10105 6
    endloop
  endfacet
  facet normal 0 0 -1
    outer loop
      vertex -8.09017 5.87785 6
      vertex -12.1353 8.81678 6
      vertex -10.037 11.1472 6
    endloop
  endfacet
  facet normal -0 0 -1
    outer loop
      vertex -9.78148 -2.07912 6
      vertex -14.6722 -3.11868 6
      vertex -10 0 6
    endloop
  endfacet
  facet normal 0 0 -1
    outer loop
      vertex -9.13545 4.06737 6
      vertex -13.7032 6.10105 6
      vertex -12.1353 8.81678 6
    endloop
  endfacet
  facet normal 0 0 -1
    outer loop
      vertex -15 0 6
      vertex -10 0 6
      vertex -14.6722 -3.11868 6
    endloop
  endfacet
  facet normal 0 0 -1
    outer loop
      vertex -9.78148 2.07912 6
      vertex -14.6722 3.11868 6
      vertex -13.7032 6.10105 6
    endloop
  endfacet
  facet normal 0 0 -1
    outer loop
      vertex -10 0 6
      vertex -15 0 6
      vertex -14.6722 3.11868 6
    endloop
  endfacet
  facet normal -0.207914 -0.978147 0
    outer loop
      vertex -3.09017 -9.51056 -6
      vertex -1.04528 -9.94522 6
      vertex -3.09017 -9.51056 6
    endloop
  endfacet
  facet normal -0.207914 -0.978147 -0
    outer loop
      vertex -1.04528 -9.94522 6
      vertex -3.09017 -9.51056 -6
      vertex -1.04528 -9.94522 -6
    endloop
  endfacet
  facet normal 0.207914 0.978147 -0
    outer loop
      vertex 3.09017 9.51056 -6
      vertex 1.04528 9.94522 6
      vertex 3.09017 9.51056 6
    endloop
  endfacet
  facet normal 0.207914 0.978147 0
    outer loop
      vertex 1.04528 9.94522 6
      vertex 3.09017 9.51056 -6
      vertex 1.04528 9.94522 -6
    endloop
  endfacet
  facet normal -0.994522 -0.104526 0
    outer loop
      vertex -9.78148 -2.07912 -6
      vertex -10 0 6
      vertex -10 0 -6
    endloop
  endfacet
  facet normal -0.994522 -0.104526 0
    outer loop
      vertex -10 0 6
      vertex -9.78148 -2.07912 -6
      vertex -9.78148 -2.07912 6
    endloop
  endfacet
  facet normal -0.866026 -0.5 0
    outer loop
      vertex -8.09017 -5.87785 -6
      vertex -9.13545 -4.06737 6
      vertex -9.13545 -4.06737 -6
    endloop
  endfacet
  facet normal -0.866026 -0.5 0
    outer loop
      vertex -9.13545 -4.06737 6
      vertex -8.09017 -5.87785 -6
      vertex -8.09017 -5.87785 6
    endloop
  endfacet
  facet normal -0.866026 0.5 0
    outer loop
      vertex -9.13545 4.06737 -6
      vertex -8.09017 5.87785 6
      vertex -8.09017 5.87785 -6
    endloop
  endfacet
  facet normal -0.866026 0.5 0
    outer loop
      vertex -8.09017 5.87785 6
      vertex -9.13545 4.06737 -6
      vertex -9.13545 4.06737 6
    endloop
  endfacet
  facet normal 0.866026 -0.5 0
    outer loop
      vertex 8.09017 -5.87785 6
      vertex 9.13545 -4.06737 -6
      vertex 9.13545 -4.06737 6
    endloop
  endfacet
  facet normal 0.866026 -0.5 0
    outer loop
      vertex 9.13545 -4.06737 -6
      vertex 8.09017 -5.87785 6
      vertex 8.09017 -5.87785 -6
    endloop
  endfacet
  facet normal 0.587783 0.809019 -0
    outer loop
      vertex 6.69131 7.43145 -6
      vertex 5 8.66025 6
      vertex 6.69131 7.43145 6
    endloop
  endfacet
  facet normal 0.587783 0.809019 0
    outer loop
      vertex 5 8.66025 6
      vertex 6.69131 7.43145 -6
      vertex 5 8.66025 -6
    endloop
  endfacet
  facet normal -0.587783 0.809019 0
    outer loop
      vertex -5 8.66025 -6
      vertex -6.69131 7.43145 6
      vertex -5 8.66025 6
    endloop
  endfacet
  facet normal -0.587783 0.809019 0
    outer loop
      vertex -6.69131 7.43145 6
      vertex -5 8.66025 -6
      vertex -6.69131 7.43145 -6
    endloop
  endfacet
  facet normal -0.207914 0.978147 0
    outer loop
      vertex -1.04528 9.94522 -6
      vertex -3.09017 9.51056 6
      vertex -1.04528 9.94522 6
    endloop
  endfacet
  facet normal -0.207914 0.978147 0
    outer loop
      vertex -3.09017 9.51056 6
      vertex -1.04528 9.94522 -6
      vertex -3.09017 9.51056 -6
    endloop
  endfacet
  facet normal 0 -1 0
    outer loop
      vertex -1.04528 -9.94522 -6
      vertex 1.04528 -9.94522 6
      vertex -1.04528 -9.94522 6
    endloop
  endfacet
  facet normal 0 -1 -0
    outer loop
      vertex 1.04528 -9.94522 6
      vertex -1.04528 -9.94522 -6
      vertex 1.04528 -9.94522 -6
    endloop
  endfacet
  facet normal -0.994522 0.104526 0
    outer loop
      vertex -10 0 -6
      vertex -9.78148 2.07912 6
      vertex -9.78148 2.07912 -6
    endloop
  endfacet
  facet normal -0.994522 0.104526 0
    outer loop
      vertex -9.78148 2.07912 6
      vertex -10 0 -6
      vertex -10 0 6
    endloop
  endfacet
  facet normal 0.951059 0.309008 0
    outer loop
      vertex 14.6722 3.11868 8
      vertex 13.7032 6.10105 6
      vertex 13.7032 6.10105 8
    endloop
  endfacet
  facet normal 0.951059 0.309008 0
    outer loop
      vertex 13.7032 6.10105 6
      vertex 14.6722 3.11868 8
      vertex 14.6722 3.11868 6
    endloop
  endfacet
  facet normal 0.994521 0.104533 0
    outer loop
      vertex 15 0 8
      vertex 14.6722 3.11868 6
      vertex 14.6722 3.11868 8
    endloop
  endfacet
  facet normal 0.994521 0.104533 0
    outer loop
      vertex 14.6722 3.11868 6
      vertex 15 0 8
      vertex 15 0 6
    endloop
  endfacet
  facet normal 0.866029 0.499993 0
    outer loop
      vertex 13.7032 6.10105 8
      vertex 12.1353 8.81678 6
      vertex 12.1353 8.81678 8
    endloop
  endfacet
  facet normal 0.866029 0.499993 0
    outer loop
      vertex 12.1353 8.81678 6
      vertex 13.7032 6.10105 8
      vertex 13.7032 6.10105 6
    endloop
  endfacet
  facet normal 0.951059 -0.309008 0
    outer loop
      vertex 13.7032 -6.10105 8
      vertex 14.6722 -3.11868 6
      vertex 14.6722 -3.11868 8
    endloop
  endfacet
  facet normal 0.951059 -0.309008 0
    outer loop
      vertex 14.6722 -3.11868 6
      vertex 13.7032 -6.10105 8
      vertex 13.7032 -6.10105 6
    endloop
  endfacet
  facet normal 0.994521 -0.104533 0
    outer loop
      vertex 14.6722 -3.11868 8
      vertex 15 0 6
      vertex 15 0 8
    endloop
  endfacet
  facet normal 0.994521 -0.104533 0
    outer loop
      vertex 15 0 6
      vertex 14.6722 -3.11868 8
      vertex 14.6722 -3.11868 6
    endloop
  endfacet
  facet normal 0.743148 0.669127 0
    outer loop
      vertex 12.1353 8.81678 8
      vertex 10.037 11.1472 6
      vertex 10.037 11.1472 8
    endloop
  endfacet
  facet normal 0.743148 0.669127 0
    outer loop
      vertex 10.037 11.1472 6
      vertex 12.1353 8.81678 8
      vertex 12.1353 8.81678 6
    endloop
  endfacet
  facet normal -0.951059 -0.309008 0
    outer loop
      vertex -13.7032 -6.10105 6
      vertex -14.6722 -3.11868 8
      vertex -14.6722 -3.11868 6
    endloop
  endfacet
  facet normal -0.951059 -0.309008 0
    outer loop
      vertex -14.6722 -3.11868 8
      vertex -13.7032 -6.10105 6
      vertex -13.7032 -6.10105 8
    endloop
  endfacet
  facet normal -0.951059 0.309008 0
    outer loop
      vertex -14.6722 3.11868 6
      vertex -13.7032 6.10105 8
      vertex -13.7032 6.10105 6
    endloop
  endfacet
  facet normal -0.951059 0.309008 0
    outer loop
      vertex -13.7032 6.10105 8
      vertex -14.6722 3.11868 6
      vertex -14.6722 3.11868 8
    endloop
  endfacet
  facet normal 0.587777 -0.809023 0
    outer loop
      vertex 7.5 -12.9904 6
      vertex 10.037 -11.1472 8
      vertex 7.5 -12.9904 8
    endloop
  endfacet
  facet normal 0.587777 -0.809023 0
    outer loop
      vertex 10.037 -11.1472 8
      vertex 7.5 -12.9904 6
      vertex 10.037 -11.1472 6
    endloop
  endfacet
  facet normal -0.587777 0.809023 0
    outer loop
      vertex -7.5 12.9904 6
      vertex -10.037 11.1472 8
      vertex -7.5 12.9904 8
    endloop
  endfacet
  facet normal -0.587777 0.809023 0
    outer loop
      vertex -10.037 11.1472 8
      vertex -7.5 12.9904 6
      vertex -10.037 11.1472 6
    endloop
  endfacet
  facet normal 0 0 1
    outer loop
      vertex 14.6722 3.11868 8
      vertex 14.6722 -3.11868 8
      vertex 15 0 8
    endloop
  endfacet
  facet normal 0 0 1
    outer loop
      vertex 13.7032 6.10105 8
      vertex 14.6722 -3.11868 8
      vertex 14.6722 3.11868 8
    endloop
  endfacet
  facet normal 0 0 1
    outer loop
      vertex 13.7032 6.10105 8
      vertex 13.7032 -6.10105 8
      vertex 14.6722 -3.11868 8
    endloop
  endfacet
  facet normal 0 0 1
    outer loop
      vertex 12.1353 8.81678 8
      vertex 13.7032 -6.10105 8
      vertex 13.7032 6.10105 8
    endloop
  endfacet
  facet normal 0 0 1
    outer loop
      vertex 12.1353 8.81678 8
      vertex 12.1353 -8.81678 8
      vertex 13.7032 -6.10105 8
    endloop
  endfacet
  facet normal 0 0 1
    outer loop
      vertex 10.037 11.1472 8
      vertex 12.1353 -8.81678 8
      vertex 12.1353 8.81678 8
    endloop
  endfacet
  facet normal 0 0 1
    outer loop
      vertex 10.037 11.1472 8
      vertex 10.037 -11.1472 8
      vertex 12.1353 -8.81678 8
    endloop
  endfacet
  facet normal 0 0 1
    outer loop
      vertex 7.5 12.9904 8
      vertex 10.037 -11.1472 8
      vertex 10.037 11.1472 8
    endloop
  endfacet
  facet normal 0 0 1
    outer loop
      vertex 7.5 12.9904 8
      vertex 7.5 -12.9904 8
      vertex 10.037 -11.1472 8
    endloop
  endfacet
  facet normal 0 0 1
    outer loop
      vertex 4.63525 14.2658 8
      vertex 7.5 -12.9904 8
      vertex 7.5 12.9904 8
    endloop
  endfacet
  facet normal 0 0 1
    outer loop
      vertex 4.63525 14.2658 8
      vertex 4.63525 -14.2658 8
      vertex 7.5 -12.9904 8
    endloop
  endfacet
  facet normal 0 0 1
    outer loop
      vertex 1.56793 14.9178 8
      vertex 4.63525 -14.2658 8
      vertex 4.63525 14.2658 8
    endloop
  endfacet
  facet normal 0 0 1
    outer loop
      vertex 1.56793 14.9178 8
      vertex 1.56793 -14.9178 8
      vertex 4.63525 -14.2658 8
    endloop
  endfacet
  facet normal -0 0 1
    outer loop
      vertex -1.56793 14.9178 8
      vertex 1.56793 -14.9178 8
      vertex 1.56793 14.9178 8
    endloop
  endfacet
  facet normal 0 0 1
    outer loop
      vertex -1.56793 14.9178 8
      vertex -1.56793 -14.9178 8
      vertex 1.56793 -14.9178 8
    endloop
  endfacet
  facet normal -0 0 1
    outer loop
      vertex -4.63525 14.2658 8
      vertex -1.56793 -14.9178 8
      vertex -1.56793 14.9178 8
    endloop
  endfacet
  facet normal 0 0 1
    outer loop
      vertex -4.63525 14.2658 8
      vertex -4.63525 -14.2658 8
      vertex -1.56793 -14.9178 8
    endloop
  endfacet
  facet normal -0 0 1
    outer loop
      vertex -7.5 12.9904 8
      vertex -4.63525 -14.2658 8
      vertex -4.63525 14.2658 8
    endloop
  endfacet
  facet normal 0 0 1
    outer loop
      vertex -7.5 12.9904 8
      vertex -7.5 -12.9904 8
      vertex -4.63525 -14.2658 8
    endloop
  endfacet
  facet normal -0 0 1
    outer loop
      vertex -10.037 11.1472 8
      vertex -7.5 -12.9904 8
      vertex -7.5 12.9904 8
    endloop
  endfacet
  facet normal 0 0 1
    outer loop
      vertex -10.037 11.1472 8
      vertex -10.037 -11.1472 8
      vertex -7.5 -12.9904 8
    endloop
  endfacet
  facet normal -0 0 1
    outer loop
      vertex -12.1353 8.81678 8
      vertex -10.037 -11.1472 8
      vertex -10.037 11.1472 8
    endloop
  endfacet
  facet normal 0 0 1
    outer loop
      vertex -12.1353 8.81678 8
      vertex -12.1353 -8.81678 8
      vertex -10.037 -11.1472 8
    endloop
  endfacet
  facet normal -0 0 1
    outer loop
      vertex -13.7032 6.10105 8
      vertex -12.1353 -8.81678 8
      vertex -12.1353 8.81678 8
    endloop
  endfacet
  facet normal 0 0 1
    outer loop
      vertex -13.7032 6.10105 8
      vertex -13.7032 -6.10105 8
      vertex -12.1353 -8.81678 8
    endloop
  endfacet
  facet normal -0 0 1
    outer loop
      vertex -14.6722 3.11868 8
      vertex -13.7032 -6.10105 8
      vertex -13.7032 6.10105 8
    endloop
  endfacet
  facet normal 0 0 1
    outer loop
      vertex -14.6722 3.11868 8
      vertex -14.6722 -3.11868 8
      vertex -13.7032 -6.10105 8
    endloop
  endfacet
  facet normal 0 -0 1
    outer loop
      vertex -14.6722 -3.11868 8
      vertex -14.6722 3.11868 8
      vertex -15 0 8
    endloop
  endfacet
  facet normal -0.866029 0.499993 0
    outer loop
      vertex -13.7032 6.10105 6
      vertex -12.1353 8.81678 8
      vertex -12.1353 8.81678 6
    endloop
  endfacet
  facet normal -0.866029 0.499993 0
    outer loop
      vertex -12.1353 8.81678 8
      vertex -13.7032 6.10105 6
      vertex -13.7032 6.10105 8
    endloop
  endfacet
  facet normal 0.866029 -0.499993 0
    outer loop
      vertex 12.1353 -8.81678 8
      vertex 13.7032 -6.10105 6
      vertex 13.7032 -6.10105 8
    endloop
  endfacet
  facet normal 0.866029 -0.499993 0
    outer loop
      vertex 13.7032 -6.10105 6
      vertex 12.1353 -8.81678 8
      vertex 12.1353 -8.81678 6
    endloop
  endfacet
  facet normal 0 1 -0
    outer loop
      vertex 1.56793 14.9178 6
      vertex -1.56793 14.9178 8
      vertex 1.56793 14.9178 8
    endloop
  endfacet
  facet normal 0 1 0
    outer loop
      vertex -1.56793 14.9178 8
      vertex 1.56793 14.9178 6
      vertex -1.56793 14.9178 6
    endloop
  endfacet
  facet normal -0.406718 0.913554 0
    outer loop
      vertex -4.63525 14.2658 6
      vertex -7.5 12.9904 8
      vertex -4.63525 14.2658 8
    endloop
  endfacet
  facet normal -0.406718 0.913554 0
    outer loop
      vertex -7.5 12.9904 8
      vertex -4.63525 14.2658 6
      vertex -7.5 12.9904 6
    endloop
  endfacet
  facet normal -0.207918 -0.978146 0
    outer loop
      vertex -4.63525 -14.2658 6
      vertex -1.56793 -14.9178 8
      vertex -4.63525 -14.2658 8
    endloop
  endfacet
  facet normal -0.207918 -0.978146 -0
    outer loop
      vertex -1.56793 -14.9178 8
      vertex -4.63525 -14.2658 6
      vertex -1.56793 -14.9178 6
    endloop
  endfacet
  facet normal -0.406718 -0.913554 0
    outer loop
      vertex -7.5 -12.9904 6
      vertex -4.63525 -14.2658 8
      vertex -7.5 -12.9904 8
    endloop
  endfacet
  facet normal -0.406718 -0.913554 -0
    outer loop
      vertex -4.63525 -14.2658 8
      vertex -7.5 -12.9904 6
      vertex -4.63525 -14.2658 6
    endloop
  endfacet
  facet normal -0.207918 0.978146 0
    outer loop
      vertex -1.56793 14.9178 6
      vertex -4.63525 14.2658 8
      vertex -1.56793 14.9178 8
    endloop
  endfacet
  facet normal -0.207918 0.978146 0
    outer loop
      vertex -4.63525 14.2658 8
      vertex -1.56793 14.9178 6
      vertex -4.63525 14.2658 6
    endloop
  endfacet
  facet normal 0.207918 -0.978146 0
    outer loop
      vertex 1.56793 -14.9178 6
      vertex 4.63525 -14.2658 8
      vertex 1.56793 -14.9178 8
    endloop
  endfacet
  facet normal 0.207918 -0.978146 0
    outer loop
      vertex 4.63525 -14.2658 8
      vertex 1.56793 -14.9178 6
      vertex 4.63525 -14.2658 6
    endloop
  endfacet
  facet normal 0.743148 -0.669127 0
    outer loop
      vertex 10.037 -11.1472 8
      vertex 12.1353 -8.81678 6
      vertex 12.1353 -8.81678 8
    endloop
  endfacet
  facet normal 0.743148 -0.669127 0
    outer loop
      vertex 12.1353 -8.81678 6
      vertex 10.037 -11.1472 8
      vertex 10.037 -11.1472 6
    endloop
  endfacet
  facet normal 0.406718 -0.913554 0
    outer loop
      vertex 4.63525 -14.2658 6
      vertex 7.5 -12.9904 8
      vertex 4.63525 -14.2658 8
    endloop
  endfacet
  facet normal 0.406718 -0.913554 0
    outer loop
      vertex 7.5 -12.9904 8
      vertex 4.63525 -14.2658 6
      vertex 7.5 -12.9904 6
    endloop
  endfacet
  facet normal -0.587777 -0.809023 0
    outer loop
      vertex -10.037 -11.1472 6
      vertex -7.5 -12.9904 8
      vertex -10.037 -11.1472 8
    endloop
  endfacet
  facet normal -0.587777 -0.809023 -0
    outer loop
      vertex -7.5 -12.9904 8
      vertex -10.037 -11.1472 6
      vertex -7.5 -12.9904 6
    endloop
  endfacet
  facet normal 0.587777 0.809023 -0
    outer loop
      vertex 10.037 11.1472 6
      vertex 7.5 12.9904 8
      vertex 10.037 11.1472 8
    endloop
  endfacet
  facet normal 0.587777 0.809023 0
    outer loop
      vertex 7.5 12.9904 8
      vertex 10.037 11.1472 6
      vertex 7.5 12.9904 6
    endloop
  endfacet
  facet normal -0.994521 0.104533 0
    outer loop
      vertex -15 0 6
      vertex -14.6722 3.11868 8
      vertex -14.6722 3.11868 6
    endloop
  endfacet
  facet normal -0.994521 0.104533 0
    outer loop
      vertex -14.6722 3.11868 8
      vertex -15 0 6
      vertex -15 0 8
    endloop
  endfacet
  facet normal 0.207918 0.978146 -0
    outer loop
      vertex 4.63525 14.2658 6
      vertex 1.56793 14.9178 8
      vertex 4.63525 14.2658 8
    endloop
  endfacet
  facet normal 0.207918 0.978146 0
    outer loop
      vertex 1.56793 14.9178 8
      vertex 4.63525 14.2658 6
      vertex 1.56793 14.9178 6
    endloop
  endfacet
  facet normal -0.866029 -0.499993 0
    outer loop
      vertex -12.1353 -8.81678 6
      vertex -13.7032 -6.10105 8
      vertex -13.7032 -6.10105 6
    endloop
  endfacet
  facet normal -0.866029 -0.499993 0
    outer loop
      vertex -13.7032 -6.10105 8
      vertex -12.1353 -8.81678 6
      vertex -12.1353 -8.81678 8
    endloop
  endfacet
  facet normal 0.406718 0.913554 -0
    outer loop
      vertex 7.5 12.9904 6
      vertex 4.63525 14.2658 8
      vertex 7.5 12.9904 8
    endloop
  endfacet
  facet normal 0.406718 0.913554 0
    outer loop
      vertex 4.63525 14.2658 8
      vertex 7.5 12.9904 6
      vertex 4.63525 14.2658 6
    endloop
  endfacet
  facet normal 0 -1 0
    outer loop
      vertex -1.56793 -14.9178 6
      vertex 1.56793 -14.9178 8
      vertex -1.56793 -14.9178 8
    endloop
  endfacet
  facet normal 0 -1 -0
    outer loop
      vertex 1.56793 -14.9178 8
      vertex -1.56793 -14.9178 6
      vertex 1.56793 -14.9178 6
    endloop
  endfacet
  facet normal -0.994521 -0.104533 0
    outer loop
      vertex -14.6722 -3.11868 6
      vertex -15 0 8
      vertex -15 0 6
    endloop
  endfacet
  facet normal -0.994521 -0.104533 0
    outer loop
      vertex -15 0 8
      vertex -14.6722 -3.11868 6
      vertex -14.6722 -3.11868 8
    endloop
  endfacet
  facet normal -0.743148 -0.669127 0
    outer loop
      vertex -10.037 -11.1472 6
      vertex -12.1353 -8.81678 8
      vertex -12.1353 -8.81678 6
    endloop
  endfacet
  facet normal -0.743148 -0.669127 0
    outer loop
      vertex -12.1353 -8.81678 8
      vertex -10.037 -11.1472 6
      vertex -10.037 -11.1472 8
    endloop
  endfacet
  facet normal -0.743148 0.669127 0
    outer loop
      vertex -12.1353 8.81678 6
      vertex -10.037 11.1472 8
      vertex -10.037 11.1472 6
    endloop
  endfacet
  facet normal -0.743148 0.669127 0
    outer loop
      vertex -10.037 11.1472 8
      vertex -12.1353 8.81678 6
      vertex -12.1353 8.81678 8
    endloop
  endfacet
  facet normal -0.92388 -0.382682 0
    outer loop
      vertex -1.76777 -1.76777 13
      vertex -2.5 0 28
      vertex -2.5 0 13
    endloop
  endfacet
  facet normal -0.92388 -0.382682 0
    outer loop
      vertex -2.5 0 28
      vertex -1.76777 -1.76777 13
      vertex -1.76777 -1.76777 28
    endloop
  endfacet
  facet normal 0.382682 0.92388 -0
    outer loop
      vertex 1.76777 1.76777 13
      vertex 0 2.5 28
      vertex 1.76777 1.76777 28
    endloop
  endfacet
  facet normal 0.382682 0.92388 0
    outer loop
      vertex 0 2.5 28
      vertex 1.76777 1.76777 13
      vertex 0 2.5 13
    endloop
  endfacet
  facet normal 0.92388 0.382682 0
    outer loop
      vertex 2.5 0 28
      vertex 1.76777 1.76777 13
      vertex 1.76777 1.76777 28
    endloop
  endfacet
  facet normal 0.92388 0.382682 0
    outer loop
      vertex 1.76777 1.76777 13
      vertex 2.5 0 28
      vertex 2.5 0 13
    endloop
  endfacet
  facet normal 0.92388 -0.382682 0
    outer loop
      vertex 1.76777 -1.76777 28
      vertex 2.5 0 13
      vertex 2.5 0 28
    endloop
  endfacet
  facet normal 0.92388 -0.382682 0
    outer loop
      vertex 2.5 0 13
      vertex 1.76777 -1.76777 28
      vertex 1.76777 -1.76777 13
    endloop
  endfacet
  facet normal -0.382682 -0.92388 0
    outer loop
      vertex -1.76777 -1.76777 13
      vertex 0 -2.5 28
      vertex -1.76777 -1.76777 28
    endloop
  endfacet
  facet normal -0.382682 -0.92388 -0
    outer loop
      vertex 0 -2.5 28
      vertex -1.76777 -1.76777 13
      vertex 0 -2.5 13
    endloop
  endfacet
  facet normal -0.382682 0.92388 0
    outer loop
      vertex 0 2.5 13
      vertex -1.76777 1.76777 28
      vertex 0 2.5 28
    endloop
  endfacet
  facet normal -0.382682 0.92388 0
    outer loop
      vertex -1.76777 1.76777 28
      vertex 0 2.5 13
      vertex -1.76777 1.76777 13
    endloop
  endfacet
  facet normal -0.92388 0.382682 0
    outer loop
      vertex -2.5 0 13
      vertex -1.76777 1.76777 28
      vertex -1.76777 1.76777 13
    endloop
  endfacet
  facet normal -0.92388 0.382682 0
    outer loop
      vertex -1.76777 1.76777 28
      vertex -2.5 0 13
      vertex -2.5 0 28
    endloop
  endfacet
  facet normal 0.382682 -0.92388 0
    outer loop
      vertex 0 -2.5 13
      vertex 1.76777 -1.76777 28
      vertex 0 -2.5 28
    endloop
  endfacet
  facet normal 0.382682 -0.92388 0
    outer loop
      vertex 1.76777 -1.76777 28
      vertex 0 -2.5 13
      vertex 1.76777 -1.76777 13
    endloop
  endfacet
  facet normal 0 0 1
    outer loop
      vertex 1.76777 1.76777 28
      vertex 1.76777 -1.76777 28
      vertex 2.5 0 28
    endloop
  endfacet
  facet normal 0 0 1
    outer loop
      vertex 0 2.5 28
      vertex 1.76777 -1.76777 28
      vertex 1.76777 1.76777 28
    endloop
  endfacet
  facet normal 0 0 1
    outer loop
      vertex 0 2.5 28
      vertex 0 -2.5 28
      vertex 1.76777 -1.76777 28
    endloop
  endfacet
  facet normal -0 0 1
    outer loop
      vertex -1.76777 1.76777 28
      vertex 0 -2.5 28
      vertex 0 2.5 28
    endloop
  endfacet
  facet normal 0 0 1
    outer loop
      vertex -1.76777 1.76777 28
      vertex -1.76777 -1.76777 28
      vertex 0 -2.5 28
    endloop
  endfacet
  facet normal 0 -0 1
    outer loop
      vertex -1.76777 -1.76777 28
      vertex -1.76777 1.76777 28
      vertex -2.5 0 28
    endloop
  endfacet
  facet normal 0 0 -1
    outer loop
      vertex 1.76777 -1.76777 13
      vertex 1.76777 1.76777 13
      vertex 2.5 0 13
    endloop
  endfacet
  facet normal 0 0 -1
    outer loop
      vertex 0 -2.5 13
      vertex 1.76777 1.76777 13
      vertex 1.76777 -1.76777 13
    endloop
  endfacet
  facet normal 0 0 -1
    outer loop
      vertex 0 -2.5 13
      vertex 0 2.5 13
      vertex 1.76777 1.76777 13
    endloop
  endfacet
  facet normal 0 0 -1
    outer loop
      vertex -1.76777 -1.76777 13
      vertex 0 2.5 13
      vertex 0 -2.5 13
    endloop
  endfacet
  facet normal 0 0 -1
    outer loop
      vertex -1.76777 -1.76777 13
      vertex -1.76777 1.76777 13
      vertex 0 2.5 13
    endloop
  endfacet
  facet normal 0 -0 -1
    outer loop
      vertex -1.76777 1.76777 13
      vertex -1.76777 -1.76777 13
      vertex -2.5 0 13
    endloop
  endfacet
endsolid OpenSCAD_Model
