solid OpenSCAD_Model
  facet normal 1 0 0
    outer loop
      vertex 60 5 25
      vertex 60 0 25
      vertex 60 5 15
    endloop
  endfacet
  facet normal 1 0 0
    outer loop
      vertex 60 25 15
      vertex 60 30 25
      vertex 60 25 25
    endloop
  endfacet
  facet normal 1 0 0
    outer loop
      vertex 60 30 25
      vertex 60 25 15
      vertex 60 30 0
    endloop
  endfacet
  facet normal 1 -0 0
    outer loop
      vertex 60 5 15
      vertex 60 30 0
      vertex 60 25 15
    endloop
  endfacet
  facet normal 1 0 0
    outer loop
      vertex 60 5 15
      vertex 60 0 0
      vertex 60 30 0
    endloop
  endfacet
  facet normal 1 0 0
    outer loop
      vertex 60 0 0
      vertex 60 5 15
      vertex 60 0 25
    endloop
  endfacet
  facet normal -0 0 1
    outer loop
      vertex 0 25 15
      vertex 60 5 15
      vertex 60 25 15
    endloop
  endfacet
  facet normal 0 0 1
    outer loop
      vertex 60 5 15
      vertex 0 25 15
      vertex 0 5 15
    endloop
  endfacet
  facet normal 0 0 -1
    outer loop
      vertex 0 0 0
      vertex 60 30 0
      vertex 60 0 0
    endloop
  endfacet
  facet normal -0 0 -1
    outer loop
      vertex 60 30 0
      vertex 0 0 0
      vertex 0 30 0
    endloop
  endfacet
  facet normal -1 0 0
    outer loop
      vertex 0 30 0
      vertex 0 25 15
      vertex 0 30 25
    endloop
  endfacet
  facet normal -1 0 0
    outer loop
      vertex 0 30 0
      vertex 0 5 15
      vertex 0 25 15
    endloop
  endfacet
  facet normal -1 0 0
    outer loop
      vertex 0 0 0
      vertex 0 5 15
      vertex 0 30 0
    endloop
  endfacet
  facet normal -1 0 0
    outer loop
      vertex 0 0 25
      vertex 0 5 15
      vertex 0 0 0
    endloop
  endfacet
  facet normal -1 0 0
    outer loop
      vertex 0 5 15
      vertex 0 0 25
      vertex 0 5 25
    endloop
  endfacet
  facet normal -1 -0 0
    outer loop
      vertex 0 30 25
      vertex 0 25 15
      vertex 0 25 25
    endloop
  endfacet
  facet normal 0 1 -0
    outer loop
      vertex 60 30 0
      vertex 0 30 25
      vertex 60 30 25
    endloop
  endfacet
  facet normal 0 1 0
    outer loop
      vertex 0 30 25
      vertex 60 30 0
      vertex 0 30 0
    endloop
  endfacet
  facet normal 0 -1 0
    outer loop
      vertex 0 0 0
      vertex 60 0 25
      vertex 0 0 25
    endloop
  endfacet
  facet normal 0 -1 -0
    outer loop
      vertex 60 0 25
      vertex 0 0 0
      vertex 60 0 0
    endloop
  endfacet
  facet normal -0 0 1
    outer loop
      vertex 0 5 25
      vertex 60 0 25
      vertex 60 5 25
    endloop
  endfacet
  facet normal 0 0 1
    outer loop
      vertex 60 0 25
      vertex 0 5 25
      vertex 0 0 25
    endloop
  endfacet
  facet normal 0 1 -0
    outer loop
      vertex 60 5 15
      vertex 0 5 25
      vertex 60 5 25
    endloop
  endfacet
  facet normal 0 1 0
    outer loop
      vertex 0 5 25
      vertex 60 5 15
      vertex 0 5 15
    endloop
  endfacet
  facet normal -0 0 1
    outer loop
      vertex 0 30 25
      vertex 60 25 25
      vertex 60 30 25
    endloop
  endfacet
  facet normal 0 0 1
    outer loop
      vertex 60 25 25
      vertex 0 30 25
      vertex 0 25 25
    endloop
  endfacet
  facet normal 0 -1 0
    outer loop
      vertex 0 25 15
      vertex 60 25 25
      vertex 0 25 25
    endloop
  endfacet
  facet normal 0 -1 -0
    outer loop
      vertex 60 25 25
      vertex 0 25 15
      vertex 60 25 15
    endloop
  endfacet
endsolid OpenSCAD_Model
