solid OpenSCAD_Model
  facet normal 0 -1 0
    outer loop
      vertex -25 -1 -15
      vertex 25 -1 15
      vertex -25 -1 15
    endloop
  endfacet
  facet normal 0 -1 -0
    outer loop
      vertex 25 -1 15
      vertex -25 -1 -15
      vertex 25 -1 -15
    endloop
  endfacet
  facet normal 0 1 -0
    outer loop
      vertex 25 1 -15
      vertex -25 1 15
      vertex 25 1 15
    endloop
  endfacet
  facet normal 0 1 0
    outer loop
      vertex -25 1 15
      vertex 25 1 -15
      vertex -25 1 -15
    endloop
  endfacet
  facet normal 0 0 -1
    outer loop
      vertex -25 -1 -15
      vertex 25 1 -15
      vertex 25 -1 -15
    endloop
  endfacet
  facet normal -0 0 -1
    outer loop
      vertex 25 1 -15
      vertex -25 -1 -15
      vertex -25 1 -15
    endloop
  endfacet
  facet normal 1 -0 0
    outer loop
      vertex 25 -1 15
      vertex 25 1 -15
      vertex 25 1 15
    endloop
  endfacet
  facet normal 1 0 0
    outer loop
      vertex 25 1 -15
      vertex 25 -1 15
      vertex 25 -1 -15
    endloop
  endfacet
  facet normal -0 0 1
    outer loop
      vertex -25 1 15
      vertex 25 -1 15
      vertex 25 1 15
    endloop
  endfacet
  facet normal 0 0 1
    outer loop
      vertex 25 -1 15
      vertex -25 1 15
      vertex -25 -1 15
    endloop
  endfacet
  facet normal -1 0 0
    outer loop
      vertex -25 -1 -15
      vertex -25 1 15
      vertex -25 1 -15
    endloop
  endfacet
  facet normal -1 -0 0
    outer loop
      vertex -25 1 15
      vertex -25 -1 -15
      vertex -25 -1 15
    endloop
  endfacet
endsolid OpenSCAD_Model
