solid OpenSCAD_Model
  facet normal 0 0 1
    outer loop
      vertex 22.8109 30.4904 20
      vertex -22.8109 -30.4904 20
      vertex 37.8109 4.50962 20
    endloop
  endfacet
  facet normal 0 -0 1
    outer loop
      vertex -22.8109 -30.4904 20
      vertex 22.8109 30.4904 20
      vertex -37.8109 -4.50962 20
    endloop
  endfacet
  facet normal 0 0 -1
    outer loop
      vertex -22.8109 -30.4904 0
      vertex 22.8109 30.4904 0
      vertex 37.8109 4.50962 0
    endloop
  endfacet
  facet normal 0 0 -1
    outer loop
      vertex 22.8109 30.4904 0
      vertex -22.8109 -30.4904 0
      vertex -37.8109 -4.50962 0
    endloop
  endfacet
  facet normal 0.5 -0.866025 0
    outer loop
      vertex -22.8109 -30.4904 0
      vertex 37.8109 4.50962 20
      vertex -22.8109 -30.4904 20
    endloop
  endfacet
  facet normal 0.5 -0.866025 0
    outer loop
      vertex 37.8109 4.50962 20
      vertex -22.8109 -30.4904 0
      vertex 37.8109 4.50962 0
    endloop
  endfacet
  facet normal 0.866026 0.5 0
    outer loop
      vertex 37.8109 4.50962 20
      vertex 22.8109 30.4904 0
      vertex 22.8109 30.4904 20
    endloop
  endfacet
  facet normal 0.866026 0.5 0
    outer loop
      vertex 22.8109 30.4904 0
      vertex 37.8109 4.50962 20
      vertex 37.8109 4.50962 0
    endloop
  endfacet
  facet normal -0.5 0.866025 0
    outer loop
      vertex 22.8109 30.4904 0
      vertex -37.8109 -4.50962 20
      vertex 22.8109 30.4904 20
    endloop
  endfacet
  facet normal -0.5 0.866025 0
    outer loop
      vertex -37.8109 -4.50962 20
      vertex 22.8109 30.4904 0
      vertex -37.8109 -4.50962 0
    endloop
  endfacet
  facet normal -0.866026 -0.5 0
    outer loop
      vertex -22.8109 -30.4904 0
      vertex -37.8109 -4.50962 20
      vertex -37.8109 -4.50962 0
    endloop
  endfacet
  facet normal -0.866026 -0.5 0
    outer loop
      vertex -37.8109 -4.50962 20
      vertex -22.8109 -30.4904 0
      vertex -22.8109 -30.4904 20
    endloop
  endfacet
endsolid OpenSCAD_Model
