solid OpenSCAD_Model
  facet normal 1 0 0
    outer loop
      vertex 60 40 17
      vertex 60 10 15
      vertex 60 40 0
    endloop
  endfacet
  facet normal 1 -0 0
    outer loop
      vertex 60 0 17
      vertex 60 10 15
      vertex 60 40 17
    endloop
  endfacet
  facet normal 1 0 0
    outer loop
      vertex 60 10 15
      vertex 60 0 17
      vertex 60 0 15
    endloop
  endfacet
  facet normal 1 0 0
    outer loop
      vertex 60 40 0
      vertex 60 10 15
      vertex 60 10 0
    endloop
  endfacet
  facet normal 0 0 -1
    outer loop
      vertex 50 0 15
      vertex 60 10 15
      vertex 60 0 15
    endloop
  endfacet
  facet normal -0 0 -1
    outer loop
      vertex 60 10 15
      vertex 50 0 15
      vertex 50 10 15
    endloop
  endfacet
  facet normal -1 0 0
    outer loop
      vertex 0 0 0
      vertex 0 40 17
      vertex 0 40 0
    endloop
  endfacet
  facet normal -1 -0 0
    outer loop
      vertex 0 40 17
      vertex 0 0 0
      vertex 0 0 17
    endloop
  endfacet
  facet normal 0 1 -0
    outer loop
      vertex 60 40 0
      vertex 0 40 17
      vertex 60 40 17
    endloop
  endfacet
  facet normal 0 1 0
    outer loop
      vertex 0 40 17
      vertex 60 40 0
      vertex 0 40 0
    endloop
  endfacet
  facet normal 0 -1 0
    outer loop
      vertex 0 0 17
      vertex 50 0 15
      vertex 60 0 17
    endloop
  endfacet
  facet normal 0 -1 0
    outer loop
      vertex 0 0 0
      vertex 50 0 15
      vertex 0 0 17
    endloop
  endfacet
  facet normal 0 -1 -0
    outer loop
      vertex 50 0 15
      vertex 0 0 0
      vertex 50 0 0
    endloop
  endfacet
  facet normal 0 -1 -0
    outer loop
      vertex 60 0 17
      vertex 50 0 15
      vertex 60 0 15
    endloop
  endfacet
  facet normal 1 -0 0
    outer loop
      vertex 50 0 15
      vertex 50 10 0
      vertex 50 10 15
    endloop
  endfacet
  facet normal 1 0 0
    outer loop
      vertex 50 10 0
      vertex 50 0 15
      vertex 50 0 0
    endloop
  endfacet
  facet normal 0 -1 0
    outer loop
      vertex 50 10 0
      vertex 60 10 15
      vertex 50 10 15
    endloop
  endfacet
  facet normal 0 -1 -0
    outer loop
      vertex 60 10 15
      vertex 50 10 0
      vertex 60 10 0
    endloop
  endfacet
  facet normal 0 0 -1
    outer loop
      vertex 50 0 0
      vertex 0 0 0
      vertex 50 10 0
    endloop
  endfacet
  facet normal 0 0 -1
    outer loop
      vertex 50 10 0
      vertex 60 40 0
      vertex 60 10 0
    endloop
  endfacet
  facet normal 0 0 -1
    outer loop
      vertex 0 40 0
      vertex 50 10 0
      vertex 0 0 0
    endloop
  endfacet
  facet normal 0 0 -1
    outer loop
      vertex 50 10 0
      vertex 0 40 0
      vertex 60 40 0
    endloop
  endfacet
  facet normal -0 0 1
    outer loop
      vertex 0 40 17
      vertex 60 0 17
      vertex 60 40 17
    endloop
  endfacet
  facet normal 0 0 1
    outer loop
      vertex 60 0 17
      vertex 0 40 17
      vertex 0 0 17
    endloop
  endfacet
endsolid OpenSCAD_Model
