solid OpenSCAD_Model
  facet normal -0.831466 0.555576 0
    outer loop
      vertex 0.380602 11.9134 0
      vertex 1.46447 13.5355 8
      vertex 1.46447 13.5355 0
    endloop
  endfacet
  facet normal -0.831466 0.555576 0
    outer loop
      vertex 1.46447 13.5355 8
      vertex 0.380602 11.9134 0
      vertex 0.380602 11.9134 8
    endloop
  endfacet
  facet normal 0 1 -0
    outer loop
      vertex 75 15 0
      vertex 5 15 8
      vertex 75 15 8
    endloop
  endfacet
  facet normal 0 1 0
    outer loop
      vertex 5 15 8
      vertex 75 15 0
      vertex 5 15 0
    endloop
  endfacet
  facet normal -0.19509 -0.980785 0
    outer loop
      vertex 3.08658 0.380602 8
      vertex 5 0 4
      vertex 5 0 8
    endloop
  endfacet
  facet normal -0.19509 -0.980785 0
    outer loop
      vertex 3.08658 0.380602 0
      vertex 5 0 4
      vertex 3.08658 0.380602 8
    endloop
  endfacet
  facet normal -0.19509 -0.980785 -0
    outer loop
      vertex 5 0 4
      vertex 3.08658 0.380602 0
      vertex 5 0 0
    endloop
  endfacet
  facet normal -0.195089 0.980786 0
    outer loop
      vertex 5 15 0
      vertex 3.08658 14.6194 8
      vertex 5 15 8
    endloop
  endfacet
  facet normal -0.195089 0.980786 0
    outer loop
      vertex 3.08658 14.6194 8
      vertex 5 15 0
      vertex 3.08658 14.6194 0
    endloop
  endfacet
  facet normal 0.195092 -0.980785 0
    outer loop
      vertex 75 0 4
      vertex 76.9134 0.380602 8
      vertex 75 0 8
    endloop
  endfacet
  facet normal 0.195092 -0.980785 0
    outer loop
      vertex 76.9134 0.380602 0
      vertex 75 0 4
      vertex 75 0 0
    endloop
  endfacet
  facet normal 0.195092 -0.980785 0
    outer loop
      vertex 75 0 4
      vertex 76.9134 0.380602 0
      vertex 76.9134 0.380602 8
    endloop
  endfacet
  facet normal -1 0 0
    outer loop
      vertex 0 5 0
      vertex 0 10 8
      vertex 0 10 0
    endloop
  endfacet
  facet normal -1 -0 0
    outer loop
      vertex 0 10 8
      vertex 0 5 0
      vertex 0 5 8
    endloop
  endfacet
  facet normal 0 -1 0
    outer loop
      vertex 5 0 0
      vertex 8.92705 0 1.14683
      vertex 7.07295 0 1.14683
    endloop
  endfacet
  facet normal 0 -1 -0
    outer loop
      vertex 8.92705 0 1.14683
      vertex 5 0 0
      vertex 71.073 0 1.14683
    endloop
  endfacet
  facet normal 0 -1 0
    outer loop
      vertex 75 0 0
      vertex 71.073 0 1.14683
      vertex 5 0 0
    endloop
  endfacet
  facet normal 0 -1 -0
    outer loop
      vertex 5.57295 0 2.23664
      vertex 5 0 0
      vertex 7.07295 0 1.14683
    endloop
  endfacet
  facet normal 0 -1 0
    outer loop
      vertex 5 0 0
      vertex 5.57295 0 2.23664
      vertex 5 0 4
    endloop
  endfacet
  facet normal 0 -1 0
    outer loop
      vertex 10.4271 0 5.76336
      vertex 71.073 0 6.85317
      vertex 8.92705 0 6.85317
    endloop
  endfacet
  facet normal 0 -1 0
    outer loop
      vertex 10.4271 0 5.76336
      vertex 69.573 0 5.76336
      vertex 71.073 0 6.85317
    endloop
  endfacet
  facet normal 0 -1 0
    outer loop
      vertex 11 0 4
      vertex 69.573 0 5.76336
      vertex 10.4271 0 5.76336
    endloop
  endfacet
  facet normal 0 -1 0
    outer loop
      vertex 11 0 4
      vertex 69 0 4
      vertex 69.573 0 5.76336
    endloop
  endfacet
  facet normal 0 -1 0
    outer loop
      vertex 10.4271 0 2.23664
      vertex 69 0 4
      vertex 11 0 4
    endloop
  endfacet
  facet normal 0 -1 0
    outer loop
      vertex 10.4271 0 2.23664
      vertex 69.573 0 2.23664
      vertex 69 0 4
    endloop
  endfacet
  facet normal 0 -1 0
    outer loop
      vertex 8.92705 0 1.14683
      vertex 69.573 0 2.23664
      vertex 10.4271 0 2.23664
    endloop
  endfacet
  facet normal 0 -1 -0
    outer loop
      vertex 69.573 0 2.23664
      vertex 8.92705 0 1.14683
      vertex 71.073 0 1.14683
    endloop
  endfacet
  facet normal 0 -1 0
    outer loop
      vertex 8.92705 0 6.85317
      vertex 5 0 8
      vertex 7.07295 0 6.85317
    endloop
  endfacet
  facet normal 0 -1 0
    outer loop
      vertex 5 0 8
      vertex 5.57295 0 5.76336
      vertex 7.07295 0 6.85317
    endloop
  endfacet
  facet normal -0 -1 0
    outer loop
      vertex 5.57295 0 5.76336
      vertex 5 0 8
      vertex 5 0 4
    endloop
  endfacet
  facet normal 0 -1 0
    outer loop
      vertex 5 0 8
      vertex 8.92705 0 6.85317
      vertex 75 0 8
    endloop
  endfacet
  facet normal 0 -1 0
    outer loop
      vertex 71.073 0 6.85317
      vertex 75 0 8
      vertex 8.92705 0 6.85317
    endloop
  endfacet
  facet normal 0 -1 0
    outer loop
      vertex 72.927 0 6.85317
      vertex 75 0 8
      vertex 71.073 0 6.85317
    endloop
  endfacet
  facet normal 0 -1 0
    outer loop
      vertex 74.427 0 5.76336
      vertex 75 0 8
      vertex 72.927 0 6.85317
    endloop
  endfacet
  facet normal 0 -1 -0
    outer loop
      vertex 75 0 8
      vertex 74.427 0 5.76336
      vertex 75 0 4
    endloop
  endfacet
  facet normal 0 -1 0
    outer loop
      vertex 74.427 0 2.23664
      vertex 75 0 0
      vertex 75 0 4
    endloop
  endfacet
  facet normal 0 -1 0
    outer loop
      vertex 72.927 0 1.14683
      vertex 75 0 0
      vertex 74.427 0 2.23664
    endloop
  endfacet
  facet normal 0 -1 0
    outer loop
      vertex 71.073 0 1.14683
      vertex 75 0 0
      vertex 72.927 0 1.14683
    endloop
  endfacet
  facet normal 0.195091 0.980785 -0
    outer loop
      vertex 76.9134 14.6194 0
      vertex 75 15 8
      vertex 76.9134 14.6194 8
    endloop
  endfacet
  facet normal 0.195091 0.980785 0
    outer loop
      vertex 75 15 8
      vertex 76.9134 14.6194 0
      vertex 75 15 0
    endloop
  endfacet
  facet normal 1 -0 0
    outer loop
      vertex 80 5 8
      vertex 80 10 0
      vertex 80 10 8
    endloop
  endfacet
  facet normal 1 0 0
    outer loop
      vertex 80 10 0
      vertex 80 5 8
      vertex 80 5 0
    endloop
  endfacet
  facet normal 0 0 1
    outer loop
      vertex 75 15 8
      vertex 80 10 8
      vertex 79.6194 11.9134 8
    endloop
  endfacet
  facet normal 0 0 1
    outer loop
      vertex 80 10 8
      vertex 75 15 8
      vertex 80 5 8
    endloop
  endfacet
  facet normal 0 0 1
    outer loop
      vertex 75 15 8
      vertex 79.6194 11.9134 8
      vertex 78.5355 13.5355 8
    endloop
  endfacet
  facet normal 0 0 1
    outer loop
      vertex 75 0 8
      vertex 80 5 8
      vertex 75 15 8
    endloop
  endfacet
  facet normal 0 0 1
    outer loop
      vertex 75 15 8
      vertex 78.5355 13.5355 8
      vertex 76.9134 14.6194 8
    endloop
  endfacet
  facet normal 0 0 1
    outer loop
      vertex 80 5 8
      vertex 75 0 8
      vertex 79.6194 3.08658 8
    endloop
  endfacet
  facet normal 0 0 1
    outer loop
      vertex 79.6194 3.08658 8
      vertex 75 0 8
      vertex 78.5355 1.46447 8
    endloop
  endfacet
  facet normal 0 0 1
    outer loop
      vertex 78.5355 1.46447 8
      vertex 75 0 8
      vertex 76.9134 0.380602 8
    endloop
  endfacet
  facet normal -0 0 1
    outer loop
      vertex 5 15 8
      vertex 75 0 8
      vertex 75 15 8
    endloop
  endfacet
  facet normal 0 0 1
    outer loop
      vertex 5 15 8
      vertex 5 0 8
      vertex 75 0 8
    endloop
  endfacet
  facet normal 0 0 1
    outer loop
      vertex 0 10 8
      vertex 5 15 8
      vertex 3.08658 14.6194 8
    endloop
  endfacet
  facet normal 0 0 1
    outer loop
      vertex 5 15 8
      vertex 0 10 8
      vertex 5 0 8
    endloop
  endfacet
  facet normal 0 0 1
    outer loop
      vertex 0 10 8
      vertex 3.08658 14.6194 8
      vertex 1.46447 13.5355 8
    endloop
  endfacet
  facet normal -0 0 1
    outer loop
      vertex 0 5 8
      vertex 5 0 8
      vertex 0 10 8
    endloop
  endfacet
  facet normal 0 0 1
    outer loop
      vertex 0 10 8
      vertex 1.46447 13.5355 8
      vertex 0.380602 11.9134 8
    endloop
  endfacet
  facet normal 0 0 1
    outer loop
      vertex 5 0 8
      vertex 0 5 8
      vertex 3.08658 0.380602 8
    endloop
  endfacet
  facet normal 0 0 1
    outer loop
      vertex 3.08658 0.380602 8
      vertex 0 5 8
      vertex 1.46447 1.46447 8
    endloop
  endfacet
  facet normal 0 0 1
    outer loop
      vertex 1.46447 1.46447 8
      vertex 0 5 8
      vertex 0.380602 3.08658 8
    endloop
  endfacet
  facet normal 0.831458 0.555587 0
    outer loop
      vertex 79.6194 11.9134 8
      vertex 78.5355 13.5355 0
      vertex 78.5355 13.5355 8
    endloop
  endfacet
  facet normal 0.831458 0.555587 0
    outer loop
      vertex 78.5355 13.5355 0
      vertex 79.6194 11.9134 8
      vertex 79.6194 11.9134 0
    endloop
  endfacet
  facet normal -0.831468 -0.555573 0
    outer loop
      vertex 1.46447 1.46447 0
      vertex 0.380602 3.08658 8
      vertex 0.380602 3.08658 0
    endloop
  endfacet
  facet normal -0.831468 -0.555573 0
    outer loop
      vertex 0.380602 3.08658 8
      vertex 1.46447 1.46447 0
      vertex 1.46447 1.46447 8
    endloop
  endfacet
  facet normal -0.980785 0.195092 0
    outer loop
      vertex 0 10 0
      vertex 0.380602 11.9134 8
      vertex 0.380602 11.9134 0
    endloop
  endfacet
  facet normal -0.980785 0.195092 0
    outer loop
      vertex 0.380602 11.9134 8
      vertex 0 10 0
      vertex 0 10 8
    endloop
  endfacet
  facet normal 0.980785 0.195091 0
    outer loop
      vertex 80 10 8
      vertex 79.6194 11.9134 0
      vertex 79.6194 11.9134 8
    endloop
  endfacet
  facet normal 0.980785 0.195091 0
    outer loop
      vertex 79.6194 11.9134 0
      vertex 80 10 8
      vertex 80 10 0
    endloop
  endfacet
  facet normal 0.555576 -0.831466 0
    outer loop
      vertex 76.9134 0.380602 0
      vertex 78.5355 1.46447 8
      vertex 76.9134 0.380602 8
    endloop
  endfacet
  facet normal 0.555576 -0.831466 0
    outer loop
      vertex 78.5355 1.46447 8
      vertex 76.9134 0.380602 0
      vertex 78.5355 1.46447 0
    endloop
  endfacet
  facet normal -0.980785 -0.19509 0
    outer loop
      vertex 0.380602 3.08658 0
      vertex 0 5 8
      vertex 0 5 0
    endloop
  endfacet
  facet normal -0.980785 -0.19509 0
    outer loop
      vertex 0 5 8
      vertex 0.380602 3.08658 0
      vertex 0.380602 3.08658 8
    endloop
  endfacet
  facet normal -0.555573 -0.831468 0
    outer loop
      vertex 1.46447 1.46447 0
      vertex 3.08658 0.380602 8
      vertex 1.46447 1.46447 8
    endloop
  endfacet
  facet normal -0.555573 -0.831468 -0
    outer loop
      vertex 3.08658 0.380602 8
      vertex 1.46447 1.46447 0
      vertex 3.08658 0.380602 0
    endloop
  endfacet
  facet normal 0.83146 -0.555585 0
    outer loop
      vertex 78.5355 1.46447 8
      vertex 79.6194 3.08658 0
      vertex 79.6194 3.08658 8
    endloop
  endfacet
  facet normal 0.83146 -0.555585 0
    outer loop
      vertex 79.6194 3.08658 0
      vertex 78.5355 1.46447 8
      vertex 78.5355 1.46447 0
    endloop
  endfacet
  facet normal -0.555585 0.83146 0
    outer loop
      vertex 3.08658 14.6194 0
      vertex 1.46447 13.5355 8
      vertex 3.08658 14.6194 8
    endloop
  endfacet
  facet normal -0.555585 0.83146 0
    outer loop
      vertex 1.46447 13.5355 8
      vertex 3.08658 14.6194 0
      vertex 1.46447 13.5355 0
    endloop
  endfacet
  facet normal 0.555587 0.831458 -0
    outer loop
      vertex 78.5355 13.5355 0
      vertex 76.9134 14.6194 8
      vertex 78.5355 13.5355 8
    endloop
  endfacet
  facet normal 0.555587 0.831458 0
    outer loop
      vertex 76.9134 14.6194 8
      vertex 78.5355 13.5355 0
      vertex 76.9134 14.6194 0
    endloop
  endfacet
  facet normal 0 0 -1
    outer loop
      vertex 75 0 0
      vertex 80 5 0
      vertex 79.6194 3.08658 0
    endloop
  endfacet
  facet normal -0 0 -1
    outer loop
      vertex 80 5 0
      vertex 75 0 0
      vertex 80 10 0
    endloop
  endfacet
  facet normal 0 0 -1
    outer loop
      vertex 75 0 0
      vertex 79.6194 3.08658 0
      vertex 78.5355 1.46447 0
    endloop
  endfacet
  facet normal 0 0 -1
    outer loop
      vertex 75 15 0
      vertex 80 10 0
      vertex 75 0 0
    endloop
  endfacet
  facet normal 0 0 -1
    outer loop
      vertex 75 0 0
      vertex 78.5355 1.46447 0
      vertex 76.9134 0.380602 0
    endloop
  endfacet
  facet normal 0 0 -1
    outer loop
      vertex 80 10 0
      vertex 75 15 0
      vertex 79.6194 11.9134 0
    endloop
  endfacet
  facet normal 0 0 -1
    outer loop
      vertex 79.6194 11.9134 0
      vertex 75 15 0
      vertex 78.5355 13.5355 0
    endloop
  endfacet
  facet normal 0 0 -1
    outer loop
      vertex 78.5355 13.5355 0
      vertex 75 15 0
      vertex 76.9134 14.6194 0
    endloop
  endfacet
  facet normal 0 0 -1
    outer loop
      vertex 5 0 0
      vertex 75 15 0
      vertex 75 0 0
    endloop
  endfacet
  facet normal 0 0 -1
    outer loop
      vertex 5 0 0
      vertex 5 15 0
      vertex 75 15 0
    endloop
  endfacet
  facet normal 0 0 -1
    outer loop
      vertex 0 5 0
      vertex 5 0 0
      vertex 3.08658 0.380602 0
    endloop
  endfacet
  facet normal 0 0 -1
    outer loop
      vertex 5 0 0
      vertex 0 5 0
      vertex 5 15 0
    endloop
  endfacet
  facet normal 0 0 -1
    outer loop
      vertex 0 5 0
      vertex 3.08658 0.380602 0
      vertex 1.46447 1.46447 0
    endloop
  endfacet
  facet normal 0 0 -1
    outer loop
      vertex 0 10 0
      vertex 5 15 0
      vertex 0 5 0
    endloop
  endfacet
  facet normal 0 0 -1
    outer loop
      vertex 0 5 0
      vertex 1.46447 1.46447 0
      vertex 0.380602 3.08658 0
    endloop
  endfacet
  facet normal 0 0 -1
    outer loop
      vertex 5 15 0
      vertex 0 10 0
      vertex 3.08658 14.6194 0
    endloop
  endfacet
  facet normal 0 0 -1
    outer loop
      vertex 3.08658 14.6194 0
      vertex 0 10 0
      vertex 1.46447 13.5355 0
    endloop
  endfacet
  facet normal 0 0 -1
    outer loop
      vertex 1.46447 13.5355 0
      vertex 0 10 0
      vertex 0.380602 11.9134 0
    endloop
  endfacet
  facet normal 0.980786 -0.195089 0
    outer loop
      vertex 79.6194 3.08658 8
      vertex 80 5 0
      vertex 80 5 8
    endloop
  endfacet
  facet normal 0.980786 -0.195089 0
    outer loop
      vertex 80 5 0
      vertex 79.6194 3.08658 8
      vertex 79.6194 3.08658 0
    endloop
  endfacet
  facet normal 0.951057 0 -0.309017
    outer loop
      vertex 5.57295 0 5.76336
      vertex 5 7.5 4
      vertex 5.57295 7.5 5.76336
    endloop
  endfacet
  facet normal 0.951057 0 -0.309017
    outer loop
      vertex 5 7.5 4
      vertex 5.57295 0 5.76336
      vertex 5 0 4
    endloop
  endfacet
  facet normal -0.587771 0 -0.809027
    outer loop
      vertex 8.92705 0 6.85317
      vertex 10.4271 7.5 5.76336
      vertex 10.4271 0 5.76336
    endloop
  endfacet
  facet normal -0.587771 0 -0.809027
    outer loop
      vertex 10.4271 7.5 5.76336
      vertex 8.92705 0 6.85317
      vertex 8.92705 7.5 6.85317
    endloop
  endfacet
  facet normal -0.951065 0 -0.308992
    outer loop
      vertex 11 0 4
      vertex 10.4271 7.5 5.76336
      vertex 11 7.5 4
    endloop
  endfacet
  facet normal -0.951065 -0 -0.308992
    outer loop
      vertex 10.4271 7.5 5.76336
      vertex 11 0 4
      vertex 10.4271 0 5.76336
    endloop
  endfacet
  facet normal 0 0 -1
    outer loop
      vertex 7.07295 0 6.85317
      vertex 8.92705 7.5 6.85317
      vertex 8.92705 0 6.85317
    endloop
  endfacet
  facet normal -0 0 -1
    outer loop
      vertex 8.92705 7.5 6.85317
      vertex 7.07295 0 6.85317
      vertex 7.07295 7.5 6.85317
    endloop
  endfacet
  facet normal 0.587784 0 -0.809018
    outer loop
      vertex 5.57295 0 5.76336
      vertex 7.07295 7.5 6.85317
      vertex 7.07295 0 6.85317
    endloop
  endfacet
  facet normal 0.587784 0 -0.809018
    outer loop
      vertex 7.07295 7.5 6.85317
      vertex 5.57295 0 5.76336
      vertex 5.57295 7.5 5.76336
    endloop
  endfacet
  facet normal -0.587771 0 0.809027
    outer loop
      vertex 8.92705 7.5 1.14683
      vertex 10.4271 0 2.23664
      vertex 10.4271 7.5 2.23664
    endloop
  endfacet
  facet normal -0.587771 0 0.809027
    outer loop
      vertex 10.4271 0 2.23664
      vertex 8.92705 7.5 1.14683
      vertex 8.92705 0 1.14683
    endloop
  endfacet
  facet normal -0 0 1
    outer loop
      vertex 7.07295 7.5 1.14683
      vertex 8.92705 0 1.14683
      vertex 8.92705 7.5 1.14683
    endloop
  endfacet
  facet normal 0 0 1
    outer loop
      vertex 8.92705 0 1.14683
      vertex 7.07295 7.5 1.14683
      vertex 7.07295 0 1.14683
    endloop
  endfacet
  facet normal 0.951057 -0 0.309017
    outer loop
      vertex 5 0 4
      vertex 5.57295 7.5 2.23664
      vertex 5 7.5 4
    endloop
  endfacet
  facet normal 0.951057 0 0.309017
    outer loop
      vertex 5.57295 7.5 2.23664
      vertex 5 0 4
      vertex 5.57295 0 2.23664
    endloop
  endfacet
  facet normal 0.587784 0 0.809018
    outer loop
      vertex 5.57295 7.5 2.23664
      vertex 7.07295 0 1.14683
      vertex 7.07295 7.5 1.14683
    endloop
  endfacet
  facet normal 0.587784 0 0.809018
    outer loop
      vertex 7.07295 0 1.14683
      vertex 5.57295 7.5 2.23664
      vertex 5.57295 0 2.23664
    endloop
  endfacet
  facet normal -0.951065 0 0.308992
    outer loop
      vertex 10.4271 0 2.23664
      vertex 11 7.5 4
      vertex 10.4271 7.5 2.23664
    endloop
  endfacet
  facet normal -0.951065 0 0.308992
    outer loop
      vertex 11 7.5 4
      vertex 10.4271 0 2.23664
      vertex 11 0 4
    endloop
  endfacet
  facet normal 0 -1 0
    outer loop
      vertex 5.57295 7.5 5.76336
      vertex 8.92705 7.5 6.85317
      vertex 7.07295 7.5 6.85317
    endloop
  endfacet
  facet normal 0 -1 0
    outer loop
      vertex 5.57295 7.5 5.76336
      vertex 10.4271 7.5 5.76336
      vertex 8.92705 7.5 6.85317
    endloop
  endfacet
  facet normal 0 -1 0
    outer loop
      vertex 5 7.5 4
      vertex 10.4271 7.5 5.76336
      vertex 5.57295 7.5 5.76336
    endloop
  endfacet
  facet normal 0 -1 0
    outer loop
      vertex 5 7.5 4
      vertex 11 7.5 4
      vertex 10.4271 7.5 5.76336
    endloop
  endfacet
  facet normal 0 -1 0
    outer loop
      vertex 5.57295 7.5 2.23664
      vertex 11 7.5 4
      vertex 5 7.5 4
    endloop
  endfacet
  facet normal 0 -1 0
    outer loop
      vertex 5.57295 7.5 2.23664
      vertex 10.4271 7.5 2.23664
      vertex 11 7.5 4
    endloop
  endfacet
  facet normal 0 -1 0
    outer loop
      vertex 7.07295 7.5 1.14683
      vertex 10.4271 7.5 2.23664
      vertex 5.57295 7.5 2.23664
    endloop
  endfacet
  facet normal 0 -1 0
    outer loop
      vertex 10.4271 7.5 2.23664
      vertex 7.07295 7.5 1.14683
      vertex 8.92705 7.5 1.14683
    endloop
  endfacet
  facet normal 0.951049 0 -0.309041
    outer loop
      vertex 69.573 0 5.76336
      vertex 69 7.5 4
      vertex 69.573 7.5 5.76336
    endloop
  endfacet
  facet normal 0.951049 0 -0.309041
    outer loop
      vertex 69 7.5 4
      vertex 69.573 0 5.76336
      vertex 69 0 4
    endloop
  endfacet
  facet normal -0.587784 0 -0.809018
    outer loop
      vertex 72.927 0 6.85317
      vertex 74.427 7.5 5.76336
      vertex 74.427 0 5.76336
    endloop
  endfacet
  facet normal -0.587784 0 -0.809018
    outer loop
      vertex 74.427 7.5 5.76336
      vertex 72.927 0 6.85317
      vertex 72.927 7.5 6.85317
    endloop
  endfacet
  facet normal -0.951049 0 -0.309041
    outer loop
      vertex 75 0 4
      vertex 74.427 7.5 5.76336
      vertex 75 7.5 4
    endloop
  endfacet
  facet normal -0.951049 -0 -0.309041
    outer loop
      vertex 74.427 7.5 5.76336
      vertex 75 0 4
      vertex 74.427 0 5.76336
    endloop
  endfacet
  facet normal 0 0 -1
    outer loop
      vertex 71.073 0 6.85317
      vertex 72.927 7.5 6.85317
      vertex 72.927 0 6.85317
    endloop
  endfacet
  facet normal -0 0 -1
    outer loop
      vertex 72.927 7.5 6.85317
      vertex 71.073 0 6.85317
      vertex 71.073 7.5 6.85317
    endloop
  endfacet
  facet normal 0.587784 0 -0.809018
    outer loop
      vertex 69.573 0 5.76336
      vertex 71.073 7.5 6.85317
      vertex 71.073 0 6.85317
    endloop
  endfacet
  facet normal 0.587784 0 -0.809018
    outer loop
      vertex 71.073 7.5 6.85317
      vertex 69.573 0 5.76336
      vertex 69.573 7.5 5.76336
    endloop
  endfacet
  facet normal -0.587784 0 0.809018
    outer loop
      vertex 72.927 7.5 1.14683
      vertex 74.427 0 2.23664
      vertex 74.427 7.5 2.23664
    endloop
  endfacet
  facet normal -0.587784 0 0.809018
    outer loop
      vertex 74.427 0 2.23664
      vertex 72.927 7.5 1.14683
      vertex 72.927 0 1.14683
    endloop
  endfacet
  facet normal -0 0 1
    outer loop
      vertex 71.073 7.5 1.14683
      vertex 72.927 0 1.14683
      vertex 72.927 7.5 1.14683
    endloop
  endfacet
  facet normal 0 0 1
    outer loop
      vertex 72.927 0 1.14683
      vertex 71.073 7.5 1.14683
      vertex 71.073 0 1.14683
    endloop
  endfacet
  facet normal 0.951049 -0 0.309041
    outer loop
      vertex 69 0 4
      vertex 69.573 7.5 2.23664
      vertex 69 7.5 4
    endloop
  endfacet
  facet normal 0.951049 0 0.309041
    outer loop
      vertex 69.573 7.5 2.23664
      vertex 69 0 4
      vertex 69.573 0 2.23664
    endloop
  endfacet
  facet normal 0.587784 0 0.809018
    outer loop
      vertex 69.573 7.5 2.23664
      vertex 71.073 0 1.14683
      vertex 71.073 7.5 1.14683
    endloop
  endfacet
  facet normal 0.587784 0 0.809018
    outer loop
      vertex 71.073 0 1.14683
      vertex 69.573 7.5 2.23664
      vertex 69.573 0 2.23664
    endloop
  endfacet
  facet normal -0.951049 0 0.309041
    outer loop
      vertex 74.427 0 2.23664
      vertex 75 7.5 4
      vertex 74.427 7.5 2.23664
    endloop
  endfacet
  facet normal -0.951049 0 0.309041
    outer loop
      vertex 75 7.5 4
      vertex 74.427 0 2.23664
      vertex 75 0 4
    endloop
  endfacet
  facet normal 0 -1 0
    outer loop
      vertex 69.573 7.5 5.76336
      vertex 72.927 7.5 6.85317
      vertex 71.073 7.5 6.85317
    endloop
  endfacet
  facet normal 0 -1 0
    outer loop
      vertex 69.573 7.5 5.76336
      vertex 74.427 7.5 5.76336
      vertex 72.927 7.5 6.85317
    endloop
  endfacet
  facet normal 0 -1 0
    outer loop
      vertex 69 7.5 4
      vertex 74.427 7.5 5.76336
      vertex 69.573 7.5 5.76336
    endloop
  endfacet
  facet normal 0 -1 0
    outer loop
      vertex 69 7.5 4
      vertex 75 7.5 4
      vertex 74.427 7.5 5.76336
    endloop
  endfacet
  facet normal 0 -1 0
    outer loop
      vertex 69.573 7.5 2.23664
      vertex 75 7.5 4
      vertex 69 7.5 4
    endloop
  endfacet
  facet normal 0 -1 0
    outer loop
      vertex 69.573 7.5 2.23664
      vertex 74.427 7.5 2.23664
      vertex 75 7.5 4
    endloop
  endfacet
  facet normal 0 -1 0
    outer loop
      vertex 71.073 7.5 1.14683
      vertex 74.427 7.5 2.23664
      vertex 69.573 7.5 2.23664
    endloop
  endfacet
  facet normal 0 -1 0
    outer loop
      vertex 74.427 7.5 2.23664
      vertex 71.073 7.5 1.14683
      vertex 72.927 7.5 1.14683
    endloop
  endfacet
endsolid OpenSCAD_Model
