solid OpenSCAD_Model
  facet normal -0.866024 0.500002 0
    outer loop
      vertex -10 15 20
      vertex -5 23.6602 25
      vertex -5 23.6602 20
    endloop
  endfacet
  facet normal -0.866024 0.500002 0
    outer loop
      vertex -5 23.6602 25
      vertex -10 15 20
      vertex -10 15 25
    endloop
  endfacet
  facet normal 0 0 -1
    outer loop
      vertex 5 6.33975 20
      vertex 5 23.6602 20
      vertex 10 15 20
    endloop
  endfacet
  facet normal 0 0 -1
    outer loop
      vertex -5 6.33975 20
      vertex 5 23.6602 20
      vertex 5 6.33975 20
    endloop
  endfacet
  facet normal 0 0 -1
    outer loop
      vertex -5 6.33975 20
      vertex -5 23.6602 20
      vertex 5 23.6602 20
    endloop
  endfacet
  facet normal 0 -0 -1
    outer loop
      vertex -5 23.6602 20
      vertex -5 6.33975 20
      vertex -10 15 20
    endloop
  endfacet
  facet normal 0.866025 -0.5 0
    outer loop
      vertex 5 6.33975 25
      vertex 10 15 20
      vertex 10 15 25
    endloop
  endfacet
  facet normal 0.866025 -0.5 0
    outer loop
      vertex 10 15 20
      vertex 5 6.33975 25
      vertex 5 6.33975 20
    endloop
  endfacet
  facet normal 0 0 1
    outer loop
      vertex 5 23.6602 25
      vertex 5 6.33975 25
      vertex 10 15 25
    endloop
  endfacet
  facet normal -0 0 1
    outer loop
      vertex -5 23.6602 25
      vertex 5 6.33975 25
      vertex 5 23.6602 25
    endloop
  endfacet
  facet normal 0 0 1
    outer loop
      vertex -5 23.6602 25
      vertex -5 6.33975 25
      vertex 5 6.33975 25
    endloop
  endfacet
  facet normal 0 -0 1
    outer loop
      vertex -5 6.33975 25
      vertex -5 23.6602 25
      vertex -10 15 25
    endloop
  endfacet
  facet normal 0 1 -0
    outer loop
      vertex 5 23.6602 20
      vertex -5 23.6602 25
      vertex 5 23.6602 25
    endloop
  endfacet
  facet normal 0 1 0
    outer loop
      vertex -5 23.6602 25
      vertex 5 23.6602 20
      vertex -5 23.6602 20
    endloop
  endfacet
  facet normal -0.866025 -0.5 0
    outer loop
      vertex -5 6.33975 20
      vertex -10 15 25
      vertex -10 15 20
    endloop
  endfacet
  facet normal -0.866025 -0.5 0
    outer loop
      vertex -10 15 25
      vertex -5 6.33975 20
      vertex -5 6.33975 25
    endloop
  endfacet
  facet normal 0 -1 0
    outer loop
      vertex -5 6.33975 20
      vertex 5 6.33975 25
      vertex -5 6.33975 25
    endloop
  endfacet
  facet normal 0 -1 -0
    outer loop
      vertex 5 6.33975 25
      vertex -5 6.33975 20
      vertex 5 6.33975 20
    endloop
  endfacet
  facet normal 0.866024 0.500002 0
    outer loop
      vertex 10 15 25
      vertex 5 23.6602 20
      vertex 5 23.6602 25
    endloop
  endfacet
  facet normal 0.866024 0.500002 0
    outer loop
      vertex 5 23.6602 20
      vertex 10 15 25
      vertex 10 15 20
    endloop
  endfacet
  facet normal -0.866025 0.5 0
    outer loop
      vertex -10 -15 20
      vertex -5 -6.33975 25
      vertex -5 -6.33975 20
    endloop
  endfacet
  facet normal -0.866025 0.5 0
    outer loop
      vertex -5 -6.33975 25
      vertex -10 -15 20
      vertex -10 -15 25
    endloop
  endfacet
  facet normal 0 0 -1
    outer loop
      vertex 5 -23.6602 20
      vertex 5 -6.33975 20
      vertex 10 -15 20
    endloop
  endfacet
  facet normal 0 0 -1
    outer loop
      vertex -5 -23.6602 20
      vertex 5 -6.33975 20
      vertex 5 -23.6602 20
    endloop
  endfacet
  facet normal 0 0 -1
    outer loop
      vertex -5 -23.6602 20
      vertex -5 -6.33975 20
      vertex 5 -6.33975 20
    endloop
  endfacet
  facet normal 0 -0 -1
    outer loop
      vertex -5 -6.33975 20
      vertex -5 -23.6602 20
      vertex -10 -15 20
    endloop
  endfacet
  facet normal 0.866024 -0.500002 0
    outer loop
      vertex 5 -23.6602 25
      vertex 10 -15 20
      vertex 10 -15 25
    endloop
  endfacet
  facet normal 0.866024 -0.500002 0
    outer loop
      vertex 10 -15 20
      vertex 5 -23.6602 25
      vertex 5 -23.6602 20
    endloop
  endfacet
  facet normal 0 0 1
    outer loop
      vertex 5 -6.33975 25
      vertex 5 -23.6602 25
      vertex 10 -15 25
    endloop
  endfacet
  facet normal -0 0 1
    outer loop
      vertex -5 -6.33975 25
      vertex 5 -23.6602 25
      vertex 5 -6.33975 25
    endloop
  endfacet
  facet normal 0 0 1
    outer loop
      vertex -5 -6.33975 25
      vertex -5 -23.6602 25
      vertex 5 -23.6602 25
    endloop
  endfacet
  facet normal 0 -0 1
    outer loop
      vertex -5 -23.6602 25
      vertex -5 -6.33975 25
      vertex -10 -15 25
    endloop
  endfacet
  facet normal 0 1 -0
    outer loop
      vertex 5 -6.33975 20
      vertex -5 -6.33975 25
      vertex 5 -6.33975 25
    endloop
  endfacet
  facet normal 0 1 0
    outer loop
      vertex -5 -6.33975 25
      vertex 5 -6.33975 20
      vertex -5 -6.33975 20
    endloop
  endfacet
  facet normal -0.866024 -0.500002 0
    outer loop
      vertex -5 -23.6602 20
      vertex -10 -15 25
      vertex -10 -15 20
    endloop
  endfacet
  facet normal -0.866024 -0.500002 0
    outer loop
      vertex -10 -15 25
      vertex -5 -23.6602 20
      vertex -5 -23.6602 25
    endloop
  endfacet
  facet normal 0 -1 0
    outer loop
      vertex -5 -23.6602 20
      vertex 5 -23.6602 25
      vertex -5 -23.6602 25
    endloop
  endfacet
  facet normal 0 -1 -0
    outer loop
      vertex 5 -23.6602 25
      vertex -5 -23.6602 20
      vertex 5 -23.6602 20
    endloop
  endfacet
  facet normal 0.866025 0.5 0
    outer loop
      vertex 10 -15 25
      vertex 5 -6.33975 20
      vertex 5 -6.33975 25
    endloop
  endfacet
  facet normal 0.866025 0.5 0
    outer loop
      vertex 5 -6.33975 20
      vertex 10 -15 25
      vertex 10 -15 20
    endloop
  endfacet
  facet normal -0.866025 0.5 0
    outer loop
      vertex 5 0 10
      vertex 10 8.66025 15
      vertex 10 8.66025 10
    endloop
  endfacet
  facet normal -0.866025 0.5 0
    outer loop
      vertex 10 8.66025 15
      vertex 5 0 10
      vertex 5 0 15
    endloop
  endfacet
  facet normal 0 0 -1
    outer loop
      vertex 20 -8.66025 10
      vertex 20 8.66025 10
      vertex 25 0 10
    endloop
  endfacet
  facet normal 0 0 -1
    outer loop
      vertex 10 -8.66025 10
      vertex 20 8.66025 10
      vertex 20 -8.66025 10
    endloop
  endfacet
  facet normal 0 0 -1
    outer loop
      vertex 10 -8.66025 10
      vertex 10 8.66025 10
      vertex 20 8.66025 10
    endloop
  endfacet
  facet normal 0 -0 -1
    outer loop
      vertex 10 8.66025 10
      vertex 10 -8.66025 10
      vertex 5 0 10
    endloop
  endfacet
  facet normal 0.866025 -0.5 0
    outer loop
      vertex 20 -8.66025 15
      vertex 25 0 10
      vertex 25 0 15
    endloop
  endfacet
  facet normal 0.866025 -0.5 0
    outer loop
      vertex 25 0 10
      vertex 20 -8.66025 15
      vertex 20 -8.66025 10
    endloop
  endfacet
  facet normal 0 0 1
    outer loop
      vertex 20 8.66025 15
      vertex 20 -8.66025 15
      vertex 25 0 15
    endloop
  endfacet
  facet normal -0 0 1
    outer loop
      vertex 10 8.66025 15
      vertex 20 -8.66025 15
      vertex 20 8.66025 15
    endloop
  endfacet
  facet normal 0 0 1
    outer loop
      vertex 10 8.66025 15
      vertex 10 -8.66025 15
      vertex 20 -8.66025 15
    endloop
  endfacet
  facet normal 0 -0 1
    outer loop
      vertex 10 -8.66025 15
      vertex 10 8.66025 15
      vertex 5 0 15
    endloop
  endfacet
  facet normal 0 1 -0
    outer loop
      vertex 20 8.66025 10
      vertex 10 8.66025 15
      vertex 20 8.66025 15
    endloop
  endfacet
  facet normal 0 1 0
    outer loop
      vertex 10 8.66025 15
      vertex 20 8.66025 10
      vertex 10 8.66025 10
    endloop
  endfacet
  facet normal -0.866025 -0.5 0
    outer loop
      vertex 10 -8.66025 10
      vertex 5 0 15
      vertex 5 0 10
    endloop
  endfacet
  facet normal -0.866025 -0.5 0
    outer loop
      vertex 5 0 15
      vertex 10 -8.66025 10
      vertex 10 -8.66025 15
    endloop
  endfacet
  facet normal 0 -1 0
    outer loop
      vertex 10 -8.66025 10
      vertex 20 -8.66025 15
      vertex 10 -8.66025 15
    endloop
  endfacet
  facet normal 0 -1 -0
    outer loop
      vertex 20 -8.66025 15
      vertex 10 -8.66025 10
      vertex 20 -8.66025 10
    endloop
  endfacet
  facet normal 0.866025 0.5 0
    outer loop
      vertex 25 0 15
      vertex 20 8.66025 10
      vertex 20 8.66025 15
    endloop
  endfacet
  facet normal 0.866025 0.5 0
    outer loop
      vertex 20 8.66025 10
      vertex 25 0 15
      vertex 25 0 10
    endloop
  endfacet
  facet normal -0.866025 0.5 0
    outer loop
      vertex -25 0 10
      vertex -20 8.66025 15
      vertex -20 8.66025 10
    endloop
  endfacet
  facet normal -0.866025 0.5 0
    outer loop
      vertex -20 8.66025 15
      vertex -25 0 10
      vertex -25 0 15
    endloop
  endfacet
  facet normal 0 0 -1
    outer loop
      vertex -10 -8.66025 10
      vertex -10 8.66025 10
      vertex -5 0 10
    endloop
  endfacet
  facet normal 0 0 -1
    outer loop
      vertex -20 -8.66025 10
      vertex -10 8.66025 10
      vertex -10 -8.66025 10
    endloop
  endfacet
  facet normal 0 0 -1
    outer loop
      vertex -20 -8.66025 10
      vertex -20 8.66025 10
      vertex -10 8.66025 10
    endloop
  endfacet
  facet normal 0 -0 -1
    outer loop
      vertex -20 8.66025 10
      vertex -20 -8.66025 10
      vertex -25 0 10
    endloop
  endfacet
  facet normal 0.866025 -0.5 0
    outer loop
      vertex -10 -8.66025 15
      vertex -5 0 10
      vertex -5 0 15
    endloop
  endfacet
  facet normal 0.866025 -0.5 0
    outer loop
      vertex -5 0 10
      vertex -10 -8.66025 15
      vertex -10 -8.66025 10
    endloop
  endfacet
  facet normal 0 0 1
    outer loop
      vertex -10 8.66025 15
      vertex -10 -8.66025 15
      vertex -5 0 15
    endloop
  endfacet
  facet normal -0 0 1
    outer loop
      vertex -20 8.66025 15
      vertex -10 -8.66025 15
      vertex -10 8.66025 15
    endloop
  endfacet
  facet normal 0 0 1
    outer loop
      vertex -20 8.66025 15
      vertex -20 -8.66025 15
      vertex -10 -8.66025 15
    endloop
  endfacet
  facet normal 0 -0 1
    outer loop
      vertex -20 -8.66025 15
      vertex -20 8.66025 15
      vertex -25 0 15
    endloop
  endfacet
  facet normal 0 1 -0
    outer loop
      vertex -10 8.66025 10
      vertex -20 8.66025 15
      vertex -10 8.66025 15
    endloop
  endfacet
  facet normal 0 1 0
    outer loop
      vertex -20 8.66025 15
      vertex -10 8.66025 10
      vertex -20 8.66025 10
    endloop
  endfacet
  facet normal -0.866025 -0.5 0
    outer loop
      vertex -20 -8.66025 10
      vertex -25 0 15
      vertex -25 0 10
    endloop
  endfacet
  facet normal -0.866025 -0.5 0
    outer loop
      vertex -25 0 15
      vertex -20 -8.66025 10
      vertex -20 -8.66025 15
    endloop
  endfacet
  facet normal 0 -1 0
    outer loop
      vertex -20 -8.66025 10
      vertex -10 -8.66025 15
      vertex -20 -8.66025 15
    endloop
  endfacet
  facet normal 0 -1 -0
    outer loop
      vertex -10 -8.66025 15
      vertex -20 -8.66025 10
      vertex -10 -8.66025 10
    endloop
  endfacet
  facet normal 0.866025 0.5 0
    outer loop
      vertex -5 0 15
      vertex -10 8.66025 10
      vertex -10 8.66025 15
    endloop
  endfacet
  facet normal 0.866025 0.5 0
    outer loop
      vertex -10 8.66025 10
      vertex -5 0 15
      vertex -5 0 10
    endloop
  endfacet
  facet normal 1 -0 0
    outer loop
      vertex 5 -5 5
      vertex 5 5 -5
      vertex 5 5 5
    endloop
  endfacet
  facet normal 1 0 0
    outer loop
      vertex 5 5 -5
      vertex 5 -5 5
      vertex 5 -5 -5
    endloop
  endfacet
  facet normal -0 0 1
    outer loop
      vertex -5 5 5
      vertex 5 -5 5
      vertex 5 5 5
    endloop
  endfacet
  facet normal 0 0 1
    outer loop
      vertex 5 -5 5
      vertex -5 5 5
      vertex -5 -5 5
    endloop
  endfacet
  facet normal 0 0 -1
    outer loop
      vertex -5 -5 -5
      vertex 5 5 -5
      vertex 5 -5 -5
    endloop
  endfacet
  facet normal -0 0 -1
    outer loop
      vertex 5 5 -5
      vertex -5 -5 -5
      vertex -5 5 -5
    endloop
  endfacet
  facet normal -1 0 0
    outer loop
      vertex -5 -5 -5
      vertex -5 5 5
      vertex -5 5 -5
    endloop
  endfacet
  facet normal -1 -0 0
    outer loop
      vertex -5 5 5
      vertex -5 -5 -5
      vertex -5 -5 5
    endloop
  endfacet
  facet normal 0 1 -0
    outer loop
      vertex 5 5 -5
      vertex -5 5 5
      vertex 5 5 5
    endloop
  endfacet
  facet normal 0 1 0
    outer loop
      vertex -5 5 5
      vertex 5 5 -5
      vertex -5 5 -5
    endloop
  endfacet
  facet normal 0 -1 0
    outer loop
      vertex -5 -5 -5
      vertex 5 -5 5
      vertex -5 -5 5
    endloop
  endfacet
  facet normal 0 -1 -0
    outer loop
      vertex 5 -5 5
      vertex -5 -5 -5
      vertex 5 -5 -5
    endloop
  endfacet
  facet normal -0.866024 0.500002 0
    outer loop
      vertex -10 15 -10
      vertex -5 23.6602 -5
      vertex -5 23.6602 -10
    endloop
  endfacet
  facet normal -0.866024 0.500002 0
    outer loop
      vertex -5 23.6602 -5
      vertex -10 15 -10
      vertex -10 15 -5
    endloop
  endfacet
  facet normal 0 0 -1
    outer loop
      vertex 5 6.33975 -10
      vertex 5 23.6602 -10
      vertex 10 15 -10
    endloop
  endfacet
  facet normal 0 0 -1
    outer loop
      vertex -5 6.33975 -10
      vertex 5 23.6602 -10
      vertex 5 6.33975 -10
    endloop
  endfacet
  facet normal 0 0 -1
    outer loop
      vertex -5 6.33975 -10
      vertex -5 23.6602 -10
      vertex 5 23.6602 -10
    endloop
  endfacet
  facet normal 0 -0 -1
    outer loop
      vertex -5 23.6602 -10
      vertex -5 6.33975 -10
      vertex -10 15 -10
    endloop
  endfacet
  facet normal 0.866025 -0.5 0
    outer loop
      vertex 5 6.33975 -5
      vertex 10 15 -10
      vertex 10 15 -5
    endloop
  endfacet
  facet normal 0.866025 -0.5 0
    outer loop
      vertex 10 15 -10
      vertex 5 6.33975 -5
      vertex 5 6.33975 -10
    endloop
  endfacet
  facet normal 0 0 1
    outer loop
      vertex 5 23.6602 -5
      vertex 5 6.33975 -5
      vertex 10 15 -5
    endloop
  endfacet
  facet normal -0 0 1
    outer loop
      vertex -5 23.6602 -5
      vertex 5 6.33975 -5
      vertex 5 23.6602 -5
    endloop
  endfacet
  facet normal 0 0 1
    outer loop
      vertex -5 23.6602 -5
      vertex -5 6.33975 -5
      vertex 5 6.33975 -5
    endloop
  endfacet
  facet normal 0 -0 1
    outer loop
      vertex -5 6.33975 -5
      vertex -5 23.6602 -5
      vertex -10 15 -5
    endloop
  endfacet
  facet normal 0 1 -0
    outer loop
      vertex 5 23.6602 -10
      vertex -5 23.6602 -5
      vertex 5 23.6602 -5
    endloop
  endfacet
  facet normal 0 1 0
    outer loop
      vertex -5 23.6602 -5
      vertex 5 23.6602 -10
      vertex -5 23.6602 -10
    endloop
  endfacet
  facet normal -0.866025 -0.5 0
    outer loop
      vertex -5 6.33975 -10
      vertex -10 15 -5
      vertex -10 15 -10
    endloop
  endfacet
  facet normal -0.866025 -0.5 0
    outer loop
      vertex -10 15 -5
      vertex -5 6.33975 -10
      vertex -5 6.33975 -5
    endloop
  endfacet
  facet normal 0 -1 0
    outer loop
      vertex -5 6.33975 -10
      vertex 5 6.33975 -5
      vertex -5 6.33975 -5
    endloop
  endfacet
  facet normal 0 -1 -0
    outer loop
      vertex 5 6.33975 -5
      vertex -5 6.33975 -10
      vertex 5 6.33975 -10
    endloop
  endfacet
  facet normal 0.866024 0.500002 0
    outer loop
      vertex 10 15 -5
      vertex 5 23.6602 -10
      vertex 5 23.6602 -5
    endloop
  endfacet
  facet normal 0.866024 0.500002 0
    outer loop
      vertex 5 23.6602 -10
      vertex 10 15 -5
      vertex 10 15 -10
    endloop
  endfacet
  facet normal -0.866025 0.5 0
    outer loop
      vertex -10 -15 -10
      vertex -5 -6.33975 -5
      vertex -5 -6.33975 -10
    endloop
  endfacet
  facet normal -0.866025 0.5 0
    outer loop
      vertex -5 -6.33975 -5
      vertex -10 -15 -10
      vertex -10 -15 -5
    endloop
  endfacet
  facet normal 0 0 -1
    outer loop
      vertex 5 -23.6602 -10
      vertex 5 -6.33975 -10
      vertex 10 -15 -10
    endloop
  endfacet
  facet normal 0 0 -1
    outer loop
      vertex -5 -23.6602 -10
      vertex 5 -6.33975 -10
      vertex 5 -23.6602 -10
    endloop
  endfacet
  facet normal 0 0 -1
    outer loop
      vertex -5 -23.6602 -10
      vertex -5 -6.33975 -10
      vertex 5 -6.33975 -10
    endloop
  endfacet
  facet normal 0 -0 -1
    outer loop
      vertex -5 -6.33975 -10
      vertex -5 -23.6602 -10
      vertex -10 -15 -10
    endloop
  endfacet
  facet normal 0.866024 -0.500002 0
    outer loop
      vertex 5 -23.6602 -5
      vertex 10 -15 -10
      vertex 10 -15 -5
    endloop
  endfacet
  facet normal 0.866024 -0.500002 0
    outer loop
      vertex 10 -15 -10
      vertex 5 -23.6602 -5
      vertex 5 -23.6602 -10
    endloop
  endfacet
  facet normal 0 0 1
    outer loop
      vertex 5 -6.33975 -5
      vertex 5 -23.6602 -5
      vertex 10 -15 -5
    endloop
  endfacet
  facet normal -0 0 1
    outer loop
      vertex -5 -6.33975 -5
      vertex 5 -23.6602 -5
      vertex 5 -6.33975 -5
    endloop
  endfacet
  facet normal 0 0 1
    outer loop
      vertex -5 -6.33975 -5
      vertex -5 -23.6602 -5
      vertex 5 -23.6602 -5
    endloop
  endfacet
  facet normal 0 -0 1
    outer loop
      vertex -5 -23.6602 -5
      vertex -5 -6.33975 -5
      vertex -10 -15 -5
    endloop
  endfacet
  facet normal 0 1 -0
    outer loop
      vertex 5 -6.33975 -10
      vertex -5 -6.33975 -5
      vertex 5 -6.33975 -5
    endloop
  endfacet
  facet normal 0 1 0
    outer loop
      vertex -5 -6.33975 -5
      vertex 5 -6.33975 -10
      vertex -5 -6.33975 -10
    endloop
  endfacet
  facet normal -0.866024 -0.500002 0
    outer loop
      vertex -5 -23.6602 -10
      vertex -10 -15 -5
      vertex -10 -15 -10
    endloop
  endfacet
  facet normal -0.866024 -0.500002 0
    outer loop
      vertex -10 -15 -5
      vertex -5 -23.6602 -10
      vertex -5 -23.6602 -5
    endloop
  endfacet
  facet normal 0 -1 0
    outer loop
      vertex -5 -23.6602 -10
      vertex 5 -23.6602 -5
      vertex -5 -23.6602 -5
    endloop
  endfacet
  facet normal 0 -1 -0
    outer loop
      vertex 5 -23.6602 -5
      vertex -5 -23.6602 -10
      vertex 5 -23.6602 -10
    endloop
  endfacet
  facet normal 0.866025 0.5 0
    outer loop
      vertex 10 -15 -5
      vertex 5 -6.33975 -10
      vertex 5 -6.33975 -5
    endloop
  endfacet
  facet normal 0.866025 0.5 0
    outer loop
      vertex 5 -6.33975 -10
      vertex 10 -15 -5
      vertex 10 -15 -10
    endloop
  endfacet
endsolid OpenSCAD_Model
