solid OpenSCAD_Model
  facet normal 1 -0 0
    outer loop
      vertex 100 0 150
      vertex 100 50 0
      vertex 100 50 150
    endloop
  endfacet
  facet normal 1 0 0
    outer loop
      vertex 100 50 0
      vertex 100 0 150
      vertex 100 0 0
    endloop
  endfacet
  facet normal -0 0 1
    outer loop
      vertex 0 50 150
      vertex 100 0 150
      vertex 100 50 150
    endloop
  endfacet
  facet normal 0 0 1
    outer loop
      vertex 100 0 150
      vertex 0 50 150
      vertex 0 0 150
    endloop
  endfacet
  facet normal 0 0 -1
    outer loop
      vertex 0 0 0
      vertex 100 50 0
      vertex 100 0 0
    endloop
  endfacet
  facet normal -0 0 -1
    outer loop
      vertex 100 50 0
      vertex 0 0 0
      vertex 0 50 0
    endloop
  endfacet
  facet normal -1 0 0
    outer loop
      vertex 0 0 0
      vertex 0 50 150
      vertex 0 50 0
    endloop
  endfacet
  facet normal -1 -0 0
    outer loop
      vertex 0 50 150
      vertex 0 0 0
      vertex 0 0 150
    endloop
  endfacet
  facet normal 0 1 -0
    outer loop
      vertex 100 50 0
      vertex 0 50 150
      vertex 100 50 150
    endloop
  endfacet
  facet normal 0 1 0
    outer loop
      vertex 0 50 150
      vertex 100 50 0
      vertex 0 50 0
    endloop
  endfacet
  facet normal 0 -1 0
    outer loop
      vertex 0 0 150
      vertex 52.5 0 115
      vertex 100 0 150
    endloop
  endfacet
  facet normal 0 -1 0
    outer loop
      vertex 0 0 150
      vertex 52.5 0 75
      vertex 52.5 0 115
    endloop
  endfacet
  facet normal 0 -1 0
    outer loop
      vertex 100 0 0
      vertex 52.5 0 75
      vertex 0 0 0
    endloop
  endfacet
  facet normal 0 -1 0
    outer loop
      vertex 0 0 0
      vertex 52.5 0 75
      vertex 0 0 150
    endloop
  endfacet
  facet normal 0 -1 0
    outer loop
      vertex 59.5711 0 115
      vertex 100 0 150
      vertex 52.5 0 115
    endloop
  endfacet
  facet normal 0 -1 0
    outer loop
      vertex 59.5711 0 75
      vertex 100 0 150
      vertex 59.5711 0 115
    endloop
  endfacet
  facet normal 0 -1 0
    outer loop
      vertex 59.5711 0 75
      vertex 100 0 0
      vertex 100 0 150
    endloop
  endfacet
  facet normal 0 -1 0
    outer loop
      vertex 52.5 0 75
      vertex 100 0 0
      vertex 59.5711 0 75
    endloop
  endfacet
  facet normal -1 0 0
    outer loop
      vertex 95 40 5
      vertex 95 10 5
      vertex 95 40 45
    endloop
  endfacet
  facet normal -1 0 0
    outer loop
      vertex 95 40 45
      vertex 95 45 145
      vertex 95 45 45
    endloop
  endfacet
  facet normal -1 0 0
    outer loop
      vertex 95 10 45
      vertex 95 40 45
      vertex 95 10 5
    endloop
  endfacet
  facet normal -1 0 0
    outer loop
      vertex 95 40 45
      vertex 95 10 45
      vertex 95 45 145
    endloop
  endfacet
  facet normal -1 0 0
    outer loop
      vertex 95 5 145
      vertex 95 10 45
      vertex 95 5 45
    endloop
  endfacet
  facet normal -1 0 0
    outer loop
      vertex 95 10 45
      vertex 95 5 145
      vertex 95 45 145
    endloop
  endfacet
  facet normal 0 0 -1
    outer loop
      vertex 5 5 145
      vertex 47.5 45 145
      vertex 47.5 5 145
    endloop
  endfacet
  facet normal -0 0 -1
    outer loop
      vertex 47.5 45 145
      vertex 5 5 145
      vertex 5 45 145
    endloop
  endfacet
  facet normal 0 0 -1
    outer loop
      vertex 52.5 5 145
      vertex 95 45 145
      vertex 95 5 145
    endloop
  endfacet
  facet normal -0 0 -1
    outer loop
      vertex 95 45 145
      vertex 52.5 5 145
      vertex 52.5 45 145
    endloop
  endfacet
  facet normal -0 0 1
    outer loop
      vertex 52.5 40 5
      vertex 95 10 5
      vertex 95 40 5
    endloop
  endfacet
  facet normal 0 0 1
    outer loop
      vertex 95 10 5
      vertex 52.5 40 5
      vertex 52.5 10 5
    endloop
  endfacet
  facet normal -0 0 1
    outer loop
      vertex 5 40 5
      vertex 47.5 10 5
      vertex 47.5 40 5
    endloop
  endfacet
  facet normal 0 0 1
    outer loop
      vertex 47.5 10 5
      vertex 5 40 5
      vertex 5 10 5
    endloop
  endfacet
  facet normal 1 0 0
    outer loop
      vertex 5 45 145
      vertex 5 40 45
      vertex 5 45 45
    endloop
  endfacet
  facet normal 1 0 0
    outer loop
      vertex 5 40 45
      vertex 5 10 45
      vertex 5 40 5
    endloop
  endfacet
  facet normal 1 0 0
    outer loop
      vertex 5 45 145
      vertex 5 10 45
      vertex 5 40 45
    endloop
  endfacet
  facet normal 1 -0 0
    outer loop
      vertex 5 5 145
      vertex 5 10 45
      vertex 5 45 145
    endloop
  endfacet
  facet normal 1 0 0
    outer loop
      vertex 5 10 45
      vertex 5 5 145
      vertex 5 5 45
    endloop
  endfacet
  facet normal 1 0 0
    outer loop
      vertex 5 40 5
      vertex 5 10 45
      vertex 5 10 5
    endloop
  endfacet
  facet normal 0 -1 0
    outer loop
      vertex 5 45 45
      vertex 47.5 45 145
      vertex 5 45 145
    endloop
  endfacet
  facet normal 0 -1 -0
    outer loop
      vertex 47.5 45 145
      vertex 5 45 45
      vertex 47.5 45 45
    endloop
  endfacet
  facet normal 0 -1 0
    outer loop
      vertex 52.5 45 45
      vertex 95 45 145
      vertex 52.5 45 145
    endloop
  endfacet
  facet normal 0 -1 -0
    outer loop
      vertex 95 45 145
      vertex 52.5 45 45
      vertex 95 45 45
    endloop
  endfacet
  facet normal 0 1 -0
    outer loop
      vertex 47.5 5 45
      vertex 5 5 145
      vertex 47.5 5 145
    endloop
  endfacet
  facet normal 0 1 0
    outer loop
      vertex 5 5 145
      vertex 47.5 5 45
      vertex 5 5 45
    endloop
  endfacet
  facet normal 0 1 0
    outer loop
      vertex 95 5 145
      vertex 54.5711 5 115
      vertex 52.5 5 145
    endloop
  endfacet
  facet normal 0 1 0
    outer loop
      vertex 95 5 145
      vertex 54.5711 5 75
      vertex 54.5711 5 115
    endloop
  endfacet
  facet normal 0 1 -0
    outer loop
      vertex 95 5 45
      vertex 54.5711 5 75
      vertex 95 5 145
    endloop
  endfacet
  facet normal 0 1 0
    outer loop
      vertex 52.5 5 45
      vertex 54.5711 5 75
      vertex 95 5 45
    endloop
  endfacet
  facet normal 0 1 0
    outer loop
      vertex 54.5711 5 75
      vertex 52.5 5 45
      vertex 52.5 5 75
    endloop
  endfacet
  facet normal 0 1 0
    outer loop
      vertex 52.5 5 145
      vertex 54.5711 5 115
      vertex 52.5 5 115
    endloop
  endfacet
  facet normal -0 0 1
    outer loop
      vertex 5 10 45
      vertex 47.5 5 45
      vertex 47.5 10 45
    endloop
  endfacet
  facet normal 0 0 1
    outer loop
      vertex 47.5 5 45
      vertex 5 10 45
      vertex 5 5 45
    endloop
  endfacet
  facet normal -0 0 1
    outer loop
      vertex 52.5 10 45
      vertex 95 5 45
      vertex 95 10 45
    endloop
  endfacet
  facet normal 0 0 1
    outer loop
      vertex 95 5 45
      vertex 52.5 10 45
      vertex 52.5 5 45
    endloop
  endfacet
  facet normal 0 1 -0
    outer loop
      vertex 47.5 10 5
      vertex 5 10 45
      vertex 47.5 10 45
    endloop
  endfacet
  facet normal 0 1 0
    outer loop
      vertex 5 10 45
      vertex 47.5 10 5
      vertex 5 10 5
    endloop
  endfacet
  facet normal 0 1 -0
    outer loop
      vertex 95 10 5
      vertex 52.5 10 45
      vertex 95 10 45
    endloop
  endfacet
  facet normal 0 1 0
    outer loop
      vertex 52.5 10 45
      vertex 95 10 5
      vertex 52.5 10 5
    endloop
  endfacet
  facet normal -0 0 1
    outer loop
      vertex 5 45 45
      vertex 47.5 40 45
      vertex 47.5 45 45
    endloop
  endfacet
  facet normal 0 0 1
    outer loop
      vertex 47.5 40 45
      vertex 5 45 45
      vertex 5 40 45
    endloop
  endfacet
  facet normal -0 0 1
    outer loop
      vertex 52.5 45 45
      vertex 95 40 45
      vertex 95 45 45
    endloop
  endfacet
  facet normal 0 0 1
    outer loop
      vertex 95 40 45
      vertex 52.5 45 45
      vertex 52.5 40 45
    endloop
  endfacet
  facet normal 0 -1 0
    outer loop
      vertex 5 40 5
      vertex 47.5 40 45
      vertex 5 40 45
    endloop
  endfacet
  facet normal 0 -1 -0
    outer loop
      vertex 47.5 40 45
      vertex 5 40 5
      vertex 47.5 40 5
    endloop
  endfacet
  facet normal 0 -1 0
    outer loop
      vertex 52.5 40 5
      vertex 95 40 45
      vertex 52.5 40 45
    endloop
  endfacet
  facet normal 0 -1 -0
    outer loop
      vertex 95 40 45
      vertex 52.5 40 5
      vertex 95 40 5
    endloop
  endfacet
  facet normal 1 -0 0
    outer loop
      vertex 95 75 45
      vertex 95 80 5
      vertex 95 80 45
    endloop
  endfacet
  facet normal 1 0 0
    outer loop
      vertex 95 80 5
      vertex 95 75 45
      vertex 95 75 5
    endloop
  endfacet
  facet normal -0 0 1
    outer loop
      vertex 5 80 45
      vertex 95 75 45
      vertex 95 80 45
    endloop
  endfacet
  facet normal 0 0 1
    outer loop
      vertex 95 75 45
      vertex 5 80 45
      vertex 5 75 45
    endloop
  endfacet
  facet normal 0 0 -1
    outer loop
      vertex 5 75 5
      vertex 95 80 5
      vertex 95 75 5
    endloop
  endfacet
  facet normal -0 0 -1
    outer loop
      vertex 95 80 5
      vertex 5 75 5
      vertex 5 80 5
    endloop
  endfacet
  facet normal -1 0 0
    outer loop
      vertex 5 75 5
      vertex 5 80 45
      vertex 5 80 5
    endloop
  endfacet
  facet normal -1 -0 0
    outer loop
      vertex 5 80 45
      vertex 5 75 5
      vertex 5 75 45
    endloop
  endfacet
  facet normal 0 1 -0
    outer loop
      vertex 95 80 5
      vertex 5 80 45
      vertex 95 80 45
    endloop
  endfacet
  facet normal 0 1 0
    outer loop
      vertex 5 80 45
      vertex 95 80 5
      vertex 5 80 5
    endloop
  endfacet
  facet normal 0 -1 0
    outer loop
      vertex 5 75 5
      vertex 95 75 45
      vertex 5 75 45
    endloop
  endfacet
  facet normal 0 -1 -0
    outer loop
      vertex 95 75 45
      vertex 5 75 5
      vertex 95 75 5
    endloop
  endfacet
  facet normal 1 -0 0
    outer loop
      vertex 95 110 45
      vertex 95 115 5
      vertex 95 115 45
    endloop
  endfacet
  facet normal 1 0 0
    outer loop
      vertex 95 115 5
      vertex 95 110 45
      vertex 95 110 5
    endloop
  endfacet
  facet normal -0 0 1
    outer loop
      vertex 5 115 45
      vertex 95 110 45
      vertex 95 115 45
    endloop
  endfacet
  facet normal 0 0 1
    outer loop
      vertex 95 110 45
      vertex 5 115 45
      vertex 5 110 45
    endloop
  endfacet
  facet normal 0 0 -1
    outer loop
      vertex 5 110 5
      vertex 95 115 5
      vertex 95 110 5
    endloop
  endfacet
  facet normal -0 0 -1
    outer loop
      vertex 95 115 5
      vertex 5 110 5
      vertex 5 115 5
    endloop
  endfacet
  facet normal -1 0 0
    outer loop
      vertex 5 110 5
      vertex 5 115 45
      vertex 5 115 5
    endloop
  endfacet
  facet normal -1 -0 0
    outer loop
      vertex 5 115 45
      vertex 5 110 5
      vertex 5 110 45
    endloop
  endfacet
  facet normal 0 1 -0
    outer loop
      vertex 95 115 5
      vertex 5 115 45
      vertex 95 115 45
    endloop
  endfacet
  facet normal 0 1 0
    outer loop
      vertex 5 115 45
      vertex 95 115 5
      vertex 5 115 5
    endloop
  endfacet
  facet normal 0 -1 0
    outer loop
      vertex 5 110 5
      vertex 95 110 45
      vertex 5 110 45
    endloop
  endfacet
  facet normal 0 -1 -0
    outer loop
      vertex 95 110 45
      vertex 5 110 5
      vertex 95 110 5
    endloop
  endfacet
  facet normal 1 -0 0
    outer loop
      vertex 52.5 7.07107 75
      vertex 52.5 45 45
      vertex 52.5 45 145
    endloop
  endfacet
  facet normal 1 0 0
    outer loop
      vertex 52.5 40 45
      vertex 52.5 10 45
      vertex 52.5 40 5
    endloop
  endfacet
  facet normal 1 0 0
    outer loop
      vertex 52.5 45 45
      vertex 52.5 7.07107 75
      vertex 52.5 40 45
    endloop
  endfacet
  facet normal 1 0 0
    outer loop
      vertex 52.5 7.07107 75
      vertex 52.5 45 145
      vertex 52.5 7.07107 115
    endloop
  endfacet
  facet normal 1 -0 0
    outer loop
      vertex 52.5 5 145
      vertex 52.5 7.07107 115
      vertex 52.5 45 145
    endloop
  endfacet
  facet normal 1 0 0
    outer loop
      vertex 52.5 7.07107 115
      vertex 52.5 5 145
      vertex 52.5 5 115
    endloop
  endfacet
  facet normal 1 0 0
    outer loop
      vertex 52.5 40 5
      vertex 52.5 10 45
      vertex 52.5 10 5
    endloop
  endfacet
  facet normal 1 0 0
    outer loop
      vertex 52.5 40 45
      vertex 52.5 7.07107 75
      vertex 52.5 10 45
    endloop
  endfacet
  facet normal 1 0 0
    outer loop
      vertex 52.5 5 45
      vertex 52.5 7.07107 75
      vertex 52.5 5 75
    endloop
  endfacet
  facet normal 1 0 0
    outer loop
      vertex 52.5 7.07107 75
      vertex 52.5 5 45
      vertex 52.5 10 45
    endloop
  endfacet
  facet normal -1 0 0
    outer loop
      vertex 47.5 40 5
      vertex 47.5 10 5
      vertex 47.5 40 45
    endloop
  endfacet
  facet normal -1 0 0
    outer loop
      vertex 47.5 40 45
      vertex 47.5 45 145
      vertex 47.5 45 45
    endloop
  endfacet
  facet normal -1 0 0
    outer loop
      vertex 47.5 10 45
      vertex 47.5 40 45
      vertex 47.5 10 5
    endloop
  endfacet
  facet normal -1 0 0
    outer loop
      vertex 47.5 40 45
      vertex 47.5 10 45
      vertex 47.5 45 145
    endloop
  endfacet
  facet normal -1 0 0
    outer loop
      vertex 47.5 5 145
      vertex 47.5 10 45
      vertex 47.5 5 45
    endloop
  endfacet
  facet normal -1 0 0
    outer loop
      vertex 47.5 10 45
      vertex 47.5 5 145
      vertex 47.5 45 145
    endloop
  endfacet
  facet normal 0.707107 -0.707107 0
    outer loop
      vertex 79.3198 -26.8198 115
      vertex 82.8553 -23.2843 75
      vertex 82.8553 -23.2843 115
    endloop
  endfacet
  facet normal 0.707107 -0.707107 0
    outer loop
      vertex 82.8553 -23.2843 75
      vertex 79.3198 -26.8198 115
      vertex 79.3198 -26.8198 75
    endloop
  endfacet
  facet normal 0 0 1
    outer loop
      vertex 59.5711 0 115
      vertex 79.3198 -26.8198 115
      vertex 82.8553 -23.2843 115
    endloop
  endfacet
  facet normal 0 0 1
    outer loop
      vertex 79.3198 -26.8198 115
      vertex 59.5711 0 115
      vertex 52.5 0 115
    endloop
  endfacet
  facet normal 0 0 1
    outer loop
      vertex 52.5 7.07107 115
      vertex 52.5 5 115
      vertex 54.5711 5 115
    endloop
  endfacet
  facet normal 0 0 -1
    outer loop
      vertex 79.3198 -26.8198 75
      vertex 59.5711 0 75
      vertex 82.8553 -23.2843 75
    endloop
  endfacet
  facet normal -0 -0 -1
    outer loop
      vertex 59.5711 0 75
      vertex 79.3198 -26.8198 75
      vertex 52.5 0 75
    endloop
  endfacet
  facet normal 0 0 -1
    outer loop
      vertex 54.5711 5 75
      vertex 52.5 5 75
      vertex 52.5 7.07107 75
    endloop
  endfacet
  facet normal 0.707108 0.707105 0
    outer loop
      vertex 82.8553 -23.2843 115
      vertex 59.5711 0 75
      vertex 59.5711 0 115
    endloop
  endfacet
  facet normal 0.707108 0.707105 0
    outer loop
      vertex 59.5711 0 75
      vertex 82.8553 -23.2843 115
      vertex 82.8553 -23.2843 75
    endloop
  endfacet
  facet normal 0.707102 0.707112 0
    outer loop
      vertex 54.5711 5 115
      vertex 52.5 7.07107 75
      vertex 52.5 7.07107 115
    endloop
  endfacet
  facet normal 0.707102 0.707112 0
    outer loop
      vertex 52.5 7.07107 75
      vertex 54.5711 5 115
      vertex 54.5711 5 75
    endloop
  endfacet
  facet normal -0.707107 -0.707107 0
    outer loop
      vertex 52.5 0 75
      vertex 79.3198 -26.8198 115
      vertex 52.5 0 115
    endloop
  endfacet
  facet normal -0.707107 -0.707107 -0
    outer loop
      vertex 79.3198 -26.8198 115
      vertex 52.5 0 75
      vertex 79.3198 -26.8198 75
    endloop
  endfacet
endsolid OpenSCAD_Model
