solid OpenSCAD_Model
  facet normal -0.120536 -0.992709 -3.56853e-07
    outer loop
      vertex 3.57295 0.139561 4.76336
      vertex 4.48215 0.0291643 6
      vertex 2.58158 0.259934 6
    endloop
  endfacet
  facet normal -0.120537 -0.992709 -0
    outer loop
      vertex 4.48215 0.0291643 6
      vertex 3.57295 0.139561 4.76336
      vertex 4.48215 0.0291643 5.42393
    endloop
  endfacet
  facet normal -0.120536 -0.992709 3.32119e-08
    outer loop
      vertex 2.58158 0.259934 6
      vertex 3 0.209129 3
      vertex 3.57295 0.139561 4.76336
    endloop
  endfacet
  facet normal -0.120536 -0.992709 0
    outer loop
      vertex 2.58158 0.259934 0
      vertex 3 0.209129 3
      vertex 2.58158 0.259934 6
    endloop
  endfacet
  facet normal -0.120536 -0.992709 -3.32119e-08
    outer loop
      vertex 2.58158 0.259934 0
      vertex 3.57295 0.139561 1.23664
      vertex 3 0.209129 3
    endloop
  endfacet
  facet normal -0.120536 -0.992709 3.56853e-07
    outer loop
      vertex 4.48215 0.0291643 0
      vertex 3.57295 0.139561 1.23664
      vertex 2.58158 0.259934 0
    endloop
  endfacet
  facet normal -0.120537 -0.992709 0
    outer loop
      vertex 3.57295 0.139561 1.23664
      vertex 4.48215 0.0291643 0
      vertex 4.48215 0.0291643 0.576073
    endloop
  endfacet
  facet normal -0.885457 0.464722 0
    outer loop
      vertex 0.116232 8.95726 0
      vertex 1.00596 10.6525 6
      vertex 1.00596 10.6525 0
    endloop
  endfacet
  facet normal -0.885457 0.464722 0
    outer loop
      vertex 1.00596 10.6525 6
      vertex 0.116232 8.95726 0
      vertex 0.116232 8.95726 6
    endloop
  endfacet
  facet normal -0.568075 0.822977 0
    outer loop
      vertex 2.58158 11.7401 0
      vertex 1.00596 10.6525 6
      vertex 2.58158 11.7401 6
    endloop
  endfacet
  facet normal -0.568075 0.822977 0
    outer loop
      vertex 1.00596 10.6525 6
      vertex 2.58158 11.7401 0
      vertex 1.00596 10.6525 0
    endloop
  endfacet
  facet normal 0 -1 0
    outer loop
      vertex 4.48215 0.0291643 0
      vertex 6.92705 0.0291643 0.14683
      vertex 5.07295 0.0291643 0.14683
    endloop
  endfacet
  facet normal 0 -1 -0
    outer loop
      vertex 6.92705 0.0291643 0.14683
      vertex 4.48215 0.0291643 0
      vertex 73.073 0.0291643 0.14683
    endloop
  endfacet
  facet normal 0 -1 0
    outer loop
      vertex 76.4821 0.0291643 0
      vertex 73.073 0.0291643 0.14683
      vertex 4.48215 0.0291643 0
    endloop
  endfacet
  facet normal 0 -1 0
    outer loop
      vertex 4.48215 0.0291643 0
      vertex 5.07295 0.0291643 0.14683
      vertex 4.48215 0.0291643 0.576073
    endloop
  endfacet
  facet normal 0 -1 0
    outer loop
      vertex 8.42705 0.0291643 4.76336
      vertex 73.073 0.0291643 5.85317
      vertex 6.92705 0.0291643 5.85317
    endloop
  endfacet
  facet normal 0 -1 0
    outer loop
      vertex 8.42705 0.0291643 4.76336
      vertex 71.573 0.0291643 4.76336
      vertex 73.073 0.0291643 5.85317
    endloop
  endfacet
  facet normal 0 -1 0
    outer loop
      vertex 9 0.0291643 3
      vertex 71.573 0.0291643 4.76336
      vertex 8.42705 0.0291643 4.76336
    endloop
  endfacet
  facet normal 0 -1 0
    outer loop
      vertex 9 0.0291643 3
      vertex 71 0.0291643 3
      vertex 71.573 0.0291643 4.76336
    endloop
  endfacet
  facet normal 0 -1 0
    outer loop
      vertex 8.42705 0.0291643 1.23664
      vertex 71 0.0291643 3
      vertex 9 0.0291643 3
    endloop
  endfacet
  facet normal 0 -1 0
    outer loop
      vertex 8.42705 0.0291643 1.23664
      vertex 71.573 0.0291643 1.23664
      vertex 71 0.0291643 3
    endloop
  endfacet
  facet normal 0 -1 0
    outer loop
      vertex 6.92705 0.0291643 0.14683
      vertex 71.573 0.0291643 1.23664
      vertex 8.42705 0.0291643 1.23664
    endloop
  endfacet
  facet normal 0 -1 -0
    outer loop
      vertex 71.573 0.0291643 1.23664
      vertex 6.92705 0.0291643 0.14683
      vertex 73.073 0.0291643 0.14683
    endloop
  endfacet
  facet normal 0 -1 0
    outer loop
      vertex 6.92705 0.0291643 5.85317
      vertex 4.48215 0.0291643 6
      vertex 5.07295 0.0291643 5.85317
    endloop
  endfacet
  facet normal -0 -1 0
    outer loop
      vertex 5.07295 0.0291643 5.85317
      vertex 4.48215 0.0291643 6
      vertex 4.48215 0.0291643 5.42393
    endloop
  endfacet
  facet normal 0 -1 0
    outer loop
      vertex 73.073 0.0291643 5.85317
      vertex 4.48215 0.0291643 6
      vertex 6.92705 0.0291643 5.85317
    endloop
  endfacet
  facet normal 0 -1 0
    outer loop
      vertex 4.48215 0.0291643 6
      vertex 73.073 0.0291643 5.85317
      vertex 76.4821 0.0291643 6
    endloop
  endfacet
  facet normal 0 -1 0
    outer loop
      vertex 74.927 0.0291643 5.85317
      vertex 76.4821 0.0291643 6
      vertex 73.073 0.0291643 5.85317
    endloop
  endfacet
  facet normal 0 -1 0
    outer loop
      vertex 76.427 0.0291643 4.76336
      vertex 76.4821 0.0291643 6
      vertex 74.927 0.0291643 5.85317
    endloop
  endfacet
  facet normal 0 -1 -0
    outer loop
      vertex 76.4821 0.0291643 6
      vertex 76.427 0.0291643 4.76336
      vertex 76.4821 0.0291643 4.59379
    endloop
  endfacet
  facet normal 0 -1 0
    outer loop
      vertex 76.427 0.0291643 1.23664
      vertex 76.4821 0.0291643 0
      vertex 76.4821 0.0291643 1.40621
    endloop
  endfacet
  facet normal 0 -1 0
    outer loop
      vertex 74.927 0.0291643 0.14683
      vertex 76.4821 0.0291643 0
      vertex 76.427 0.0291643 1.23664
    endloop
  endfacet
  facet normal 0 -1 0
    outer loop
      vertex 73.073 0.0291643 0.14683
      vertex 76.4821 0.0291643 0
      vertex 74.927 0.0291643 0.14683
    endloop
  endfacet
  facet normal 1 -0 0
    outer loop
      vertex 80 4 6
      vertex 80 8 0
      vertex 80 8 6
    endloop
  endfacet
  facet normal 1 0 0
    outer loop
      vertex 80 8 0
      vertex 80 4 6
      vertex 80 4 0
    endloop
  endfacet
  facet normal 0.74852 0.663112 0
    outer loop
      vertex 79.5418 9.85889 6
      vertex 78.2723 11.2919 0
      vertex 78.2723 11.2919 6
    endloop
  endfacet
  facet normal 0.74852 0.663112 0
    outer loop
      vertex 78.2723 11.2919 0
      vertex 79.5418 9.85889 6
      vertex 79.5418 9.85889 0
    endloop
  endfacet
  facet normal 0.35459 0.935022 -0
    outer loop
      vertex 78.2723 11.2919 0
      vertex 76.4821 11.9708 6
      vertex 78.2723 11.2919 6
    endloop
  endfacet
  facet normal 0.35459 0.935022 0
    outer loop
      vertex 76.4821 11.9708 6
      vertex 78.2723 11.2919 0
      vertex 76.4821 11.9708 0
    endloop
  endfacet
  facet normal 0.970939 0.239328 0
    outer loop
      vertex 80 8 6
      vertex 79.5418 9.85889 0
      vertex 79.5418 9.85889 6
    endloop
  endfacet
  facet normal 0.970939 0.239328 0
    outer loop
      vertex 79.5418 9.85889 0
      vertex 80 8 6
      vertex 80 8 0
    endloop
  endfacet
  facet normal 0.35459 -0.935022 0
    outer loop
      vertex 76.4821 0.0291643 4.59379
      vertex 78.2723 0.708064 6
      vertex 76.4821 0.0291643 6
    endloop
  endfacet
  facet normal 0.354587 -0.935023 3.80447e-06
    outer loop
      vertex 77 0.22556 3
      vertex 78.2723 0.708064 6
      vertex 76.4821 0.0291643 4.59379
    endloop
  endfacet
  facet normal 0.354587 -0.935023 -3.80447e-06
    outer loop
      vertex 78.2723 0.708064 0
      vertex 77 0.22556 3
      vertex 76.4821 0.0291643 1.40621
    endloop
  endfacet
  facet normal 0.35459 -0.935022 0
    outer loop
      vertex 78.2723 0.708064 0
      vertex 76.4821 0.0291643 1.40621
      vertex 76.4821 0.0291643 0
    endloop
  endfacet
  facet normal 0.354595 -0.93502 0
    outer loop
      vertex 77 0.22556 3
      vertex 78.2723 0.708064 0
      vertex 78.2723 0.708064 6
    endloop
  endfacet
  facet normal 0.748528 -0.663103 0
    outer loop
      vertex 78.2723 0.708064 6
      vertex 79.5418 2.14111 0
      vertex 79.5418 2.14111 6
    endloop
  endfacet
  facet normal 0.748528 -0.663103 0
    outer loop
      vertex 79.5418 2.14111 0
      vertex 78.2723 0.708064 6
      vertex 78.2723 0.708064 0
    endloop
  endfacet
  facet normal 0 1 -0
    outer loop
      vertex 76.4821 11.9708 0
      vertex 4.48215 11.9708 6
      vertex 76.4821 11.9708 6
    endloop
  endfacet
  facet normal 0 1 0
    outer loop
      vertex 4.48215 11.9708 6
      vertex 76.4821 11.9708 0
      vertex 4.48215 11.9708 0
    endloop
  endfacet
  facet normal -0.885455 -0.464724 0
    outer loop
      vertex 1.00596 1.34751 0
      vertex 0.116232 3.04274 6
      vertex 0.116232 3.04274 0
    endloop
  endfacet
  facet normal -0.885455 -0.464724 0
    outer loop
      vertex 0.116232 3.04274 6
      vertex 1.00596 1.34751 0
      vertex 1.00596 1.34751 6
    endloop
  endfacet
  facet normal -1 0 0
    outer loop
      vertex 0.116232 3.04274 0
      vertex 0.116232 8.95726 6
      vertex 0.116232 8.95726 0
    endloop
  endfacet
  facet normal -1 -0 0
    outer loop
      vertex 0.116232 8.95726 6
      vertex 0.116232 3.04274 0
      vertex 0.116232 3.04274 6
    endloop
  endfacet
  facet normal -0.1205 0.992713 0
    outer loop
      vertex 4.48215 11.9708 0
      vertex 2.58158 11.7401 6
      vertex 4.48215 11.9708 6
    endloop
  endfacet
  facet normal -0.1205 0.992713 0
    outer loop
      vertex 2.58158 11.7401 6
      vertex 4.48215 11.9708 0
      vertex 2.58158 11.7401 0
    endloop
  endfacet
  facet normal 0.970939 -0.239328 0
    outer loop
      vertex 79.5418 2.14111 6
      vertex 80 4 0
      vertex 80 4 6
    endloop
  endfacet
  facet normal 0.970939 -0.239328 0
    outer loop
      vertex 80 4 0
      vertex 79.5418 2.14111 6
      vertex 79.5418 2.14111 0
    endloop
  endfacet
  facet normal 0 0 1
    outer loop
      vertex 76.4821 11.9708 6
      vertex 80 8 6
      vertex 79.5418 9.85889 6
    endloop
  endfacet
  facet normal 0 0 1
    outer loop
      vertex 80 8 6
      vertex 76.4821 11.9708 6
      vertex 80 4 6
    endloop
  endfacet
  facet normal 0 0 1
    outer loop
      vertex 76.4821 11.9708 6
      vertex 79.5418 9.85889 6
      vertex 78.2723 11.2919 6
    endloop
  endfacet
  facet normal 0 0 1
    outer loop
      vertex 76.4821 0.0291643 6
      vertex 80 4 6
      vertex 76.4821 11.9708 6
    endloop
  endfacet
  facet normal 0 0 1
    outer loop
      vertex 80 4 6
      vertex 76.4821 0.0291643 6
      vertex 79.5418 2.14111 6
    endloop
  endfacet
  facet normal 0 0 1
    outer loop
      vertex 79.5418 2.14111 6
      vertex 76.4821 0.0291643 6
      vertex 78.2723 0.708064 6
    endloop
  endfacet
  facet normal -0 0 1
    outer loop
      vertex 4.48215 11.9708 6
      vertex 76.4821 0.0291643 6
      vertex 76.4821 11.9708 6
    endloop
  endfacet
  facet normal 0 0 1
    outer loop
      vertex 4.48215 11.9708 6
      vertex 4.48215 0.0291643 6
      vertex 76.4821 0.0291643 6
    endloop
  endfacet
  facet normal 0 0 1
    outer loop
      vertex 0.116232 8.95726 6
      vertex 4.48215 11.9708 6
      vertex 2.58158 11.7401 6
    endloop
  endfacet
  facet normal 0 0 1
    outer loop
      vertex 4.48215 11.9708 6
      vertex 0.116232 8.95726 6
      vertex 4.48215 0.0291643 6
    endloop
  endfacet
  facet normal 0 0 1
    outer loop
      vertex 0.116232 8.95726 6
      vertex 2.58158 11.7401 6
      vertex 1.00596 10.6525 6
    endloop
  endfacet
  facet normal -0 0 1
    outer loop
      vertex 0.116232 3.04274 6
      vertex 4.48215 0.0291643 6
      vertex 0.116232 8.95726 6
    endloop
  endfacet
  facet normal 0 0 1
    outer loop
      vertex 4.48215 0.0291643 6
      vertex 0.116232 3.04274 6
      vertex 2.58158 0.259934 6
    endloop
  endfacet
  facet normal 0 0 1
    outer loop
      vertex 2.58158 0.259934 6
      vertex 0.116232 3.04274 6
      vertex 1.00596 1.34751 6
    endloop
  endfacet
  facet normal 0 0 -1
    outer loop
      vertex 76.4821 0.0291643 0
      vertex 80 4 0
      vertex 79.5418 2.14111 0
    endloop
  endfacet
  facet normal -0 0 -1
    outer loop
      vertex 80 4 0
      vertex 76.4821 0.0291643 0
      vertex 80 8 0
    endloop
  endfacet
  facet normal 0 0 -1
    outer loop
      vertex 76.4821 0.0291643 0
      vertex 79.5418 2.14111 0
      vertex 78.2723 0.708064 0
    endloop
  endfacet
  facet normal 0 0 -1
    outer loop
      vertex 76.4821 11.9708 0
      vertex 80 8 0
      vertex 76.4821 0.0291643 0
    endloop
  endfacet
  facet normal 0 0 -1
    outer loop
      vertex 80 8 0
      vertex 76.4821 11.9708 0
      vertex 79.5418 9.85889 0
    endloop
  endfacet
  facet normal 0 0 -1
    outer loop
      vertex 79.5418 9.85889 0
      vertex 76.4821 11.9708 0
      vertex 78.2723 11.2919 0
    endloop
  endfacet
  facet normal 0 0 -1
    outer loop
      vertex 4.48215 0.0291643 0
      vertex 76.4821 11.9708 0
      vertex 76.4821 0.0291643 0
    endloop
  endfacet
  facet normal 0 0 -1
    outer loop
      vertex 4.48215 0.0291643 0
      vertex 4.48215 11.9708 0
      vertex 76.4821 11.9708 0
    endloop
  endfacet
  facet normal 0 0 -1
    outer loop
      vertex 0.116232 3.04274 0
      vertex 4.48215 0.0291643 0
      vertex 2.58158 0.259934 0
    endloop
  endfacet
  facet normal 0 0 -1
    outer loop
      vertex 4.48215 0.0291643 0
      vertex 0.116232 3.04274 0
      vertex 4.48215 11.9708 0
    endloop
  endfacet
  facet normal 0 0 -1
    outer loop
      vertex 0.116232 3.04274 0
      vertex 2.58158 0.259934 0
      vertex 1.00596 1.34751 0
    endloop
  endfacet
  facet normal 0 0 -1
    outer loop
      vertex 0.116232 8.95726 0
      vertex 4.48215 11.9708 0
      vertex 0.116232 3.04274 0
    endloop
  endfacet
  facet normal 0 0 -1
    outer loop
      vertex 4.48215 11.9708 0
      vertex 0.116232 8.95726 0
      vertex 2.58158 11.7401 0
    endloop
  endfacet
  facet normal 0 0 -1
    outer loop
      vertex 2.58158 11.7401 0
      vertex 0.116232 8.95726 0
      vertex 1.00596 10.6525 0
    endloop
  endfacet
  facet normal -0.568066 -0.822983 0
    outer loop
      vertex 1.00596 1.34751 0
      vertex 2.58158 0.259934 6
      vertex 1.00596 1.34751 6
    endloop
  endfacet
  facet normal -0.568066 -0.822983 -0
    outer loop
      vertex 2.58158 0.259934 6
      vertex 1.00596 1.34751 0
      vertex 2.58158 0.259934 0
    endloop
  endfacet
  facet normal 0.951057 0 -0.309017
    outer loop
      vertex 3.57295 6 4.76336
      vertex 3 0.209129 3
      vertex 3 6 3
    endloop
  endfacet
  facet normal 0.951057 0 -0.309017
    outer loop
      vertex 3 0.209129 3
      vertex 3.57295 6 4.76336
      vertex 3.57295 0.139561 4.76336
    endloop
  endfacet
  facet normal -0.587784 0 -0.809018
    outer loop
      vertex 6.92705 0.0291643 5.85317
      vertex 8.42705 6 4.76336
      vertex 8.42705 0.0291643 4.76336
    endloop
  endfacet
  facet normal -0.587784 0 -0.809018
    outer loop
      vertex 8.42705 6 4.76336
      vertex 6.92705 0.0291643 5.85317
      vertex 6.92705 6 5.85317
    endloop
  endfacet
  facet normal -0.951057 0 -0.309017
    outer loop
      vertex 9 0.0291643 3
      vertex 8.42705 6 4.76336
      vertex 9 6 3
    endloop
  endfacet
  facet normal -0.951057 -0 -0.309017
    outer loop
      vertex 8.42705 6 4.76336
      vertex 9 0.0291643 3
      vertex 8.42705 0.0291643 4.76336
    endloop
  endfacet
  facet normal 0 0 -1
    outer loop
      vertex 5.07295 0.0291643 5.85317
      vertex 6.92705 6 5.85317
      vertex 6.92705 0.0291643 5.85317
    endloop
  endfacet
  facet normal -0 0 -1
    outer loop
      vertex 6.92705 6 5.85317
      vertex 5.07295 0.0291643 5.85317
      vertex 5.07295 6 5.85317
    endloop
  endfacet
  facet normal 0.587784 0 -0.809018
    outer loop
      vertex 4.48215 0.0291643 5.42393
      vertex 5.07295 6 5.85317
      vertex 5.07295 0.0291643 5.85317
    endloop
  endfacet
  facet normal 0.587784 3.71089e-08 -0.809018
    outer loop
      vertex 3.57295 0.139561 4.76336
      vertex 5.07295 6 5.85317
      vertex 4.48215 0.0291643 5.42393
    endloop
  endfacet
  facet normal 0.587784 0 -0.809018
    outer loop
      vertex 5.07295 6 5.85317
      vertex 3.57295 0.139561 4.76336
      vertex 3.57295 6 4.76336
    endloop
  endfacet
  facet normal -0.587784 0 0.809018
    outer loop
      vertex 6.92705 6 0.14683
      vertex 8.42705 0.0291643 1.23664
      vertex 8.42705 6 1.23664
    endloop
  endfacet
  facet normal -0.587784 0 0.809018
    outer loop
      vertex 8.42705 0.0291643 1.23664
      vertex 6.92705 6 0.14683
      vertex 6.92705 0.0291643 0.14683
    endloop
  endfacet
  facet normal -0 0 1
    outer loop
      vertex 5.07295 6 0.14683
      vertex 6.92705 0.0291643 0.14683
      vertex 6.92705 6 0.14683
    endloop
  endfacet
  facet normal 0 0 1
    outer loop
      vertex 6.92705 0.0291643 0.14683
      vertex 5.07295 6 0.14683
      vertex 5.07295 0.0291643 0.14683
    endloop
  endfacet
  facet normal 0.951057 -0 0.309017
    outer loop
      vertex 3 0.209129 3
      vertex 3.57295 6 1.23664
      vertex 3 6 3
    endloop
  endfacet
  facet normal 0.951057 0 0.309017
    outer loop
      vertex 3.57295 6 1.23664
      vertex 3 0.209129 3
      vertex 3.57295 0.139561 1.23664
    endloop
  endfacet
  facet normal 0 -1 0
    outer loop
      vertex 3.57295 6 4.76336
      vertex 6.92705 6 5.85317
      vertex 5.07295 6 5.85317
    endloop
  endfacet
  facet normal 0 -1 0
    outer loop
      vertex 3.57295 6 4.76336
      vertex 8.42705 6 4.76336
      vertex 6.92705 6 5.85317
    endloop
  endfacet
  facet normal 0 -1 0
    outer loop
      vertex 3 6 3
      vertex 8.42705 6 4.76336
      vertex 3.57295 6 4.76336
    endloop
  endfacet
  facet normal 0 -1 0
    outer loop
      vertex 3 6 3
      vertex 9 6 3
      vertex 8.42705 6 4.76336
    endloop
  endfacet
  facet normal 0 -1 0
    outer loop
      vertex 3.57295 6 1.23664
      vertex 9 6 3
      vertex 3 6 3
    endloop
  endfacet
  facet normal 0 -1 0
    outer loop
      vertex 3.57295 6 1.23664
      vertex 8.42705 6 1.23664
      vertex 9 6 3
    endloop
  endfacet
  facet normal 0 -1 0
    outer loop
      vertex 5.07295 6 0.14683
      vertex 8.42705 6 1.23664
      vertex 3.57295 6 1.23664
    endloop
  endfacet
  facet normal 0 -1 0
    outer loop
      vertex 8.42705 6 1.23664
      vertex 5.07295 6 0.14683
      vertex 6.92705 6 0.14683
    endloop
  endfacet
  facet normal 0.587787 0 0.809016
    outer loop
      vertex 5.07295 6 0.14683
      vertex 4.48215 0.0291643 0.576073
      vertex 5.07295 0.0291643 0.14683
    endloop
  endfacet
  facet normal 0.587784 -0 0.809018
    outer loop
      vertex 3.57295 0.139561 1.23664
      vertex 5.07295 6 0.14683
      vertex 3.57295 6 1.23664
    endloop
  endfacet
  facet normal 0.587782 6.99768e-07 0.809019
    outer loop
      vertex 5.07295 6 0.14683
      vertex 3.57295 0.139561 1.23664
      vertex 4.48215 0.0291643 0.576073
    endloop
  endfacet
  facet normal -0.951057 0 0.309017
    outer loop
      vertex 8.42705 0.0291643 1.23664
      vertex 9 6 3
      vertex 8.42705 6 1.23664
    endloop
  endfacet
  facet normal -0.951057 0 0.309017
    outer loop
      vertex 9 6 3
      vertex 8.42705 0.0291643 1.23664
      vertex 9 0.0291643 3
    endloop
  endfacet
  facet normal 0.951049 0 -0.309041
    outer loop
      vertex 71.573 0.0291643 4.76336
      vertex 71 6 3
      vertex 71.573 6 4.76336
    endloop
  endfacet
  facet normal 0.951049 0 -0.309041
    outer loop
      vertex 71 6 3
      vertex 71.573 0.0291643 4.76336
      vertex 71 0.0291643 3
    endloop
  endfacet
  facet normal -0.587784 0 -0.809018
    outer loop
      vertex 74.927 0.0291643 5.85317
      vertex 76.427 6 4.76336
      vertex 76.427 0.0291643 4.76336
    endloop
  endfacet
  facet normal -0.587784 0 -0.809018
    outer loop
      vertex 76.427 6 4.76336
      vertex 74.927 0.0291643 5.85317
      vertex 74.927 6 5.85317
    endloop
  endfacet
  facet normal -0.951049 0 -0.309041
    outer loop
      vertex 77 0.22556 3
      vertex 76.427 6 4.76336
      vertex 77 6 3
    endloop
  endfacet
  facet normal -0.951048 2.46388e-07 -0.309042
    outer loop
      vertex 76.4821 0.0291643 4.59379
      vertex 76.427 6 4.76336
      vertex 77 0.22556 3
    endloop
  endfacet
  facet normal -0.951051 -0 -0.309034
    outer loop
      vertex 76.427 6 4.76336
      vertex 76.4821 0.0291643 4.59379
      vertex 76.427 0.0291643 4.76336
    endloop
  endfacet
  facet normal 0 0 -1
    outer loop
      vertex 73.073 0.0291643 5.85317
      vertex 74.927 6 5.85317
      vertex 74.927 0.0291643 5.85317
    endloop
  endfacet
  facet normal -0 0 -1
    outer loop
      vertex 74.927 6 5.85317
      vertex 73.073 0.0291643 5.85317
      vertex 73.073 6 5.85317
    endloop
  endfacet
  facet normal 0.587784 0 -0.809018
    outer loop
      vertex 71.573 0.0291643 4.76336
      vertex 73.073 6 5.85317
      vertex 73.073 0.0291643 5.85317
    endloop
  endfacet
  facet normal 0.587784 0 -0.809018
    outer loop
      vertex 73.073 6 5.85317
      vertex 71.573 0.0291643 4.76336
      vertex 71.573 6 4.76336
    endloop
  endfacet
  facet normal -0.587784 0 0.809018
    outer loop
      vertex 74.927 6 0.14683
      vertex 76.427 0.0291643 1.23664
      vertex 76.427 6 1.23664
    endloop
  endfacet
  facet normal -0.587784 0 0.809018
    outer loop
      vertex 76.427 0.0291643 1.23664
      vertex 74.927 6 0.14683
      vertex 74.927 0.0291643 0.14683
    endloop
  endfacet
  facet normal -0 0 1
    outer loop
      vertex 73.073 6 0.14683
      vertex 74.927 0.0291643 0.14683
      vertex 74.927 6 0.14683
    endloop
  endfacet
  facet normal 0 0 1
    outer loop
      vertex 74.927 0.0291643 0.14683
      vertex 73.073 6 0.14683
      vertex 73.073 0.0291643 0.14683
    endloop
  endfacet
  facet normal 0.951049 -0 0.309041
    outer loop
      vertex 71 0.0291643 3
      vertex 71.573 6 1.23664
      vertex 71 6 3
    endloop
  endfacet
  facet normal 0.951049 0 0.309041
    outer loop
      vertex 71.573 6 1.23664
      vertex 71 0.0291643 3
      vertex 71.573 0.0291643 1.23664
    endloop
  endfacet
  facet normal 0.587784 0 0.809018
    outer loop
      vertex 71.573 6 1.23664
      vertex 73.073 0.0291643 0.14683
      vertex 73.073 6 0.14683
    endloop
  endfacet
  facet normal 0.587784 0 0.809018
    outer loop
      vertex 73.073 0.0291643 0.14683
      vertex 71.573 6 1.23664
      vertex 71.573 0.0291643 1.23664
    endloop
  endfacet
  facet normal -0.951049 0 0.309041
    outer loop
      vertex 76.427 6 1.23664
      vertex 77 0.22556 3
      vertex 77 6 3
    endloop
  endfacet
  facet normal -0.951051 0 0.309034
    outer loop
      vertex 76.4821 0.0291643 1.40621
      vertex 76.427 6 1.23664
      vertex 76.427 0.0291643 1.23664
    endloop
  endfacet
  facet normal -0.951048 2.46388e-07 0.309042
    outer loop
      vertex 76.427 6 1.23664
      vertex 76.4821 0.0291643 1.40621
      vertex 77 0.22556 3
    endloop
  endfacet
  facet normal 0 -1 0
    outer loop
      vertex 71.573 6 4.76336
      vertex 74.927 6 5.85317
      vertex 73.073 6 5.85317
    endloop
  endfacet
  facet normal 0 -1 0
    outer loop
      vertex 71.573 6 4.76336
      vertex 76.427 6 4.76336
      vertex 74.927 6 5.85317
    endloop
  endfacet
  facet normal 0 -1 0
    outer loop
      vertex 71 6 3
      vertex 76.427 6 4.76336
      vertex 71.573 6 4.76336
    endloop
  endfacet
  facet normal 0 -1 0
    outer loop
      vertex 71 6 3
      vertex 77 6 3
      vertex 76.427 6 4.76336
    endloop
  endfacet
  facet normal 0 -1 0
    outer loop
      vertex 71.573 6 1.23664
      vertex 77 6 3
      vertex 71 6 3
    endloop
  endfacet
  facet normal 0 -1 0
    outer loop
      vertex 71.573 6 1.23664
      vertex 76.427 6 1.23664
      vertex 77 6 3
    endloop
  endfacet
  facet normal 0 -1 0
    outer loop
      vertex 73.073 6 0.14683
      vertex 76.427 6 1.23664
      vertex 71.573 6 1.23664
    endloop
  endfacet
  facet normal 0 -1 0
    outer loop
      vertex 76.427 6 1.23664
      vertex 73.073 6 0.14683
      vertex 74.927 6 0.14683
    endloop
  endfacet
endsolid OpenSCAD_Model
