solid OpenSCAD_Model
  facet normal 0 0 1
    outer loop
      vertex 12.3744 30.052 12.5
      vertex -12.3744 -30.052 12.5
      vertex 30.052 12.3744 12.5
    endloop
  endfacet
  facet normal 0 -0 1
    outer loop
      vertex -12.3744 -30.052 12.5
      vertex 12.3744 30.052 12.5
      vertex -30.052 -12.3744 12.5
    endloop
  endfacet
  facet normal 0 0 -1
    outer loop
      vertex -12.3744 -30.052 -2.5
      vertex 12.3744 30.052 -2.5
      vertex 30.052 12.3744 -2.5
    endloop
  endfacet
  facet normal 0 0 -1
    outer loop
      vertex 12.3744 30.052 -2.5
      vertex -12.3744 -30.052 -2.5
      vertex -30.052 -12.3744 -2.5
    endloop
  endfacet
  facet normal 0.707107 -0.707107 0
    outer loop
      vertex -12.3744 -30.052 12.5
      vertex 30.052 12.3744 -2.5
      vertex 30.052 12.3744 12.5
    endloop
  endfacet
  facet normal 0.707107 -0.707107 0
    outer loop
      vertex 30.052 12.3744 -2.5
      vertex -12.3744 -30.052 12.5
      vertex -12.3744 -30.052 -2.5
    endloop
  endfacet
  facet normal 0.707107 0.707107 0
    outer loop
      vertex 30.052 12.3744 12.5
      vertex 12.3744 30.052 -2.5
      vertex 12.3744 30.052 12.5
    endloop
  endfacet
  facet normal 0.707107 0.707107 0
    outer loop
      vertex 12.3744 30.052 -2.5
      vertex 30.052 12.3744 12.5
      vertex 30.052 12.3744 -2.5
    endloop
  endfacet
  facet normal -0.707107 0.707107 0
    outer loop
      vertex -30.052 -12.3744 -2.5
      vertex 12.3744 30.052 12.5
      vertex 12.3744 30.052 -2.5
    endloop
  endfacet
  facet normal -0.707107 0.707107 0
    outer loop
      vertex 12.3744 30.052 12.5
      vertex -30.052 -12.3744 -2.5
      vertex -30.052 -12.3744 12.5
    endloop
  endfacet
  facet normal -0.707107 -0.707107 0
    outer loop
      vertex -12.3744 -30.052 -2.5
      vertex -30.052 -12.3744 12.5
      vertex -30.052 -12.3744 -2.5
    endloop
  endfacet
  facet normal -0.707107 -0.707107 0
    outer loop
      vertex -30.052 -12.3744 12.5
      vertex -12.3744 -30.052 -2.5
      vertex -12.3744 -30.052 12.5
    endloop
  endfacet
endsolid OpenSCAD_Model
