solid OpenSCAD_Model
  facet normal 1 -0 0
    outer loop
      vertex 40 0 60
      vertex 40 40 0
      vertex 40 40 60
    endloop
  endfacet
  facet normal 1 0 0
    outer loop
      vertex 40 40 0
      vertex 40 0 60
      vertex 40 0 0
    endloop
  endfacet
  facet normal -0 0 1
    outer loop
      vertex 10 30 20
      vertex 30 10 20
      vertex 30 30 20
    endloop
  endfacet
  facet normal 0 0 1
    outer loop
      vertex 30 10 20
      vertex 10 30 20
      vertex 10 10 20
    endloop
  endfacet
  facet normal 0 0 -1
    outer loop
      vertex 40 0 0
      vertex 30 10 0
      vertex 40 40 0
    endloop
  endfacet
  facet normal 0 0 -1
    outer loop
      vertex 40 0 0
      vertex 10 10 0
      vertex 30 10 0
    endloop
  endfacet
  facet normal -0 0 -1
    outer loop
      vertex 10 10 0
      vertex 0 0 0
      vertex 10 30 0
    endloop
  endfacet
  facet normal 0 0 -1
    outer loop
      vertex 0 0 0
      vertex 10 10 0
      vertex 40 0 0
    endloop
  endfacet
  facet normal 0 0 -1
    outer loop
      vertex 30 30 0
      vertex 40 40 0
      vertex 30 10 0
    endloop
  endfacet
  facet normal 0 0 -1
    outer loop
      vertex 10 30 0
      vertex 40 40 0
      vertex 30 30 0
    endloop
  endfacet
  facet normal 0 0 -1
    outer loop
      vertex 10 30 0
      vertex 0 40 0
      vertex 40 40 0
    endloop
  endfacet
  facet normal 0 0 -1
    outer loop
      vertex 0 40 0
      vertex 10 30 0
      vertex 0 0 0
    endloop
  endfacet
  facet normal -1 0 0
    outer loop
      vertex 0 0 0
      vertex 0 40 60
      vertex 0 40 0
    endloop
  endfacet
  facet normal -1 -0 0
    outer loop
      vertex 0 40 60
      vertex 0 0 0
      vertex 0 0 60
    endloop
  endfacet
  facet normal 0 1 -0
    outer loop
      vertex 40 40 0
      vertex 0 40 60
      vertex 40 40 60
    endloop
  endfacet
  facet normal 0 1 0
    outer loop
      vertex 0 40 60
      vertex 40 40 0
      vertex 0 40 0
    endloop
  endfacet
  facet normal 0 -1 0
    outer loop
      vertex 0 0 0
      vertex 40 0 60
      vertex 0 0 60
    endloop
  endfacet
  facet normal 0 -1 -0
    outer loop
      vertex 40 0 60
      vertex 0 0 0
      vertex 40 0 0
    endloop
  endfacet
  facet normal -1 0 0
    outer loop
      vertex 30 10 0
      vertex 30 30 10
      vertex 30 30 0
    endloop
  endfacet
  facet normal -1 -0 0
    outer loop
      vertex 30 30 10
      vertex 30 10 0
      vertex 30 10 10
    endloop
  endfacet
  facet normal 0 0 -1
    outer loop
      vertex 10 10 10
      vertex 30 30 10
      vertex 30 10 10
    endloop
  endfacet
  facet normal -0 0 -1
    outer loop
      vertex 30 30 10
      vertex 10 10 10
      vertex 10 30 10
    endloop
  endfacet
  facet normal 1 -0 0
    outer loop
      vertex 10 10 10
      vertex 10 30 0
      vertex 10 30 10
    endloop
  endfacet
  facet normal 1 0 0
    outer loop
      vertex 10 30 0
      vertex 10 10 10
      vertex 10 10 0
    endloop
  endfacet
  facet normal 0 -1 0
    outer loop
      vertex 10 30 0
      vertex 30 30 10
      vertex 10 30 10
    endloop
  endfacet
  facet normal 0 -1 -0
    outer loop
      vertex 30 30 10
      vertex 10 30 0
      vertex 30 30 0
    endloop
  endfacet
  facet normal 0 1 -0
    outer loop
      vertex 30 10 0
      vertex 10 10 10
      vertex 30 10 10
    endloop
  endfacet
  facet normal 0 1 0
    outer loop
      vertex 10 10 10
      vertex 30 10 0
      vertex 10 10 0
    endloop
  endfacet
  facet normal 0 0 -1
    outer loop
      vertex 10 10 40
      vertex 30 30 40
      vertex 30 10 40
    endloop
  endfacet
  facet normal -0 0 -1
    outer loop
      vertex 30 30 40
      vertex 10 10 40
      vertex 10 30 40
    endloop
  endfacet
  facet normal -1 0 0
    outer loop
      vertex 30 10 20
      vertex 30 30 40
      vertex 30 30 20
    endloop
  endfacet
  facet normal -1 -0 0
    outer loop
      vertex 30 30 40
      vertex 30 10 20
      vertex 30 10 40
    endloop
  endfacet
  facet normal 1 -0 0
    outer loop
      vertex 10 10 40
      vertex 10 30 20
      vertex 10 30 40
    endloop
  endfacet
  facet normal 1 0 0
    outer loop
      vertex 10 30 20
      vertex 10 10 40
      vertex 10 10 20
    endloop
  endfacet
  facet normal 0 -1 0
    outer loop
      vertex 10 30 20
      vertex 30 30 40
      vertex 10 30 40
    endloop
  endfacet
  facet normal 0 -1 -0
    outer loop
      vertex 30 30 40
      vertex 10 30 20
      vertex 30 30 20
    endloop
  endfacet
  facet normal 0 1 -0
    outer loop
      vertex 30 10 20
      vertex 10 10 40
      vertex 30 10 40
    endloop
  endfacet
  facet normal 0 1 0
    outer loop
      vertex 10 10 40
      vertex 30 10 20
      vertex 10 10 20
    endloop
  endfacet
  facet normal 0 0 1
    outer loop
      vertex 40 40 60
      vertex 30 30 60
      vertex 40 0 60
    endloop
  endfacet
  facet normal 0 0 1
    outer loop
      vertex 40 40 60
      vertex 10 30 60
      vertex 30 30 60
    endloop
  endfacet
  facet normal 0 0 1
    outer loop
      vertex 10 30 60
      vertex 0 40 60
      vertex 10 10 60
    endloop
  endfacet
  facet normal -0 0 1
    outer loop
      vertex 0 40 60
      vertex 10 30 60
      vertex 40 40 60
    endloop
  endfacet
  facet normal -0 0 1
    outer loop
      vertex 30 10 60
      vertex 40 0 60
      vertex 30 30 60
    endloop
  endfacet
  facet normal -0 0 1
    outer loop
      vertex 10 10 60
      vertex 40 0 60
      vertex 30 10 60
    endloop
  endfacet
  facet normal 0 0 1
    outer loop
      vertex 10 10 60
      vertex 0 0 60
      vertex 40 0 60
    endloop
  endfacet
  facet normal 0 0 1
    outer loop
      vertex 0 0 60
      vertex 10 10 60
      vertex 0 40 60
    endloop
  endfacet
  facet normal -1 0 0
    outer loop
      vertex 30 10 50
      vertex 30 30 60
      vertex 30 30 50
    endloop
  endfacet
  facet normal -1 -0 0
    outer loop
      vertex 30 30 60
      vertex 30 10 50
      vertex 30 10 60
    endloop
  endfacet
  facet normal -0 0 1
    outer loop
      vertex 10 30 50
      vertex 30 10 50
      vertex 30 30 50
    endloop
  endfacet
  facet normal 0 0 1
    outer loop
      vertex 30 10 50
      vertex 10 30 50
      vertex 10 10 50
    endloop
  endfacet
  facet normal 1 -0 0
    outer loop
      vertex 10 10 60
      vertex 10 30 50
      vertex 10 30 60
    endloop
  endfacet
  facet normal 1 0 0
    outer loop
      vertex 10 30 50
      vertex 10 10 60
      vertex 10 10 50
    endloop
  endfacet
  facet normal 0 -1 0
    outer loop
      vertex 10 30 50
      vertex 30 30 60
      vertex 10 30 60
    endloop
  endfacet
  facet normal 0 -1 -0
    outer loop
      vertex 30 30 60
      vertex 10 30 50
      vertex 30 30 50
    endloop
  endfacet
  facet normal 0 1 -0
    outer loop
      vertex 30 10 50
      vertex 10 10 60
      vertex 30 10 60
    endloop
  endfacet
  facet normal 0 1 0
    outer loop
      vertex 10 10 60
      vertex 30 10 50
      vertex 10 10 50
    endloop
  endfacet
endsolid OpenSCAD_Model
