solid OpenSCAD_Model
  facet normal 1 -0 0
    outer loop
      vertex 20 0 5
      vertex 20 5 0
      vertex 20 5 5
    endloop
  endfacet
  facet normal 1 0 0
    outer loop
      vertex 20 5 0
      vertex 20 0 5
      vertex 20 0 0
    endloop
  endfacet
  facet normal -0 0 1
    outer loop
      vertex 0 5 5
      vertex 5 0 5
      vertex 5 5 5
    endloop
  endfacet
  facet normal 0 0 1
    outer loop
      vertex 5 0 5
      vertex 0 5 5
      vertex 0 0 5
    endloop
  endfacet
  facet normal -0 0 1
    outer loop
      vertex 10 5 5
      vertex 20 0 5
      vertex 20 5 5
    endloop
  endfacet
  facet normal 0 0 1
    outer loop
      vertex 20 0 5
      vertex 10 5 5
      vertex 10 0 5
    endloop
  endfacet
  facet normal 0 0 -1
    outer loop
      vertex 0 0 0
      vertex 20 5 0
      vertex 20 0 0
    endloop
  endfacet
  facet normal -0 0 -1
    outer loop
      vertex 20 5 0
      vertex 0 0 0
      vertex 0 5 0
    endloop
  endfacet
  facet normal -1 0 0
    outer loop
      vertex 0 0 0
      vertex 0 5 5
      vertex 0 5 0
    endloop
  endfacet
  facet normal -1 -0 0
    outer loop
      vertex 0 5 5
      vertex 0 0 0
      vertex 0 0 5
    endloop
  endfacet
  facet normal 0 1 -0
    outer loop
      vertex 20 5 0
      vertex 10 5 5
      vertex 20 5 5
    endloop
  endfacet
  facet normal 0 1 0
    outer loop
      vertex 0 5 0
      vertex 10 5 5
      vertex 20 5 0
    endloop
  endfacet
  facet normal 0 1 0
    outer loop
      vertex 10 5 5
      vertex 0 5 0
      vertex 5 5 5
    endloop
  endfacet
  facet normal 0 1 0
    outer loop
      vertex 5 5 5
      vertex 0 5 0
      vertex 0 5 5
    endloop
  endfacet
  facet normal 0 1 -0
    outer loop
      vertex 10 5 5
      vertex 5 5 15
      vertex 10 5 15
    endloop
  endfacet
  facet normal 0 1 0
    outer loop
      vertex 5 5 15
      vertex 10 5 5
      vertex 5 5 5
    endloop
  endfacet
  facet normal 0 -1 0
    outer loop
      vertex 0 0 0
      vertex 5 0 5
      vertex 0 0 5
    endloop
  endfacet
  facet normal 0 -1 -0
    outer loop
      vertex 5 0 5
      vertex 0 0 0
      vertex 10 0 5
    endloop
  endfacet
  facet normal 0 -1 0
    outer loop
      vertex 20 0 0
      vertex 10 0 5
      vertex 0 0 0
    endloop
  endfacet
  facet normal 0 -1 0
    outer loop
      vertex 10 0 5
      vertex 20 0 0
      vertex 20 0 5
    endloop
  endfacet
  facet normal 0 -1 0
    outer loop
      vertex 5 0 5
      vertex 10 0 15
      vertex 5 0 15
    endloop
  endfacet
  facet normal 0 -1 -0
    outer loop
      vertex 10 0 15
      vertex 5 0 5
      vertex 10 0 5
    endloop
  endfacet
  facet normal -0 0 1
    outer loop
      vertex 5 5 15
      vertex 10 0 15
      vertex 10 5 15
    endloop
  endfacet
  facet normal 0 0 1
    outer loop
      vertex 10 0 15
      vertex 5 5 15
      vertex 5 0 15
    endloop
  endfacet
  facet normal -1 0 0
    outer loop
      vertex 5 0 5
      vertex 5 5 15
      vertex 5 5 5
    endloop
  endfacet
  facet normal -1 -0 0
    outer loop
      vertex 5 5 15
      vertex 5 0 5
      vertex 5 0 15
    endloop
  endfacet
  facet normal 1 -0 0
    outer loop
      vertex 10 0 15
      vertex 10 5 5
      vertex 10 5 15
    endloop
  endfacet
  facet normal 1 0 0
    outer loop
      vertex 10 5 5
      vertex 10 0 15
      vertex 10 0 5
    endloop
  endfacet
  facet normal 1 -0 0
    outer loop
      vertex 50 0 5
      vertex 50 5 0
      vertex 50 5 5
    endloop
  endfacet
  facet normal 1 0 0
    outer loop
      vertex 50 5 0
      vertex 50 0 5
      vertex 50 0 0
    endloop
  endfacet
  facet normal -0 0 1
    outer loop
      vertex 30 5 5
      vertex 35 0 5
      vertex 35 5 5
    endloop
  endfacet
  facet normal 0 0 1
    outer loop
      vertex 35 0 5
      vertex 30 5 5
      vertex 30 0 5
    endloop
  endfacet
  facet normal -0 0 1
    outer loop
      vertex 40 5 5
      vertex 50 0 5
      vertex 50 5 5
    endloop
  endfacet
  facet normal 0 0 1
    outer loop
      vertex 50 0 5
      vertex 40 5 5
      vertex 40 0 5
    endloop
  endfacet
  facet normal 0 0 -1
    outer loop
      vertex 30 0 0
      vertex 50 5 0
      vertex 50 0 0
    endloop
  endfacet
  facet normal -0 0 -1
    outer loop
      vertex 50 5 0
      vertex 30 0 0
      vertex 30 5 0
    endloop
  endfacet
  facet normal -1 0 0
    outer loop
      vertex 30 0 0
      vertex 30 5 5
      vertex 30 5 0
    endloop
  endfacet
  facet normal -1 -0 0
    outer loop
      vertex 30 5 5
      vertex 30 0 0
      vertex 30 0 5
    endloop
  endfacet
  facet normal 0 1 -0
    outer loop
      vertex 50 5 0
      vertex 40 5 5
      vertex 50 5 5
    endloop
  endfacet
  facet normal 0 1 0
    outer loop
      vertex 30 5 0
      vertex 40 5 5
      vertex 50 5 0
    endloop
  endfacet
  facet normal 0 1 0
    outer loop
      vertex 40 5 5
      vertex 30 5 0
      vertex 35 5 5
    endloop
  endfacet
  facet normal 0 1 0
    outer loop
      vertex 35 5 5
      vertex 30 5 0
      vertex 30 5 5
    endloop
  endfacet
  facet normal 0 1 -0
    outer loop
      vertex 40 5 5
      vertex 35 5 15
      vertex 40 5 15
    endloop
  endfacet
  facet normal 0 1 0
    outer loop
      vertex 35 5 15
      vertex 40 5 5
      vertex 35 5 5
    endloop
  endfacet
  facet normal 0 -1 0
    outer loop
      vertex 30 0 0
      vertex 35 0 5
      vertex 30 0 5
    endloop
  endfacet
  facet normal 0 -1 -0
    outer loop
      vertex 35 0 5
      vertex 30 0 0
      vertex 40 0 5
    endloop
  endfacet
  facet normal 0 -1 0
    outer loop
      vertex 50 0 0
      vertex 40 0 5
      vertex 30 0 0
    endloop
  endfacet
  facet normal 0 -1 0
    outer loop
      vertex 40 0 5
      vertex 50 0 0
      vertex 50 0 5
    endloop
  endfacet
  facet normal 0 -1 0
    outer loop
      vertex 35 0 5
      vertex 40 0 15
      vertex 35 0 15
    endloop
  endfacet
  facet normal 0 -1 -0
    outer loop
      vertex 40 0 15
      vertex 35 0 5
      vertex 40 0 5
    endloop
  endfacet
  facet normal -0 0 1
    outer loop
      vertex 35 5 15
      vertex 40 0 15
      vertex 40 5 15
    endloop
  endfacet
  facet normal 0 0 1
    outer loop
      vertex 40 0 15
      vertex 35 5 15
      vertex 35 0 15
    endloop
  endfacet
  facet normal -1 0 0
    outer loop
      vertex 35 0 5
      vertex 35 5 15
      vertex 35 5 5
    endloop
  endfacet
  facet normal -1 -0 0
    outer loop
      vertex 35 5 15
      vertex 35 0 5
      vertex 35 0 15
    endloop
  endfacet
  facet normal 1 -0 0
    outer loop
      vertex 40 0 15
      vertex 40 5 5
      vertex 40 5 15
    endloop
  endfacet
  facet normal 1 0 0
    outer loop
      vertex 40 5 5
      vertex 40 0 15
      vertex 40 0 5
    endloop
  endfacet
  facet normal 1 -0 0
    outer loop
      vertex 80 0 5
      vertex 80 5 0
      vertex 80 5 5
    endloop
  endfacet
  facet normal 1 0 0
    outer loop
      vertex 80 5 0
      vertex 80 0 5
      vertex 80 0 0
    endloop
  endfacet
  facet normal -0 0 1
    outer loop
      vertex 60 5 5
      vertex 65 0 5
      vertex 65 5 5
    endloop
  endfacet
  facet normal 0 0 1
    outer loop
      vertex 65 0 5
      vertex 60 5 5
      vertex 60 0 5
    endloop
  endfacet
  facet normal -0 0 1
    outer loop
      vertex 70 5 5
      vertex 80 0 5
      vertex 80 5 5
    endloop
  endfacet
  facet normal 0 0 1
    outer loop
      vertex 80 0 5
      vertex 70 5 5
      vertex 70 0 5
    endloop
  endfacet
  facet normal 0 0 -1
    outer loop
      vertex 60 0 0
      vertex 80 5 0
      vertex 80 0 0
    endloop
  endfacet
  facet normal -0 0 -1
    outer loop
      vertex 80 5 0
      vertex 60 0 0
      vertex 60 5 0
    endloop
  endfacet
  facet normal -1 0 0
    outer loop
      vertex 60 0 0
      vertex 60 5 5
      vertex 60 5 0
    endloop
  endfacet
  facet normal -1 -0 0
    outer loop
      vertex 60 5 5
      vertex 60 0 0
      vertex 60 0 5
    endloop
  endfacet
  facet normal 0 1 -0
    outer loop
      vertex 80 5 0
      vertex 70 5 5
      vertex 80 5 5
    endloop
  endfacet
  facet normal 0 1 0
    outer loop
      vertex 60 5 0
      vertex 70 5 5
      vertex 80 5 0
    endloop
  endfacet
  facet normal 0 1 0
    outer loop
      vertex 70 5 5
      vertex 60 5 0
      vertex 65 5 5
    endloop
  endfacet
  facet normal 0 1 0
    outer loop
      vertex 65 5 5
      vertex 60 5 0
      vertex 60 5 5
    endloop
  endfacet
  facet normal 0 1 -0
    outer loop
      vertex 70 5 5
      vertex 65 5 15
      vertex 70 5 15
    endloop
  endfacet
  facet normal 0 1 0
    outer loop
      vertex 65 5 15
      vertex 70 5 5
      vertex 65 5 5
    endloop
  endfacet
  facet normal 0 -1 0
    outer loop
      vertex 60 0 0
      vertex 65 0 5
      vertex 60 0 5
    endloop
  endfacet
  facet normal 0 -1 -0
    outer loop
      vertex 65 0 5
      vertex 60 0 0
      vertex 70 0 5
    endloop
  endfacet
  facet normal 0 -1 0
    outer loop
      vertex 80 0 0
      vertex 70 0 5
      vertex 60 0 0
    endloop
  endfacet
  facet normal 0 -1 0
    outer loop
      vertex 70 0 5
      vertex 80 0 0
      vertex 80 0 5
    endloop
  endfacet
  facet normal 0 -1 0
    outer loop
      vertex 65 0 5
      vertex 70 0 15
      vertex 65 0 15
    endloop
  endfacet
  facet normal 0 -1 -0
    outer loop
      vertex 70 0 15
      vertex 65 0 5
      vertex 70 0 5
    endloop
  endfacet
  facet normal -0 0 1
    outer loop
      vertex 65 5 15
      vertex 70 0 15
      vertex 70 5 15
    endloop
  endfacet
  facet normal 0 0 1
    outer loop
      vertex 70 0 15
      vertex 65 5 15
      vertex 65 0 15
    endloop
  endfacet
  facet normal -1 0 0
    outer loop
      vertex 65 0 5
      vertex 65 5 15
      vertex 65 5 5
    endloop
  endfacet
  facet normal -1 -0 0
    outer loop
      vertex 65 5 15
      vertex 65 0 5
      vertex 65 0 15
    endloop
  endfacet
  facet normal 1 -0 0
    outer loop
      vertex 70 0 15
      vertex 70 5 5
      vertex 70 5 15
    endloop
  endfacet
  facet normal 1 0 0
    outer loop
      vertex 70 5 5
      vertex 70 0 15
      vertex 70 0 5
    endloop
  endfacet
  facet normal 1 -0 0
    outer loop
      vertex 20 30 5
      vertex 20 35 0
      vertex 20 35 5
    endloop
  endfacet
  facet normal 1 0 0
    outer loop
      vertex 20 35 0
      vertex 20 30 5
      vertex 20 30 0
    endloop
  endfacet
  facet normal -0 0 1
    outer loop
      vertex 0 35 5
      vertex 5 30 5
      vertex 5 35 5
    endloop
  endfacet
  facet normal 0 0 1
    outer loop
      vertex 5 30 5
      vertex 0 35 5
      vertex 0 30 5
    endloop
  endfacet
  facet normal -0 0 1
    outer loop
      vertex 10 35 5
      vertex 20 30 5
      vertex 20 35 5
    endloop
  endfacet
  facet normal 0 0 1
    outer loop
      vertex 20 30 5
      vertex 10 35 5
      vertex 10 30 5
    endloop
  endfacet
  facet normal 0 0 -1
    outer loop
      vertex 0 30 0
      vertex 20 35 0
      vertex 20 30 0
    endloop
  endfacet
  facet normal -0 0 -1
    outer loop
      vertex 20 35 0
      vertex 0 30 0
      vertex 0 35 0
    endloop
  endfacet
  facet normal -1 0 0
    outer loop
      vertex 0 30 0
      vertex 0 35 5
      vertex 0 35 0
    endloop
  endfacet
  facet normal -1 -0 0
    outer loop
      vertex 0 35 5
      vertex 0 30 0
      vertex 0 30 5
    endloop
  endfacet
  facet normal 0 1 -0
    outer loop
      vertex 20 35 0
      vertex 10 35 5
      vertex 20 35 5
    endloop
  endfacet
  facet normal 0 1 0
    outer loop
      vertex 0 35 0
      vertex 10 35 5
      vertex 20 35 0
    endloop
  endfacet
  facet normal 0 1 0
    outer loop
      vertex 10 35 5
      vertex 0 35 0
      vertex 5 35 5
    endloop
  endfacet
  facet normal 0 1 0
    outer loop
      vertex 5 35 5
      vertex 0 35 0
      vertex 0 35 5
    endloop
  endfacet
  facet normal 0 1 -0
    outer loop
      vertex 10 35 5
      vertex 5 35 15
      vertex 10 35 15
    endloop
  endfacet
  facet normal 0 1 0
    outer loop
      vertex 5 35 15
      vertex 10 35 5
      vertex 5 35 5
    endloop
  endfacet
  facet normal 0 -1 0
    outer loop
      vertex 0 30 0
      vertex 5 30 5
      vertex 0 30 5
    endloop
  endfacet
  facet normal 0 -1 -0
    outer loop
      vertex 5 30 5
      vertex 0 30 0
      vertex 10 30 5
    endloop
  endfacet
  facet normal 0 -1 0
    outer loop
      vertex 20 30 0
      vertex 10 30 5
      vertex 0 30 0
    endloop
  endfacet
  facet normal 0 -1 0
    outer loop
      vertex 10 30 5
      vertex 20 30 0
      vertex 20 30 5
    endloop
  endfacet
  facet normal 0 -1 0
    outer loop
      vertex 5 30 5
      vertex 10 30 15
      vertex 5 30 15
    endloop
  endfacet
  facet normal 0 -1 -0
    outer loop
      vertex 10 30 15
      vertex 5 30 5
      vertex 10 30 5
    endloop
  endfacet
  facet normal -0 0 1
    outer loop
      vertex 5 35 15
      vertex 10 30 15
      vertex 10 35 15
    endloop
  endfacet
  facet normal 0 0 1
    outer loop
      vertex 10 30 15
      vertex 5 35 15
      vertex 5 30 15
    endloop
  endfacet
  facet normal -1 0 0
    outer loop
      vertex 5 30 5
      vertex 5 35 15
      vertex 5 35 5
    endloop
  endfacet
  facet normal -1 -0 0
    outer loop
      vertex 5 35 15
      vertex 5 30 5
      vertex 5 30 15
    endloop
  endfacet
  facet normal 1 -0 0
    outer loop
      vertex 10 30 15
      vertex 10 35 5
      vertex 10 35 15
    endloop
  endfacet
  facet normal 1 0 0
    outer loop
      vertex 10 35 5
      vertex 10 30 15
      vertex 10 30 5
    endloop
  endfacet
  facet normal 1 -0 0
    outer loop
      vertex 50 30 5
      vertex 50 35 0
      vertex 50 35 5
    endloop
  endfacet
  facet normal 1 0 0
    outer loop
      vertex 50 35 0
      vertex 50 30 5
      vertex 50 30 0
    endloop
  endfacet
  facet normal -0 0 1
    outer loop
      vertex 30 35 5
      vertex 35 30 5
      vertex 35 35 5
    endloop
  endfacet
  facet normal 0 0 1
    outer loop
      vertex 35 30 5
      vertex 30 35 5
      vertex 30 30 5
    endloop
  endfacet
  facet normal -0 0 1
    outer loop
      vertex 40 35 5
      vertex 50 30 5
      vertex 50 35 5
    endloop
  endfacet
  facet normal 0 0 1
    outer loop
      vertex 50 30 5
      vertex 40 35 5
      vertex 40 30 5
    endloop
  endfacet
  facet normal 0 0 -1
    outer loop
      vertex 30 30 0
      vertex 50 35 0
      vertex 50 30 0
    endloop
  endfacet
  facet normal -0 0 -1
    outer loop
      vertex 50 35 0
      vertex 30 30 0
      vertex 30 35 0
    endloop
  endfacet
  facet normal -1 0 0
    outer loop
      vertex 30 30 0
      vertex 30 35 5
      vertex 30 35 0
    endloop
  endfacet
  facet normal -1 -0 0
    outer loop
      vertex 30 35 5
      vertex 30 30 0
      vertex 30 30 5
    endloop
  endfacet
  facet normal 0 1 -0
    outer loop
      vertex 50 35 0
      vertex 40 35 5
      vertex 50 35 5
    endloop
  endfacet
  facet normal 0 1 0
    outer loop
      vertex 30 35 0
      vertex 40 35 5
      vertex 50 35 0
    endloop
  endfacet
  facet normal 0 1 0
    outer loop
      vertex 40 35 5
      vertex 30 35 0
      vertex 35 35 5
    endloop
  endfacet
  facet normal 0 1 0
    outer loop
      vertex 35 35 5
      vertex 30 35 0
      vertex 30 35 5
    endloop
  endfacet
  facet normal 0 1 -0
    outer loop
      vertex 40 35 5
      vertex 35 35 15
      vertex 40 35 15
    endloop
  endfacet
  facet normal 0 1 0
    outer loop
      vertex 35 35 15
      vertex 40 35 5
      vertex 35 35 5
    endloop
  endfacet
  facet normal 0 -1 0
    outer loop
      vertex 30 30 0
      vertex 35 30 5
      vertex 30 30 5
    endloop
  endfacet
  facet normal 0 -1 -0
    outer loop
      vertex 35 30 5
      vertex 30 30 0
      vertex 40 30 5
    endloop
  endfacet
  facet normal 0 -1 0
    outer loop
      vertex 50 30 0
      vertex 40 30 5
      vertex 30 30 0
    endloop
  endfacet
  facet normal 0 -1 0
    outer loop
      vertex 40 30 5
      vertex 50 30 0
      vertex 50 30 5
    endloop
  endfacet
  facet normal 0 -1 0
    outer loop
      vertex 35 30 5
      vertex 40 30 15
      vertex 35 30 15
    endloop
  endfacet
  facet normal 0 -1 -0
    outer loop
      vertex 40 30 15
      vertex 35 30 5
      vertex 40 30 5
    endloop
  endfacet
  facet normal -0 0 1
    outer loop
      vertex 35 35 15
      vertex 40 30 15
      vertex 40 35 15
    endloop
  endfacet
  facet normal 0 0 1
    outer loop
      vertex 40 30 15
      vertex 35 35 15
      vertex 35 30 15
    endloop
  endfacet
  facet normal -1 0 0
    outer loop
      vertex 35 30 5
      vertex 35 35 15
      vertex 35 35 5
    endloop
  endfacet
  facet normal -1 -0 0
    outer loop
      vertex 35 35 15
      vertex 35 30 5
      vertex 35 30 15
    endloop
  endfacet
  facet normal 1 -0 0
    outer loop
      vertex 40 30 15
      vertex 40 35 5
      vertex 40 35 15
    endloop
  endfacet
  facet normal 1 0 0
    outer loop
      vertex 40 35 5
      vertex 40 30 15
      vertex 40 30 5
    endloop
  endfacet
  facet normal 1 -0 0
    outer loop
      vertex 80 30 5
      vertex 80 35 0
      vertex 80 35 5
    endloop
  endfacet
  facet normal 1 0 0
    outer loop
      vertex 80 35 0
      vertex 80 30 5
      vertex 80 30 0
    endloop
  endfacet
  facet normal -0 0 1
    outer loop
      vertex 60 35 5
      vertex 65 30 5
      vertex 65 35 5
    endloop
  endfacet
  facet normal 0 0 1
    outer loop
      vertex 65 30 5
      vertex 60 35 5
      vertex 60 30 5
    endloop
  endfacet
  facet normal -0 0 1
    outer loop
      vertex 70 35 5
      vertex 80 30 5
      vertex 80 35 5
    endloop
  endfacet
  facet normal 0 0 1
    outer loop
      vertex 80 30 5
      vertex 70 35 5
      vertex 70 30 5
    endloop
  endfacet
  facet normal 0 0 -1
    outer loop
      vertex 60 30 0
      vertex 80 35 0
      vertex 80 30 0
    endloop
  endfacet
  facet normal -0 0 -1
    outer loop
      vertex 80 35 0
      vertex 60 30 0
      vertex 60 35 0
    endloop
  endfacet
  facet normal -1 0 0
    outer loop
      vertex 60 30 0
      vertex 60 35 5
      vertex 60 35 0
    endloop
  endfacet
  facet normal -1 -0 0
    outer loop
      vertex 60 35 5
      vertex 60 30 0
      vertex 60 30 5
    endloop
  endfacet
  facet normal 0 1 -0
    outer loop
      vertex 80 35 0
      vertex 70 35 5
      vertex 80 35 5
    endloop
  endfacet
  facet normal 0 1 0
    outer loop
      vertex 60 35 0
      vertex 70 35 5
      vertex 80 35 0
    endloop
  endfacet
  facet normal 0 1 0
    outer loop
      vertex 70 35 5
      vertex 60 35 0
      vertex 65 35 5
    endloop
  endfacet
  facet normal 0 1 0
    outer loop
      vertex 65 35 5
      vertex 60 35 0
      vertex 60 35 5
    endloop
  endfacet
  facet normal 0 1 -0
    outer loop
      vertex 70 35 5
      vertex 65 35 15
      vertex 70 35 15
    endloop
  endfacet
  facet normal 0 1 0
    outer loop
      vertex 65 35 15
      vertex 70 35 5
      vertex 65 35 5
    endloop
  endfacet
  facet normal 0 -1 0
    outer loop
      vertex 60 30 0
      vertex 65 30 5
      vertex 60 30 5
    endloop
  endfacet
  facet normal 0 -1 -0
    outer loop
      vertex 65 30 5
      vertex 60 30 0
      vertex 70 30 5
    endloop
  endfacet
  facet normal 0 -1 0
    outer loop
      vertex 80 30 0
      vertex 70 30 5
      vertex 60 30 0
    endloop
  endfacet
  facet normal 0 -1 0
    outer loop
      vertex 70 30 5
      vertex 80 30 0
      vertex 80 30 5
    endloop
  endfacet
  facet normal 0 -1 0
    outer loop
      vertex 65 30 5
      vertex 70 30 15
      vertex 65 30 15
    endloop
  endfacet
  facet normal 0 -1 -0
    outer loop
      vertex 70 30 15
      vertex 65 30 5
      vertex 70 30 5
    endloop
  endfacet
  facet normal -0 0 1
    outer loop
      vertex 65 35 15
      vertex 70 30 15
      vertex 70 35 15
    endloop
  endfacet
  facet normal 0 0 1
    outer loop
      vertex 70 30 15
      vertex 65 35 15
      vertex 65 30 15
    endloop
  endfacet
  facet normal -1 0 0
    outer loop
      vertex 65 30 5
      vertex 65 35 15
      vertex 65 35 5
    endloop
  endfacet
  facet normal -1 -0 0
    outer loop
      vertex 65 35 15
      vertex 65 30 5
      vertex 65 30 15
    endloop
  endfacet
  facet normal 1 -0 0
    outer loop
      vertex 70 30 15
      vertex 70 35 5
      vertex 70 35 15
    endloop
  endfacet
  facet normal 1 0 0
    outer loop
      vertex 70 35 5
      vertex 70 30 15
      vertex 70 30 5
    endloop
  endfacet
endsolid OpenSCAD_Model
