solid OpenSCAD_Model
  facet normal 1 0 0
    outer loop
      vertex 65 4 27
      vertex 65 0 27
      vertex 65 4 15
    endloop
  endfacet
  facet normal 1 0 0
    outer loop
      vertex 65 26 15
      vertex 65 30 27
      vertex 65 26 27
    endloop
  endfacet
  facet normal 1 0 0
    outer loop
      vertex 65 30 27
      vertex 65 26 15
      vertex 65 30 0
    endloop
  endfacet
  facet normal 1 -0 0
    outer loop
      vertex 65 4 15
      vertex 65 30 0
      vertex 65 26 15
    endloop
  endfacet
  facet normal 1 0 0
    outer loop
      vertex 65 4 15
      vertex 65 0 0
      vertex 65 30 0
    endloop
  endfacet
  facet normal 1 0 0
    outer loop
      vertex 65 0 0
      vertex 65 4 15
      vertex 65 0 27
    endloop
  endfacet
  facet normal -0 0 1
    outer loop
      vertex 0 26 15
      vertex 65 4 15
      vertex 65 26 15
    endloop
  endfacet
  facet normal 0 0 1
    outer loop
      vertex 65 4 15
      vertex 0 26 15
      vertex 0 4 15
    endloop
  endfacet
  facet normal 0 0 -1
    outer loop
      vertex 0 0 0
      vertex 65 30 0
      vertex 65 0 0
    endloop
  endfacet
  facet normal -0 0 -1
    outer loop
      vertex 65 30 0
      vertex 0 0 0
      vertex 0 30 0
    endloop
  endfacet
  facet normal -1 0 0
    outer loop
      vertex 0 30 0
      vertex 0 26 15
      vertex 0 30 27
    endloop
  endfacet
  facet normal -1 0 0
    outer loop
      vertex 0 30 0
      vertex 0 4 15
      vertex 0 26 15
    endloop
  endfacet
  facet normal -1 0 0
    outer loop
      vertex 0 0 0
      vertex 0 4 15
      vertex 0 30 0
    endloop
  endfacet
  facet normal -1 0 0
    outer loop
      vertex 0 0 27
      vertex 0 4 15
      vertex 0 0 0
    endloop
  endfacet
  facet normal -1 0 0
    outer loop
      vertex 0 4 15
      vertex 0 0 27
      vertex 0 4 27
    endloop
  endfacet
  facet normal -1 -0 0
    outer loop
      vertex 0 30 27
      vertex 0 26 15
      vertex 0 26 27
    endloop
  endfacet
  facet normal 0 1 -0
    outer loop
      vertex 65 30 0
      vertex 0 30 27
      vertex 65 30 27
    endloop
  endfacet
  facet normal 0 1 0
    outer loop
      vertex 0 30 27
      vertex 65 30 0
      vertex 0 30 0
    endloop
  endfacet
  facet normal 0 -1 0
    outer loop
      vertex 0 0 0
      vertex 65 0 27
      vertex 0 0 27
    endloop
  endfacet
  facet normal 0 -1 -0
    outer loop
      vertex 65 0 27
      vertex 0 0 0
      vertex 65 0 0
    endloop
  endfacet
  facet normal -0 0 1
    outer loop
      vertex 0 4 27
      vertex 65 0 27
      vertex 65 4 27
    endloop
  endfacet
  facet normal 0 0 1
    outer loop
      vertex 65 0 27
      vertex 0 4 27
      vertex 0 0 27
    endloop
  endfacet
  facet normal 0 1 -0
    outer loop
      vertex 65 4 15
      vertex 0 4 27
      vertex 65 4 27
    endloop
  endfacet
  facet normal 0 1 0
    outer loop
      vertex 0 4 27
      vertex 65 4 15
      vertex 0 4 15
    endloop
  endfacet
  facet normal -0 0 1
    outer loop
      vertex 0 30 27
      vertex 65 26 27
      vertex 65 30 27
    endloop
  endfacet
  facet normal 0 0 1
    outer loop
      vertex 65 26 27
      vertex 0 30 27
      vertex 0 26 27
    endloop
  endfacet
  facet normal 0 -1 0
    outer loop
      vertex 0 26 15
      vertex 65 26 27
      vertex 0 26 27
    endloop
  endfacet
  facet normal 0 -1 -0
    outer loop
      vertex 65 26 27
      vertex 0 26 15
      vertex 65 26 15
    endloop
  endfacet
endsolid OpenSCAD_Model
