solid OpenSCAD_Model
  facet normal 1 -0 0
    outer loop
      vertex 20 0 10
      vertex 20 20 5
      vertex 20 20 10
    endloop
  endfacet
  facet normal 1 0 0
    outer loop
      vertex 20 20 5
      vertex 20 0 10
      vertex 20 0 5
    endloop
  endfacet
  facet normal 0 0 -1
    outer loop
      vertex 0 0 5
      vertex 20 20 5
      vertex 20 0 5
    endloop
  endfacet
  facet normal -0 0 -1
    outer loop
      vertex 20 20 5
      vertex 0 0 5
      vertex 0 20 5
    endloop
  endfacet
  facet normal 0 0 -1
    outer loop
      vertex 60 0 0
      vertex 100 20 0
      vertex 100 0 0
    endloop
  endfacet
  facet normal -0 0 -1
    outer loop
      vertex 100 20 0
      vertex 60 0 0
      vertex 60 20 0
    endloop
  endfacet
  facet normal -1 0 0
    outer loop
      vertex 0 0 5
      vertex 0 20 10
      vertex 0 20 5
    endloop
  endfacet
  facet normal -1 -0 0
    outer loop
      vertex 0 20 10
      vertex 0 0 5
      vertex 0 0 10
    endloop
  endfacet
  facet normal 0 1 -0
    outer loop
      vertex 20 20 5
      vertex 0 20 10
      vertex 20 20 10
    endloop
  endfacet
  facet normal 0 1 0
    outer loop
      vertex 0 20 10
      vertex 20 20 5
      vertex 0 20 5
    endloop
  endfacet
  facet normal 0 1 -0
    outer loop
      vertex 100 20 0
      vertex 60 20 10
      vertex 100 20 10
    endloop
  endfacet
  facet normal 0 1 0
    outer loop
      vertex 60 20 10
      vertex 100 20 0
      vertex 60 20 0
    endloop
  endfacet
  facet normal 0 -1 0
    outer loop
      vertex 0 0 5
      vertex 20 0 10
      vertex 0 0 10
    endloop
  endfacet
  facet normal 0 -1 -0
    outer loop
      vertex 20 0 10
      vertex 0 0 5
      vertex 20 0 5
    endloop
  endfacet
  facet normal 0 -1 0
    outer loop
      vertex 60 0 0
      vertex 100 0 10
      vertex 60 0 10
    endloop
  endfacet
  facet normal 0 -1 -0
    outer loop
      vertex 100 0 10
      vertex 60 0 0
      vertex 100 0 0
    endloop
  endfacet
  facet normal -0 0 1
    outer loop
      vertex 0 20 10
      vertex 20 0 10
      vertex 20 20 10
    endloop
  endfacet
  facet normal 0 0 1
    outer loop
      vertex 20 0 10
      vertex 0 20 10
      vertex 0 0 10
    endloop
  endfacet
  facet normal -0 0 1
    outer loop
      vertex 60 20 10
      vertex 100 0 10
      vertex 100 20 10
    endloop
  endfacet
  facet normal 0 0 1
    outer loop
      vertex 100 0 10
      vertex 60 20 10
      vertex 60 0 10
    endloop
  endfacet
  facet normal -1 0 0
    outer loop
      vertex 60 0 0
      vertex 60 20 10
      vertex 60 20 0
    endloop
  endfacet
  facet normal -1 -0 0
    outer loop
      vertex 60 20 10
      vertex 60 0 0
      vertex 60 0 10
    endloop
  endfacet
  facet normal 1 -0 0
    outer loop
      vertex 100 0 10
      vertex 100 20 0
      vertex 100 20 10
    endloop
  endfacet
  facet normal 1 0 0
    outer loop
      vertex 100 20 0
      vertex 100 0 10
      vertex 100 0 0
    endloop
  endfacet
endsolid OpenSCAD_Model
