solid OpenSCAD_Model
  facet normal 0 0 -1
    outer loop
      vertex -6.25 10.8253 0
      vertex -12.5 0 0
      vertex -12.1244 7 0
    endloop
  endfacet
  facet normal 0 0 -1
    outer loop
      vertex -12.1244 -7 0
      vertex -13.2322 -1.76777 0
      vertex -12.5 0 0
    endloop
  endfacet
  facet normal 0 0 -1
    outer loop
      vertex -12.1244 -7 0
      vertex -15 -2.5 0
      vertex -13.2322 -1.76777 0
    endloop
  endfacet
  facet normal 0 0 -1
    outer loop
      vertex -20 -7 0
      vertex -15 -2.5 0
      vertex -12.1244 -7 0
    endloop
  endfacet
  facet normal 0 0 -1
    outer loop
      vertex -22 -5 0
      vertex -16.7678 -1.76777 0
      vertex -20 -7 0
    endloop
  endfacet
  facet normal -0 0 -1
    outer loop
      vertex -15 -2.5 0
      vertex -20 -7 0
      vertex -16.7678 -1.76777 0
    endloop
  endfacet
  facet normal 0 0 -1
    outer loop
      vertex -6.25 10.8253 0
      vertex 6.25 10.8253 0
      vertex -6.25 -10.8253 0
    endloop
  endfacet
  facet normal 0 0 -1
    outer loop
      vertex 6.25 10.8253 0
      vertex -6.25 10.8253 0
      vertex -5.08519 12.3433 0
    endloop
  endfacet
  facet normal 0 0 -1
    outer loop
      vertex -12.1244 -7 0
      vertex -6.25 -10.8253 0
      vertex -8.14705 -10.5756 0
    endloop
  endfacet
  facet normal 0 0 -1
    outer loop
      vertex -12.5 0 0
      vertex -6.25 -10.8253 0
      vertex -12.1244 -7 0
    endloop
  endfacet
  facet normal 0 0 -1
    outer loop
      vertex -12.1244 -7 0
      vertex -8.14705 -10.5756 0
      vertex -9.66506 -11.7404 0
    endloop
  endfacet
  facet normal 0 0 -1
    outer loop
      vertex -6.25 -10.8253 0
      vertex -12.5 0 0
      vertex -6.25 10.8253 0
    endloop
  endfacet
  facet normal 0 0 -1
    outer loop
      vertex -16.0622 -13.8205 0
      vertex -9.66506 -11.7404 0
      vertex -9.91481 -13.6374 0
    endloop
  endfacet
  facet normal 0 0 -1
    outer loop
      vertex -6.25 10.8253 0
      vertex -12.1244 7 0
      vertex -8.14705 10.5756 0
    endloop
  endfacet
  facet normal -0 0 -1
    outer loop
      vertex 0 -14 0
      vertex -5.33494 -14.2404 0
      vertex -5.08519 -12.3433 0
    endloop
  endfacet
  facet normal -0 0 -1
    outer loop
      vertex -3.93782 -20.8205 0
      vertex -6.66987 -21.5526 0
      vertex -6.85295 -15.4052 0
    endloop
  endfacet
  facet normal 0 0 -1
    outer loop
      vertex -3.93782 -20.8205 0
      vertex -6.85295 -15.4052 0
      vertex -5.33494 -14.2404 0
    endloop
  endfacet
  facet normal 0 0 -1
    outer loop
      vertex -6.66987 -21.5526 0
      vertex -8.75 -15.1554 0
      vertex -6.85295 -15.4052 0
    endloop
  endfacet
  facet normal 0 0 -1
    outer loop
      vertex -15.3301 -16.5526 0
      vertex -8.75 -15.1554 0
      vertex -6.66987 -21.5526 0
    endloop
  endfacet
  facet normal -0 0 -1
    outer loop
      vertex -8.14705 10.5756 0
      vertex -12.1244 7 0
      vertex -9.66506 11.7404 0
    endloop
  endfacet
  facet normal -0 0 -1
    outer loop
      vertex -8.75 -15.1554 0
      vertex -15.3301 -16.5526 0
      vertex -9.91481 -13.6374 0
    endloop
  endfacet
  facet normal 0 0 -1
    outer loop
      vertex -16.0622 -13.8205 0
      vertex -9.91481 -13.6374 0
      vertex -15.3301 -16.5526 0
    endloop
  endfacet
  facet normal -0 0 -1
    outer loop
      vertex -9.66506 -11.7404 0
      vertex -16.0622 -13.8205 0
      vertex -12.1244 -7 0
    endloop
  endfacet
  facet normal 0 -0 -1
    outer loop
      vertex -16.0622 -13.8205 0
      vertex -15.3301 -16.5526 0
      vertex -16.1919 -15.5512 0
    endloop
  endfacet
  facet normal 0 0 -1
    outer loop
      vertex 6.25 -10.8253 0
      vertex 12.1244 -7 0
      vertex 8.14705 -10.5756 0
    endloop
  endfacet
  facet normal 0 0 -1
    outer loop
      vertex 12.5 0 0
      vertex 9.66506 11.7404 0
      vertex 9.91481 13.6374 0
    endloop
  endfacet
  facet normal -0 0 -1
    outer loop
      vertex 12.1244 -7 0
      vertex 6.25 -10.8253 0
      vertex 12.5 0 0
    endloop
  endfacet
  facet normal 0 0 -1
    outer loop
      vertex 12.5 0 0
      vertex 8.14705 10.5756 0
      vertex 9.66506 11.7404 0
    endloop
  endfacet
  facet normal 0 0 -1
    outer loop
      vertex 6.25 10.8253 0
      vertex 12.5 0 0
      vertex 6.25 -10.8253 0
    endloop
  endfacet
  facet normal 0 0 -1
    outer loop
      vertex 12.5 0 0
      vertex 6.25 10.8253 0
      vertex 8.14705 10.5756 0
    endloop
  endfacet
  facet normal 0 0 -1
    outer loop
      vertex 0 -14 0
      vertex 6.25 -10.8253 0
      vertex 5.08519 -12.3433 0
    endloop
  endfacet
  facet normal 0 0 -1
    outer loop
      vertex 0 -14 0
      vertex -6.25 -10.8253 0
      vertex 6.25 -10.8253 0
    endloop
  endfacet
  facet normal 0 0 -1
    outer loop
      vertex 15.3301 -16.5526 0
      vertex 16.0622 -13.8205 0
      vertex 16.3078 -15.1186 0
    endloop
  endfacet
  facet normal 0 0 -1
    outer loop
      vertex 9.91481 -13.6374 0
      vertex 16.0622 -13.8205 0
      vertex 15.3301 -16.5526 0
    endloop
  endfacet
  facet normal 0 0 -1
    outer loop
      vertex 8.14705 -10.5756 0
      vertex 12.1244 -7 0
      vertex 9.66506 -11.7404 0
    endloop
  endfacet
  facet normal 0 0 -1
    outer loop
      vertex 9.66506 -11.7404 0
      vertex 16.0622 -13.8205 0
      vertex 9.91481 -13.6374 0
    endloop
  endfacet
  facet normal 0 0 -1
    outer loop
      vertex 15.3301 -16.5526 0
      vertex 8.75 -15.1554 0
      vertex 9.91481 -13.6374 0
    endloop
  endfacet
  facet normal 0 0 -1
    outer loop
      vertex 6.66987 -21.5526 0
      vertex 8.75 -15.1554 0
      vertex 15.3301 -16.5526 0
    endloop
  endfacet
  facet normal 0 0 -1
    outer loop
      vertex 8.75 -15.1554 0
      vertex 6.66987 -21.5526 0
      vertex 6.85295 -15.4052 0
    endloop
  endfacet
  facet normal 0 0 -1
    outer loop
      vertex 3.93782 -20.8205 0
      vertex 6.66987 -21.5526 0
      vertex 5.37179 -21.7982 0
    endloop
  endfacet
  facet normal 0 0 -1
    outer loop
      vertex 6.66987 -21.5526 0
      vertex 3.93782 -20.8205 0
      vertex 6.85295 -15.4052 0
    endloop
  endfacet
  facet normal -0 0 -1
    outer loop
      vertex 6.85295 -15.4052 0
      vertex 3.93782 -20.8205 0
      vertex 5.33494 -14.2404 0
    endloop
  endfacet
  facet normal 0 -0 -1
    outer loop
      vertex 0 14 0
      vertex 6.25 10.8253 0
      vertex -5.08519 12.3433 0
    endloop
  endfacet
  facet normal 0 0 -1
    outer loop
      vertex 0 -14 0
      vertex 5.33494 -14.2404 0
      vertex 3.93782 -20.8205 0
    endloop
  endfacet
  facet normal 0 0 -1
    outer loop
      vertex 5.33494 -14.2404 0
      vertex 0 -14 0
      vertex 5.08519 -12.3433 0
    endloop
  endfacet
  facet normal 0 0 -1
    outer loop
      vertex -6.25 -10.8253 0
      vertex 0 -14 0
      vertex -5.08519 -12.3433 0
    endloop
  endfacet
  facet normal 0 -0 -1
    outer loop
      vertex 3.93782 20.8205 0
      vertex 5.08519 12.3433 0
      vertex 0 14 0
    endloop
  endfacet
  facet normal 0 0 -1
    outer loop
      vertex 5.08519 12.3433 0
      vertex 3.93782 20.8205 0
      vertex 4.93919 21.6823 0
    endloop
  endfacet
  facet normal 0 0 -1
    outer loop
      vertex -5.33494 -14.2404 0
      vertex 0 -14 0
      vertex -3.93782 -20.8205 0
    endloop
  endfacet
  facet normal 0 0 -1
    outer loop
      vertex 6.25 -10.8253 0
      vertex -6.25 -10.8253 0
      vertex 6.25 10.8253 0
    endloop
  endfacet
  facet normal 0 0 -1
    outer loop
      vertex -6.66987 -21.5526 0
      vertex -3.93782 -20.8205 0
      vertex -4.93919 -21.6823 0
    endloop
  endfacet
  facet normal 0 0 -1
    outer loop
      vertex 6.25 10.8253 0
      vertex 0 14 0
      vertex 5.08519 12.3433 0
    endloop
  endfacet
  facet normal 0 0 -1
    outer loop
      vertex -5.33494 14.2404 0
      vertex 0 14 0
      vertex -5.08519 12.3433 0
    endloop
  endfacet
  facet normal 0 0 -1
    outer loop
      vertex 0 14 0
      vertex -5.33494 14.2404 0
      vertex -3.93782 20.8205 0
    endloop
  endfacet
  facet normal 0 0 -1
    outer loop
      vertex -6.85295 15.4052 0
      vertex -3.93782 20.8205 0
      vertex -5.33494 14.2404 0
    endloop
  endfacet
  facet normal 0 -0 -1
    outer loop
      vertex -6.66987 21.5526 0
      vertex -3.93782 20.8205 0
      vertex -6.85295 15.4052 0
    endloop
  endfacet
  facet normal 0 0 -1
    outer loop
      vertex -3.93782 20.8205 0
      vertex -6.66987 21.5526 0
      vertex -5.37179 21.7982 0
    endloop
  endfacet
  facet normal 0 0 -1
    outer loop
      vertex -8.75 15.1554 0
      vertex -6.66987 21.5526 0
      vertex -6.85295 15.4052 0
    endloop
  endfacet
  facet normal 0 0 -1
    outer loop
      vertex -15.3301 16.5526 0
      vertex -8.75 15.1554 0
      vertex -9.91481 13.6374 0
    endloop
  endfacet
  facet normal 0 0 -1
    outer loop
      vertex -16.0622 13.8205 0
      vertex -9.66506 11.7404 0
      vertex -12.1244 7 0
    endloop
  endfacet
  facet normal 0 0 -1
    outer loop
      vertex -8.75 15.1554 0
      vertex -15.3301 16.5526 0
      vertex -6.66987 21.5526 0
    endloop
  endfacet
  facet normal 0 0 -1
    outer loop
      vertex -9.66506 11.7404 0
      vertex -16.0622 13.8205 0
      vertex -9.91481 13.6374 0
    endloop
  endfacet
  facet normal 0 0 -1
    outer loop
      vertex -9.91481 13.6374 0
      vertex -16.0622 13.8205 0
      vertex -15.3301 16.5526 0
    endloop
  endfacet
  facet normal 0 0 -1
    outer loop
      vertex -15.3301 16.5526 0
      vertex -16.0622 13.8205 0
      vertex -16.3078 15.1186 0
    endloop
  endfacet
  facet normal 0 0 -1
    outer loop
      vertex 16.0622 13.8205 0
      vertex 15.3301 16.5526 0
      vertex 16.1919 15.5512 0
    endloop
  endfacet
  facet normal 0 0 -1
    outer loop
      vertex 9.91481 13.6374 0
      vertex 16.0622 13.8205 0
      vertex 12.1244 7 0
    endloop
  endfacet
  facet normal 0 0 -1
    outer loop
      vertex 12.5 0 0
      vertex 9.91481 13.6374 0
      vertex 12.1244 7 0
    endloop
  endfacet
  facet normal -0 0 -1
    outer loop
      vertex 16.0622 13.8205 0
      vertex 9.91481 13.6374 0
      vertex 15.3301 16.5526 0
    endloop
  endfacet
  facet normal 0 0 -1
    outer loop
      vertex 8.75 15.1554 0
      vertex 15.3301 16.5526 0
      vertex 9.91481 13.6374 0
    endloop
  endfacet
  facet normal 0 0 -1
    outer loop
      vertex 6.66987 21.5526 0
      vertex 8.75 15.1554 0
      vertex 6.85295 15.4052 0
    endloop
  endfacet
  facet normal 0 0 -1
    outer loop
      vertex 8.75 15.1554 0
      vertex 6.66987 21.5526 0
      vertex 15.3301 16.5526 0
    endloop
  endfacet
  facet normal 0 0 -1
    outer loop
      vertex 4.93919 21.6823 0
      vertex 6.85295 15.4052 0
      vertex 5.33494 14.2404 0
    endloop
  endfacet
  facet normal 0 0 -1
    outer loop
      vertex 6.85295 15.4052 0
      vertex 4.93919 21.6823 0
      vertex 6.66987 21.5526 0
    endloop
  endfacet
  facet normal 0 0 -1
    outer loop
      vertex 4.93919 21.6823 0
      vertex 5.33494 14.2404 0
      vertex 5.08519 12.3433 0
    endloop
  endfacet
  facet normal 0 0 -1
    outer loop
      vertex -13.2322 1.76777 0
      vertex -12.1244 7 0
      vertex -12.5 0 0
    endloop
  endfacet
  facet normal 0 0 -1
    outer loop
      vertex -15 2.5 0
      vertex -12.1244 7 0
      vertex -13.2322 1.76777 0
    endloop
  endfacet
  facet normal 0 0 -1
    outer loop
      vertex -20 7 0
      vertex -15 2.5 0
      vertex -16.7678 1.76777 0
    endloop
  endfacet
  facet normal 0 0 -1
    outer loop
      vertex -15 2.5 0
      vertex -20 7 0
      vertex -12.1244 7 0
    endloop
  endfacet
  facet normal 0 0 -1
    outer loop
      vertex -22 5 0
      vertex -16.7678 1.76777 0
      vertex -17.5 0 0
    endloop
  endfacet
  facet normal -0 0 -1
    outer loop
      vertex -16.7678 -1.76777 0
      vertex -22 -5 0
      vertex -17.5 0 0
    endloop
  endfacet
  facet normal 0 0 -1
    outer loop
      vertex -22 -5 0
      vertex -20 -7 0
      vertex -21.247 -6.56366 0
    endloop
  endfacet
  facet normal 0 0 -1
    outer loop
      vertex -22 5 0
      vertex -17.5 0 0
      vertex -22 -5 0
    endloop
  endfacet
  facet normal 0 0 -1
    outer loop
      vertex -16.7678 1.76777 0
      vertex -22 5 0
      vertex -20 7 0
    endloop
  endfacet
  facet normal 0 0 -1
    outer loop
      vertex -20 7 0
      vertex -22 5 0
      vertex -21.5637 6.24698 0
    endloop
  endfacet
  facet normal 0 0 -1
    outer loop
      vertex 20 -7 0
      vertex 22 -5 0
      vertex 21.5637 -6.24698 0
    endloop
  endfacet
  facet normal 0 0 -1
    outer loop
      vertex 22 -5 0
      vertex 17.5 0 0
      vertex 22 5 0
    endloop
  endfacet
  facet normal -0 0 -1
    outer loop
      vertex 22 -5 0
      vertex 20 -7 0
      vertex 16.7678 -1.76777 0
    endloop
  endfacet
  facet normal 0 0 -1
    outer loop
      vertex 16.7678 1.76777 0
      vertex 22 5 0
      vertex 17.5 0 0
    endloop
  endfacet
  facet normal 0 -0 -1
    outer loop
      vertex 20 7 0
      vertex 22 5 0
      vertex 16.7678 1.76777 0
    endloop
  endfacet
  facet normal 0 0 -1
    outer loop
      vertex 22 -5 0
      vertex 16.7678 -1.76777 0
      vertex 17.5 0 0
    endloop
  endfacet
  facet normal 0 0 -1
    outer loop
      vertex 20 -7 0
      vertex 15 -2.5 0
      vertex 16.7678 -1.76777 0
    endloop
  endfacet
  facet normal 0 0 -1
    outer loop
      vertex 12.1244 -7 0
      vertex 15 -2.5 0
      vertex 20 -7 0
    endloop
  endfacet
  facet normal -0 0 -1
    outer loop
      vertex 13.2322 -1.76777 0
      vertex 12.1244 -7 0
      vertex 12.5 0 0
    endloop
  endfacet
  facet normal -0 0 -1
    outer loop
      vertex 15 -2.5 0
      vertex 12.1244 -7 0
      vertex 13.2322 -1.76777 0
    endloop
  endfacet
  facet normal 0 0 -1
    outer loop
      vertex 22 5 0
      vertex 20 7 0
      vertex 21.247 6.56366 0
    endloop
  endfacet
  facet normal 0 0 -1
    outer loop
      vertex 15 2.5 0
      vertex 20 7 0
      vertex 16.7678 1.76777 0
    endloop
  endfacet
  facet normal 0 0 -1
    outer loop
      vertex 12.1244 7 0
      vertex 15 2.5 0
      vertex 13.2322 1.76777 0
    endloop
  endfacet
  facet normal 0 0 -1
    outer loop
      vertex 15 2.5 0
      vertex 12.1244 7 0
      vertex 20 7 0
    endloop
  endfacet
  facet normal 0 0 -1
    outer loop
      vertex 12.5 0 0
      vertex 12.1244 7 0
      vertex 13.2322 1.76777 0
    endloop
  endfacet
  facet normal 0 0 -1
    outer loop
      vertex 16.0622 -13.8205 0
      vertex 9.66506 -11.7404 0
      vertex 12.1244 -7 0
    endloop
  endfacet
  facet normal 0.433875 -0.900973 0
    outer loop
      vertex 20 -7 0
      vertex 21.5637 -6.24698 2
      vertex 20 -7 2
    endloop
  endfacet
  facet normal 0.433875 -0.900973 0
    outer loop
      vertex 21.5637 -6.24698 2
      vertex 20 -7 0
      vertex 21.5637 -6.24698 0
    endloop
  endfacet
  facet normal 0.900973 0.433875 0
    outer loop
      vertex 22 5 2
      vertex 21.247 6.56366 0
      vertex 21.247 6.56366 2
    endloop
  endfacet
  facet normal 0.900973 0.433875 0
    outer loop
      vertex 21.247 6.56366 0
      vertex 22 5 2
      vertex 22 5 0
    endloop
  endfacet
  facet normal -0.433875 0.900973 0
    outer loop
      vertex -20 7 0
      vertex -21.5637 6.24698 2
      vertex -20 7 2
    endloop
  endfacet
  facet normal -0.433875 0.900973 0
    outer loop
      vertex -21.5637 6.24698 2
      vertex -20 7 0
      vertex -21.5637 6.24698 0
    endloop
  endfacet
  facet normal 0 1 -0
    outer loop
      vertex 20 7 0
      vertex 12.1244 7 2
      vertex 20 7 2
    endloop
  endfacet
  facet normal 0 1 0
    outer loop
      vertex 12.1244 7 2
      vertex 20 7 0
      vertex 12.1244 7 0
    endloop
  endfacet
  facet normal 0 1 -0
    outer loop
      vertex -12.1244 7 0
      vertex -20 7 2
      vertex -12.1244 7 2
    endloop
  endfacet
  facet normal 0 1 0
    outer loop
      vertex -20 7 2
      vertex -12.1244 7 0
      vertex -20 7 0
    endloop
  endfacet
  facet normal -0.900973 -0.433875 0
    outer loop
      vertex -21.247 -6.56366 0
      vertex -22 -5 2
      vertex -22 -5 0
    endloop
  endfacet
  facet normal -0.900973 -0.433875 0
    outer loop
      vertex -22 -5 2
      vertex -21.247 -6.56366 0
      vertex -21.247 -6.56366 2
    endloop
  endfacet
  facet normal 0 0 1
    outer loop
      vertex -6.25 -10.8253 2
      vertex -12.5 0 2
      vertex -12.1244 -7 2
    endloop
  endfacet
  facet normal 0 0 1
    outer loop
      vertex -12.1244 7 2
      vertex -13.2322 1.76777 2
      vertex -12.5 0 2
    endloop
  endfacet
  facet normal 0 0 1
    outer loop
      vertex -12.1244 7 2
      vertex -15 2.5 2
      vertex -13.2322 1.76777 2
    endloop
  endfacet
  facet normal -0 0 1
    outer loop
      vertex -20 7 2
      vertex -15 2.5 2
      vertex -12.1244 7 2
    endloop
  endfacet
  facet normal -0 0 1
    outer loop
      vertex -22 5 2
      vertex -16.7678 1.76777 2
      vertex -20 7 2
    endloop
  endfacet
  facet normal 0 0 1
    outer loop
      vertex -15 2.5 2
      vertex -20 7 2
      vertex -16.7678 1.76777 2
    endloop
  endfacet
  facet normal 0 0 1
    outer loop
      vertex -6.25 -10.8253 2
      vertex 6.25 -10.8253 2
      vertex -6.25 10.8253 2
    endloop
  endfacet
  facet normal 0 0 1
    outer loop
      vertex 6.25 -10.8253 2
      vertex -6.25 -10.8253 2
      vertex -5.08519 -12.3433 2
    endloop
  endfacet
  facet normal 0 0 1
    outer loop
      vertex -12.1244 7 2
      vertex -6.25 10.8253 2
      vertex -8.14705 10.5756 2
    endloop
  endfacet
  facet normal 0 0 1
    outer loop
      vertex -12.5 0 2
      vertex -6.25 10.8253 2
      vertex -12.1244 7 2
    endloop
  endfacet
  facet normal 0 0 1
    outer loop
      vertex -12.1244 7 2
      vertex -8.14705 10.5756 2
      vertex -9.66506 11.7404 2
    endloop
  endfacet
  facet normal 0 0 1
    outer loop
      vertex -6.25 10.8253 2
      vertex -12.5 0 2
      vertex -6.25 -10.8253 2
    endloop
  endfacet
  facet normal 0 0 1
    outer loop
      vertex -16.0622 13.8205 2
      vertex -9.66506 11.7404 2
      vertex -9.91481 13.6374 2
    endloop
  endfacet
  facet normal 0 0 1
    outer loop
      vertex -6.25 -10.8253 2
      vertex -12.1244 -7 2
      vertex -8.14705 -10.5756 2
    endloop
  endfacet
  facet normal 0 0 1
    outer loop
      vertex 0 -14 2
      vertex -5.33494 -14.2404 2
      vertex -3.93782 -20.8205 2
    endloop
  endfacet
  facet normal -0 0 1
    outer loop
      vertex -6.85295 -15.4052 2
      vertex -3.93782 -20.8205 2
      vertex -5.33494 -14.2404 2
    endloop
  endfacet
  facet normal 0 -0 1
    outer loop
      vertex -6.66987 -21.5526 2
      vertex -3.93782 -20.8205 2
      vertex -6.85295 -15.4052 2
    endloop
  endfacet
  facet normal 0 0 1
    outer loop
      vertex -3.93782 -20.8205 2
      vertex -6.66987 -21.5526 2
      vertex -4.93919 -21.6823 2
    endloop
  endfacet
  facet normal 0 0 1
    outer loop
      vertex -8.75 -15.1554 2
      vertex -6.66987 -21.5526 2
      vertex -6.85295 -15.4052 2
    endloop
  endfacet
  facet normal 0 0 1
    outer loop
      vertex -15.3301 -16.5526 2
      vertex -8.75 -15.1554 2
      vertex -9.91481 -13.6374 2
    endloop
  endfacet
  facet normal 0 0 1
    outer loop
      vertex -16.0622 -13.8205 2
      vertex -9.66506 -11.7404 2
      vertex -12.1244 -7 2
    endloop
  endfacet
  facet normal 0 0 1
    outer loop
      vertex -8.75 -15.1554 2
      vertex -15.3301 -16.5526 2
      vertex -6.66987 -21.5526 2
    endloop
  endfacet
  facet normal 0 0 1
    outer loop
      vertex -9.66506 -11.7404 2
      vertex -16.0622 -13.8205 2
      vertex -9.91481 -13.6374 2
    endloop
  endfacet
  facet normal 0 0 1
    outer loop
      vertex -9.91481 -13.6374 2
      vertex -16.0622 -13.8205 2
      vertex -15.3301 -16.5526 2
    endloop
  endfacet
  facet normal 0 0 1
    outer loop
      vertex -15.3301 -16.5526 2
      vertex -16.0622 -13.8205 2
      vertex -16.1919 -15.5512 2
    endloop
  endfacet
  facet normal -0 0 1
    outer loop
      vertex -13.2322 -1.76777 2
      vertex -12.1244 -7 2
      vertex -12.5 0 2
    endloop
  endfacet
  facet normal -0 0 1
    outer loop
      vertex -15 -2.5 2
      vertex -12.1244 -7 2
      vertex -13.2322 -1.76777 2
    endloop
  endfacet
  facet normal 0 0 1
    outer loop
      vertex -20 -7 2
      vertex -15 -2.5 2
      vertex -16.7678 -1.76777 2
    endloop
  endfacet
  facet normal 0 0 1
    outer loop
      vertex -15 -2.5 2
      vertex -20 -7 2
      vertex -12.1244 -7 2
    endloop
  endfacet
  facet normal 0 0 1
    outer loop
      vertex -22 -5 2
      vertex -16.7678 -1.76777 2
      vertex -17.5 0 2
    endloop
  endfacet
  facet normal 0 0 1
    outer loop
      vertex -16.7678 1.76777 2
      vertex -22 5 2
      vertex -17.5 0 2
    endloop
  endfacet
  facet normal 0 0 1
    outer loop
      vertex -16.7678 -1.76777 2
      vertex -22 -5 2
      vertex -20 -7 2
    endloop
  endfacet
  facet normal 0 0 1
    outer loop
      vertex -22 5 2
      vertex -20 7 2
      vertex -21.5637 6.24698 2
    endloop
  endfacet
  facet normal 0 0 1
    outer loop
      vertex -17.5 0 2
      vertex -22 5 2
      vertex -22 -5 2
    endloop
  endfacet
  facet normal 0 0 1
    outer loop
      vertex -20 -7 2
      vertex -22 -5 2
      vertex -21.247 -6.56366 2
    endloop
  endfacet
  facet normal 0 0 1
    outer loop
      vertex 6.25 10.8253 2
      vertex 12.1244 7 2
      vertex 8.14705 10.5756 2
    endloop
  endfacet
  facet normal 0 0 1
    outer loop
      vertex 12.5 0 2
      vertex 9.66506 -11.7404 2
      vertex 9.91481 -13.6374 2
    endloop
  endfacet
  facet normal 0 0 1
    outer loop
      vertex 12.1244 7 2
      vertex 6.25 10.8253 2
      vertex 12.5 0 2
    endloop
  endfacet
  facet normal 0 0 1
    outer loop
      vertex 12.5 0 2
      vertex 8.14705 -10.5756 2
      vertex 9.66506 -11.7404 2
    endloop
  endfacet
  facet normal 0 0 1
    outer loop
      vertex 6.25 -10.8253 2
      vertex 12.5 0 2
      vertex 6.25 10.8253 2
    endloop
  endfacet
  facet normal 0 0 1
    outer loop
      vertex 12.5 0 2
      vertex 6.25 -10.8253 2
      vertex 8.14705 -10.5756 2
    endloop
  endfacet
  facet normal 0 0 1
    outer loop
      vertex 0 14 2
      vertex 6.25 10.8253 2
      vertex 5.08519 12.3433 2
    endloop
  endfacet
  facet normal 0 0 1
    outer loop
      vertex 0 14 2
      vertex -6.25 10.8253 2
      vertex 6.25 10.8253 2
    endloop
  endfacet
  facet normal 0 0 1
    outer loop
      vertex 15.3301 16.5526 2
      vertex 16.0622 13.8205 2
      vertex 16.1919 15.5512 2
    endloop
  endfacet
  facet normal 0 0 1
    outer loop
      vertex 9.91481 13.6374 2
      vertex 16.0622 13.8205 2
      vertex 15.3301 16.5526 2
    endloop
  endfacet
  facet normal -0 0 1
    outer loop
      vertex 8.14705 10.5756 2
      vertex 12.1244 7 2
      vertex 9.66506 11.7404 2
    endloop
  endfacet
  facet normal 0 0 1
    outer loop
      vertex 9.66506 11.7404 2
      vertex 16.0622 13.8205 2
      vertex 9.91481 13.6374 2
    endloop
  endfacet
  facet normal 0 0 1
    outer loop
      vertex 15.3301 16.5526 2
      vertex 8.75 15.1554 2
      vertex 9.91481 13.6374 2
    endloop
  endfacet
  facet normal 0 0 1
    outer loop
      vertex 6.66987 21.5526 2
      vertex 8.75 15.1554 2
      vertex 15.3301 16.5526 2
    endloop
  endfacet
  facet normal 0 0 1
    outer loop
      vertex 8.75 15.1554 2
      vertex 6.66987 21.5526 2
      vertex 6.85295 15.4052 2
    endloop
  endfacet
  facet normal -0 0 1
    outer loop
      vertex 3.93782 20.8205 2
      vertex 6.85295 15.4052 2
      vertex 6.66987 21.5526 2
    endloop
  endfacet
  facet normal 0 0 1
    outer loop
      vertex 0 14 2
      vertex 5.33494 14.2404 2
      vertex 3.93782 20.8205 2
    endloop
  endfacet
  facet normal 0 0 1
    outer loop
      vertex 6.85295 15.4052 2
      vertex 3.93782 20.8205 2
      vertex 5.33494 14.2404 2
    endloop
  endfacet
  facet normal 0 0 1
    outer loop
      vertex 3.93782 20.8205 2
      vertex 6.66987 21.5526 2
      vertex 4.93919 21.6823 2
    endloop
  endfacet
  facet normal 0 0 1
    outer loop
      vertex 16.0622 -13.8205 2
      vertex 15.3301 -16.5526 2
      vertex 16.3078 -15.1186 2
    endloop
  endfacet
  facet normal -0 0 1
    outer loop
      vertex 9.91481 -13.6374 2
      vertex 16.0622 -13.8205 2
      vertex 12.1244 -7 2
    endloop
  endfacet
  facet normal 0 0 1
    outer loop
      vertex 12.5 0 2
      vertex 9.91481 -13.6374 2
      vertex 12.1244 -7 2
    endloop
  endfacet
  facet normal 0 0 1
    outer loop
      vertex 16.0622 -13.8205 2
      vertex 9.91481 -13.6374 2
      vertex 15.3301 -16.5526 2
    endloop
  endfacet
  facet normal -0 0 1
    outer loop
      vertex 8.75 -15.1554 2
      vertex 15.3301 -16.5526 2
      vertex 9.91481 -13.6374 2
    endloop
  endfacet
  facet normal 0 0 1
    outer loop
      vertex 6.66987 -21.5526 2
      vertex 8.75 -15.1554 2
      vertex 6.85295 -15.4052 2
    endloop
  endfacet
  facet normal 0 0 1
    outer loop
      vertex 8.75 -15.1554 2
      vertex 6.66987 -21.5526 2
      vertex 15.3301 -16.5526 2
    endloop
  endfacet
  facet normal -0 0 1
    outer loop
      vertex 3.93782 -20.8205 2
      vertex 6.66987 -21.5526 2
      vertex 6.85295 -15.4052 2
    endloop
  endfacet
  facet normal 0 0 1
    outer loop
      vertex 3.93782 -20.8205 2
      vertex 6.85295 -15.4052 2
      vertex 5.33494 -14.2404 2
    endloop
  endfacet
  facet normal -0 0 1
    outer loop
      vertex 0 -14 2
      vertex 5.33494 -14.2404 2
      vertex 5.08519 -12.3433 2
    endloop
  endfacet
  facet normal 0 0 1
    outer loop
      vertex 5.33494 14.2404 2
      vertex 0 14 2
      vertex 5.08519 12.3433 2
    endloop
  endfacet
  facet normal 0 0 1
    outer loop
      vertex -6.25 10.8253 2
      vertex 0 14 2
      vertex -5.08519 12.3433 2
    endloop
  endfacet
  facet normal 0 0 1
    outer loop
      vertex 6.25 10.8253 2
      vertex -6.25 10.8253 2
      vertex 6.25 -10.8253 2
    endloop
  endfacet
  facet normal 0 0 1
    outer loop
      vertex 5.33494 -14.2404 2
      vertex 0 -14 2
      vertex 3.93782 -20.8205 2
    endloop
  endfacet
  facet normal 0 0 1
    outer loop
      vertex 6.66987 -21.5526 2
      vertex 3.93782 -20.8205 2
      vertex 5.37179 -21.7982 2
    endloop
  endfacet
  facet normal -0 0 1
    outer loop
      vertex -5.33494 14.2404 2
      vertex 0 14 2
      vertex -3.93782 20.8205 2
    endloop
  endfacet
  facet normal 0 0 1
    outer loop
      vertex 6.25 -10.8253 2
      vertex 0 -14 2
      vertex 5.08519 -12.3433 2
    endloop
  endfacet
  facet normal 0 0 1
    outer loop
      vertex 6.25 -10.8253 2
      vertex -5.08519 -12.3433 2
      vertex 0 -14 2
    endloop
  endfacet
  facet normal 0 0 1
    outer loop
      vertex -5.33494 -14.2404 2
      vertex 0 -14 2
      vertex -5.08519 -12.3433 2
    endloop
  endfacet
  facet normal 0 0 1
    outer loop
      vertex 0 14 2
      vertex -5.33494 14.2404 2
      vertex -5.08519 12.3433 2
    endloop
  endfacet
  facet normal -0 0 1
    outer loop
      vertex -6.66987 21.5526 2
      vertex -3.93782 20.8205 2
      vertex -5.37179 21.7982 2
    endloop
  endfacet
  facet normal 0 0 1
    outer loop
      vertex -3.93782 20.8205 2
      vertex -6.66987 21.5526 2
      vertex -6.85295 15.4052 2
    endloop
  endfacet
  facet normal 0 0 1
    outer loop
      vertex -3.93782 20.8205 2
      vertex -6.85295 15.4052 2
      vertex -5.33494 14.2404 2
    endloop
  endfacet
  facet normal 0 0 1
    outer loop
      vertex -6.66987 21.5526 2
      vertex -8.75 15.1554 2
      vertex -6.85295 15.4052 2
    endloop
  endfacet
  facet normal -0 0 1
    outer loop
      vertex -15.3301 16.5526 2
      vertex -8.75 15.1554 2
      vertex -6.66987 21.5526 2
    endloop
  endfacet
  facet normal 0 0 1
    outer loop
      vertex -8.14705 -10.5756 2
      vertex -12.1244 -7 2
      vertex -9.66506 -11.7404 2
    endloop
  endfacet
  facet normal 0 0 1
    outer loop
      vertex -8.75 15.1554 2
      vertex -15.3301 16.5526 2
      vertex -9.91481 13.6374 2
    endloop
  endfacet
  facet normal -0 0 1
    outer loop
      vertex -16.0622 13.8205 2
      vertex -9.91481 13.6374 2
      vertex -15.3301 16.5526 2
    endloop
  endfacet
  facet normal 0 0 1
    outer loop
      vertex -9.66506 11.7404 2
      vertex -16.0622 13.8205 2
      vertex -12.1244 7 2
    endloop
  endfacet
  facet normal 0 -0 1
    outer loop
      vertex -16.0622 13.8205 2
      vertex -15.3301 16.5526 2
      vertex -16.3078 15.1186 2
    endloop
  endfacet
  facet normal -0 0 1
    outer loop
      vertex 17.5 0 2
      vertex 22 -5 2
      vertex 22 5 2
    endloop
  endfacet
  facet normal 0 0 1
    outer loop
      vertex 20 7 2
      vertex 22 5 2
      vertex 21.247 6.56366 2
    endloop
  endfacet
  facet normal 0 0 1
    outer loop
      vertex 22 5 2
      vertex 20 7 2
      vertex 16.7678 1.76777 2
    endloop
  endfacet
  facet normal -0 0 1
    outer loop
      vertex 16.7678 -1.76777 2
      vertex 22 -5 2
      vertex 17.5 0 2
    endloop
  endfacet
  facet normal 0 -0 1
    outer loop
      vertex 20 -7 2
      vertex 22 -5 2
      vertex 16.7678 -1.76777 2
    endloop
  endfacet
  facet normal 0 0 1
    outer loop
      vertex 22 5 2
      vertex 16.7678 1.76777 2
      vertex 17.5 0 2
    endloop
  endfacet
  facet normal 0 0 1
    outer loop
      vertex 20 7 2
      vertex 15 2.5 2
      vertex 16.7678 1.76777 2
    endloop
  endfacet
  facet normal -0 0 1
    outer loop
      vertex 12.1244 7 2
      vertex 15 2.5 2
      vertex 20 7 2
    endloop
  endfacet
  facet normal 0 0 1
    outer loop
      vertex 13.2322 1.76777 2
      vertex 12.1244 7 2
      vertex 12.5 0 2
    endloop
  endfacet
  facet normal 0 0 1
    outer loop
      vertex 15 2.5 2
      vertex 12.1244 7 2
      vertex 13.2322 1.76777 2
    endloop
  endfacet
  facet normal 0 0 1
    outer loop
      vertex 22 -5 2
      vertex 20 -7 2
      vertex 21.5637 -6.24698 2
    endloop
  endfacet
  facet normal -0 0 1
    outer loop
      vertex 15 -2.5 2
      vertex 20 -7 2
      vertex 16.7678 -1.76777 2
    endloop
  endfacet
  facet normal 0 0 1
    outer loop
      vertex 12.1244 -7 2
      vertex 15 -2.5 2
      vertex 13.2322 -1.76777 2
    endloop
  endfacet
  facet normal 0 0 1
    outer loop
      vertex 15 -2.5 2
      vertex 12.1244 -7 2
      vertex 20 -7 2
    endloop
  endfacet
  facet normal 0 0 1
    outer loop
      vertex 12.5 0 2
      vertex 12.1244 -7 2
      vertex 13.2322 -1.76777 2
    endloop
  endfacet
  facet normal 0 0 1
    outer loop
      vertex 16.0622 13.8205 2
      vertex 9.66506 11.7404 2
      vertex 12.1244 7 2
    endloop
  endfacet
  facet normal -0.943892 0.330254 0
    outer loop
      vertex -22 5 0
      vertex -21.5637 6.24698 2
      vertex -21.5637 6.24698 0
    endloop
  endfacet
  facet normal -0.943892 0.330254 0
    outer loop
      vertex -21.5637 6.24698 2
      vertex -22 5 0
      vertex -22 5 2
    endloop
  endfacet
  facet normal -1 0 0
    outer loop
      vertex -22 -5 0
      vertex -22 5 2
      vertex -22 5 0
    endloop
  endfacet
  facet normal -1 -0 0
    outer loop
      vertex -22 5 2
      vertex -22 -5 0
      vertex -22 -5 2
    endloop
  endfacet
  facet normal 0 -1 0
    outer loop
      vertex -20 -7 0
      vertex -12.1244 -7 2
      vertex -20 -7 2
    endloop
  endfacet
  facet normal 0 -1 -0
    outer loop
      vertex -12.1244 -7 2
      vertex -20 -7 0
      vertex -12.1244 -7 0
    endloop
  endfacet
  facet normal 0 -1 0
    outer loop
      vertex 12.1244 -7 0
      vertex 20 -7 2
      vertex 12.1244 -7 2
    endloop
  endfacet
  facet normal 0 -1 -0
    outer loop
      vertex 20 -7 2
      vertex 12.1244 -7 0
      vertex 20 -7 0
    endloop
  endfacet
  facet normal 1 -0 0
    outer loop
      vertex 22 -5 2
      vertex 22 5 0
      vertex 22 5 2
    endloop
  endfacet
  facet normal 1 0 0
    outer loop
      vertex 22 5 0
      vertex 22 -5 2
      vertex 22 -5 0
    endloop
  endfacet
  facet normal 0.330276 0.943884 -0
    outer loop
      vertex 21.247 6.56366 0
      vertex 20 7 2
      vertex 21.247 6.56366 2
    endloop
  endfacet
  facet normal 0.330276 0.943884 0
    outer loop
      vertex 20 7 2
      vertex 21.247 6.56366 0
      vertex 20 7 0
    endloop
  endfacet
  facet normal -0.330276 -0.943884 0
    outer loop
      vertex -21.247 -6.56366 0
      vertex -20 -7 2
      vertex -21.247 -6.56366 2
    endloop
  endfacet
  facet normal -0.330276 -0.943884 -0
    outer loop
      vertex -20 -7 2
      vertex -21.247 -6.56366 0
      vertex -20 -7 0
    endloop
  endfacet
  facet normal 0.943892 -0.330254 0
    outer loop
      vertex 21.5637 -6.24698 2
      vertex 22 -5 0
      vertex 22 -5 2
    endloop
  endfacet
  facet normal 0.943892 -0.330254 0
    outer loop
      vertex 22 -5 0
      vertex 21.5637 -6.24698 2
      vertex 21.5637 -6.24698 0
    endloop
  endfacet
  facet normal 0.923886 0.382668 0
    outer loop
      vertex -16.7678 -1.76777 2
      vertex -17.5 0 0
      vertex -17.5 0 2
    endloop
  endfacet
  facet normal 0.923886 0.382668 0
    outer loop
      vertex -17.5 0 0
      vertex -16.7678 -1.76777 2
      vertex -16.7678 -1.76777 0
    endloop
  endfacet
  facet normal -0.382676 -0.923883 0
    outer loop
      vertex -15 2.5 0
      vertex -13.2322 1.76777 2
      vertex -15 2.5 2
    endloop
  endfacet
  facet normal -0.382676 -0.923883 -0
    outer loop
      vertex -13.2322 1.76777 2
      vertex -15 2.5 0
      vertex -13.2322 1.76777 0
    endloop
  endfacet
  facet normal -0.923886 -0.382668 0
    outer loop
      vertex -12.5 0 0
      vertex -13.2322 1.76777 2
      vertex -13.2322 1.76777 0
    endloop
  endfacet
  facet normal -0.923886 -0.382668 0
    outer loop
      vertex -13.2322 1.76777 2
      vertex -12.5 0 0
      vertex -12.5 0 2
    endloop
  endfacet
  facet normal 0.382676 -0.923883 0
    outer loop
      vertex -16.7678 1.76777 0
      vertex -15 2.5 2
      vertex -16.7678 1.76777 2
    endloop
  endfacet
  facet normal 0.382676 -0.923883 0
    outer loop
      vertex -15 2.5 2
      vertex -16.7678 1.76777 0
      vertex -15 2.5 0
    endloop
  endfacet
  facet normal -0.382676 0.923883 0
    outer loop
      vertex -13.2322 -1.76777 0
      vertex -15 -2.5 2
      vertex -13.2322 -1.76777 2
    endloop
  endfacet
  facet normal -0.382676 0.923883 0
    outer loop
      vertex -15 -2.5 2
      vertex -13.2322 -1.76777 0
      vertex -15 -2.5 0
    endloop
  endfacet
  facet normal 0.382676 0.923883 -0
    outer loop
      vertex -15 -2.5 0
      vertex -16.7678 -1.76777 2
      vertex -15 -2.5 2
    endloop
  endfacet
  facet normal 0.382676 0.923883 0
    outer loop
      vertex -16.7678 -1.76777 2
      vertex -15 -2.5 0
      vertex -16.7678 -1.76777 0
    endloop
  endfacet
  facet normal -0.923886 0.382668 0
    outer loop
      vertex -13.2322 -1.76777 0
      vertex -12.5 0 2
      vertex -12.5 0 0
    endloop
  endfacet
  facet normal -0.923886 0.382668 0
    outer loop
      vertex -12.5 0 2
      vertex -13.2322 -1.76777 0
      vertex -13.2322 -1.76777 2
    endloop
  endfacet
  facet normal 0.923886 -0.382668 0
    outer loop
      vertex -17.5 0 2
      vertex -16.7678 1.76777 0
      vertex -16.7678 1.76777 2
    endloop
  endfacet
  facet normal 0.923886 -0.382668 0
    outer loop
      vertex -16.7678 1.76777 0
      vertex -17.5 0 2
      vertex -17.5 0 0
    endloop
  endfacet
  facet normal -0.382676 -0.923883 0
    outer loop
      vertex 15 2.5 0
      vertex 16.7678 1.76777 2
      vertex 15 2.5 2
    endloop
  endfacet
  facet normal -0.382676 -0.923883 -0
    outer loop
      vertex 16.7678 1.76777 2
      vertex 15 2.5 0
      vertex 16.7678 1.76777 0
    endloop
  endfacet
  facet normal -0.923886 -0.382668 0
    outer loop
      vertex 17.5 0 0
      vertex 16.7678 1.76777 2
      vertex 16.7678 1.76777 0
    endloop
  endfacet
  facet normal -0.923886 -0.382668 0
    outer loop
      vertex 16.7678 1.76777 2
      vertex 17.5 0 0
      vertex 17.5 0 2
    endloop
  endfacet
  facet normal 0.382676 -0.923883 0
    outer loop
      vertex 13.2322 1.76777 0
      vertex 15 2.5 2
      vertex 13.2322 1.76777 2
    endloop
  endfacet
  facet normal 0.382676 -0.923883 0
    outer loop
      vertex 15 2.5 2
      vertex 13.2322 1.76777 0
      vertex 15 2.5 0
    endloop
  endfacet
  facet normal -0.923886 0.382668 0
    outer loop
      vertex 16.7678 -1.76777 0
      vertex 17.5 0 2
      vertex 17.5 0 0
    endloop
  endfacet
  facet normal -0.923886 0.382668 0
    outer loop
      vertex 17.5 0 2
      vertex 16.7678 -1.76777 0
      vertex 16.7678 -1.76777 2
    endloop
  endfacet
  facet normal 0.923886 -0.382668 0
    outer loop
      vertex 12.5 0 2
      vertex 13.2322 1.76777 0
      vertex 13.2322 1.76777 2
    endloop
  endfacet
  facet normal 0.923886 -0.382668 0
    outer loop
      vertex 13.2322 1.76777 0
      vertex 12.5 0 2
      vertex 12.5 0 0
    endloop
  endfacet
  facet normal 0.382676 0.923883 -0
    outer loop
      vertex 15 -2.5 0
      vertex 13.2322 -1.76777 2
      vertex 15 -2.5 2
    endloop
  endfacet
  facet normal 0.382676 0.923883 0
    outer loop
      vertex 13.2322 -1.76777 2
      vertex 15 -2.5 0
      vertex 13.2322 -1.76777 0
    endloop
  endfacet
  facet normal -0.382676 0.923883 0
    outer loop
      vertex 16.7678 -1.76777 0
      vertex 15 -2.5 2
      vertex 16.7678 -1.76777 2
    endloop
  endfacet
  facet normal -0.382676 0.923883 0
    outer loop
      vertex 15 -2.5 2
      vertex 16.7678 -1.76777 0
      vertex 15 -2.5 0
    endloop
  endfacet
  facet normal 0.923886 0.382668 0
    outer loop
      vertex 13.2322 -1.76777 2
      vertex 12.5 0 0
      vertex 12.5 0 2
    endloop
  endfacet
  facet normal 0.923886 0.382668 0
    outer loop
      vertex 12.5 0 0
      vertex 13.2322 -1.76777 2
      vertex 13.2322 -1.76777 0
    endloop
  endfacet
  facet normal 0.997204 -0.0747312 0
    outer loop
      vertex 16.0622 13.8205 2
      vertex 16.1919 15.5512 0
      vertex 16.1919 15.5512 2
    endloop
  endfacet
  facet normal 0.997204 -0.0747312 0
    outer loop
      vertex 16.1919 15.5512 0
      vertex 16.0622 13.8205 2
      vertex 16.0622 13.8205 0
    endloop
  endfacet
  facet normal 0.0747321 0.997204 -0
    outer loop
      vertex 6.66987 21.5526 0
      vertex 4.93919 21.6823 2
      vertex 6.66987 21.5526 2
    endloop
  endfacet
  facet normal 0.0747321 0.997204 0
    outer loop
      vertex 4.93919 21.6823 2
      vertex 6.66987 21.5526 0
      vertex 4.93919 21.6823 0
    endloop
  endfacet
  facet normal -0.997204 0.0747312 0
    outer loop
      vertex -16.1919 -15.5512 0
      vertex -16.0622 -13.8205 2
      vertex -16.0622 -13.8205 0
    endloop
  endfacet
  facet normal -0.997204 0.0747312 0
    outer loop
      vertex -16.0622 -13.8205 2
      vertex -16.1919 -15.5512 0
      vertex -16.1919 -15.5512 2
    endloop
  endfacet
  facet normal -0.866025 0.5 0
    outer loop
      vertex 0 14 0
      vertex 3.93782 20.8205 2
      vertex 3.93782 20.8205 0
    endloop
  endfacet
  facet normal -0.866025 0.5 0
    outer loop
      vertex 3.93782 20.8205 2
      vertex 0 14 0
      vertex 0 14 2
    endloop
  endfacet
  facet normal -0.866026 0.499998 0
    outer loop
      vertex -16.0622 -13.8205 0
      vertex -12.1244 -7 2
      vertex -12.1244 -7 0
    endloop
  endfacet
  facet normal -0.866026 0.499998 0
    outer loop
      vertex -12.1244 -7 2
      vertex -16.0622 -13.8205 0
      vertex -16.0622 -13.8205 2
    endloop
  endfacet
  facet normal -0.0747321 -0.997204 0
    outer loop
      vertex -6.66987 -21.5526 0
      vertex -4.93919 -21.6823 2
      vertex -6.66987 -21.5526 2
    endloop
  endfacet
  facet normal -0.0747321 -0.997204 -0
    outer loop
      vertex -4.93919 -21.6823 2
      vertex -6.66987 -21.5526 0
      vertex -4.93919 -21.6823 0
    endloop
  endfacet
  facet normal -0.757962 -0.652299 0
    outer loop
      vertex -15.3301 -16.5526 0
      vertex -16.1919 -15.5512 2
      vertex -16.1919 -15.5512 0
    endloop
  endfacet
  facet normal -0.757962 -0.652299 0
    outer loop
      vertex -16.1919 -15.5512 2
      vertex -15.3301 -16.5526 0
      vertex -15.3301 -16.5526 2
    endloop
  endfacet
  facet normal -0.500001 -0.866025 0
    outer loop
      vertex -15.3301 -16.5526 0
      vertex -6.66987 -21.5526 2
      vertex -15.3301 -16.5526 2
    endloop
  endfacet
  facet normal -0.500001 -0.866025 -0
    outer loop
      vertex -6.66987 -21.5526 2
      vertex -15.3301 -16.5526 0
      vertex -6.66987 -21.5526 0
    endloop
  endfacet
  facet normal 0.866025 -0.5 0
    outer loop
      vertex -3.93782 -20.8205 2
      vertex 0 -14 0
      vertex 0 -14 2
    endloop
  endfacet
  facet normal 0.866025 -0.5 0
    outer loop
      vertex 0 -14 0
      vertex -3.93782 -20.8205 2
      vertex -3.93782 -20.8205 0
    endloop
  endfacet
  facet normal 0.866026 -0.499998 0
    outer loop
      vertex 12.1244 7 2
      vertex 16.0622 13.8205 0
      vertex 16.0622 13.8205 2
    endloop
  endfacet
  facet normal 0.866026 -0.499998 0
    outer loop
      vertex 16.0622 13.8205 0
      vertex 12.1244 7 2
      vertex 12.1244 7 0
    endloop
  endfacet
  facet normal 0.500001 0.866025 -0
    outer loop
      vertex 15.3301 16.5526 0
      vertex 6.66987 21.5526 2
      vertex 15.3301 16.5526 2
    endloop
  endfacet
  facet normal 0.500001 0.866025 0
    outer loop
      vertex 6.66987 21.5526 2
      vertex 15.3301 16.5526 0
      vertex 6.66987 21.5526 0
    endloop
  endfacet
  facet normal -0.65231 0.757952 0
    outer loop
      vertex 4.93919 21.6823 0
      vertex 3.93782 20.8205 2
      vertex 4.93919 21.6823 2
    endloop
  endfacet
  facet normal -0.65231 0.757952 0
    outer loop
      vertex 3.93782 20.8205 2
      vertex 4.93919 21.6823 0
      vertex 3.93782 20.8205 0
    endloop
  endfacet
  facet normal 0.65231 -0.757952 0
    outer loop
      vertex -4.93919 -21.6823 0
      vertex -3.93782 -20.8205 2
      vertex -4.93919 -21.6823 2
    endloop
  endfacet
  facet normal 0.65231 -0.757952 0
    outer loop
      vertex -3.93782 -20.8205 2
      vertex -4.93919 -21.6823 0
      vertex -3.93782 -20.8205 0
    endloop
  endfacet
  facet normal 0.757962 0.652299 0
    outer loop
      vertex 16.1919 15.5512 2
      vertex 15.3301 16.5526 0
      vertex 15.3301 16.5526 2
    endloop
  endfacet
  facet normal 0.757962 0.652299 0
    outer loop
      vertex 15.3301 16.5526 0
      vertex 16.1919 15.5512 2
      vertex 16.1919 15.5512 0
    endloop
  endfacet
  facet normal 0.130551 0.991442 -0
    outer loop
      vertex -6.85295 -15.4052 0
      vertex -8.75 -15.1554 2
      vertex -6.85295 -15.4052 2
    endloop
  endfacet
  facet normal 0.130551 0.991442 0
    outer loop
      vertex -8.75 -15.1554 2
      vertex -6.85295 -15.4052 0
      vertex -8.75 -15.1554 0
    endloop
  endfacet
  facet normal 0.608758 -0.793356 0
    outer loop
      vertex -9.66506 -11.7404 0
      vertex -8.14705 -10.5756 2
      vertex -9.66506 -11.7404 2
    endloop
  endfacet
  facet normal 0.608758 -0.793356 0
    outer loop
      vertex -8.14705 -10.5756 2
      vertex -9.66506 -11.7404 0
      vertex -8.14705 -10.5756 0
    endloop
  endfacet
  facet normal -0.1305 -0.991448 0
    outer loop
      vertex -8.14705 -10.5756 0
      vertex -6.25 -10.8253 2
      vertex -8.14705 -10.5756 2
    endloop
  endfacet
  facet normal -0.1305 -0.991448 -0
    outer loop
      vertex -6.25 -10.8253 2
      vertex -8.14705 -10.5756 0
      vertex -6.25 -10.8253 0
    endloop
  endfacet
  facet normal 0.991445 -0.130529 0
    outer loop
      vertex -9.91481 -13.6374 2
      vertex -9.66506 -11.7404 0
      vertex -9.66506 -11.7404 2
    endloop
  endfacet
  facet normal 0.991445 -0.130529 0
    outer loop
      vertex -9.66506 -11.7404 0
      vertex -9.91481 -13.6374 2
      vertex -9.91481 -13.6374 0
    endloop
  endfacet
  facet normal -0.991445 0.130522 0
    outer loop
      vertex -5.33494 -14.2404 0
      vertex -5.08519 -12.3433 2
      vertex -5.08519 -12.3433 0
    endloop
  endfacet
  facet normal -0.991445 0.130522 0
    outer loop
      vertex -5.08519 -12.3433 2
      vertex -5.33494 -14.2404 0
      vertex -5.33494 -14.2404 2
    endloop
  endfacet
  facet normal -0.608758 0.793356 0
    outer loop
      vertex -5.33494 -14.2404 0
      vertex -6.85295 -15.4052 2
      vertex -5.33494 -14.2404 2
    endloop
  endfacet
  facet normal -0.608758 0.793356 0
    outer loop
      vertex -6.85295 -15.4052 2
      vertex -5.33494 -14.2404 0
      vertex -6.85295 -15.4052 0
    endloop
  endfacet
  facet normal -0.793351 -0.608764 0
    outer loop
      vertex -5.08519 -12.3433 0
      vertex -6.25 -10.8253 2
      vertex -6.25 -10.8253 0
    endloop
  endfacet
  facet normal -0.793351 -0.608764 0
    outer loop
      vertex -6.25 -10.8253 2
      vertex -5.08519 -12.3433 0
      vertex -5.08519 -12.3433 2
    endloop
  endfacet
  facet normal 0.793351 0.608764 0
    outer loop
      vertex -8.75 -15.1554 2
      vertex -9.91481 -13.6374 0
      vertex -9.91481 -13.6374 2
    endloop
  endfacet
  facet normal 0.793351 0.608764 0
    outer loop
      vertex -9.91481 -13.6374 0
      vertex -8.75 -15.1554 2
      vertex -8.75 -15.1554 0
    endloop
  endfacet
  facet normal 0.608758 -0.793356 0
    outer loop
      vertex 5.33494 14.2404 0
      vertex 6.85295 15.4052 2
      vertex 5.33494 14.2404 2
    endloop
  endfacet
  facet normal 0.608758 -0.793356 0
    outer loop
      vertex 6.85295 15.4052 2
      vertex 5.33494 14.2404 0
      vertex 6.85295 15.4052 0
    endloop
  endfacet
  facet normal -0.130551 -0.991442 0
    outer loop
      vertex 6.85295 15.4052 0
      vertex 8.75 15.1554 2
      vertex 6.85295 15.4052 2
    endloop
  endfacet
  facet normal -0.130551 -0.991442 -0
    outer loop
      vertex 8.75 15.1554 2
      vertex 6.85295 15.4052 0
      vertex 8.75 15.1554 0
    endloop
  endfacet
  facet normal 0.991445 -0.130522 0
    outer loop
      vertex 5.08519 12.3433 2
      vertex 5.33494 14.2404 0
      vertex 5.33494 14.2404 2
    endloop
  endfacet
  facet normal 0.991445 -0.130522 0
    outer loop
      vertex 5.33494 14.2404 0
      vertex 5.08519 12.3433 2
      vertex 5.08519 12.3433 0
    endloop
  endfacet
  facet normal -0.793351 -0.608764 0
    outer loop
      vertex 9.91481 13.6374 0
      vertex 8.75 15.1554 2
      vertex 8.75 15.1554 0
    endloop
  endfacet
  facet normal -0.793351 -0.608764 0
    outer loop
      vertex 8.75 15.1554 2
      vertex 9.91481 13.6374 0
      vertex 9.91481 13.6374 2
    endloop
  endfacet
  facet normal 0.793351 0.608764 0
    outer loop
      vertex 6.25 10.8253 2
      vertex 5.08519 12.3433 0
      vertex 5.08519 12.3433 2
    endloop
  endfacet
  facet normal 0.793351 0.608764 0
    outer loop
      vertex 5.08519 12.3433 0
      vertex 6.25 10.8253 2
      vertex 6.25 10.8253 0
    endloop
  endfacet
  facet normal -0.608758 0.793356 0
    outer loop
      vertex 9.66506 11.7404 0
      vertex 8.14705 10.5756 2
      vertex 9.66506 11.7404 2
    endloop
  endfacet
  facet normal -0.608758 0.793356 0
    outer loop
      vertex 8.14705 10.5756 2
      vertex 9.66506 11.7404 0
      vertex 8.14705 10.5756 0
    endloop
  endfacet
  facet normal -0.991445 0.130529 0
    outer loop
      vertex 9.66506 11.7404 0
      vertex 9.91481 13.6374 2
      vertex 9.91481 13.6374 0
    endloop
  endfacet
  facet normal -0.991445 0.130529 0
    outer loop
      vertex 9.91481 13.6374 2
      vertex 9.66506 11.7404 0
      vertex 9.66506 11.7404 2
    endloop
  endfacet
  facet normal 0.1305 0.991448 -0
    outer loop
      vertex 8.14705 10.5756 0
      vertex 6.25 10.8253 2
      vertex 8.14705 10.5756 2
    endloop
  endfacet
  facet normal 0.1305 0.991448 0
    outer loop
      vertex 6.25 10.8253 2
      vertex 8.14705 10.5756 0
      vertex 6.25 10.8253 0
    endloop
  endfacet
  facet normal 0.563334 0.826229 -0
    outer loop
      vertex -3.93782 20.8205 0
      vertex -5.37179 21.7982 2
      vertex -3.93782 20.8205 2
    endloop
  endfacet
  facet normal 0.563334 0.826229 0
    outer loop
      vertex -5.37179 21.7982 2
      vertex -3.93782 20.8205 0
      vertex -5.37179 21.7982 0
    endloop
  endfacet
  facet normal -0.826235 0.563326 0
    outer loop
      vertex -16.3078 15.1186 0
      vertex -15.3301 16.5526 2
      vertex -15.3301 16.5526 0
    endloop
  endfacet
  facet normal -0.826235 0.563326 0
    outer loop
      vertex -15.3301 16.5526 2
      vertex -16.3078 15.1186 0
      vertex -16.3078 15.1186 2
    endloop
  endfacet
  facet normal -0.563334 -0.826229 0
    outer loop
      vertex 3.93782 -20.8205 0
      vertex 5.37179 -21.7982 2
      vertex 3.93782 -20.8205 2
    endloop
  endfacet
  facet normal -0.563334 -0.826229 -0
    outer loop
      vertex 5.37179 -21.7982 2
      vertex 3.93782 -20.8205 0
      vertex 5.37179 -21.7982 0
    endloop
  endfacet
  facet normal -0.866026 -0.499998 0
    outer loop
      vertex -12.1244 7 0
      vertex -16.0622 13.8205 2
      vertex -16.0622 13.8205 0
    endloop
  endfacet
  facet normal -0.866026 -0.499998 0
    outer loop
      vertex -16.0622 13.8205 2
      vertex -12.1244 7 0
      vertex -12.1244 7 2
    endloop
  endfacet
  facet normal -0.866025 -0.5 0
    outer loop
      vertex 3.93782 -20.8205 0
      vertex 0 -14 2
      vertex 0 -14 0
    endloop
  endfacet
  facet normal -0.866025 -0.5 0
    outer loop
      vertex 0 -14 2
      vertex 3.93782 -20.8205 0
      vertex 3.93782 -20.8205 2
    endloop
  endfacet
  facet normal 0.826235 -0.563326 0
    outer loop
      vertex 15.3301 -16.5526 2
      vertex 16.3078 -15.1186 0
      vertex 16.3078 -15.1186 2
    endloop
  endfacet
  facet normal 0.826235 -0.563326 0
    outer loop
      vertex 16.3078 -15.1186 0
      vertex 15.3301 -16.5526 2
      vertex 15.3301 -16.5526 0
    endloop
  endfacet
  facet normal 0.185904 -0.982568 0
    outer loop
      vertex 5.37179 -21.7982 0
      vertex 6.66987 -21.5526 2
      vertex 5.37179 -21.7982 2
    endloop
  endfacet
  facet normal 0.185904 -0.982568 0
    outer loop
      vertex 6.66987 -21.5526 2
      vertex 5.37179 -21.7982 0
      vertex 6.66987 -21.5526 0
    endloop
  endfacet
  facet normal 0.500001 -0.866025 0
    outer loop
      vertex 6.66987 -21.5526 0
      vertex 15.3301 -16.5526 2
      vertex 6.66987 -21.5526 2
    endloop
  endfacet
  facet normal 0.500001 -0.866025 0
    outer loop
      vertex 15.3301 -16.5526 2
      vertex 6.66987 -21.5526 0
      vertex 15.3301 -16.5526 0
    endloop
  endfacet
  facet normal 0.866026 0.499998 0
    outer loop
      vertex 16.0622 -13.8205 2
      vertex 12.1244 -7 0
      vertex 12.1244 -7 2
    endloop
  endfacet
  facet normal 0.866026 0.499998 0
    outer loop
      vertex 12.1244 -7 0
      vertex 16.0622 -13.8205 2
      vertex 16.0622 -13.8205 0
    endloop
  endfacet
  facet normal 0.866025 0.5 0
    outer loop
      vertex 0 14 2
      vertex -3.93782 20.8205 0
      vertex -3.93782 20.8205 2
    endloop
  endfacet
  facet normal 0.866025 0.5 0
    outer loop
      vertex -3.93782 20.8205 0
      vertex 0 14 2
      vertex 0 14 0
    endloop
  endfacet
  facet normal -0.500001 0.866025 0
    outer loop
      vertex -6.66987 21.5526 0
      vertex -15.3301 16.5526 2
      vertex -6.66987 21.5526 2
    endloop
  endfacet
  facet normal -0.500001 0.866025 0
    outer loop
      vertex -15.3301 16.5526 2
      vertex -6.66987 21.5526 0
      vertex -15.3301 16.5526 0
    endloop
  endfacet
  facet normal -0.982568 -0.185902 0
    outer loop
      vertex -16.0622 13.8205 0
      vertex -16.3078 15.1186 2
      vertex -16.3078 15.1186 0
    endloop
  endfacet
  facet normal -0.982568 -0.185902 0
    outer loop
      vertex -16.3078 15.1186 2
      vertex -16.0622 13.8205 0
      vertex -16.0622 13.8205 2
    endloop
  endfacet
  facet normal 0.982568 0.185902 0
    outer loop
      vertex 16.3078 -15.1186 2
      vertex 16.0622 -13.8205 0
      vertex 16.0622 -13.8205 2
    endloop
  endfacet
  facet normal 0.982568 0.185902 0
    outer loop
      vertex 16.0622 -13.8205 0
      vertex 16.3078 -15.1186 2
      vertex 16.3078 -15.1186 0
    endloop
  endfacet
  facet normal -0.185904 0.982568 0
    outer loop
      vertex -5.37179 21.7982 0
      vertex -6.66987 21.5526 2
      vertex -5.37179 21.7982 2
    endloop
  endfacet
  facet normal -0.185904 0.982568 0
    outer loop
      vertex -6.66987 21.5526 2
      vertex -5.37179 21.7982 0
      vertex -6.66987 21.5526 0
    endloop
  endfacet
  facet normal -0.793351 0.608764 0
    outer loop
      vertex 8.75 -15.1554 0
      vertex 9.91481 -13.6374 2
      vertex 9.91481 -13.6374 0
    endloop
  endfacet
  facet normal -0.793351 0.608764 0
    outer loop
      vertex 9.91481 -13.6374 2
      vertex 8.75 -15.1554 0
      vertex 8.75 -15.1554 2
    endloop
  endfacet
  facet normal 0.991445 0.130522 0
    outer loop
      vertex 5.33494 -14.2404 2
      vertex 5.08519 -12.3433 0
      vertex 5.08519 -12.3433 2
    endloop
  endfacet
  facet normal 0.991445 0.130522 0
    outer loop
      vertex 5.08519 -12.3433 0
      vertex 5.33494 -14.2404 2
      vertex 5.33494 -14.2404 0
    endloop
  endfacet
  facet normal 0.793351 -0.608764 0
    outer loop
      vertex 5.08519 -12.3433 2
      vertex 6.25 -10.8253 0
      vertex 6.25 -10.8253 2
    endloop
  endfacet
  facet normal 0.793351 -0.608764 0
    outer loop
      vertex 6.25 -10.8253 0
      vertex 5.08519 -12.3433 2
      vertex 5.08519 -12.3433 0
    endloop
  endfacet
  facet normal 0.608758 0.793356 -0
    outer loop
      vertex 6.85295 -15.4052 0
      vertex 5.33494 -14.2404 2
      vertex 6.85295 -15.4052 2
    endloop
  endfacet
  facet normal 0.608758 0.793356 0
    outer loop
      vertex 5.33494 -14.2404 2
      vertex 6.85295 -15.4052 0
      vertex 5.33494 -14.2404 0
    endloop
  endfacet
  facet normal -0.608758 -0.793356 0
    outer loop
      vertex 8.14705 -10.5756 0
      vertex 9.66506 -11.7404 2
      vertex 8.14705 -10.5756 2
    endloop
  endfacet
  facet normal -0.608758 -0.793356 -0
    outer loop
      vertex 9.66506 -11.7404 2
      vertex 8.14705 -10.5756 0
      vertex 9.66506 -11.7404 0
    endloop
  endfacet
  facet normal -0.991445 -0.130529 0
    outer loop
      vertex 9.91481 -13.6374 0
      vertex 9.66506 -11.7404 2
      vertex 9.66506 -11.7404 0
    endloop
  endfacet
  facet normal -0.991445 -0.130529 0
    outer loop
      vertex 9.66506 -11.7404 2
      vertex 9.91481 -13.6374 0
      vertex 9.91481 -13.6374 2
    endloop
  endfacet
  facet normal 0.1305 -0.991448 0
    outer loop
      vertex 6.25 -10.8253 0
      vertex 8.14705 -10.5756 2
      vertex 6.25 -10.8253 2
    endloop
  endfacet
  facet normal 0.1305 -0.991448 0
    outer loop
      vertex 8.14705 -10.5756 2
      vertex 6.25 -10.8253 0
      vertex 8.14705 -10.5756 0
    endloop
  endfacet
  facet normal -0.130551 0.991442 0
    outer loop
      vertex 8.75 -15.1554 0
      vertex 6.85295 -15.4052 2
      vertex 8.75 -15.1554 2
    endloop
  endfacet
  facet normal -0.130551 0.991442 0
    outer loop
      vertex 6.85295 -15.4052 2
      vertex 8.75 -15.1554 0
      vertex 6.85295 -15.4052 0
    endloop
  endfacet
  facet normal 0.991445 0.130529 0
    outer loop
      vertex -9.66506 11.7404 2
      vertex -9.91481 13.6374 0
      vertex -9.91481 13.6374 2
    endloop
  endfacet
  facet normal 0.991445 0.130529 0
    outer loop
      vertex -9.91481 13.6374 0
      vertex -9.66506 11.7404 2
      vertex -9.66506 11.7404 0
    endloop
  endfacet
  facet normal 0.793351 -0.608764 0
    outer loop
      vertex -9.91481 13.6374 2
      vertex -8.75 15.1554 0
      vertex -8.75 15.1554 2
    endloop
  endfacet
  facet normal 0.793351 -0.608764 0
    outer loop
      vertex -8.75 15.1554 0
      vertex -9.91481 13.6374 2
      vertex -9.91481 13.6374 0
    endloop
  endfacet
  facet normal 0.608758 0.793356 -0
    outer loop
      vertex -8.14705 10.5756 0
      vertex -9.66506 11.7404 2
      vertex -8.14705 10.5756 2
    endloop
  endfacet
  facet normal 0.608758 0.793356 0
    outer loop
      vertex -9.66506 11.7404 2
      vertex -8.14705 10.5756 0
      vertex -9.66506 11.7404 0
    endloop
  endfacet
  facet normal 0.130551 -0.991442 0
    outer loop
      vertex -8.75 15.1554 0
      vertex -6.85295 15.4052 2
      vertex -8.75 15.1554 2
    endloop
  endfacet
  facet normal 0.130551 -0.991442 0
    outer loop
      vertex -6.85295 15.4052 2
      vertex -8.75 15.1554 0
      vertex -6.85295 15.4052 0
    endloop
  endfacet
  facet normal -0.1305 0.991448 0
    outer loop
      vertex -6.25 10.8253 0
      vertex -8.14705 10.5756 2
      vertex -6.25 10.8253 2
    endloop
  endfacet
  facet normal -0.1305 0.991448 0
    outer loop
      vertex -8.14705 10.5756 2
      vertex -6.25 10.8253 0
      vertex -8.14705 10.5756 0
    endloop
  endfacet
  facet normal -0.991445 -0.130522 0
    outer loop
      vertex -5.08519 12.3433 0
      vertex -5.33494 14.2404 2
      vertex -5.33494 14.2404 0
    endloop
  endfacet
  facet normal -0.991445 -0.130522 0
    outer loop
      vertex -5.33494 14.2404 2
      vertex -5.08519 12.3433 0
      vertex -5.08519 12.3433 2
    endloop
  endfacet
  facet normal -0.608758 -0.793356 0
    outer loop
      vertex -6.85295 15.4052 0
      vertex -5.33494 14.2404 2
      vertex -6.85295 15.4052 2
    endloop
  endfacet
  facet normal -0.608758 -0.793356 -0
    outer loop
      vertex -5.33494 14.2404 2
      vertex -6.85295 15.4052 0
      vertex -5.33494 14.2404 0
    endloop
  endfacet
  facet normal -0.793351 0.608764 0
    outer loop
      vertex -6.25 10.8253 0
      vertex -5.08519 12.3433 2
      vertex -5.08519 12.3433 0
    endloop
  endfacet
  facet normal -0.793351 0.608764 0
    outer loop
      vertex -5.08519 12.3433 2
      vertex -6.25 10.8253 0
      vertex -6.25 10.8253 2
    endloop
  endfacet
endsolid OpenSCAD_Model
