solid OpenSCAD_Model
  facet normal 1 -0 0
    outer loop
      vertex 30 -20 15
      vertex 30 20 -15
      vertex 30 20 15
    endloop
  endfacet
  facet normal 1 0 0
    outer loop
      vertex 30 20 -15
      vertex 30 -20 15
      vertex 30 -20 -15
    endloop
  endfacet
  facet normal -0 0 1
    outer loop
      vertex -30 20 15
      vertex 30 -20 15
      vertex 30 20 15
    endloop
  endfacet
  facet normal 0 0 1
    outer loop
      vertex 30 -20 15
      vertex -30 20 15
      vertex -30 -20 15
    endloop
  endfacet
  facet normal 0 0 -1
    outer loop
      vertex 30 -20 -15
      vertex 10 -10 -15
      vertex 30 20 -15
    endloop
  endfacet
  facet normal 0 0 -1
    outer loop
      vertex 30 -20 -15
      vertex -10 -10 -15
      vertex 10 -10 -15
    endloop
  endfacet
  facet normal -0 0 -1
    outer loop
      vertex -10 -10 -15
      vertex -30 -20 -15
      vertex -10 10 -15
    endloop
  endfacet
  facet normal 0 0 -1
    outer loop
      vertex -30 -20 -15
      vertex -10 -10 -15
      vertex 30 -20 -15
    endloop
  endfacet
  facet normal 0 0 -1
    outer loop
      vertex 10 10 -15
      vertex 30 20 -15
      vertex 10 -10 -15
    endloop
  endfacet
  facet normal 0 0 -1
    outer loop
      vertex -10 10 -15
      vertex 30 20 -15
      vertex 10 10 -15
    endloop
  endfacet
  facet normal 0 0 -1
    outer loop
      vertex -10 10 -15
      vertex -30 20 -15
      vertex 30 20 -15
    endloop
  endfacet
  facet normal 0 0 -1
    outer loop
      vertex -30 20 -15
      vertex -10 10 -15
      vertex -30 -20 -15
    endloop
  endfacet
  facet normal -1 0 0
    outer loop
      vertex -30 -20 -15
      vertex -30 20 15
      vertex -30 20 -15
    endloop
  endfacet
  facet normal -1 -0 0
    outer loop
      vertex -30 20 15
      vertex -30 -20 -15
      vertex -30 -20 15
    endloop
  endfacet
  facet normal 0 1 -0
    outer loop
      vertex 30 20 -15
      vertex -30 20 15
      vertex 30 20 15
    endloop
  endfacet
  facet normal 0 1 0
    outer loop
      vertex -30 20 15
      vertex 30 20 -15
      vertex -30 20 -15
    endloop
  endfacet
  facet normal 0 -1 0
    outer loop
      vertex -30 -20 -15
      vertex 30 -20 15
      vertex -30 -20 15
    endloop
  endfacet
  facet normal 0 -1 -0
    outer loop
      vertex 30 -20 15
      vertex -30 -20 -15
      vertex 30 -20 -15
    endloop
  endfacet
  facet normal -1 0 0
    outer loop
      vertex 10 -10 -15
      vertex 10 10 0
      vertex 10 10 -15
    endloop
  endfacet
  facet normal -1 -0 0
    outer loop
      vertex 10 10 0
      vertex 10 -10 -15
      vertex 10 -10 0
    endloop
  endfacet
  facet normal 0 0 -1
    outer loop
      vertex -10 -10 0
      vertex 10 10 0
      vertex 10 -10 0
    endloop
  endfacet
  facet normal -0 0 -1
    outer loop
      vertex 10 10 0
      vertex -10 -10 0
      vertex -10 10 0
    endloop
  endfacet
  facet normal 1 -0 0
    outer loop
      vertex -10 -10 0
      vertex -10 10 -15
      vertex -10 10 0
    endloop
  endfacet
  facet normal 1 0 0
    outer loop
      vertex -10 10 -15
      vertex -10 -10 0
      vertex -10 -10 -15
    endloop
  endfacet
  facet normal 0 -1 0
    outer loop
      vertex -10 10 -15
      vertex 10 10 0
      vertex -10 10 0
    endloop
  endfacet
  facet normal 0 -1 -0
    outer loop
      vertex 10 10 0
      vertex -10 10 -15
      vertex 10 10 -15
    endloop
  endfacet
  facet normal 0 1 -0
    outer loop
      vertex 10 -10 -15
      vertex -10 -10 0
      vertex 10 -10 0
    endloop
  endfacet
  facet normal 0 1 0
    outer loop
      vertex -10 -10 0
      vertex 10 -10 -15
      vertex -10 -10 -15
    endloop
  endfacet
endsolid OpenSCAD_Model
