solid OpenSCAD_Model
  facet normal 1 -0 0
    outer loop
      vertex 25 -15 13
      vertex 25 15 11.5
      vertex 25 15 13
    endloop
  endfacet
  facet normal 1 0 0
    outer loop
      vertex 25 15 11.5
      vertex 25 -15 13
      vertex 25 -15 11.5
    endloop
  endfacet
  facet normal 0 0 -1
    outer loop
      vertex -25 -15 11.5
      vertex 25 15 11.5
      vertex 25 -15 11.5
    endloop
  endfacet
  facet normal -0 0 -1
    outer loop
      vertex 25 15 11.5
      vertex -25 -15 11.5
      vertex -25 15 11.5
    endloop
  endfacet
  facet normal -1 0 0
    outer loop
      vertex -25 -15 11.5
      vertex -25 15 13
      vertex -25 15 11.5
    endloop
  endfacet
  facet normal -1 -0 0
    outer loop
      vertex -25 15 13
      vertex -25 -15 11.5
      vertex -25 -15 13
    endloop
  endfacet
  facet normal 0 1 -0
    outer loop
      vertex 25 15 11.5
      vertex -25 15 13
      vertex 25 15 13
    endloop
  endfacet
  facet normal 0 1 0
    outer loop
      vertex -25 15 13
      vertex 25 15 11.5
      vertex -25 15 11.5
    endloop
  endfacet
  facet normal 0 -1 0
    outer loop
      vertex -25 -15 11.5
      vertex 25 -15 13
      vertex -25 -15 13
    endloop
  endfacet
  facet normal 0 -1 -0
    outer loop
      vertex 25 -15 13
      vertex -25 -15 11.5
      vertex 25 -15 11.5
    endloop
  endfacet
  facet normal -0 0 1
    outer loop
      vertex -25 15 13
      vertex 25 -15 13
      vertex 25 15 13
    endloop
  endfacet
  facet normal 0 0 1
    outer loop
      vertex 25 -15 13
      vertex -25 15 13
      vertex -25 -15 13
    endloop
  endfacet
  facet normal 1 -0 0
    outer loop
      vertex 25 -15 -5
      vertex 25 15 -6.5
      vertex 25 15 -5
    endloop
  endfacet
  facet normal 1 0 0
    outer loop
      vertex 25 15 -6.5
      vertex 25 -15 -5
      vertex 25 -15 -6.5
    endloop
  endfacet
  facet normal 0 0 -1
    outer loop
      vertex -25 -15 -6.5
      vertex 25 15 -6.5
      vertex 25 -15 -6.5
    endloop
  endfacet
  facet normal -0 0 -1
    outer loop
      vertex 25 15 -6.5
      vertex -25 -15 -6.5
      vertex -25 15 -6.5
    endloop
  endfacet
  facet normal -1 0 0
    outer loop
      vertex -25 -15 -6.5
      vertex -25 15 -5
      vertex -25 15 -6.5
    endloop
  endfacet
  facet normal -1 -0 0
    outer loop
      vertex -25 15 -5
      vertex -25 -15 -6.5
      vertex -25 -15 -5
    endloop
  endfacet
  facet normal 0 1 -0
    outer loop
      vertex 25 15 -6.5
      vertex -25 15 -5
      vertex 25 15 -5
    endloop
  endfacet
  facet normal 0 1 0
    outer loop
      vertex -25 15 -5
      vertex 25 15 -6.5
      vertex -25 15 -6.5
    endloop
  endfacet
  facet normal 0 -1 0
    outer loop
      vertex -25 -15 -6.5
      vertex 25 -15 -5
      vertex -25 -15 -5
    endloop
  endfacet
  facet normal 0 -1 -0
    outer loop
      vertex 25 -15 -5
      vertex -25 -15 -6.5
      vertex 25 -15 -6.5
    endloop
  endfacet
  facet normal -0 0 1
    outer loop
      vertex -25 15 -5
      vertex 25 -15 -5
      vertex 25 15 -5
    endloop
  endfacet
  facet normal 0 0 1
    outer loop
      vertex 25 -15 -5
      vertex -25 15 -5
      vertex -25 -15 -5
    endloop
  endfacet
  facet normal 1 -0 0
    outer loop
      vertex 25 -15 10.5
      vertex 25 15 0.5
      vertex 25 15 10.5
    endloop
  endfacet
  facet normal 1 0 0
    outer loop
      vertex 25 15 0.5
      vertex 25 -15 10.5
      vertex 25 -15 0.5
    endloop
  endfacet
  facet normal -0 0 1
    outer loop
      vertex -25 15 10.5
      vertex 25 -15 10.5
      vertex 25 15 10.5
    endloop
  endfacet
  facet normal 0 0 1
    outer loop
      vertex 25 -15 10.5
      vertex -25 15 10.5
      vertex -25 -15 10.5
    endloop
  endfacet
  facet normal -1 0 0
    outer loop
      vertex -25 -15 0.5
      vertex -25 15 10.5
      vertex -25 15 0.5
    endloop
  endfacet
  facet normal -1 -0 0
    outer loop
      vertex -25 15 10.5
      vertex -25 -15 0.5
      vertex -25 -15 10.5
    endloop
  endfacet
  facet normal 0 1 -0
    outer loop
      vertex 25 15 0.5
      vertex -25 15 10.5
      vertex 25 15 10.5
    endloop
  endfacet
  facet normal 0 1 0
    outer loop
      vertex -25 15 10.5
      vertex 25 15 0.5
      vertex -25 15 0.5
    endloop
  endfacet
  facet normal 0 -1 0
    outer loop
      vertex -25 -15 0.5
      vertex 25 -15 10.5
      vertex -25 -15 10.5
    endloop
  endfacet
  facet normal 0 -1 -0
    outer loop
      vertex 25 -15 10.5
      vertex -25 -15 0.5
      vertex 25 -15 0.5
    endloop
  endfacet
  facet normal 0 0 -1
    outer loop
      vertex -25 -15 0.5
      vertex 25 15 0.5
      vertex 25 -15 0.5
    endloop
  endfacet
  facet normal -0 0 -1
    outer loop
      vertex 25 15 0.5
      vertex -25 -15 0.5
      vertex -25 15 0.5
    endloop
  endfacet
  facet normal 1 -0 0
    outer loop
      vertex 25 -15 -10.5
      vertex 25 15 -20.5
      vertex 25 15 -10.5
    endloop
  endfacet
  facet normal 1 0 0
    outer loop
      vertex 25 15 -20.5
      vertex 25 -15 -10.5
      vertex 25 -15 -20.5
    endloop
  endfacet
  facet normal -0 0 1
    outer loop
      vertex -25 15 -10.5
      vertex 25 -15 -10.5
      vertex 25 15 -10.5
    endloop
  endfacet
  facet normal 0 0 1
    outer loop
      vertex 25 -15 -10.5
      vertex -25 15 -10.5
      vertex -25 -15 -10.5
    endloop
  endfacet
  facet normal -1 0 0
    outer loop
      vertex -25 -15 -20.5
      vertex -25 15 -10.5
      vertex -25 15 -20.5
    endloop
  endfacet
  facet normal -1 -0 0
    outer loop
      vertex -25 15 -10.5
      vertex -25 -15 -20.5
      vertex -25 -15 -10.5
    endloop
  endfacet
  facet normal 0 1 -0
    outer loop
      vertex 25 15 -20.5
      vertex -25 15 -10.5
      vertex 25 15 -10.5
    endloop
  endfacet
  facet normal 0 1 0
    outer loop
      vertex -25 15 -10.5
      vertex 25 15 -20.5
      vertex -25 15 -20.5
    endloop
  endfacet
  facet normal 0 -1 0
    outer loop
      vertex -25 -15 -20.5
      vertex 25 -15 -10.5
      vertex -25 -15 -10.5
    endloop
  endfacet
  facet normal 0 -1 -0
    outer loop
      vertex 25 -15 -10.5
      vertex -25 -15 -20.5
      vertex 25 -15 -20.5
    endloop
  endfacet
  facet normal 0 0 -1
    outer loop
      vertex -25 -15 -20.5
      vertex 25 15 -20.5
      vertex 25 -15 -20.5
    endloop
  endfacet
  facet normal -0 0 -1
    outer loop
      vertex 25 15 -20.5
      vertex -25 -15 -20.5
      vertex -25 15 -20.5
    endloop
  endfacet
endsolid OpenSCAD_Model
