solid OpenSCAD_Model
  facet normal -0 0 1
    outer loop
      vertex 0 25 45
      vertex 50 0 45
      vertex 50 25 45
    endloop
  endfacet
  facet normal 0 0 1
    outer loop
      vertex 50 0 45
      vertex 0 25 45
      vertex 0 0 45
    endloop
  endfacet
  facet normal 0 0 -1
    outer loop
      vertex 0 0 15
      vertex 50 25 15
      vertex 50 0 15
    endloop
  endfacet
  facet normal -0 0 -1
    outer loop
      vertex 50 25 15
      vertex 0 0 15
      vertex 0 25 15
    endloop
  endfacet
  facet normal 0 -1 0
    outer loop
      vertex 0 0 15
      vertex 50 0 45
      vertex 0 0 45
    endloop
  endfacet
  facet normal 0 -1 -0
    outer loop
      vertex 50 0 45
      vertex 0 0 15
      vertex 50 0 15
    endloop
  endfacet
  facet normal 1 -0 0
    outer loop
      vertex 50 0 45
      vertex 50 25 15
      vertex 50 25 45
    endloop
  endfacet
  facet normal 1 0 0
    outer loop
      vertex 50 25 15
      vertex 50 0 45
      vertex 50 0 15
    endloop
  endfacet
  facet normal 0 1 -0
    outer loop
      vertex 50 25 15
      vertex 0 25 45
      vertex 50 25 45
    endloop
  endfacet
  facet normal 0 1 0
    outer loop
      vertex 0 25 45
      vertex 50 25 15
      vertex 0 25 15
    endloop
  endfacet
  facet normal -1 0 0
    outer loop
      vertex 0 0 15
      vertex 0 25 45
      vertex 0 25 15
    endloop
  endfacet
  facet normal -1 -0 0
    outer loop
      vertex 0 25 45
      vertex 0 0 15
      vertex 0 0 45
    endloop
  endfacet
endsolid OpenSCAD_Model
