solid OpenSCAD_Model
  facet normal -0 0 1
    outer loop
      vertex 0 10 60
      vertex 90 0 60
      vertex 90 10 60
    endloop
  endfacet
  facet normal 0 0 1
    outer loop
      vertex 90 0 60
      vertex 0 10 60
      vertex 0 0 60
    endloop
  endfacet
  facet normal 0 0 -1
    outer loop
      vertex 70 0 50
      vertex 90 10 50
      vertex 90 0 50
    endloop
  endfacet
  facet normal -0 0 -1
    outer loop
      vertex 90 10 50
      vertex 70 0 50
      vertex 70 10 50
    endloop
  endfacet
  facet normal -1 0 0
    outer loop
      vertex 0 0 0
      vertex 0 10 60
      vertex 0 10 0
    endloop
  endfacet
  facet normal -1 -0 0
    outer loop
      vertex 0 10 60
      vertex 0 0 0
      vertex 0 0 60
    endloop
  endfacet
  facet normal 0 1 0
    outer loop
      vertex 40 10 10
      vertex 40 10 0
      vertex 38.6835 10 10
    endloop
  endfacet
  facet normal 0 1 -0
    outer loop
      vertex 70 10 30
      vertex 68.391 10 40
      vertex 70 10 40
    endloop
  endfacet
  facet normal 0 1 0
    outer loop
      vertex 68.391 10 40
      vertex 70 10 30
      vertex 68.391 10 30
    endloop
  endfacet
  facet normal 0 1 0
    outer loop
      vertex 70 10 50
      vertex 90 10 60
      vertex 90 10 50
    endloop
  endfacet
  facet normal 0 1 0
    outer loop
      vertex 90 10 60
      vertex 70 10 50
      vertex 0 10 60
    endloop
  endfacet
  facet normal 0 1 0
    outer loop
      vertex 68.391 10 40
      vertex 70 10 50
      vertex 70 10 40
    endloop
  endfacet
  facet normal 0 1 0
    outer loop
      vertex 59.1251 10 40
      vertex 70 10 50
      vertex 68.391 10 40
    endloop
  endfacet
  facet normal 0 1 0
    outer loop
      vertex 70 10 50
      vertex 59.1251 10 40
      vertex 0 10 60
    endloop
  endfacet
  facet normal 0 1 0
    outer loop
      vertex 55.7735 10 30
      vertex 59.1251 10 40
      vertex 59.1251 10 30
    endloop
  endfacet
  facet normal 0 1 0
    outer loop
      vertex 47.3205 10 30
      vertex 59.1251 10 40
      vertex 55.7735 10 30
    endloop
  endfacet
  facet normal 0 1 0
    outer loop
      vertex 59.1251 10 40
      vertex 47.3205 10 30
      vertex 0 10 60
    endloop
  endfacet
  facet normal 0 1 0
    outer loop
      vertex 38.6835 10 20
      vertex 47.3205 10 30
      vertex 47.3205 10 20
    endloop
  endfacet
  facet normal 0 1 0
    outer loop
      vertex 47.3205 10 30
      vertex 38.6835 10 20
      vertex 0 10 60
    endloop
  endfacet
  facet normal 0 1 0
    outer loop
      vertex 0 10 0
      vertex 38.6835 10 20
      vertex 38.6835 10 10
    endloop
  endfacet
  facet normal 0 1 0
    outer loop
      vertex 0 10 0
      vertex 38.6835 10 10
      vertex 40 10 0
    endloop
  endfacet
  facet normal 0 1 0
    outer loop
      vertex 38.6835 10 20
      vertex 0 10 0
      vertex 0 10 60
    endloop
  endfacet
  facet normal 0 1 -0
    outer loop
      vertex 60 10 20
      vertex 59.1251 10 30
      vertex 60 10 30
    endloop
  endfacet
  facet normal 0 1 0
    outer loop
      vertex 55.7735 10 20
      vertex 59.1251 10 30
      vertex 60 10 20
    endloop
  endfacet
  facet normal 0 1 0
    outer loop
      vertex 59.1251 10 30
      vertex 55.7735 10 20
      vertex 55.7735 10 30
    endloop
  endfacet
  facet normal 0 -1 0
    outer loop
      vertex 0 0 60
      vertex 70 0 50
      vertex 90 0 60
    endloop
  endfacet
  facet normal 0 -1 0
    outer loop
      vertex 55 0 30
      vertex 70 0 50
      vertex 0 0 60
    endloop
  endfacet
  facet normal 0 -1 -0
    outer loop
      vertex 70 0 50
      vertex 55 0 30
      vertex 70 0 40
    endloop
  endfacet
  facet normal 0 -1 0
    outer loop
      vertex 0 0 60
      vertex 50 0 20
      vertex 55 0 30
    endloop
  endfacet
  facet normal 0 -1 0
    outer loop
      vertex 0 0 60
      vertex 40 0 10
      vertex 50 0 20
    endloop
  endfacet
  facet normal 0 -1 0
    outer loop
      vertex 0 0 0
      vertex 40 0 10
      vertex 0 0 60
    endloop
  endfacet
  facet normal 0 -1 -0
    outer loop
      vertex 40 0 10
      vertex 0 0 0
      vertex 40 0 0
    endloop
  endfacet
  facet normal 0 -1 -0
    outer loop
      vertex 90 0 60
      vertex 70 0 50
      vertex 90 0 50
    endloop
  endfacet
  facet normal 0 -1 -0
    outer loop
      vertex 70 0 40
      vertex 55 0 30
      vertex 70 0 30
    endloop
  endfacet
  facet normal 0 -1 -0
    outer loop
      vertex 55 0 30
      vertex 50 0 20
      vertex 55 0 20
    endloop
  endfacet
  facet normal 0 -1 -0
    outer loop
      vertex 50 0 20
      vertex 40 0 10
      vertex 50 0 10
    endloop
  endfacet
  facet normal 1 -0 0
    outer loop
      vertex 90 0 60
      vertex 90 10 50
      vertex 90 10 60
    endloop
  endfacet
  facet normal 1 0 0
    outer loop
      vertex 90 10 50
      vertex 90 0 60
      vertex 90 0 50
    endloop
  endfacet
  facet normal 0 0 1
    outer loop
      vertex 68.391 10 40
      vertex 68.1116 11.5846 40
      vertex 59.1251 10 40
    endloop
  endfacet
  facet normal 1 -0 0
    outer loop
      vertex 70 0 50
      vertex 70 10 40
      vertex 70 10 50
    endloop
  endfacet
  facet normal 1 0 0
    outer loop
      vertex 70 10 40
      vertex 70 0 50
      vertex 70 0 40
    endloop
  endfacet
  facet normal 1 -0 0
    outer loop
      vertex 70 0 40
      vertex 70 10 30
      vertex 70 10 40
    endloop
  endfacet
  facet normal 1 0 0
    outer loop
      vertex 70 10 30
      vertex 70 0 40
      vertex 70 0 30
    endloop
  endfacet
  facet normal 0 0 -1
    outer loop
      vertex 70 0 30
      vertex 68.391 10 30
      vertex 70 10 30
    endloop
  endfacet
  facet normal 0 0 -1
    outer loop
      vertex 60 5 30
      vertex 68.391 10 30
      vertex 70 0 30
    endloop
  endfacet
  facet normal 0 0 -1
    outer loop
      vertex 60 10 30
      vertex 68.391 10 30
      vertex 60 5 30
    endloop
  endfacet
  facet normal 0 0 -1
    outer loop
      vertex 55 0 30
      vertex 60 5 30
      vertex 70 0 30
    endloop
  endfacet
  facet normal -0 0 -1
    outer loop
      vertex 60 5 30
      vertex 55 0 30
      vertex 55 5 30
    endloop
  endfacet
  facet normal 0 0 -1
    outer loop
      vertex 68.391 10 30
      vertex 60 10 30
      vertex 68.1116 11.5846 30
    endloop
  endfacet
  facet normal 0 0 -1
    outer loop
      vertex 68.1116 11.5846 30
      vertex 60 10 30
      vertex 59.1251 10 30
    endloop
  endfacet
  facet normal 0 0 1
    outer loop
      vertex 55.7735 10 30
      vertex 53.6603 13.6603 30
      vertex 47.3205 10 30
    endloop
  endfacet
  facet normal 0.984809 0.173644 0
    outer loop
      vertex 68.391 10 40
      vertex 68.1116 11.5846 30
      vertex 68.1116 11.5846 40
    endloop
  endfacet
  facet normal 0.984809 0.173644 0
    outer loop
      vertex 68.1116 11.5846 30
      vertex 68.391 10 40
      vertex 68.391 10 30
    endloop
  endfacet
  facet normal -0.173652 0.984807 0
    outer loop
      vertex 68.1116 11.5846 30
      vertex 59.1251 10 40
      vertex 68.1116 11.5846 40
    endloop
  endfacet
  facet normal -0.173652 0.984807 0
    outer loop
      vertex 59.1251 10 40
      vertex 68.1116 11.5846 30
      vertex 59.1251 10 30
    endloop
  endfacet
  facet normal 1 -0 0
    outer loop
      vertex 60 5 30
      vertex 60 10 20
      vertex 60 10 30
    endloop
  endfacet
  facet normal 1 0 0
    outer loop
      vertex 60 10 20
      vertex 60 5 30
      vertex 60 5 20
    endloop
  endfacet
  facet normal 0 0 -1
    outer loop
      vertex 50 0 20
      vertex 55 5 20
      vertex 55 0 20
    endloop
  endfacet
  facet normal -0 0 -1
    outer loop
      vertex 55 5 20
      vertex 50 0 20
      vertex 50 10 20
    endloop
  endfacet
  facet normal 0 0 -1
    outer loop
      vertex 55 5 20
      vertex 50 10 20
      vertex 53.6603 13.6603 20
    endloop
  endfacet
  facet normal 0 0 -1
    outer loop
      vertex 47.626 10.1764 20
      vertex 50 10 20
      vertex 47.6733 10 20
    endloop
  endfacet
  facet normal 0 0 -1
    outer loop
      vertex 50 10 20
      vertex 47.626 10.1764 20
      vertex 53.6603 13.6603 20
    endloop
  endfacet
  facet normal 0 0 -1
    outer loop
      vertex 60 5 20
      vertex 55.7735 10 20
      vertex 60 10 20
    endloop
  endfacet
  facet normal 0 0 -1
    outer loop
      vertex 55 5 20
      vertex 55.7735 10 20
      vertex 60 5 20
    endloop
  endfacet
  facet normal -0 0 -1
    outer loop
      vertex 55.7735 10 20
      vertex 55 5 20
      vertex 53.6603 13.6603 20
    endloop
  endfacet
  facet normal 0 0 1
    outer loop
      vertex 47.0711 12.2474 20
      vertex 47.3205 10 20
      vertex 47.626 10.1764 20
    endloop
  endfacet
  facet normal 0 0 1
    outer loop
      vertex 47.3205 10 20
      vertex 47.0711 12.2474 20
      vertex 38.6835 10 20
    endloop
  endfacet
  facet normal 0.866033 0.499987 0
    outer loop
      vertex 55.7735 10 30
      vertex 53.6603 13.6603 20
      vertex 53.6603 13.6603 30
    endloop
  endfacet
  facet normal 0.866033 0.499987 0
    outer loop
      vertex 53.6603 13.6603 20
      vertex 55.7735 10 30
      vertex 55.7735 10 20
    endloop
  endfacet
  facet normal -0.499999 0.866026 0
    outer loop
      vertex 47.626 10.1764 20
      vertex 53.6603 13.6603 30
      vertex 53.6603 13.6603 20
    endloop
  endfacet
  facet normal -0.500002 0.866025 1.62651e-06
    outer loop
      vertex 53.6603 13.6603 30
      vertex 47.626 10.1764 20
      vertex 47.3205 10 30
    endloop
  endfacet
  facet normal -0.500041 0.866001 0
    outer loop
      vertex 47.3205 10 30
      vertex 47.626 10.1764 20
      vertex 47.3205 10 20
    endloop
  endfacet
  facet normal 1 -0 0
    outer loop
      vertex 55 0 30
      vertex 55 5 20
      vertex 55 5 30
    endloop
  endfacet
  facet normal 1 0 0
    outer loop
      vertex 55 5 20
      vertex 55 0 30
      vertex 55 0 20
    endloop
  endfacet
  facet normal 0 -1 0
    outer loop
      vertex 55 5 20
      vertex 60 5 30
      vertex 55 5 30
    endloop
  endfacet
  facet normal 0 -1 -0
    outer loop
      vertex 60 5 30
      vertex 55 5 20
      vertex 60 5 20
    endloop
  endfacet
  facet normal 1 -0 0
    outer loop
      vertex 50 0 20
      vertex 50 10 10
      vertex 50 10 20
    endloop
  endfacet
  facet normal 1 0 0
    outer loop
      vertex 50 10 10
      vertex 50 0 20
      vertex 50 0 10
    endloop
  endfacet
  facet normal 0 0 -1
    outer loop
      vertex 50 0 10
      vertex 47.6733 10 10
      vertex 50 10 10
    endloop
  endfacet
  facet normal 0 0 -1
    outer loop
      vertex 40 0 10
      vertex 47.6733 10 10
      vertex 50 0 10
    endloop
  endfacet
  facet normal -0 0 -1
    outer loop
      vertex 47.6733 10 10
      vertex 40 0 10
      vertex 40 10 10
    endloop
  endfacet
  facet normal 0 0 -1
    outer loop
      vertex 47.6733 10 10
      vertex 40 10 10
      vertex 47.0711 12.2474 10
    endloop
  endfacet
  facet normal 0 0 -1
    outer loop
      vertex 47.0711 12.2474 10
      vertex 40 10 10
      vertex 38.6835 10 10
    endloop
  endfacet
  facet normal 0 1 -0
    outer loop
      vertex 50 10 10
      vertex 47.6733 10 20
      vertex 50 10 20
    endloop
  endfacet
  facet normal 0 1 0
    outer loop
      vertex 47.6733 10 20
      vertex 50 10 10
      vertex 47.6733 10 10
    endloop
  endfacet
  facet normal -0.258814 0.965927 0
    outer loop
      vertex 47.0711 12.2474 10
      vertex 38.6835 10 20
      vertex 47.0711 12.2474 20
    endloop
  endfacet
  facet normal -0.258814 0.965927 0
    outer loop
      vertex 38.6835 10 20
      vertex 47.0711 12.2474 10
      vertex 38.6835 10 10
    endloop
  endfacet
  facet normal 0.965928 0.258809 0
    outer loop
      vertex 47.626 10.1764 20
      vertex 47.0711 12.2474 10
      vertex 47.0711 12.2474 20
    endloop
  endfacet
  facet normal 0.96588 0.258992 -0
    outer loop
      vertex 47.6733 10 10
      vertex 47.626 10.1764 20
      vertex 47.6733 10 20
    endloop
  endfacet
  facet normal 0.965925 0.258823 3.17792e-06
    outer loop
      vertex 47.626 10.1764 20
      vertex 47.6733 10 10
      vertex 47.0711 12.2474 10
    endloop
  endfacet
  facet normal 1 -0 0
    outer loop
      vertex 40 0 10
      vertex 40 10 0
      vertex 40 10 10
    endloop
  endfacet
  facet normal 1 0 0
    outer loop
      vertex 40 10 0
      vertex 40 0 10
      vertex 40 0 0
    endloop
  endfacet
  facet normal 0 0 -1
    outer loop
      vertex 0 0 0
      vertex 40 10 0
      vertex 40 0 0
    endloop
  endfacet
  facet normal -0 0 -1
    outer loop
      vertex 40 10 0
      vertex 0 0 0
      vertex 0 10 0
    endloop
  endfacet
endsolid OpenSCAD_Model
