solid OpenSCAD_Model
  facet normal 1 -0 0
    outer loop
      vertex 90 15 50
      vertex 90 20 0
      vertex 90 20 50
    endloop
  endfacet
  facet normal 1 0 0
    outer loop
      vertex 90 20 0
      vertex 90 15 50
      vertex 90 15 0
    endloop
  endfacet
  facet normal 0 0 1
    outer loop
      vertex 45 70 50
      vertex 40 70 50
      vertex 45 20 50
    endloop
  endfacet
  facet normal -0 0 1
    outer loop
      vertex 45 20 50
      vertex 90 15 50
      vertex 90 20 50
    endloop
  endfacet
  facet normal 0 0 1
    outer loop
      vertex 45 20 50
      vertex 40 15 50
      vertex 90 15 50
    endloop
  endfacet
  facet normal 0 0 1
    outer loop
      vertex 40 15 50
      vertex 45 20 50
      vertex 40 70 50
    endloop
  endfacet
  facet normal 0 0 -1
    outer loop
      vertex 90 15 0
      vertex 45 20 0
      vertex 90 20 0
    endloop
  endfacet
  facet normal 0 0 -1
    outer loop
      vertex 40 15 0
      vertex 45 20 0
      vertex 90 15 0
    endloop
  endfacet
  facet normal 0 0 -1
    outer loop
      vertex 40 70 0
      vertex 45 20 0
      vertex 40 15 0
    endloop
  endfacet
  facet normal 0 0 -1
    outer loop
      vertex 45 20 0
      vertex 40 70 0
      vertex 45 70 0
    endloop
  endfacet
  facet normal -1 0 0
    outer loop
      vertex 40 15 0
      vertex 40 70 50
      vertex 40 70 0
    endloop
  endfacet
  facet normal -1 -0 0
    outer loop
      vertex 40 70 50
      vertex 40 15 0
      vertex 40 15 50
    endloop
  endfacet
  facet normal 0 1 -0
    outer loop
      vertex 90 20 0
      vertex 45 20 50
      vertex 90 20 50
    endloop
  endfacet
  facet normal 0 1 0
    outer loop
      vertex 45 20 50
      vertex 90 20 0
      vertex 45 20 0
    endloop
  endfacet
  facet normal 0 -1 0
    outer loop
      vertex 40 15 0
      vertex 90 15 50
      vertex 40 15 50
    endloop
  endfacet
  facet normal 0 -1 -0
    outer loop
      vertex 90 15 50
      vertex 40 15 0
      vertex 90 15 0
    endloop
  endfacet
  facet normal 1 -0 0
    outer loop
      vertex 45 20 50
      vertex 45 70 0
      vertex 45 70 50
    endloop
  endfacet
  facet normal 1 0 0
    outer loop
      vertex 45 70 0
      vertex 45 20 50
      vertex 45 20 0
    endloop
  endfacet
  facet normal 0 1 -0
    outer loop
      vertex 45 70 0
      vertex 40 70 50
      vertex 45 70 50
    endloop
  endfacet
  facet normal 0 1 0
    outer loop
      vertex 40 70 50
      vertex 45 70 0
      vertex 40 70 0
    endloop
  endfacet
  facet normal 0.309019 0.951056 -0
    outer loop
      vertex 16.7559 83.93 0
      vertex 12.0006 85.4751 50
      vertex 16.7559 83.93 50
    endloop
  endfacet
  facet normal 0.309019 0.951056 0
    outer loop
      vertex 12.0006 85.4751 50
      vertex 16.7559 83.93 0
      vertex 12.0006 85.4751 0
    endloop
  endfacet
  facet normal 0 0 1
    outer loop
      vertex -1.90517 42.6775 50
      vertex 16.7559 83.93 50
      vertex 12.0006 85.4751 50
    endloop
  endfacet
  facet normal 0 0 1
    outer loop
      vertex 16.7559 83.93 50
      vertex -1.90517 42.6775 50
      vertex 1.30503 36.3771 50
    endloop
  endfacet
  facet normal -0 0 1
    outer loop
      vertex -51.0031 53.3731 50
      vertex -1.90517 42.6775 50
      vertex -49.458 58.1284 50
    endloop
  endfacet
  facet normal 0 0 1
    outer loop
      vertex -1.90517 42.6775 50
      vertex -51.0031 53.3731 50
      vertex 1.30503 36.3771 50
    endloop
  endfacet
  facet normal 0 0 -1
    outer loop
      vertex -1.90517 42.6775 0
      vertex 16.7559 83.93 0
      vertex 1.30503 36.3771 0
    endloop
  endfacet
  facet normal -0 0 -1
    outer loop
      vertex 16.7559 83.93 0
      vertex -1.90517 42.6775 0
      vertex 12.0006 85.4751 0
    endloop
  endfacet
  facet normal 0 0 -1
    outer loop
      vertex -51.0031 53.3731 0
      vertex -1.90517 42.6775 0
      vertex 1.30503 36.3771 0
    endloop
  endfacet
  facet normal 0 0 -1
    outer loop
      vertex -1.90517 42.6775 0
      vertex -51.0031 53.3731 0
      vertex -49.458 58.1284 0
    endloop
  endfacet
  facet normal -0.309018 -0.951056 0
    outer loop
      vertex -51.0031 53.3731 0
      vertex 1.30503 36.3771 50
      vertex -51.0031 53.3731 50
    endloop
  endfacet
  facet normal -0.309018 -0.951056 -0
    outer loop
      vertex 1.30503 36.3771 50
      vertex -51.0031 53.3731 0
      vertex 1.30503 36.3771 0
    endloop
  endfacet
  facet normal -0.951057 0.309017 0
    outer loop
      vertex -1.90517 42.6775 0
      vertex 12.0006 85.4751 50
      vertex 12.0006 85.4751 0
    endloop
  endfacet
  facet normal -0.951057 0.309017 0
    outer loop
      vertex 12.0006 85.4751 50
      vertex -1.90517 42.6775 0
      vertex -1.90517 42.6775 50
    endloop
  endfacet
  facet normal 0.951057 -0.309017 0
    outer loop
      vertex 1.30503 36.3771 50
      vertex 16.7559 83.93 0
      vertex 16.7559 83.93 50
    endloop
  endfacet
  facet normal 0.951057 -0.309017 0
    outer loop
      vertex 16.7559 83.93 0
      vertex 1.30503 36.3771 50
      vertex 1.30503 36.3771 0
    endloop
  endfacet
  facet normal 0.309018 0.951056 -0
    outer loop
      vertex -1.90517 42.6775 0
      vertex -49.458 58.1284 50
      vertex -1.90517 42.6775 50
    endloop
  endfacet
  facet normal 0.309018 0.951056 0
    outer loop
      vertex -49.458 58.1284 50
      vertex -1.90517 42.6775 0
      vertex -49.458 58.1284 0
    endloop
  endfacet
  facet normal -0.951056 0.309019 0
    outer loop
      vertex -51.0031 53.3731 0
      vertex -49.458 58.1284 50
      vertex -49.458 58.1284 0
    endloop
  endfacet
  facet normal -0.951056 0.309019 0
    outer loop
      vertex -49.458 58.1284 50
      vertex -51.0031 53.3731 0
      vertex -51.0031 53.3731 50
    endloop
  endfacet
  facet normal -0.809021 0.58778 0
    outer loop
      vertex -84.5672 36.7203 0
      vertex -81.6283 40.7654 50
      vertex -81.6283 40.7654 0
    endloop
  endfacet
  facet normal -0.809021 0.58778 0
    outer loop
      vertex -81.6283 40.7654 50
      vertex -84.5672 36.7203 0
      vertex -84.5672 36.7203 50
    endloop
  endfacet
  facet normal 0 0 1
    outer loop
      vertex -81.6283 40.7654 50
      vertex -48.1615 10.27 50
      vertex -41.1775 11.3762 50
    endloop
  endfacet
  facet normal 0 0 1
    outer loop
      vertex -48.1615 10.27 50
      vertex -81.6283 40.7654 50
      vertex -84.5672 36.7203 50
    endloop
  endfacet
  facet normal -0 0 1
    outer loop
      vertex -48.1615 10.27 50
      vertex -73.5056 -33.1198 50
      vertex -41.1775 11.3762 50
    endloop
  endfacet
  facet normal 0 -0 1
    outer loop
      vertex -73.5056 -33.1198 50
      vertex -48.1615 10.27 50
      vertex -77.5507 -30.1809 50
    endloop
  endfacet
  facet normal 0 0 -1
    outer loop
      vertex -73.5056 -33.1198 0
      vertex -48.1615 10.27 0
      vertex -41.1775 11.3762 0
    endloop
  endfacet
  facet normal 0 0 -1
    outer loop
      vertex -48.1615 10.27 0
      vertex -73.5056 -33.1198 0
      vertex -77.5507 -30.1809 0
    endloop
  endfacet
  facet normal 0 0 -1
    outer loop
      vertex -48.1615 10.27 0
      vertex -81.6283 40.7654 0
      vertex -41.1775 11.3762 0
    endloop
  endfacet
  facet normal 0 -0 -1
    outer loop
      vertex -81.6283 40.7654 0
      vertex -48.1615 10.27 0
      vertex -84.5672 36.7203 0
    endloop
  endfacet
  facet normal 0.809018 -0.587784 0
    outer loop
      vertex -73.5056 -33.1198 50
      vertex -41.1775 11.3762 0
      vertex -41.1775 11.3762 50
    endloop
  endfacet
  facet normal 0.809018 -0.587784 0
    outer loop
      vertex -41.1775 11.3762 0
      vertex -73.5056 -33.1198 50
      vertex -73.5056 -33.1198 0
    endloop
  endfacet
  facet normal -0.587785 -0.809017 0
    outer loop
      vertex -84.5672 36.7203 0
      vertex -48.1615 10.27 50
      vertex -84.5672 36.7203 50
    endloop
  endfacet
  facet normal -0.587785 -0.809017 -0
    outer loop
      vertex -48.1615 10.27 50
      vertex -84.5672 36.7203 0
      vertex -48.1615 10.27 0
    endloop
  endfacet
  facet normal 0.587785 0.809017 -0
    outer loop
      vertex -41.1775 11.3762 0
      vertex -81.6283 40.7654 50
      vertex -41.1775 11.3762 50
    endloop
  endfacet
  facet normal 0.587785 0.809017 0
    outer loop
      vertex -81.6283 40.7654 50
      vertex -41.1775 11.3762 0
      vertex -81.6283 40.7654 0
    endloop
  endfacet
  facet normal -0.809018 0.587784 0
    outer loop
      vertex -77.5507 -30.1809 0
      vertex -48.1615 10.27 50
      vertex -48.1615 10.27 0
    endloop
  endfacet
  facet normal -0.809018 0.587784 0
    outer loop
      vertex -48.1615 10.27 50
      vertex -77.5507 -30.1809 0
      vertex -77.5507 -30.1809 50
    endloop
  endfacet
  facet normal -0.58778 -0.809021 0
    outer loop
      vertex -77.5507 -30.1809 0
      vertex -73.5056 -33.1198 50
      vertex -77.5507 -30.1809 50
    endloop
  endfacet
  facet normal -0.58778 -0.809021 -0
    outer loop
      vertex -73.5056 -33.1198 50
      vertex -77.5507 -30.1809 0
      vertex -73.5056 -33.1198 0
    endloop
  endfacet
  facet normal -0.809011 -0.587793 0
    outer loop
      vertex -61.0558 -69.081 0
      vertex -63.9948 -65.0359 50
      vertex -63.9948 -65.0359 0
    endloop
  endfacet
  facet normal -0.809011 -0.587793 0
    outer loop
      vertex -63.9948 -65.0359 50
      vertex -61.0558 -69.081 0
      vertex -61.0558 -69.081 50
    endloop
  endfacet
  facet normal -0 0 1
    outer loop
      vertex -24.6501 -42.6307 50
      vertex 8.78429 -80.1426 50
      vertex -23.5439 -35.6467 50
    endloop
  endfacet
  facet normal 0 0 1
    outer loop
      vertex 8.78429 -80.1426 50
      vertex -24.6501 -42.6307 50
      vertex 4.7392 -83.0815 50
    endloop
  endfacet
  facet normal 0 0 1
    outer loop
      vertex -63.9948 -65.0359 50
      vertex -24.6501 -42.6307 50
      vertex -23.5439 -35.6467 50
    endloop
  endfacet
  facet normal 0 0 1
    outer loop
      vertex -24.6501 -42.6307 50
      vertex -63.9948 -65.0359 50
      vertex -61.0558 -69.081 50
    endloop
  endfacet
  facet normal 0 0 -1
    outer loop
      vertex -24.6501 -42.6307 0
      vertex 8.78429 -80.1426 0
      vertex 4.7392 -83.0815 0
    endloop
  endfacet
  facet normal 0 0 -1
    outer loop
      vertex 8.78429 -80.1426 0
      vertex -24.6501 -42.6307 0
      vertex -23.5439 -35.6467 0
    endloop
  endfacet
  facet normal 0 0 -1
    outer loop
      vertex -63.9948 -65.0359 0
      vertex -24.6501 -42.6307 0
      vertex -61.0558 -69.081 0
    endloop
  endfacet
  facet normal -0 0 -1
    outer loop
      vertex -24.6501 -42.6307 0
      vertex -63.9948 -65.0359 0
      vertex -23.5439 -35.6467 0
    endloop
  endfacet
  facet normal 0.809017 0.587786 0
    outer loop
      vertex 8.78429 -80.1426 50
      vertex -23.5439 -35.6467 0
      vertex -23.5439 -35.6467 50
    endloop
  endfacet
  facet normal 0.809017 0.587786 0
    outer loop
      vertex -23.5439 -35.6467 0
      vertex 8.78429 -80.1426 50
      vertex 8.78429 -80.1426 0
    endloop
  endfacet
  facet normal 0.587785 -0.809017 0
    outer loop
      vertex -61.0558 -69.081 0
      vertex -24.6501 -42.6307 50
      vertex -61.0558 -69.081 50
    endloop
  endfacet
  facet normal 0.587785 -0.809017 0
    outer loop
      vertex -24.6501 -42.6307 50
      vertex -61.0558 -69.081 0
      vertex -24.6501 -42.6307 0
    endloop
  endfacet
  facet normal -0.587784 0.809018 0
    outer loop
      vertex -23.5439 -35.6467 0
      vertex -63.9948 -65.0359 50
      vertex -23.5439 -35.6467 50
    endloop
  endfacet
  facet normal -0.587784 0.809018 0
    outer loop
      vertex -63.9948 -65.0359 50
      vertex -23.5439 -35.6467 0
      vertex -63.9948 -65.0359 0
    endloop
  endfacet
  facet normal -0.809016 -0.587786 0
    outer loop
      vertex 4.7392 -83.0815 0
      vertex -24.6501 -42.6307 50
      vertex -24.6501 -42.6307 0
    endloop
  endfacet
  facet normal -0.809016 -0.587786 0
    outer loop
      vertex -24.6501 -42.6307 50
      vertex 4.7392 -83.0815 0
      vertex 4.7392 -83.0815 50
    endloop
  endfacet
  facet normal 0.587781 -0.80902 0
    outer loop
      vertex 4.7392 -83.0815 0
      vertex 8.78429 -80.1426 50
      vertex 4.7392 -83.0815 50
    endloop
  endfacet
  facet normal 0.587781 -0.80902 0
    outer loop
      vertex 8.78429 -80.1426 50
      vertex 4.7392 -83.0815 0
      vertex 8.78429 -80.1426 0
    endloop
  endfacet
  facet normal 0.309019 -0.951056 0
    outer loop
      vertex 48.3777 -84.17 0
      vertex 53.133 -82.6249 50
      vertex 48.3777 -84.17 50
    endloop
  endfacet
  facet normal 0.309019 -0.951056 0
    outer loop
      vertex 53.133 -82.6249 50
      vertex 48.3777 -84.17 0
      vertex 53.133 -82.6249 0
    endloop
  endfacet
  facet normal 0 0 1
    outer loop
      vertex 85.235 -19.6213 50
      vertex 39.2273 -39.8274 50
      vertex 86.7801 -24.3766 50
    endloop
  endfacet
  facet normal 0 -0 1
    outer loop
      vertex 39.2273 -39.8274 50
      vertex 85.235 -19.6213 50
      vertex 32.9269 -36.6172 50
    endloop
  endfacet
  facet normal 0 0 1
    outer loop
      vertex 39.2273 -39.8274 50
      vertex 48.3777 -84.17 50
      vertex 53.133 -82.6249 50
    endloop
  endfacet
  facet normal 0 0 1
    outer loop
      vertex 48.3777 -84.17 50
      vertex 39.2273 -39.8274 50
      vertex 32.9269 -36.6172 50
    endloop
  endfacet
  facet normal 0 0 -1
    outer loop
      vertex 48.3777 -84.17 0
      vertex 39.2273 -39.8274 0
      vertex 53.133 -82.6249 0
    endloop
  endfacet
  facet normal -0 -0 -1
    outer loop
      vertex 39.2273 -39.8274 0
      vertex 48.3777 -84.17 0
      vertex 32.9269 -36.6172 0
    endloop
  endfacet
  facet normal 0 0 -1
    outer loop
      vertex 39.2273 -39.8274 0
      vertex 85.235 -19.6213 0
      vertex 86.7801 -24.3766 0
    endloop
  endfacet
  facet normal 0 0 -1
    outer loop
      vertex 85.235 -19.6213 0
      vertex 39.2273 -39.8274 0
      vertex 32.9269 -36.6172 0
    endloop
  endfacet
  facet normal -0.309016 0.951057 0
    outer loop
      vertex 85.235 -19.6213 0
      vertex 32.9269 -36.6172 50
      vertex 85.235 -19.6213 50
    endloop
  endfacet
  facet normal -0.309016 0.951057 0
    outer loop
      vertex 32.9269 -36.6172 50
      vertex 85.235 -19.6213 0
      vertex 32.9269 -36.6172 0
    endloop
  endfacet
  facet normal 0.951057 0.309016 0
    outer loop
      vertex 53.133 -82.6249 50
      vertex 39.2273 -39.8274 0
      vertex 39.2273 -39.8274 50
    endloop
  endfacet
  facet normal 0.951057 0.309016 0
    outer loop
      vertex 39.2273 -39.8274 0
      vertex 53.133 -82.6249 50
      vertex 53.133 -82.6249 0
    endloop
  endfacet
  facet normal -0.951057 -0.309016 0
    outer loop
      vertex 48.3777 -84.17 0
      vertex 32.9269 -36.6172 50
      vertex 32.9269 -36.6172 0
    endloop
  endfacet
  facet normal -0.951057 -0.309016 0
    outer loop
      vertex 32.9269 -36.6172 50
      vertex 48.3777 -84.17 0
      vertex 48.3777 -84.17 50
    endloop
  endfacet
  facet normal 0.309016 -0.951057 0
    outer loop
      vertex 39.2273 -39.8274 0
      vertex 86.7801 -24.3766 50
      vertex 39.2273 -39.8274 50
    endloop
  endfacet
  facet normal 0.309016 -0.951057 0
    outer loop
      vertex 86.7801 -24.3766 50
      vertex 39.2273 -39.8274 0
      vertex 86.7801 -24.3766 0
    endloop
  endfacet
  facet normal 0.951056 0.309019 0
    outer loop
      vertex 86.7801 -24.3766 50
      vertex 85.235 -19.6213 0
      vertex 85.235 -19.6213 50
    endloop
  endfacet
  facet normal 0.951056 0.309019 0
    outer loop
      vertex 85.235 -19.6213 0
      vertex 86.7801 -24.3766 50
      vertex 86.7801 -24.3766 0
    endloop
  endfacet
  facet normal 1 -0 0
    outer loop
      vertex 100 0 60
      vertex 100 50 55
      vertex 100 50 60
    endloop
  endfacet
  facet normal 1 0 0
    outer loop
      vertex 100 50 55
      vertex 100 0 60
      vertex 100 0 55
    endloop
  endfacet
  facet normal -0 0 1
    outer loop
      vertex 0 50 60
      vertex 100 0 60
      vertex 100 50 60
    endloop
  endfacet
  facet normal 0 0 1
    outer loop
      vertex 100 0 60
      vertex 0 50 60
      vertex 0 0 60
    endloop
  endfacet
  facet normal 0 0 -1
    outer loop
      vertex 0 0 55
      vertex 100 50 55
      vertex 100 0 55
    endloop
  endfacet
  facet normal -0 0 -1
    outer loop
      vertex 100 50 55
      vertex 0 0 55
      vertex 0 50 55
    endloop
  endfacet
  facet normal -1 0 0
    outer loop
      vertex 0 0 55
      vertex 0 50 60
      vertex 0 50 55
    endloop
  endfacet
  facet normal -1 -0 0
    outer loop
      vertex 0 50 60
      vertex 0 0 55
      vertex 0 0 60
    endloop
  endfacet
  facet normal 0 1 -0
    outer loop
      vertex 100 50 55
      vertex 0 50 60
      vertex 100 50 60
    endloop
  endfacet
  facet normal 0 1 0
    outer loop
      vertex 0 50 60
      vertex 100 50 55
      vertex 0 50 55
    endloop
  endfacet
  facet normal 0 -1 0
    outer loop
      vertex 0 0 55
      vertex 100 0 60
      vertex 0 0 60
    endloop
  endfacet
  facet normal 0 -1 -0
    outer loop
      vertex 100 0 60
      vertex 0 0 55
      vertex 100 0 55
    endloop
  endfacet
endsolid OpenSCAD_Model
