solid OpenSCAD_Model
  facet normal 1 -0 0
    outer loop
      vertex 60 13 10
      vertex 60 30 0
      vertex 60 30 10
    endloop
  endfacet
  facet normal 1 0 0
    outer loop
      vertex 60 0 0
      vertex 60 13 10
      vertex 60 5 10
    endloop
  endfacet
  facet normal 1 0 0
    outer loop
      vertex 60 0 0
      vertex 60 5 10
      vertex 60 0 10
    endloop
  endfacet
  facet normal 1 0 0
    outer loop
      vertex 60 13 10
      vertex 60 0 0
      vertex 60 30 0
    endloop
  endfacet
  facet normal 0 0 1
    outer loop
      vertex 60 30 10
      vertex 35 13 10
      vertex 60 13 10
    endloop
  endfacet
  facet normal 0 0 1
    outer loop
      vertex 35 13 10
      vertex 33 13 10
      vertex 35 5 10
    endloop
  endfacet
  facet normal -0 0 1
    outer loop
      vertex 20 30 10
      vertex 35 13 10
      vertex 60 30 10
    endloop
  endfacet
  facet normal 0 0 1
    outer loop
      vertex 35 13 10
      vertex 20 30 10
      vertex 33 13 10
    endloop
  endfacet
  facet normal 0 0 1
    outer loop
      vertex 33 13 10
      vertex 20 30 10
      vertex 20 13 10
    endloop
  endfacet
  facet normal -0 0 1
    outer loop
      vertex 35 5 10
      vertex 60 0 10
      vertex 60 5 10
    endloop
  endfacet
  facet normal 0 0 1
    outer loop
      vertex 33 5 10
      vertex 35 5 10
      vertex 33 13 10
    endloop
  endfacet
  facet normal 0 0 1
    outer loop
      vertex 20 0 10
      vertex 35 5 10
      vertex 33 5 10
    endloop
  endfacet
  facet normal 0 0 1
    outer loop
      vertex 20 0 10
      vertex 33 5 10
      vertex 20 5 10
    endloop
  endfacet
  facet normal 0 0 1
    outer loop
      vertex 35 5 10
      vertex 20 0 10
      vertex 60 0 10
    endloop
  endfacet
  facet normal 0 0 -1
    outer loop
      vertex 5 5 10
      vertex 20 13 10
      vertex 20 5 10
    endloop
  endfacet
  facet normal -0 0 -1
    outer loop
      vertex 20 13 10
      vertex 5 5 10
      vertex 5 13 10
    endloop
  endfacet
  facet normal 0 0 -1
    outer loop
      vertex 60 5 10
      vertex 63 13 10
      vertex 63 5 10
    endloop
  endfacet
  facet normal -0 0 -1
    outer loop
      vertex 63 13 10
      vertex 60 5 10
      vertex 60 13 10
    endloop
  endfacet
  facet normal 0 0 -1
    outer loop
      vertex 0 0 0
      vertex 60 30 0
      vertex 60 0 0
    endloop
  endfacet
  facet normal -0 0 -1
    outer loop
      vertex 60 30 0
      vertex 0 0 0
      vertex 0 30 0
    endloop
  endfacet
  facet normal -1 0 0
    outer loop
      vertex 0 0 0
      vertex 0 30 8
      vertex 0 30 0
    endloop
  endfacet
  facet normal -1 -0 0
    outer loop
      vertex 0 30 8
      vertex 0 0 0
      vertex 0 0 8
    endloop
  endfacet
  facet normal 0 1 0
    outer loop
      vertex 60 30 10
      vertex 20 30 8
      vertex 20 30 10
    endloop
  endfacet
  facet normal 0 1 -0
    outer loop
      vertex 60 30 0
      vertex 20 30 8
      vertex 60 30 10
    endloop
  endfacet
  facet normal 0 1 0
    outer loop
      vertex 0 30 0
      vertex 20 30 8
      vertex 60 30 0
    endloop
  endfacet
  facet normal 0 1 0
    outer loop
      vertex 20 30 8
      vertex 0 30 0
      vertex 0 30 8
    endloop
  endfacet
  facet normal 0 -1 0
    outer loop
      vertex 0 0 8
      vertex 0 0 0
      vertex 20 0 8
    endloop
  endfacet
  facet normal 0 -1 0
    outer loop
      vertex 20 0 8
      vertex 60 0 10
      vertex 20 0 10
    endloop
  endfacet
  facet normal 0 -1 0
    outer loop
      vertex 60 0 0
      vertex 20 0 8
      vertex 0 0 0
    endloop
  endfacet
  facet normal 0 -1 0
    outer loop
      vertex 20 0 8
      vertex 60 0 0
      vertex 60 0 10
    endloop
  endfacet
  facet normal -1 0 0
    outer loop
      vertex 20 30 8
      vertex 20 13 10
      vertex 20 30 10
    endloop
  endfacet
  facet normal -1 0 0
    outer loop
      vertex 20 0 8
      vertex 20 13 10
      vertex 20 30 8
    endloop
  endfacet
  facet normal -1 -0 0
    outer loop
      vertex 20 13 10
      vertex 20 0 8
      vertex 20 5 10
    endloop
  endfacet
  facet normal -1 -0 0
    outer loop
      vertex 20 5 10
      vertex 20 0 8
      vertex 20 0 10
    endloop
  endfacet
  facet normal -0 0 1
    outer loop
      vertex 0 30 8
      vertex 20 0 8
      vertex 20 30 8
    endloop
  endfacet
  facet normal 0 0 1
    outer loop
      vertex 20 0 8
      vertex 0 30 8
      vertex 0 0 8
    endloop
  endfacet
  facet normal 1 -0 0
    outer loop
      vertex 33 5 18
      vertex 33 13 10
      vertex 33 13 18
    endloop
  endfacet
  facet normal 1 0 0
    outer loop
      vertex 33 13 10
      vertex 33 5 18
      vertex 33 5 10
    endloop
  endfacet
  facet normal -0 0 1
    outer loop
      vertex 13 13 18
      vertex 33 5 18
      vertex 33 13 18
    endloop
  endfacet
  facet normal 0 0 1
    outer loop
      vertex 33 5 18
      vertex 13 13 18
      vertex 13 5 18
    endloop
  endfacet
  facet normal -1 0 0
    outer loop
      vertex 5 5 10
      vertex 5 13 26
      vertex 5 13 10
    endloop
  endfacet
  facet normal -1 -0 0
    outer loop
      vertex 5 13 26
      vertex 5 5 10
      vertex 5 5 26
    endloop
  endfacet
  facet normal -1 0 0
    outer loop
      vertex 5 5 29
      vertex 5 13 34
      vertex 5 13 29
    endloop
  endfacet
  facet normal -1 -0 0
    outer loop
      vertex 5 13 34
      vertex 5 5 29
      vertex 5 5 34
    endloop
  endfacet
  facet normal 0 1 0
    outer loop
      vertex 20 13 10
      vertex 33 13 18
      vertex 33 13 10
    endloop
  endfacet
  facet normal 0 1 -0
    outer loop
      vertex 13 13 18
      vertex 5 13 26
      vertex 13 13 26
    endloop
  endfacet
  facet normal 0 1 0
    outer loop
      vertex 33 13 18
      vertex 20 13 10
      vertex 13 13 18
    endloop
  endfacet
  facet normal 0 1 0
    outer loop
      vertex 5 13 10
      vertex 13 13 18
      vertex 20 13 10
    endloop
  endfacet
  facet normal 0 1 0
    outer loop
      vertex 13 13 18
      vertex 5 13 10
      vertex 5 13 26
    endloop
  endfacet
  facet normal 0 1 -0
    outer loop
      vertex 13 13 29
      vertex 5 13 34
      vertex 13 13 34
    endloop
  endfacet
  facet normal 0 1 0
    outer loop
      vertex 5 13 34
      vertex 13 13 29
      vertex 5 13 29
    endloop
  endfacet
  facet normal 0 -1 0
    outer loop
      vertex 5 5 26
      vertex 13 5 18
      vertex 13 5 26
    endloop
  endfacet
  facet normal 0 -1 0
    outer loop
      vertex 5 5 10
      vertex 13 5 18
      vertex 5 5 26
    endloop
  endfacet
  facet normal 0 -1 0
    outer loop
      vertex 20 5 10
      vertex 13 5 18
      vertex 5 5 10
    endloop
  endfacet
  facet normal 0 -1 0
    outer loop
      vertex 13 5 18
      vertex 20 5 10
      vertex 33 5 18
    endloop
  endfacet
  facet normal 0 -1 -0
    outer loop
      vertex 33 5 18
      vertex 20 5 10
      vertex 33 5 10
    endloop
  endfacet
  facet normal 0 -1 0
    outer loop
      vertex 5 5 29
      vertex 13 5 34
      vertex 5 5 34
    endloop
  endfacet
  facet normal 0 -1 -0
    outer loop
      vertex 13 5 34
      vertex 5 5 29
      vertex 13 5 29
    endloop
  endfacet
  facet normal 1 -0 0
    outer loop
      vertex 13 5 34
      vertex 13 13 29
      vertex 13 13 34
    endloop
  endfacet
  facet normal 1 0 0
    outer loop
      vertex 13 13 29
      vertex 13 5 34
      vertex 13 5 29
    endloop
  endfacet
  facet normal 1 -0 0
    outer loop
      vertex 13 5 26
      vertex 13 13 18
      vertex 13 13 26
    endloop
  endfacet
  facet normal 1 0 0
    outer loop
      vertex 13 13 18
      vertex 13 5 26
      vertex 13 5 18
    endloop
  endfacet
  facet normal -0 0 1
    outer loop
      vertex 5 13 34
      vertex 13 5 34
      vertex 13 13 34
    endloop
  endfacet
  facet normal 0 0 1
    outer loop
      vertex 13 5 34
      vertex 5 13 34
      vertex 5 5 34
    endloop
  endfacet
  facet normal 1 -0 0
    outer loop
      vertex 63 5 18
      vertex 63 13 10
      vertex 63 13 18
    endloop
  endfacet
  facet normal 1 0 0
    outer loop
      vertex 63 13 10
      vertex 63 5 18
      vertex 63 5 10
    endloop
  endfacet
  facet normal -0 0 1
    outer loop
      vertex 43 13 18
      vertex 63 5 18
      vertex 63 13 18
    endloop
  endfacet
  facet normal 0 0 1
    outer loop
      vertex 63 5 18
      vertex 43 13 18
      vertex 43 5 18
    endloop
  endfacet
  facet normal -1 0 0
    outer loop
      vertex 35 5 10
      vertex 35 13 26
      vertex 35 13 10
    endloop
  endfacet
  facet normal -1 -0 0
    outer loop
      vertex 35 13 26
      vertex 35 5 10
      vertex 35 5 26
    endloop
  endfacet
  facet normal -1 0 0
    outer loop
      vertex 35 5 29
      vertex 35 13 34
      vertex 35 13 29
    endloop
  endfacet
  facet normal -1 -0 0
    outer loop
      vertex 35 13 34
      vertex 35 5 29
      vertex 35 5 34
    endloop
  endfacet
  facet normal 0 1 0
    outer loop
      vertex 60 13 10
      vertex 63 13 18
      vertex 63 13 10
    endloop
  endfacet
  facet normal 0 1 -0
    outer loop
      vertex 43 13 18
      vertex 35 13 26
      vertex 43 13 26
    endloop
  endfacet
  facet normal 0 1 0
    outer loop
      vertex 63 13 18
      vertex 60 13 10
      vertex 43 13 18
    endloop
  endfacet
  facet normal 0 1 0
    outer loop
      vertex 43 13 18
      vertex 35 13 10
      vertex 35 13 26
    endloop
  endfacet
  facet normal 0 1 0
    outer loop
      vertex 35 13 10
      vertex 43 13 18
      vertex 60 13 10
    endloop
  endfacet
  facet normal 0 1 -0
    outer loop
      vertex 43 13 29
      vertex 35 13 34
      vertex 43 13 34
    endloop
  endfacet
  facet normal 0 1 0
    outer loop
      vertex 35 13 34
      vertex 43 13 29
      vertex 35 13 29
    endloop
  endfacet
  facet normal 0 -1 0
    outer loop
      vertex 35 5 26
      vertex 43 5 18
      vertex 43 5 26
    endloop
  endfacet
  facet normal 0 -1 0
    outer loop
      vertex 35 5 10
      vertex 43 5 18
      vertex 35 5 26
    endloop
  endfacet
  facet normal 0 -1 0
    outer loop
      vertex 60 5 10
      vertex 43 5 18
      vertex 35 5 10
    endloop
  endfacet
  facet normal 0 -1 0
    outer loop
      vertex 43 5 18
      vertex 60 5 10
      vertex 63 5 18
    endloop
  endfacet
  facet normal 0 -1 -0
    outer loop
      vertex 63 5 18
      vertex 60 5 10
      vertex 63 5 10
    endloop
  endfacet
  facet normal 0 -1 0
    outer loop
      vertex 35 5 29
      vertex 43 5 34
      vertex 35 5 34
    endloop
  endfacet
  facet normal 0 -1 -0
    outer loop
      vertex 43 5 34
      vertex 35 5 29
      vertex 43 5 29
    endloop
  endfacet
  facet normal 1 -0 0
    outer loop
      vertex 43 5 34
      vertex 43 13 29
      vertex 43 13 34
    endloop
  endfacet
  facet normal 1 0 0
    outer loop
      vertex 43 13 29
      vertex 43 5 34
      vertex 43 5 29
    endloop
  endfacet
  facet normal 1 -0 0
    outer loop
      vertex 43 5 26
      vertex 43 13 18
      vertex 43 13 26
    endloop
  endfacet
  facet normal 1 0 0
    outer loop
      vertex 43 13 18
      vertex 43 5 26
      vertex 43 5 18
    endloop
  endfacet
  facet normal -0 0 1
    outer loop
      vertex 35 13 34
      vertex 43 5 34
      vertex 43 13 34
    endloop
  endfacet
  facet normal 0 0 1
    outer loop
      vertex 43 5 34
      vertex 35 13 34
      vertex 35 5 34
    endloop
  endfacet
  facet normal 1 -0 0
    outer loop
      vertex 60 0 29
      vertex 60 30 26
      vertex 60 30 29
    endloop
  endfacet
  facet normal 1 0 0
    outer loop
      vertex 60 30 26
      vertex 60 0 29
      vertex 60 0 26
    endloop
  endfacet
  facet normal 0 0 1
    outer loop
      vertex 60 30 29
      vertex 43 13 29
      vertex 60 0 29
    endloop
  endfacet
  facet normal 0 0 1
    outer loop
      vertex 60 30 29
      vertex 35 13 29
      vertex 43 13 29
    endloop
  endfacet
  facet normal 0 0 1
    outer loop
      vertex 35 13 29
      vertex 13 13 29
      vertex 35 5 29
    endloop
  endfacet
  facet normal -0 0 1
    outer loop
      vertex 0 30 29
      vertex 35 13 29
      vertex 60 30 29
    endloop
  endfacet
  facet normal 0 0 1
    outer loop
      vertex 35 13 29
      vertex 0 30 29
      vertex 13 13 29
    endloop
  endfacet
  facet normal 0 0 1
    outer loop
      vertex 0 0 29
      vertex 5 13 29
      vertex 0 30 29
    endloop
  endfacet
  facet normal 0 0 1
    outer loop
      vertex 13 13 29
      vertex 0 30 29
      vertex 5 13 29
    endloop
  endfacet
  facet normal -0 0 1
    outer loop
      vertex 43 5 29
      vertex 60 0 29
      vertex 43 13 29
    endloop
  endfacet
  facet normal -0 0 1
    outer loop
      vertex 35 5 29
      vertex 60 0 29
      vertex 43 5 29
    endloop
  endfacet
  facet normal 0 0 1
    outer loop
      vertex 13 5 29
      vertex 35 5 29
      vertex 13 13 29
    endloop
  endfacet
  facet normal 0 0 1
    outer loop
      vertex 0 0 29
      vertex 35 5 29
      vertex 13 5 29
    endloop
  endfacet
  facet normal 0 0 1
    outer loop
      vertex 0 0 29
      vertex 13 5 29
      vertex 5 5 29
    endloop
  endfacet
  facet normal 0 0 1
    outer loop
      vertex 35 5 29
      vertex 0 0 29
      vertex 60 0 29
    endloop
  endfacet
  facet normal 0 0 1
    outer loop
      vertex 5 13 29
      vertex 0 0 29
      vertex 5 5 29
    endloop
  endfacet
  facet normal 0 0 -1
    outer loop
      vertex 43 13 26
      vertex 60 0 26
      vertex 43 5 26
    endloop
  endfacet
  facet normal 0 0 -1
    outer loop
      vertex 60 0 26
      vertex 35 5 26
      vertex 43 5 26
    endloop
  endfacet
  facet normal 0 0 -1
    outer loop
      vertex 35 5 26
      vertex 13 5 26
      vertex 35 13 26
    endloop
  endfacet
  facet normal 0 0 -1
    outer loop
      vertex 0 0 26
      vertex 35 5 26
      vertex 60 0 26
    endloop
  endfacet
  facet normal -0 0 -1
    outer loop
      vertex 35 5 26
      vertex 0 0 26
      vertex 13 5 26
    endloop
  endfacet
  facet normal -0 0 -1
    outer loop
      vertex 5 5 26
      vertex 0 0 26
      vertex 5 13 26
    endloop
  endfacet
  facet normal -0 0 -1
    outer loop
      vertex 13 5 26
      vertex 0 0 26
      vertex 5 5 26
    endloop
  endfacet
  facet normal 0 0 -1
    outer loop
      vertex 60 0 26
      vertex 43 13 26
      vertex 60 30 26
    endloop
  endfacet
  facet normal 0 0 -1
    outer loop
      vertex 35 13 26
      vertex 60 30 26
      vertex 43 13 26
    endloop
  endfacet
  facet normal 0 0 -1
    outer loop
      vertex 13 13 26
      vertex 35 13 26
      vertex 13 5 26
    endloop
  endfacet
  facet normal 0 0 -1
    outer loop
      vertex 0 30 26
      vertex 35 13 26
      vertex 13 13 26
    endloop
  endfacet
  facet normal 0 0 -1
    outer loop
      vertex 0 30 26
      vertex 13 13 26
      vertex 5 13 26
    endloop
  endfacet
  facet normal 0 0 -1
    outer loop
      vertex 35 13 26
      vertex 0 30 26
      vertex 60 30 26
    endloop
  endfacet
  facet normal 0 0 -1
    outer loop
      vertex 0 30 26
      vertex 5 13 26
      vertex 0 0 26
    endloop
  endfacet
  facet normal -1 0 0
    outer loop
      vertex 0 0 26
      vertex 0 30 29
      vertex 0 30 26
    endloop
  endfacet
  facet normal -1 -0 0
    outer loop
      vertex 0 30 29
      vertex 0 0 26
      vertex 0 0 29
    endloop
  endfacet
  facet normal 0 1 -0
    outer loop
      vertex 60 30 26
      vertex 0 30 29
      vertex 60 30 29
    endloop
  endfacet
  facet normal 0 1 0
    outer loop
      vertex 0 30 29
      vertex 60 30 26
      vertex 0 30 26
    endloop
  endfacet
  facet normal 0 -1 0
    outer loop
      vertex 0 0 26
      vertex 60 0 29
      vertex 0 0 29
    endloop
  endfacet
  facet normal 0 -1 -0
    outer loop
      vertex 60 0 29
      vertex 0 0 26
      vertex 60 0 26
    endloop
  endfacet
endsolid OpenSCAD_Model
