solid OpenSCAD_Model
  facet normal 0.195092 -0.980785 0
    outer loop
      vertex 55 0 0
      vertex 56.9134 0.380602 10
      vertex 55 0 10
    endloop
  endfacet
  facet normal 0.195092 -0.980785 0
    outer loop
      vertex 56.9134 0.380602 10
      vertex 55 0 0
      vertex 56.9134 0.380602 0
    endloop
  endfacet
  facet normal -0.831466 0.555576 0
    outer loop
      vertex 0.380602 16.9134 0
      vertex 1.46447 18.5355 10
      vertex 1.46447 18.5355 0
    endloop
  endfacet
  facet normal -0.831466 0.555576 0
    outer loop
      vertex 1.46447 18.5355 10
      vertex 0.380602 16.9134 0
      vertex 0.380602 16.9134 10
    endloop
  endfacet
  facet normal -0.19509 -0.980785 0
    outer loop
      vertex 3.08658 0.380602 0
      vertex 5 0 10
      vertex 3.08658 0.380602 10
    endloop
  endfacet
  facet normal -0.19509 -0.980785 -0
    outer loop
      vertex 5 0 10
      vertex 3.08658 0.380602 0
      vertex 5 0 0
    endloop
  endfacet
  facet normal 1 -0 0
    outer loop
      vertex 60 5 10
      vertex 60 15 0
      vertex 60 15 10
    endloop
  endfacet
  facet normal 1 0 0
    outer loop
      vertex 60 15 0
      vertex 60 5 10
      vertex 60 5 0
    endloop
  endfacet
  facet normal -0.555573 -0.831468 0
    outer loop
      vertex 1.46447 1.46447 0
      vertex 3.08658 0.380602 10
      vertex 1.46447 1.46447 10
    endloop
  endfacet
  facet normal -0.555573 -0.831468 -0
    outer loop
      vertex 3.08658 0.380602 10
      vertex 1.46447 1.46447 0
      vertex 3.08658 0.380602 0
    endloop
  endfacet
  facet normal -1 0 0
    outer loop
      vertex 0 5 0
      vertex 0 15 10
      vertex 0 15 0
    endloop
  endfacet
  facet normal -1 -0 0
    outer loop
      vertex 0 15 10
      vertex 0 5 0
      vertex 0 5 10
    endloop
  endfacet
  facet normal -0.195089 0.980786 0
    outer loop
      vertex 5 20 0
      vertex 3.08658 19.6194 10
      vertex 5 20 10
    endloop
  endfacet
  facet normal -0.195089 0.980786 0
    outer loop
      vertex 3.08658 19.6194 10
      vertex 5 20 0
      vertex 3.08658 19.6194 0
    endloop
  endfacet
  facet normal 0.980785 0.195091 0
    outer loop
      vertex 60 15 10
      vertex 59.6194 16.9134 0
      vertex 59.6194 16.9134 10
    endloop
  endfacet
  facet normal 0.980785 0.195091 0
    outer loop
      vertex 59.6194 16.9134 0
      vertex 60 15 10
      vertex 60 15 0
    endloop
  endfacet
  facet normal 0 -1 0
    outer loop
      vertex 12.4271 0 6.76336
      vertex 49.0729 0 7.85317
      vertex 10.9271 0 7.85317
    endloop
  endfacet
  facet normal 0 -1 0
    outer loop
      vertex 12.4271 0 6.76336
      vertex 47.5729 0 6.76336
      vertex 49.0729 0 7.85317
    endloop
  endfacet
  facet normal 0 -1 0
    outer loop
      vertex 13 0 5
      vertex 47.5729 0 6.76336
      vertex 12.4271 0 6.76336
    endloop
  endfacet
  facet normal 0 -1 0
    outer loop
      vertex 13 0 5
      vertex 47 0 5
      vertex 47.5729 0 6.76336
    endloop
  endfacet
  facet normal 0 -1 0
    outer loop
      vertex 12.4271 0 3.23664
      vertex 47 0 5
      vertex 13 0 5
    endloop
  endfacet
  facet normal 0 -1 0
    outer loop
      vertex 12.4271 0 3.23664
      vertex 47.5729 0 3.23664
      vertex 47 0 5
    endloop
  endfacet
  facet normal 0 -1 0
    outer loop
      vertex 10.9271 0 2.14683
      vertex 47.5729 0 3.23664
      vertex 12.4271 0 3.23664
    endloop
  endfacet
  facet normal 0 -1 -0
    outer loop
      vertex 47.5729 0 3.23664
      vertex 10.9271 0 2.14683
      vertex 49.0729 0 2.14683
    endloop
  endfacet
  facet normal 0 -1 0
    outer loop
      vertex 10.9271 0 7.85317
      vertex 5 0 10
      vertex 9.07295 0 7.85317
    endloop
  endfacet
  facet normal 0 -1 0
    outer loop
      vertex 5 0 10
      vertex 7.57295 0 6.76336
      vertex 9.07295 0 7.85317
    endloop
  endfacet
  facet normal 0 -1 0
    outer loop
      vertex 5 0 10
      vertex 7 0 5
      vertex 7.57295 0 6.76336
    endloop
  endfacet
  facet normal 0 -1 0
    outer loop
      vertex 5 0 0
      vertex 7 0 5
      vertex 5 0 10
    endloop
  endfacet
  facet normal 0 -1 0
    outer loop
      vertex 5 0 0
      vertex 10.9271 0 2.14683
      vertex 9.07295 0 2.14683
    endloop
  endfacet
  facet normal 0 -1 -0
    outer loop
      vertex 10.9271 0 2.14683
      vertex 5 0 0
      vertex 49.0729 0 2.14683
    endloop
  endfacet
  facet normal 0 -1 0
    outer loop
      vertex 55 0 0
      vertex 49.0729 0 2.14683
      vertex 5 0 0
    endloop
  endfacet
  facet normal 0 -1 -0
    outer loop
      vertex 7.57295 0 3.23664
      vertex 5 0 0
      vertex 9.07295 0 2.14683
    endloop
  endfacet
  facet normal 0 -1 -0
    outer loop
      vertex 7 0 5
      vertex 5 0 0
      vertex 7.57295 0 3.23664
    endloop
  endfacet
  facet normal 0 -1 0
    outer loop
      vertex 5 0 10
      vertex 10.9271 0 7.85317
      vertex 55 0 10
    endloop
  endfacet
  facet normal 0 -1 0
    outer loop
      vertex 49.0729 0 7.85317
      vertex 55 0 10
      vertex 10.9271 0 7.85317
    endloop
  endfacet
  facet normal 0 -1 0
    outer loop
      vertex 50.9271 0 7.85317
      vertex 55 0 10
      vertex 49.0729 0 7.85317
    endloop
  endfacet
  facet normal 0 -1 0
    outer loop
      vertex 52.4271 0 6.76336
      vertex 55 0 10
      vertex 50.9271 0 7.85317
    endloop
  endfacet
  facet normal 0 -1 0
    outer loop
      vertex 53 0 5
      vertex 55 0 10
      vertex 52.4271 0 6.76336
    endloop
  endfacet
  facet normal 0 -1 0
    outer loop
      vertex 55 0 0
      vertex 53 0 5
      vertex 52.4271 0 3.23664
    endloop
  endfacet
  facet normal 0 -1 0
    outer loop
      vertex 53 0 5
      vertex 55 0 0
      vertex 55 0 10
    endloop
  endfacet
  facet normal 0 -1 0
    outer loop
      vertex 50.9271 0 2.14683
      vertex 55 0 0
      vertex 52.4271 0 3.23664
    endloop
  endfacet
  facet normal 0 -1 0
    outer loop
      vertex 49.0729 0 2.14683
      vertex 55 0 0
      vertex 50.9271 0 2.14683
    endloop
  endfacet
  facet normal 0.555576 -0.831466 0
    outer loop
      vertex 56.9134 0.380602 0
      vertex 58.5355 1.46447 10
      vertex 56.9134 0.380602 10
    endloop
  endfacet
  facet normal 0.555576 -0.831466 0
    outer loop
      vertex 58.5355 1.46447 10
      vertex 56.9134 0.380602 0
      vertex 58.5355 1.46447 0
    endloop
  endfacet
  facet normal -0.980785 0.195092 0
    outer loop
      vertex 0 15 0
      vertex 0.380602 16.9134 10
      vertex 0.380602 16.9134 0
    endloop
  endfacet
  facet normal -0.980785 0.195092 0
    outer loop
      vertex 0.380602 16.9134 10
      vertex 0 15 0
      vertex 0 15 10
    endloop
  endfacet
  facet normal 0.980786 -0.195089 0
    outer loop
      vertex 59.6194 3.08658 10
      vertex 60 5 0
      vertex 60 5 10
    endloop
  endfacet
  facet normal 0.980786 -0.195089 0
    outer loop
      vertex 60 5 0
      vertex 59.6194 3.08658 10
      vertex 59.6194 3.08658 0
    endloop
  endfacet
  facet normal -0.555585 0.83146 0
    outer loop
      vertex 3.08658 19.6194 0
      vertex 1.46447 18.5355 10
      vertex 3.08658 19.6194 10
    endloop
  endfacet
  facet normal -0.555585 0.83146 0
    outer loop
      vertex 1.46447 18.5355 10
      vertex 3.08658 19.6194 0
      vertex 1.46447 18.5355 0
    endloop
  endfacet
  facet normal 0.831458 0.555587 0
    outer loop
      vertex 59.6194 16.9134 10
      vertex 58.5355 18.5355 0
      vertex 58.5355 18.5355 10
    endloop
  endfacet
  facet normal 0.831458 0.555587 0
    outer loop
      vertex 58.5355 18.5355 0
      vertex 59.6194 16.9134 10
      vertex 59.6194 16.9134 0
    endloop
  endfacet
  facet normal 0 0 -1
    outer loop
      vertex 55 0 0
      vertex 60 5 0
      vertex 59.6194 3.08658 0
    endloop
  endfacet
  facet normal -0 0 -1
    outer loop
      vertex 60 5 0
      vertex 55 0 0
      vertex 60 15 0
    endloop
  endfacet
  facet normal 0 0 -1
    outer loop
      vertex 55 0 0
      vertex 59.6194 3.08658 0
      vertex 58.5355 1.46447 0
    endloop
  endfacet
  facet normal 0 0 -1
    outer loop
      vertex 55 20 0
      vertex 60 15 0
      vertex 55 0 0
    endloop
  endfacet
  facet normal 0 0 -1
    outer loop
      vertex 55 0 0
      vertex 58.5355 1.46447 0
      vertex 56.9134 0.380602 0
    endloop
  endfacet
  facet normal 0 0 -1
    outer loop
      vertex 60 15 0
      vertex 55 20 0
      vertex 59.6194 16.9134 0
    endloop
  endfacet
  facet normal 0 0 -1
    outer loop
      vertex 59.6194 16.9134 0
      vertex 55 20 0
      vertex 58.5355 18.5355 0
    endloop
  endfacet
  facet normal 0 0 -1
    outer loop
      vertex 58.5355 18.5355 0
      vertex 55 20 0
      vertex 56.9134 19.6194 0
    endloop
  endfacet
  facet normal 0 0 -1
    outer loop
      vertex 5 0 0
      vertex 55 20 0
      vertex 55 0 0
    endloop
  endfacet
  facet normal 0 0 -1
    outer loop
      vertex 5 0 0
      vertex 5 20 0
      vertex 55 20 0
    endloop
  endfacet
  facet normal 0 0 -1
    outer loop
      vertex 0 5 0
      vertex 5 0 0
      vertex 3.08658 0.380602 0
    endloop
  endfacet
  facet normal 0 0 -1
    outer loop
      vertex 5 0 0
      vertex 0 5 0
      vertex 5 20 0
    endloop
  endfacet
  facet normal 0 0 -1
    outer loop
      vertex 0 5 0
      vertex 3.08658 0.380602 0
      vertex 1.46447 1.46447 0
    endloop
  endfacet
  facet normal 0 0 -1
    outer loop
      vertex 0 15 0
      vertex 5 20 0
      vertex 0 5 0
    endloop
  endfacet
  facet normal 0 0 -1
    outer loop
      vertex 0 5 0
      vertex 1.46447 1.46447 0
      vertex 0.380602 3.08658 0
    endloop
  endfacet
  facet normal 0 0 -1
    outer loop
      vertex 5 20 0
      vertex 0 15 0
      vertex 3.08658 19.6194 0
    endloop
  endfacet
  facet normal 0 0 -1
    outer loop
      vertex 3.08658 19.6194 0
      vertex 0 15 0
      vertex 1.46447 18.5355 0
    endloop
  endfacet
  facet normal 0 0 -1
    outer loop
      vertex 1.46447 18.5355 0
      vertex 0 15 0
      vertex 0.380602 16.9134 0
    endloop
  endfacet
  facet normal 0 1 -0
    outer loop
      vertex 55 20 0
      vertex 5 20 10
      vertex 55 20 10
    endloop
  endfacet
  facet normal 0 1 0
    outer loop
      vertex 5 20 10
      vertex 55 20 0
      vertex 5 20 0
    endloop
  endfacet
  facet normal 0.195091 0.980785 -0
    outer loop
      vertex 56.9134 19.6194 0
      vertex 55 20 10
      vertex 56.9134 19.6194 10
    endloop
  endfacet
  facet normal 0.195091 0.980785 0
    outer loop
      vertex 55 20 10
      vertex 56.9134 19.6194 0
      vertex 55 20 0
    endloop
  endfacet
  facet normal -0.980785 -0.19509 0
    outer loop
      vertex 0.380602 3.08658 0
      vertex 0 5 10
      vertex 0 5 0
    endloop
  endfacet
  facet normal -0.980785 -0.19509 0
    outer loop
      vertex 0 5 10
      vertex 0.380602 3.08658 0
      vertex 0.380602 3.08658 10
    endloop
  endfacet
  facet normal 0.83146 -0.555585 0
    outer loop
      vertex 58.5355 1.46447 10
      vertex 59.6194 3.08658 0
      vertex 59.6194 3.08658 10
    endloop
  endfacet
  facet normal 0.83146 -0.555585 0
    outer loop
      vertex 59.6194 3.08658 0
      vertex 58.5355 1.46447 10
      vertex 58.5355 1.46447 0
    endloop
  endfacet
  facet normal 0.555587 0.831458 -0
    outer loop
      vertex 58.5355 18.5355 0
      vertex 56.9134 19.6194 10
      vertex 58.5355 18.5355 10
    endloop
  endfacet
  facet normal 0.555587 0.831458 0
    outer loop
      vertex 56.9134 19.6194 10
      vertex 58.5355 18.5355 0
      vertex 56.9134 19.6194 0
    endloop
  endfacet
  facet normal 0 0 1
    outer loop
      vertex 55 20 10
      vertex 60 15 10
      vertex 59.6194 16.9134 10
    endloop
  endfacet
  facet normal 0 0 1
    outer loop
      vertex 60 15 10
      vertex 55 20 10
      vertex 60 5 10
    endloop
  endfacet
  facet normal 0 0 1
    outer loop
      vertex 55 20 10
      vertex 59.6194 16.9134 10
      vertex 58.5355 18.5355 10
    endloop
  endfacet
  facet normal 0 0 1
    outer loop
      vertex 55 0 10
      vertex 60 5 10
      vertex 55 20 10
    endloop
  endfacet
  facet normal 0 0 1
    outer loop
      vertex 55 20 10
      vertex 58.5355 18.5355 10
      vertex 56.9134 19.6194 10
    endloop
  endfacet
  facet normal 0 0 1
    outer loop
      vertex 60 5 10
      vertex 55 0 10
      vertex 59.6194 3.08658 10
    endloop
  endfacet
  facet normal 0 0 1
    outer loop
      vertex 59.6194 3.08658 10
      vertex 55 0 10
      vertex 58.5355 1.46447 10
    endloop
  endfacet
  facet normal 0 0 1
    outer loop
      vertex 58.5355 1.46447 10
      vertex 55 0 10
      vertex 56.9134 0.380602 10
    endloop
  endfacet
  facet normal -0 0 1
    outer loop
      vertex 5 20 10
      vertex 55 0 10
      vertex 55 20 10
    endloop
  endfacet
  facet normal 0 0 1
    outer loop
      vertex 5 20 10
      vertex 5 0 10
      vertex 55 0 10
    endloop
  endfacet
  facet normal 0 0 1
    outer loop
      vertex 0 15 10
      vertex 5 20 10
      vertex 3.08658 19.6194 10
    endloop
  endfacet
  facet normal 0 0 1
    outer loop
      vertex 5 20 10
      vertex 0 15 10
      vertex 5 0 10
    endloop
  endfacet
  facet normal 0 0 1
    outer loop
      vertex 0 15 10
      vertex 3.08658 19.6194 10
      vertex 1.46447 18.5355 10
    endloop
  endfacet
  facet normal -0 0 1
    outer loop
      vertex 0 5 10
      vertex 5 0 10
      vertex 0 15 10
    endloop
  endfacet
  facet normal 0 0 1
    outer loop
      vertex 0 15 10
      vertex 1.46447 18.5355 10
      vertex 0.380602 16.9134 10
    endloop
  endfacet
  facet normal 0 0 1
    outer loop
      vertex 5 0 10
      vertex 0 5 10
      vertex 3.08658 0.380602 10
    endloop
  endfacet
  facet normal 0 0 1
    outer loop
      vertex 3.08658 0.380602 10
      vertex 0 5 10
      vertex 1.46447 1.46447 10
    endloop
  endfacet
  facet normal 0 0 1
    outer loop
      vertex 1.46447 1.46447 10
      vertex 0 5 10
      vertex 0.380602 3.08658 10
    endloop
  endfacet
  facet normal -0.831468 -0.555573 0
    outer loop
      vertex 1.46447 1.46447 0
      vertex 0.380602 3.08658 10
      vertex 0.380602 3.08658 0
    endloop
  endfacet
  facet normal -0.831468 -0.555573 0
    outer loop
      vertex 0.380602 3.08658 10
      vertex 1.46447 1.46447 0
      vertex 1.46447 1.46447 10
    endloop
  endfacet
  facet normal 0.951057 0 -0.309017
    outer loop
      vertex 7.57295 0 6.76336
      vertex 7 10 5
      vertex 7.57295 10 6.76336
    endloop
  endfacet
  facet normal 0.951057 0 -0.309017
    outer loop
      vertex 7 10 5
      vertex 7.57295 0 6.76336
      vertex 7 0 5
    endloop
  endfacet
  facet normal -0.587784 0 -0.809018
    outer loop
      vertex 10.9271 0 7.85317
      vertex 12.4271 10 6.76336
      vertex 12.4271 0 6.76336
    endloop
  endfacet
  facet normal -0.587784 0 -0.809018
    outer loop
      vertex 12.4271 10 6.76336
      vertex 10.9271 0 7.85317
      vertex 10.9271 10 7.85317
    endloop
  endfacet
  facet normal -0.951065 0 -0.308992
    outer loop
      vertex 13 0 5
      vertex 12.4271 10 6.76336
      vertex 13 10 5
    endloop
  endfacet
  facet normal -0.951065 -0 -0.308992
    outer loop
      vertex 12.4271 10 6.76336
      vertex 13 0 5
      vertex 12.4271 0 6.76336
    endloop
  endfacet
  facet normal 0 0 -1
    outer loop
      vertex 9.07295 0 7.85317
      vertex 10.9271 10 7.85317
      vertex 10.9271 0 7.85317
    endloop
  endfacet
  facet normal -0 0 -1
    outer loop
      vertex 10.9271 10 7.85317
      vertex 9.07295 0 7.85317
      vertex 9.07295 10 7.85317
    endloop
  endfacet
  facet normal 0.587784 0 -0.809018
    outer loop
      vertex 7.57295 0 6.76336
      vertex 9.07295 10 7.85317
      vertex 9.07295 0 7.85317
    endloop
  endfacet
  facet normal 0.587784 0 -0.809018
    outer loop
      vertex 9.07295 10 7.85317
      vertex 7.57295 0 6.76336
      vertex 7.57295 10 6.76336
    endloop
  endfacet
  facet normal -0.587784 0 0.809018
    outer loop
      vertex 10.9271 10 2.14683
      vertex 12.4271 0 3.23664
      vertex 12.4271 10 3.23664
    endloop
  endfacet
  facet normal -0.587784 0 0.809018
    outer loop
      vertex 12.4271 0 3.23664
      vertex 10.9271 10 2.14683
      vertex 10.9271 0 2.14683
    endloop
  endfacet
  facet normal -0 0 1
    outer loop
      vertex 9.07295 10 2.14683
      vertex 10.9271 0 2.14683
      vertex 10.9271 10 2.14683
    endloop
  endfacet
  facet normal 0 0 1
    outer loop
      vertex 10.9271 0 2.14683
      vertex 9.07295 10 2.14683
      vertex 9.07295 0 2.14683
    endloop
  endfacet
  facet normal 0.951057 -0 0.309017
    outer loop
      vertex 7 0 5
      vertex 7.57295 10 3.23664
      vertex 7 10 5
    endloop
  endfacet
  facet normal 0.951057 0 0.309017
    outer loop
      vertex 7.57295 10 3.23664
      vertex 7 0 5
      vertex 7.57295 0 3.23664
    endloop
  endfacet
  facet normal 0.587784 0 0.809018
    outer loop
      vertex 7.57295 10 3.23664
      vertex 9.07295 0 2.14683
      vertex 9.07295 10 2.14683
    endloop
  endfacet
  facet normal 0.587784 0 0.809018
    outer loop
      vertex 9.07295 0 2.14683
      vertex 7.57295 10 3.23664
      vertex 7.57295 0 3.23664
    endloop
  endfacet
  facet normal -0.951065 0 0.308992
    outer loop
      vertex 12.4271 0 3.23664
      vertex 13 10 5
      vertex 12.4271 10 3.23664
    endloop
  endfacet
  facet normal -0.951065 0 0.308992
    outer loop
      vertex 13 10 5
      vertex 12.4271 0 3.23664
      vertex 13 0 5
    endloop
  endfacet
  facet normal 0 -1 0
    outer loop
      vertex 7.57295 10 6.76336
      vertex 10.9271 10 7.85317
      vertex 9.07295 10 7.85317
    endloop
  endfacet
  facet normal 0 -1 0
    outer loop
      vertex 7.57295 10 6.76336
      vertex 12.4271 10 6.76336
      vertex 10.9271 10 7.85317
    endloop
  endfacet
  facet normal 0 -1 0
    outer loop
      vertex 7 10 5
      vertex 12.4271 10 6.76336
      vertex 7.57295 10 6.76336
    endloop
  endfacet
  facet normal 0 -1 0
    outer loop
      vertex 7 10 5
      vertex 13 10 5
      vertex 12.4271 10 6.76336
    endloop
  endfacet
  facet normal 0 -1 0
    outer loop
      vertex 7.57295 10 3.23664
      vertex 13 10 5
      vertex 7 10 5
    endloop
  endfacet
  facet normal 0 -1 0
    outer loop
      vertex 7.57295 10 3.23664
      vertex 12.4271 10 3.23664
      vertex 13 10 5
    endloop
  endfacet
  facet normal 0 -1 0
    outer loop
      vertex 9.07295 10 2.14683
      vertex 12.4271 10 3.23664
      vertex 7.57295 10 3.23664
    endloop
  endfacet
  facet normal 0 -1 0
    outer loop
      vertex 12.4271 10 3.23664
      vertex 9.07295 10 2.14683
      vertex 10.9271 10 2.14683
    endloop
  endfacet
  facet normal 0.951065 0 -0.308992
    outer loop
      vertex 47.5729 0 6.76336
      vertex 47 10 5
      vertex 47.5729 10 6.76336
    endloop
  endfacet
  facet normal 0.951065 0 -0.308992
    outer loop
      vertex 47 10 5
      vertex 47.5729 0 6.76336
      vertex 47 0 5
    endloop
  endfacet
  facet normal -0.587784 0 -0.809018
    outer loop
      vertex 50.9271 0 7.85317
      vertex 52.4271 10 6.76336
      vertex 52.4271 0 6.76336
    endloop
  endfacet
  facet normal -0.587784 0 -0.809018
    outer loop
      vertex 52.4271 10 6.76336
      vertex 50.9271 0 7.85317
      vertex 50.9271 10 7.85317
    endloop
  endfacet
  facet normal -0.951065 0 -0.308992
    outer loop
      vertex 53 0 5
      vertex 52.4271 10 6.76336
      vertex 53 10 5
    endloop
  endfacet
  facet normal -0.951065 -0 -0.308992
    outer loop
      vertex 52.4271 10 6.76336
      vertex 53 0 5
      vertex 52.4271 0 6.76336
    endloop
  endfacet
  facet normal 0 0 -1
    outer loop
      vertex 49.0729 0 7.85317
      vertex 50.9271 10 7.85317
      vertex 50.9271 0 7.85317
    endloop
  endfacet
  facet normal -0 0 -1
    outer loop
      vertex 50.9271 10 7.85317
      vertex 49.0729 0 7.85317
      vertex 49.0729 10 7.85317
    endloop
  endfacet
  facet normal 0.587784 0 -0.809018
    outer loop
      vertex 47.5729 0 6.76336
      vertex 49.0729 10 7.85317
      vertex 49.0729 0 7.85317
    endloop
  endfacet
  facet normal 0.587784 0 -0.809018
    outer loop
      vertex 49.0729 10 7.85317
      vertex 47.5729 0 6.76336
      vertex 47.5729 10 6.76336
    endloop
  endfacet
  facet normal -0.587784 0 0.809018
    outer loop
      vertex 50.9271 10 2.14683
      vertex 52.4271 0 3.23664
      vertex 52.4271 10 3.23664
    endloop
  endfacet
  facet normal -0.587784 0 0.809018
    outer loop
      vertex 52.4271 0 3.23664
      vertex 50.9271 10 2.14683
      vertex 50.9271 0 2.14683
    endloop
  endfacet
  facet normal -0 0 1
    outer loop
      vertex 49.0729 10 2.14683
      vertex 50.9271 0 2.14683
      vertex 50.9271 10 2.14683
    endloop
  endfacet
  facet normal 0 0 1
    outer loop
      vertex 50.9271 0 2.14683
      vertex 49.0729 10 2.14683
      vertex 49.0729 0 2.14683
    endloop
  endfacet
  facet normal 0.951065 -0 0.308992
    outer loop
      vertex 47 0 5
      vertex 47.5729 10 3.23664
      vertex 47 10 5
    endloop
  endfacet
  facet normal 0.951065 0 0.308992
    outer loop
      vertex 47.5729 10 3.23664
      vertex 47 0 5
      vertex 47.5729 0 3.23664
    endloop
  endfacet
  facet normal 0.587784 0 0.809018
    outer loop
      vertex 47.5729 10 3.23664
      vertex 49.0729 0 2.14683
      vertex 49.0729 10 2.14683
    endloop
  endfacet
  facet normal 0.587784 0 0.809018
    outer loop
      vertex 49.0729 0 2.14683
      vertex 47.5729 10 3.23664
      vertex 47.5729 0 3.23664
    endloop
  endfacet
  facet normal -0.951065 0 0.308992
    outer loop
      vertex 52.4271 0 3.23664
      vertex 53 10 5
      vertex 52.4271 10 3.23664
    endloop
  endfacet
  facet normal -0.951065 0 0.308992
    outer loop
      vertex 53 10 5
      vertex 52.4271 0 3.23664
      vertex 53 0 5
    endloop
  endfacet
  facet normal 0 -1 0
    outer loop
      vertex 47.5729 10 6.76336
      vertex 50.9271 10 7.85317
      vertex 49.0729 10 7.85317
    endloop
  endfacet
  facet normal 0 -1 0
    outer loop
      vertex 47.5729 10 6.76336
      vertex 52.4271 10 6.76336
      vertex 50.9271 10 7.85317
    endloop
  endfacet
  facet normal 0 -1 0
    outer loop
      vertex 47 10 5
      vertex 52.4271 10 6.76336
      vertex 47.5729 10 6.76336
    endloop
  endfacet
  facet normal 0 -1 0
    outer loop
      vertex 47 10 5
      vertex 53 10 5
      vertex 52.4271 10 6.76336
    endloop
  endfacet
  facet normal 0 -1 0
    outer loop
      vertex 47.5729 10 3.23664
      vertex 53 10 5
      vertex 47 10 5
    endloop
  endfacet
  facet normal 0 -1 0
    outer loop
      vertex 47.5729 10 3.23664
      vertex 52.4271 10 3.23664
      vertex 53 10 5
    endloop
  endfacet
  facet normal 0 -1 0
    outer loop
      vertex 49.0729 10 2.14683
      vertex 52.4271 10 3.23664
      vertex 47.5729 10 3.23664
    endloop
  endfacet
  facet normal 0 -1 0
    outer loop
      vertex 52.4271 10 3.23664
      vertex 49.0729 10 2.14683
      vertex 50.9271 10 2.14683
    endloop
  endfacet
endsolid OpenSCAD_Model
