solid OpenSCAD_Model
  facet normal 1 -0 0
    outer loop
      vertex 90 15 55
      vertex 90 20 5
      vertex 90 20 55
    endloop
  endfacet
  facet normal 1 0 0
    outer loop
      vertex 90 20 5
      vertex 90 15 55
      vertex 90 15 5
    endloop
  endfacet
  facet normal 0 0 1
    outer loop
      vertex 45 70 55
      vertex 40 70 55
      vertex 45 20 55
    endloop
  endfacet
  facet normal -0 0 1
    outer loop
      vertex 45 20 55
      vertex 90 15 55
      vertex 90 20 55
    endloop
  endfacet
  facet normal 0 0 1
    outer loop
      vertex 45 20 55
      vertex 40 15 55
      vertex 90 15 55
    endloop
  endfacet
  facet normal 0 0 1
    outer loop
      vertex 40 15 55
      vertex 45 20 55
      vertex 40 70 55
    endloop
  endfacet
  facet normal 0 0 1
    outer loop
      vertex 0 48.541 5
      vertex 40 50 5
      vertex 0.474051 50 5
    endloop
  endfacet
  facet normal 0 0 1
    outer loop
      vertex 100 50 5
      vertex 90 20 5
      vertex 100 0 5
    endloop
  endfacet
  facet normal -0 0 1
    outer loop
      vertex 45 50 5
      vertex 90 20 5
      vertex 100 50 5
    endloop
  endfacet
  facet normal 0 0 1
    outer loop
      vertex 90 20 5
      vertex 45 50 5
      vertex 45 20 5
    endloop
  endfacet
  facet normal -0 0 1
    outer loop
      vertex 90 15 5
      vertex 100 0 5
      vertex 90 20 5
    endloop
  endfacet
  facet normal -0 0 1
    outer loop
      vertex 40 15 5
      vertex 100 0 5
      vertex 90 15 5
    endloop
  endfacet
  facet normal 0 0 1
    outer loop
      vertex 40 50 5
      vertex 0 48.541 5
      vertex 40 15 5
    endloop
  endfacet
  facet normal 0 0 1
    outer loop
      vertex 40 15 5
      vertex 0 0 5
      vertex 100 0 5
    endloop
  endfacet
  facet normal 0 0 1
    outer loop
      vertex 0 0 5
      vertex 40 15 5
      vertex 0 48.541 5
    endloop
  endfacet
  facet normal 0 0 -1
    outer loop
      vertex 40 50 5
      vertex 45 70 5
      vertex 45 50 5
    endloop
  endfacet
  facet normal -0 0 -1
    outer loop
      vertex 45 70 5
      vertex 40 50 5
      vertex 40 70 5
    endloop
  endfacet
  facet normal 0 0 -1
    outer loop
      vertex -5.11537 48.9779 5
      vertex 0 48.541 5
      vertex -1.90517 42.6775 5
    endloop
  endfacet
  facet normal 0 0 -1
    outer loop
      vertex 0.474051 50 5
      vertex 8.7904 91.7754 5
      vertex 13.5457 90.2303 5
    endloop
  endfacet
  facet normal 0 0 -1
    outer loop
      vertex 0 50 5
      vertex 8.7904 91.7754 5
      vertex 0.474051 50 5
    endloop
  endfacet
  facet normal 0 0 -1
    outer loop
      vertex 0 48.541 5
      vertex -5.11537 48.9779 5
      vertex 0 50 5
    endloop
  endfacet
  facet normal -0 0 -1
    outer loop
      vertex 0 50 5
      vertex -5.11537 48.9779 5
      vertex 8.7904 91.7754 5
    endloop
  endfacet
  facet normal 0 0 -1
    outer loop
      vertex -54.2133 59.6735 5
      vertex -5.11537 48.9779 5
      vertex -1.90517 42.6775 5
    endloop
  endfacet
  facet normal 0 0 -1
    outer loop
      vertex -5.11537 48.9779 5
      vertex -54.2133 59.6735 5
      vertex -52.6682 64.4287 5
    endloop
  endfacet
  facet normal -1 0 0
    outer loop
      vertex 40 50 5
      vertex 40 70 55
      vertex 40 70 5
    endloop
  endfacet
  facet normal -1 0 0
    outer loop
      vertex 40 15 55
      vertex 40 50 5
      vertex 40 15 5
    endloop
  endfacet
  facet normal -1 0 0
    outer loop
      vertex 40 50 5
      vertex 40 15 55
      vertex 40 70 55
    endloop
  endfacet
  facet normal 0 1 -0
    outer loop
      vertex 90 20 5
      vertex 45 20 55
      vertex 90 20 55
    endloop
  endfacet
  facet normal 0 1 0
    outer loop
      vertex 45 20 55
      vertex 90 20 5
      vertex 45 20 5
    endloop
  endfacet
  facet normal 0 -1 0
    outer loop
      vertex 40 15 5
      vertex 90 15 55
      vertex 40 15 55
    endloop
  endfacet
  facet normal 0 -1 -0
    outer loop
      vertex 90 15 55
      vertex 40 15 5
      vertex 90 15 5
    endloop
  endfacet
  facet normal 1 0 0
    outer loop
      vertex 45 70 55
      vertex 45 50 5
      vertex 45 70 5
    endloop
  endfacet
  facet normal 1 -0 0
    outer loop
      vertex 45 20 55
      vertex 45 50 5
      vertex 45 70 55
    endloop
  endfacet
  facet normal 1 0 0
    outer loop
      vertex 45 50 5
      vertex 45 20 55
      vertex 45 20 5
    endloop
  endfacet
  facet normal 0 1 -0
    outer loop
      vertex 45 70 5
      vertex 40 70 55
      vertex 45 70 55
    endloop
  endfacet
  facet normal 0 1 0
    outer loop
      vertex 40 70 55
      vertex 45 70 5
      vertex 40 70 5
    endloop
  endfacet
  facet normal 0.309019 0.951056 -0
    outer loop
      vertex 13.5457 90.2303 5
      vertex 8.7904 91.7754 55
      vertex 13.5457 90.2303 55
    endloop
  endfacet
  facet normal 0.309019 0.951056 0
    outer loop
      vertex 8.7904 91.7754 55
      vertex 13.5457 90.2303 5
      vertex 8.7904 91.7754 5
    endloop
  endfacet
  facet normal 0 0 1
    outer loop
      vertex -5.11537 48.9779 55
      vertex 13.5457 90.2303 55
      vertex 8.7904 91.7754 55
    endloop
  endfacet
  facet normal 0 0 1
    outer loop
      vertex 13.5457 90.2303 55
      vertex -5.11537 48.9779 55
      vertex -1.90517 42.6775 55
    endloop
  endfacet
  facet normal -0 0 1
    outer loop
      vertex -54.2133 59.6735 55
      vertex -5.11537 48.9779 55
      vertex -52.6682 64.4287 55
    endloop
  endfacet
  facet normal 0 0 1
    outer loop
      vertex -5.11537 48.9779 55
      vertex -54.2133 59.6735 55
      vertex -1.90517 42.6775 55
    endloop
  endfacet
  facet normal -0.309018 -0.951056 0
    outer loop
      vertex -54.2133 59.6735 5
      vertex -1.90517 42.6775 55
      vertex -54.2133 59.6735 55
    endloop
  endfacet
  facet normal -0.309018 -0.951056 -0
    outer loop
      vertex -1.90517 42.6775 55
      vertex -54.2133 59.6735 5
      vertex -1.90517 42.6775 5
    endloop
  endfacet
  facet normal -0.951056 0.309017 0
    outer loop
      vertex -5.11537 48.9779 5
      vertex 8.7904 91.7754 55
      vertex 8.7904 91.7754 5
    endloop
  endfacet
  facet normal -0.951056 0.309017 0
    outer loop
      vertex 8.7904 91.7754 55
      vertex -5.11537 48.9779 5
      vertex -5.11537 48.9779 55
    endloop
  endfacet
  facet normal 0.951056 -0.309018 0
    outer loop
      vertex 13.5457 90.2303 55
      vertex 0.474051 50 5
      vertex 13.5457 90.2303 5
    endloop
  endfacet
  facet normal 0.951056 -0.309018 -1.50083e-07
    outer loop
      vertex -1.90517 42.6775 55
      vertex 0.474051 50 5
      vertex 13.5457 90.2303 55
    endloop
  endfacet
  facet normal 0.951058 -0.309013 5.8656e-07
    outer loop
      vertex 0.474051 50 5
      vertex -1.90517 42.6775 55
      vertex 0 48.541 5
    endloop
  endfacet
  facet normal 0.951056 -0.309017 0
    outer loop
      vertex 0 48.541 5
      vertex -1.90517 42.6775 55
      vertex -1.90517 42.6775 5
    endloop
  endfacet
  facet normal 0.309016 0.951057 -0
    outer loop
      vertex -5.11537 48.9779 5
      vertex -52.6682 64.4287 55
      vertex -5.11537 48.9779 55
    endloop
  endfacet
  facet normal 0.309016 0.951057 0
    outer loop
      vertex -52.6682 64.4287 55
      vertex -5.11537 48.9779 5
      vertex -52.6682 64.4287 5
    endloop
  endfacet
  facet normal -0.951054 0.309025 0
    outer loop
      vertex -54.2133 59.6735 5
      vertex -52.6682 64.4287 55
      vertex -52.6682 64.4287 5
    endloop
  endfacet
  facet normal -0.951054 0.309025 0
    outer loop
      vertex -52.6682 64.4287 55
      vertex -54.2133 59.6735 5
      vertex -54.2133 59.6735 55
    endloop
  endfacet
  facet normal -0.809021 0.58778 0
    outer loop
      vertex -84.5672 36.7203 5
      vertex -81.6283 40.7654 55
      vertex -81.6283 40.7654 5
    endloop
  endfacet
  facet normal -0.809021 0.58778 0
    outer loop
      vertex -81.6283 40.7654 55
      vertex -84.5672 36.7203 5
      vertex -84.5672 36.7203 55
    endloop
  endfacet
  facet normal 0 0 1
    outer loop
      vertex -81.6283 40.7654 55
      vertex -48.1615 10.27 55
      vertex -41.1775 11.3762 55
    endloop
  endfacet
  facet normal 0 0 1
    outer loop
      vertex -48.1615 10.27 55
      vertex -81.6283 40.7654 55
      vertex -84.5672 36.7203 55
    endloop
  endfacet
  facet normal -0 0 1
    outer loop
      vertex -48.1615 10.27 55
      vertex -73.5056 -33.1198 55
      vertex -41.1775 11.3762 55
    endloop
  endfacet
  facet normal 0 -0 1
    outer loop
      vertex -73.5056 -33.1198 55
      vertex -48.1615 10.27 55
      vertex -77.5507 -30.1809 55
    endloop
  endfacet
  facet normal 0 0 -1
    outer loop
      vertex -73.5056 -33.1198 5
      vertex -48.1615 10.27 5
      vertex -41.1775 11.3762 5
    endloop
  endfacet
  facet normal 0 0 -1
    outer loop
      vertex -48.1615 10.27 5
      vertex -73.5056 -33.1198 5
      vertex -77.5507 -30.1809 5
    endloop
  endfacet
  facet normal 0 0 -1
    outer loop
      vertex -48.1615 10.27 5
      vertex -81.6283 40.7654 5
      vertex -41.1775 11.3762 5
    endloop
  endfacet
  facet normal 0 -0 -1
    outer loop
      vertex -81.6283 40.7654 5
      vertex -48.1615 10.27 5
      vertex -84.5672 36.7203 5
    endloop
  endfacet
  facet normal 0.809018 -0.587784 0
    outer loop
      vertex -73.5056 -33.1198 55
      vertex -41.1775 11.3762 5
      vertex -41.1775 11.3762 55
    endloop
  endfacet
  facet normal 0.809018 -0.587784 0
    outer loop
      vertex -41.1775 11.3762 5
      vertex -73.5056 -33.1198 55
      vertex -73.5056 -33.1198 5
    endloop
  endfacet
  facet normal -0.587785 -0.809017 0
    outer loop
      vertex -84.5672 36.7203 5
      vertex -48.1615 10.27 55
      vertex -84.5672 36.7203 55
    endloop
  endfacet
  facet normal -0.587785 -0.809017 -0
    outer loop
      vertex -48.1615 10.27 55
      vertex -84.5672 36.7203 5
      vertex -48.1615 10.27 5
    endloop
  endfacet
  facet normal 0.587785 0.809017 -0
    outer loop
      vertex -41.1775 11.3762 5
      vertex -81.6283 40.7654 55
      vertex -41.1775 11.3762 55
    endloop
  endfacet
  facet normal 0.587785 0.809017 0
    outer loop
      vertex -81.6283 40.7654 55
      vertex -41.1775 11.3762 5
      vertex -81.6283 40.7654 5
    endloop
  endfacet
  facet normal -0.809018 0.587784 0
    outer loop
      vertex -77.5507 -30.1809 5
      vertex -48.1615 10.27 55
      vertex -48.1615 10.27 5
    endloop
  endfacet
  facet normal -0.809018 0.587784 0
    outer loop
      vertex -48.1615 10.27 55
      vertex -77.5507 -30.1809 5
      vertex -77.5507 -30.1809 55
    endloop
  endfacet
  facet normal -0.58778 -0.809021 0
    outer loop
      vertex -77.5507 -30.1809 5
      vertex -73.5056 -33.1198 55
      vertex -77.5507 -30.1809 55
    endloop
  endfacet
  facet normal -0.58778 -0.809021 -0
    outer loop
      vertex -73.5056 -33.1198 55
      vertex -77.5507 -30.1809 5
      vertex -73.5056 -33.1198 5
    endloop
  endfacet
  facet normal -0.809011 -0.587793 0
    outer loop
      vertex -61.0558 -69.081 5
      vertex -63.9948 -65.0359 55
      vertex -63.9948 -65.0359 5
    endloop
  endfacet
  facet normal -0.809011 -0.587793 0
    outer loop
      vertex -63.9948 -65.0359 55
      vertex -61.0558 -69.081 5
      vertex -61.0558 -69.081 55
    endloop
  endfacet
  facet normal -0 0 1
    outer loop
      vertex -24.6501 -42.6307 55
      vertex 8.78429 -80.1426 55
      vertex -23.5439 -35.6467 55
    endloop
  endfacet
  facet normal 0 0 1
    outer loop
      vertex 8.78429 -80.1426 55
      vertex -24.6501 -42.6307 55
      vertex 4.7392 -83.0815 55
    endloop
  endfacet
  facet normal 0 0 1
    outer loop
      vertex -63.9948 -65.0359 55
      vertex -24.6501 -42.6307 55
      vertex -23.5439 -35.6467 55
    endloop
  endfacet
  facet normal 0 0 1
    outer loop
      vertex -24.6501 -42.6307 55
      vertex -63.9948 -65.0359 55
      vertex -61.0558 -69.081 55
    endloop
  endfacet
  facet normal 0 0 -1
    outer loop
      vertex -24.6501 -42.6307 5
      vertex 8.78429 -80.1426 5
      vertex 4.7392 -83.0815 5
    endloop
  endfacet
  facet normal 0 0 -1
    outer loop
      vertex 8.78429 -80.1426 5
      vertex -24.6501 -42.6307 5
      vertex -23.5439 -35.6467 5
    endloop
  endfacet
  facet normal 0 0 -1
    outer loop
      vertex -63.9948 -65.0359 5
      vertex -24.6501 -42.6307 5
      vertex -61.0558 -69.081 5
    endloop
  endfacet
  facet normal -0 0 -1
    outer loop
      vertex -24.6501 -42.6307 5
      vertex -63.9948 -65.0359 5
      vertex -23.5439 -35.6467 5
    endloop
  endfacet
  facet normal 0.809017 0.587786 0
    outer loop
      vertex 8.78429 -80.1426 55
      vertex -23.5439 -35.6467 5
      vertex -23.5439 -35.6467 55
    endloop
  endfacet
  facet normal 0.809017 0.587786 0
    outer loop
      vertex -23.5439 -35.6467 5
      vertex 8.78429 -80.1426 55
      vertex 8.78429 -80.1426 5
    endloop
  endfacet
  facet normal 0.587785 -0.809017 0
    outer loop
      vertex -61.0558 -69.081 5
      vertex -24.6501 -42.6307 55
      vertex -61.0558 -69.081 55
    endloop
  endfacet
  facet normal 0.587785 -0.809017 0
    outer loop
      vertex -24.6501 -42.6307 55
      vertex -61.0558 -69.081 5
      vertex -24.6501 -42.6307 5
    endloop
  endfacet
  facet normal -0.587784 0.809018 0
    outer loop
      vertex -23.5439 -35.6467 5
      vertex -63.9948 -65.0359 55
      vertex -23.5439 -35.6467 55
    endloop
  endfacet
  facet normal -0.587784 0.809018 0
    outer loop
      vertex -63.9948 -65.0359 55
      vertex -23.5439 -35.6467 5
      vertex -63.9948 -65.0359 5
    endloop
  endfacet
  facet normal -0.809016 -0.587786 0
    outer loop
      vertex 4.7392 -83.0815 5
      vertex -24.6501 -42.6307 55
      vertex -24.6501 -42.6307 5
    endloop
  endfacet
  facet normal -0.809016 -0.587786 0
    outer loop
      vertex -24.6501 -42.6307 55
      vertex 4.7392 -83.0815 5
      vertex 4.7392 -83.0815 55
    endloop
  endfacet
  facet normal 0.587781 -0.80902 0
    outer loop
      vertex 4.7392 -83.0815 5
      vertex 8.78429 -80.1426 55
      vertex 4.7392 -83.0815 55
    endloop
  endfacet
  facet normal 0.587781 -0.80902 0
    outer loop
      vertex 8.78429 -80.1426 55
      vertex 4.7392 -83.0815 5
      vertex 8.78429 -80.1426 5
    endloop
  endfacet
  facet normal 0.309019 -0.951056 0
    outer loop
      vertex 42.0774 -80.9598 5
      vertex 46.8327 -79.4147 55
      vertex 42.0774 -80.9598 55
    endloop
  endfacet
  facet normal 0.309019 -0.951056 0
    outer loop
      vertex 46.8327 -79.4147 55
      vertex 42.0774 -80.9598 5
      vertex 46.8327 -79.4147 5
    endloop
  endfacet
  facet normal 0 0 1
    outer loop
      vertex 78.9346 -16.4111 55
      vertex 32.9269 -36.6172 55
      vertex 80.4797 -21.1664 55
    endloop
  endfacet
  facet normal 0 -0 1
    outer loop
      vertex 32.9269 -36.6172 55
      vertex 78.9346 -16.4111 55
      vertex 26.6265 -33.407 55
    endloop
  endfacet
  facet normal 0 0 1
    outer loop
      vertex 32.9269 -36.6172 55
      vertex 42.0774 -80.9598 55
      vertex 46.8327 -79.4147 55
    endloop
  endfacet
  facet normal 0 0 1
    outer loop
      vertex 42.0774 -80.9598 55
      vertex 32.9269 -36.6172 55
      vertex 26.6265 -33.407 55
    endloop
  endfacet
  facet normal 0 0 -1
    outer loop
      vertex 42.0774 -80.9598 5
      vertex 32.9269 -36.6172 5
      vertex 46.8327 -79.4147 5
    endloop
  endfacet
  facet normal -0 -0 -1
    outer loop
      vertex 32.9269 -36.6172 5
      vertex 42.0774 -80.9598 5
      vertex 26.6265 -33.407 5
    endloop
  endfacet
  facet normal 0 0 -1
    outer loop
      vertex 32.9269 -36.6172 5
      vertex 78.9346 -16.4111 5
      vertex 80.4797 -21.1664 5
    endloop
  endfacet
  facet normal 0 0 -1
    outer loop
      vertex 78.9346 -16.4111 5
      vertex 32.9269 -36.6172 5
      vertex 26.6265 -33.407 5
    endloop
  endfacet
  facet normal -0.309016 0.951057 0
    outer loop
      vertex 78.9346 -16.4111 5
      vertex 26.6265 -33.407 55
      vertex 78.9346 -16.4111 55
    endloop
  endfacet
  facet normal -0.309016 0.951057 0
    outer loop
      vertex 26.6265 -33.407 55
      vertex 78.9346 -16.4111 5
      vertex 26.6265 -33.407 5
    endloop
  endfacet
  facet normal 0.951056 0.309018 0
    outer loop
      vertex 46.8327 -79.4147 55
      vertex 32.9269 -36.6172 5
      vertex 32.9269 -36.6172 55
    endloop
  endfacet
  facet normal 0.951056 0.309018 0
    outer loop
      vertex 32.9269 -36.6172 5
      vertex 46.8327 -79.4147 55
      vertex 46.8327 -79.4147 5
    endloop
  endfacet
  facet normal -0.951056 -0.309018 0
    outer loop
      vertex 42.0774 -80.9598 5
      vertex 26.6265 -33.407 55
      vertex 26.6265 -33.407 5
    endloop
  endfacet
  facet normal -0.951056 -0.309018 0
    outer loop
      vertex 26.6265 -33.407 55
      vertex 42.0774 -80.9598 5
      vertex 42.0774 -80.9598 55
    endloop
  endfacet
  facet normal 0.309016 -0.951057 0
    outer loop
      vertex 32.9269 -36.6172 5
      vertex 80.4797 -21.1664 55
      vertex 32.9269 -36.6172 55
    endloop
  endfacet
  facet normal 0.309016 -0.951057 0
    outer loop
      vertex 80.4797 -21.1664 55
      vertex 32.9269 -36.6172 5
      vertex 80.4797 -21.1664 5
    endloop
  endfacet
  facet normal 0.951056 0.309019 0
    outer loop
      vertex 80.4797 -21.1664 55
      vertex 78.9346 -16.4111 5
      vertex 78.9346 -16.4111 55
    endloop
  endfacet
  facet normal 0.951056 0.309019 0
    outer loop
      vertex 78.9346 -16.4111 5
      vertex 80.4797 -21.1664 55
      vertex 80.4797 -21.1664 5
    endloop
  endfacet
  facet normal 1 -0 0
    outer loop
      vertex 100 0 5
      vertex 100 50 0
      vertex 100 50 5
    endloop
  endfacet
  facet normal 1 0 0
    outer loop
      vertex 100 50 0
      vertex 100 0 5
      vertex 100 0 0
    endloop
  endfacet
  facet normal 0 0 -1
    outer loop
      vertex 0 0 0
      vertex 100 50 0
      vertex 100 0 0
    endloop
  endfacet
  facet normal -0 0 -1
    outer loop
      vertex 100 50 0
      vertex 0 0 0
      vertex 0 50 0
    endloop
  endfacet
  facet normal -1 0 0
    outer loop
      vertex 0 50 0
      vertex 0 48.541 5
      vertex 0 50 5
    endloop
  endfacet
  facet normal -1 0 0
    outer loop
      vertex 0 0 0
      vertex 0 48.541 5
      vertex 0 50 0
    endloop
  endfacet
  facet normal -1 -0 0
    outer loop
      vertex 0 48.541 5
      vertex 0 0 0
      vertex 0 0 5
    endloop
  endfacet
  facet normal 0 1 -0
    outer loop
      vertex 100 50 0
      vertex 45 50 5
      vertex 100 50 5
    endloop
  endfacet
  facet normal 0 1 0
    outer loop
      vertex 0 50 0
      vertex 45 50 5
      vertex 100 50 0
    endloop
  endfacet
  facet normal 0 1 0
    outer loop
      vertex 45 50 5
      vertex 0 50 0
      vertex 40 50 5
    endloop
  endfacet
  facet normal 0 1 0
    outer loop
      vertex 40 50 5
      vertex 0 50 0
      vertex 0.474051 50 5
    endloop
  endfacet
  facet normal 0 1 0
    outer loop
      vertex 0.474051 50 5
      vertex 0 50 0
      vertex 0 50 5
    endloop
  endfacet
  facet normal 0 -1 0
    outer loop
      vertex 0 0 0
      vertex 100 0 5
      vertex 0 0 5
    endloop
  endfacet
  facet normal 0 -1 -0
    outer loop
      vertex 100 0 5
      vertex 0 0 0
      vertex 100 0 0
    endloop
  endfacet
endsolid OpenSCAD_Model
