solid OpenSCAD_Model
  facet normal 1 -0 0
    outer loop
      vertex 50 0 20
      vertex 50 50 0
      vertex 50 50 20
    endloop
  endfacet
  facet normal 1 0 0
    outer loop
      vertex 50 50 0
      vertex 50 0 20
      vertex 50 0 0
    endloop
  endfacet
  facet normal 0 0 1
    outer loop
      vertex 50 50 20
      vertex 40 40 20
      vertex 50 0 20
    endloop
  endfacet
  facet normal 0 0 1
    outer loop
      vertex 50 50 20
      vertex 10 40 20
      vertex 40 40 20
    endloop
  endfacet
  facet normal 0 0 1
    outer loop
      vertex 10 40 20
      vertex 0 50 20
      vertex 10 10 20
    endloop
  endfacet
  facet normal -0 0 1
    outer loop
      vertex 0 50 20
      vertex 10 40 20
      vertex 50 50 20
    endloop
  endfacet
  facet normal -0 0 1
    outer loop
      vertex 40 10 20
      vertex 50 0 20
      vertex 40 40 20
    endloop
  endfacet
  facet normal -0 0 1
    outer loop
      vertex 10 10 20
      vertex 50 0 20
      vertex 40 10 20
    endloop
  endfacet
  facet normal 0 0 1
    outer loop
      vertex 10 10 20
      vertex 0 0 20
      vertex 50 0 20
    endloop
  endfacet
  facet normal 0 0 1
    outer loop
      vertex 0 0 20
      vertex 10 10 20
      vertex 0 50 20
    endloop
  endfacet
  facet normal 0 0 -1
    outer loop
      vertex 0 0 0
      vertex 50 50 0
      vertex 50 0 0
    endloop
  endfacet
  facet normal -0 0 -1
    outer loop
      vertex 50 50 0
      vertex 0 0 0
      vertex 0 50 0
    endloop
  endfacet
  facet normal -1 0 0
    outer loop
      vertex 0 0 0
      vertex 0 50 20
      vertex 0 50 0
    endloop
  endfacet
  facet normal -1 -0 0
    outer loop
      vertex 0 50 20
      vertex 0 0 0
      vertex 0 0 20
    endloop
  endfacet
  facet normal 0 1 -0
    outer loop
      vertex 50 50 0
      vertex 0 50 20
      vertex 50 50 20
    endloop
  endfacet
  facet normal 0 1 0
    outer loop
      vertex 0 50 20
      vertex 50 50 0
      vertex 0 50 0
    endloop
  endfacet
  facet normal 0 -1 0
    outer loop
      vertex 0 0 0
      vertex 50 0 20
      vertex 0 0 20
    endloop
  endfacet
  facet normal 0 -1 -0
    outer loop
      vertex 50 0 20
      vertex 0 0 0
      vertex 50 0 0
    endloop
  endfacet
  facet normal -1 0 0
    outer loop
      vertex 40 10 15
      vertex 40 40 20
      vertex 40 40 15
    endloop
  endfacet
  facet normal -1 -0 0
    outer loop
      vertex 40 40 20
      vertex 40 10 15
      vertex 40 10 20
    endloop
  endfacet
  facet normal 1 -0 0
    outer loop
      vertex 10 10 20
      vertex 10 40 15
      vertex 10 40 20
    endloop
  endfacet
  facet normal 1 0 0
    outer loop
      vertex 10 40 15
      vertex 10 10 20
      vertex 10 10 15
    endloop
  endfacet
  facet normal 0 -1 0
    outer loop
      vertex 10 40 15
      vertex 40 40 20
      vertex 10 40 20
    endloop
  endfacet
  facet normal 0 -1 -0
    outer loop
      vertex 40 40 20
      vertex 10 40 15
      vertex 40 40 15
    endloop
  endfacet
  facet normal 0 1 -0
    outer loop
      vertex 40 10 15
      vertex 10 10 20
      vertex 40 10 20
    endloop
  endfacet
  facet normal 0 1 0
    outer loop
      vertex 10 10 20
      vertex 40 10 15
      vertex 10 10 15
    endloop
  endfacet
  facet normal -0 0 1
    outer loop
      vertex 10 40 15
      vertex 40 10 15
      vertex 40 40 15
    endloop
  endfacet
  facet normal 0 0 1
    outer loop
      vertex 40 10 15
      vertex 10 40 15
      vertex 10 10 15
    endloop
  endfacet
endsolid OpenSCAD_Model
