solid OpenSCAD_Model
  facet normal 0.994522 0.104527 0
    outer loop
      vertex 25 0 10
      vertex 24.4537 5.19779 -10
      vertex 24.4537 5.19779 10
    endloop
  endfacet
  facet normal 0.994522 0.104527 0
    outer loop
      vertex 24.4537 5.19779 -10
      vertex 25 0 10
      vertex 25 0 -10
    endloop
  endfacet
  facet normal 0.951054 0.309026 0
    outer loop
      vertex 24.4537 5.19779 10
      vertex 22.8386 10.1684 -10
      vertex 22.8386 10.1684 10
    endloop
  endfacet
  facet normal 0.951054 0.309026 0
    outer loop
      vertex 22.8386 10.1684 -10
      vertex 24.4537 5.19779 10
      vertex 24.4537 5.19779 -10
    endloop
  endfacet
  facet normal 0.866026 0.5 0
    outer loop
      vertex 22.8386 10.1684 10
      vertex 20.2254 14.6946 -10
      vertex 20.2254 14.6946 10
    endloop
  endfacet
  facet normal 0.866026 0.5 0
    outer loop
      vertex 20.2254 14.6946 -10
      vertex 22.8386 10.1684 10
      vertex 22.8386 10.1684 -10
    endloop
  endfacet
  facet normal 0.743151 0.669123 0
    outer loop
      vertex 20.2254 14.6946 10
      vertex 16.7283 18.5786 -10
      vertex 16.7283 18.5786 10
    endloop
  endfacet
  facet normal 0.743151 0.669123 0
    outer loop
      vertex 16.7283 18.5786 -10
      vertex 20.2254 14.6946 10
      vertex 20.2254 14.6946 -10
    endloop
  endfacet
  facet normal 0.58778 0.809021 -0
    outer loop
      vertex 16.7283 18.5786 -10
      vertex 12.5 21.6506 10
      vertex 16.7283 18.5786 10
    endloop
  endfacet
  facet normal 0.58778 0.809021 0
    outer loop
      vertex 12.5 21.6506 10
      vertex 16.7283 18.5786 -10
      vertex 12.5 21.6506 -10
    endloop
  endfacet
  facet normal 0.40674 0.913544 -0
    outer loop
      vertex 12.5 21.6506 -10
      vertex 7.72542 23.7764 10
      vertex 12.5 21.6506 10
    endloop
  endfacet
  facet normal 0.40674 0.913544 0
    outer loop
      vertex 7.72542 23.7764 10
      vertex 12.5 21.6506 -10
      vertex 7.72542 23.7764 -10
    endloop
  endfacet
  facet normal 0.207906 0.978149 -0
    outer loop
      vertex 7.72542 23.7764 -10
      vertex 2.61321 24.863 10
      vertex 7.72542 23.7764 10
    endloop
  endfacet
  facet normal 0.207906 0.978149 0
    outer loop
      vertex 2.61321 24.863 10
      vertex 7.72542 23.7764 -10
      vertex 2.61321 24.863 -10
    endloop
  endfacet
  facet normal 0 1 -0
    outer loop
      vertex 2.61321 24.863 -10
      vertex -2.61321 24.863 10
      vertex 2.61321 24.863 10
    endloop
  endfacet
  facet normal 0 1 0
    outer loop
      vertex -2.61321 24.863 10
      vertex 2.61321 24.863 -10
      vertex -2.61321 24.863 -10
    endloop
  endfacet
  facet normal -0.207906 0.978149 0
    outer loop
      vertex -2.61321 24.863 -10
      vertex -7.72542 23.7764 10
      vertex -2.61321 24.863 10
    endloop
  endfacet
  facet normal -0.207906 0.978149 0
    outer loop
      vertex -7.72542 23.7764 10
      vertex -2.61321 24.863 -10
      vertex -7.72542 23.7764 -10
    endloop
  endfacet
  facet normal -0.40674 0.913544 0
    outer loop
      vertex -7.72542 23.7764 -10
      vertex -12.5 21.6506 10
      vertex -7.72542 23.7764 10
    endloop
  endfacet
  facet normal -0.40674 0.913544 0
    outer loop
      vertex -12.5 21.6506 10
      vertex -7.72542 23.7764 -10
      vertex -12.5 21.6506 -10
    endloop
  endfacet
  facet normal -0.58778 0.809021 0
    outer loop
      vertex -12.5 21.6506 -10
      vertex -16.7283 18.5786 10
      vertex -12.5 21.6506 10
    endloop
  endfacet
  facet normal -0.58778 0.809021 0
    outer loop
      vertex -16.7283 18.5786 10
      vertex -12.5 21.6506 -10
      vertex -16.7283 18.5786 -10
    endloop
  endfacet
  facet normal -0.743151 0.669123 0
    outer loop
      vertex -20.2254 14.6946 -10
      vertex -16.7283 18.5786 10
      vertex -16.7283 18.5786 -10
    endloop
  endfacet
  facet normal -0.743151 0.669123 0
    outer loop
      vertex -16.7283 18.5786 10
      vertex -20.2254 14.6946 -10
      vertex -20.2254 14.6946 10
    endloop
  endfacet
  facet normal -0.866026 0.5 0
    outer loop
      vertex -22.8386 10.1684 -10
      vertex -20.2254 14.6946 10
      vertex -20.2254 14.6946 -10
    endloop
  endfacet
  facet normal -0.866026 0.5 0
    outer loop
      vertex -20.2254 14.6946 10
      vertex -22.8386 10.1684 -10
      vertex -22.8386 10.1684 10
    endloop
  endfacet
  facet normal -0.951054 0.309026 0
    outer loop
      vertex -24.4537 5.19779 -10
      vertex -22.8386 10.1684 10
      vertex -22.8386 10.1684 -10
    endloop
  endfacet
  facet normal -0.951054 0.309026 0
    outer loop
      vertex -22.8386 10.1684 10
      vertex -24.4537 5.19779 -10
      vertex -24.4537 5.19779 10
    endloop
  endfacet
  facet normal -0.994522 0.104527 0
    outer loop
      vertex -25 -0 -10
      vertex -24.4537 5.19779 10
      vertex -24.4537 5.19779 -10
    endloop
  endfacet
  facet normal -0.994522 0.104527 0
    outer loop
      vertex -24.4537 5.19779 10
      vertex -25 -0 -10
      vertex -25 -0 10
    endloop
  endfacet
  facet normal -0.994522 -0.104527 0
    outer loop
      vertex -24.4537 -5.19779 -10
      vertex -25 -0 10
      vertex -25 -0 -10
    endloop
  endfacet
  facet normal -0.994522 -0.104527 0
    outer loop
      vertex -25 -0 10
      vertex -24.4537 -5.19779 -10
      vertex -24.4537 -5.19779 10
    endloop
  endfacet
  facet normal -0.951054 -0.309026 0
    outer loop
      vertex -22.8386 -10.1684 -10
      vertex -24.4537 -5.19779 10
      vertex -24.4537 -5.19779 -10
    endloop
  endfacet
  facet normal -0.951054 -0.309026 0
    outer loop
      vertex -24.4537 -5.19779 10
      vertex -22.8386 -10.1684 -10
      vertex -22.8386 -10.1684 10
    endloop
  endfacet
  facet normal -0.866026 -0.5 0
    outer loop
      vertex -20.2254 -14.6946 -10
      vertex -22.8386 -10.1684 10
      vertex -22.8386 -10.1684 -10
    endloop
  endfacet
  facet normal -0.866026 -0.5 0
    outer loop
      vertex -22.8386 -10.1684 10
      vertex -20.2254 -14.6946 -10
      vertex -20.2254 -14.6946 10
    endloop
  endfacet
  facet normal -0.743151 -0.669123 0
    outer loop
      vertex -16.7283 -18.5786 -10
      vertex -20.2254 -14.6946 10
      vertex -20.2254 -14.6946 -10
    endloop
  endfacet
  facet normal -0.743151 -0.669123 0
    outer loop
      vertex -20.2254 -14.6946 10
      vertex -16.7283 -18.5786 -10
      vertex -16.7283 -18.5786 10
    endloop
  endfacet
  facet normal -0.58778 -0.809021 0
    outer loop
      vertex -16.7283 -18.5786 -10
      vertex -12.5 -21.6506 10
      vertex -16.7283 -18.5786 10
    endloop
  endfacet
  facet normal -0.58778 -0.809021 -0
    outer loop
      vertex -12.5 -21.6506 10
      vertex -16.7283 -18.5786 -10
      vertex -12.5 -21.6506 -10
    endloop
  endfacet
  facet normal -0.40674 -0.913544 0
    outer loop
      vertex -12.5 -21.6506 -10
      vertex -7.72542 -23.7764 10
      vertex -12.5 -21.6506 10
    endloop
  endfacet
  facet normal -0.40674 -0.913544 -0
    outer loop
      vertex -7.72542 -23.7764 10
      vertex -12.5 -21.6506 -10
      vertex -7.72542 -23.7764 -10
    endloop
  endfacet
  facet normal -0.207906 -0.978149 0
    outer loop
      vertex -7.72542 -23.7764 -10
      vertex -2.61321 -24.863 10
      vertex -7.72542 -23.7764 10
    endloop
  endfacet
  facet normal -0.207906 -0.978149 -0
    outer loop
      vertex -2.61321 -24.863 10
      vertex -7.72542 -23.7764 -10
      vertex -2.61321 -24.863 -10
    endloop
  endfacet
  facet normal 0 -1 0
    outer loop
      vertex -2.61321 -24.863 -10
      vertex 2.61321 -24.863 10
      vertex -2.61321 -24.863 10
    endloop
  endfacet
  facet normal 0 -1 -0
    outer loop
      vertex 2.61321 -24.863 10
      vertex -2.61321 -24.863 -10
      vertex 2.61321 -24.863 -10
    endloop
  endfacet
  facet normal 0.207906 -0.978149 0
    outer loop
      vertex 2.61321 -24.863 -10
      vertex 7.72542 -23.7764 10
      vertex 2.61321 -24.863 10
    endloop
  endfacet
  facet normal 0.207906 -0.978149 0
    outer loop
      vertex 7.72542 -23.7764 10
      vertex 2.61321 -24.863 -10
      vertex 7.72542 -23.7764 -10
    endloop
  endfacet
  facet normal 0.40674 -0.913544 0
    outer loop
      vertex 7.72542 -23.7764 -10
      vertex 12.5 -21.6506 10
      vertex 7.72542 -23.7764 10
    endloop
  endfacet
  facet normal 0.40674 -0.913544 0
    outer loop
      vertex 12.5 -21.6506 10
      vertex 7.72542 -23.7764 -10
      vertex 12.5 -21.6506 -10
    endloop
  endfacet
  facet normal 0.58778 -0.809021 0
    outer loop
      vertex 12.5 -21.6506 -10
      vertex 16.7283 -18.5786 10
      vertex 12.5 -21.6506 10
    endloop
  endfacet
  facet normal 0.58778 -0.809021 0
    outer loop
      vertex 16.7283 -18.5786 10
      vertex 12.5 -21.6506 -10
      vertex 16.7283 -18.5786 -10
    endloop
  endfacet
  facet normal 0.743151 -0.669123 0
    outer loop
      vertex 16.7283 -18.5786 10
      vertex 20.2254 -14.6946 -10
      vertex 20.2254 -14.6946 10
    endloop
  endfacet
  facet normal 0.743151 -0.669123 0
    outer loop
      vertex 20.2254 -14.6946 -10
      vertex 16.7283 -18.5786 10
      vertex 16.7283 -18.5786 -10
    endloop
  endfacet
  facet normal 0.866026 -0.5 0
    outer loop
      vertex 20.2254 -14.6946 10
      vertex 22.8386 -10.1684 -10
      vertex 22.8386 -10.1684 10
    endloop
  endfacet
  facet normal 0.866026 -0.5 0
    outer loop
      vertex 22.8386 -10.1684 -10
      vertex 20.2254 -14.6946 10
      vertex 20.2254 -14.6946 -10
    endloop
  endfacet
  facet normal 0.951054 -0.309026 0
    outer loop
      vertex 22.8386 -10.1684 10
      vertex 24.4537 -5.19779 -10
      vertex 24.4537 -5.19779 10
    endloop
  endfacet
  facet normal 0.951054 -0.309026 0
    outer loop
      vertex 24.4537 -5.19779 -10
      vertex 22.8386 -10.1684 10
      vertex 22.8386 -10.1684 -10
    endloop
  endfacet
  facet normal 0.994522 -0.104527 0
    outer loop
      vertex 24.4537 -5.19779 10
      vertex 25 0 -10
      vertex 25 0 10
    endloop
  endfacet
  facet normal 0.994522 -0.104527 0
    outer loop
      vertex 25 0 -10
      vertex 24.4537 -5.19779 10
      vertex 24.4537 -5.19779 -10
    endloop
  endfacet
  facet normal 0 0 -1
    outer loop
      vertex 24.4537 -5.19779 -10
      vertex 24.4537 5.19779 -10
      vertex 25 0 -10
    endloop
  endfacet
  facet normal 0 0 -1
    outer loop
      vertex 22.8386 -10.1684 -10
      vertex 24.4537 5.19779 -10
      vertex 24.4537 -5.19779 -10
    endloop
  endfacet
  facet normal 0 0 -1
    outer loop
      vertex 22.8386 -10.1684 -10
      vertex 22.8386 10.1684 -10
      vertex 24.4537 5.19779 -10
    endloop
  endfacet
  facet normal 0 0 -1
    outer loop
      vertex 20.2254 -14.6946 -10
      vertex 22.8386 10.1684 -10
      vertex 22.8386 -10.1684 -10
    endloop
  endfacet
  facet normal 0 0 -1
    outer loop
      vertex 20.2254 -14.6946 -10
      vertex 20.2254 14.6946 -10
      vertex 22.8386 10.1684 -10
    endloop
  endfacet
  facet normal 0 0 -1
    outer loop
      vertex 16.7283 -18.5786 -10
      vertex 20.2254 14.6946 -10
      vertex 20.2254 -14.6946 -10
    endloop
  endfacet
  facet normal 0 0 -1
    outer loop
      vertex 16.7283 -18.5786 -10
      vertex 16.7283 18.5786 -10
      vertex 20.2254 14.6946 -10
    endloop
  endfacet
  facet normal 0 0 -1
    outer loop
      vertex 12.5 -21.6506 -10
      vertex 16.7283 18.5786 -10
      vertex 16.7283 -18.5786 -10
    endloop
  endfacet
  facet normal 0 0 -1
    outer loop
      vertex 12.5 -21.6506 -10
      vertex 12.5 21.6506 -10
      vertex 16.7283 18.5786 -10
    endloop
  endfacet
  facet normal 0 0 -1
    outer loop
      vertex 7.72542 -23.7764 -10
      vertex 12.5 21.6506 -10
      vertex 12.5 -21.6506 -10
    endloop
  endfacet
  facet normal 0 0 -1
    outer loop
      vertex 7.72542 -23.7764 -10
      vertex 7.72542 23.7764 -10
      vertex 12.5 21.6506 -10
    endloop
  endfacet
  facet normal 0 0 -1
    outer loop
      vertex 2.61321 -24.863 -10
      vertex 7.72542 23.7764 -10
      vertex 7.72542 -23.7764 -10
    endloop
  endfacet
  facet normal 0 0 -1
    outer loop
      vertex 2.61321 -24.863 -10
      vertex 2.61321 24.863 -10
      vertex 7.72542 23.7764 -10
    endloop
  endfacet
  facet normal 0 0 -1
    outer loop
      vertex -2.61321 -24.863 -10
      vertex 2.61321 24.863 -10
      vertex 2.61321 -24.863 -10
    endloop
  endfacet
  facet normal 0 0 -1
    outer loop
      vertex -2.61321 -24.863 -10
      vertex -2.61321 24.863 -10
      vertex 2.61321 24.863 -10
    endloop
  endfacet
  facet normal 0 0 -1
    outer loop
      vertex -7.72542 -23.7764 -10
      vertex -2.61321 24.863 -10
      vertex -2.61321 -24.863 -10
    endloop
  endfacet
  facet normal 0 0 -1
    outer loop
      vertex -7.72542 -23.7764 -10
      vertex -7.72542 23.7764 -10
      vertex -2.61321 24.863 -10
    endloop
  endfacet
  facet normal 0 0 -1
    outer loop
      vertex -12.5 -21.6506 -10
      vertex -7.72542 23.7764 -10
      vertex -7.72542 -23.7764 -10
    endloop
  endfacet
  facet normal 0 0 -1
    outer loop
      vertex -12.5 -21.6506 -10
      vertex -12.5 21.6506 -10
      vertex -7.72542 23.7764 -10
    endloop
  endfacet
  facet normal 0 0 -1
    outer loop
      vertex -16.7283 -18.5786 -10
      vertex -12.5 21.6506 -10
      vertex -12.5 -21.6506 -10
    endloop
  endfacet
  facet normal 0 0 -1
    outer loop
      vertex -16.7283 -18.5786 -10
      vertex -16.7283 18.5786 -10
      vertex -12.5 21.6506 -10
    endloop
  endfacet
  facet normal 0 0 -1
    outer loop
      vertex -20.2254 -14.6946 -10
      vertex -16.7283 18.5786 -10
      vertex -16.7283 -18.5786 -10
    endloop
  endfacet
  facet normal 0 0 -1
    outer loop
      vertex -20.2254 -14.6946 -10
      vertex -20.2254 14.6946 -10
      vertex -16.7283 18.5786 -10
    endloop
  endfacet
  facet normal 0 0 -1
    outer loop
      vertex -22.8386 -10.1684 -10
      vertex -20.2254 14.6946 -10
      vertex -20.2254 -14.6946 -10
    endloop
  endfacet
  facet normal 0 0 -1
    outer loop
      vertex -22.8386 -10.1684 -10
      vertex -22.8386 10.1684 -10
      vertex -20.2254 14.6946 -10
    endloop
  endfacet
  facet normal 0 0 -1
    outer loop
      vertex -24.4537 -5.19779 -10
      vertex -22.8386 10.1684 -10
      vertex -22.8386 -10.1684 -10
    endloop
  endfacet
  facet normal 0 0 -1
    outer loop
      vertex -24.4537 -5.19779 -10
      vertex -24.4537 5.19779 -10
      vertex -22.8386 10.1684 -10
    endloop
  endfacet
  facet normal 0 -0 -1
    outer loop
      vertex -24.4537 5.19779 -10
      vertex -24.4537 -5.19779 -10
      vertex -25 -0 -10
    endloop
  endfacet
  facet normal 0 0 1
    outer loop
      vertex 24.4537 5.19779 10
      vertex 24.4537 -5.19779 10
      vertex 25 0 10
    endloop
  endfacet
  facet normal 0 0 1
    outer loop
      vertex 22.8386 10.1684 10
      vertex 24.4537 -5.19779 10
      vertex 24.4537 5.19779 10
    endloop
  endfacet
  facet normal 0 0 1
    outer loop
      vertex 22.8386 10.1684 10
      vertex 22.8386 -10.1684 10
      vertex 24.4537 -5.19779 10
    endloop
  endfacet
  facet normal 0 0 1
    outer loop
      vertex 20.2254 14.6946 10
      vertex 22.8386 -10.1684 10
      vertex 22.8386 10.1684 10
    endloop
  endfacet
  facet normal 0 0 1
    outer loop
      vertex 20.2254 14.6946 10
      vertex 20.2254 -14.6946 10
      vertex 22.8386 -10.1684 10
    endloop
  endfacet
  facet normal 0 0 1
    outer loop
      vertex 16.7283 18.5786 10
      vertex 20.2254 -14.6946 10
      vertex 20.2254 14.6946 10
    endloop
  endfacet
  facet normal 0 0 1
    outer loop
      vertex 16.7283 18.5786 10
      vertex 16.7283 -18.5786 10
      vertex 20.2254 -14.6946 10
    endloop
  endfacet
  facet normal 0 0 1
    outer loop
      vertex 12.5 21.6506 10
      vertex 16.7283 -18.5786 10
      vertex 16.7283 18.5786 10
    endloop
  endfacet
  facet normal 0 0 1
    outer loop
      vertex 12.5 21.6506 10
      vertex 12.5 -21.6506 10
      vertex 16.7283 -18.5786 10
    endloop
  endfacet
  facet normal 0 0 1
    outer loop
      vertex 7.72542 23.7764 10
      vertex 12.5 -21.6506 10
      vertex 12.5 21.6506 10
    endloop
  endfacet
  facet normal 0 0 1
    outer loop
      vertex 7.72542 23.7764 10
      vertex 7.72542 -23.7764 10
      vertex 12.5 -21.6506 10
    endloop
  endfacet
  facet normal 0 0 1
    outer loop
      vertex 2.61321 24.863 10
      vertex 7.72542 -23.7764 10
      vertex 7.72542 23.7764 10
    endloop
  endfacet
  facet normal 0 0 1
    outer loop
      vertex 2.61321 24.863 10
      vertex 2.61321 -24.863 10
      vertex 7.72542 -23.7764 10
    endloop
  endfacet
  facet normal -0 0 1
    outer loop
      vertex -2.61321 24.863 10
      vertex 2.61321 -24.863 10
      vertex 2.61321 24.863 10
    endloop
  endfacet
  facet normal 0 0 1
    outer loop
      vertex -2.61321 24.863 10
      vertex -2.61321 -24.863 10
      vertex 2.61321 -24.863 10
    endloop
  endfacet
  facet normal -0 0 1
    outer loop
      vertex -7.72542 23.7764 10
      vertex -2.61321 -24.863 10
      vertex -2.61321 24.863 10
    endloop
  endfacet
  facet normal 0 0 1
    outer loop
      vertex -7.72542 23.7764 10
      vertex -7.72542 -23.7764 10
      vertex -2.61321 -24.863 10
    endloop
  endfacet
  facet normal -0 0 1
    outer loop
      vertex -12.5 21.6506 10
      vertex -7.72542 -23.7764 10
      vertex -7.72542 23.7764 10
    endloop
  endfacet
  facet normal 0 0 1
    outer loop
      vertex -12.5 21.6506 10
      vertex -12.5 -21.6506 10
      vertex -7.72542 -23.7764 10
    endloop
  endfacet
  facet normal -0 0 1
    outer loop
      vertex -16.7283 18.5786 10
      vertex -12.5 -21.6506 10
      vertex -12.5 21.6506 10
    endloop
  endfacet
  facet normal 0 0 1
    outer loop
      vertex -16.7283 18.5786 10
      vertex -16.7283 -18.5786 10
      vertex -12.5 -21.6506 10
    endloop
  endfacet
  facet normal -0 0 1
    outer loop
      vertex -20.2254 14.6946 10
      vertex -16.7283 -18.5786 10
      vertex -16.7283 18.5786 10
    endloop
  endfacet
  facet normal 0 0 1
    outer loop
      vertex -20.2254 14.6946 10
      vertex -20.2254 -14.6946 10
      vertex -16.7283 -18.5786 10
    endloop
  endfacet
  facet normal -0 0 1
    outer loop
      vertex -22.8386 10.1684 10
      vertex -20.2254 -14.6946 10
      vertex -20.2254 14.6946 10
    endloop
  endfacet
  facet normal 0 0 1
    outer loop
      vertex -22.8386 10.1684 10
      vertex -22.8386 -10.1684 10
      vertex -20.2254 -14.6946 10
    endloop
  endfacet
  facet normal -0 0 1
    outer loop
      vertex -24.4537 5.19779 10
      vertex -22.8386 -10.1684 10
      vertex -22.8386 10.1684 10
    endloop
  endfacet
  facet normal 0 0 1
    outer loop
      vertex -24.4537 5.19779 10
      vertex -24.4537 -5.19779 10
      vertex -22.8386 -10.1684 10
    endloop
  endfacet
  facet normal 0 -0 1
    outer loop
      vertex -24.4537 -5.19779 10
      vertex -24.4537 5.19779 10
      vertex -25 -0 10
    endloop
  endfacet
endsolid OpenSCAD_Model
