solid OpenSCAD_Model
  facet normal 1 -0 0
    outer loop
      vertex 25 -25 2.5
      vertex 25 25 -2.5
      vertex 25 25 2.5
    endloop
  endfacet
  facet normal 1 0 0
    outer loop
      vertex 25 25 -2.5
      vertex 25 -25 2.5
      vertex 25 -25 -2.5
    endloop
  endfacet
  facet normal -0 0 1
    outer loop
      vertex -25 25 2.5
      vertex 25 -25 2.5
      vertex 25 25 2.5
    endloop
  endfacet
  facet normal 0 0 1
    outer loop
      vertex 25 -25 2.5
      vertex -25 25 2.5
      vertex -25 -25 2.5
    endloop
  endfacet
  facet normal 0 0 -1
    outer loop
      vertex -25 -25 -2.5
      vertex 25 25 -2.5
      vertex 25 -25 -2.5
    endloop
  endfacet
  facet normal -0 0 -1
    outer loop
      vertex 25 25 -2.5
      vertex -25 -25 -2.5
      vertex -25 25 -2.5
    endloop
  endfacet
  facet normal -1 0 0
    outer loop
      vertex -25 -25 -2.5
      vertex -25 25 2.5
      vertex -25 25 -2.5
    endloop
  endfacet
  facet normal -1 -0 0
    outer loop
      vertex -25 25 2.5
      vertex -25 -25 -2.5
      vertex -25 -25 2.5
    endloop
  endfacet
  facet normal 0 1 -0
    outer loop
      vertex 25 25 -2.5
      vertex -25 25 2.5
      vertex 25 25 2.5
    endloop
  endfacet
  facet normal 0 1 0
    outer loop
      vertex -25 25 2.5
      vertex 25 25 -2.5
      vertex -25 25 -2.5
    endloop
  endfacet
  facet normal 0 -1 0
    outer loop
      vertex -25 -25 -2.5
      vertex 25 -25 2.5
      vertex -25 -25 2.5
    endloop
  endfacet
  facet normal 0 -1 -0
    outer loop
      vertex 25 -25 2.5
      vertex -25 -25 -2.5
      vertex 25 -25 -2.5
    endloop
  endfacet
  facet normal 1 -0 0
    outer loop
      vertex 25 -25 10.5
      vertex 25 25 5.5
      vertex 25 25 10.5
    endloop
  endfacet
  facet normal 1 0 0
    outer loop
      vertex 25 25 5.5
      vertex 25 -25 10.5
      vertex 25 -25 5.5
    endloop
  endfacet
  facet normal -0 0 1
    outer loop
      vertex -25 25 10.5
      vertex 25 -25 10.5
      vertex 25 25 10.5
    endloop
  endfacet
  facet normal 0 0 1
    outer loop
      vertex 25 -25 10.5
      vertex -25 25 10.5
      vertex -25 -25 10.5
    endloop
  endfacet
  facet normal 0 0 -1
    outer loop
      vertex -25 -25 5.5
      vertex 25 25 5.5
      vertex 25 -25 5.5
    endloop
  endfacet
  facet normal -0 0 -1
    outer loop
      vertex 25 25 5.5
      vertex -25 -25 5.5
      vertex -25 25 5.5
    endloop
  endfacet
  facet normal -1 0 0
    outer loop
      vertex -25 -25 5.5
      vertex -25 25 10.5
      vertex -25 25 5.5
    endloop
  endfacet
  facet normal -1 -0 0
    outer loop
      vertex -25 25 10.5
      vertex -25 -25 5.5
      vertex -25 -25 10.5
    endloop
  endfacet
  facet normal 0 1 -0
    outer loop
      vertex 25 25 5.5
      vertex -25 25 10.5
      vertex 25 25 10.5
    endloop
  endfacet
  facet normal 0 1 0
    outer loop
      vertex -25 25 10.5
      vertex 25 25 5.5
      vertex -25 25 5.5
    endloop
  endfacet
  facet normal 0 -1 0
    outer loop
      vertex -25 -25 5.5
      vertex 25 -25 10.5
      vertex -25 -25 10.5
    endloop
  endfacet
  facet normal 0 -1 -0
    outer loop
      vertex 25 -25 10.5
      vertex -25 -25 5.5
      vertex 25 -25 5.5
    endloop
  endfacet
  facet normal 1 -0 0
    outer loop
      vertex 25 -25 18.5
      vertex 25 25 13.5
      vertex 25 25 18.5
    endloop
  endfacet
  facet normal 1 0 0
    outer loop
      vertex 25 25 13.5
      vertex 25 -25 18.5
      vertex 25 -25 13.5
    endloop
  endfacet
  facet normal -0 0 1
    outer loop
      vertex -25 25 18.5
      vertex 25 -25 18.5
      vertex 25 25 18.5
    endloop
  endfacet
  facet normal 0 0 1
    outer loop
      vertex 25 -25 18.5
      vertex -25 25 18.5
      vertex -25 -25 18.5
    endloop
  endfacet
  facet normal 0 0 -1
    outer loop
      vertex -25 -25 13.5
      vertex 25 25 13.5
      vertex 25 -25 13.5
    endloop
  endfacet
  facet normal -0 0 -1
    outer loop
      vertex 25 25 13.5
      vertex -25 -25 13.5
      vertex -25 25 13.5
    endloop
  endfacet
  facet normal -1 0 0
    outer loop
      vertex -25 -25 13.5
      vertex -25 25 18.5
      vertex -25 25 13.5
    endloop
  endfacet
  facet normal -1 -0 0
    outer loop
      vertex -25 25 18.5
      vertex -25 -25 13.5
      vertex -25 -25 18.5
    endloop
  endfacet
  facet normal 0 1 -0
    outer loop
      vertex 25 25 13.5
      vertex -25 25 18.5
      vertex 25 25 18.5
    endloop
  endfacet
  facet normal 0 1 0
    outer loop
      vertex -25 25 18.5
      vertex 25 25 13.5
      vertex -25 25 13.5
    endloop
  endfacet
  facet normal 0 -1 0
    outer loop
      vertex -25 -25 13.5
      vertex 25 -25 18.5
      vertex -25 -25 18.5
    endloop
  endfacet
  facet normal 0 -1 -0
    outer loop
      vertex 25 -25 18.5
      vertex -25 -25 13.5
      vertex 25 -25 13.5
    endloop
  endfacet
  facet normal 1 -0 0
    outer loop
      vertex 25 -25 26.5
      vertex 25 25 21.5
      vertex 25 25 26.5
    endloop
  endfacet
  facet normal 1 0 0
    outer loop
      vertex 25 25 21.5
      vertex 25 -25 26.5
      vertex 25 -25 21.5
    endloop
  endfacet
  facet normal -0 0 1
    outer loop
      vertex -25 25 26.5
      vertex 25 -25 26.5
      vertex 25 25 26.5
    endloop
  endfacet
  facet normal 0 0 1
    outer loop
      vertex 25 -25 26.5
      vertex -25 25 26.5
      vertex -25 -25 26.5
    endloop
  endfacet
  facet normal 0 0 -1
    outer loop
      vertex -25 -25 21.5
      vertex 25 25 21.5
      vertex 25 -25 21.5
    endloop
  endfacet
  facet normal -0 0 -1
    outer loop
      vertex 25 25 21.5
      vertex -25 -25 21.5
      vertex -25 25 21.5
    endloop
  endfacet
  facet normal -1 0 0
    outer loop
      vertex -25 -25 21.5
      vertex -25 25 26.5
      vertex -25 25 21.5
    endloop
  endfacet
  facet normal -1 -0 0
    outer loop
      vertex -25 25 26.5
      vertex -25 -25 21.5
      vertex -25 -25 26.5
    endloop
  endfacet
  facet normal 0 1 -0
    outer loop
      vertex 25 25 21.5
      vertex -25 25 26.5
      vertex 25 25 26.5
    endloop
  endfacet
  facet normal 0 1 0
    outer loop
      vertex -25 25 26.5
      vertex 25 25 21.5
      vertex -25 25 21.5
    endloop
  endfacet
  facet normal 0 -1 0
    outer loop
      vertex -25 -25 21.5
      vertex 25 -25 26.5
      vertex -25 -25 26.5
    endloop
  endfacet
  facet normal 0 -1 -0
    outer loop
      vertex 25 -25 26.5
      vertex -25 -25 21.5
      vertex 25 -25 21.5
    endloop
  endfacet
  facet normal 1 -0 0
    outer loop
      vertex 25 -25 34.5
      vertex 25 25 29.5
      vertex 25 25 34.5
    endloop
  endfacet
  facet normal 1 0 0
    outer loop
      vertex 25 25 29.5
      vertex 25 -25 34.5
      vertex 25 -25 29.5
    endloop
  endfacet
  facet normal -0 0 1
    outer loop
      vertex -25 25 34.5
      vertex 25 -25 34.5
      vertex 25 25 34.5
    endloop
  endfacet
  facet normal 0 0 1
    outer loop
      vertex 25 -25 34.5
      vertex -25 25 34.5
      vertex -25 -25 34.5
    endloop
  endfacet
  facet normal 0 0 -1
    outer loop
      vertex -25 -25 29.5
      vertex 25 25 29.5
      vertex 25 -25 29.5
    endloop
  endfacet
  facet normal -0 0 -1
    outer loop
      vertex 25 25 29.5
      vertex -25 -25 29.5
      vertex -25 25 29.5
    endloop
  endfacet
  facet normal -1 0 0
    outer loop
      vertex -25 -25 29.5
      vertex -25 25 34.5
      vertex -25 25 29.5
    endloop
  endfacet
  facet normal -1 -0 0
    outer loop
      vertex -25 25 34.5
      vertex -25 -25 29.5
      vertex -25 -25 34.5
    endloop
  endfacet
  facet normal 0 1 -0
    outer loop
      vertex 25 25 29.5
      vertex -25 25 34.5
      vertex 25 25 34.5
    endloop
  endfacet
  facet normal 0 1 0
    outer loop
      vertex -25 25 34.5
      vertex 25 25 29.5
      vertex -25 25 29.5
    endloop
  endfacet
  facet normal 0 -1 0
    outer loop
      vertex -25 -25 29.5
      vertex 25 -25 34.5
      vertex -25 -25 34.5
    endloop
  endfacet
  facet normal 0 -1 -0
    outer loop
      vertex 25 -25 34.5
      vertex -25 -25 29.5
      vertex 25 -25 29.5
    endloop
  endfacet
  facet normal 1 -0 0
    outer loop
      vertex 25 -25 42.5
      vertex 25 25 37.5
      vertex 25 25 42.5
    endloop
  endfacet
  facet normal 1 0 0
    outer loop
      vertex 25 25 37.5
      vertex 25 -25 42.5
      vertex 25 -25 37.5
    endloop
  endfacet
  facet normal -0 0 1
    outer loop
      vertex -25 25 42.5
      vertex 25 -25 42.5
      vertex 25 25 42.5
    endloop
  endfacet
  facet normal 0 0 1
    outer loop
      vertex 25 -25 42.5
      vertex -25 25 42.5
      vertex -25 -25 42.5
    endloop
  endfacet
  facet normal 0 0 -1
    outer loop
      vertex -25 -25 37.5
      vertex 25 25 37.5
      vertex 25 -25 37.5
    endloop
  endfacet
  facet normal -0 0 -1
    outer loop
      vertex 25 25 37.5
      vertex -25 -25 37.5
      vertex -25 25 37.5
    endloop
  endfacet
  facet normal -1 0 0
    outer loop
      vertex -25 -25 37.5
      vertex -25 25 42.5
      vertex -25 25 37.5
    endloop
  endfacet
  facet normal -1 -0 0
    outer loop
      vertex -25 25 42.5
      vertex -25 -25 37.5
      vertex -25 -25 42.5
    endloop
  endfacet
  facet normal 0 1 -0
    outer loop
      vertex 25 25 37.5
      vertex -25 25 42.5
      vertex 25 25 42.5
    endloop
  endfacet
  facet normal 0 1 0
    outer loop
      vertex -25 25 42.5
      vertex 25 25 37.5
      vertex -25 25 37.5
    endloop
  endfacet
  facet normal 0 -1 0
    outer loop
      vertex -25 -25 37.5
      vertex 25 -25 42.5
      vertex -25 -25 42.5
    endloop
  endfacet
  facet normal 0 -1 -0
    outer loop
      vertex 25 -25 42.5
      vertex -25 -25 37.5
      vertex 25 -25 37.5
    endloop
  endfacet
endsolid OpenSCAD_Model
