solid OpenSCAD_Model
  facet normal 1 -0 0
    outer loop
      vertex 7.5 -7.5 32.5
      vertex 7.5 7.5 17.5
      vertex 7.5 7.5 32.5
    endloop
  endfacet
  facet normal 1 0 0
    outer loop
      vertex 7.5 7.5 17.5
      vertex 7.5 -7.5 32.5
      vertex 7.5 -7.5 17.5
    endloop
  endfacet
  facet normal -0 0 1
    outer loop
      vertex -7.5 7.5 32.5
      vertex 7.5 -7.5 32.5
      vertex 7.5 7.5 32.5
    endloop
  endfacet
  facet normal 0 0 1
    outer loop
      vertex 7.5 -7.5 32.5
      vertex -7.5 7.5 32.5
      vertex -7.5 -7.5 32.5
    endloop
  endfacet
  facet normal 0 0 -1
    outer loop
      vertex -7.5 -7.5 17.5
      vertex 7.5 7.5 17.5
      vertex 7.5 -7.5 17.5
    endloop
  endfacet
  facet normal -0 0 -1
    outer loop
      vertex 7.5 7.5 17.5
      vertex -7.5 -7.5 17.5
      vertex -7.5 7.5 17.5
    endloop
  endfacet
  facet normal -1 0 0
    outer loop
      vertex -7.5 -7.5 17.5
      vertex -7.5 7.5 32.5
      vertex -7.5 7.5 17.5
    endloop
  endfacet
  facet normal -1 -0 0
    outer loop
      vertex -7.5 7.5 32.5
      vertex -7.5 -7.5 17.5
      vertex -7.5 -7.5 32.5
    endloop
  endfacet
  facet normal 0 1 0
    outer loop
      vertex 7.5 7.5 32.5
      vertex 0 7.5 30
      vertex -7.5 7.5 32.5
    endloop
  endfacet
  facet normal 0 1 0
    outer loop
      vertex 7.5 7.5 32.5
      vertex 1.91342 7.5 29.6194
      vertex 0 7.5 30
    endloop
  endfacet
  facet normal 0 1 0
    outer loop
      vertex 7.5 7.5 32.5
      vertex 3.53553 7.5 28.5355
      vertex 1.91342 7.5 29.6194
    endloop
  endfacet
  facet normal 0 1 0
    outer loop
      vertex 7.5 7.5 32.5
      vertex 4.6194 7.5 26.9134
      vertex 3.53553 7.5 28.5355
    endloop
  endfacet
  facet normal 0 1 0
    outer loop
      vertex 7.5 7.5 32.5
      vertex 5 7.5 25
      vertex 4.6194 7.5 26.9134
    endloop
  endfacet
  facet normal 0 1 -0
    outer loop
      vertex 7.5 7.5 17.5
      vertex 5 7.5 25
      vertex 7.5 7.5 32.5
    endloop
  endfacet
  facet normal 0 1 0
    outer loop
      vertex 1.91342 7.5 20.3806
      vertex 7.5 7.5 17.5
      vertex 0 7.5 20
    endloop
  endfacet
  facet normal 0 1 0
    outer loop
      vertex 3.53553 7.5 21.4645
      vertex 7.5 7.5 17.5
      vertex 1.91342 7.5 20.3806
    endloop
  endfacet
  facet normal 0 1 0
    outer loop
      vertex 4.6194 7.5 23.0866
      vertex 7.5 7.5 17.5
      vertex 3.53553 7.5 21.4645
    endloop
  endfacet
  facet normal 0 1 0
    outer loop
      vertex 5 7.5 25
      vertex 7.5 7.5 17.5
      vertex 4.6194 7.5 23.0866
    endloop
  endfacet
  facet normal 0 1 -0
    outer loop
      vertex -1.91342 7.5 29.6194
      vertex -7.5 7.5 32.5
      vertex 0 7.5 30
    endloop
  endfacet
  facet normal 0 1 -0
    outer loop
      vertex -3.53553 7.5 28.5355
      vertex -7.5 7.5 32.5
      vertex -1.91342 7.5 29.6194
    endloop
  endfacet
  facet normal 0 1 -0
    outer loop
      vertex -4.6194 7.5 26.9134
      vertex -7.5 7.5 32.5
      vertex -3.53553 7.5 28.5355
    endloop
  endfacet
  facet normal 0 1 -0
    outer loop
      vertex -5 7.5 25
      vertex -7.5 7.5 32.5
      vertex -4.6194 7.5 26.9134
    endloop
  endfacet
  facet normal 0 1 0
    outer loop
      vertex -7.5 7.5 17.5
      vertex -5 7.5 25
      vertex -4.6194 7.5 23.0866
    endloop
  endfacet
  facet normal 0 1 0
    outer loop
      vertex -7.5 7.5 17.5
      vertex 0 7.5 20
      vertex 7.5 7.5 17.5
    endloop
  endfacet
  facet normal 0 1 0
    outer loop
      vertex -5 7.5 25
      vertex -7.5 7.5 17.5
      vertex -7.5 7.5 32.5
    endloop
  endfacet
  facet normal 0 1 0
    outer loop
      vertex -3.53553 7.5 21.4645
      vertex -7.5 7.5 17.5
      vertex -4.6194 7.5 23.0866
    endloop
  endfacet
  facet normal 0 1 0
    outer loop
      vertex -1.91342 7.5 20.3806
      vertex -7.5 7.5 17.5
      vertex -3.53553 7.5 21.4645
    endloop
  endfacet
  facet normal 0 1 0
    outer loop
      vertex 0 7.5 20
      vertex -7.5 7.5 17.5
      vertex -1.91342 7.5 20.3806
    endloop
  endfacet
  facet normal 0 -1 0
    outer loop
      vertex -7.5 -7.5 32.5
      vertex 0 -7.5 30
      vertex 7.5 -7.5 32.5
    endloop
  endfacet
  facet normal 0 -1 0
    outer loop
      vertex -7.5 -7.5 32.5
      vertex -1.91342 -7.5 29.6194
      vertex 0 -7.5 30
    endloop
  endfacet
  facet normal 0 -1 0
    outer loop
      vertex -7.5 -7.5 32.5
      vertex -3.53553 -7.5 28.5355
      vertex -1.91342 -7.5 29.6194
    endloop
  endfacet
  facet normal 0 -1 0
    outer loop
      vertex -7.5 -7.5 32.5
      vertex -4.6194 -7.5 26.9134
      vertex -3.53553 -7.5 28.5355
    endloop
  endfacet
  facet normal 0 -1 0
    outer loop
      vertex -7.5 -7.5 32.5
      vertex -5 -7.5 25
      vertex -4.6194 -7.5 26.9134
    endloop
  endfacet
  facet normal 0 -1 0
    outer loop
      vertex -7.5 -7.5 17.5
      vertex -5 -7.5 25
      vertex -7.5 -7.5 32.5
    endloop
  endfacet
  facet normal 0 -1 -0
    outer loop
      vertex -1.91342 -7.5 20.3806
      vertex -7.5 -7.5 17.5
      vertex 0 -7.5 20
    endloop
  endfacet
  facet normal 0 -1 -0
    outer loop
      vertex -3.53553 -7.5 21.4645
      vertex -7.5 -7.5 17.5
      vertex -1.91342 -7.5 20.3806
    endloop
  endfacet
  facet normal 0 -1 -0
    outer loop
      vertex -4.6194 -7.5 23.0866
      vertex -7.5 -7.5 17.5
      vertex -3.53553 -7.5 21.4645
    endloop
  endfacet
  facet normal 0 -1 -0
    outer loop
      vertex -5 -7.5 25
      vertex -7.5 -7.5 17.5
      vertex -4.6194 -7.5 23.0866
    endloop
  endfacet
  facet normal 0 -1 0
    outer loop
      vertex 1.91342 -7.5 29.6194
      vertex 7.5 -7.5 32.5
      vertex 0 -7.5 30
    endloop
  endfacet
  facet normal 0 -1 0
    outer loop
      vertex 3.53553 -7.5 28.5355
      vertex 7.5 -7.5 32.5
      vertex 1.91342 -7.5 29.6194
    endloop
  endfacet
  facet normal 0 -1 0
    outer loop
      vertex 4.6194 -7.5 26.9134
      vertex 7.5 -7.5 32.5
      vertex 3.53553 -7.5 28.5355
    endloop
  endfacet
  facet normal 0 -1 0
    outer loop
      vertex 5 -7.5 25
      vertex 7.5 -7.5 32.5
      vertex 4.6194 -7.5 26.9134
    endloop
  endfacet
  facet normal 0 -1 0
    outer loop
      vertex 7.5 -7.5 17.5
      vertex 5 -7.5 25
      vertex 4.6194 -7.5 23.0866
    endloop
  endfacet
  facet normal 0 -1 0
    outer loop
      vertex 7.5 -7.5 17.5
      vertex 0 -7.5 20
      vertex -7.5 -7.5 17.5
    endloop
  endfacet
  facet normal 0 -1 0
    outer loop
      vertex 5 -7.5 25
      vertex 7.5 -7.5 17.5
      vertex 7.5 -7.5 32.5
    endloop
  endfacet
  facet normal 0 -1 0
    outer loop
      vertex 3.53553 -7.5 21.4645
      vertex 7.5 -7.5 17.5
      vertex 4.6194 -7.5 23.0866
    endloop
  endfacet
  facet normal 0 -1 0
    outer loop
      vertex 1.91342 -7.5 20.3806
      vertex 7.5 -7.5 17.5
      vertex 3.53553 -7.5 21.4645
    endloop
  endfacet
  facet normal 0 -1 0
    outer loop
      vertex 0 -7.5 20
      vertex 7.5 -7.5 17.5
      vertex 1.91342 -7.5 20.3806
    endloop
  endfacet
  facet normal 0.555585 0 -0.83146
    outer loop
      vertex -3.53553 -7.5 28.5355
      vertex -1.91342 7.5 29.6194
      vertex -1.91342 -7.5 29.6194
    endloop
  endfacet
  facet normal 0.555585 0 -0.83146
    outer loop
      vertex -1.91342 7.5 29.6194
      vertex -3.53553 -7.5 28.5355
      vertex -3.53553 7.5 28.5355
    endloop
  endfacet
  facet normal -0.831465 0 -0.555576
    outer loop
      vertex 4.6194 -7.5 26.9134
      vertex 3.53553 7.5 28.5355
      vertex 4.6194 7.5 26.9134
    endloop
  endfacet
  facet normal -0.831465 -0 -0.555576
    outer loop
      vertex 3.53553 7.5 28.5355
      vertex 4.6194 -7.5 26.9134
      vertex 3.53553 -7.5 28.5355
    endloop
  endfacet
  facet normal -0.980785 0 -0.195091
    outer loop
      vertex 5 -7.5 25
      vertex 4.6194 7.5 26.9134
      vertex 5 7.5 25
    endloop
  endfacet
  facet normal -0.980785 -0 -0.195091
    outer loop
      vertex 4.6194 7.5 26.9134
      vertex 5 -7.5 25
      vertex 4.6194 -7.5 26.9134
    endloop
  endfacet
  facet normal 0.831465 0 -0.555576
    outer loop
      vertex -3.53553 -7.5 28.5355
      vertex -4.6194 7.5 26.9134
      vertex -3.53553 7.5 28.5355
    endloop
  endfacet
  facet normal 0.831465 0 -0.555576
    outer loop
      vertex -4.6194 7.5 26.9134
      vertex -3.53553 -7.5 28.5355
      vertex -4.6194 -7.5 26.9134
    endloop
  endfacet
  facet normal 0.195089 0 0.980786
    outer loop
      vertex -1.91342 7.5 20.3806
      vertex 0 -7.5 20
      vertex 0 7.5 20
    endloop
  endfacet
  facet normal 0.195089 0 0.980786
    outer loop
      vertex 0 -7.5 20
      vertex -1.91342 7.5 20.3806
      vertex -1.91342 -7.5 20.3806
    endloop
  endfacet
  facet normal -0.195089 0 0.980786
    outer loop
      vertex 0 7.5 20
      vertex 1.91342 -7.5 20.3806
      vertex 1.91342 7.5 20.3806
    endloop
  endfacet
  facet normal -0.195089 0 0.980786
    outer loop
      vertex 1.91342 -7.5 20.3806
      vertex 0 7.5 20
      vertex 0 -7.5 20
    endloop
  endfacet
  facet normal -0.555585 0 0.83146
    outer loop
      vertex 1.91342 7.5 20.3806
      vertex 3.53553 -7.5 21.4645
      vertex 3.53553 7.5 21.4645
    endloop
  endfacet
  facet normal -0.555585 0 0.83146
    outer loop
      vertex 3.53553 -7.5 21.4645
      vertex 1.91342 7.5 20.3806
      vertex 1.91342 -7.5 20.3806
    endloop
  endfacet
  facet normal -0.831465 0 0.555576
    outer loop
      vertex 3.53553 -7.5 21.4645
      vertex 4.6194 7.5 23.0866
      vertex 3.53553 7.5 21.4645
    endloop
  endfacet
  facet normal -0.831465 0 0.555576
    outer loop
      vertex 4.6194 7.5 23.0866
      vertex 3.53553 -7.5 21.4645
      vertex 4.6194 -7.5 23.0866
    endloop
  endfacet
  facet normal 0.195089 0 -0.980786
    outer loop
      vertex -1.91342 -7.5 29.6194
      vertex 0 7.5 30
      vertex 0 -7.5 30
    endloop
  endfacet
  facet normal 0.195089 0 -0.980786
    outer loop
      vertex 0 7.5 30
      vertex -1.91342 -7.5 29.6194
      vertex -1.91342 7.5 29.6194
    endloop
  endfacet
  facet normal -0.980785 0 0.195091
    outer loop
      vertex 4.6194 -7.5 23.0866
      vertex 5 7.5 25
      vertex 4.6194 7.5 23.0866
    endloop
  endfacet
  facet normal -0.980785 0 0.195091
    outer loop
      vertex 5 7.5 25
      vertex 4.6194 -7.5 23.0866
      vertex 5 -7.5 25
    endloop
  endfacet
  facet normal 0.980785 0 -0.195091
    outer loop
      vertex -4.6194 -7.5 26.9134
      vertex -5 7.5 25
      vertex -4.6194 7.5 26.9134
    endloop
  endfacet
  facet normal 0.980785 0 -0.195091
    outer loop
      vertex -5 7.5 25
      vertex -4.6194 -7.5 26.9134
      vertex -5 -7.5 25
    endloop
  endfacet
  facet normal -0.195089 0 -0.980786
    outer loop
      vertex 0 -7.5 30
      vertex 1.91342 7.5 29.6194
      vertex 1.91342 -7.5 29.6194
    endloop
  endfacet
  facet normal -0.195089 0 -0.980786
    outer loop
      vertex 1.91342 7.5 29.6194
      vertex 0 -7.5 30
      vertex 0 7.5 30
    endloop
  endfacet
  facet normal -0.555585 0 -0.83146
    outer loop
      vertex 1.91342 -7.5 29.6194
      vertex 3.53553 7.5 28.5355
      vertex 3.53553 -7.5 28.5355
    endloop
  endfacet
  facet normal -0.555585 0 -0.83146
    outer loop
      vertex 3.53553 7.5 28.5355
      vertex 1.91342 -7.5 29.6194
      vertex 1.91342 7.5 29.6194
    endloop
  endfacet
  facet normal 0.831465 -0 0.555576
    outer loop
      vertex -4.6194 -7.5 23.0866
      vertex -3.53553 7.5 21.4645
      vertex -4.6194 7.5 23.0866
    endloop
  endfacet
  facet normal 0.831465 0 0.555576
    outer loop
      vertex -3.53553 7.5 21.4645
      vertex -4.6194 -7.5 23.0866
      vertex -3.53553 -7.5 21.4645
    endloop
  endfacet
  facet normal 0.980785 -0 0.195091
    outer loop
      vertex -5 -7.5 25
      vertex -4.6194 7.5 23.0866
      vertex -5 7.5 25
    endloop
  endfacet
  facet normal 0.980785 0 0.195091
    outer loop
      vertex -4.6194 7.5 23.0866
      vertex -5 -7.5 25
      vertex -4.6194 -7.5 23.0866
    endloop
  endfacet
  facet normal 0.555585 0 0.83146
    outer loop
      vertex -3.53553 7.5 21.4645
      vertex -1.91342 -7.5 20.3806
      vertex -1.91342 7.5 20.3806
    endloop
  endfacet
  facet normal 0.555585 0 0.83146
    outer loop
      vertex -1.91342 -7.5 20.3806
      vertex -3.53553 7.5 21.4645
      vertex -3.53553 -7.5 21.4645
    endloop
  endfacet
  facet normal 1 -0 0
    outer loop
      vertex 10 -10 15
      vertex 10 10 -15
      vertex 10 10 15
    endloop
  endfacet
  facet normal 1 0 0
    outer loop
      vertex 10 10 -15
      vertex 10 -10 15
      vertex 10 -10 -15
    endloop
  endfacet
  facet normal -0 0 1
    outer loop
      vertex -10 10 15
      vertex 10 -10 15
      vertex 10 10 15
    endloop
  endfacet
  facet normal 0 0 1
    outer loop
      vertex 10 -10 15
      vertex -10 10 15
      vertex -10 -10 15
    endloop
  endfacet
  facet normal 0 0 -1
    outer loop
      vertex -10 -10 -15
      vertex 10 10 -15
      vertex 10 -10 -15
    endloop
  endfacet
  facet normal -0 0 -1
    outer loop
      vertex 10 10 -15
      vertex -10 -10 -15
      vertex -10 10 -15
    endloop
  endfacet
  facet normal -1 0 0
    outer loop
      vertex -10 -10 -15
      vertex -10 10 15
      vertex -10 10 -15
    endloop
  endfacet
  facet normal -1 -0 0
    outer loop
      vertex -10 10 15
      vertex -10 -10 -15
      vertex -10 -10 15
    endloop
  endfacet
  facet normal 0 1 0
    outer loop
      vertex 10 10 15
      vertex 0 10 5
      vertex -10 10 15
    endloop
  endfacet
  facet normal 0 1 0
    outer loop
      vertex 10 10 15
      vertex 1.91342 10 4.6194
      vertex 0 10 5
    endloop
  endfacet
  facet normal 0 1 0
    outer loop
      vertex 10 10 15
      vertex 3.53553 10 3.53553
      vertex 1.91342 10 4.6194
    endloop
  endfacet
  facet normal 0 1 0
    outer loop
      vertex 10 10 15
      vertex 4.6194 10 1.91342
      vertex 3.53553 10 3.53553
    endloop
  endfacet
  facet normal 0 1 0
    outer loop
      vertex 10 10 15
      vertex 5 10 0
      vertex 4.6194 10 1.91342
    endloop
  endfacet
  facet normal 0 1 -0
    outer loop
      vertex 10 10 -15
      vertex 5 10 0
      vertex 10 10 15
    endloop
  endfacet
  facet normal 0 1 0
    outer loop
      vertex 1.91342 10 -4.6194
      vertex 10 10 -15
      vertex 0 10 -5
    endloop
  endfacet
  facet normal 0 1 0
    outer loop
      vertex 3.53553 10 -3.53553
      vertex 10 10 -15
      vertex 1.91342 10 -4.6194
    endloop
  endfacet
  facet normal 0 1 0
    outer loop
      vertex 4.6194 10 -1.91342
      vertex 10 10 -15
      vertex 3.53553 10 -3.53553
    endloop
  endfacet
  facet normal 0 1 0
    outer loop
      vertex 5 10 0
      vertex 10 10 -15
      vertex 4.6194 10 -1.91342
    endloop
  endfacet
  facet normal 0 1 -0
    outer loop
      vertex -1.91342 10 4.6194
      vertex -10 10 15
      vertex 0 10 5
    endloop
  endfacet
  facet normal 0 1 -0
    outer loop
      vertex -3.53553 10 3.53553
      vertex -10 10 15
      vertex -1.91342 10 4.6194
    endloop
  endfacet
  facet normal 0 1 -0
    outer loop
      vertex -4.6194 10 1.91342
      vertex -10 10 15
      vertex -3.53553 10 3.53553
    endloop
  endfacet
  facet normal 0 1 -0
    outer loop
      vertex -5 10 0
      vertex -10 10 15
      vertex -4.6194 10 1.91342
    endloop
  endfacet
  facet normal 0 1 0
    outer loop
      vertex -10 10 -15
      vertex -5 10 0
      vertex -4.6194 10 -1.91342
    endloop
  endfacet
  facet normal 0 1 0
    outer loop
      vertex -10 10 -15
      vertex 0 10 -5
      vertex 10 10 -15
    endloop
  endfacet
  facet normal 0 1 0
    outer loop
      vertex 0 10 -5
      vertex -10 10 -15
      vertex -1.91342 10 -4.6194
    endloop
  endfacet
  facet normal 0 1 0
    outer loop
      vertex -5 10 0
      vertex -10 10 -15
      vertex -10 10 15
    endloop
  endfacet
  facet normal 0 1 0
    outer loop
      vertex -3.53553 10 -3.53553
      vertex -10 10 -15
      vertex -4.6194 10 -1.91342
    endloop
  endfacet
  facet normal 0 1 0
    outer loop
      vertex -1.91342 10 -4.6194
      vertex -10 10 -15
      vertex -3.53553 10 -3.53553
    endloop
  endfacet
  facet normal 0 -1 0
    outer loop
      vertex -10 -10 15
      vertex 0 -10 5
      vertex 10 -10 15
    endloop
  endfacet
  facet normal 0 -1 0
    outer loop
      vertex -10 -10 15
      vertex -1.91342 -10 4.6194
      vertex 0 -10 5
    endloop
  endfacet
  facet normal 0 -1 0
    outer loop
      vertex -10 -10 15
      vertex -3.53553 -10 3.53553
      vertex -1.91342 -10 4.6194
    endloop
  endfacet
  facet normal 0 -1 0
    outer loop
      vertex -10 -10 15
      vertex -4.6194 -10 1.91342
      vertex -3.53553 -10 3.53553
    endloop
  endfacet
  facet normal 0 -1 0
    outer loop
      vertex -10 -10 15
      vertex -5 -10 0
      vertex -4.6194 -10 1.91342
    endloop
  endfacet
  facet normal 0 -1 0
    outer loop
      vertex -10 -10 -15
      vertex -5 -10 0
      vertex -10 -10 15
    endloop
  endfacet
  facet normal 0 -1 -0
    outer loop
      vertex -1.91342 -10 -4.6194
      vertex -10 -10 -15
      vertex 0 -10 -5
    endloop
  endfacet
  facet normal 0 -1 -0
    outer loop
      vertex -3.53553 -10 -3.53553
      vertex -10 -10 -15
      vertex -1.91342 -10 -4.6194
    endloop
  endfacet
  facet normal 0 -1 -0
    outer loop
      vertex -4.6194 -10 -1.91342
      vertex -10 -10 -15
      vertex -3.53553 -10 -3.53553
    endloop
  endfacet
  facet normal 0 -1 -0
    outer loop
      vertex -5 -10 0
      vertex -10 -10 -15
      vertex -4.6194 -10 -1.91342
    endloop
  endfacet
  facet normal 0 -1 0
    outer loop
      vertex 1.91342 -10 4.6194
      vertex 10 -10 15
      vertex 0 -10 5
    endloop
  endfacet
  facet normal 0 -1 0
    outer loop
      vertex 3.53553 -10 3.53553
      vertex 10 -10 15
      vertex 1.91342 -10 4.6194
    endloop
  endfacet
  facet normal 0 -1 0
    outer loop
      vertex 4.6194 -10 1.91342
      vertex 10 -10 15
      vertex 3.53553 -10 3.53553
    endloop
  endfacet
  facet normal 0 -1 0
    outer loop
      vertex 5 -10 0
      vertex 10 -10 15
      vertex 4.6194 -10 1.91342
    endloop
  endfacet
  facet normal 0 -1 0
    outer loop
      vertex 10 -10 -15
      vertex 5 -10 0
      vertex 4.6194 -10 -1.91342
    endloop
  endfacet
  facet normal 0 -1 0
    outer loop
      vertex 10 -10 -15
      vertex 0 -10 -5
      vertex -10 -10 -15
    endloop
  endfacet
  facet normal 0 -1 0
    outer loop
      vertex 0 -10 -5
      vertex 10 -10 -15
      vertex 1.91342 -10 -4.6194
    endloop
  endfacet
  facet normal 0 -1 0
    outer loop
      vertex 5 -10 0
      vertex 10 -10 -15
      vertex 10 -10 15
    endloop
  endfacet
  facet normal 0 -1 0
    outer loop
      vertex 3.53553 -10 -3.53553
      vertex 10 -10 -15
      vertex 4.6194 -10 -1.91342
    endloop
  endfacet
  facet normal 0 -1 0
    outer loop
      vertex 1.91342 -10 -4.6194
      vertex 10 -10 -15
      vertex 3.53553 -10 -3.53553
    endloop
  endfacet
  facet normal 0.555574 0 -0.831467
    outer loop
      vertex -3.53553 -10 3.53553
      vertex -1.91342 10 4.6194
      vertex -1.91342 -10 4.6194
    endloop
  endfacet
  facet normal 0.555574 0 -0.831467
    outer loop
      vertex -1.91342 10 4.6194
      vertex -3.53553 -10 3.53553
      vertex -3.53553 10 3.53553
    endloop
  endfacet
  facet normal -0.831467 0 -0.555574
    outer loop
      vertex 4.6194 -10 1.91342
      vertex 3.53553 10 3.53553
      vertex 4.6194 10 1.91342
    endloop
  endfacet
  facet normal -0.831467 -0 -0.555574
    outer loop
      vertex 3.53553 10 3.53553
      vertex 4.6194 -10 1.91342
      vertex 3.53553 -10 3.53553
    endloop
  endfacet
  facet normal -0.980786 0 -0.195089
    outer loop
      vertex 5 -10 0
      vertex 4.6194 10 1.91342
      vertex 5 10 0
    endloop
  endfacet
  facet normal -0.980786 -0 -0.195089
    outer loop
      vertex 4.6194 10 1.91342
      vertex 5 -10 0
      vertex 4.6194 -10 1.91342
    endloop
  endfacet
  facet normal 0.831467 0 -0.555574
    outer loop
      vertex -3.53553 -10 3.53553
      vertex -4.6194 10 1.91342
      vertex -3.53553 10 3.53553
    endloop
  endfacet
  facet normal 0.831467 0 -0.555574
    outer loop
      vertex -4.6194 10 1.91342
      vertex -3.53553 -10 3.53553
      vertex -4.6194 -10 1.91342
    endloop
  endfacet
  facet normal 0.195089 0 0.980786
    outer loop
      vertex -1.91342 10 -4.6194
      vertex 0 -10 -5
      vertex 0 10 -5
    endloop
  endfacet
  facet normal 0.195089 0 0.980786
    outer loop
      vertex 0 -10 -5
      vertex -1.91342 10 -4.6194
      vertex -1.91342 -10 -4.6194
    endloop
  endfacet
  facet normal -0.195089 0 0.980786
    outer loop
      vertex 0 10 -5
      vertex 1.91342 -10 -4.6194
      vertex 1.91342 10 -4.6194
    endloop
  endfacet
  facet normal -0.195089 0 0.980786
    outer loop
      vertex 1.91342 -10 -4.6194
      vertex 0 10 -5
      vertex 0 -10 -5
    endloop
  endfacet
  facet normal -0.555574 0 0.831467
    outer loop
      vertex 1.91342 10 -4.6194
      vertex 3.53553 -10 -3.53553
      vertex 3.53553 10 -3.53553
    endloop
  endfacet
  facet normal -0.555574 0 0.831467
    outer loop
      vertex 3.53553 -10 -3.53553
      vertex 1.91342 10 -4.6194
      vertex 1.91342 -10 -4.6194
    endloop
  endfacet
  facet normal -0.831467 0 0.555574
    outer loop
      vertex 3.53553 -10 -3.53553
      vertex 4.6194 10 -1.91342
      vertex 3.53553 10 -3.53553
    endloop
  endfacet
  facet normal -0.831467 0 0.555574
    outer loop
      vertex 4.6194 10 -1.91342
      vertex 3.53553 -10 -3.53553
      vertex 4.6194 -10 -1.91342
    endloop
  endfacet
  facet normal 0.195089 0 -0.980786
    outer loop
      vertex -1.91342 -10 4.6194
      vertex 0 10 5
      vertex 0 -10 5
    endloop
  endfacet
  facet normal 0.195089 0 -0.980786
    outer loop
      vertex 0 10 5
      vertex -1.91342 -10 4.6194
      vertex -1.91342 10 4.6194
    endloop
  endfacet
  facet normal 0.980786 0 -0.195089
    outer loop
      vertex -4.6194 -10 1.91342
      vertex -5 10 0
      vertex -4.6194 10 1.91342
    endloop
  endfacet
  facet normal 0.980786 0 -0.195089
    outer loop
      vertex -5 10 0
      vertex -4.6194 -10 1.91342
      vertex -5 -10 0
    endloop
  endfacet
  facet normal -0.195089 0 -0.980786
    outer loop
      vertex 0 -10 5
      vertex 1.91342 10 4.6194
      vertex 1.91342 -10 4.6194
    endloop
  endfacet
  facet normal -0.195089 0 -0.980786
    outer loop
      vertex 1.91342 10 4.6194
      vertex 0 -10 5
      vertex 0 10 5
    endloop
  endfacet
  facet normal -0.555574 0 -0.831467
    outer loop
      vertex 1.91342 -10 4.6194
      vertex 3.53553 10 3.53553
      vertex 3.53553 -10 3.53553
    endloop
  endfacet
  facet normal -0.555574 0 -0.831467
    outer loop
      vertex 3.53553 10 3.53553
      vertex 1.91342 -10 4.6194
      vertex 1.91342 10 4.6194
    endloop
  endfacet
  facet normal 0.831467 -0 0.555574
    outer loop
      vertex -4.6194 -10 -1.91342
      vertex -3.53553 10 -3.53553
      vertex -4.6194 10 -1.91342
    endloop
  endfacet
  facet normal 0.831467 0 0.555574
    outer loop
      vertex -3.53553 10 -3.53553
      vertex -4.6194 -10 -1.91342
      vertex -3.53553 -10 -3.53553
    endloop
  endfacet
  facet normal 0.980786 -0 0.195089
    outer loop
      vertex -5 -10 0
      vertex -4.6194 10 -1.91342
      vertex -5 10 0
    endloop
  endfacet
  facet normal 0.980786 0 0.195089
    outer loop
      vertex -4.6194 10 -1.91342
      vertex -5 -10 0
      vertex -4.6194 -10 -1.91342
    endloop
  endfacet
  facet normal -0.980786 0 0.195089
    outer loop
      vertex 4.6194 -10 -1.91342
      vertex 5 10 0
      vertex 4.6194 10 -1.91342
    endloop
  endfacet
  facet normal -0.980786 0 0.195089
    outer loop
      vertex 5 10 0
      vertex 4.6194 -10 -1.91342
      vertex 5 -10 0
    endloop
  endfacet
  facet normal 0.555574 0 0.831467
    outer loop
      vertex -3.53553 10 -3.53553
      vertex -1.91342 -10 -4.6194
      vertex -1.91342 10 -4.6194
    endloop
  endfacet
  facet normal 0.555574 0 0.831467
    outer loop
      vertex -1.91342 -10 -4.6194
      vertex -3.53553 10 -3.53553
      vertex -3.53553 -10 -3.53553
    endloop
  endfacet
  facet normal 1 -0 0
    outer loop
      vertex 7.5 -7.5 -17.5
      vertex 7.5 7.5 -32.5
      vertex 7.5 7.5 -17.5
    endloop
  endfacet
  facet normal 1 0 0
    outer loop
      vertex 7.5 7.5 -32.5
      vertex 7.5 -7.5 -17.5
      vertex 7.5 -7.5 -32.5
    endloop
  endfacet
  facet normal -0 0 1
    outer loop
      vertex -7.5 7.5 -17.5
      vertex 7.5 -7.5 -17.5
      vertex 7.5 7.5 -17.5
    endloop
  endfacet
  facet normal 0 0 1
    outer loop
      vertex 7.5 -7.5 -17.5
      vertex -7.5 7.5 -17.5
      vertex -7.5 -7.5 -17.5
    endloop
  endfacet
  facet normal 0 0 -1
    outer loop
      vertex -7.5 -7.5 -32.5
      vertex 7.5 7.5 -32.5
      vertex 7.5 -7.5 -32.5
    endloop
  endfacet
  facet normal -0 0 -1
    outer loop
      vertex 7.5 7.5 -32.5
      vertex -7.5 -7.5 -32.5
      vertex -7.5 7.5 -32.5
    endloop
  endfacet
  facet normal -1 0 0
    outer loop
      vertex -7.5 -7.5 -32.5
      vertex -7.5 7.5 -17.5
      vertex -7.5 7.5 -32.5
    endloop
  endfacet
  facet normal -1 -0 0
    outer loop
      vertex -7.5 7.5 -17.5
      vertex -7.5 -7.5 -32.5
      vertex -7.5 -7.5 -17.5
    endloop
  endfacet
  facet normal 0 1 0
    outer loop
      vertex 7.5 7.5 -17.5
      vertex 0 7.5 -20
      vertex -7.5 7.5 -17.5
    endloop
  endfacet
  facet normal 0 1 0
    outer loop
      vertex 7.5 7.5 -17.5
      vertex 1.91342 7.5 -20.3806
      vertex 0 7.5 -20
    endloop
  endfacet
  facet normal 0 1 0
    outer loop
      vertex 7.5 7.5 -17.5
      vertex 3.53553 7.5 -21.4645
      vertex 1.91342 7.5 -20.3806
    endloop
  endfacet
  facet normal 0 1 0
    outer loop
      vertex 7.5 7.5 -17.5
      vertex 4.6194 7.5 -23.0866
      vertex 3.53553 7.5 -21.4645
    endloop
  endfacet
  facet normal 0 1 0
    outer loop
      vertex 7.5 7.5 -17.5
      vertex 5 7.5 -25
      vertex 4.6194 7.5 -23.0866
    endloop
  endfacet
  facet normal 0 1 -0
    outer loop
      vertex 7.5 7.5 -32.5
      vertex 5 7.5 -25
      vertex 7.5 7.5 -17.5
    endloop
  endfacet
  facet normal 0 1 0
    outer loop
      vertex 1.91342 7.5 -29.6194
      vertex 7.5 7.5 -32.5
      vertex 0 7.5 -30
    endloop
  endfacet
  facet normal 0 1 0
    outer loop
      vertex 3.53553 7.5 -28.5355
      vertex 7.5 7.5 -32.5
      vertex 1.91342 7.5 -29.6194
    endloop
  endfacet
  facet normal 0 1 0
    outer loop
      vertex 4.6194 7.5 -26.9134
      vertex 7.5 7.5 -32.5
      vertex 3.53553 7.5 -28.5355
    endloop
  endfacet
  facet normal 0 1 0
    outer loop
      vertex 5 7.5 -25
      vertex 7.5 7.5 -32.5
      vertex 4.6194 7.5 -26.9134
    endloop
  endfacet
  facet normal 0 1 -0
    outer loop
      vertex -1.91342 7.5 -20.3806
      vertex -7.5 7.5 -17.5
      vertex 0 7.5 -20
    endloop
  endfacet
  facet normal 0 1 -0
    outer loop
      vertex -3.53553 7.5 -21.4645
      vertex -7.5 7.5 -17.5
      vertex -1.91342 7.5 -20.3806
    endloop
  endfacet
  facet normal 0 1 -0
    outer loop
      vertex -4.6194 7.5 -23.0866
      vertex -7.5 7.5 -17.5
      vertex -3.53553 7.5 -21.4645
    endloop
  endfacet
  facet normal 0 1 -0
    outer loop
      vertex -5 7.5 -25
      vertex -7.5 7.5 -17.5
      vertex -4.6194 7.5 -23.0866
    endloop
  endfacet
  facet normal 0 1 0
    outer loop
      vertex -7.5 7.5 -32.5
      vertex -5 7.5 -25
      vertex -4.6194 7.5 -26.9134
    endloop
  endfacet
  facet normal 0 1 0
    outer loop
      vertex -7.5 7.5 -32.5
      vertex 0 7.5 -30
      vertex 7.5 7.5 -32.5
    endloop
  endfacet
  facet normal 0 1 0
    outer loop
      vertex -5 7.5 -25
      vertex -7.5 7.5 -32.5
      vertex -7.5 7.5 -17.5
    endloop
  endfacet
  facet normal 0 1 0
    outer loop
      vertex -3.53553 7.5 -28.5355
      vertex -7.5 7.5 -32.5
      vertex -4.6194 7.5 -26.9134
    endloop
  endfacet
  facet normal 0 1 0
    outer loop
      vertex -1.91342 7.5 -29.6194
      vertex -7.5 7.5 -32.5
      vertex -3.53553 7.5 -28.5355
    endloop
  endfacet
  facet normal 0 1 0
    outer loop
      vertex 0 7.5 -30
      vertex -7.5 7.5 -32.5
      vertex -1.91342 7.5 -29.6194
    endloop
  endfacet
  facet normal 0 -1 0
    outer loop
      vertex -7.5 -7.5 -17.5
      vertex 0 -7.5 -20
      vertex 7.5 -7.5 -17.5
    endloop
  endfacet
  facet normal 0 -1 0
    outer loop
      vertex -7.5 -7.5 -17.5
      vertex -1.91342 -7.5 -20.3806
      vertex 0 -7.5 -20
    endloop
  endfacet
  facet normal 0 -1 0
    outer loop
      vertex -7.5 -7.5 -17.5
      vertex -3.53553 -7.5 -21.4645
      vertex -1.91342 -7.5 -20.3806
    endloop
  endfacet
  facet normal 0 -1 0
    outer loop
      vertex -7.5 -7.5 -17.5
      vertex -4.6194 -7.5 -23.0866
      vertex -3.53553 -7.5 -21.4645
    endloop
  endfacet
  facet normal 0 -1 0
    outer loop
      vertex -7.5 -7.5 -17.5
      vertex -5 -7.5 -25
      vertex -4.6194 -7.5 -23.0866
    endloop
  endfacet
  facet normal 0 -1 0
    outer loop
      vertex -7.5 -7.5 -32.5
      vertex -5 -7.5 -25
      vertex -7.5 -7.5 -17.5
    endloop
  endfacet
  facet normal 0 -1 -0
    outer loop
      vertex -1.91342 -7.5 -29.6194
      vertex -7.5 -7.5 -32.5
      vertex 0 -7.5 -30
    endloop
  endfacet
  facet normal 0 -1 -0
    outer loop
      vertex -3.53553 -7.5 -28.5355
      vertex -7.5 -7.5 -32.5
      vertex -1.91342 -7.5 -29.6194
    endloop
  endfacet
  facet normal 0 -1 -0
    outer loop
      vertex -4.6194 -7.5 -26.9134
      vertex -7.5 -7.5 -32.5
      vertex -3.53553 -7.5 -28.5355
    endloop
  endfacet
  facet normal 0 -1 -0
    outer loop
      vertex -5 -7.5 -25
      vertex -7.5 -7.5 -32.5
      vertex -4.6194 -7.5 -26.9134
    endloop
  endfacet
  facet normal 0 -1 0
    outer loop
      vertex 1.91342 -7.5 -20.3806
      vertex 7.5 -7.5 -17.5
      vertex 0 -7.5 -20
    endloop
  endfacet
  facet normal 0 -1 0
    outer loop
      vertex 3.53553 -7.5 -21.4645
      vertex 7.5 -7.5 -17.5
      vertex 1.91342 -7.5 -20.3806
    endloop
  endfacet
  facet normal 0 -1 0
    outer loop
      vertex 4.6194 -7.5 -23.0866
      vertex 7.5 -7.5 -17.5
      vertex 3.53553 -7.5 -21.4645
    endloop
  endfacet
  facet normal 0 -1 0
    outer loop
      vertex 5 -7.5 -25
      vertex 7.5 -7.5 -17.5
      vertex 4.6194 -7.5 -23.0866
    endloop
  endfacet
  facet normal 0 -1 0
    outer loop
      vertex 7.5 -7.5 -32.5
      vertex 5 -7.5 -25
      vertex 4.6194 -7.5 -26.9134
    endloop
  endfacet
  facet normal 0 -1 0
    outer loop
      vertex 7.5 -7.5 -32.5
      vertex 0 -7.5 -30
      vertex -7.5 -7.5 -32.5
    endloop
  endfacet
  facet normal 0 -1 0
    outer loop
      vertex 5 -7.5 -25
      vertex 7.5 -7.5 -32.5
      vertex 7.5 -7.5 -17.5
    endloop
  endfacet
  facet normal 0 -1 0
    outer loop
      vertex 3.53553 -7.5 -28.5355
      vertex 7.5 -7.5 -32.5
      vertex 4.6194 -7.5 -26.9134
    endloop
  endfacet
  facet normal 0 -1 0
    outer loop
      vertex 1.91342 -7.5 -29.6194
      vertex 7.5 -7.5 -32.5
      vertex 3.53553 -7.5 -28.5355
    endloop
  endfacet
  facet normal 0 -1 0
    outer loop
      vertex 0 -7.5 -30
      vertex 7.5 -7.5 -32.5
      vertex 1.91342 -7.5 -29.6194
    endloop
  endfacet
  facet normal 0.555585 0 -0.83146
    outer loop
      vertex -3.53553 -7.5 -21.4645
      vertex -1.91342 7.5 -20.3806
      vertex -1.91342 -7.5 -20.3806
    endloop
  endfacet
  facet normal 0.555585 0 -0.83146
    outer loop
      vertex -1.91342 7.5 -20.3806
      vertex -3.53553 -7.5 -21.4645
      vertex -3.53553 7.5 -21.4645
    endloop
  endfacet
  facet normal -0.831465 0 -0.555576
    outer loop
      vertex 4.6194 -7.5 -23.0866
      vertex 3.53553 7.5 -21.4645
      vertex 4.6194 7.5 -23.0866
    endloop
  endfacet
  facet normal -0.831465 -0 -0.555576
    outer loop
      vertex 3.53553 7.5 -21.4645
      vertex 4.6194 -7.5 -23.0866
      vertex 3.53553 -7.5 -21.4645
    endloop
  endfacet
  facet normal -0.980785 0 -0.195091
    outer loop
      vertex 5 -7.5 -25
      vertex 4.6194 7.5 -23.0866
      vertex 5 7.5 -25
    endloop
  endfacet
  facet normal -0.980785 -0 -0.195091
    outer loop
      vertex 4.6194 7.5 -23.0866
      vertex 5 -7.5 -25
      vertex 4.6194 -7.5 -23.0866
    endloop
  endfacet
  facet normal 0.831465 0 -0.555576
    outer loop
      vertex -3.53553 -7.5 -21.4645
      vertex -4.6194 7.5 -23.0866
      vertex -3.53553 7.5 -21.4645
    endloop
  endfacet
  facet normal 0.831465 0 -0.555576
    outer loop
      vertex -4.6194 7.5 -23.0866
      vertex -3.53553 -7.5 -21.4645
      vertex -4.6194 -7.5 -23.0866
    endloop
  endfacet
  facet normal 0.195089 0 0.980786
    outer loop
      vertex -1.91342 7.5 -29.6194
      vertex 0 -7.5 -30
      vertex 0 7.5 -30
    endloop
  endfacet
  facet normal 0.195089 0 0.980786
    outer loop
      vertex 0 -7.5 -30
      vertex -1.91342 7.5 -29.6194
      vertex -1.91342 -7.5 -29.6194
    endloop
  endfacet
  facet normal -0.195089 0 0.980786
    outer loop
      vertex 0 7.5 -30
      vertex 1.91342 -7.5 -29.6194
      vertex 1.91342 7.5 -29.6194
    endloop
  endfacet
  facet normal -0.195089 0 0.980786
    outer loop
      vertex 1.91342 -7.5 -29.6194
      vertex 0 7.5 -30
      vertex 0 -7.5 -30
    endloop
  endfacet
  facet normal -0.555585 0 0.83146
    outer loop
      vertex 1.91342 7.5 -29.6194
      vertex 3.53553 -7.5 -28.5355
      vertex 3.53553 7.5 -28.5355
    endloop
  endfacet
  facet normal -0.555585 0 0.83146
    outer loop
      vertex 3.53553 -7.5 -28.5355
      vertex 1.91342 7.5 -29.6194
      vertex 1.91342 -7.5 -29.6194
    endloop
  endfacet
  facet normal -0.831465 0 0.555576
    outer loop
      vertex 3.53553 -7.5 -28.5355
      vertex 4.6194 7.5 -26.9134
      vertex 3.53553 7.5 -28.5355
    endloop
  endfacet
  facet normal -0.831465 0 0.555576
    outer loop
      vertex 4.6194 7.5 -26.9134
      vertex 3.53553 -7.5 -28.5355
      vertex 4.6194 -7.5 -26.9134
    endloop
  endfacet
  facet normal 0.195089 0 -0.980786
    outer loop
      vertex -1.91342 -7.5 -20.3806
      vertex 0 7.5 -20
      vertex 0 -7.5 -20
    endloop
  endfacet
  facet normal 0.195089 0 -0.980786
    outer loop
      vertex 0 7.5 -20
      vertex -1.91342 -7.5 -20.3806
      vertex -1.91342 7.5 -20.3806
    endloop
  endfacet
  facet normal -0.980785 0 0.195091
    outer loop
      vertex 4.6194 -7.5 -26.9134
      vertex 5 7.5 -25
      vertex 4.6194 7.5 -26.9134
    endloop
  endfacet
  facet normal -0.980785 0 0.195091
    outer loop
      vertex 5 7.5 -25
      vertex 4.6194 -7.5 -26.9134
      vertex 5 -7.5 -25
    endloop
  endfacet
  facet normal 0.980785 0 -0.195091
    outer loop
      vertex -4.6194 -7.5 -23.0866
      vertex -5 7.5 -25
      vertex -4.6194 7.5 -23.0866
    endloop
  endfacet
  facet normal 0.980785 0 -0.195091
    outer loop
      vertex -5 7.5 -25
      vertex -4.6194 -7.5 -23.0866
      vertex -5 -7.5 -25
    endloop
  endfacet
  facet normal -0.195089 0 -0.980786
    outer loop
      vertex 0 -7.5 -20
      vertex 1.91342 7.5 -20.3806
      vertex 1.91342 -7.5 -20.3806
    endloop
  endfacet
  facet normal -0.195089 0 -0.980786
    outer loop
      vertex 1.91342 7.5 -20.3806
      vertex 0 -7.5 -20
      vertex 0 7.5 -20
    endloop
  endfacet
  facet normal -0.555585 0 -0.83146
    outer loop
      vertex 1.91342 -7.5 -20.3806
      vertex 3.53553 7.5 -21.4645
      vertex 3.53553 -7.5 -21.4645
    endloop
  endfacet
  facet normal -0.555585 0 -0.83146
    outer loop
      vertex 3.53553 7.5 -21.4645
      vertex 1.91342 -7.5 -20.3806
      vertex 1.91342 7.5 -20.3806
    endloop
  endfacet
  facet normal 0.831465 -0 0.555576
    outer loop
      vertex -4.6194 -7.5 -26.9134
      vertex -3.53553 7.5 -28.5355
      vertex -4.6194 7.5 -26.9134
    endloop
  endfacet
  facet normal 0.831465 0 0.555576
    outer loop
      vertex -3.53553 7.5 -28.5355
      vertex -4.6194 -7.5 -26.9134
      vertex -3.53553 -7.5 -28.5355
    endloop
  endfacet
  facet normal 0.980785 -0 0.195091
    outer loop
      vertex -5 -7.5 -25
      vertex -4.6194 7.5 -26.9134
      vertex -5 7.5 -25
    endloop
  endfacet
  facet normal 0.980785 0 0.195091
    outer loop
      vertex -4.6194 7.5 -26.9134
      vertex -5 -7.5 -25
      vertex -4.6194 -7.5 -26.9134
    endloop
  endfacet
  facet normal 0.555585 0 0.83146
    outer loop
      vertex -3.53553 7.5 -28.5355
      vertex -1.91342 -7.5 -29.6194
      vertex -1.91342 7.5 -29.6194
    endloop
  endfacet
  facet normal 0.555585 0 0.83146
    outer loop
      vertex -1.91342 -7.5 -29.6194
      vertex -3.53553 7.5 -28.5355
      vertex -3.53553 -7.5 -28.5355
    endloop
  endfacet
endsolid OpenSCAD_Model
