solid OpenSCAD_Model
  facet normal 1 -0 0
    outer loop
      vertex 60 15 10
      vertex 60 30 0
      vertex 60 30 10
    endloop
  endfacet
  facet normal 1 0 0
    outer loop
      vertex 60 0 0
      vertex 60 15 10
      vertex 60 5 10
    endloop
  endfacet
  facet normal 1 0 0
    outer loop
      vertex 60 0 0
      vertex 60 5 10
      vertex 60 0 10
    endloop
  endfacet
  facet normal 1 0 0
    outer loop
      vertex 60 15 10
      vertex 60 0 0
      vertex 60 30 0
    endloop
  endfacet
  facet normal 0 0 1
    outer loop
      vertex 30 30 10
      vertex 5 15 10
      vertex 30 15 10
    endloop
  endfacet
  facet normal 0 0 1
    outer loop
      vertex 0 0 10
      vertex 5 15 10
      vertex 0 30 10
    endloop
  endfacet
  facet normal -0 0 1
    outer loop
      vertex 0 30 10
      vertex 5 15 10
      vertex 30 30 10
    endloop
  endfacet
  facet normal -0 0 1
    outer loop
      vertex 5 5 10
      vertex 30 0 10
      vertex 30 5 10
    endloop
  endfacet
  facet normal 0 0 1
    outer loop
      vertex 5 5 10
      vertex 0 0 10
      vertex 30 0 10
    endloop
  endfacet
  facet normal 0 0 1
    outer loop
      vertex 5 15 10
      vertex 0 0 10
      vertex 5 5 10
    endloop
  endfacet
  facet normal 0 0 -1
    outer loop
      vertex 60 5 10
      vertex 65 15 10
      vertex 65 5 10
    endloop
  endfacet
  facet normal -0 0 -1
    outer loop
      vertex 65 15 10
      vertex 60 5 10
      vertex 60 15 10
    endloop
  endfacet
  facet normal -0 0 1
    outer loop
      vertex 30 30 10
      vertex 60 15 10
      vertex 60 30 10
    endloop
  endfacet
  facet normal 0 0 1
    outer loop
      vertex 60 15 10
      vertex 30 30 10
      vertex 30 15 10
    endloop
  endfacet
  facet normal -0 0 1
    outer loop
      vertex 30 5 10
      vertex 60 0 10
      vertex 60 5 10
    endloop
  endfacet
  facet normal 0 0 1
    outer loop
      vertex 60 0 10
      vertex 30 5 10
      vertex 30 0 10
    endloop
  endfacet
  facet normal 0 0 -1
    outer loop
      vertex 0 0 0
      vertex 60 30 0
      vertex 60 0 0
    endloop
  endfacet
  facet normal -0 0 -1
    outer loop
      vertex 60 30 0
      vertex 0 0 0
      vertex 0 30 0
    endloop
  endfacet
  facet normal -1 0 0
    outer loop
      vertex 0 0 0
      vertex 0 30 10
      vertex 0 30 0
    endloop
  endfacet
  facet normal -1 -0 0
    outer loop
      vertex 0 30 10
      vertex 0 0 0
      vertex 0 0 10
    endloop
  endfacet
  facet normal 0 1 -0
    outer loop
      vertex 60 30 0
      vertex 30 30 10
      vertex 60 30 10
    endloop
  endfacet
  facet normal 0 1 0
    outer loop
      vertex 0 30 0
      vertex 30 30 10
      vertex 60 30 0
    endloop
  endfacet
  facet normal 0 1 0
    outer loop
      vertex 30 30 10
      vertex 0 30 0
      vertex 0 30 10
    endloop
  endfacet
  facet normal 0 -1 0
    outer loop
      vertex 0 0 0
      vertex 30 0 10
      vertex 0 0 10
    endloop
  endfacet
  facet normal 0 -1 0
    outer loop
      vertex 60 0 0
      vertex 30 0 10
      vertex 0 0 0
    endloop
  endfacet
  facet normal 0 -1 0
    outer loop
      vertex 30 0 10
      vertex 60 0 0
      vertex 60 0 10
    endloop
  endfacet
  facet normal -1 0 0
    outer loop
      vertex 35 5 20
      vertex 35 15 30
      vertex 35 15 20
    endloop
  endfacet
  facet normal -1 -0 0
    outer loop
      vertex 35 15 30
      vertex 35 5 20
      vertex 35 5 30
    endloop
  endfacet
  facet normal -1 0 0
    outer loop
      vertex 35 5 35
      vertex 35 15 40
      vertex 35 15 35
    endloop
  endfacet
  facet normal -1 -0 0
    outer loop
      vertex 35 15 40
      vertex 35 5 35
      vertex 35 5 40
    endloop
  endfacet
  facet normal -0 0 1
    outer loop
      vertex 15 15 20
      vertex 35 5 20
      vertex 35 15 20
    endloop
  endfacet
  facet normal 0 0 1
    outer loop
      vertex 35 5 20
      vertex 15 15 20
      vertex 15 5 20
    endloop
  endfacet
  facet normal -1 0 0
    outer loop
      vertex 5 5 10
      vertex 5 15 30
      vertex 5 15 10
    endloop
  endfacet
  facet normal -1 -0 0
    outer loop
      vertex 5 15 30
      vertex 5 5 10
      vertex 5 5 30
    endloop
  endfacet
  facet normal -1 0 0
    outer loop
      vertex 5 5 35
      vertex 5 15 40
      vertex 5 15 35
    endloop
  endfacet
  facet normal -1 -0 0
    outer loop
      vertex 5 15 40
      vertex 5 5 35
      vertex 5 5 40
    endloop
  endfacet
  facet normal 0 1 -0
    outer loop
      vertex 60 15 10
      vertex 45 15 20
      vertex 65 15 20
    endloop
  endfacet
  facet normal 0 1 0
    outer loop
      vertex 30 15 10
      vertex 45 15 20
      vertex 60 15 10
    endloop
  endfacet
  facet normal 0 1 0
    outer loop
      vertex 60 15 10
      vertex 65 15 20
      vertex 65 15 10
    endloop
  endfacet
  facet normal 0 1 -0
    outer loop
      vertex 45 15 20
      vertex 35 15 30
      vertex 45 15 30
    endloop
  endfacet
  facet normal 0 1 0
    outer loop
      vertex 35 15 30
      vertex 45 15 20
      vertex 35 15 20
    endloop
  endfacet
  facet normal 0 1 -0
    outer loop
      vertex 15 15 20
      vertex 5 15 30
      vertex 15 15 30
    endloop
  endfacet
  facet normal 0 1 0
    outer loop
      vertex 45 15 20
      vertex 30 15 10
      vertex 35 15 20
    endloop
  endfacet
  facet normal 0 1 0
    outer loop
      vertex 35 15 20
      vertex 30 15 10
      vertex 15 15 20
    endloop
  endfacet
  facet normal 0 1 0
    outer loop
      vertex 15 15 20
      vertex 5 15 10
      vertex 5 15 30
    endloop
  endfacet
  facet normal 0 1 0
    outer loop
      vertex 5 15 10
      vertex 15 15 20
      vertex 30 15 10
    endloop
  endfacet
  facet normal 0 1 -0
    outer loop
      vertex 15 15 35
      vertex 5 15 40
      vertex 15 15 40
    endloop
  endfacet
  facet normal 0 1 0
    outer loop
      vertex 5 15 40
      vertex 15 15 35
      vertex 5 15 35
    endloop
  endfacet
  facet normal 0 1 -0
    outer loop
      vertex 45 15 35
      vertex 35 15 40
      vertex 45 15 40
    endloop
  endfacet
  facet normal 0 1 0
    outer loop
      vertex 35 15 40
      vertex 45 15 35
      vertex 35 15 35
    endloop
  endfacet
  facet normal 0 -1 0
    outer loop
      vertex 5 5 30
      vertex 15 5 20
      vertex 15 5 30
    endloop
  endfacet
  facet normal 0 -1 0
    outer loop
      vertex 30 5 10
      vertex 35 5 20
      vertex 15 5 20
    endloop
  endfacet
  facet normal 0 -1 -0
    outer loop
      vertex 35 5 20
      vertex 30 5 10
      vertex 45 5 20
    endloop
  endfacet
  facet normal 0 -1 0
    outer loop
      vertex 5 5 10
      vertex 15 5 20
      vertex 5 5 30
    endloop
  endfacet
  facet normal 0 -1 0
    outer loop
      vertex 30 5 10
      vertex 15 5 20
      vertex 5 5 10
    endloop
  endfacet
  facet normal 0 -1 0
    outer loop
      vertex 60 5 10
      vertex 45 5 20
      vertex 30 5 10
    endloop
  endfacet
  facet normal 0 -1 0
    outer loop
      vertex 45 5 20
      vertex 60 5 10
      vertex 65 5 20
    endloop
  endfacet
  facet normal 0 -1 -0
    outer loop
      vertex 65 5 20
      vertex 60 5 10
      vertex 65 5 10
    endloop
  endfacet
  facet normal 0 -1 0
    outer loop
      vertex 35 5 20
      vertex 45 5 30
      vertex 35 5 30
    endloop
  endfacet
  facet normal 0 -1 -0
    outer loop
      vertex 45 5 30
      vertex 35 5 20
      vertex 45 5 20
    endloop
  endfacet
  facet normal 0 -1 0
    outer loop
      vertex 5 5 35
      vertex 15 5 40
      vertex 5 5 40
    endloop
  endfacet
  facet normal 0 -1 -0
    outer loop
      vertex 15 5 40
      vertex 5 5 35
      vertex 15 5 35
    endloop
  endfacet
  facet normal 0 -1 0
    outer loop
      vertex 35 5 35
      vertex 45 5 40
      vertex 35 5 40
    endloop
  endfacet
  facet normal 0 -1 -0
    outer loop
      vertex 45 5 40
      vertex 35 5 35
      vertex 45 5 35
    endloop
  endfacet
  facet normal 1 -0 0
    outer loop
      vertex 15 5 40
      vertex 15 15 35
      vertex 15 15 40
    endloop
  endfacet
  facet normal 1 0 0
    outer loop
      vertex 15 15 35
      vertex 15 5 40
      vertex 15 5 35
    endloop
  endfacet
  facet normal 1 -0 0
    outer loop
      vertex 15 5 30
      vertex 15 15 20
      vertex 15 15 30
    endloop
  endfacet
  facet normal 1 0 0
    outer loop
      vertex 15 15 20
      vertex 15 5 30
      vertex 15 5 20
    endloop
  endfacet
  facet normal -0 0 1
    outer loop
      vertex 5 15 40
      vertex 15 5 40
      vertex 15 15 40
    endloop
  endfacet
  facet normal 0 0 1
    outer loop
      vertex 15 5 40
      vertex 5 15 40
      vertex 5 5 40
    endloop
  endfacet
  facet normal 1 -0 0
    outer loop
      vertex 65 5 20
      vertex 65 15 10
      vertex 65 15 20
    endloop
  endfacet
  facet normal 1 0 0
    outer loop
      vertex 65 15 10
      vertex 65 5 20
      vertex 65 5 10
    endloop
  endfacet
  facet normal -0 0 1
    outer loop
      vertex 45 15 20
      vertex 65 5 20
      vertex 65 15 20
    endloop
  endfacet
  facet normal 0 0 1
    outer loop
      vertex 65 5 20
      vertex 45 15 20
      vertex 45 5 20
    endloop
  endfacet
  facet normal 1 -0 0
    outer loop
      vertex 45 5 40
      vertex 45 15 35
      vertex 45 15 40
    endloop
  endfacet
  facet normal 1 0 0
    outer loop
      vertex 45 15 35
      vertex 45 5 40
      vertex 45 5 35
    endloop
  endfacet
  facet normal 1 -0 0
    outer loop
      vertex 45 5 30
      vertex 45 15 20
      vertex 45 15 30
    endloop
  endfacet
  facet normal 1 0 0
    outer loop
      vertex 45 15 20
      vertex 45 5 30
      vertex 45 5 20
    endloop
  endfacet
  facet normal -0 0 1
    outer loop
      vertex 35 15 40
      vertex 45 5 40
      vertex 45 15 40
    endloop
  endfacet
  facet normal 0 0 1
    outer loop
      vertex 45 5 40
      vertex 35 15 40
      vertex 35 5 40
    endloop
  endfacet
  facet normal 1 -0 0
    outer loop
      vertex 60 0 35
      vertex 60 30 30
      vertex 60 30 35
    endloop
  endfacet
  facet normal 1 0 0
    outer loop
      vertex 60 30 30
      vertex 60 0 35
      vertex 60 0 30
    endloop
  endfacet
  facet normal 0 0 1
    outer loop
      vertex 60 30 35
      vertex 45 15 35
      vertex 60 0 35
    endloop
  endfacet
  facet normal 0 0 1
    outer loop
      vertex 60 30 35
      vertex 35 15 35
      vertex 45 15 35
    endloop
  endfacet
  facet normal 0 0 1
    outer loop
      vertex 35 15 35
      vertex 15 15 35
      vertex 35 5 35
    endloop
  endfacet
  facet normal -0 0 1
    outer loop
      vertex 0 30 35
      vertex 35 15 35
      vertex 60 30 35
    endloop
  endfacet
  facet normal 0 0 1
    outer loop
      vertex 35 15 35
      vertex 0 30 35
      vertex 15 15 35
    endloop
  endfacet
  facet normal 0 0 1
    outer loop
      vertex 0 0 35
      vertex 5 15 35
      vertex 0 30 35
    endloop
  endfacet
  facet normal 0 0 1
    outer loop
      vertex 15 15 35
      vertex 0 30 35
      vertex 5 15 35
    endloop
  endfacet
  facet normal -0 0 1
    outer loop
      vertex 45 5 35
      vertex 60 0 35
      vertex 45 15 35
    endloop
  endfacet
  facet normal -0 0 1
    outer loop
      vertex 35 5 35
      vertex 60 0 35
      vertex 45 5 35
    endloop
  endfacet
  facet normal 0 0 1
    outer loop
      vertex 15 5 35
      vertex 35 5 35
      vertex 15 15 35
    endloop
  endfacet
  facet normal 0 0 1
    outer loop
      vertex 0 0 35
      vertex 35 5 35
      vertex 15 5 35
    endloop
  endfacet
  facet normal 0 0 1
    outer loop
      vertex 0 0 35
      vertex 15 5 35
      vertex 5 5 35
    endloop
  endfacet
  facet normal 0 0 1
    outer loop
      vertex 35 5 35
      vertex 0 0 35
      vertex 60 0 35
    endloop
  endfacet
  facet normal 0 0 1
    outer loop
      vertex 5 15 35
      vertex 0 0 35
      vertex 5 5 35
    endloop
  endfacet
  facet normal 0 0 -1
    outer loop
      vertex 45 15 30
      vertex 60 0 30
      vertex 45 5 30
    endloop
  endfacet
  facet normal 0 0 -1
    outer loop
      vertex 60 0 30
      vertex 35 5 30
      vertex 45 5 30
    endloop
  endfacet
  facet normal 0 0 -1
    outer loop
      vertex 35 5 30
      vertex 15 5 30
      vertex 35 15 30
    endloop
  endfacet
  facet normal 0 0 -1
    outer loop
      vertex 0 0 30
      vertex 35 5 30
      vertex 60 0 30
    endloop
  endfacet
  facet normal -0 0 -1
    outer loop
      vertex 35 5 30
      vertex 0 0 30
      vertex 15 5 30
    endloop
  endfacet
  facet normal -0 0 -1
    outer loop
      vertex 5 5 30
      vertex 0 0 30
      vertex 5 15 30
    endloop
  endfacet
  facet normal -0 0 -1
    outer loop
      vertex 15 5 30
      vertex 0 0 30
      vertex 5 5 30
    endloop
  endfacet
  facet normal 0 0 -1
    outer loop
      vertex 60 0 30
      vertex 45 15 30
      vertex 60 30 30
    endloop
  endfacet
  facet normal 0 0 -1
    outer loop
      vertex 35 15 30
      vertex 60 30 30
      vertex 45 15 30
    endloop
  endfacet
  facet normal 0 0 -1
    outer loop
      vertex 15 15 30
      vertex 35 15 30
      vertex 15 5 30
    endloop
  endfacet
  facet normal 0 0 -1
    outer loop
      vertex 0 30 30
      vertex 35 15 30
      vertex 15 15 30
    endloop
  endfacet
  facet normal 0 0 -1
    outer loop
      vertex 0 30 30
      vertex 15 15 30
      vertex 5 15 30
    endloop
  endfacet
  facet normal 0 0 -1
    outer loop
      vertex 35 15 30
      vertex 0 30 30
      vertex 60 30 30
    endloop
  endfacet
  facet normal 0 0 -1
    outer loop
      vertex 0 30 30
      vertex 5 15 30
      vertex 0 0 30
    endloop
  endfacet
  facet normal -1 0 0
    outer loop
      vertex 0 0 30
      vertex 0 30 35
      vertex 0 30 30
    endloop
  endfacet
  facet normal -1 -0 0
    outer loop
      vertex 0 30 35
      vertex 0 0 30
      vertex 0 0 35
    endloop
  endfacet
  facet normal 0 1 -0
    outer loop
      vertex 60 30 30
      vertex 0 30 35
      vertex 60 30 35
    endloop
  endfacet
  facet normal 0 1 0
    outer loop
      vertex 0 30 35
      vertex 60 30 30
      vertex 0 30 30
    endloop
  endfacet
  facet normal 0 -1 0
    outer loop
      vertex 0 0 30
      vertex 60 0 35
      vertex 0 0 35
    endloop
  endfacet
  facet normal 0 -1 -0
    outer loop
      vertex 60 0 35
      vertex 0 0 30
      vertex 60 0 30
    endloop
  endfacet
endsolid OpenSCAD_Model
