solid OpenSCAD_Model
  facet normal 1 -0 0
    outer loop
      vertex 25 -5 50.75
      vertex 25 5 49.25
      vertex 25 5 50.75
    endloop
  endfacet
  facet normal 1 0 0
    outer loop
      vertex 25 5 49.25
      vertex 25 -5 50.75
      vertex 25 -5 49.25
    endloop
  endfacet
  facet normal 0 0 1
    outer loop
      vertex 25 5 50.75
      vertex 1.5 0 50.75
      vertex 25 -5 50.75
    endloop
  endfacet
  facet normal 0 0 1
    outer loop
      vertex 25 5 50.75
      vertex 0.463525 1.42658 50.75
      vertex 1.5 0 50.75
    endloop
  endfacet
  facet normal 0 0 1
    outer loop
      vertex -1.21352 0.881678 50.75
      vertex -25 5 50.75
      vertex -1.21352 -0.881678 50.75
    endloop
  endfacet
  facet normal 0 0 1
    outer loop
      vertex 0.463525 1.42658 50.75
      vertex -25 5 50.75
      vertex -1.21352 0.881678 50.75
    endloop
  endfacet
  facet normal -0 0 1
    outer loop
      vertex -25 5 50.75
      vertex 0.463525 1.42658 50.75
      vertex 25 5 50.75
    endloop
  endfacet
  facet normal -0 0 1
    outer loop
      vertex 0.463525 -1.42658 50.75
      vertex 25 -5 50.75
      vertex 1.5 0 50.75
    endloop
  endfacet
  facet normal 0 0 1
    outer loop
      vertex -25 -5 50.75
      vertex -1.21352 -0.881678 50.75
      vertex -25 5 50.75
    endloop
  endfacet
  facet normal 0 0 1
    outer loop
      vertex 0.463525 -1.42658 50.75
      vertex -25 -5 50.75
      vertex 25 -5 50.75
    endloop
  endfacet
  facet normal 0 0 1
    outer loop
      vertex -1.21352 -0.881678 50.75
      vertex -25 -5 50.75
      vertex 0.463525 -1.42658 50.75
    endloop
  endfacet
  facet normal 0 0 -1
    outer loop
      vertex 25 -5 49.25
      vertex 1.5 0 49.25
      vertex 25 5 49.25
    endloop
  endfacet
  facet normal 0 0 -1
    outer loop
      vertex 25 -5 49.25
      vertex 0.463525 -1.42658 49.25
      vertex 1.5 0 49.25
    endloop
  endfacet
  facet normal -0 0 -1
    outer loop
      vertex -1.21352 -0.881678 49.25
      vertex -25 -5 49.25
      vertex -1.21352 0.881678 49.25
    endloop
  endfacet
  facet normal -0 0 -1
    outer loop
      vertex 0.463525 -1.42658 49.25
      vertex -25 -5 49.25
      vertex -1.21352 -0.881678 49.25
    endloop
  endfacet
  facet normal 0 0 -1
    outer loop
      vertex -25 -5 49.25
      vertex 0.463525 -1.42658 49.25
      vertex 25 -5 49.25
    endloop
  endfacet
  facet normal 0 0 -1
    outer loop
      vertex 0.463525 1.42658 49.25
      vertex 25 5 49.25
      vertex 1.5 0 49.25
    endloop
  endfacet
  facet normal 0 0 -1
    outer loop
      vertex -25 5 49.25
      vertex -1.21352 0.881678 49.25
      vertex -25 -5 49.25
    endloop
  endfacet
  facet normal 0 0 -1
    outer loop
      vertex 0.463525 1.42658 49.25
      vertex -25 5 49.25
      vertex 25 5 49.25
    endloop
  endfacet
  facet normal 0 0 -1
    outer loop
      vertex -1.21352 0.881678 49.25
      vertex -25 5 49.25
      vertex 0.463525 1.42658 49.25
    endloop
  endfacet
  facet normal -1 0 0
    outer loop
      vertex -25 -5 49.25
      vertex -25 5 50.75
      vertex -25 5 49.25
    endloop
  endfacet
  facet normal -1 -0 0
    outer loop
      vertex -25 5 50.75
      vertex -25 -5 49.25
      vertex -25 -5 50.75
    endloop
  endfacet
  facet normal 0 1 -0
    outer loop
      vertex 25 5 49.25
      vertex -25 5 50.75
      vertex 25 5 50.75
    endloop
  endfacet
  facet normal 0 1 0
    outer loop
      vertex -25 5 50.75
      vertex 25 5 49.25
      vertex -25 5 49.25
    endloop
  endfacet
  facet normal 0 -1 0
    outer loop
      vertex -25 -5 49.25
      vertex 25 -5 50.75
      vertex -25 -5 50.75
    endloop
  endfacet
  facet normal 0 -1 -0
    outer loop
      vertex 25 -5 50.75
      vertex -25 -5 49.25
      vertex 25 -5 49.25
    endloop
  endfacet
  facet normal 0.309015 0.951057 -0
    outer loop
      vertex 0.463525 -1.42658 49.25
      vertex -1.21352 -0.881678 50.75
      vertex 0.463525 -1.42658 50.75
    endloop
  endfacet
  facet normal 0.309015 0.951057 0
    outer loop
      vertex -1.21352 -0.881678 50.75
      vertex 0.463525 -1.42658 49.25
      vertex -1.21352 -0.881678 49.25
    endloop
  endfacet
  facet normal 0.309015 -0.951057 0
    outer loop
      vertex -1.21352 0.881678 49.25
      vertex 0.463525 1.42658 50.75
      vertex -1.21352 0.881678 50.75
    endloop
  endfacet
  facet normal 0.309015 -0.951057 0
    outer loop
      vertex 0.463525 1.42658 50.75
      vertex -1.21352 0.881678 49.25
      vertex 0.463525 1.42658 49.25
    endloop
  endfacet
  facet normal -0.809016 -0.587787 0
    outer loop
      vertex 1.5 0 49.25
      vertex 0.463525 1.42658 50.75
      vertex 0.463525 1.42658 49.25
    endloop
  endfacet
  facet normal -0.809016 -0.587787 0
    outer loop
      vertex 0.463525 1.42658 50.75
      vertex 1.5 0 49.25
      vertex 1.5 0 50.75
    endloop
  endfacet
  facet normal 1 -0 0
    outer loop
      vertex -1.21352 -0.881678 50.75
      vertex -1.21352 0.881678 49.25
      vertex -1.21352 0.881678 50.75
    endloop
  endfacet
  facet normal 1 0 0
    outer loop
      vertex -1.21352 0.881678 49.25
      vertex -1.21352 -0.881678 50.75
      vertex -1.21352 -0.881678 49.25
    endloop
  endfacet
  facet normal -0.809016 0.587787 0
    outer loop
      vertex 0.463525 -1.42658 49.25
      vertex 1.5 0 50.75
      vertex 1.5 0 49.25
    endloop
  endfacet
  facet normal -0.809016 0.587787 0
    outer loop
      vertex 1.5 0 50.75
      vertex 0.463525 -1.42658 49.25
      vertex 0.463525 -1.42658 50.75
    endloop
  endfacet
  facet normal 1 -0 0
    outer loop
      vertex -20 -25 27.5
      vertex -20 25 22.5
      vertex -20 25 27.5
    endloop
  endfacet
  facet normal 1 0 0
    outer loop
      vertex -20 25 22.5
      vertex -20 -25 27.5
      vertex -20 -25 22.5
    endloop
  endfacet
  facet normal 0 0 1
    outer loop
      vertex -20 25 27.5
      vertex -23 0 27.5
      vertex -20 -25 27.5
    endloop
  endfacet
  facet normal 0 0 1
    outer loop
      vertex -20 25 27.5
      vertex -23.753 1.56366 27.5
      vertex -23 0 27.5
    endloop
  endfacet
  facet normal 0 0 1
    outer loop
      vertex -20 25 27.5
      vertex -25.445 1.94986 27.5
      vertex -23.753 1.56366 27.5
    endloop
  endfacet
  facet normal -0 0 1
    outer loop
      vertex -30 25 27.5
      vertex -25.445 1.94986 27.5
      vertex -20 25 27.5
    endloop
  endfacet
  facet normal 0 0 1
    outer loop
      vertex -26.8019 0.867767 27.5
      vertex -30 25 27.5
      vertex -26.8019 -0.867767 27.5
    endloop
  endfacet
  facet normal 0 0 1
    outer loop
      vertex -25.445 1.94986 27.5
      vertex -30 25 27.5
      vertex -26.8019 0.867767 27.5
    endloop
  endfacet
  facet normal -0 0 1
    outer loop
      vertex -23.753 -1.56366 27.5
      vertex -20 -25 27.5
      vertex -23 0 27.5
    endloop
  endfacet
  facet normal -0 0 1
    outer loop
      vertex -25.445 -1.94986 27.5
      vertex -20 -25 27.5
      vertex -23.753 -1.56366 27.5
    endloop
  endfacet
  facet normal 0 0 1
    outer loop
      vertex -30 -25 27.5
      vertex -25.445 -1.94986 27.5
      vertex -26.8019 -0.867767 27.5
    endloop
  endfacet
  facet normal 0 0 1
    outer loop
      vertex -25.445 -1.94986 27.5
      vertex -30 -25 27.5
      vertex -20 -25 27.5
    endloop
  endfacet
  facet normal 0 0 1
    outer loop
      vertex -30 -25 27.5
      vertex -26.8019 -0.867767 27.5
      vertex -30 25 27.5
    endloop
  endfacet
  facet normal 0 0 -1
    outer loop
      vertex -20 -25 22.5
      vertex -23 0 22.5
      vertex -20 25 22.5
    endloop
  endfacet
  facet normal 0 0 -1
    outer loop
      vertex -20 -25 22.5
      vertex -23.753 -1.56366 22.5
      vertex -23 0 22.5
    endloop
  endfacet
  facet normal 0 0 -1
    outer loop
      vertex -20 -25 22.5
      vertex -25.445 -1.94986 22.5
      vertex -23.753 -1.56366 22.5
    endloop
  endfacet
  facet normal 0 0 -1
    outer loop
      vertex -30 -25 22.5
      vertex -25.445 -1.94986 22.5
      vertex -20 -25 22.5
    endloop
  endfacet
  facet normal -0 0 -1
    outer loop
      vertex -26.8019 -0.867767 22.5
      vertex -30 -25 22.5
      vertex -26.8019 0.867767 22.5
    endloop
  endfacet
  facet normal -0 0 -1
    outer loop
      vertex -25.445 -1.94986 22.5
      vertex -30 -25 22.5
      vertex -26.8019 -0.867767 22.5
    endloop
  endfacet
  facet normal 0 0 -1
    outer loop
      vertex -23.753 1.56366 22.5
      vertex -20 25 22.5
      vertex -23 0 22.5
    endloop
  endfacet
  facet normal 0 0 -1
    outer loop
      vertex -25.445 1.94986 22.5
      vertex -20 25 22.5
      vertex -23.753 1.56366 22.5
    endloop
  endfacet
  facet normal 0 0 -1
    outer loop
      vertex -30 25 22.5
      vertex -25.445 1.94986 22.5
      vertex -26.8019 0.867767 22.5
    endloop
  endfacet
  facet normal 0 0 -1
    outer loop
      vertex -25.445 1.94986 22.5
      vertex -30 25 22.5
      vertex -20 25 22.5
    endloop
  endfacet
  facet normal 0 0 -1
    outer loop
      vertex -30 25 22.5
      vertex -26.8019 0.867767 22.5
      vertex -30 -25 22.5
    endloop
  endfacet
  facet normal -1 0 0
    outer loop
      vertex -30 -25 22.5
      vertex -30 25 27.5
      vertex -30 25 22.5
    endloop
  endfacet
  facet normal -1 -0 0
    outer loop
      vertex -30 25 27.5
      vertex -30 -25 22.5
      vertex -30 -25 27.5
    endloop
  endfacet
  facet normal 0 1 -0
    outer loop
      vertex -20 25 22.5
      vertex -30 25 27.5
      vertex -20 25 27.5
    endloop
  endfacet
  facet normal 0 1 0
    outer loop
      vertex -30 25 27.5
      vertex -20 25 22.5
      vertex -30 25 22.5
    endloop
  endfacet
  facet normal 0 -1 0
    outer loop
      vertex -30 -25 22.5
      vertex -20 -25 27.5
      vertex -30 -25 27.5
    endloop
  endfacet
  facet normal 0 -1 -0
    outer loop
      vertex -20 -25 27.5
      vertex -30 -25 22.5
      vertex -20 -25 22.5
    endloop
  endfacet
  facet normal -0.222528 -0.974926 0
    outer loop
      vertex -25.445 1.94986 27
      vertex -23.753 1.56366 27.5
      vertex -25.445 1.94986 27.5
    endloop
  endfacet
  facet normal -0.222528 -0.974926 -0
    outer loop
      vertex -23.753 1.56366 27.5
      vertex -25.445 1.94986 27
      vertex -23.753 1.56366 27
    endloop
  endfacet
  facet normal -0.222528 -0.974926 0
    outer loop
      vertex -25.445 1.94986 22.5
      vertex -23.753 1.56366 25
      vertex -25.445 1.94986 25
    endloop
  endfacet
  facet normal -0.222528 -0.974926 -0
    outer loop
      vertex -23.753 1.56366 25
      vertex -25.445 1.94986 22.5
      vertex -23.753 1.56366 22.5
    endloop
  endfacet
  facet normal -0.900973 -0.433875 0
    outer loop
      vertex -23 0 27
      vertex -23.753 1.56366 27.5
      vertex -23.753 1.56366 27
    endloop
  endfacet
  facet normal -0.900973 -0.433875 0
    outer loop
      vertex -23.753 1.56366 27.5
      vertex -23 0 27
      vertex -23 0 27.5
    endloop
  endfacet
  facet normal -0.900973 -0.433875 0
    outer loop
      vertex -23 0 22.5
      vertex -23.753 1.56366 25
      vertex -23.753 1.56366 22.5
    endloop
  endfacet
  facet normal -0.900973 -0.433875 0
    outer loop
      vertex -23.753 1.56366 25
      vertex -23 0 22.5
      vertex -23 0 25
    endloop
  endfacet
  facet normal -0.900973 0.433875 0
    outer loop
      vertex -23.753 -1.56366 27
      vertex -23 0 27.5
      vertex -23 0 27
    endloop
  endfacet
  facet normal -0.900973 0.433875 0
    outer loop
      vertex -23 0 27.5
      vertex -23.753 -1.56366 27
      vertex -23.753 -1.56366 27.5
    endloop
  endfacet
  facet normal -0.900973 0.433875 0
    outer loop
      vertex -23.753 -1.56366 22.5
      vertex -23 0 25
      vertex -23 0 22.5
    endloop
  endfacet
  facet normal -0.900973 0.433875 0
    outer loop
      vertex -23 0 25
      vertex -23.753 -1.56366 22.5
      vertex -23.753 -1.56366 25
    endloop
  endfacet
  facet normal 0.62349 0.781831 -0
    outer loop
      vertex -25.445 -1.94986 27
      vertex -26.8019 -0.867767 27.5
      vertex -25.445 -1.94986 27.5
    endloop
  endfacet
  facet normal 0.62349 0.781831 0
    outer loop
      vertex -26.8019 -0.867767 27.5
      vertex -25.445 -1.94986 27
      vertex -26.8019 -0.867767 27
    endloop
  endfacet
  facet normal 0.62349 0.781831 -0
    outer loop
      vertex -25.445 -1.94986 22.5
      vertex -26.8019 -0.867767 25
      vertex -25.445 -1.94986 25
    endloop
  endfacet
  facet normal 0.62349 0.781831 0
    outer loop
      vertex -26.8019 -0.867767 25
      vertex -25.445 -1.94986 22.5
      vertex -26.8019 -0.867767 22.5
    endloop
  endfacet
  facet normal -0.222528 0.974926 0
    outer loop
      vertex -23.753 -1.56366 27
      vertex -25.445 -1.94986 27.5
      vertex -23.753 -1.56366 27.5
    endloop
  endfacet
  facet normal -0.222528 0.974926 0
    outer loop
      vertex -25.445 -1.94986 27.5
      vertex -23.753 -1.56366 27
      vertex -25.445 -1.94986 27
    endloop
  endfacet
  facet normal -0.222528 0.974926 0
    outer loop
      vertex -23.753 -1.56366 22.5
      vertex -25.445 -1.94986 25
      vertex -23.753 -1.56366 25
    endloop
  endfacet
  facet normal -0.222528 0.974926 0
    outer loop
      vertex -25.445 -1.94986 25
      vertex -23.753 -1.56366 22.5
      vertex -25.445 -1.94986 22.5
    endloop
  endfacet
  facet normal 1 -0 0
    outer loop
      vertex -26.8019 -0.867767 27.5
      vertex -26.8019 0.867767 27
      vertex -26.8019 0.867767 27.5
    endloop
  endfacet
  facet normal 1 0 0
    outer loop
      vertex -26.8019 0.867767 27
      vertex -26.8019 -0.867767 27.5
      vertex -26.8019 -0.867767 27
    endloop
  endfacet
  facet normal 1 -0 0
    outer loop
      vertex -26.8019 -0.867767 25
      vertex -26.8019 0.867767 22.5
      vertex -26.8019 0.867767 25
    endloop
  endfacet
  facet normal 1 0 0
    outer loop
      vertex -26.8019 0.867767 22.5
      vertex -26.8019 -0.867767 25
      vertex -26.8019 -0.867767 22.5
    endloop
  endfacet
  facet normal 0.62349 -0.781831 0
    outer loop
      vertex -26.8019 0.867767 27
      vertex -25.445 1.94986 27.5
      vertex -26.8019 0.867767 27.5
    endloop
  endfacet
  facet normal 0.62349 -0.781831 0
    outer loop
      vertex -25.445 1.94986 27.5
      vertex -26.8019 0.867767 27
      vertex -25.445 1.94986 27
    endloop
  endfacet
  facet normal 0.62349 -0.781831 0
    outer loop
      vertex -26.8019 0.867767 22.5
      vertex -25.445 1.94986 25
      vertex -26.8019 0.867767 25
    endloop
  endfacet
  facet normal 0.62349 -0.781831 0
    outer loop
      vertex -25.445 1.94986 25
      vertex -26.8019 0.867767 22.5
      vertex -25.445 1.94986 22.5
    endloop
  endfacet
  facet normal 1 -0 0
    outer loop
      vertex 30 -25 27.5
      vertex 30 25 22.5
      vertex 30 25 27.5
    endloop
  endfacet
  facet normal 1 0 0
    outer loop
      vertex 30 25 22.5
      vertex 30 -25 27.5
      vertex 30 -25 22.5
    endloop
  endfacet
  facet normal 0 0 1
    outer loop
      vertex 30 25 27.5
      vertex 27 0 27.5
      vertex 30 -25 27.5
    endloop
  endfacet
  facet normal 0 0 1
    outer loop
      vertex 30 25 27.5
      vertex 26.247 1.56366 27.5
      vertex 27 0 27.5
    endloop
  endfacet
  facet normal 0 0 1
    outer loop
      vertex 30 25 27.5
      vertex 24.555 1.94986 27.5
      vertex 26.247 1.56366 27.5
    endloop
  endfacet
  facet normal -0 0 1
    outer loop
      vertex 20 25 27.5
      vertex 24.555 1.94986 27.5
      vertex 30 25 27.5
    endloop
  endfacet
  facet normal 0 0 1
    outer loop
      vertex 23.1981 0.867767 27.5
      vertex 20 25 27.5
      vertex 23.1981 -0.867767 27.5
    endloop
  endfacet
  facet normal 0 0 1
    outer loop
      vertex 24.555 1.94986 27.5
      vertex 20 25 27.5
      vertex 23.1981 0.867767 27.5
    endloop
  endfacet
  facet normal -0 0 1
    outer loop
      vertex 26.247 -1.56366 27.5
      vertex 30 -25 27.5
      vertex 27 0 27.5
    endloop
  endfacet
  facet normal -0 0 1
    outer loop
      vertex 24.555 -1.94986 27.5
      vertex 30 -25 27.5
      vertex 26.247 -1.56366 27.5
    endloop
  endfacet
  facet normal 0 0 1
    outer loop
      vertex 20 -25 27.5
      vertex 24.555 -1.94986 27.5
      vertex 23.1981 -0.867767 27.5
    endloop
  endfacet
  facet normal 0 0 1
    outer loop
      vertex 24.555 -1.94986 27.5
      vertex 20 -25 27.5
      vertex 30 -25 27.5
    endloop
  endfacet
  facet normal 0 0 1
    outer loop
      vertex 20 -25 27.5
      vertex 23.1981 -0.867767 27.5
      vertex 20 25 27.5
    endloop
  endfacet
  facet normal 0 0 -1
    outer loop
      vertex 30 -25 22.5
      vertex 27 0 22.5
      vertex 30 25 22.5
    endloop
  endfacet
  facet normal 0 0 -1
    outer loop
      vertex 30 -25 22.5
      vertex 26.247 -1.56366 22.5
      vertex 27 0 22.5
    endloop
  endfacet
  facet normal 0 0 -1
    outer loop
      vertex 30 -25 22.5
      vertex 24.555 -1.94986 22.5
      vertex 26.247 -1.56366 22.5
    endloop
  endfacet
  facet normal 0 0 -1
    outer loop
      vertex 20 -25 22.5
      vertex 24.555 -1.94986 22.5
      vertex 30 -25 22.5
    endloop
  endfacet
  facet normal -0 0 -1
    outer loop
      vertex 23.1981 -0.867767 22.5
      vertex 20 -25 22.5
      vertex 23.1981 0.867767 22.5
    endloop
  endfacet
  facet normal -0 0 -1
    outer loop
      vertex 24.555 -1.94986 22.5
      vertex 20 -25 22.5
      vertex 23.1981 -0.867767 22.5
    endloop
  endfacet
  facet normal 0 0 -1
    outer loop
      vertex 26.247 1.56366 22.5
      vertex 30 25 22.5
      vertex 27 0 22.5
    endloop
  endfacet
  facet normal 0 0 -1
    outer loop
      vertex 24.555 1.94986 22.5
      vertex 30 25 22.5
      vertex 26.247 1.56366 22.5
    endloop
  endfacet
  facet normal 0 0 -1
    outer loop
      vertex 20 25 22.5
      vertex 24.555 1.94986 22.5
      vertex 23.1981 0.867767 22.5
    endloop
  endfacet
  facet normal 0 0 -1
    outer loop
      vertex 24.555 1.94986 22.5
      vertex 20 25 22.5
      vertex 30 25 22.5
    endloop
  endfacet
  facet normal 0 0 -1
    outer loop
      vertex 20 25 22.5
      vertex 23.1981 0.867767 22.5
      vertex 20 -25 22.5
    endloop
  endfacet
  facet normal -1 0 0
    outer loop
      vertex 20 -25 22.5
      vertex 20 25 27.5
      vertex 20 25 22.5
    endloop
  endfacet
  facet normal -1 -0 0
    outer loop
      vertex 20 25 27.5
      vertex 20 -25 22.5
      vertex 20 -25 27.5
    endloop
  endfacet
  facet normal 0 1 -0
    outer loop
      vertex 30 25 22.5
      vertex 20 25 27.5
      vertex 30 25 27.5
    endloop
  endfacet
  facet normal 0 1 0
    outer loop
      vertex 20 25 27.5
      vertex 30 25 22.5
      vertex 20 25 22.5
    endloop
  endfacet
  facet normal 0 -1 0
    outer loop
      vertex 20 -25 22.5
      vertex 30 -25 27.5
      vertex 20 -25 27.5
    endloop
  endfacet
  facet normal 0 -1 -0
    outer loop
      vertex 30 -25 27.5
      vertex 20 -25 22.5
      vertex 30 -25 22.5
    endloop
  endfacet
  facet normal -0.222528 -0.974926 0
    outer loop
      vertex 24.555 1.94986 27
      vertex 26.247 1.56366 27.5
      vertex 24.555 1.94986 27.5
    endloop
  endfacet
  facet normal -0.222528 -0.974926 -0
    outer loop
      vertex 26.247 1.56366 27.5
      vertex 24.555 1.94986 27
      vertex 26.247 1.56366 27
    endloop
  endfacet
  facet normal -0.222528 -0.974926 0
    outer loop
      vertex 24.555 1.94986 22.5
      vertex 26.247 1.56366 25
      vertex 24.555 1.94986 25
    endloop
  endfacet
  facet normal -0.222528 -0.974926 -0
    outer loop
      vertex 26.247 1.56366 25
      vertex 24.555 1.94986 22.5
      vertex 26.247 1.56366 22.5
    endloop
  endfacet
  facet normal -0.900973 -0.433875 0
    outer loop
      vertex 27 0 27
      vertex 26.247 1.56366 27.5
      vertex 26.247 1.56366 27
    endloop
  endfacet
  facet normal -0.900973 -0.433875 0
    outer loop
      vertex 26.247 1.56366 27.5
      vertex 27 0 27
      vertex 27 0 27.5
    endloop
  endfacet
  facet normal -0.900973 -0.433875 0
    outer loop
      vertex 27 0 22.5
      vertex 26.247 1.56366 25
      vertex 26.247 1.56366 22.5
    endloop
  endfacet
  facet normal -0.900973 -0.433875 0
    outer loop
      vertex 26.247 1.56366 25
      vertex 27 0 22.5
      vertex 27 0 25
    endloop
  endfacet
  facet normal -0.900973 0.433875 0
    outer loop
      vertex 26.247 -1.56366 27
      vertex 27 0 27.5
      vertex 27 0 27
    endloop
  endfacet
  facet normal -0.900973 0.433875 0
    outer loop
      vertex 27 0 27.5
      vertex 26.247 -1.56366 27
      vertex 26.247 -1.56366 27.5
    endloop
  endfacet
  facet normal -0.900973 0.433875 0
    outer loop
      vertex 26.247 -1.56366 22.5
      vertex 27 0 25
      vertex 27 0 22.5
    endloop
  endfacet
  facet normal -0.900973 0.433875 0
    outer loop
      vertex 27 0 25
      vertex 26.247 -1.56366 22.5
      vertex 26.247 -1.56366 25
    endloop
  endfacet
  facet normal 0.62349 0.781831 -0
    outer loop
      vertex 24.555 -1.94986 27
      vertex 23.1981 -0.867767 27.5
      vertex 24.555 -1.94986 27.5
    endloop
  endfacet
  facet normal 0.62349 0.781831 0
    outer loop
      vertex 23.1981 -0.867767 27.5
      vertex 24.555 -1.94986 27
      vertex 23.1981 -0.867767 27
    endloop
  endfacet
  facet normal 0.62349 0.781831 -0
    outer loop
      vertex 24.555 -1.94986 22.5
      vertex 23.1981 -0.867767 25
      vertex 24.555 -1.94986 25
    endloop
  endfacet
  facet normal 0.62349 0.781831 0
    outer loop
      vertex 23.1981 -0.867767 25
      vertex 24.555 -1.94986 22.5
      vertex 23.1981 -0.867767 22.5
    endloop
  endfacet
  facet normal -0.222528 0.974926 0
    outer loop
      vertex 26.247 -1.56366 27
      vertex 24.555 -1.94986 27.5
      vertex 26.247 -1.56366 27.5
    endloop
  endfacet
  facet normal -0.222528 0.974926 0
    outer loop
      vertex 24.555 -1.94986 27.5
      vertex 26.247 -1.56366 27
      vertex 24.555 -1.94986 27
    endloop
  endfacet
  facet normal -0.222528 0.974926 0
    outer loop
      vertex 26.247 -1.56366 22.5
      vertex 24.555 -1.94986 25
      vertex 26.247 -1.56366 25
    endloop
  endfacet
  facet normal -0.222528 0.974926 0
    outer loop
      vertex 24.555 -1.94986 25
      vertex 26.247 -1.56366 22.5
      vertex 24.555 -1.94986 22.5
    endloop
  endfacet
  facet normal 1 -0 0
    outer loop
      vertex 23.1981 -0.867767 27.5
      vertex 23.1981 0.867767 27
      vertex 23.1981 0.867767 27.5
    endloop
  endfacet
  facet normal 1 0 0
    outer loop
      vertex 23.1981 0.867767 27
      vertex 23.1981 -0.867767 27.5
      vertex 23.1981 -0.867767 27
    endloop
  endfacet
  facet normal 1 -0 0
    outer loop
      vertex 23.1981 -0.867767 25
      vertex 23.1981 0.867767 22.5
      vertex 23.1981 0.867767 25
    endloop
  endfacet
  facet normal 1 0 0
    outer loop
      vertex 23.1981 0.867767 22.5
      vertex 23.1981 -0.867767 25
      vertex 23.1981 -0.867767 22.5
    endloop
  endfacet
  facet normal 0.62349 -0.781831 0
    outer loop
      vertex 23.1981 0.867767 27
      vertex 24.555 1.94986 27.5
      vertex 23.1981 0.867767 27.5
    endloop
  endfacet
  facet normal 0.62349 -0.781831 0
    outer loop
      vertex 24.555 1.94986 27.5
      vertex 23.1981 0.867767 27
      vertex 24.555 1.94986 27
    endloop
  endfacet
  facet normal 0.62349 -0.781831 0
    outer loop
      vertex 23.1981 0.867767 22.5
      vertex 24.555 1.94986 25
      vertex 23.1981 0.867767 25
    endloop
  endfacet
  facet normal 0.62349 -0.781831 0
    outer loop
      vertex 24.555 1.94986 25
      vertex 23.1981 0.867767 22.5
      vertex 24.555 1.94986 22.5
    endloop
  endfacet
  facet normal 1 -0 0
    outer loop
      vertex 10 -5 2.5
      vertex 10 5 -2.5
      vertex 10 5 2.5
    endloop
  endfacet
  facet normal 1 0 0
    outer loop
      vertex 10 5 -2.5
      vertex 10 -5 2.5
      vertex 10 -5 -2.5
    endloop
  endfacet
  facet normal -0 0 1
    outer loop
      vertex -10 5 2.5
      vertex -3.88377 -5 2.5
      vertex -3.88377 5 2.5
    endloop
  endfacet
  facet normal 0 0 1
    outer loop
      vertex -3.88377 -5 2.5
      vertex -10 5 2.5
      vertex -10 -5 2.5
    endloop
  endfacet
  facet normal -0 0 1
    outer loop
      vertex 4 5 2.5
      vertex 10 -5 2.5
      vertex 10 5 2.5
    endloop
  endfacet
  facet normal 0 0 1
    outer loop
      vertex 10 -5 2.5
      vertex 4 5 2.5
      vertex 4 -5 2.5
    endloop
  endfacet
  facet normal 0 0 -1
    outer loop
      vertex 10 -5 -2.5
      vertex 6 -2.5 -2.5
      vertex 10 5 -2.5
    endloop
  endfacet
  facet normal 0 0 -1
    outer loop
      vertex 10 -5 -2.5
      vertex -6 -2.5 -2.5
      vertex 6 -2.5 -2.5
    endloop
  endfacet
  facet normal -0 0 -1
    outer loop
      vertex -6 -2.5 -2.5
      vertex -10 -5 -2.5
      vertex -6 2.5 -2.5
    endloop
  endfacet
  facet normal 0 0 -1
    outer loop
      vertex -10 -5 -2.5
      vertex -6 -2.5 -2.5
      vertex 10 -5 -2.5
    endloop
  endfacet
  facet normal 0 0 -1
    outer loop
      vertex 6 2.5 -2.5
      vertex 10 5 -2.5
      vertex 6 -2.5 -2.5
    endloop
  endfacet
  facet normal 0 0 -1
    outer loop
      vertex -6 2.5 -2.5
      vertex 10 5 -2.5
      vertex 6 2.5 -2.5
    endloop
  endfacet
  facet normal 0 0 -1
    outer loop
      vertex -6 2.5 -2.5
      vertex -10 5 -2.5
      vertex 10 5 -2.5
    endloop
  endfacet
  facet normal 0 0 -1
    outer loop
      vertex -10 5 -2.5
      vertex -6 2.5 -2.5
      vertex -10 -5 -2.5
    endloop
  endfacet
  facet normal -1 0 0
    outer loop
      vertex -10 -5 -2.5
      vertex -10 5 2.5
      vertex -10 5 -2.5
    endloop
  endfacet
  facet normal -1 -0 0
    outer loop
      vertex -10 5 2.5
      vertex -10 -5 -2.5
      vertex -10 -5 2.5
    endloop
  endfacet
  facet normal 0 1 0
    outer loop
      vertex 10 5 2.5
      vertex 3.54182 5 0.641107
      vertex 4 5 2.5
    endloop
  endfacet
  facet normal 0 1 -0
    outer loop
      vertex 10 5 -2.5
      vertex 3.54182 5 0.641107
      vertex 10 5 2.5
    endloop
  endfacet
  facet normal 0 1 0
    outer loop
      vertex 2.27226 5 -0.791935
      vertex 10 5 -2.5
      vertex 0.482146 5 -1.47083
    endloop
  endfacet
  facet normal 0 1 0
    outer loop
      vertex 3.54182 5 0.641107
      vertex 10 5 -2.5
      vertex 2.27226 5 -0.791935
    endloop
  endfacet
  facet normal 0 1 -0
    outer loop
      vertex -3.88377 5 1.54274
      vertex -10 5 2.5
      vertex -3.88377 5 2.5
    endloop
  endfacet
  facet normal 0 1 0
    outer loop
      vertex -10 5 -2.5
      vertex -3.88377 5 1.54274
      vertex -2.99404 5 -0.152491
    endloop
  endfacet
  facet normal 0 1 0
    outer loop
      vertex -10 5 -2.5
      vertex -2.99404 5 -0.152491
      vertex -1.41842 5 -1.24006
    endloop
  endfacet
  facet normal 0 1 0
    outer loop
      vertex -3.88377 5 1.54274
      vertex -10 5 -2.5
      vertex -10 5 2.5
    endloop
  endfacet
  facet normal 0 1 0
    outer loop
      vertex 0.482146 5 -1.47083
      vertex -10 5 -2.5
      vertex -1.41842 5 -1.24006
    endloop
  endfacet
  facet normal 0 1 0
    outer loop
      vertex -10 5 -2.5
      vertex 0.482146 5 -1.47083
      vertex 10 5 -2.5
    endloop
  endfacet
  facet normal 0 -1 0
    outer loop
      vertex -10 -5 2.5
      vertex -3.88377 -5 1.54274
      vertex -3.88377 -5 2.5
    endloop
  endfacet
  facet normal 0 -1 0
    outer loop
      vertex -10 -5 -2.5
      vertex -3.88377 -5 1.54274
      vertex -10 -5 2.5
    endloop
  endfacet
  facet normal 0 -1 -0
    outer loop
      vertex -3.88377 -5 1.54274
      vertex -10 -5 -2.5
      vertex -2.99404 -5 -0.152491
    endloop
  endfacet
  facet normal 0 -1 -0
    outer loop
      vertex -1.41842 -5 -1.24006
      vertex -10 -5 -2.5
      vertex 0.482146 -5 -1.47083
    endloop
  endfacet
  facet normal 0 -1 -0
    outer loop
      vertex -2.99404 -5 -0.152491
      vertex -10 -5 -2.5
      vertex -1.41842 -5 -1.24006
    endloop
  endfacet
  facet normal 0 -1 0
    outer loop
      vertex 3.54182 -5 0.641107
      vertex 10 -5 2.5
      vertex 4 -5 2.5
    endloop
  endfacet
  facet normal 0 -1 0
    outer loop
      vertex 10 -5 -2.5
      vertex 3.54182 -5 0.641107
      vertex 2.27226 -5 -0.791935
    endloop
  endfacet
  facet normal 0 -1 0
    outer loop
      vertex 3.54182 -5 0.641107
      vertex 10 -5 -2.5
      vertex 10 -5 2.5
    endloop
  endfacet
  facet normal 0 -1 0
    outer loop
      vertex 0.482146 -5 -1.47083
      vertex 10 -5 -2.5
      vertex 2.27226 -5 -0.791935
    endloop
  endfacet
  facet normal 0 -1 0
    outer loop
      vertex 10 -5 -2.5
      vertex 0.482146 -5 -1.47083
      vertex -10 -5 -2.5
    endloop
  endfacet
  facet normal -0.354602 0 0.935017
    outer loop
      vertex 0.482146 5 -1.47083
      vertex 2.27226 2.5 -0.791935
      vertex 2.27226 5 -0.791935
    endloop
  endfacet
  facet normal -0.354602 0 0.935017
    outer loop
      vertex 2.27226 2.5 -0.791935
      vertex 0.482146 5 -1.47083
      vertex 0.482146 2.5 -1.47083
    endloop
  endfacet
  facet normal -0.354602 0 0.935017
    outer loop
      vertex 0.482146 -2.5 -1.47083
      vertex 2.27226 -5 -0.791935
      vertex 2.27226 -2.5 -0.791935
    endloop
  endfacet
  facet normal -0.354602 0 0.935017
    outer loop
      vertex 2.27226 -5 -0.791935
      vertex 0.482146 -2.5 -1.47083
      vertex 0.482146 -5 -1.47083
    endloop
  endfacet
  facet normal 1 -0 0
    outer loop
      vertex -3.88377 -5 2.5
      vertex -3.88377 5 1.54274
      vertex -3.88377 5 2.5
    endloop
  endfacet
  facet normal 1 0 0
    outer loop
      vertex -3.88377 5 1.54274
      vertex -3.88377 -5 2.5
      vertex -3.88377 -5 1.54274
    endloop
  endfacet
  facet normal 0.568064 0 0.822985
    outer loop
      vertex -2.99404 5 -0.152491
      vertex -1.41842 2.5 -1.24006
      vertex -1.41842 5 -1.24006
    endloop
  endfacet
  facet normal 0.568064 0 0.822985
    outer loop
      vertex -1.41842 2.5 -1.24006
      vertex -2.99404 5 -0.152491
      vertex -2.99404 2.5 -0.152491
    endloop
  endfacet
  facet normal 0.568064 0 0.822985
    outer loop
      vertex -2.99404 -2.5 -0.152491
      vertex -1.41842 -5 -1.24006
      vertex -1.41842 -2.5 -1.24006
    endloop
  endfacet
  facet normal 0.568064 0 0.822985
    outer loop
      vertex -1.41842 -5 -1.24006
      vertex -2.99404 -2.5 -0.152491
      vertex -2.99404 -5 -0.152491
    endloop
  endfacet
  facet normal 0.120536 0 0.992709
    outer loop
      vertex -1.41842 5 -1.24006
      vertex 0.482146 2.5 -1.47083
      vertex 0.482146 5 -1.47083
    endloop
  endfacet
  facet normal 0.120536 0 0.992709
    outer loop
      vertex 0.482146 2.5 -1.47083
      vertex -1.41842 5 -1.24006
      vertex -1.41842 2.5 -1.24006
    endloop
  endfacet
  facet normal 0.120536 0 0.992709
    outer loop
      vertex -1.41842 -2.5 -1.24006
      vertex 0.482146 -5 -1.47083
      vertex 0.482146 -2.5 -1.47083
    endloop
  endfacet
  facet normal 0.120536 0 0.992709
    outer loop
      vertex 0.482146 -5 -1.47083
      vertex -1.41842 -2.5 -1.24006
      vertex -1.41842 -5 -1.24006
    endloop
  endfacet
  facet normal 0.885455 -2.18786e-06 0.464725
    outer loop
      vertex -3.88377 5 1.54274
      vertex -3.07408 2.5 0
      vertex -2.99404 5 -0.152491
    endloop
  endfacet
  facet normal 0.885457 0 0.464722
    outer loop
      vertex -3.88377 5 1.54274
      vertex -3.07408 -2.5 0
      vertex -3.07408 2.5 0
    endloop
  endfacet
  facet normal 0.885457 -0 0.464722
    outer loop
      vertex -3.88377 -5 1.54274
      vertex -3.07408 -2.5 0
      vertex -3.88377 5 1.54274
    endloop
  endfacet
  facet normal 0.885455 2.18786e-06 0.464725
    outer loop
      vertex -2.99404 -5 -0.152491
      vertex -3.07408 -2.5 0
      vertex -3.88377 -5 1.54274
    endloop
  endfacet
  facet normal 0.88544 0 0.464753
    outer loop
      vertex -3.07408 -2.5 0
      vertex -2.99404 -5 -0.152491
      vertex -2.99404 -2.5 -0.152491
    endloop
  endfacet
  facet normal 0.88544 0 0.464753
    outer loop
      vertex -2.99404 5 -0.152491
      vertex -3.07408 2.5 0
      vertex -2.99404 2.5 -0.152491
    endloop
  endfacet
  facet normal -0.970941 0 0.239318
    outer loop
      vertex 3.54182 -5 0.641107
      vertex 4 5 2.5
      vertex 3.54182 5 0.641107
    endloop
  endfacet
  facet normal -0.970941 0 0.239318
    outer loop
      vertex 4 5 2.5
      vertex 3.54182 -5 0.641107
      vertex 4 -5 2.5
    endloop
  endfacet
  facet normal -0.748512 0 0.663121
    outer loop
      vertex 2.27226 -2.5 -0.791935
      vertex 2.27226 -5 -0.791935
      vertex 2.97385 -2.5 0
    endloop
  endfacet
  facet normal -0.748512 0 0.663121
    outer loop
      vertex 2.97385 2.5 0
      vertex 2.27226 5 -0.791935
      vertex 2.27226 2.5 -0.791935
    endloop
  endfacet
  facet normal -0.748512 2.21846e-07 0.663121
    outer loop
      vertex 2.27226 5 -0.791935
      vertex 2.97385 2.5 0
      vertex 3.54182 5 0.641107
    endloop
  endfacet
  facet normal -0.748511 0 0.663122
    outer loop
      vertex 2.97385 -2.5 0
      vertex 3.54182 5 0.641107
      vertex 2.97385 2.5 0
    endloop
  endfacet
  facet normal -0.748511 0 0.663122
    outer loop
      vertex 2.97385 -2.5 0
      vertex 3.54182 -5 0.641107
      vertex 3.54182 5 0.641107
    endloop
  endfacet
  facet normal -0.748512 -2.21846e-07 0.663121
    outer loop
      vertex 3.54182 -5 0.641107
      vertex 2.97385 -2.5 0
      vertex 2.27226 -5 -0.791935
    endloop
  endfacet
  facet normal -1 0 0
    outer loop
      vertex 6 -2.5 -2.5
      vertex 6 2.5 0
      vertex 6 2.5 -2.5
    endloop
  endfacet
  facet normal -1 -0 0
    outer loop
      vertex 6 2.5 0
      vertex 6 -2.5 -2.5
      vertex 6 -2.5 0
    endloop
  endfacet
  facet normal 0 0 -1
    outer loop
      vertex -6 -2.5 0
      vertex -3.07408 2.5 0
      vertex -3.07408 -2.5 0
    endloop
  endfacet
  facet normal -0 0 -1
    outer loop
      vertex -3.07408 2.5 0
      vertex -6 -2.5 0
      vertex -6 2.5 0
    endloop
  endfacet
  facet normal 0 0 -1
    outer loop
      vertex 2.97385 -2.5 0
      vertex 6 2.5 0
      vertex 6 -2.5 0
    endloop
  endfacet
  facet normal -0 0 -1
    outer loop
      vertex 6 2.5 0
      vertex 2.97385 -2.5 0
      vertex 2.97385 2.5 0
    endloop
  endfacet
  facet normal 1 -0 0
    outer loop
      vertex -6 -2.5 0
      vertex -6 2.5 -2.5
      vertex -6 2.5 0
    endloop
  endfacet
  facet normal 1 0 0
    outer loop
      vertex -6 2.5 -2.5
      vertex -6 -2.5 0
      vertex -6 -2.5 -2.5
    endloop
  endfacet
  facet normal 0 -1 0
    outer loop
      vertex -6 2.5 0
      vertex -2.99404 2.5 -0.152491
      vertex -3.07408 2.5 0
    endloop
  endfacet
  facet normal 0 -1 0
    outer loop
      vertex -6 2.5 -2.5
      vertex -2.99404 2.5 -0.152491
      vertex -6 2.5 0
    endloop
  endfacet
  facet normal 0 -1 -0
    outer loop
      vertex -1.41842 2.5 -1.24006
      vertex -6 2.5 -2.5
      vertex 0.482146 2.5 -1.47083
    endloop
  endfacet
  facet normal 0 -1 -0
    outer loop
      vertex -2.99404 2.5 -0.152491
      vertex -6 2.5 -2.5
      vertex -1.41842 2.5 -1.24006
    endloop
  endfacet
  facet normal 0 -1 0
    outer loop
      vertex 6 2.5 -2.5
      vertex 2.97385 2.5 0
      vertex 2.27226 2.5 -0.791935
    endloop
  endfacet
  facet normal 0 -1 0
    outer loop
      vertex 6 2.5 -2.5
      vertex 2.27226 2.5 -0.791935
      vertex 0.482146 2.5 -1.47083
    endloop
  endfacet
  facet normal 0 -1 0
    outer loop
      vertex 2.97385 2.5 0
      vertex 6 2.5 -2.5
      vertex 6 2.5 0
    endloop
  endfacet
  facet normal 0 -1 0
    outer loop
      vertex 6 2.5 -2.5
      vertex 0.482146 2.5 -1.47083
      vertex -6 2.5 -2.5
    endloop
  endfacet
  facet normal 0 1 -0
    outer loop
      vertex 6 -2.5 -2.5
      vertex 2.97385 -2.5 0
      vertex 6 -2.5 0
    endloop
  endfacet
  facet normal 0 1 0
    outer loop
      vertex 2.97385 -2.5 0
      vertex 6 -2.5 -2.5
      vertex 2.27226 -2.5 -0.791935
    endloop
  endfacet
  facet normal 0 1 0
    outer loop
      vertex 2.27226 -2.5 -0.791935
      vertex 6 -2.5 -2.5
      vertex 0.482146 -2.5 -1.47083
    endloop
  endfacet
  facet normal 0 1 0
    outer loop
      vertex -2.99404 -2.5 -0.152491
      vertex -6 -2.5 0
      vertex -3.07408 -2.5 0
    endloop
  endfacet
  facet normal 0 1 0
    outer loop
      vertex -6 -2.5 -2.5
      vertex -2.99404 -2.5 -0.152491
      vertex -1.41842 -2.5 -1.24006
    endloop
  endfacet
  facet normal 0 1 0
    outer loop
      vertex -6 -2.5 -2.5
      vertex 0.482146 -2.5 -1.47083
      vertex 6 -2.5 -2.5
    endloop
  endfacet
  facet normal 0 1 0
    outer loop
      vertex -2.99404 -2.5 -0.152491
      vertex -6 -2.5 -2.5
      vertex -6 -2.5 0
    endloop
  endfacet
  facet normal 0 1 0
    outer loop
      vertex 0.482146 -2.5 -1.47083
      vertex -6 -2.5 -2.5
      vertex -1.41842 -2.5 -1.24006
    endloop
  endfacet
  facet normal 1 -0 0
    outer loop
      vertex 25 -25 -22.5
      vertex 25 25 -27.5
      vertex 25 25 -22.5
    endloop
  endfacet
  facet normal 1 0 0
    outer loop
      vertex 25 25 -27.5
      vertex 25 -25 -22.5
      vertex 25 -25 -27.5
    endloop
  endfacet
  facet normal 0 0 1
    outer loop
      vertex 25 25 -22.5
      vertex 4 0 -22.5
      vertex 25 -25 -22.5
    endloop
  endfacet
  facet normal 0 0 1
    outer loop
      vertex 25 25 -22.5
      vertex 3.54182 1.85889 -22.5
      vertex 4 0 -22.5
    endloop
  endfacet
  facet normal 0 0 1
    outer loop
      vertex 25 25 -22.5
      vertex 2.27226 3.29193 -22.5
      vertex 3.54182 1.85889 -22.5
    endloop
  endfacet
  facet normal 0 0 1
    outer loop
      vertex 25 25 -22.5
      vertex 0.482146 3.97083 -22.5
      vertex 2.27226 3.29193 -22.5
    endloop
  endfacet
  facet normal -0 0 1
    outer loop
      vertex -25 25 -22.5
      vertex 0.482146 3.97083 -22.5
      vertex 25 25 -22.5
    endloop
  endfacet
  facet normal 0 0 1
    outer loop
      vertex 0.482146 3.97083 -22.5
      vertex -25 25 -22.5
      vertex -1.41842 3.74006 -22.5
    endloop
  endfacet
  facet normal 0 0 1
    outer loop
      vertex -3.88377 0.957262 -22.5
      vertex -25 25 -22.5
      vertex -3.88377 -0.957262 -22.5
    endloop
  endfacet
  facet normal 0 0 1
    outer loop
      vertex -2.99404 2.65249 -22.5
      vertex -25 25 -22.5
      vertex -3.88377 0.957262 -22.5
    endloop
  endfacet
  facet normal 0 0 1
    outer loop
      vertex -1.41842 3.74006 -22.5
      vertex -25 25 -22.5
      vertex -2.99404 2.65249 -22.5
    endloop
  endfacet
  facet normal -0 0 1
    outer loop
      vertex 3.54182 -1.85889 -22.5
      vertex 25 -25 -22.5
      vertex 4 0 -22.5
    endloop
  endfacet
  facet normal -0 0 1
    outer loop
      vertex 2.27226 -3.29193 -22.5
      vertex 25 -25 -22.5
      vertex 3.54182 -1.85889 -22.5
    endloop
  endfacet
  facet normal -0 0 1
    outer loop
      vertex 0.482146 -3.97083 -22.5
      vertex 25 -25 -22.5
      vertex 2.27226 -3.29193 -22.5
    endloop
  endfacet
  facet normal 0 0 1
    outer loop
      vertex -25 -25 -22.5
      vertex 0.482146 -3.97083 -22.5
      vertex -1.41842 -3.74006 -22.5
    endloop
  endfacet
  facet normal 0 0 1
    outer loop
      vertex -25 -25 -22.5
      vertex -1.41842 -3.74006 -22.5
      vertex -2.99404 -2.65249 -22.5
    endloop
  endfacet
  facet normal 0 0 1
    outer loop
      vertex -25 -25 -22.5
      vertex -3.88377 -0.957262 -22.5
      vertex -25 25 -22.5
    endloop
  endfacet
  facet normal 0 0 1
    outer loop
      vertex 0.482146 -3.97083 -22.5
      vertex -25 -25 -22.5
      vertex 25 -25 -22.5
    endloop
  endfacet
  facet normal 0 0 1
    outer loop
      vertex -3.88377 -0.957262 -22.5
      vertex -25 -25 -22.5
      vertex -2.99404 -2.65249 -22.5
    endloop
  endfacet
  facet normal 0 0 -1
    outer loop
      vertex 25 -25 -27.5
      vertex 2 0 -27.5
      vertex 25 25 -27.5
    endloop
  endfacet
  facet normal 0 0 -1
    outer loop
      vertex 25 -25 -27.5
      vertex 1.24698 -1.56366 -27.5
      vertex 2 0 -27.5
    endloop
  endfacet
  facet normal 0 0 -1
    outer loop
      vertex 25 -25 -27.5
      vertex -0.445042 -1.94986 -27.5
      vertex 1.24698 -1.56366 -27.5
    endloop
  endfacet
  facet normal 0 0 -1
    outer loop
      vertex -25 -25 -27.5
      vertex -0.445042 -1.94986 -27.5
      vertex 25 -25 -27.5
    endloop
  endfacet
  facet normal -0 0 -1
    outer loop
      vertex -1.80194 -0.867767 -27.5
      vertex -25 -25 -27.5
      vertex -1.80194 0.867767 -27.5
    endloop
  endfacet
  facet normal -0 0 -1
    outer loop
      vertex -0.445042 -1.94986 -27.5
      vertex -25 -25 -27.5
      vertex -1.80194 -0.867767 -27.5
    endloop
  endfacet
  facet normal 0 0 -1
    outer loop
      vertex 1.24698 1.56366 -27.5
      vertex 25 25 -27.5
      vertex 2 0 -27.5
    endloop
  endfacet
  facet normal 0 0 -1
    outer loop
      vertex -0.445042 1.94986 -27.5
      vertex 25 25 -27.5
      vertex 1.24698 1.56366 -27.5
    endloop
  endfacet
  facet normal 0 0 -1
    outer loop
      vertex -25 25 -27.5
      vertex -0.445042 1.94986 -27.5
      vertex -1.80194 0.867767 -27.5
    endloop
  endfacet
  facet normal 0 0 -1
    outer loop
      vertex -0.445042 1.94986 -27.5
      vertex -25 25 -27.5
      vertex 25 25 -27.5
    endloop
  endfacet
  facet normal 0 0 -1
    outer loop
      vertex -25 25 -27.5
      vertex -1.80194 0.867767 -27.5
      vertex -25 -25 -27.5
    endloop
  endfacet
  facet normal -1 0 0
    outer loop
      vertex -25 -25 -27.5
      vertex -25 25 -22.5
      vertex -25 25 -27.5
    endloop
  endfacet
  facet normal -1 -0 0
    outer loop
      vertex -25 25 -22.5
      vertex -25 -25 -27.5
      vertex -25 -25 -22.5
    endloop
  endfacet
  facet normal 0 1 -0
    outer loop
      vertex 25 25 -27.5
      vertex -25 25 -22.5
      vertex 25 25 -22.5
    endloop
  endfacet
  facet normal 0 1 0
    outer loop
      vertex -25 25 -22.5
      vertex 25 25 -27.5
      vertex -25 25 -27.5
    endloop
  endfacet
  facet normal 0 -1 0
    outer loop
      vertex -25 -25 -27.5
      vertex 25 -25 -22.5
      vertex -25 -25 -22.5
    endloop
  endfacet
  facet normal 0 -1 -0
    outer loop
      vertex 25 -25 -22.5
      vertex -25 -25 -27.5
      vertex 25 -25 -27.5
    endloop
  endfacet
  facet normal 0.568064 -0.822984 0
    outer loop
      vertex -2.99404 2.65249 -25
      vertex -1.41842 3.74006 -22.5
      vertex -2.99404 2.65249 -22.5
    endloop
  endfacet
  facet normal 0.568064 -0.822984 0
    outer loop
      vertex -1.41842 3.74006 -22.5
      vertex -2.99404 2.65249 -25
      vertex -1.41842 3.74006 -25
    endloop
  endfacet
  facet normal -0.748511 -0.663122 0
    outer loop
      vertex 3.54182 1.85889 -25
      vertex 2.27226 3.29193 -22.5
      vertex 2.27226 3.29193 -25
    endloop
  endfacet
  facet normal -0.748511 -0.663122 0
    outer loop
      vertex 2.27226 3.29193 -22.5
      vertex 3.54182 1.85889 -25
      vertex 3.54182 1.85889 -22.5
    endloop
  endfacet
  facet normal -0.970941 -0.239318 0
    outer loop
      vertex 4 0 -25
      vertex 3.54182 1.85889 -22.5
      vertex 3.54182 1.85889 -25
    endloop
  endfacet
  facet normal -0.970941 -0.239318 0
    outer loop
      vertex 3.54182 1.85889 -22.5
      vertex 4 0 -25
      vertex 4 0 -22.5
    endloop
  endfacet
  facet normal 1 -0 0
    outer loop
      vertex -3.88377 -0.957262 -22.5
      vertex -3.88377 0.957262 -25
      vertex -3.88377 0.957262 -22.5
    endloop
  endfacet
  facet normal 1 0 0
    outer loop
      vertex -3.88377 0.957262 -25
      vertex -3.88377 -0.957262 -22.5
      vertex -3.88377 -0.957262 -25
    endloop
  endfacet
  facet normal 0.885455 -0.464726 0
    outer loop
      vertex -3.88377 0.957262 -22.5
      vertex -2.99404 2.65249 -25
      vertex -2.99404 2.65249 -22.5
    endloop
  endfacet
  facet normal 0.885455 -0.464726 0
    outer loop
      vertex -2.99404 2.65249 -25
      vertex -3.88377 0.957262 -22.5
      vertex -3.88377 0.957262 -25
    endloop
  endfacet
  facet normal -0.354605 -0.935016 0
    outer loop
      vertex 0.482146 3.97083 -25
      vertex 2.27226 3.29193 -22.5
      vertex 0.482146 3.97083 -22.5
    endloop
  endfacet
  facet normal -0.354605 -0.935016 -0
    outer loop
      vertex 2.27226 3.29193 -22.5
      vertex 0.482146 3.97083 -25
      vertex 2.27226 3.29193 -25
    endloop
  endfacet
  facet normal -0.970941 0.239318 0
    outer loop
      vertex 3.54182 -1.85889 -25
      vertex 4 0 -22.5
      vertex 4 0 -25
    endloop
  endfacet
  facet normal -0.970941 0.239318 0
    outer loop
      vertex 4 0 -22.5
      vertex 3.54182 -1.85889 -25
      vertex 3.54182 -1.85889 -22.5
    endloop
  endfacet
  facet normal 0.120536 0.992709 -0
    outer loop
      vertex 0.482146 -3.97083 -25
      vertex -1.41842 -3.74006 -22.5
      vertex 0.482146 -3.97083 -22.5
    endloop
  endfacet
  facet normal 0.120536 0.992709 0
    outer loop
      vertex -1.41842 -3.74006 -22.5
      vertex 0.482146 -3.97083 -25
      vertex -1.41842 -3.74006 -25
    endloop
  endfacet
  facet normal -0.748511 0.663122 0
    outer loop
      vertex 2.27226 -3.29193 -25
      vertex 3.54182 -1.85889 -22.5
      vertex 3.54182 -1.85889 -25
    endloop
  endfacet
  facet normal -0.748511 0.663122 0
    outer loop
      vertex 3.54182 -1.85889 -22.5
      vertex 2.27226 -3.29193 -25
      vertex 2.27226 -3.29193 -22.5
    endloop
  endfacet
  facet normal -0.354605 0.935016 0
    outer loop
      vertex 2.27226 -3.29193 -25
      vertex 0.482146 -3.97083 -22.5
      vertex 2.27226 -3.29193 -22.5
    endloop
  endfacet
  facet normal -0.354605 0.935016 0
    outer loop
      vertex 0.482146 -3.97083 -22.5
      vertex 2.27226 -3.29193 -25
      vertex 0.482146 -3.97083 -25
    endloop
  endfacet
  facet normal 0.120536 -0.992709 0
    outer loop
      vertex -1.41842 3.74006 -25
      vertex 0.482146 3.97083 -22.5
      vertex -1.41842 3.74006 -22.5
    endloop
  endfacet
  facet normal 0.120536 -0.992709 0
    outer loop
      vertex 0.482146 3.97083 -22.5
      vertex -1.41842 3.74006 -25
      vertex 0.482146 3.97083 -25
    endloop
  endfacet
  facet normal 0.568064 0.822984 -0
    outer loop
      vertex -1.41842 -3.74006 -25
      vertex -2.99404 -2.65249 -22.5
      vertex -1.41842 -3.74006 -22.5
    endloop
  endfacet
  facet normal 0.568064 0.822984 0
    outer loop
      vertex -2.99404 -2.65249 -22.5
      vertex -1.41842 -3.74006 -25
      vertex -2.99404 -2.65249 -25
    endloop
  endfacet
  facet normal 0.885455 0.464726 0
    outer loop
      vertex -2.99404 -2.65249 -22.5
      vertex -3.88377 -0.957262 -25
      vertex -3.88377 -0.957262 -22.5
    endloop
  endfacet
  facet normal 0.885455 0.464726 0
    outer loop
      vertex -3.88377 -0.957262 -25
      vertex -2.99404 -2.65249 -22.5
      vertex -2.99404 -2.65249 -25
    endloop
  endfacet
  facet normal 0 0 1
    outer loop
      vertex 2.5 0 -25
      vertex 4 0 -25
      vertex 3.54182 1.85889 -25
    endloop
  endfacet
  facet normal 0 0 1
    outer loop
      vertex 4 0 -25
      vertex 2.5 0 -25
      vertex 3.54182 -1.85889 -25
    endloop
  endfacet
  facet normal 0 0 1
    outer loop
      vertex 1.76777 1.76777 -25
      vertex 3.54182 1.85889 -25
      vertex 2.27226 3.29193 -25
    endloop
  endfacet
  facet normal 0 0 1
    outer loop
      vertex 3.54182 1.85889 -25
      vertex 1.76777 1.76777 -25
      vertex 2.5 0 -25
    endloop
  endfacet
  facet normal 0 0 1
    outer loop
      vertex 0 2.5 -25
      vertex 2.27226 3.29193 -25
      vertex 0.482146 3.97083 -25
    endloop
  endfacet
  facet normal 0 0 1
    outer loop
      vertex 2.27226 3.29193 -25
      vertex 0 2.5 -25
      vertex 1.76777 1.76777 -25
    endloop
  endfacet
  facet normal -0 0 1
    outer loop
      vertex -1.41842 3.74006 -25
      vertex 0 2.5 -25
      vertex 0.482146 3.97083 -25
    endloop
  endfacet
  facet normal 0 0 1
    outer loop
      vertex -1.41842 3.74006 -25
      vertex -1.76777 1.76777 -25
      vertex 0 2.5 -25
    endloop
  endfacet
  facet normal -0 0 1
    outer loop
      vertex -2.99404 2.65249 -25
      vertex -1.76777 1.76777 -25
      vertex -1.41842 3.74006 -25
    endloop
  endfacet
  facet normal 0 0 1
    outer loop
      vertex -3.88377 0.957262 -25
      vertex -1.76777 1.76777 -25
      vertex -2.99404 2.65249 -25
    endloop
  endfacet
  facet normal -0 0 1
    outer loop
      vertex 1.76777 -1.76777 -25
      vertex 3.54182 -1.85889 -25
      vertex 2.5 0 -25
    endloop
  endfacet
  facet normal 0 0 1
    outer loop
      vertex 3.54182 -1.85889 -25
      vertex 1.76777 -1.76777 -25
      vertex 2.27226 -3.29193 -25
    endloop
  endfacet
  facet normal -0 0 1
    outer loop
      vertex 0 -2.5 -25
      vertex 2.27226 -3.29193 -25
      vertex 1.76777 -1.76777 -25
    endloop
  endfacet
  facet normal 0 0 1
    outer loop
      vertex 2.27226 -3.29193 -25
      vertex 0 -2.5 -25
      vertex 0.482146 -3.97083 -25
    endloop
  endfacet
  facet normal 0 0 1
    outer loop
      vertex 0 -2.5 -25
      vertex -1.41842 -3.74006 -25
      vertex 0.482146 -3.97083 -25
    endloop
  endfacet
  facet normal 0 0 1
    outer loop
      vertex -1.76777 -1.76777 -25
      vertex -1.41842 -3.74006 -25
      vertex 0 -2.5 -25
    endloop
  endfacet
  facet normal -0 0 1
    outer loop
      vertex -3.88377 -0.957262 -25
      vertex -1.76777 -1.76777 -25
      vertex -2.5 0 -25
    endloop
  endfacet
  facet normal 0 0 1
    outer loop
      vertex -1.76777 -1.76777 -25
      vertex -2.99404 -2.65249 -25
      vertex -1.41842 -3.74006 -25
    endloop
  endfacet
  facet normal 0 0 1
    outer loop
      vertex -1.76777 1.76777 -25
      vertex -3.88377 0.957262 -25
      vertex -2.5 0 -25
    endloop
  endfacet
  facet normal 0 0 1
    outer loop
      vertex -3.88377 -0.957262 -25
      vertex -2.5 0 -25
      vertex -3.88377 0.957262 -25
    endloop
  endfacet
  facet normal 0 0 1
    outer loop
      vertex -1.76777 -1.76777 -25
      vertex -3.88377 -0.957262 -25
      vertex -2.99404 -2.65249 -25
    endloop
  endfacet
  facet normal 0 0 -1
    outer loop
      vertex 1.24698 -1.56366 -25
      vertex 1.24698 1.56366 -25
      vertex 2 0 -25
    endloop
  endfacet
  facet normal 0 0 -1
    outer loop
      vertex -0.445042 -1.94986 -25
      vertex 1.24698 1.56366 -25
      vertex 1.24698 -1.56366 -25
    endloop
  endfacet
  facet normal 0 0 -1
    outer loop
      vertex -0.445042 -1.94986 -25
      vertex -0.445042 1.94986 -25
      vertex 1.24698 1.56366 -25
    endloop
  endfacet
  facet normal 0 0 -1
    outer loop
      vertex -1.80194 -0.867767 -25
      vertex -0.445042 1.94986 -25
      vertex -0.445042 -1.94986 -25
    endloop
  endfacet
  facet normal 0 0 -1
    outer loop
      vertex -0.445042 1.94986 -25
      vertex -1.80194 -0.867767 -25
      vertex -1.80194 0.867767 -25
    endloop
  endfacet
  facet normal -0.222525 -0.974927 0
    outer loop
      vertex -0.445042 1.94986 -27.5
      vertex 1.24698 1.56366 -25
      vertex -0.445042 1.94986 -25
    endloop
  endfacet
  facet normal -0.222525 -0.974927 -0
    outer loop
      vertex 1.24698 1.56366 -25
      vertex -0.445042 1.94986 -27.5
      vertex 1.24698 1.56366 -27.5
    endloop
  endfacet
  facet normal -0.900969 -0.433884 0
    outer loop
      vertex 2 0 -27.5
      vertex 1.24698 1.56366 -25
      vertex 1.24698 1.56366 -27.5
    endloop
  endfacet
  facet normal -0.900969 -0.433884 0
    outer loop
      vertex 1.24698 1.56366 -25
      vertex 2 0 -27.5
      vertex 2 0 -25
    endloop
  endfacet
  facet normal -0.900969 0.433884 0
    outer loop
      vertex 1.24698 -1.56366 -27.5
      vertex 2 0 -25
      vertex 2 0 -27.5
    endloop
  endfacet
  facet normal -0.900969 0.433884 0
    outer loop
      vertex 2 0 -25
      vertex 1.24698 -1.56366 -27.5
      vertex 1.24698 -1.56366 -25
    endloop
  endfacet
  facet normal 0.623491 0.781831 -0
    outer loop
      vertex -0.445042 -1.94986 -27.5
      vertex -1.80194 -0.867767 -25
      vertex -0.445042 -1.94986 -25
    endloop
  endfacet
  facet normal 0.623491 0.781831 0
    outer loop
      vertex -1.80194 -0.867767 -25
      vertex -0.445042 -1.94986 -27.5
      vertex -1.80194 -0.867767 -27.5
    endloop
  endfacet
  facet normal -0.222525 0.974927 0
    outer loop
      vertex 1.24698 -1.56366 -27.5
      vertex -0.445042 -1.94986 -25
      vertex 1.24698 -1.56366 -25
    endloop
  endfacet
  facet normal -0.222525 0.974927 0
    outer loop
      vertex -0.445042 -1.94986 -25
      vertex 1.24698 -1.56366 -27.5
      vertex -0.445042 -1.94986 -27.5
    endloop
  endfacet
  facet normal 1 -0 0
    outer loop
      vertex -1.80194 -0.867767 -25
      vertex -1.80194 0.867767 -27.5
      vertex -1.80194 0.867767 -25
    endloop
  endfacet
  facet normal 1 0 0
    outer loop
      vertex -1.80194 0.867767 -27.5
      vertex -1.80194 -0.867767 -25
      vertex -1.80194 -0.867767 -27.5
    endloop
  endfacet
  facet normal 0.623491 -0.781831 0
    outer loop
      vertex -1.80194 0.867767 -27.5
      vertex -0.445042 1.94986 -25
      vertex -1.80194 0.867767 -25
    endloop
  endfacet
  facet normal 0.623491 -0.781831 0
    outer loop
      vertex -0.445042 1.94986 -25
      vertex -1.80194 0.867767 -27.5
      vertex -0.445042 1.94986 -27.5
    endloop
  endfacet
  facet normal -0.309023 -0.951055 0
    outer loop
      vertex -26.2135 -0.881678 27
      vertex -24.5365 -1.42658 43
      vertex -26.2135 -0.881678 43
    endloop
  endfacet
  facet normal -0.309023 -0.951055 -0
    outer loop
      vertex -24.5365 -1.42658 43
      vertex -26.2135 -0.881678 27
      vertex -24.5365 -1.42658 27
    endloop
  endfacet
  facet normal -0.309023 0.951055 0
    outer loop
      vertex -24.5365 1.42658 27
      vertex -26.2135 0.881678 43
      vertex -24.5365 1.42658 43
    endloop
  endfacet
  facet normal -0.309023 0.951055 0
    outer loop
      vertex -26.2135 0.881678 43
      vertex -24.5365 1.42658 27
      vertex -26.2135 0.881678 27
    endloop
  endfacet
  facet normal 0.809009 0.587796 0
    outer loop
      vertex -23.5 0 43
      vertex -24.5365 1.42658 27
      vertex -24.5365 1.42658 43
    endloop
  endfacet
  facet normal 0.809009 0.587796 0
    outer loop
      vertex -24.5365 1.42658 27
      vertex -23.5 0 43
      vertex -23.5 0 27
    endloop
  endfacet
  facet normal -1 0 0
    outer loop
      vertex -26.2135 -0.881678 27
      vertex -26.2135 0.881678 43
      vertex -26.2135 0.881678 27
    endloop
  endfacet
  facet normal -1 -0 0
    outer loop
      vertex -26.2135 0.881678 43
      vertex -26.2135 -0.881678 27
      vertex -26.2135 -0.881678 43
    endloop
  endfacet
  facet normal 0 0 -1
    outer loop
      vertex -23.753 -1.56366 43
      vertex -23.5 0 43
      vertex -23 0 43
    endloop
  endfacet
  facet normal 0 0 -1
    outer loop
      vertex -23.753 -1.56366 43
      vertex -24.5365 -1.42658 43
      vertex -23.5 0 43
    endloop
  endfacet
  facet normal 0 0 -1
    outer loop
      vertex -25.445 -1.94986 43
      vertex -24.5365 -1.42658 43
      vertex -23.753 -1.56366 43
    endloop
  endfacet
  facet normal 0 0 -1
    outer loop
      vertex -25.445 -1.94986 43
      vertex -26.2135 -0.881678 43
      vertex -24.5365 -1.42658 43
    endloop
  endfacet
  facet normal 0 0 -1
    outer loop
      vertex -26.2135 -0.881678 43
      vertex -26.8019 -0.867767 43
      vertex -26.2135 0.881678 43
    endloop
  endfacet
  facet normal 0 0 -1
    outer loop
      vertex -26.8019 -0.867767 43
      vertex -26.2135 -0.881678 43
      vertex -25.445 -1.94986 43
    endloop
  endfacet
  facet normal 0 0 -1
    outer loop
      vertex -23.5 0 43
      vertex -23.753 1.56366 43
      vertex -23 0 43
    endloop
  endfacet
  facet normal 0 0 -1
    outer loop
      vertex -24.5365 1.42658 43
      vertex -23.753 1.56366 43
      vertex -23.5 0 43
    endloop
  endfacet
  facet normal 0 0 -1
    outer loop
      vertex -24.5365 1.42658 43
      vertex -25.445 1.94986 43
      vertex -23.753 1.56366 43
    endloop
  endfacet
  facet normal 0 0 -1
    outer loop
      vertex -26.2135 0.881678 43
      vertex -25.445 1.94986 43
      vertex -24.5365 1.42658 43
    endloop
  endfacet
  facet normal -0 0 -1
    outer loop
      vertex -26.2135 0.881678 43
      vertex -26.8019 0.867767 43
      vertex -25.445 1.94986 43
    endloop
  endfacet
  facet normal 0 0 -1
    outer loop
      vertex -26.8019 0.867767 43
      vertex -26.2135 0.881678 43
      vertex -26.8019 -0.867767 43
    endloop
  endfacet
  facet normal 0.809009 -0.587796 0
    outer loop
      vertex -24.5365 -1.42658 43
      vertex -23.5 0 27
      vertex -23.5 0 43
    endloop
  endfacet
  facet normal 0.809009 -0.587796 0
    outer loop
      vertex -23.5 0 27
      vertex -24.5365 -1.42658 43
      vertex -24.5365 -1.42658 27
    endloop
  endfacet
  facet normal 0 0 -1
    outer loop
      vertex -23.753 -1.56366 25
      vertex -23.753 1.56366 25
      vertex -23 0 25
    endloop
  endfacet
  facet normal 0 0 -1
    outer loop
      vertex -25.445 -1.94986 25
      vertex -23.753 1.56366 25
      vertex -23.753 -1.56366 25
    endloop
  endfacet
  facet normal 0 0 -1
    outer loop
      vertex -25.445 -1.94986 25
      vertex -25.445 1.94986 25
      vertex -23.753 1.56366 25
    endloop
  endfacet
  facet normal 0 0 -1
    outer loop
      vertex -26.8019 -0.867767 25
      vertex -25.445 1.94986 25
      vertex -25.445 -1.94986 25
    endloop
  endfacet
  facet normal 0 0 -1
    outer loop
      vertex -25.445 1.94986 25
      vertex -26.8019 -0.867767 25
      vertex -26.8019 0.867767 25
    endloop
  endfacet
  facet normal 0.222528 0.974926 -0
    outer loop
      vertex -23.753 1.56366 43
      vertex -25.445 1.94986 45
      vertex -23.753 1.56366 45
    endloop
  endfacet
  facet normal 0.222528 0.974926 0
    outer loop
      vertex -25.445 1.94986 45
      vertex -23.753 1.56366 43
      vertex -25.445 1.94986 43
    endloop
  endfacet
  facet normal 0.900973 0.433875 0
    outer loop
      vertex -23 0 45
      vertex -23.753 1.56366 43
      vertex -23.753 1.56366 45
    endloop
  endfacet
  facet normal 0.900973 0.433875 0
    outer loop
      vertex -23.753 1.56366 43
      vertex -23 0 45
      vertex -23 0 43
    endloop
  endfacet
  facet normal 0.900973 -0.433875 0
    outer loop
      vertex -23.753 -1.56366 45
      vertex -23 0 43
      vertex -23 0 45
    endloop
  endfacet
  facet normal 0.900973 -0.433875 0
    outer loop
      vertex -23 0 43
      vertex -23.753 -1.56366 45
      vertex -23.753 -1.56366 43
    endloop
  endfacet
  facet normal 0 0 1
    outer loop
      vertex -23.753 1.56366 45
      vertex -23.753 -1.56366 45
      vertex -23 0 45
    endloop
  endfacet
  facet normal 0 0 1
    outer loop
      vertex -25.445 1.94986 45
      vertex -23.753 -1.56366 45
      vertex -23.753 1.56366 45
    endloop
  endfacet
  facet normal 0 0 1
    outer loop
      vertex -25.445 1.94986 45
      vertex -25.445 -1.94986 45
      vertex -23.753 -1.56366 45
    endloop
  endfacet
  facet normal -0 0 1
    outer loop
      vertex -26.8019 0.867767 45
      vertex -25.445 -1.94986 45
      vertex -25.445 1.94986 45
    endloop
  endfacet
  facet normal 0 0 1
    outer loop
      vertex -25.445 -1.94986 45
      vertex -26.8019 0.867767 45
      vertex -26.8019 -0.867767 45
    endloop
  endfacet
  facet normal -0.62349 -0.781831 0
    outer loop
      vertex -26.8019 -0.867767 43
      vertex -25.445 -1.94986 45
      vertex -26.8019 -0.867767 45
    endloop
  endfacet
  facet normal -0.62349 -0.781831 -0
    outer loop
      vertex -25.445 -1.94986 45
      vertex -26.8019 -0.867767 43
      vertex -25.445 -1.94986 43
    endloop
  endfacet
  facet normal 0.222528 -0.974926 0
    outer loop
      vertex -25.445 -1.94986 43
      vertex -23.753 -1.56366 45
      vertex -25.445 -1.94986 45
    endloop
  endfacet
  facet normal 0.222528 -0.974926 0
    outer loop
      vertex -23.753 -1.56366 45
      vertex -25.445 -1.94986 43
      vertex -23.753 -1.56366 43
    endloop
  endfacet
  facet normal -1 0 0
    outer loop
      vertex -26.8019 -0.867767 43
      vertex -26.8019 0.867767 45
      vertex -26.8019 0.867767 43
    endloop
  endfacet
  facet normal -1 -0 0
    outer loop
      vertex -26.8019 0.867767 45
      vertex -26.8019 -0.867767 43
      vertex -26.8019 -0.867767 45
    endloop
  endfacet
  facet normal -0.62349 0.781831 0
    outer loop
      vertex -25.445 1.94986 43
      vertex -26.8019 0.867767 45
      vertex -25.445 1.94986 45
    endloop
  endfacet
  facet normal -0.62349 0.781831 0
    outer loop
      vertex -26.8019 0.867767 45
      vertex -25.445 1.94986 43
      vertex -26.8019 0.867767 43
    endloop
  endfacet
  facet normal -0.309023 -0.951055 0
    outer loop
      vertex 23.7865 -0.881678 27
      vertex 25.4635 -1.42658 43
      vertex 23.7865 -0.881678 43
    endloop
  endfacet
  facet normal -0.309023 -0.951055 -0
    outer loop
      vertex 25.4635 -1.42658 43
      vertex 23.7865 -0.881678 27
      vertex 25.4635 -1.42658 27
    endloop
  endfacet
  facet normal -0.309023 0.951055 0
    outer loop
      vertex 25.4635 1.42658 27
      vertex 23.7865 0.881678 43
      vertex 25.4635 1.42658 43
    endloop
  endfacet
  facet normal -0.309023 0.951055 0
    outer loop
      vertex 23.7865 0.881678 43
      vertex 25.4635 1.42658 27
      vertex 23.7865 0.881678 27
    endloop
  endfacet
  facet normal 0.809009 0.587796 0
    outer loop
      vertex 26.5 0 43
      vertex 25.4635 1.42658 27
      vertex 25.4635 1.42658 43
    endloop
  endfacet
  facet normal 0.809009 0.587796 0
    outer loop
      vertex 25.4635 1.42658 27
      vertex 26.5 0 43
      vertex 26.5 0 27
    endloop
  endfacet
  facet normal -1 0 0
    outer loop
      vertex 23.7865 -0.881678 27
      vertex 23.7865 0.881678 43
      vertex 23.7865 0.881678 27
    endloop
  endfacet
  facet normal -1 -0 0
    outer loop
      vertex 23.7865 0.881678 43
      vertex 23.7865 -0.881678 27
      vertex 23.7865 -0.881678 43
    endloop
  endfacet
  facet normal 0 0 -1
    outer loop
      vertex 26.247 -1.56366 43
      vertex 26.5 0 43
      vertex 27 0 43
    endloop
  endfacet
  facet normal 0 0 -1
    outer loop
      vertex 26.247 -1.56366 43
      vertex 25.4635 -1.42658 43
      vertex 26.5 0 43
    endloop
  endfacet
  facet normal 0 0 -1
    outer loop
      vertex 24.555 -1.94986 43
      vertex 25.4635 -1.42658 43
      vertex 26.247 -1.56366 43
    endloop
  endfacet
  facet normal 0 0 -1
    outer loop
      vertex 24.555 -1.94986 43
      vertex 23.7865 -0.881678 43
      vertex 25.4635 -1.42658 43
    endloop
  endfacet
  facet normal 0 0 -1
    outer loop
      vertex 23.7865 -0.881678 43
      vertex 23.1981 -0.867767 43
      vertex 23.7865 0.881678 43
    endloop
  endfacet
  facet normal 0 0 -1
    outer loop
      vertex 23.1981 -0.867767 43
      vertex 23.7865 -0.881678 43
      vertex 24.555 -1.94986 43
    endloop
  endfacet
  facet normal 0 0 -1
    outer loop
      vertex 26.5 0 43
      vertex 26.247 1.56366 43
      vertex 27 0 43
    endloop
  endfacet
  facet normal 0 0 -1
    outer loop
      vertex 25.4635 1.42658 43
      vertex 26.247 1.56366 43
      vertex 26.5 0 43
    endloop
  endfacet
  facet normal 0 0 -1
    outer loop
      vertex 25.4635 1.42658 43
      vertex 24.555 1.94986 43
      vertex 26.247 1.56366 43
    endloop
  endfacet
  facet normal 0 0 -1
    outer loop
      vertex 23.7865 0.881678 43
      vertex 24.555 1.94986 43
      vertex 25.4635 1.42658 43
    endloop
  endfacet
  facet normal -0 0 -1
    outer loop
      vertex 23.7865 0.881678 43
      vertex 23.1981 0.867767 43
      vertex 24.555 1.94986 43
    endloop
  endfacet
  facet normal 0 0 -1
    outer loop
      vertex 23.1981 0.867767 43
      vertex 23.7865 0.881678 43
      vertex 23.1981 -0.867767 43
    endloop
  endfacet
  facet normal 0.809009 -0.587796 0
    outer loop
      vertex 25.4635 -1.42658 43
      vertex 26.5 0 27
      vertex 26.5 0 43
    endloop
  endfacet
  facet normal 0.809009 -0.587796 0
    outer loop
      vertex 26.5 0 27
      vertex 25.4635 -1.42658 43
      vertex 25.4635 -1.42658 27
    endloop
  endfacet
  facet normal 0 0 -1
    outer loop
      vertex 26.247 -1.56366 25
      vertex 26.247 1.56366 25
      vertex 27 0 25
    endloop
  endfacet
  facet normal 0 0 -1
    outer loop
      vertex 24.555 -1.94986 25
      vertex 26.247 1.56366 25
      vertex 26.247 -1.56366 25
    endloop
  endfacet
  facet normal 0 0 -1
    outer loop
      vertex 24.555 -1.94986 25
      vertex 24.555 1.94986 25
      vertex 26.247 1.56366 25
    endloop
  endfacet
  facet normal 0 0 -1
    outer loop
      vertex 23.1981 -0.867767 25
      vertex 24.555 1.94986 25
      vertex 24.555 -1.94986 25
    endloop
  endfacet
  facet normal 0 0 -1
    outer loop
      vertex 24.555 1.94986 25
      vertex 23.1981 -0.867767 25
      vertex 23.1981 0.867767 25
    endloop
  endfacet
  facet normal 0.222528 0.974926 -0
    outer loop
      vertex 26.247 1.56366 43
      vertex 24.555 1.94986 45
      vertex 26.247 1.56366 45
    endloop
  endfacet
  facet normal 0.222528 0.974926 0
    outer loop
      vertex 24.555 1.94986 45
      vertex 26.247 1.56366 43
      vertex 24.555 1.94986 43
    endloop
  endfacet
  facet normal 0.900973 0.433875 0
    outer loop
      vertex 27 0 45
      vertex 26.247 1.56366 43
      vertex 26.247 1.56366 45
    endloop
  endfacet
  facet normal 0.900973 0.433875 0
    outer loop
      vertex 26.247 1.56366 43
      vertex 27 0 45
      vertex 27 0 43
    endloop
  endfacet
  facet normal 0.900973 -0.433875 0
    outer loop
      vertex 26.247 -1.56366 45
      vertex 27 0 43
      vertex 27 0 45
    endloop
  endfacet
  facet normal 0.900973 -0.433875 0
    outer loop
      vertex 27 0 43
      vertex 26.247 -1.56366 45
      vertex 26.247 -1.56366 43
    endloop
  endfacet
  facet normal 0 0 1
    outer loop
      vertex 26.247 1.56366 45
      vertex 26.247 -1.56366 45
      vertex 27 0 45
    endloop
  endfacet
  facet normal 0 0 1
    outer loop
      vertex 24.555 1.94986 45
      vertex 26.247 -1.56366 45
      vertex 26.247 1.56366 45
    endloop
  endfacet
  facet normal 0 0 1
    outer loop
      vertex 24.555 1.94986 45
      vertex 24.555 -1.94986 45
      vertex 26.247 -1.56366 45
    endloop
  endfacet
  facet normal -0 0 1
    outer loop
      vertex 23.1981 0.867767 45
      vertex 24.555 -1.94986 45
      vertex 24.555 1.94986 45
    endloop
  endfacet
  facet normal 0 0 1
    outer loop
      vertex 24.555 -1.94986 45
      vertex 23.1981 0.867767 45
      vertex 23.1981 -0.867767 45
    endloop
  endfacet
  facet normal -0.62349 -0.781831 0
    outer loop
      vertex 23.1981 -0.867767 43
      vertex 24.555 -1.94986 45
      vertex 23.1981 -0.867767 45
    endloop
  endfacet
  facet normal -0.62349 -0.781831 -0
    outer loop
      vertex 24.555 -1.94986 45
      vertex 23.1981 -0.867767 43
      vertex 24.555 -1.94986 43
    endloop
  endfacet
  facet normal 0.222528 -0.974926 0
    outer loop
      vertex 24.555 -1.94986 43
      vertex 26.247 -1.56366 45
      vertex 24.555 -1.94986 45
    endloop
  endfacet
  facet normal 0.222528 -0.974926 0
    outer loop
      vertex 26.247 -1.56366 45
      vertex 24.555 -1.94986 43
      vertex 26.247 -1.56366 43
    endloop
  endfacet
  facet normal -1 0 0
    outer loop
      vertex 23.1981 -0.867767 43
      vertex 23.1981 0.867767 45
      vertex 23.1981 0.867767 43
    endloop
  endfacet
  facet normal -1 -0 0
    outer loop
      vertex 23.1981 0.867767 45
      vertex 23.1981 -0.867767 43
      vertex 23.1981 -0.867767 45
    endloop
  endfacet
  facet normal -0.62349 0.781831 0
    outer loop
      vertex 24.555 1.94986 43
      vertex 23.1981 0.867767 45
      vertex 24.555 1.94986 45
    endloop
  endfacet
  facet normal -0.62349 0.781831 0
    outer loop
      vertex 23.1981 0.867767 45
      vertex 24.555 1.94986 43
      vertex 23.1981 0.867767 43
    endloop
  endfacet
  facet normal -0.309015 -0.951057 0
    outer loop
      vertex -1.21352 -0.881678 2
      vertex 0.463525 -1.42658 18
      vertex -1.21352 -0.881678 18
    endloop
  endfacet
  facet normal -0.309015 -0.951057 -0
    outer loop
      vertex 0.463525 -1.42658 18
      vertex -1.21352 -0.881678 2
      vertex 0.463525 -1.42658 2
    endloop
  endfacet
  facet normal -0.309015 0.951057 0
    outer loop
      vertex 0.463525 1.42658 2
      vertex -1.21352 0.881678 18
      vertex 0.463525 1.42658 18
    endloop
  endfacet
  facet normal -0.309015 0.951057 0
    outer loop
      vertex -1.21352 0.881678 18
      vertex 0.463525 1.42658 2
      vertex -1.21352 0.881678 2
    endloop
  endfacet
  facet normal 0.809016 0.587787 0
    outer loop
      vertex 1.5 0 18
      vertex 0.463525 1.42658 2
      vertex 0.463525 1.42658 18
    endloop
  endfacet
  facet normal 0.809016 0.587787 0
    outer loop
      vertex 0.463525 1.42658 2
      vertex 1.5 0 18
      vertex 1.5 0 2
    endloop
  endfacet
  facet normal -1 0 0
    outer loop
      vertex -1.21352 -0.881678 2
      vertex -1.21352 0.881678 18
      vertex -1.21352 0.881678 2
    endloop
  endfacet
  facet normal -1 -0 0
    outer loop
      vertex -1.21352 0.881678 18
      vertex -1.21352 -0.881678 2
      vertex -1.21352 -0.881678 18
    endloop
  endfacet
  facet normal 0 0 -1
    outer loop
      vertex 1.24698 -1.56366 18
      vertex 1.5 0 18
      vertex 2 0 18
    endloop
  endfacet
  facet normal 0 0 -1
    outer loop
      vertex 1.24698 -1.56366 18
      vertex 0.463525 -1.42658 18
      vertex 1.5 0 18
    endloop
  endfacet
  facet normal 0 0 -1
    outer loop
      vertex -0.445042 -1.94986 18
      vertex 0.463525 -1.42658 18
      vertex 1.24698 -1.56366 18
    endloop
  endfacet
  facet normal 0 0 -1
    outer loop
      vertex -0.445042 -1.94986 18
      vertex -1.21352 -0.881678 18
      vertex 0.463525 -1.42658 18
    endloop
  endfacet
  facet normal 0 0 -1
    outer loop
      vertex -1.21352 -0.881678 18
      vertex -1.80194 -0.867767 18
      vertex -1.21352 0.881678 18
    endloop
  endfacet
  facet normal 0 0 -1
    outer loop
      vertex -1.80194 -0.867767 18
      vertex -1.21352 -0.881678 18
      vertex -0.445042 -1.94986 18
    endloop
  endfacet
  facet normal 0 0 -1
    outer loop
      vertex 1.5 0 18
      vertex 1.24698 1.56366 18
      vertex 2 0 18
    endloop
  endfacet
  facet normal 0 0 -1
    outer loop
      vertex 0.463525 1.42658 18
      vertex 1.24698 1.56366 18
      vertex 1.5 0 18
    endloop
  endfacet
  facet normal 0 0 -1
    outer loop
      vertex 0.463525 1.42658 18
      vertex -0.445042 1.94986 18
      vertex 1.24698 1.56366 18
    endloop
  endfacet
  facet normal 0 0 -1
    outer loop
      vertex -1.21352 0.881678 18
      vertex -0.445042 1.94986 18
      vertex 0.463525 1.42658 18
    endloop
  endfacet
  facet normal -0 0 -1
    outer loop
      vertex -1.21352 0.881678 18
      vertex -1.80194 0.867767 18
      vertex -0.445042 1.94986 18
    endloop
  endfacet
  facet normal 0 0 -1
    outer loop
      vertex -1.80194 0.867767 18
      vertex -1.21352 0.881678 18
      vertex -1.80194 -0.867767 18
    endloop
  endfacet
  facet normal 0.809016 -0.587787 0
    outer loop
      vertex 0.463525 -1.42658 18
      vertex 1.5 0 2
      vertex 1.5 0 18
    endloop
  endfacet
  facet normal 0.809016 -0.587787 0
    outer loop
      vertex 1.5 0 2
      vertex 0.463525 -1.42658 18
      vertex 0.463525 -1.42658 2
    endloop
  endfacet
  facet normal 0 0 -1
    outer loop
      vertex 1.76777 -1.76777 0
      vertex 1.76777 1.76777 0
      vertex 2.5 0 0
    endloop
  endfacet
  facet normal 0 0 -1
    outer loop
      vertex 0 -2.5 0
      vertex 1.76777 1.76777 0
      vertex 1.76777 -1.76777 0
    endloop
  endfacet
  facet normal 0 0 -1
    outer loop
      vertex 0 -2.5 0
      vertex 0 2.5 0
      vertex 1.76777 1.76777 0
    endloop
  endfacet
  facet normal 0 0 -1
    outer loop
      vertex -1.76777 -1.76777 0
      vertex 0 2.5 0
      vertex 0 -2.5 0
    endloop
  endfacet
  facet normal 0 0 -1
    outer loop
      vertex -1.76777 -1.76777 0
      vertex -1.76777 1.76777 0
      vertex 0 2.5 0
    endloop
  endfacet
  facet normal 0 -0 -1
    outer loop
      vertex -1.76777 1.76777 0
      vertex -1.76777 -1.76777 0
      vertex -2.5 0 0
    endloop
  endfacet
  facet normal 0.222525 0.974927 -0
    outer loop
      vertex 1.24698 1.56366 18
      vertex -0.445042 1.94986 20
      vertex 1.24698 1.56366 20
    endloop
  endfacet
  facet normal 0.222525 0.974927 0
    outer loop
      vertex -0.445042 1.94986 20
      vertex 1.24698 1.56366 18
      vertex -0.445042 1.94986 18
    endloop
  endfacet
  facet normal 0.900969 0.433884 0
    outer loop
      vertex 2 0 20
      vertex 1.24698 1.56366 18
      vertex 1.24698 1.56366 20
    endloop
  endfacet
  facet normal 0.900969 0.433884 0
    outer loop
      vertex 1.24698 1.56366 18
      vertex 2 0 20
      vertex 2 0 18
    endloop
  endfacet
  facet normal 0.900969 -0.433884 0
    outer loop
      vertex 1.24698 -1.56366 20
      vertex 2 0 18
      vertex 2 0 20
    endloop
  endfacet
  facet normal 0.900969 -0.433884 0
    outer loop
      vertex 2 0 18
      vertex 1.24698 -1.56366 20
      vertex 1.24698 -1.56366 18
    endloop
  endfacet
  facet normal 0 0 1
    outer loop
      vertex 1.24698 1.56366 20
      vertex 1.24698 -1.56366 20
      vertex 2 0 20
    endloop
  endfacet
  facet normal 0 0 1
    outer loop
      vertex -0.445042 1.94986 20
      vertex 1.24698 -1.56366 20
      vertex 1.24698 1.56366 20
    endloop
  endfacet
  facet normal 0 0 1
    outer loop
      vertex -0.445042 1.94986 20
      vertex -0.445042 -1.94986 20
      vertex 1.24698 -1.56366 20
    endloop
  endfacet
  facet normal -0 0 1
    outer loop
      vertex -1.80194 0.867767 20
      vertex -0.445042 -1.94986 20
      vertex -0.445042 1.94986 20
    endloop
  endfacet
  facet normal 0 0 1
    outer loop
      vertex -0.445042 -1.94986 20
      vertex -1.80194 0.867767 20
      vertex -1.80194 -0.867767 20
    endloop
  endfacet
  facet normal -0.623491 -0.781831 0
    outer loop
      vertex -1.80194 -0.867767 18
      vertex -0.445042 -1.94986 20
      vertex -1.80194 -0.867767 20
    endloop
  endfacet
  facet normal -0.623491 -0.781831 -0
    outer loop
      vertex -0.445042 -1.94986 20
      vertex -1.80194 -0.867767 18
      vertex -0.445042 -1.94986 18
    endloop
  endfacet
  facet normal 0.222525 -0.974927 0
    outer loop
      vertex -0.445042 -1.94986 18
      vertex 1.24698 -1.56366 20
      vertex -0.445042 -1.94986 20
    endloop
  endfacet
  facet normal 0.222525 -0.974927 0
    outer loop
      vertex 1.24698 -1.56366 20
      vertex -0.445042 -1.94986 18
      vertex 1.24698 -1.56366 18
    endloop
  endfacet
  facet normal -1 0 0
    outer loop
      vertex -1.80194 -0.867767 18
      vertex -1.80194 0.867767 20
      vertex -1.80194 0.867767 18
    endloop
  endfacet
  facet normal -1 -0 0
    outer loop
      vertex -1.80194 0.867767 20
      vertex -1.80194 -0.867767 18
      vertex -1.80194 -0.867767 20
    endloop
  endfacet
  facet normal -0.623491 0.781831 0
    outer loop
      vertex -0.445042 1.94986 18
      vertex -1.80194 0.867767 20
      vertex -0.445042 1.94986 20
    endloop
  endfacet
  facet normal -0.623491 0.781831 0
    outer loop
      vertex -1.80194 0.867767 20
      vertex -0.445042 1.94986 18
      vertex -1.80194 0.867767 18
    endloop
  endfacet
  facet normal -0.309015 -0.951057 0
    outer loop
      vertex -1.21352 -0.881678 -23
      vertex 0.463525 -1.42658 -7
      vertex -1.21352 -0.881678 -7
    endloop
  endfacet
  facet normal -0.309015 -0.951057 -0
    outer loop
      vertex 0.463525 -1.42658 -7
      vertex -1.21352 -0.881678 -23
      vertex 0.463525 -1.42658 -23
    endloop
  endfacet
  facet normal -0.309015 0.951057 0
    outer loop
      vertex 0.463525 1.42658 -23
      vertex -1.21352 0.881678 -7
      vertex 0.463525 1.42658 -7
    endloop
  endfacet
  facet normal -0.309015 0.951057 0
    outer loop
      vertex -1.21352 0.881678 -7
      vertex 0.463525 1.42658 -23
      vertex -1.21352 0.881678 -23
    endloop
  endfacet
  facet normal 0.809016 0.587787 0
    outer loop
      vertex 1.5 0 -7
      vertex 0.463525 1.42658 -23
      vertex 0.463525 1.42658 -7
    endloop
  endfacet
  facet normal 0.809016 0.587787 0
    outer loop
      vertex 0.463525 1.42658 -23
      vertex 1.5 0 -7
      vertex 1.5 0 -23
    endloop
  endfacet
  facet normal -1 0 0
    outer loop
      vertex -1.21352 -0.881678 -23
      vertex -1.21352 0.881678 -7
      vertex -1.21352 0.881678 -23
    endloop
  endfacet
  facet normal -1 -0 0
    outer loop
      vertex -1.21352 0.881678 -7
      vertex -1.21352 -0.881678 -23
      vertex -1.21352 -0.881678 -7
    endloop
  endfacet
  facet normal 0 0 -1
    outer loop
      vertex 1.24698 -1.56366 -7
      vertex 1.5 0 -7
      vertex 2 0 -7
    endloop
  endfacet
  facet normal 0 0 -1
    outer loop
      vertex 1.24698 -1.56366 -7
      vertex 0.463525 -1.42658 -7
      vertex 1.5 0 -7
    endloop
  endfacet
  facet normal 0 0 -1
    outer loop
      vertex -0.445042 -1.94986 -7
      vertex 0.463525 -1.42658 -7
      vertex 1.24698 -1.56366 -7
    endloop
  endfacet
  facet normal 0 0 -1
    outer loop
      vertex -0.445042 -1.94986 -7
      vertex -1.21352 -0.881678 -7
      vertex 0.463525 -1.42658 -7
    endloop
  endfacet
  facet normal 0 0 -1
    outer loop
      vertex -1.21352 -0.881678 -7
      vertex -1.80194 -0.867767 -7
      vertex -1.21352 0.881678 -7
    endloop
  endfacet
  facet normal 0 0 -1
    outer loop
      vertex -1.80194 -0.867767 -7
      vertex -1.21352 -0.881678 -7
      vertex -0.445042 -1.94986 -7
    endloop
  endfacet
  facet normal 0 0 -1
    outer loop
      vertex 1.5 0 -7
      vertex 1.24698 1.56366 -7
      vertex 2 0 -7
    endloop
  endfacet
  facet normal 0 0 -1
    outer loop
      vertex 0.463525 1.42658 -7
      vertex 1.24698 1.56366 -7
      vertex 1.5 0 -7
    endloop
  endfacet
  facet normal 0 0 -1
    outer loop
      vertex 0.463525 1.42658 -7
      vertex -0.445042 1.94986 -7
      vertex 1.24698 1.56366 -7
    endloop
  endfacet
  facet normal 0 0 -1
    outer loop
      vertex -1.21352 0.881678 -7
      vertex -0.445042 1.94986 -7
      vertex 0.463525 1.42658 -7
    endloop
  endfacet
  facet normal -0 0 -1
    outer loop
      vertex -1.21352 0.881678 -7
      vertex -1.80194 0.867767 -7
      vertex -0.445042 1.94986 -7
    endloop
  endfacet
  facet normal 0 0 -1
    outer loop
      vertex -1.80194 0.867767 -7
      vertex -1.21352 0.881678 -7
      vertex -1.80194 -0.867767 -7
    endloop
  endfacet
  facet normal 0.809016 -0.587787 0
    outer loop
      vertex 0.463525 -1.42658 -7
      vertex 1.5 0 -23
      vertex 1.5 0 -7
    endloop
  endfacet
  facet normal 0.809016 -0.587787 0
    outer loop
      vertex 1.5 0 -23
      vertex 0.463525 -1.42658 -7
      vertex 0.463525 -1.42658 -23
    endloop
  endfacet
  facet normal 0.222525 0.974927 -0
    outer loop
      vertex 1.24698 1.56366 -7
      vertex -0.445042 1.94986 -5
      vertex 1.24698 1.56366 -5
    endloop
  endfacet
  facet normal 0.222525 0.974927 0
    outer loop
      vertex -0.445042 1.94986 -5
      vertex 1.24698 1.56366 -7
      vertex -0.445042 1.94986 -7
    endloop
  endfacet
  facet normal 0.900969 0.433884 0
    outer loop
      vertex 2 0 -5
      vertex 1.24698 1.56366 -7
      vertex 1.24698 1.56366 -5
    endloop
  endfacet
  facet normal 0.900969 0.433884 0
    outer loop
      vertex 1.24698 1.56366 -7
      vertex 2 0 -5
      vertex 2 0 -7
    endloop
  endfacet
  facet normal 0.900969 -0.433884 0
    outer loop
      vertex 1.24698 -1.56366 -5
      vertex 2 0 -7
      vertex 2 0 -5
    endloop
  endfacet
  facet normal 0.900969 -0.433884 0
    outer loop
      vertex 2 0 -7
      vertex 1.24698 -1.56366 -5
      vertex 1.24698 -1.56366 -7
    endloop
  endfacet
  facet normal 0 0 1
    outer loop
      vertex 1.24698 1.56366 -5
      vertex 1.24698 -1.56366 -5
      vertex 2 0 -5
    endloop
  endfacet
  facet normal 0 0 1
    outer loop
      vertex -0.445042 1.94986 -5
      vertex 1.24698 -1.56366 -5
      vertex 1.24698 1.56366 -5
    endloop
  endfacet
  facet normal 0 0 1
    outer loop
      vertex -0.445042 1.94986 -5
      vertex -0.445042 -1.94986 -5
      vertex 1.24698 -1.56366 -5
    endloop
  endfacet
  facet normal -0 0 1
    outer loop
      vertex -1.80194 0.867767 -5
      vertex -0.445042 -1.94986 -5
      vertex -0.445042 1.94986 -5
    endloop
  endfacet
  facet normal 0 0 1
    outer loop
      vertex -0.445042 -1.94986 -5
      vertex -1.80194 0.867767 -5
      vertex -1.80194 -0.867767 -5
    endloop
  endfacet
  facet normal -0.623491 -0.781831 0
    outer loop
      vertex -1.80194 -0.867767 -7
      vertex -0.445042 -1.94986 -5
      vertex -1.80194 -0.867767 -5
    endloop
  endfacet
  facet normal -0.623491 -0.781831 -0
    outer loop
      vertex -0.445042 -1.94986 -5
      vertex -1.80194 -0.867767 -7
      vertex -0.445042 -1.94986 -7
    endloop
  endfacet
  facet normal 0.222525 -0.974927 0
    outer loop
      vertex -0.445042 -1.94986 -7
      vertex 1.24698 -1.56366 -5
      vertex -0.445042 -1.94986 -5
    endloop
  endfacet
  facet normal 0.222525 -0.974927 0
    outer loop
      vertex 1.24698 -1.56366 -5
      vertex -0.445042 -1.94986 -7
      vertex 1.24698 -1.56366 -7
    endloop
  endfacet
  facet normal -1 0 0
    outer loop
      vertex -1.80194 -0.867767 -7
      vertex -1.80194 0.867767 -5
      vertex -1.80194 0.867767 -7
    endloop
  endfacet
  facet normal -1 -0 0
    outer loop
      vertex -1.80194 0.867767 -5
      vertex -1.80194 -0.867767 -7
      vertex -1.80194 -0.867767 -5
    endloop
  endfacet
  facet normal -0.623491 0.781831 0
    outer loop
      vertex -0.445042 1.94986 -7
      vertex -1.80194 0.867767 -5
      vertex -0.445042 1.94986 -5
    endloop
  endfacet
  facet normal -0.623491 0.781831 0
    outer loop
      vertex -1.80194 0.867767 -5
      vertex -0.445042 1.94986 -7
      vertex -1.80194 0.867767 -7
    endloop
  endfacet
  facet normal 0 0 1
    outer loop
      vertex -23.753 1.56366 27
      vertex -23.5 0 27
      vertex -23 0 27
    endloop
  endfacet
  facet normal 0 0 1
    outer loop
      vertex -23.753 1.56366 27
      vertex -24.5365 1.42658 27
      vertex -23.5 0 27
    endloop
  endfacet
  facet normal 0 0 1
    outer loop
      vertex -25.445 1.94986 27
      vertex -24.5365 1.42658 27
      vertex -23.753 1.56366 27
    endloop
  endfacet
  facet normal 0 0 1
    outer loop
      vertex -25.445 1.94986 27
      vertex -26.2135 0.881678 27
      vertex -24.5365 1.42658 27
    endloop
  endfacet
  facet normal 0 0 1
    outer loop
      vertex -26.2135 0.881678 27
      vertex -26.8019 0.867767 27
      vertex -26.2135 -0.881678 27
    endloop
  endfacet
  facet normal 0 0 1
    outer loop
      vertex -26.8019 0.867767 27
      vertex -26.2135 0.881678 27
      vertex -25.445 1.94986 27
    endloop
  endfacet
  facet normal -0 0 1
    outer loop
      vertex -23.5 0 27
      vertex -23.753 -1.56366 27
      vertex -23 0 27
    endloop
  endfacet
  facet normal -0 0 1
    outer loop
      vertex -24.5365 -1.42658 27
      vertex -23.753 -1.56366 27
      vertex -23.5 0 27
    endloop
  endfacet
  facet normal 0 0 1
    outer loop
      vertex -24.5365 -1.42658 27
      vertex -25.445 -1.94986 27
      vertex -23.753 -1.56366 27
    endloop
  endfacet
  facet normal 0 0 1
    outer loop
      vertex -26.2135 -0.881678 27
      vertex -25.445 -1.94986 27
      vertex -24.5365 -1.42658 27
    endloop
  endfacet
  facet normal 0 0 1
    outer loop
      vertex -26.2135 -0.881678 27
      vertex -26.8019 -0.867767 27
      vertex -25.445 -1.94986 27
    endloop
  endfacet
  facet normal -0 0 1
    outer loop
      vertex -26.8019 -0.867767 27
      vertex -26.2135 -0.881678 27
      vertex -26.8019 0.867767 27
    endloop
  endfacet
  facet normal 0 0 1
    outer loop
      vertex 26.247 1.56366 27
      vertex 26.5 0 27
      vertex 27 0 27
    endloop
  endfacet
  facet normal 0 0 1
    outer loop
      vertex 26.247 1.56366 27
      vertex 25.4635 1.42658 27
      vertex 26.5 0 27
    endloop
  endfacet
  facet normal 0 0 1
    outer loop
      vertex 24.555 1.94986 27
      vertex 25.4635 1.42658 27
      vertex 26.247 1.56366 27
    endloop
  endfacet
  facet normal 0 0 1
    outer loop
      vertex 24.555 1.94986 27
      vertex 23.7865 0.881678 27
      vertex 25.4635 1.42658 27
    endloop
  endfacet
  facet normal 0 0 1
    outer loop
      vertex 23.7865 0.881678 27
      vertex 23.1981 0.867767 27
      vertex 23.7865 -0.881678 27
    endloop
  endfacet
  facet normal 0 0 1
    outer loop
      vertex 23.1981 0.867767 27
      vertex 23.7865 0.881678 27
      vertex 24.555 1.94986 27
    endloop
  endfacet
  facet normal -0 0 1
    outer loop
      vertex 26.5 0 27
      vertex 26.247 -1.56366 27
      vertex 27 0 27
    endloop
  endfacet
  facet normal -0 0 1
    outer loop
      vertex 25.4635 -1.42658 27
      vertex 26.247 -1.56366 27
      vertex 26.5 0 27
    endloop
  endfacet
  facet normal 0 0 1
    outer loop
      vertex 25.4635 -1.42658 27
      vertex 24.555 -1.94986 27
      vertex 26.247 -1.56366 27
    endloop
  endfacet
  facet normal 0 0 1
    outer loop
      vertex 23.7865 -0.881678 27
      vertex 24.555 -1.94986 27
      vertex 25.4635 -1.42658 27
    endloop
  endfacet
  facet normal 0 0 1
    outer loop
      vertex 23.7865 -0.881678 27
      vertex 23.1981 -0.867767 27
      vertex 24.555 -1.94986 27
    endloop
  endfacet
  facet normal -0 0 1
    outer loop
      vertex 23.1981 -0.867767 27
      vertex 23.7865 -0.881678 27
      vertex 23.1981 0.867767 27
    endloop
  endfacet
  facet normal -0.92388 -0.382682 0
    outer loop
      vertex -1.76777 -1.76777 0
      vertex -2.5 0 2
      vertex -2.5 0 0
    endloop
  endfacet
  facet normal -0.92388 -0.382682 0
    outer loop
      vertex -2.5 0 2
      vertex -1.76777 -1.76777 0
      vertex -1.76777 -1.76777 2
    endloop
  endfacet
  facet normal 0.382682 0.92388 -0
    outer loop
      vertex 1.76777 1.76777 0
      vertex 0 2.5 2
      vertex 1.76777 1.76777 2
    endloop
  endfacet
  facet normal 0.382682 0.92388 0
    outer loop
      vertex 0 2.5 2
      vertex 1.76777 1.76777 0
      vertex 0 2.5 0
    endloop
  endfacet
  facet normal 0.92388 0.382682 0
    outer loop
      vertex 2.5 0 2
      vertex 1.76777 1.76777 0
      vertex 1.76777 1.76777 2
    endloop
  endfacet
  facet normal 0.92388 0.382682 0
    outer loop
      vertex 1.76777 1.76777 0
      vertex 2.5 0 2
      vertex 2.5 0 0
    endloop
  endfacet
  facet normal 0.92388 -0.382682 0
    outer loop
      vertex 1.76777 -1.76777 2
      vertex 2.5 0 0
      vertex 2.5 0 2
    endloop
  endfacet
  facet normal 0.92388 -0.382682 0
    outer loop
      vertex 2.5 0 0
      vertex 1.76777 -1.76777 2
      vertex 1.76777 -1.76777 0
    endloop
  endfacet
  facet normal -0.382682 -0.92388 0
    outer loop
      vertex -1.76777 -1.76777 0
      vertex 0 -2.5 2
      vertex -1.76777 -1.76777 2
    endloop
  endfacet
  facet normal -0.382682 -0.92388 -0
    outer loop
      vertex 0 -2.5 2
      vertex -1.76777 -1.76777 0
      vertex 0 -2.5 0
    endloop
  endfacet
  facet normal -0.382682 0.92388 0
    outer loop
      vertex 0 2.5 0
      vertex -1.76777 1.76777 2
      vertex 0 2.5 2
    endloop
  endfacet
  facet normal -0.382682 0.92388 0
    outer loop
      vertex -1.76777 1.76777 2
      vertex 0 2.5 0
      vertex -1.76777 1.76777 0
    endloop
  endfacet
  facet normal -0.92388 0.382682 0
    outer loop
      vertex -2.5 0 0
      vertex -1.76777 1.76777 2
      vertex -1.76777 1.76777 0
    endloop
  endfacet
  facet normal -0.92388 0.382682 0
    outer loop
      vertex -1.76777 1.76777 2
      vertex -2.5 0 0
      vertex -2.5 0 2
    endloop
  endfacet
  facet normal 0.382682 -0.92388 0
    outer loop
      vertex 0 -2.5 0
      vertex 1.76777 -1.76777 2
      vertex 0 -2.5 2
    endloop
  endfacet
  facet normal 0.382682 -0.92388 0
    outer loop
      vertex 1.76777 -1.76777 2
      vertex 0 -2.5 0
      vertex 1.76777 -1.76777 0
    endloop
  endfacet
  facet normal 0 0 1
    outer loop
      vertex 1.5 0 2
      vertex 2.5 0 2
      vertex 1.76777 1.76777 2
    endloop
  endfacet
  facet normal 0 0 1
    outer loop
      vertex 2.5 0 2
      vertex 1.5 0 2
      vertex 1.76777 -1.76777 2
    endloop
  endfacet
  facet normal 0 0 1
    outer loop
      vertex 1.76777 1.76777 2
      vertex 0.463525 1.42658 2
      vertex 1.5 0 2
    endloop
  endfacet
  facet normal 0 0 1
    outer loop
      vertex 0 2.5 2
      vertex 0.463525 1.42658 2
      vertex 1.76777 1.76777 2
    endloop
  endfacet
  facet normal 0 0 1
    outer loop
      vertex 0 2.5 2
      vertex -1.21352 0.881678 2
      vertex 0.463525 1.42658 2
    endloop
  endfacet
  facet normal 0 0 1
    outer loop
      vertex -2.5 0 2
      vertex -1.21352 0.881678 2
      vertex -1.76777 1.76777 2
    endloop
  endfacet
  facet normal -0 0 1
    outer loop
      vertex -1.76777 1.76777 2
      vertex -1.21352 0.881678 2
      vertex 0 2.5 2
    endloop
  endfacet
  facet normal -0 0 1
    outer loop
      vertex 0.463525 -1.42658 2
      vertex 1.76777 -1.76777 2
      vertex 1.5 0 2
    endloop
  endfacet
  facet normal 0 0 1
    outer loop
      vertex 0.463525 -1.42658 2
      vertex 0 -2.5 2
      vertex 1.76777 -1.76777 2
    endloop
  endfacet
  facet normal 0 0 1
    outer loop
      vertex -1.21352 -0.881678 2
      vertex 0 -2.5 2
      vertex 0.463525 -1.42658 2
    endloop
  endfacet
  facet normal 0 0 1
    outer loop
      vertex -1.21352 -0.881678 2
      vertex -1.76777 -1.76777 2
      vertex 0 -2.5 2
    endloop
  endfacet
  facet normal 0 0 1
    outer loop
      vertex -1.21352 0.881678 2
      vertex -2.5 0 2
      vertex -1.21352 -0.881678 2
    endloop
  endfacet
  facet normal 0 0 1
    outer loop
      vertex -1.21352 -0.881678 2
      vertex -2.5 0 2
      vertex -1.76777 -1.76777 2
    endloop
  endfacet
  facet normal -0.92388 -0.382682 0
    outer loop
      vertex -1.76777 -1.76777 -25
      vertex -2.5 0 -23
      vertex -2.5 0 -25
    endloop
  endfacet
  facet normal -0.92388 -0.382682 0
    outer loop
      vertex -2.5 0 -23
      vertex -1.76777 -1.76777 -25
      vertex -1.76777 -1.76777 -23
    endloop
  endfacet
  facet normal 0.382682 0.92388 -0
    outer loop
      vertex 1.76777 1.76777 -25
      vertex 0 2.5 -23
      vertex 1.76777 1.76777 -23
    endloop
  endfacet
  facet normal 0.382682 0.92388 0
    outer loop
      vertex 0 2.5 -23
      vertex 1.76777 1.76777 -25
      vertex 0 2.5 -25
    endloop
  endfacet
  facet normal 0.92388 0.382682 0
    outer loop
      vertex 2.5 0 -23
      vertex 1.76777 1.76777 -25
      vertex 1.76777 1.76777 -23
    endloop
  endfacet
  facet normal 0.92388 0.382682 0
    outer loop
      vertex 1.76777 1.76777 -25
      vertex 2.5 0 -23
      vertex 2.5 0 -25
    endloop
  endfacet
  facet normal 0.92388 -0.382682 0
    outer loop
      vertex 1.76777 -1.76777 -23
      vertex 2.5 0 -25
      vertex 2.5 0 -23
    endloop
  endfacet
  facet normal 0.92388 -0.382682 0
    outer loop
      vertex 2.5 0 -25
      vertex 1.76777 -1.76777 -23
      vertex 1.76777 -1.76777 -25
    endloop
  endfacet
  facet normal -0.382682 -0.92388 0
    outer loop
      vertex -1.76777 -1.76777 -25
      vertex 0 -2.5 -23
      vertex -1.76777 -1.76777 -23
    endloop
  endfacet
  facet normal -0.382682 -0.92388 -0
    outer loop
      vertex 0 -2.5 -23
      vertex -1.76777 -1.76777 -25
      vertex 0 -2.5 -25
    endloop
  endfacet
  facet normal -0.382682 0.92388 0
    outer loop
      vertex 0 2.5 -25
      vertex -1.76777 1.76777 -23
      vertex 0 2.5 -23
    endloop
  endfacet
  facet normal -0.382682 0.92388 0
    outer loop
      vertex -1.76777 1.76777 -23
      vertex 0 2.5 -25
      vertex -1.76777 1.76777 -25
    endloop
  endfacet
  facet normal -0.92388 0.382682 0
    outer loop
      vertex -2.5 0 -25
      vertex -1.76777 1.76777 -23
      vertex -1.76777 1.76777 -25
    endloop
  endfacet
  facet normal -0.92388 0.382682 0
    outer loop
      vertex -1.76777 1.76777 -23
      vertex -2.5 0 -25
      vertex -2.5 0 -23
    endloop
  endfacet
  facet normal 0.382682 -0.92388 0
    outer loop
      vertex 0 -2.5 -25
      vertex 1.76777 -1.76777 -23
      vertex 0 -2.5 -23
    endloop
  endfacet
  facet normal 0.382682 -0.92388 0
    outer loop
      vertex 1.76777 -1.76777 -23
      vertex 0 -2.5 -25
      vertex 1.76777 -1.76777 -25
    endloop
  endfacet
  facet normal 0 0 1
    outer loop
      vertex 1.5 0 -23
      vertex 2.5 0 -23
      vertex 1.76777 1.76777 -23
    endloop
  endfacet
  facet normal 0 0 1
    outer loop
      vertex 2.5 0 -23
      vertex 1.5 0 -23
      vertex 1.76777 -1.76777 -23
    endloop
  endfacet
  facet normal 0 0 1
    outer loop
      vertex 1.76777 1.76777 -23
      vertex 0.463525 1.42658 -23
      vertex 1.5 0 -23
    endloop
  endfacet
  facet normal 0 0 1
    outer loop
      vertex 0 2.5 -23
      vertex 0.463525 1.42658 -23
      vertex 1.76777 1.76777 -23
    endloop
  endfacet
  facet normal 0 0 1
    outer loop
      vertex 0 2.5 -23
      vertex -1.21352 0.881678 -23
      vertex 0.463525 1.42658 -23
    endloop
  endfacet
  facet normal 0 0 1
    outer loop
      vertex -2.5 0 -23
      vertex -1.21352 0.881678 -23
      vertex -1.76777 1.76777 -23
    endloop
  endfacet
  facet normal -0 0 1
    outer loop
      vertex -1.76777 1.76777 -23
      vertex -1.21352 0.881678 -23
      vertex 0 2.5 -23
    endloop
  endfacet
  facet normal -0 0 1
    outer loop
      vertex 0.463525 -1.42658 -23
      vertex 1.76777 -1.76777 -23
      vertex 1.5 0 -23
    endloop
  endfacet
  facet normal 0 0 1
    outer loop
      vertex 0.463525 -1.42658 -23
      vertex 0 -2.5 -23
      vertex 1.76777 -1.76777 -23
    endloop
  endfacet
  facet normal 0 0 1
    outer loop
      vertex -1.21352 -0.881678 -23
      vertex 0 -2.5 -23
      vertex 0.463525 -1.42658 -23
    endloop
  endfacet
  facet normal 0 0 1
    outer loop
      vertex -1.21352 -0.881678 -23
      vertex -1.76777 -1.76777 -23
      vertex 0 -2.5 -23
    endloop
  endfacet
  facet normal 0 0 1
    outer loop
      vertex -1.21352 0.881678 -23
      vertex -2.5 0 -23
      vertex -1.21352 -0.881678 -23
    endloop
  endfacet
  facet normal 0 0 1
    outer loop
      vertex -1.21352 -0.881678 -23
      vertex -2.5 0 -23
      vertex -1.76777 -1.76777 -23
    endloop
  endfacet
endsolid OpenSCAD_Model
