solid OpenSCAD_Model
  facet normal 1 0 0
    outer loop
      vertex 20 20 30
      vertex 20 5 2.5
      vertex 20 20 -30
    endloop
  endfacet
  facet normal 1 0 0
    outer loop
      vertex 20 20 30
      vertex 20 -5 2.5
      vertex 20 5 2.5
    endloop
  endfacet
  facet normal 1 0 0
    outer loop
      vertex 20 -5 2.5
      vertex 20 -20 30
      vertex 20 -5 -2.5
    endloop
  endfacet
  facet normal 1 -0 0
    outer loop
      vertex 20 -20 30
      vertex 20 -5 2.5
      vertex 20 20 30
    endloop
  endfacet
  facet normal 1 -0 0
    outer loop
      vertex 20 5 -2.5
      vertex 20 20 -30
      vertex 20 5 2.5
    endloop
  endfacet
  facet normal 1 -0 0
    outer loop
      vertex 20 -5 -2.5
      vertex 20 20 -30
      vertex 20 5 -2.5
    endloop
  endfacet
  facet normal 1 0 0
    outer loop
      vertex 20 -5 -2.5
      vertex 20 -20 -30
      vertex 20 20 -30
    endloop
  endfacet
  facet normal 1 0 0
    outer loop
      vertex 20 -20 -30
      vertex 20 -5 -2.5
      vertex 20 -20 30
    endloop
  endfacet
  facet normal -0 0 1
    outer loop
      vertex -20 20 30
      vertex 20 -20 30
      vertex 20 20 30
    endloop
  endfacet
  facet normal 0 0 1
    outer loop
      vertex 20 -20 30
      vertex -20 20 30
      vertex -20 -20 30
    endloop
  endfacet
  facet normal 0 0 -1
    outer loop
      vertex -15 -20 -30
      vertex -20 -20 -30
      vertex -15 10 -30
    endloop
  endfacet
  facet normal 0 0 -1
    outer loop
      vertex 5 10 -30
      vertex 20 -20 -30
      vertex 5 -20 -30
    endloop
  endfacet
  facet normal 0 0 -1
    outer loop
      vertex 20 -20 -30
      vertex 5 10 -30
      vertex 20 20 -30
    endloop
  endfacet
  facet normal 0 0 -1
    outer loop
      vertex -20 20 -30
      vertex 5 10 -30
      vertex -15 10 -30
    endloop
  endfacet
  facet normal 0 0 -1
    outer loop
      vertex 5 10 -30
      vertex -20 20 -30
      vertex 20 20 -30
    endloop
  endfacet
  facet normal 0 0 -1
    outer loop
      vertex -20 20 -30
      vertex -15 10 -30
      vertex -20 -20 -30
    endloop
  endfacet
  facet normal -1 0 0
    outer loop
      vertex -20 -20 -30
      vertex -20 20 30
      vertex -20 20 -30
    endloop
  endfacet
  facet normal -1 -0 0
    outer loop
      vertex -20 20 30
      vertex -20 -20 -30
      vertex -20 -20 30
    endloop
  endfacet
  facet normal 0 1 -0
    outer loop
      vertex 20 20 -30
      vertex -20 20 30
      vertex 20 20 30
    endloop
  endfacet
  facet normal 0 1 0
    outer loop
      vertex -20 20 30
      vertex 20 20 -30
      vertex -20 20 -30
    endloop
  endfacet
  facet normal 0 -1 0
    outer loop
      vertex -5 -20 15
      vertex -20 -20 30
      vertex -15 -20 15
    endloop
  endfacet
  facet normal 0 -1 0
    outer loop
      vertex -20 -20 30
      vertex -15 -20 10
      vertex -15 -20 15
    endloop
  endfacet
  facet normal 0 -1 0
    outer loop
      vertex -15 -20 10
      vertex -15 -20 -5
      vertex -5 -20 10
    endloop
  endfacet
  facet normal 0 -1 0
    outer loop
      vertex -20 -20 30
      vertex -15 -20 -5
      vertex -15 -20 10
    endloop
  endfacet
  facet normal 0 -1 0
    outer loop
      vertex -20 -20 -30
      vertex -15 -20 -5
      vertex -20 -20 30
    endloop
  endfacet
  facet normal 0 -1 0
    outer loop
      vertex -15 -20 -10
      vertex -15 -20 -20
      vertex -5 -20 -10
    endloop
  endfacet
  facet normal 0 -1 -0
    outer loop
      vertex -15 -20 -5
      vertex -20 -20 -30
      vertex -15 -20 -10
    endloop
  endfacet
  facet normal 0 -1 -0
    outer loop
      vertex -15 -20 -10
      vertex -20 -20 -30
      vertex -15 -20 -20
    endloop
  endfacet
  facet normal 0 -1 -0
    outer loop
      vertex -15 -20 -20
      vertex -20 -20 -30
      vertex -15 -20 -30
    endloop
  endfacet
  facet normal 0 -1 0
    outer loop
      vertex -20 -20 30
      vertex -5 -20 15
      vertex 20 -20 30
    endloop
  endfacet
  facet normal 0 -1 0
    outer loop
      vertex -5 -20 10
      vertex 20 -20 30
      vertex -5 -20 15
    endloop
  endfacet
  facet normal 0 -1 0
    outer loop
      vertex -5 -20 -5
      vertex -5 -20 10
      vertex -15 -20 -5
    endloop
  endfacet
  facet normal 0 -1 0
    outer loop
      vertex -5 -20 10
      vertex -5 -20 -5
      vertex 20 -20 30
    endloop
  endfacet
  facet normal 0 -1 0
    outer loop
      vertex 5 -20 -20
      vertex -5 -20 -5
      vertex -5 -20 -10
    endloop
  endfacet
  facet normal 0 -1 0
    outer loop
      vertex 5 -20 -20
      vertex -5 -20 -10
      vertex -15 -20 -20
    endloop
  endfacet
  facet normal 0 -1 0
    outer loop
      vertex -5 -20 -5
      vertex 5 -20 -20
      vertex 20 -20 30
    endloop
  endfacet
  facet normal 0 -1 0
    outer loop
      vertex 20 -20 -30
      vertex 5 -20 -20
      vertex 5 -20 -30
    endloop
  endfacet
  facet normal 0 -1 0
    outer loop
      vertex 5 -20 -20
      vertex 20 -20 -30
      vertex 20 -20 30
    endloop
  endfacet
  facet normal -1 0 0
    outer loop
      vertex -5 -20 10
      vertex -5 10 15
      vertex -5 10 10
    endloop
  endfacet
  facet normal -1 -0 0
    outer loop
      vertex -5 10 15
      vertex -5 -20 10
      vertex -5 -20 15
    endloop
  endfacet
  facet normal 0 0 -1
    outer loop
      vertex -15 -20 15
      vertex -5 10 15
      vertex -5 -20 15
    endloop
  endfacet
  facet normal -0 0 -1
    outer loop
      vertex -5 10 15
      vertex -15 -20 15
      vertex -15 10 15
    endloop
  endfacet
  facet normal -0 0 1
    outer loop
      vertex -15 10 10
      vertex -5 -20 10
      vertex -5 10 10
    endloop
  endfacet
  facet normal 0 0 1
    outer loop
      vertex -5 -20 10
      vertex -15 10 10
      vertex -15 -20 10
    endloop
  endfacet
  facet normal 1 -0 0
    outer loop
      vertex -15 -20 15
      vertex -15 10 10
      vertex -15 10 15
    endloop
  endfacet
  facet normal 1 0 0
    outer loop
      vertex -15 10 10
      vertex -15 -20 15
      vertex -15 -20 10
    endloop
  endfacet
  facet normal 0 -1 0
    outer loop
      vertex -15 10 10
      vertex -5 10 15
      vertex -15 10 15
    endloop
  endfacet
  facet normal 0 -1 -0
    outer loop
      vertex -5 10 15
      vertex -15 10 10
      vertex -5 10 10
    endloop
  endfacet
  facet normal -1 0 0
    outer loop
      vertex -5 -20 -10
      vertex -5 10 -5
      vertex -5 10 -10
    endloop
  endfacet
  facet normal -1 -0 0
    outer loop
      vertex -5 10 -5
      vertex -5 -20 -10
      vertex -5 -20 -5
    endloop
  endfacet
  facet normal 0 0 -1
    outer loop
      vertex -15 -20 -5
      vertex -5 10 -5
      vertex -5 -20 -5
    endloop
  endfacet
  facet normal -0 0 -1
    outer loop
      vertex -5 10 -5
      vertex -15 -20 -5
      vertex -15 10 -5
    endloop
  endfacet
  facet normal -0 0 1
    outer loop
      vertex -15 10 -10
      vertex -5 -20 -10
      vertex -5 10 -10
    endloop
  endfacet
  facet normal 0 0 1
    outer loop
      vertex -5 -20 -10
      vertex -15 10 -10
      vertex -15 -20 -10
    endloop
  endfacet
  facet normal 1 -0 0
    outer loop
      vertex -15 -20 -5
      vertex -15 10 -10
      vertex -15 10 -5
    endloop
  endfacet
  facet normal 1 0 0
    outer loop
      vertex -15 10 -10
      vertex -15 -20 -5
      vertex -15 -20 -10
    endloop
  endfacet
  facet normal 0 -1 0
    outer loop
      vertex -15 10 -10
      vertex -5 10 -5
      vertex -15 10 -5
    endloop
  endfacet
  facet normal 0 -1 -0
    outer loop
      vertex -5 10 -5
      vertex -15 10 -10
      vertex -5 10 -10
    endloop
  endfacet
  facet normal -1 0 0
    outer loop
      vertex 5 -20 -30
      vertex 5 10 -20
      vertex 5 10 -30
    endloop
  endfacet
  facet normal -1 -0 0
    outer loop
      vertex 5 10 -20
      vertex 5 -20 -30
      vertex 5 -20 -20
    endloop
  endfacet
  facet normal 0 0 -1
    outer loop
      vertex 5 -20 -20
      vertex 3.53553 0 -20
      vertex 5 10 -20
    endloop
  endfacet
  facet normal 0 0 -1
    outer loop
      vertex 5 -20 -20
      vertex 0 -3.53553 -20
      vertex 3.53553 0 -20
    endloop
  endfacet
  facet normal 0 0 -1
    outer loop
      vertex -15 -20 -20
      vertex 0 -3.53553 -20
      vertex 5 -20 -20
    endloop
  endfacet
  facet normal -0 0 -1
    outer loop
      vertex 0 -3.53553 -20
      vertex -15 -20 -20
      vertex -3.53553 0 -20
    endloop
  endfacet
  facet normal 0 0 -1
    outer loop
      vertex 0 3.53553 -20
      vertex 5 10 -20
      vertex 3.53553 0 -20
    endloop
  endfacet
  facet normal 0 0 -1
    outer loop
      vertex -15 10 -20
      vertex 0 3.53553 -20
      vertex -3.53553 0 -20
    endloop
  endfacet
  facet normal 0 0 -1
    outer loop
      vertex 0 3.53553 -20
      vertex -15 10 -20
      vertex 5 10 -20
    endloop
  endfacet
  facet normal 0 0 -1
    outer loop
      vertex -15 10 -20
      vertex -3.53553 0 -20
      vertex -15 -20 -20
    endloop
  endfacet
  facet normal 1 -0 0
    outer loop
      vertex -15 -20 -20
      vertex -15 10 -30
      vertex -15 10 -20
    endloop
  endfacet
  facet normal 1 0 0
    outer loop
      vertex -15 10 -30
      vertex -15 -20 -20
      vertex -15 -20 -30
    endloop
  endfacet
  facet normal 0 -1 0
    outer loop
      vertex -15 10 -30
      vertex 5 10 -20
      vertex -15 10 -20
    endloop
  endfacet
  facet normal 0 -1 -0
    outer loop
      vertex 5 10 -20
      vertex -15 10 -30
      vertex 5 10 -30
    endloop
  endfacet
  facet normal 0.707107 0.707107 0
    outer loop
      vertex 3.53553 0 -20
      vertex 0 3.53553 -35
      vertex 0 3.53553 -20
    endloop
  endfacet
  facet normal 0.707107 0.707107 0
    outer loop
      vertex 0 3.53553 -35
      vertex 3.53553 0 -20
      vertex 3.53553 0 -35
    endloop
  endfacet
  facet normal -0.707107 -0.707107 0
    outer loop
      vertex 0 -3.53553 -35
      vertex -3.53553 0 -20
      vertex -3.53553 0 -35
    endloop
  endfacet
  facet normal -0.707107 -0.707107 0
    outer loop
      vertex -3.53553 0 -20
      vertex 0 -3.53553 -35
      vertex 0 -3.53553 -20
    endloop
  endfacet
  facet normal -0.707107 0.707107 0
    outer loop
      vertex -3.53553 0 -35
      vertex 0 3.53553 -20
      vertex 0 3.53553 -35
    endloop
  endfacet
  facet normal -0.707107 0.707107 0
    outer loop
      vertex 0 3.53553 -20
      vertex -3.53553 0 -35
      vertex -3.53553 0 -20
    endloop
  endfacet
  facet normal 0 0 -1
    outer loop
      vertex 0 -3.53553 -35
      vertex 0 3.53553 -35
      vertex 3.53553 0 -35
    endloop
  endfacet
  facet normal 0 -0 -1
    outer loop
      vertex 0 3.53553 -35
      vertex 0 -3.53553 -35
      vertex -3.53553 0 -35
    endloop
  endfacet
  facet normal 0.707107 -0.707107 0
    outer loop
      vertex 0 -3.53553 -20
      vertex 3.53553 0 -35
      vertex 3.53553 0 -20
    endloop
  endfacet
  facet normal 0.707107 -0.707107 0
    outer loop
      vertex 3.53553 0 -35
      vertex 0 -3.53553 -20
      vertex 0 -3.53553 -35
    endloop
  endfacet
  facet normal 1 -0 0
    outer loop
      vertex 35 -5 2.5
      vertex 35 5 -2.5
      vertex 35 5 2.5
    endloop
  endfacet
  facet normal 1 0 0
    outer loop
      vertex 35 5 -2.5
      vertex 35 -5 2.5
      vertex 35 -5 -2.5
    endloop
  endfacet
  facet normal -0 0 1
    outer loop
      vertex 20 5 2.5
      vertex 35 -5 2.5
      vertex 35 5 2.5
    endloop
  endfacet
  facet normal 0 0 1
    outer loop
      vertex 35 -5 2.5
      vertex 20 5 2.5
      vertex 20 -5 2.5
    endloop
  endfacet
  facet normal 0 0 -1
    outer loop
      vertex 20 -5 -2.5
      vertex 35 5 -2.5
      vertex 35 -5 -2.5
    endloop
  endfacet
  facet normal -0 0 -1
    outer loop
      vertex 35 5 -2.5
      vertex 20 -5 -2.5
      vertex 20 5 -2.5
    endloop
  endfacet
  facet normal 0 1 -0
    outer loop
      vertex 35 5 -2.5
      vertex 20 5 2.5
      vertex 35 5 2.5
    endloop
  endfacet
  facet normal 0 1 0
    outer loop
      vertex 20 5 2.5
      vertex 35 5 -2.5
      vertex 20 5 -2.5
    endloop
  endfacet
  facet normal 0 -1 0
    outer loop
      vertex 20 -5 -2.5
      vertex 35 -5 2.5
      vertex 20 -5 2.5
    endloop
  endfacet
  facet normal 0 -1 -0
    outer loop
      vertex 35 -5 2.5
      vertex 20 -5 -2.5
      vertex 35 -5 -2.5
    endloop
  endfacet
endsolid OpenSCAD_Model
