solid OpenSCAD_Model
  facet normal -0.743138 -0.669138 0
    outer loop
      vertex -20.0739 -22.2943 -1
      vertex -24.2705 -17.6336 1
      vertex -24.2705 -17.6336 -1
    endloop
  endfacet
  facet normal -0.743138 -0.669138 0
    outer loop
      vertex -24.2705 -17.6336 1
      vertex -20.0739 -22.2943 -1
      vertex -20.0739 -22.2943 1
    endloop
  endfacet
  facet normal 0.95106 0.309008 0
    outer loop
      vertex 29.3444 6.23735 1
      vertex 27.4064 12.2021 -1
      vertex 27.4064 12.2021 1
    endloop
  endfacet
  facet normal 0.95106 0.309008 0
    outer loop
      vertex 27.4064 12.2021 -1
      vertex 29.3444 6.23735 1
      vertex 29.3444 6.23735 -1
    endloop
  endfacet
  facet normal 0.994521 0.104533 0
    outer loop
      vertex 30 0 1
      vertex 29.3444 6.23735 -1
      vertex 29.3444 6.23735 1
    endloop
  endfacet
  facet normal 0.994521 0.104533 0
    outer loop
      vertex 29.3444 6.23735 -1
      vertex 30 0 1
      vertex 30 0 -1
    endloop
  endfacet
  facet normal 0.866024 0.500003 0
    outer loop
      vertex 27.4064 12.2021 1
      vertex 24.2705 17.6336 -1
      vertex 24.2705 17.6336 1
    endloop
  endfacet
  facet normal 0.866024 0.500003 0
    outer loop
      vertex 24.2705 17.6336 -1
      vertex 27.4064 12.2021 1
      vertex 27.4064 12.2021 -1
    endloop
  endfacet
  facet normal 0.95106 -0.309008 0
    outer loop
      vertex 27.4064 -12.2021 1
      vertex 29.3444 -6.23735 -1
      vertex 29.3444 -6.23735 1
    endloop
  endfacet
  facet normal 0.95106 -0.309008 0
    outer loop
      vertex 29.3444 -6.23735 -1
      vertex 27.4064 -12.2021 1
      vertex 27.4064 -12.2021 -1
    endloop
  endfacet
  facet normal 0.587795 -0.80901 0
    outer loop
      vertex 15 -25.9808 -1
      vertex 20.0739 -22.2943 1
      vertex 15 -25.9808 1
    endloop
  endfacet
  facet normal 0.587795 -0.80901 0
    outer loop
      vertex 20.0739 -22.2943 1
      vertex 15 -25.9808 -1
      vertex 20.0739 -22.2943 -1
    endloop
  endfacet
  facet normal 0.743138 -0.669138 0
    outer loop
      vertex 20.0739 -22.2943 1
      vertex 24.2705 -17.6336 -1
      vertex 24.2705 -17.6336 1
    endloop
  endfacet
  facet normal 0.743138 -0.669138 0
    outer loop
      vertex 24.2705 -17.6336 -1
      vertex 20.0739 -22.2943 1
      vertex 20.0739 -22.2943 -1
    endloop
  endfacet
  facet normal 0.994521 -0.104533 0
    outer loop
      vertex 29.3444 -6.23735 1
      vertex 30 0 -1
      vertex 30 0 1
    endloop
  endfacet
  facet normal 0.994521 -0.104533 0
    outer loop
      vertex 30 0 -1
      vertex 29.3444 -6.23735 1
      vertex 29.3444 -6.23735 -1
    endloop
  endfacet
  facet normal -0.406732 -0.913547 0
    outer loop
      vertex -15 -25.9808 -1
      vertex -9.27051 -28.5317 1
      vertex -15 -25.9808 1
    endloop
  endfacet
  facet normal -0.406732 -0.913547 -0
    outer loop
      vertex -9.27051 -28.5317 1
      vertex -15 -25.9808 -1
      vertex -9.27051 -28.5317 -1
    endloop
  endfacet
  facet normal 0.406732 0.913547 -0
    outer loop
      vertex 15 25.9808 -1
      vertex 9.27051 28.5317 1
      vertex 15 25.9808 1
    endloop
  endfacet
  facet normal 0.406732 0.913547 0
    outer loop
      vertex 9.27051 28.5317 1
      vertex 15 25.9808 -1
      vertex 9.27051 28.5317 -1
    endloop
  endfacet
  facet normal 0.743138 0.669138 0
    outer loop
      vertex 24.2705 17.6336 1
      vertex 20.0739 22.2943 -1
      vertex 20.0739 22.2943 1
    endloop
  endfacet
  facet normal 0.743138 0.669138 0
    outer loop
      vertex 20.0739 22.2943 -1
      vertex 24.2705 17.6336 1
      vertex 24.2705 17.6336 -1
    endloop
  endfacet
  facet normal -0.587795 -0.80901 0
    outer loop
      vertex -20.0739 -22.2943 -1
      vertex -15 -25.9808 1
      vertex -20.0739 -22.2943 1
    endloop
  endfacet
  facet normal -0.587795 -0.80901 -0
    outer loop
      vertex -15 -25.9808 1
      vertex -20.0739 -22.2943 -1
      vertex -15 -25.9808 -1
    endloop
  endfacet
  facet normal -0.743138 0.669138 0
    outer loop
      vertex -24.2705 17.6336 -1
      vertex -20.0739 22.2943 1
      vertex -20.0739 22.2943 -1
    endloop
  endfacet
  facet normal -0.743138 0.669138 0
    outer loop
      vertex -20.0739 22.2943 1
      vertex -24.2705 17.6336 -1
      vertex -24.2705 17.6336 1
    endloop
  endfacet
  facet normal 0 1 -0
    outer loop
      vertex 3.13585 29.8357 -1
      vertex -3.13585 29.8357 1
      vertex 3.13585 29.8357 1
    endloop
  endfacet
  facet normal 0 1 0
    outer loop
      vertex -3.13585 29.8357 1
      vertex 3.13585 29.8357 -1
      vertex -3.13585 29.8357 -1
    endloop
  endfacet
  facet normal 0.406732 -0.913547 0
    outer loop
      vertex 9.27051 -28.5317 -1
      vertex 15 -25.9808 1
      vertex 9.27051 -28.5317 1
    endloop
  endfacet
  facet normal 0.406732 -0.913547 0
    outer loop
      vertex 15 -25.9808 1
      vertex 9.27051 -28.5317 -1
      vertex 15 -25.9808 -1
    endloop
  endfacet
  facet normal 0.207917 -0.978146 0
    outer loop
      vertex 3.13585 -29.8357 -1
      vertex 9.27051 -28.5317 1
      vertex 3.13585 -29.8357 1
    endloop
  endfacet
  facet normal 0.207917 -0.978146 0
    outer loop
      vertex 9.27051 -28.5317 1
      vertex 3.13585 -29.8357 -1
      vertex 9.27051 -28.5317 -1
    endloop
  endfacet
  facet normal -0.95106 0.309008 0
    outer loop
      vertex -29.3444 6.23735 -1
      vertex -27.4064 12.2021 1
      vertex -27.4064 12.2021 -1
    endloop
  endfacet
  facet normal -0.95106 0.309008 0
    outer loop
      vertex -27.4064 12.2021 1
      vertex -29.3444 6.23735 -1
      vertex -29.3444 6.23735 1
    endloop
  endfacet
  facet normal 0 0 -1
    outer loop
      vertex 29.3444 -6.23735 -1
      vertex 14.6722 -3.11868 -1
      vertex 15 0 -1
    endloop
  endfacet
  facet normal 0 0 -1
    outer loop
      vertex 20.0739 -22.2943 -1
      vertex 13.7032 -6.10105 -1
      vertex 14.6722 -3.11868 -1
    endloop
  endfacet
  facet normal 0 0 -1
    outer loop
      vertex 20.0739 -22.2943 -1
      vertex 12.1353 -8.81678 -1
      vertex 13.7032 -6.10105 -1
    endloop
  endfacet
  facet normal 0 0 -1
    outer loop
      vertex 20.0739 -22.2943 -1
      vertex 10.037 -11.1472 -1
      vertex 12.1353 -8.81678 -1
    endloop
  endfacet
  facet normal 0 0 -1
    outer loop
      vertex 7.5 -12.9904 -1
      vertex 15 -25.9808 -1
      vertex 9.27051 -28.5317 -1
    endloop
  endfacet
  facet normal 0 0 -1
    outer loop
      vertex 15 -25.9808 -1
      vertex 7.5 -12.9904 -1
      vertex 10.037 -11.1472 -1
    endloop
  endfacet
  facet normal 0 0 -1
    outer loop
      vertex 9.27051 -28.5317 -1
      vertex 4.63525 -14.2658 -1
      vertex 7.5 -12.9904 -1
    endloop
  endfacet
  facet normal 0 0 -1
    outer loop
      vertex 3.13585 -29.8357 -1
      vertex 4.63525 -14.2658 -1
      vertex 9.27051 -28.5317 -1
    endloop
  endfacet
  facet normal 0 0 -1
    outer loop
      vertex 3.13585 -29.8357 -1
      vertex 1.56793 -14.9178 -1
      vertex 4.63525 -14.2658 -1
    endloop
  endfacet
  facet normal 0 0 -1
    outer loop
      vertex 3.13585 -29.8357 -1
      vertex -1.56793 -14.9178 -1
      vertex 1.56793 -14.9178 -1
    endloop
  endfacet
  facet normal 0 0 -1
    outer loop
      vertex -3.13585 -29.8357 -1
      vertex -1.56793 -14.9178 -1
      vertex 3.13585 -29.8357 -1
    endloop
  endfacet
  facet normal 0 0 -1
    outer loop
      vertex -3.13585 -29.8357 -1
      vertex -4.63525 -14.2658 -1
      vertex -1.56793 -14.9178 -1
    endloop
  endfacet
  facet normal 0 0 -1
    outer loop
      vertex -9.27051 -28.5317 -1
      vertex -4.63525 -14.2658 -1
      vertex -3.13585 -29.8357 -1
    endloop
  endfacet
  facet normal -0 0 -1
    outer loop
      vertex -4.63525 -14.2658 -1
      vertex -9.27051 -28.5317 -1
      vertex -7.5 -12.9904 -1
    endloop
  endfacet
  facet normal 0 0 -1
    outer loop
      vertex -15 -25.9808 -1
      vertex -7.5 -12.9904 -1
      vertex -9.27051 -28.5317 -1
    endloop
  endfacet
  facet normal -0 0 -1
    outer loop
      vertex -7.5 -12.9904 -1
      vertex -15 -25.9808 -1
      vertex -10.037 -11.1472 -1
    endloop
  endfacet
  facet normal 0 0 -1
    outer loop
      vertex -20.0739 -22.2943 -1
      vertex -10.037 -11.1472 -1
      vertex -15 -25.9808 -1
    endloop
  endfacet
  facet normal -0 0 -1
    outer loop
      vertex -10.037 -11.1472 -1
      vertex -20.0739 -22.2943 -1
      vertex -12.1353 -8.81678 -1
    endloop
  endfacet
  facet normal 0 0 -1
    outer loop
      vertex -24.2705 -17.6336 -1
      vertex -12.1353 -8.81678 -1
      vertex -20.0739 -22.2943 -1
    endloop
  endfacet
  facet normal -0 0 -1
    outer loop
      vertex -12.1353 -8.81678 -1
      vertex -24.2705 -17.6336 -1
      vertex -13.7032 -6.10105 -1
    endloop
  endfacet
  facet normal 0 0 -1
    outer loop
      vertex -27.4064 -12.2021 -1
      vertex -13.7032 -6.10105 -1
      vertex -24.2705 -17.6336 -1
    endloop
  endfacet
  facet normal -0 0 -1
    outer loop
      vertex -13.7032 -6.10105 -1
      vertex -27.4064 -12.2021 -1
      vertex -14.6722 -3.11868 -1
    endloop
  endfacet
  facet normal 0 0 -1
    outer loop
      vertex -15 0 -1
      vertex -20.0739 22.2943 -1
      vertex -15 25.9808 -1
    endloop
  endfacet
  facet normal 0 0 -1
    outer loop
      vertex -29.3444 -6.23735 -1
      vertex -14.6722 -3.11868 -1
      vertex -27.4064 -12.2021 -1
    endloop
  endfacet
  facet normal 0 0 -1
    outer loop
      vertex -15 0 -1
      vertex -24.2705 17.6336 -1
      vertex -20.0739 22.2943 -1
    endloop
  endfacet
  facet normal -0 0 -1
    outer loop
      vertex -14.6722 -3.11868 -1
      vertex -29.3444 -6.23735 -1
      vertex -15 0 -1
    endloop
  endfacet
  facet normal 0 0 -1
    outer loop
      vertex -15 0 -1
      vertex -27.4064 12.2021 -1
      vertex -24.2705 17.6336 -1
    endloop
  endfacet
  facet normal 0 0 -1
    outer loop
      vertex -30 0 -1
      vertex -15 0 -1
      vertex -29.3444 -6.23735 -1
    endloop
  endfacet
  facet normal 0 0 -1
    outer loop
      vertex -15 0 -1
      vertex -29.3444 6.23735 -1
      vertex -27.4064 12.2021 -1
    endloop
  endfacet
  facet normal 0 0 -1
    outer loop
      vertex -15 0 -1
      vertex -30 0 -1
      vertex -29.3444 6.23735 -1
    endloop
  endfacet
  facet normal 0 0 -1
    outer loop
      vertex 15 0 -1
      vertex 30 0 -1
      vertex 29.3444 -6.23735 -1
    endloop
  endfacet
  facet normal 0 0 -1
    outer loop
      vertex 14.6722 -3.11868 -1
      vertex 29.3444 -6.23735 -1
      vertex 27.4064 -12.2021 -1
    endloop
  endfacet
  facet normal 0 0 -1
    outer loop
      vertex 30 0 -1
      vertex 15 0 -1
      vertex 29.3444 6.23735 -1
    endloop
  endfacet
  facet normal 0 0 -1
    outer loop
      vertex 14.6722 -3.11868 -1
      vertex 27.4064 -12.2021 -1
      vertex 24.2705 -17.6336 -1
    endloop
  endfacet
  facet normal 0 0 -1
    outer loop
      vertex 14.6722 3.11868 -1
      vertex 29.3444 6.23735 -1
      vertex 15 0 -1
    endloop
  endfacet
  facet normal 0 0 -1
    outer loop
      vertex 14.6722 -3.11868 -1
      vertex 24.2705 -17.6336 -1
      vertex 20.0739 -22.2943 -1
    endloop
  endfacet
  facet normal -0 0 -1
    outer loop
      vertex 29.3444 6.23735 -1
      vertex 14.6722 3.11868 -1
      vertex 27.4064 12.2021 -1
    endloop
  endfacet
  facet normal 0 0 -1
    outer loop
      vertex 10.037 -11.1472 -1
      vertex 20.0739 -22.2943 -1
      vertex 15 -25.9808 -1
    endloop
  endfacet
  facet normal 0 0 -1
    outer loop
      vertex 13.7032 6.10105 -1
      vertex 27.4064 12.2021 -1
      vertex 14.6722 3.11868 -1
    endloop
  endfacet
  facet normal -0 0 -1
    outer loop
      vertex 27.4064 12.2021 -1
      vertex 13.7032 6.10105 -1
      vertex 24.2705 17.6336 -1
    endloop
  endfacet
  facet normal 0 0 -1
    outer loop
      vertex 12.1353 8.81678 -1
      vertex 24.2705 17.6336 -1
      vertex 13.7032 6.10105 -1
    endloop
  endfacet
  facet normal -0 0 -1
    outer loop
      vertex 24.2705 17.6336 -1
      vertex 12.1353 8.81678 -1
      vertex 20.0739 22.2943 -1
    endloop
  endfacet
  facet normal 0 0 -1
    outer loop
      vertex 10.037 11.1472 -1
      vertex 20.0739 22.2943 -1
      vertex 12.1353 8.81678 -1
    endloop
  endfacet
  facet normal -0 0 -1
    outer loop
      vertex 20.0739 22.2943 -1
      vertex 10.037 11.1472 -1
      vertex 15 25.9808 -1
    endloop
  endfacet
  facet normal 0 0 -1
    outer loop
      vertex 7.5 12.9904 -1
      vertex 15 25.9808 -1
      vertex 10.037 11.1472 -1
    endloop
  endfacet
  facet normal -0 0 -1
    outer loop
      vertex 15 25.9808 -1
      vertex 7.5 12.9904 -1
      vertex 9.27051 28.5317 -1
    endloop
  endfacet
  facet normal 0 0 -1
    outer loop
      vertex 4.63525 14.2658 -1
      vertex 9.27051 28.5317 -1
      vertex 7.5 12.9904 -1
    endloop
  endfacet
  facet normal 0 0 -1
    outer loop
      vertex 4.63525 14.2658 -1
      vertex 3.13585 29.8357 -1
      vertex 9.27051 28.5317 -1
    endloop
  endfacet
  facet normal 0 0 -1
    outer loop
      vertex 1.56793 14.9178 -1
      vertex 3.13585 29.8357 -1
      vertex 4.63525 14.2658 -1
    endloop
  endfacet
  facet normal 0 0 -1
    outer loop
      vertex -1.56793 14.9178 -1
      vertex 3.13585 29.8357 -1
      vertex 1.56793 14.9178 -1
    endloop
  endfacet
  facet normal 0 0 -1
    outer loop
      vertex -1.56793 14.9178 -1
      vertex -3.13585 29.8357 -1
      vertex 3.13585 29.8357 -1
    endloop
  endfacet
  facet normal 0 0 -1
    outer loop
      vertex -4.63525 14.2658 -1
      vertex -3.13585 29.8357 -1
      vertex -1.56793 14.9178 -1
    endloop
  endfacet
  facet normal 0 0 -1
    outer loop
      vertex -9.27051 28.5317 -1
      vertex -4.63525 14.2658 -1
      vertex -7.5 12.9904 -1
    endloop
  endfacet
  facet normal 0 0 -1
    outer loop
      vertex -4.63525 14.2658 -1
      vertex -9.27051 28.5317 -1
      vertex -3.13585 29.8357 -1
    endloop
  endfacet
  facet normal 0 0 -1
    outer loop
      vertex -15 25.9808 -1
      vertex -7.5 12.9904 -1
      vertex -10.037 11.1472 -1
    endloop
  endfacet
  facet normal 0 0 -1
    outer loop
      vertex -15 25.9808 -1
      vertex -10.037 11.1472 -1
      vertex -12.1353 8.81678 -1
    endloop
  endfacet
  facet normal 0 0 -1
    outer loop
      vertex -15 25.9808 -1
      vertex -12.1353 8.81678 -1
      vertex -13.7032 6.10105 -1
    endloop
  endfacet
  facet normal 0 0 -1
    outer loop
      vertex -15 25.9808 -1
      vertex -13.7032 6.10105 -1
      vertex -14.6722 3.11868 -1
    endloop
  endfacet
  facet normal 0 0 -1
    outer loop
      vertex -7.5 12.9904 -1
      vertex -15 25.9808 -1
      vertex -9.27051 28.5317 -1
    endloop
  endfacet
  facet normal 0 0 -1
    outer loop
      vertex -15 25.9808 -1
      vertex -14.6722 3.11868 -1
      vertex -15 0 -1
    endloop
  endfacet
  facet normal -0.95106 -0.309008 0
    outer loop
      vertex -27.4064 -12.2021 -1
      vertex -29.3444 -6.23735 1
      vertex -29.3444 -6.23735 -1
    endloop
  endfacet
  facet normal -0.95106 -0.309008 0
    outer loop
      vertex -29.3444 -6.23735 1
      vertex -27.4064 -12.2021 -1
      vertex -27.4064 -12.2021 1
    endloop
  endfacet
  facet normal -0.406732 0.913547 0
    outer loop
      vertex -9.27051 28.5317 -1
      vertex -15 25.9808 1
      vertex -9.27051 28.5317 1
    endloop
  endfacet
  facet normal -0.406732 0.913547 0
    outer loop
      vertex -15 25.9808 1
      vertex -9.27051 28.5317 -1
      vertex -15 25.9808 -1
    endloop
  endfacet
  facet normal 0 0 1
    outer loop
      vertex 29.3444 6.23735 1
      vertex 14.6722 3.11868 1
      vertex 15 0 1
    endloop
  endfacet
  facet normal 0 0 1
    outer loop
      vertex 20.0739 22.2943 1
      vertex 13.7032 6.10105 1
      vertex 14.6722 3.11868 1
    endloop
  endfacet
  facet normal 0 0 1
    outer loop
      vertex 20.0739 22.2943 1
      vertex 12.1353 8.81678 1
      vertex 13.7032 6.10105 1
    endloop
  endfacet
  facet normal 0 0 1
    outer loop
      vertex 20.0739 22.2943 1
      vertex 10.037 11.1472 1
      vertex 12.1353 8.81678 1
    endloop
  endfacet
  facet normal 0 0 1
    outer loop
      vertex 7.5 12.9904 1
      vertex 15 25.9808 1
      vertex 9.27051 28.5317 1
    endloop
  endfacet
  facet normal 0 0 1
    outer loop
      vertex 15 25.9808 1
      vertex 7.5 12.9904 1
      vertex 10.037 11.1472 1
    endloop
  endfacet
  facet normal 0 0 1
    outer loop
      vertex 9.27051 28.5317 1
      vertex 4.63525 14.2658 1
      vertex 7.5 12.9904 1
    endloop
  endfacet
  facet normal 0 0 1
    outer loop
      vertex 3.13585 29.8357 1
      vertex 4.63525 14.2658 1
      vertex 9.27051 28.5317 1
    endloop
  endfacet
  facet normal 0 0 1
    outer loop
      vertex 3.13585 29.8357 1
      vertex 1.56793 14.9178 1
      vertex 4.63525 14.2658 1
    endloop
  endfacet
  facet normal 0 0 1
    outer loop
      vertex 3.13585 29.8357 1
      vertex -1.56793 14.9178 1
      vertex 1.56793 14.9178 1
    endloop
  endfacet
  facet normal -0 0 1
    outer loop
      vertex -3.13585 29.8357 1
      vertex -1.56793 14.9178 1
      vertex 3.13585 29.8357 1
    endloop
  endfacet
  facet normal 0 0 1
    outer loop
      vertex -3.13585 29.8357 1
      vertex -4.63525 14.2658 1
      vertex -1.56793 14.9178 1
    endloop
  endfacet
  facet normal -0 0 1
    outer loop
      vertex -9.27051 28.5317 1
      vertex -4.63525 14.2658 1
      vertex -3.13585 29.8357 1
    endloop
  endfacet
  facet normal 0 0 1
    outer loop
      vertex -4.63525 14.2658 1
      vertex -9.27051 28.5317 1
      vertex -7.5 12.9904 1
    endloop
  endfacet
  facet normal -0 0 1
    outer loop
      vertex -15 25.9808 1
      vertex -7.5 12.9904 1
      vertex -9.27051 28.5317 1
    endloop
  endfacet
  facet normal 0 0 1
    outer loop
      vertex -7.5 12.9904 1
      vertex -15 25.9808 1
      vertex -10.037 11.1472 1
    endloop
  endfacet
  facet normal -0 0 1
    outer loop
      vertex -20.0739 22.2943 1
      vertex -10.037 11.1472 1
      vertex -15 25.9808 1
    endloop
  endfacet
  facet normal 0 0 1
    outer loop
      vertex -10.037 11.1472 1
      vertex -20.0739 22.2943 1
      vertex -12.1353 8.81678 1
    endloop
  endfacet
  facet normal -0 0 1
    outer loop
      vertex -24.2705 17.6336 1
      vertex -12.1353 8.81678 1
      vertex -20.0739 22.2943 1
    endloop
  endfacet
  facet normal 0 0 1
    outer loop
      vertex -12.1353 8.81678 1
      vertex -24.2705 17.6336 1
      vertex -13.7032 6.10105 1
    endloop
  endfacet
  facet normal -0 0 1
    outer loop
      vertex -27.4064 12.2021 1
      vertex -13.7032 6.10105 1
      vertex -24.2705 17.6336 1
    endloop
  endfacet
  facet normal 0 0 1
    outer loop
      vertex -13.7032 6.10105 1
      vertex -27.4064 12.2021 1
      vertex -14.6722 3.11868 1
    endloop
  endfacet
  facet normal 0 0 1
    outer loop
      vertex -15 0 1
      vertex -20.0739 -22.2943 1
      vertex -15 -25.9808 1
    endloop
  endfacet
  facet normal -0 0 1
    outer loop
      vertex -29.3444 6.23735 1
      vertex -14.6722 3.11868 1
      vertex -27.4064 12.2021 1
    endloop
  endfacet
  facet normal 0 0 1
    outer loop
      vertex -15 0 1
      vertex -24.2705 -17.6336 1
      vertex -20.0739 -22.2943 1
    endloop
  endfacet
  facet normal 0 0 1
    outer loop
      vertex -14.6722 3.11868 1
      vertex -29.3444 6.23735 1
      vertex -15 0 1
    endloop
  endfacet
  facet normal 0 0 1
    outer loop
      vertex -15 0 1
      vertex -27.4064 -12.2021 1
      vertex -24.2705 -17.6336 1
    endloop
  endfacet
  facet normal 0 0 1
    outer loop
      vertex -30 0 1
      vertex -15 0 1
      vertex -29.3444 6.23735 1
    endloop
  endfacet
  facet normal 0 0 1
    outer loop
      vertex -15 0 1
      vertex -29.3444 -6.23735 1
      vertex -27.4064 -12.2021 1
    endloop
  endfacet
  facet normal 0 0 1
    outer loop
      vertex -15 0 1
      vertex -30 0 1
      vertex -29.3444 -6.23735 1
    endloop
  endfacet
  facet normal 0 0 1
    outer loop
      vertex 15 0 1
      vertex 30 0 1
      vertex 29.3444 6.23735 1
    endloop
  endfacet
  facet normal 0 0 1
    outer loop
      vertex 14.6722 3.11868 1
      vertex 29.3444 6.23735 1
      vertex 27.4064 12.2021 1
    endloop
  endfacet
  facet normal 0 0 1
    outer loop
      vertex 30 0 1
      vertex 15 0 1
      vertex 29.3444 -6.23735 1
    endloop
  endfacet
  facet normal 0 0 1
    outer loop
      vertex 14.6722 3.11868 1
      vertex 27.4064 12.2021 1
      vertex 24.2705 17.6336 1
    endloop
  endfacet
  facet normal -0 0 1
    outer loop
      vertex 14.6722 -3.11868 1
      vertex 29.3444 -6.23735 1
      vertex 15 0 1
    endloop
  endfacet
  facet normal 0 0 1
    outer loop
      vertex 14.6722 3.11868 1
      vertex 24.2705 17.6336 1
      vertex 20.0739 22.2943 1
    endloop
  endfacet
  facet normal 0 0 1
    outer loop
      vertex 29.3444 -6.23735 1
      vertex 14.6722 -3.11868 1
      vertex 27.4064 -12.2021 1
    endloop
  endfacet
  facet normal 0 0 1
    outer loop
      vertex 10.037 11.1472 1
      vertex 20.0739 22.2943 1
      vertex 15 25.9808 1
    endloop
  endfacet
  facet normal -0 0 1
    outer loop
      vertex 13.7032 -6.10105 1
      vertex 27.4064 -12.2021 1
      vertex 14.6722 -3.11868 1
    endloop
  endfacet
  facet normal 0 0 1
    outer loop
      vertex 27.4064 -12.2021 1
      vertex 13.7032 -6.10105 1
      vertex 24.2705 -17.6336 1
    endloop
  endfacet
  facet normal -0 0 1
    outer loop
      vertex 12.1353 -8.81678 1
      vertex 24.2705 -17.6336 1
      vertex 13.7032 -6.10105 1
    endloop
  endfacet
  facet normal 0 0 1
    outer loop
      vertex 24.2705 -17.6336 1
      vertex 12.1353 -8.81678 1
      vertex 20.0739 -22.2943 1
    endloop
  endfacet
  facet normal -0 0 1
    outer loop
      vertex 10.037 -11.1472 1
      vertex 20.0739 -22.2943 1
      vertex 12.1353 -8.81678 1
    endloop
  endfacet
  facet normal 0 0 1
    outer loop
      vertex 20.0739 -22.2943 1
      vertex 10.037 -11.1472 1
      vertex 15 -25.9808 1
    endloop
  endfacet
  facet normal -0 0 1
    outer loop
      vertex 7.5 -12.9904 1
      vertex 15 -25.9808 1
      vertex 10.037 -11.1472 1
    endloop
  endfacet
  facet normal 0 0 1
    outer loop
      vertex 15 -25.9808 1
      vertex 7.5 -12.9904 1
      vertex 9.27051 -28.5317 1
    endloop
  endfacet
  facet normal -0 0 1
    outer loop
      vertex 4.63525 -14.2658 1
      vertex 9.27051 -28.5317 1
      vertex 7.5 -12.9904 1
    endloop
  endfacet
  facet normal 0 0 1
    outer loop
      vertex 4.63525 -14.2658 1
      vertex 3.13585 -29.8357 1
      vertex 9.27051 -28.5317 1
    endloop
  endfacet
  facet normal -0 0 1
    outer loop
      vertex 1.56793 -14.9178 1
      vertex 3.13585 -29.8357 1
      vertex 4.63525 -14.2658 1
    endloop
  endfacet
  facet normal -0 0 1
    outer loop
      vertex -1.56793 -14.9178 1
      vertex 3.13585 -29.8357 1
      vertex 1.56793 -14.9178 1
    endloop
  endfacet
  facet normal 0 0 1
    outer loop
      vertex -1.56793 -14.9178 1
      vertex -3.13585 -29.8357 1
      vertex 3.13585 -29.8357 1
    endloop
  endfacet
  facet normal 0 0 1
    outer loop
      vertex -4.63525 -14.2658 1
      vertex -3.13585 -29.8357 1
      vertex -1.56793 -14.9178 1
    endloop
  endfacet
  facet normal 0 0 1
    outer loop
      vertex -9.27051 -28.5317 1
      vertex -4.63525 -14.2658 1
      vertex -7.5 -12.9904 1
    endloop
  endfacet
  facet normal 0 0 1
    outer loop
      vertex -4.63525 -14.2658 1
      vertex -9.27051 -28.5317 1
      vertex -3.13585 -29.8357 1
    endloop
  endfacet
  facet normal 0 0 1
    outer loop
      vertex -15 -25.9808 1
      vertex -7.5 -12.9904 1
      vertex -10.037 -11.1472 1
    endloop
  endfacet
  facet normal 0 0 1
    outer loop
      vertex -15 -25.9808 1
      vertex -10.037 -11.1472 1
      vertex -12.1353 -8.81678 1
    endloop
  endfacet
  facet normal 0 0 1
    outer loop
      vertex -15 -25.9808 1
      vertex -12.1353 -8.81678 1
      vertex -13.7032 -6.10105 1
    endloop
  endfacet
  facet normal 0 0 1
    outer loop
      vertex -15 -25.9808 1
      vertex -13.7032 -6.10105 1
      vertex -14.6722 -3.11868 1
    endloop
  endfacet
  facet normal 0 0 1
    outer loop
      vertex -7.5 -12.9904 1
      vertex -15 -25.9808 1
      vertex -9.27051 -28.5317 1
    endloop
  endfacet
  facet normal 0 0 1
    outer loop
      vertex -15 -25.9808 1
      vertex -14.6722 -3.11868 1
      vertex -15 0 1
    endloop
  endfacet
  facet normal -0.207917 -0.978146 0
    outer loop
      vertex -9.27051 -28.5317 -1
      vertex -3.13585 -29.8357 1
      vertex -9.27051 -28.5317 1
    endloop
  endfacet
  facet normal -0.207917 -0.978146 -0
    outer loop
      vertex -3.13585 -29.8357 1
      vertex -9.27051 -28.5317 -1
      vertex -3.13585 -29.8357 -1
    endloop
  endfacet
  facet normal 0.207917 0.978146 -0
    outer loop
      vertex 9.27051 28.5317 -1
      vertex 3.13585 29.8357 1
      vertex 9.27051 28.5317 1
    endloop
  endfacet
  facet normal 0.207917 0.978146 0
    outer loop
      vertex 3.13585 29.8357 1
      vertex 9.27051 28.5317 -1
      vertex 3.13585 29.8357 -1
    endloop
  endfacet
  facet normal -0.994521 -0.104533 0
    outer loop
      vertex -29.3444 -6.23735 -1
      vertex -30 0 1
      vertex -30 0 -1
    endloop
  endfacet
  facet normal -0.994521 -0.104533 0
    outer loop
      vertex -30 0 1
      vertex -29.3444 -6.23735 -1
      vertex -29.3444 -6.23735 1
    endloop
  endfacet
  facet normal -0.866024 -0.500003 0
    outer loop
      vertex -24.2705 -17.6336 -1
      vertex -27.4064 -12.2021 1
      vertex -27.4064 -12.2021 -1
    endloop
  endfacet
  facet normal -0.866024 -0.500003 0
    outer loop
      vertex -27.4064 -12.2021 1
      vertex -24.2705 -17.6336 -1
      vertex -24.2705 -17.6336 1
    endloop
  endfacet
  facet normal -0.866024 0.500003 0
    outer loop
      vertex -27.4064 12.2021 -1
      vertex -24.2705 17.6336 1
      vertex -24.2705 17.6336 -1
    endloop
  endfacet
  facet normal -0.866024 0.500003 0
    outer loop
      vertex -24.2705 17.6336 1
      vertex -27.4064 12.2021 -1
      vertex -27.4064 12.2021 1
    endloop
  endfacet
  facet normal 0.866024 -0.500003 0
    outer loop
      vertex 24.2705 -17.6336 1
      vertex 27.4064 -12.2021 -1
      vertex 27.4064 -12.2021 1
    endloop
  endfacet
  facet normal 0.866024 -0.500003 0
    outer loop
      vertex 27.4064 -12.2021 -1
      vertex 24.2705 -17.6336 1
      vertex 24.2705 -17.6336 -1
    endloop
  endfacet
  facet normal 0.587795 0.80901 -0
    outer loop
      vertex 20.0739 22.2943 -1
      vertex 15 25.9808 1
      vertex 20.0739 22.2943 1
    endloop
  endfacet
  facet normal 0.587795 0.80901 0
    outer loop
      vertex 15 25.9808 1
      vertex 20.0739 22.2943 -1
      vertex 15 25.9808 -1
    endloop
  endfacet
  facet normal -0.587795 0.80901 0
    outer loop
      vertex -15 25.9808 -1
      vertex -20.0739 22.2943 1
      vertex -15 25.9808 1
    endloop
  endfacet
  facet normal -0.587795 0.80901 0
    outer loop
      vertex -20.0739 22.2943 1
      vertex -15 25.9808 -1
      vertex -20.0739 22.2943 -1
    endloop
  endfacet
  facet normal -0.207917 0.978146 0
    outer loop
      vertex -3.13585 29.8357 -1
      vertex -9.27051 28.5317 1
      vertex -3.13585 29.8357 1
    endloop
  endfacet
  facet normal -0.207917 0.978146 0
    outer loop
      vertex -9.27051 28.5317 1
      vertex -3.13585 29.8357 -1
      vertex -9.27051 28.5317 -1
    endloop
  endfacet
  facet normal 0 -1 0
    outer loop
      vertex -3.13585 -29.8357 -1
      vertex 3.13585 -29.8357 1
      vertex -3.13585 -29.8357 1
    endloop
  endfacet
  facet normal 0 -1 -0
    outer loop
      vertex 3.13585 -29.8357 1
      vertex -3.13585 -29.8357 -1
      vertex 3.13585 -29.8357 -1
    endloop
  endfacet
  facet normal -0.994521 0.104533 0
    outer loop
      vertex -30 0 -1
      vertex -29.3444 6.23735 1
      vertex -29.3444 6.23735 -1
    endloop
  endfacet
  facet normal -0.994521 0.104533 0
    outer loop
      vertex -29.3444 6.23735 1
      vertex -30 0 -1
      vertex -30 0 1
    endloop
  endfacet
  facet normal -0.951059 -0.309008 0
    outer loop
      vertex 14.6722 3.11868 -1
      vertex 13.7032 6.10105 1
      vertex 13.7032 6.10105 -1
    endloop
  endfacet
  facet normal -0.951059 -0.309008 0
    outer loop
      vertex 13.7032 6.10105 1
      vertex 14.6722 3.11868 -1
      vertex 14.6722 3.11868 1
    endloop
  endfacet
  facet normal -0.994521 -0.104533 0
    outer loop
      vertex 15 0 -1
      vertex 14.6722 3.11868 1
      vertex 14.6722 3.11868 -1
    endloop
  endfacet
  facet normal -0.994521 -0.104533 0
    outer loop
      vertex 14.6722 3.11868 1
      vertex 15 0 -1
      vertex 15 0 1
    endloop
  endfacet
  facet normal -0.866029 -0.499993 0
    outer loop
      vertex 13.7032 6.10105 -1
      vertex 12.1353 8.81678 1
      vertex 12.1353 8.81678 -1
    endloop
  endfacet
  facet normal -0.866029 -0.499993 0
    outer loop
      vertex 12.1353 8.81678 1
      vertex 13.7032 6.10105 -1
      vertex 13.7032 6.10105 1
    endloop
  endfacet
  facet normal -0.587777 -0.809023 0
    outer loop
      vertex 7.5 12.9904 -1
      vertex 10.037 11.1472 1
      vertex 7.5 12.9904 1
    endloop
  endfacet
  facet normal -0.587777 -0.809023 -0
    outer loop
      vertex 10.037 11.1472 1
      vertex 7.5 12.9904 -1
      vertex 10.037 11.1472 -1
    endloop
  endfacet
  facet normal -0.951059 0.309008 0
    outer loop
      vertex 13.7032 -6.10105 -1
      vertex 14.6722 -3.11868 1
      vertex 14.6722 -3.11868 -1
    endloop
  endfacet
  facet normal -0.951059 0.309008 0
    outer loop
      vertex 14.6722 -3.11868 1
      vertex 13.7032 -6.10105 -1
      vertex 13.7032 -6.10105 1
    endloop
  endfacet
  facet normal -0.994521 0.104533 0
    outer loop
      vertex 14.6722 -3.11868 -1
      vertex 15 0 1
      vertex 15 0 -1
    endloop
  endfacet
  facet normal -0.994521 0.104533 0
    outer loop
      vertex 15 0 1
      vertex 14.6722 -3.11868 -1
      vertex 14.6722 -3.11868 1
    endloop
  endfacet
  facet normal -0.743148 -0.669127 0
    outer loop
      vertex 12.1353 8.81678 -1
      vertex 10.037 11.1472 1
      vertex 10.037 11.1472 -1
    endloop
  endfacet
  facet normal -0.743148 -0.669127 0
    outer loop
      vertex 10.037 11.1472 1
      vertex 12.1353 8.81678 -1
      vertex 12.1353 8.81678 1
    endloop
  endfacet
  facet normal 0.951059 0.309008 0
    outer loop
      vertex -13.7032 -6.10105 1
      vertex -14.6722 -3.11868 -1
      vertex -14.6722 -3.11868 1
    endloop
  endfacet
  facet normal 0.951059 0.309008 0
    outer loop
      vertex -14.6722 -3.11868 -1
      vertex -13.7032 -6.10105 1
      vertex -13.7032 -6.10105 -1
    endloop
  endfacet
  facet normal 0.951059 -0.309008 0
    outer loop
      vertex -14.6722 3.11868 1
      vertex -13.7032 6.10105 -1
      vertex -13.7032 6.10105 1
    endloop
  endfacet
  facet normal 0.951059 -0.309008 0
    outer loop
      vertex -13.7032 6.10105 -1
      vertex -14.6722 3.11868 1
      vertex -14.6722 3.11868 -1
    endloop
  endfacet
  facet normal -0.587777 0.809023 0
    outer loop
      vertex 10.037 -11.1472 -1
      vertex 7.5 -12.9904 1
      vertex 10.037 -11.1472 1
    endloop
  endfacet
  facet normal -0.587777 0.809023 0
    outer loop
      vertex 7.5 -12.9904 1
      vertex 10.037 -11.1472 -1
      vertex 7.5 -12.9904 -1
    endloop
  endfacet
  facet normal 0.587777 -0.809023 0
    outer loop
      vertex -10.037 11.1472 -1
      vertex -7.5 12.9904 1
      vertex -10.037 11.1472 1
    endloop
  endfacet
  facet normal 0.587777 -0.809023 0
    outer loop
      vertex -7.5 12.9904 1
      vertex -10.037 11.1472 -1
      vertex -7.5 12.9904 -1
    endloop
  endfacet
  facet normal 0.866029 -0.499993 0
    outer loop
      vertex -13.7032 6.10105 1
      vertex -12.1353 8.81678 -1
      vertex -12.1353 8.81678 1
    endloop
  endfacet
  facet normal 0.866029 -0.499993 0
    outer loop
      vertex -12.1353 8.81678 -1
      vertex -13.7032 6.10105 1
      vertex -13.7032 6.10105 -1
    endloop
  endfacet
  facet normal -0.866029 0.499993 0
    outer loop
      vertex 12.1353 -8.81678 -1
      vertex 13.7032 -6.10105 1
      vertex 13.7032 -6.10105 -1
    endloop
  endfacet
  facet normal -0.866029 0.499993 0
    outer loop
      vertex 13.7032 -6.10105 1
      vertex 12.1353 -8.81678 -1
      vertex 12.1353 -8.81678 1
    endloop
  endfacet
  facet normal 0 -1 0
    outer loop
      vertex -1.56793 14.9178 -1
      vertex 1.56793 14.9178 1
      vertex -1.56793 14.9178 1
    endloop
  endfacet
  facet normal 0 -1 -0
    outer loop
      vertex 1.56793 14.9178 1
      vertex -1.56793 14.9178 -1
      vertex 1.56793 14.9178 -1
    endloop
  endfacet
  facet normal 0.406718 -0.913554 0
    outer loop
      vertex -7.5 12.9904 -1
      vertex -4.63525 14.2658 1
      vertex -7.5 12.9904 1
    endloop
  endfacet
  facet normal 0.406718 -0.913554 0
    outer loop
      vertex -4.63525 14.2658 1
      vertex -7.5 12.9904 -1
      vertex -4.63525 14.2658 -1
    endloop
  endfacet
  facet normal 0.207918 0.978146 -0
    outer loop
      vertex -1.56793 -14.9178 -1
      vertex -4.63525 -14.2658 1
      vertex -1.56793 -14.9178 1
    endloop
  endfacet
  facet normal 0.207918 0.978146 0
    outer loop
      vertex -4.63525 -14.2658 1
      vertex -1.56793 -14.9178 -1
      vertex -4.63525 -14.2658 -1
    endloop
  endfacet
  facet normal 0 1 -0
    outer loop
      vertex 1.56793 -14.9178 -1
      vertex -1.56793 -14.9178 1
      vertex 1.56793 -14.9178 1
    endloop
  endfacet
  facet normal 0 1 0
    outer loop
      vertex -1.56793 -14.9178 1
      vertex 1.56793 -14.9178 -1
      vertex -1.56793 -14.9178 -1
    endloop
  endfacet
  facet normal 0.406718 0.913554 -0
    outer loop
      vertex -4.63525 -14.2658 -1
      vertex -7.5 -12.9904 1
      vertex -4.63525 -14.2658 1
    endloop
  endfacet
  facet normal 0.406718 0.913554 0
    outer loop
      vertex -7.5 -12.9904 1
      vertex -4.63525 -14.2658 -1
      vertex -7.5 -12.9904 -1
    endloop
  endfacet
  facet normal 0.207918 -0.978146 0
    outer loop
      vertex -4.63525 14.2658 -1
      vertex -1.56793 14.9178 1
      vertex -4.63525 14.2658 1
    endloop
  endfacet
  facet normal 0.207918 -0.978146 0
    outer loop
      vertex -1.56793 14.9178 1
      vertex -4.63525 14.2658 -1
      vertex -1.56793 14.9178 -1
    endloop
  endfacet
  facet normal -0.207918 0.978146 0
    outer loop
      vertex 4.63525 -14.2658 -1
      vertex 1.56793 -14.9178 1
      vertex 4.63525 -14.2658 1
    endloop
  endfacet
  facet normal -0.207918 0.978146 0
    outer loop
      vertex 1.56793 -14.9178 1
      vertex 4.63525 -14.2658 -1
      vertex 1.56793 -14.9178 -1
    endloop
  endfacet
  facet normal -0.743148 0.669127 0
    outer loop
      vertex 10.037 -11.1472 -1
      vertex 12.1353 -8.81678 1
      vertex 12.1353 -8.81678 -1
    endloop
  endfacet
  facet normal -0.743148 0.669127 0
    outer loop
      vertex 12.1353 -8.81678 1
      vertex 10.037 -11.1472 -1
      vertex 10.037 -11.1472 1
    endloop
  endfacet
  facet normal -0.406718 0.913554 0
    outer loop
      vertex 7.5 -12.9904 -1
      vertex 4.63525 -14.2658 1
      vertex 7.5 -12.9904 1
    endloop
  endfacet
  facet normal -0.406718 0.913554 0
    outer loop
      vertex 4.63525 -14.2658 1
      vertex 7.5 -12.9904 -1
      vertex 4.63525 -14.2658 -1
    endloop
  endfacet
  facet normal 0.587777 0.809023 -0
    outer loop
      vertex -7.5 -12.9904 -1
      vertex -10.037 -11.1472 1
      vertex -7.5 -12.9904 1
    endloop
  endfacet
  facet normal 0.587777 0.809023 0
    outer loop
      vertex -10.037 -11.1472 1
      vertex -7.5 -12.9904 -1
      vertex -10.037 -11.1472 -1
    endloop
  endfacet
  facet normal 0.994521 -0.104533 0
    outer loop
      vertex -15 0 1
      vertex -14.6722 3.11868 -1
      vertex -14.6722 3.11868 1
    endloop
  endfacet
  facet normal 0.994521 -0.104533 0
    outer loop
      vertex -14.6722 3.11868 -1
      vertex -15 0 1
      vertex -15 0 -1
    endloop
  endfacet
  facet normal -0.207918 -0.978146 0
    outer loop
      vertex 1.56793 14.9178 -1
      vertex 4.63525 14.2658 1
      vertex 1.56793 14.9178 1
    endloop
  endfacet
  facet normal -0.207918 -0.978146 -0
    outer loop
      vertex 4.63525 14.2658 1
      vertex 1.56793 14.9178 -1
      vertex 4.63525 14.2658 -1
    endloop
  endfacet
  facet normal 0.866029 0.499993 0
    outer loop
      vertex -12.1353 -8.81678 1
      vertex -13.7032 -6.10105 -1
      vertex -13.7032 -6.10105 1
    endloop
  endfacet
  facet normal 0.866029 0.499993 0
    outer loop
      vertex -13.7032 -6.10105 -1
      vertex -12.1353 -8.81678 1
      vertex -12.1353 -8.81678 -1
    endloop
  endfacet
  facet normal -0.406718 -0.913554 0
    outer loop
      vertex 4.63525 14.2658 -1
      vertex 7.5 12.9904 1
      vertex 4.63525 14.2658 1
    endloop
  endfacet
  facet normal -0.406718 -0.913554 -0
    outer loop
      vertex 7.5 12.9904 1
      vertex 4.63525 14.2658 -1
      vertex 7.5 12.9904 -1
    endloop
  endfacet
  facet normal 0.994521 0.104533 0
    outer loop
      vertex -14.6722 -3.11868 1
      vertex -15 0 -1
      vertex -15 0 1
    endloop
  endfacet
  facet normal 0.994521 0.104533 0
    outer loop
      vertex -15 0 -1
      vertex -14.6722 -3.11868 1
      vertex -14.6722 -3.11868 -1
    endloop
  endfacet
  facet normal 0.743148 0.669127 0
    outer loop
      vertex -10.037 -11.1472 1
      vertex -12.1353 -8.81678 -1
      vertex -12.1353 -8.81678 1
    endloop
  endfacet
  facet normal 0.743148 0.669127 0
    outer loop
      vertex -12.1353 -8.81678 -1
      vertex -10.037 -11.1472 1
      vertex -10.037 -11.1472 -1
    endloop
  endfacet
  facet normal 0.743148 -0.669127 0
    outer loop
      vertex -12.1353 8.81678 1
      vertex -10.037 11.1472 -1
      vertex -10.037 11.1472 1
    endloop
  endfacet
  facet normal 0.743148 -0.669127 0
    outer loop
      vertex -10.037 11.1472 -1
      vertex -12.1353 8.81678 1
      vertex -12.1353 8.81678 -1
    endloop
  endfacet
endsolid OpenSCAD_Model
