solid OpenSCAD_Model
  facet normal -0 0 1
    outer loop
      vertex -80 10 5
      vertex 110 -10 5
      vertex 110 10 5
    endloop
  endfacet
  facet normal 0 0 1
    outer loop
      vertex 110 -10 5
      vertex -80 10 5
      vertex -80 -10 5
    endloop
  endfacet
  facet normal 0 0 -1
    outer loop
      vertex -80 -10 -5
      vertex 110 10 -5
      vertex 110 -10 -5
    endloop
  endfacet
  facet normal -0 0 -1
    outer loop
      vertex 110 10 -5
      vertex -80 -10 -5
      vertex -80 10 -5
    endloop
  endfacet
  facet normal -1 0 0
    outer loop
      vertex -80 -10 -5
      vertex -80 10 5
      vertex -80 10 -5
    endloop
  endfacet
  facet normal -1 -0 0
    outer loop
      vertex -80 10 5
      vertex -80 -10 -5
      vertex -80 -10 5
    endloop
  endfacet
  facet normal 0 1 -0
    outer loop
      vertex 110 10 -5
      vertex -80 10 5
      vertex 110 10 5
    endloop
  endfacet
  facet normal 0 1 0
    outer loop
      vertex -80 10 5
      vertex 110 10 -5
      vertex -80 10 -5
    endloop
  endfacet
  facet normal 0 -1 0
    outer loop
      vertex -80 -10 -5
      vertex 110 -10 5
      vertex -80 -10 5
    endloop
  endfacet
  facet normal 0 -1 -0
    outer loop
      vertex 110 -10 5
      vertex -80 -10 -5
      vertex 110 -10 -5
    endloop
  endfacet
  facet normal 1 -0 0
    outer loop
      vertex 110 -10 5
      vertex 110 10 -5
      vertex 110 10 5
    endloop
  endfacet
  facet normal 1 0 0
    outer loop
      vertex 110 10 -5
      vertex 110 -10 5
      vertex 110 -10 -5
    endloop
  endfacet
endsolid OpenSCAD_Model
