solid OpenSCAD_Model
  facet normal 1 -0 0
    outer loop
      vertex 60 0 45
      vertex 60 20 0
      vertex 60 20 45
    endloop
  endfacet
  facet normal 1 0 0
    outer loop
      vertex 60 20 0
      vertex 60 0 45
      vertex 60 0 0
    endloop
  endfacet
  facet normal -0 0 1
    outer loop
      vertex 5 20 5
      vertex 55 0 5
      vertex 55 20 5
    endloop
  endfacet
  facet normal 0 0 1
    outer loop
      vertex 55 0 5
      vertex 5 20 5
      vertex 5 0 5
    endloop
  endfacet
  facet normal 0 0 -1
    outer loop
      vertex 0 0 0
      vertex 60 20 0
      vertex 60 0 0
    endloop
  endfacet
  facet normal -0 0 -1
    outer loop
      vertex 60 20 0
      vertex 0 0 0
      vertex 0 20 0
    endloop
  endfacet
  facet normal -1 0 0
    outer loop
      vertex 0 0 0
      vertex 0 20 45
      vertex 0 20 0
    endloop
  endfacet
  facet normal -1 -0 0
    outer loop
      vertex 0 20 45
      vertex 0 0 0
      vertex 0 0 45
    endloop
  endfacet
  facet normal 0 1 0
    outer loop
      vertex 60 20 45
      vertex 55 20 5
      vertex 55 20 45
    endloop
  endfacet
  facet normal 0 1 0
    outer loop
      vertex 55 20 5
      vertex 60 20 0
      vertex 5 20 5
    endloop
  endfacet
  facet normal 0 1 -0
    outer loop
      vertex 60 20 0
      vertex 55 20 5
      vertex 60 20 45
    endloop
  endfacet
  facet normal 0 1 -0
    outer loop
      vertex 5 20 5
      vertex 0 20 45
      vertex 5 20 45
    endloop
  endfacet
  facet normal 0 1 0
    outer loop
      vertex 5 20 5
      vertex 0 20 0
      vertex 0 20 45
    endloop
  endfacet
  facet normal 0 1 0
    outer loop
      vertex 0 20 0
      vertex 5 20 5
      vertex 60 20 0
    endloop
  endfacet
  facet normal 0 -1 0
    outer loop
      vertex 0 0 45
      vertex 5 0 5
      vertex 5 0 45
    endloop
  endfacet
  facet normal 0 -1 -0
    outer loop
      vertex 5 0 5
      vertex 0 0 0
      vertex 55 0 5
    endloop
  endfacet
  facet normal 0 -1 0
    outer loop
      vertex 0 0 0
      vertex 5 0 5
      vertex 0 0 45
    endloop
  endfacet
  facet normal 0 -1 0
    outer loop
      vertex 55 0 5
      vertex 60 0 45
      vertex 55 0 45
    endloop
  endfacet
  facet normal 0 -1 0
    outer loop
      vertex 55 0 5
      vertex 60 0 0
      vertex 60 0 45
    endloop
  endfacet
  facet normal 0 -1 0
    outer loop
      vertex 60 0 0
      vertex 55 0 5
      vertex 0 0 0
    endloop
  endfacet
  facet normal 1 -0 0
    outer loop
      vertex 5 0 45
      vertex 5 20 5
      vertex 5 20 45
    endloop
  endfacet
  facet normal 1 0 0
    outer loop
      vertex 5 20 5
      vertex 5 0 45
      vertex 5 0 5
    endloop
  endfacet
  facet normal -0 0 1
    outer loop
      vertex 0 20 45
      vertex 5 0 45
      vertex 5 20 45
    endloop
  endfacet
  facet normal 0 0 1
    outer loop
      vertex 5 0 45
      vertex 0 20 45
      vertex 0 0 45
    endloop
  endfacet
  facet normal -0 0 1
    outer loop
      vertex 55 20 45
      vertex 60 0 45
      vertex 60 20 45
    endloop
  endfacet
  facet normal 0 0 1
    outer loop
      vertex 60 0 45
      vertex 55 20 45
      vertex 55 0 45
    endloop
  endfacet
  facet normal -1 0 0
    outer loop
      vertex 55 0 5
      vertex 55 20 45
      vertex 55 20 5
    endloop
  endfacet
  facet normal -1 -0 0
    outer loop
      vertex 55 20 45
      vertex 55 0 5
      vertex 55 0 45
    endloop
  endfacet
endsolid OpenSCAD_Model
