solid OpenSCAD_Model
  facet normal 1 -0 0
    outer loop
      vertex 10 -5 2.5
      vertex 10 5 -2.5
      vertex 10 5 2.5
    endloop
  endfacet
  facet normal 1 0 0
    outer loop
      vertex 10 5 -2.5
      vertex 10 -5 2.5
      vertex 10 -5 -2.5
    endloop
  endfacet
  facet normal 0 0 1
    outer loop
      vertex -2.07107 5 2.5
      vertex -6 4 2.5
      vertex -3.07107 4 2.5
    endloop
  endfacet
  facet normal 0 0 1
    outer loop
      vertex -10 5 2.5
      vertex -6 1.07107 2.5
      vertex -6 4 2.5
    endloop
  endfacet
  facet normal 0 0 1
    outer loop
      vertex -6 1.07107 2.5
      vertex -10 5 2.5
      vertex -7.07107 0 2.5
    endloop
  endfacet
  facet normal -0 0 1
    outer loop
      vertex -10 5 2.5
      vertex -6 4 2.5
      vertex -2.07107 5 2.5
    endloop
  endfacet
  facet normal 0 0 1
    outer loop
      vertex -10 -5 2.5
      vertex -6 -1.07107 2.5
      vertex -7.07107 0 2.5
    endloop
  endfacet
  facet normal -0 0 1
    outer loop
      vertex -6 -4 2.5
      vertex -2.07107 -5 2.5
      vertex -3.07107 -4 2.5
    endloop
  endfacet
  facet normal 0 0 1
    outer loop
      vertex -10 -5 2.5
      vertex -7.07107 0 2.5
      vertex -10 5 2.5
    endloop
  endfacet
  facet normal 0 0 1
    outer loop
      vertex -6 -4 2.5
      vertex -10 -5 2.5
      vertex -2.07107 -5 2.5
    endloop
  endfacet
  facet normal 0 0 1
    outer loop
      vertex -6 -1.07107 2.5
      vertex -10 -5 2.5
      vertex -6 -4 2.5
    endloop
  endfacet
  facet normal 0 0 1
    outer loop
      vertex 10 5 2.5
      vertex 7.07107 0 2.5
      vertex 10 -5 2.5
    endloop
  endfacet
  facet normal 0 0 1
    outer loop
      vertex 6 1.07107 2.5
      vertex 10 5 2.5
      vertex 6 4 2.5
    endloop
  endfacet
  facet normal -0 0 1
    outer loop
      vertex 2.07107 5 2.5
      vertex 6 4 2.5
      vertex 10 5 2.5
    endloop
  endfacet
  facet normal 0 0 1
    outer loop
      vertex 6 4 2.5
      vertex 2.07107 5 2.5
      vertex 3.07107 4 2.5
    endloop
  endfacet
  facet normal -0 0 1
    outer loop
      vertex 6 -1.07107 2.5
      vertex 10 -5 2.5
      vertex 7.07107 0 2.5
    endloop
  endfacet
  facet normal -0 0 1
    outer loop
      vertex 6 -4 2.5
      vertex 10 -5 2.5
      vertex 6 -1.07107 2.5
    endloop
  endfacet
  facet normal 0 0 1
    outer loop
      vertex 2.07107 -5 2.5
      vertex 6 -4 2.5
      vertex 3.07107 -4 2.5
    endloop
  endfacet
  facet normal 0 0 1
    outer loop
      vertex 6 -4 2.5
      vertex 2.07107 -5 2.5
      vertex 10 -5 2.5
    endloop
  endfacet
  facet normal 0 0 1
    outer loop
      vertex 10 5 2.5
      vertex 6 1.07107 2.5
      vertex 7.07107 0 2.5
    endloop
  endfacet
  facet normal 0 0 -1
    outer loop
      vertex -10 -5 -2.5
      vertex 10 5 -2.5
      vertex 10 -5 -2.5
    endloop
  endfacet
  facet normal -0 0 -1
    outer loop
      vertex 10 5 -2.5
      vertex -10 -5 -2.5
      vertex -10 5 -2.5
    endloop
  endfacet
  facet normal -1 0 0
    outer loop
      vertex -10 -5 -2.5
      vertex -10 5 2.5
      vertex -10 5 -2.5
    endloop
  endfacet
  facet normal -1 -0 0
    outer loop
      vertex -10 5 2.5
      vertex -10 -5 -2.5
      vertex -10 -5 2.5
    endloop
  endfacet
  facet normal 0 1 0
    outer loop
      vertex 10 5 2.5
      vertex 2.07107 5 0
      vertex 2.07107 5 2.5
    endloop
  endfacet
  facet normal 0 1 0
    outer loop
      vertex 2.07107 5 0
      vertex 10 5 -2.5
      vertex -2.07107 5 0
    endloop
  endfacet
  facet normal 0 1 -0
    outer loop
      vertex 10 5 -2.5
      vertex 2.07107 5 0
      vertex 10 5 2.5
    endloop
  endfacet
  facet normal 0 1 -0
    outer loop
      vertex -2.07107 5 0
      vertex -10 5 2.5
      vertex -2.07107 5 2.5
    endloop
  endfacet
  facet normal 0 1 0
    outer loop
      vertex -2.07107 5 0
      vertex -10 5 -2.5
      vertex -10 5 2.5
    endloop
  endfacet
  facet normal 0 1 0
    outer loop
      vertex -10 5 -2.5
      vertex -2.07107 5 0
      vertex 10 5 -2.5
    endloop
  endfacet
  facet normal 0 -1 0
    outer loop
      vertex -10 -5 2.5
      vertex -2.07107 -5 0
      vertex -2.07107 -5 2.5
    endloop
  endfacet
  facet normal 0 -1 -0
    outer loop
      vertex -2.07107 -5 0
      vertex -10 -5 -2.5
      vertex 2.07107 -5 0
    endloop
  endfacet
  facet normal 0 -1 0
    outer loop
      vertex -10 -5 -2.5
      vertex -2.07107 -5 0
      vertex -10 -5 2.5
    endloop
  endfacet
  facet normal 0 -1 0
    outer loop
      vertex 2.07107 -5 0
      vertex 10 -5 2.5
      vertex 2.07107 -5 2.5
    endloop
  endfacet
  facet normal 0 -1 0
    outer loop
      vertex 2.07107 -5 0
      vertex 10 -5 -2.5
      vertex 10 -5 2.5
    endloop
  endfacet
  facet normal 0 -1 0
    outer loop
      vertex 10 -5 -2.5
      vertex 2.07107 -5 0
      vertex -10 -5 -2.5
    endloop
  endfacet
  facet normal -1 0 0
    outer loop
      vertex 6 1.07107 0
      vertex 6 4 2.5
      vertex 6 4 0
    endloop
  endfacet
  facet normal -1 -0 0
    outer loop
      vertex 6 4 2.5
      vertex 6 1.07107 0
      vertex 6 1.07107 2.5
    endloop
  endfacet
  facet normal -1 0 0
    outer loop
      vertex 6 -4 0
      vertex 6 -1.07107 2.5
      vertex 6 -1.07107 0
    endloop
  endfacet
  facet normal -1 -0 0
    outer loop
      vertex 6 -1.07107 2.5
      vertex 6 -4 0
      vertex 6 -4 2.5
    endloop
  endfacet
  facet normal 0 0 1
    outer loop
      vertex -6 1.07107 0
      vertex -7.07107 0 0
      vertex -6 -1.07107 0
    endloop
  endfacet
  facet normal -0 0 1
    outer loop
      vertex 3.07107 4 0
      vertex 6 1.07107 0
      vertex 6 4 0
    endloop
  endfacet
  facet normal 0 0 1
    outer loop
      vertex 6 1.07107 0
      vertex 3.07107 4 0
      vertex 6 -1.07107 0
    endloop
  endfacet
  facet normal 0 0 1
    outer loop
      vertex 3.07107 -4 0
      vertex 6 -1.07107 0
      vertex 3.07107 4 0
    endloop
  endfacet
  facet normal 0 0 1
    outer loop
      vertex 6 -1.07107 0
      vertex 3.07107 -4 0
      vertex 6 -4 0
    endloop
  endfacet
  facet normal 0 0 1
    outer loop
      vertex -3.07107 4 0
      vertex 3.07107 4 0
      vertex 2.07107 5 0
    endloop
  endfacet
  facet normal 0 0 1
    outer loop
      vertex 3.07107 4 0
      vertex -3.07107 4 0
      vertex 3.07107 -4 0
    endloop
  endfacet
  facet normal 0 0 1
    outer loop
      vertex -3.07107 4 0
      vertex 2.07107 5 0
      vertex -2.07107 5 0
    endloop
  endfacet
  facet normal 0 0 1
    outer loop
      vertex -3.07107 -4 0
      vertex 3.07107 -4 0
      vertex -3.07107 4 0
    endloop
  endfacet
  facet normal 0 0 1
    outer loop
      vertex 3.07107 -4 0
      vertex -3.07107 -4 0
      vertex 2.07107 -5 0
    endloop
  endfacet
  facet normal 0 0 1
    outer loop
      vertex 2.07107 -5 0
      vertex -3.07107 -4 0
      vertex -2.07107 -5 0
    endloop
  endfacet
  facet normal 0 0 1
    outer loop
      vertex -6 1.07107 0
      vertex -3.07107 4 0
      vertex -6 4 0
    endloop
  endfacet
  facet normal 0 0 1
    outer loop
      vertex -3.07107 4 0
      vertex -6 1.07107 0
      vertex -3.07107 -4 0
    endloop
  endfacet
  facet normal -0 0 1
    outer loop
      vertex -6 -1.07107 0
      vertex -3.07107 -4 0
      vertex -6 1.07107 0
    endloop
  endfacet
  facet normal 0 0 1
    outer loop
      vertex -3.07107 -4 0
      vertex -6 -1.07107 0
      vertex -6 -4 0
    endloop
  endfacet
  facet normal 0 0 1
    outer loop
      vertex 7.07107 0 0
      vertex 6 1.07107 0
      vertex 6 -1.07107 0
    endloop
  endfacet
  facet normal 1 -0 0
    outer loop
      vertex -6 -4 2.5
      vertex -6 -1.07107 0
      vertex -6 -1.07107 2.5
    endloop
  endfacet
  facet normal 1 0 0
    outer loop
      vertex -6 -1.07107 0
      vertex -6 -4 2.5
      vertex -6 -4 0
    endloop
  endfacet
  facet normal 1 -0 0
    outer loop
      vertex -6 1.07107 2.5
      vertex -6 4 0
      vertex -6 4 2.5
    endloop
  endfacet
  facet normal 1 0 0
    outer loop
      vertex -6 4 0
      vertex -6 1.07107 2.5
      vertex -6 1.07107 0
    endloop
  endfacet
  facet normal 0 -1 0
    outer loop
      vertex 3.07107 4 0
      vertex 6 4 2.5
      vertex 3.07107 4 2.5
    endloop
  endfacet
  facet normal 0 -1 -0
    outer loop
      vertex 6 4 2.5
      vertex 3.07107 4 0
      vertex 6 4 0
    endloop
  endfacet
  facet normal 0 -1 0
    outer loop
      vertex -6 4 0
      vertex -3.07107 4 2.5
      vertex -6 4 2.5
    endloop
  endfacet
  facet normal 0 -1 -0
    outer loop
      vertex -3.07107 4 2.5
      vertex -6 4 0
      vertex -3.07107 4 0
    endloop
  endfacet
  facet normal 0 1 -0
    outer loop
      vertex 6 -4 0
      vertex 3.07107 -4 2.5
      vertex 6 -4 2.5
    endloop
  endfacet
  facet normal 0 1 0
    outer loop
      vertex 3.07107 -4 2.5
      vertex 6 -4 0
      vertex 3.07107 -4 0
    endloop
  endfacet
  facet normal 0 1 -0
    outer loop
      vertex -3.07107 -4 0
      vertex -6 -4 2.5
      vertex -3.07107 -4 2.5
    endloop
  endfacet
  facet normal 0 1 0
    outer loop
      vertex -6 -4 2.5
      vertex -3.07107 -4 0
      vertex -6 -4 0
    endloop
  endfacet
  facet normal -0.707107 -0.707107 0
    outer loop
      vertex 7.07107 0 0
      vertex 6 1.07107 2.5
      vertex 6 1.07107 0
    endloop
  endfacet
  facet normal -0.707107 -0.707107 0
    outer loop
      vertex 6 1.07107 2.5
      vertex 7.07107 0 0
      vertex 7.07107 0 2.5
    endloop
  endfacet
  facet normal -0.707107 -0.707107 0
    outer loop
      vertex 3.07107 4 0
      vertex 2.07107 5 2.5
      vertex 2.07107 5 0
    endloop
  endfacet
  facet normal -0.707107 -0.707107 0
    outer loop
      vertex 2.07107 5 2.5
      vertex 3.07107 4 0
      vertex 3.07107 4 2.5
    endloop
  endfacet
  facet normal 0.707107 0.707107 0
    outer loop
      vertex -6 -1.07107 2.5
      vertex -7.07107 0 0
      vertex -7.07107 0 2.5
    endloop
  endfacet
  facet normal 0.707107 0.707107 0
    outer loop
      vertex -7.07107 0 0
      vertex -6 -1.07107 2.5
      vertex -6 -1.07107 0
    endloop
  endfacet
  facet normal 0.707107 0.707107 0
    outer loop
      vertex -2.07107 -5 2.5
      vertex -3.07107 -4 0
      vertex -3.07107 -4 2.5
    endloop
  endfacet
  facet normal 0.707107 0.707107 0
    outer loop
      vertex -3.07107 -4 0
      vertex -2.07107 -5 2.5
      vertex -2.07107 -5 0
    endloop
  endfacet
  facet normal 0.707107 -0.707107 0
    outer loop
      vertex -7.07107 0 2.5
      vertex -6 1.07107 0
      vertex -6 1.07107 2.5
    endloop
  endfacet
  facet normal 0.707107 -0.707107 0
    outer loop
      vertex -6 1.07107 0
      vertex -7.07107 0 2.5
      vertex -7.07107 0 0
    endloop
  endfacet
  facet normal 0.707107 -0.707107 0
    outer loop
      vertex -3.07107 4 2.5
      vertex -2.07107 5 0
      vertex -2.07107 5 2.5
    endloop
  endfacet
  facet normal 0.707107 -0.707107 0
    outer loop
      vertex -2.07107 5 0
      vertex -3.07107 4 2.5
      vertex -3.07107 4 0
    endloop
  endfacet
  facet normal -0.707107 0.707107 0
    outer loop
      vertex 6 -1.07107 0
      vertex 7.07107 0 2.5
      vertex 7.07107 0 0
    endloop
  endfacet
  facet normal -0.707107 0.707107 0
    outer loop
      vertex 7.07107 0 2.5
      vertex 6 -1.07107 0
      vertex 6 -1.07107 2.5
    endloop
  endfacet
  facet normal -0.707107 0.707107 0
    outer loop
      vertex 2.07107 -5 0
      vertex 3.07107 -4 2.5
      vertex 3.07107 -4 0
    endloop
  endfacet
  facet normal -0.707107 0.707107 0
    outer loop
      vertex 3.07107 -4 2.5
      vertex 2.07107 -5 0
      vertex 2.07107 -5 2.5
    endloop
  endfacet
endsolid OpenSCAD_Model
