solid OpenSCAD_Model
  facet normal 1 -0 0
    outer loop
      vertex 60 0 15
      vertex 60 30 0
      vertex 60 30 15
    endloop
  endfacet
  facet normal 1 0 0
    outer loop
      vertex 60 30 0
      vertex 60 0 15
      vertex 60 0 0
    endloop
  endfacet
  facet normal -0 0 1
    outer loop
      vertex 0 30 10
      vertex 50 0 10
      vertex 50 30 10
    endloop
  endfacet
  facet normal 0 0 1
    outer loop
      vertex 50 0 10
      vertex 0 30 10
      vertex 0 0 10
    endloop
  endfacet
  facet normal 0 0 -1
    outer loop
      vertex 60 0 0
      vertex 50 10 0
      vertex 60 30 0
    endloop
  endfacet
  facet normal 0 0 -1
    outer loop
      vertex 60 0 0
      vertex 10 10 0
      vertex 50 10 0
    endloop
  endfacet
  facet normal -0 0 -1
    outer loop
      vertex 10 10 0
      vertex 0 0 0
      vertex 10 20 0
    endloop
  endfacet
  facet normal 0 0 -1
    outer loop
      vertex 0 0 0
      vertex 10 10 0
      vertex 60 0 0
    endloop
  endfacet
  facet normal 0 0 -1
    outer loop
      vertex 50 20 0
      vertex 60 30 0
      vertex 50 10 0
    endloop
  endfacet
  facet normal 0 0 -1
    outer loop
      vertex 10 20 0
      vertex 60 30 0
      vertex 50 20 0
    endloop
  endfacet
  facet normal 0 0 -1
    outer loop
      vertex 10 20 0
      vertex 0 30 0
      vertex 60 30 0
    endloop
  endfacet
  facet normal 0 0 -1
    outer loop
      vertex 0 30 0
      vertex 10 20 0
      vertex 0 0 0
    endloop
  endfacet
  facet normal -1 0 0
    outer loop
      vertex 0 0 0
      vertex 0 30 10
      vertex 0 30 0
    endloop
  endfacet
  facet normal -1 -0 0
    outer loop
      vertex 0 30 10
      vertex 0 0 0
      vertex 0 0 10
    endloop
  endfacet
  facet normal 0 1 0
    outer loop
      vertex 63 30 45
      vertex 58 30 25
      vertex 58 30 45
    endloop
  endfacet
  facet normal 0 1 -0
    outer loop
      vertex 63 30 15
      vertex 58 30 25
      vertex 63 30 45
    endloop
  endfacet
  facet normal 0 1 -0
    outer loop
      vertex 60 30 15
      vertex 58 30 25
      vertex 63 30 15
    endloop
  endfacet
  facet normal 0 1 0
    outer loop
      vertex 58 30 25
      vertex 60 30 15
      vertex 50 30 25
    endloop
  endfacet
  facet normal 0 1 0
    outer loop
      vertex 60 30 15
      vertex 50 30 10
      vertex 50 30 25
    endloop
  endfacet
  facet normal 0 1 -0
    outer loop
      vertex 60 30 0
      vertex 50 30 10
      vertex 60 30 15
    endloop
  endfacet
  facet normal 0 1 0
    outer loop
      vertex 0 30 0
      vertex 50 30 10
      vertex 60 30 0
    endloop
  endfacet
  facet normal 0 1 0
    outer loop
      vertex 50 30 10
      vertex 0 30 0
      vertex 0 30 10
    endloop
  endfacet
  facet normal 0 -1 0
    outer loop
      vertex 0 0 10
      vertex 0 0 0
      vertex 50 0 10
    endloop
  endfacet
  facet normal 0 -1 0
    outer loop
      vertex 50 0 25
      vertex 60 0 15
      vertex 58 0 25
    endloop
  endfacet
  facet normal 0 -1 0
    outer loop
      vertex 50 0 10
      vertex 60 0 15
      vertex 50 0 25
    endloop
  endfacet
  facet normal 0 -1 0
    outer loop
      vertex 50 0 10
      vertex 60 0 0
      vertex 60 0 15
    endloop
  endfacet
  facet normal 0 -1 0
    outer loop
      vertex 60 0 0
      vertex 50 0 10
      vertex 0 0 0
    endloop
  endfacet
  facet normal 0 -1 0
    outer loop
      vertex 58 0 25
      vertex 63 0 45
      vertex 58 0 45
    endloop
  endfacet
  facet normal 0 -1 0
    outer loop
      vertex 63 0 15
      vertex 58 0 25
      vertex 60 0 15
    endloop
  endfacet
  facet normal 0 -1 0
    outer loop
      vertex 58 0 25
      vertex 63 0 15
      vertex 63 0 45
    endloop
  endfacet
  facet normal -1 0 0
    outer loop
      vertex 50 10 0
      vertex 50 20 5
      vertex 50 20 0
    endloop
  endfacet
  facet normal -1 -0 0
    outer loop
      vertex 50 20 5
      vertex 50 10 0
      vertex 50 10 5
    endloop
  endfacet
  facet normal 0 0 -1
    outer loop
      vertex 10 10 5
      vertex 50 20 5
      vertex 50 10 5
    endloop
  endfacet
  facet normal -0 0 -1
    outer loop
      vertex 50 20 5
      vertex 10 10 5
      vertex 10 20 5
    endloop
  endfacet
  facet normal 1 -0 0
    outer loop
      vertex 10 10 5
      vertex 10 20 0
      vertex 10 20 5
    endloop
  endfacet
  facet normal 1 0 0
    outer loop
      vertex 10 20 0
      vertex 10 10 5
      vertex 10 10 0
    endloop
  endfacet
  facet normal 0 -1 0
    outer loop
      vertex 10 20 0
      vertex 50 20 5
      vertex 10 20 5
    endloop
  endfacet
  facet normal 0 -1 -0
    outer loop
      vertex 50 20 5
      vertex 10 20 0
      vertex 50 20 0
    endloop
  endfacet
  facet normal 0 1 -0
    outer loop
      vertex 50 10 0
      vertex 10 10 5
      vertex 50 10 5
    endloop
  endfacet
  facet normal 0 1 0
    outer loop
      vertex 10 10 5
      vertex 50 10 0
      vertex 10 10 0
    endloop
  endfacet
  facet normal -0 0 1
    outer loop
      vertex 50 30 25
      vertex 58 0 25
      vertex 58 30 25
    endloop
  endfacet
  facet normal 0 0 1
    outer loop
      vertex 58 0 25
      vertex 50 30 25
      vertex 50 0 25
    endloop
  endfacet
  facet normal -1 0 0
    outer loop
      vertex 50 0 10
      vertex 50 30 25
      vertex 50 30 10
    endloop
  endfacet
  facet normal -1 -0 0
    outer loop
      vertex 50 30 25
      vertex 50 0 10
      vertex 50 0 25
    endloop
  endfacet
  facet normal 1 -0 0
    outer loop
      vertex 63 0 45
      vertex 63 30 15
      vertex 63 30 45
    endloop
  endfacet
  facet normal 1 0 0
    outer loop
      vertex 63 30 15
      vertex 63 0 45
      vertex 63 0 15
    endloop
  endfacet
  facet normal -0 0 1
    outer loop
      vertex 58 30 45
      vertex 63 0 45
      vertex 63 30 45
    endloop
  endfacet
  facet normal 0 0 1
    outer loop
      vertex 63 0 45
      vertex 58 30 45
      vertex 58 0 45
    endloop
  endfacet
  facet normal 0 0 -1
    outer loop
      vertex 60 0 15
      vertex 63 30 15
      vertex 63 0 15
    endloop
  endfacet
  facet normal -0 0 -1
    outer loop
      vertex 63 30 15
      vertex 60 0 15
      vertex 60 30 15
    endloop
  endfacet
  facet normal -1 0 0
    outer loop
      vertex 58 0 25
      vertex 58 30 45
      vertex 58 30 25
    endloop
  endfacet
  facet normal -1 -0 0
    outer loop
      vertex 58 30 45
      vertex 58 0 25
      vertex 58 0 45
    endloop
  endfacet
endsolid OpenSCAD_Model
