solid OpenSCAD_Model
  facet normal 1 -0 0
    outer loop
      vertex 10 -5 2.5
      vertex 10 5 -2.5
      vertex 10 5 2.5
    endloop
  endfacet
  facet normal 1 0 0
    outer loop
      vertex 10 5 -2.5
      vertex 10 -5 2.5
      vertex 10 -5 -2.5
    endloop
  endfacet
  facet normal 0 0 1
    outer loop
      vertex -3.48528 5 2.5
      vertex -7 4 2.5
      vertex -4.48528 4 2.5
    endloop
  endfacet
  facet normal 0 0 1
    outer loop
      vertex -10 5 2.5
      vertex -7 1.48528 2.5
      vertex -7 4 2.5
    endloop
  endfacet
  facet normal 0 0 1
    outer loop
      vertex -7 1.48528 2.5
      vertex -10 5 2.5
      vertex -8.48528 0 2.5
    endloop
  endfacet
  facet normal -0 0 1
    outer loop
      vertex -10 5 2.5
      vertex -7 4 2.5
      vertex -3.48528 5 2.5
    endloop
  endfacet
  facet normal 0 0 1
    outer loop
      vertex -10 -5 2.5
      vertex -7 -1.48528 2.5
      vertex -8.48528 0 2.5
    endloop
  endfacet
  facet normal -0 0 1
    outer loop
      vertex -7 -4 2.5
      vertex -3.48528 -5 2.5
      vertex -4.48528 -4 2.5
    endloop
  endfacet
  facet normal 0 0 1
    outer loop
      vertex -7 -4 2.5
      vertex -10 -5 2.5
      vertex -3.48528 -5 2.5
    endloop
  endfacet
  facet normal 0 0 1
    outer loop
      vertex -7 -1.48528 2.5
      vertex -10 -5 2.5
      vertex -7 -4 2.5
    endloop
  endfacet
  facet normal 0 0 1
    outer loop
      vertex -10 -5 2.5
      vertex -8.48528 0 2.5
      vertex -10 5 2.5
    endloop
  endfacet
  facet normal 0 0 1
    outer loop
      vertex 10 5 2.5
      vertex 8.48528 0 2.5
      vertex 10 -5 2.5
    endloop
  endfacet
  facet normal 0 0 1
    outer loop
      vertex 7 1.48528 2.5
      vertex 10 5 2.5
      vertex 7 4 2.5
    endloop
  endfacet
  facet normal -0 0 1
    outer loop
      vertex 3.48528 5 2.5
      vertex 7 4 2.5
      vertex 10 5 2.5
    endloop
  endfacet
  facet normal 0 0 1
    outer loop
      vertex 7 4 2.5
      vertex 3.48528 5 2.5
      vertex 4.48528 4 2.5
    endloop
  endfacet
  facet normal -0 0 1
    outer loop
      vertex 7 -1.48528 2.5
      vertex 10 -5 2.5
      vertex 8.48528 0 2.5
    endloop
  endfacet
  facet normal -0 0 1
    outer loop
      vertex 7 -4 2.5
      vertex 10 -5 2.5
      vertex 7 -1.48528 2.5
    endloop
  endfacet
  facet normal 0 0 1
    outer loop
      vertex 3.48528 -5 2.5
      vertex 7 -4 2.5
      vertex 4.48528 -4 2.5
    endloop
  endfacet
  facet normal 0 0 1
    outer loop
      vertex 7 -4 2.5
      vertex 3.48528 -5 2.5
      vertex 10 -5 2.5
    endloop
  endfacet
  facet normal 0 0 1
    outer loop
      vertex 10 5 2.5
      vertex 7 1.48528 2.5
      vertex 8.48528 0 2.5
    endloop
  endfacet
  facet normal 0 0 1
    outer loop
      vertex 7 1.48528 2.5
      vertex 7 -1.48528 2.5
      vertex 8.48528 0 2.5
    endloop
  endfacet
  facet normal 0 0 1
    outer loop
      vertex -7 1.48528 2.5
      vertex -8.48528 0 2.5
      vertex -7 -1.48528 2.5
    endloop
  endfacet
  facet normal -0 0 1
    outer loop
      vertex -3.48528 5 2.5
      vertex 4.48528 4 2.5
      vertex 3.48528 5 2.5
    endloop
  endfacet
  facet normal 0 0 1
    outer loop
      vertex 4.48528 4 2.5
      vertex -3.48528 5 2.5
      vertex -4.48528 4 2.5
    endloop
  endfacet
  facet normal 0 0 1
    outer loop
      vertex 4.48528 -4 2.5
      vertex -3.48528 -5 2.5
      vertex 3.48528 -5 2.5
    endloop
  endfacet
  facet normal 0 -0 1
    outer loop
      vertex -3.48528 -5 2.5
      vertex 4.48528 -4 2.5
      vertex -4.48528 -4 2.5
    endloop
  endfacet
  facet normal 0 0 -1
    outer loop
      vertex -10 -5 -2.5
      vertex 10 5 -2.5
      vertex 10 -5 -2.5
    endloop
  endfacet
  facet normal -0 0 -1
    outer loop
      vertex 10 5 -2.5
      vertex -10 -5 -2.5
      vertex -10 5 -2.5
    endloop
  endfacet
  facet normal -1 0 0
    outer loop
      vertex -10 -5 -2.5
      vertex -10 5 2.5
      vertex -10 5 -2.5
    endloop
  endfacet
  facet normal -1 -0 0
    outer loop
      vertex -10 5 2.5
      vertex -10 -5 -2.5
      vertex -10 -5 2.5
    endloop
  endfacet
  facet normal 0 1 -0
    outer loop
      vertex 10 5 -2.5
      vertex 3.48528 5 2.5
      vertex 10 5 2.5
    endloop
  endfacet
  facet normal 0 1 0
    outer loop
      vertex 3.48528 5 2.5
      vertex 10 5 -2.5
      vertex -3.48528 5 2.5
    endloop
  endfacet
  facet normal 0 1 0
    outer loop
      vertex -10 5 -2.5
      vertex -3.48528 5 2.5
      vertex 10 5 -2.5
    endloop
  endfacet
  facet normal 0 1 0
    outer loop
      vertex -3.48528 5 2.5
      vertex -10 5 -2.5
      vertex -10 5 2.5
    endloop
  endfacet
  facet normal 0 -1 0
    outer loop
      vertex -10 -5 -2.5
      vertex -3.48528 -5 2.5
      vertex -10 -5 2.5
    endloop
  endfacet
  facet normal 0 -1 -0
    outer loop
      vertex -3.48528 -5 2.5
      vertex -10 -5 -2.5
      vertex 3.48528 -5 2.5
    endloop
  endfacet
  facet normal 0 -1 0
    outer loop
      vertex 10 -5 -2.5
      vertex 3.48528 -5 2.5
      vertex -10 -5 -2.5
    endloop
  endfacet
  facet normal 0 -1 0
    outer loop
      vertex 3.48528 -5 2.5
      vertex 10 -5 -2.5
      vertex 10 -5 2.5
    endloop
  endfacet
  facet normal -1 0 0
    outer loop
      vertex 7 4 0
      vertex 7 1.48528 2.5
      vertex 7 4 2.5
    endloop
  endfacet
  facet normal -1 0 0
    outer loop
      vertex 7 4 0
      vertex 7 -1.48528 2.5
      vertex 7 1.48528 2.5
    endloop
  endfacet
  facet normal -1 0 0
    outer loop
      vertex 7 -4 0
      vertex 7 -1.48528 2.5
      vertex 7 4 0
    endloop
  endfacet
  facet normal -1 -0 0
    outer loop
      vertex 7 -1.48528 2.5
      vertex 7 -4 0
      vertex 7 -4 2.5
    endloop
  endfacet
  facet normal -0 0 1
    outer loop
      vertex -7 4 0
      vertex 7 -4 0
      vertex 7 4 0
    endloop
  endfacet
  facet normal 0 0 1
    outer loop
      vertex 7 -4 0
      vertex -7 4 0
      vertex -7 -4 0
    endloop
  endfacet
  facet normal 1 -0 0
    outer loop
      vertex -7 1.48528 2.5
      vertex -7 4 0
      vertex -7 4 2.5
    endloop
  endfacet
  facet normal 1 -0 0
    outer loop
      vertex -7 -1.48528 2.5
      vertex -7 4 0
      vertex -7 1.48528 2.5
    endloop
  endfacet
  facet normal 1 0 0
    outer loop
      vertex -7 -4 0
      vertex -7 -1.48528 2.5
      vertex -7 -4 2.5
    endloop
  endfacet
  facet normal 1 0 0
    outer loop
      vertex -7 -1.48528 2.5
      vertex -7 -4 0
      vertex -7 4 0
    endloop
  endfacet
  facet normal 0 -1 0
    outer loop
      vertex -7 4 0
      vertex -4.48528 4 2.5
      vertex -7 4 2.5
    endloop
  endfacet
  facet normal 0 -1 -0
    outer loop
      vertex -4.48528 4 2.5
      vertex -7 4 0
      vertex 4.48528 4 2.5
    endloop
  endfacet
  facet normal 0 -1 0
    outer loop
      vertex 7 4 0
      vertex 4.48528 4 2.5
      vertex -7 4 0
    endloop
  endfacet
  facet normal 0 -1 0
    outer loop
      vertex 4.48528 4 2.5
      vertex 7 4 0
      vertex 7 4 2.5
    endloop
  endfacet
  facet normal 0 1 -0
    outer loop
      vertex 7 -4 0
      vertex 4.48528 -4 2.5
      vertex 7 -4 2.5
    endloop
  endfacet
  facet normal 0 1 0
    outer loop
      vertex 4.48528 -4 2.5
      vertex 7 -4 0
      vertex -4.48528 -4 2.5
    endloop
  endfacet
  facet normal 0 1 0
    outer loop
      vertex -7 -4 0
      vertex -4.48528 -4 2.5
      vertex 7 -4 0
    endloop
  endfacet
  facet normal 0 1 0
    outer loop
      vertex -4.48528 -4 2.5
      vertex -7 -4 0
      vertex -7 -4 2.5
    endloop
  endfacet
endsolid OpenSCAD_Model
