solid OpenSCAD_Model
  facet normal 1 -0 0
    outer loop
      vertex 15 -10 0
      vertex 15 10 -40
      vertex 15 10 0
    endloop
  endfacet
  facet normal 1 0 0
    outer loop
      vertex 15 10 -40
      vertex 15 -10 0
      vertex 15 -10 -40
    endloop
  endfacet
  facet normal 0 0 1
    outer loop
      vertex 15 10 0
      vertex 5 0 0
      vertex 15 -10 0
    endloop
  endfacet
  facet normal 0 0 1
    outer loop
      vertex 15 10 0
      vertex 4.6194 1.91342 0
      vertex 5 0 0
    endloop
  endfacet
  facet normal 0 0 1
    outer loop
      vertex 15 10 0
      vertex 3.53553 3.53553 0
      vertex 4.6194 1.91342 0
    endloop
  endfacet
  facet normal 0 0 1
    outer loop
      vertex 15 10 0
      vertex 1.91342 4.6194 0
      vertex 3.53553 3.53553 0
    endloop
  endfacet
  facet normal 0 0 1
    outer loop
      vertex 15 10 0
      vertex 0 5 0
      vertex 1.91342 4.6194 0
    endloop
  endfacet
  facet normal -0 0 1
    outer loop
      vertex -15 10 0
      vertex 0 5 0
      vertex 15 10 0
    endloop
  endfacet
  facet normal 0 0 1
    outer loop
      vertex -4.6194 1.91342 0
      vertex -15 10 0
      vertex -5 0 0
    endloop
  endfacet
  facet normal 0 0 1
    outer loop
      vertex -3.53553 3.53553 0
      vertex -15 10 0
      vertex -4.6194 1.91342 0
    endloop
  endfacet
  facet normal 0 0 1
    outer loop
      vertex -1.91342 4.6194 0
      vertex -15 10 0
      vertex -3.53553 3.53553 0
    endloop
  endfacet
  facet normal 0 0 1
    outer loop
      vertex 0 5 0
      vertex -15 10 0
      vertex -1.91342 4.6194 0
    endloop
  endfacet
  facet normal -0 0 1
    outer loop
      vertex 4.6194 -1.91342 0
      vertex 15 -10 0
      vertex 5 0 0
    endloop
  endfacet
  facet normal -0 0 1
    outer loop
      vertex 3.53553 -3.53553 0
      vertex 15 -10 0
      vertex 4.6194 -1.91342 0
    endloop
  endfacet
  facet normal -0 0 1
    outer loop
      vertex 1.91342 -4.6194 0
      vertex 15 -10 0
      vertex 3.53553 -3.53553 0
    endloop
  endfacet
  facet normal -0 0 1
    outer loop
      vertex 0 -5 0
      vertex 15 -10 0
      vertex 1.91342 -4.6194 0
    endloop
  endfacet
  facet normal 0 0 1
    outer loop
      vertex -15 -10 0
      vertex 0 -5 0
      vertex -1.91342 -4.6194 0
    endloop
  endfacet
  facet normal 0 0 1
    outer loop
      vertex -15 -10 0
      vertex -5 0 0
      vertex -15 10 0
    endloop
  endfacet
  facet normal 0 0 1
    outer loop
      vertex -5 0 0
      vertex -15 -10 0
      vertex -4.6194 -1.91342 0
    endloop
  endfacet
  facet normal 0 0 1
    outer loop
      vertex 0 -5 0
      vertex -15 -10 0
      vertex 15 -10 0
    endloop
  endfacet
  facet normal 0 0 1
    outer loop
      vertex -3.53553 -3.53553 0
      vertex -15 -10 0
      vertex -1.91342 -4.6194 0
    endloop
  endfacet
  facet normal 0 0 1
    outer loop
      vertex -4.6194 -1.91342 0
      vertex -15 -10 0
      vertex -3.53553 -3.53553 0
    endloop
  endfacet
  facet normal 0 0 -1
    outer loop
      vertex 15 -10 -40
      vertex 5 0 -40
      vertex 15 10 -40
    endloop
  endfacet
  facet normal 0 0 -1
    outer loop
      vertex 15 -10 -40
      vertex 4.6194 -1.91342 -40
      vertex 5 0 -40
    endloop
  endfacet
  facet normal 0 0 -1
    outer loop
      vertex 15 -10 -40
      vertex 3.53553 -3.53553 -40
      vertex 4.6194 -1.91342 -40
    endloop
  endfacet
  facet normal 0 0 -1
    outer loop
      vertex 15 -10 -40
      vertex 1.91342 -4.6194 -40
      vertex 3.53553 -3.53553 -40
    endloop
  endfacet
  facet normal 0 0 -1
    outer loop
      vertex 15 -10 -40
      vertex 0 -5 -40
      vertex 1.91342 -4.6194 -40
    endloop
  endfacet
  facet normal 0 0 -1
    outer loop
      vertex -15 -10 -40
      vertex 0 -5 -40
      vertex 15 -10 -40
    endloop
  endfacet
  facet normal -0 0 -1
    outer loop
      vertex -4.6194 -1.91342 -40
      vertex -15 -10 -40
      vertex -5 0 -40
    endloop
  endfacet
  facet normal -0 0 -1
    outer loop
      vertex -3.53553 -3.53553 -40
      vertex -15 -10 -40
      vertex -4.6194 -1.91342 -40
    endloop
  endfacet
  facet normal -0 0 -1
    outer loop
      vertex -1.91342 -4.6194 -40
      vertex -15 -10 -40
      vertex -3.53553 -3.53553 -40
    endloop
  endfacet
  facet normal -0 0 -1
    outer loop
      vertex 0 -5 -40
      vertex -15 -10 -40
      vertex -1.91342 -4.6194 -40
    endloop
  endfacet
  facet normal 0 0 -1
    outer loop
      vertex 4.6194 1.91342 -40
      vertex 15 10 -40
      vertex 5 0 -40
    endloop
  endfacet
  facet normal 0 0 -1
    outer loop
      vertex 3.53553 3.53553 -40
      vertex 15 10 -40
      vertex 4.6194 1.91342 -40
    endloop
  endfacet
  facet normal 0 0 -1
    outer loop
      vertex 1.91342 4.6194 -40
      vertex 15 10 -40
      vertex 3.53553 3.53553 -40
    endloop
  endfacet
  facet normal 0 0 -1
    outer loop
      vertex 0 5 -40
      vertex 15 10 -40
      vertex 1.91342 4.6194 -40
    endloop
  endfacet
  facet normal 0 0 -1
    outer loop
      vertex -15 10 -40
      vertex 0 5 -40
      vertex -1.91342 4.6194 -40
    endloop
  endfacet
  facet normal 0 0 -1
    outer loop
      vertex -15 10 -40
      vertex -5 0 -40
      vertex -15 -10 -40
    endloop
  endfacet
  facet normal 0 0 -1
    outer loop
      vertex -5 0 -40
      vertex -15 10 -40
      vertex -4.6194 1.91342 -40
    endloop
  endfacet
  facet normal 0 0 -1
    outer loop
      vertex 0 5 -40
      vertex -15 10 -40
      vertex 15 10 -40
    endloop
  endfacet
  facet normal 0 0 -1
    outer loop
      vertex -3.53553 3.53553 -40
      vertex -15 10 -40
      vertex -1.91342 4.6194 -40
    endloop
  endfacet
  facet normal 0 0 -1
    outer loop
      vertex -4.6194 1.91342 -40
      vertex -15 10 -40
      vertex -3.53553 3.53553 -40
    endloop
  endfacet
  facet normal -1 0 0
    outer loop
      vertex -15 -10 -40
      vertex -15 10 0
      vertex -15 10 -40
    endloop
  endfacet
  facet normal -1 -0 0
    outer loop
      vertex -15 10 0
      vertex -15 -10 -40
      vertex -15 -10 0
    endloop
  endfacet
  facet normal 0 1 -0
    outer loop
      vertex 15 10 -40
      vertex -15 10 0
      vertex 15 10 0
    endloop
  endfacet
  facet normal 0 1 0
    outer loop
      vertex -15 10 0
      vertex 15 10 -40
      vertex -15 10 -40
    endloop
  endfacet
  facet normal 0 -1 0
    outer loop
      vertex -15 -10 -40
      vertex 15 -10 0
      vertex -15 -10 0
    endloop
  endfacet
  facet normal 0 -1 -0
    outer loop
      vertex 15 -10 0
      vertex -15 -10 -40
      vertex 15 -10 -40
    endloop
  endfacet
  facet normal -0.831467 -0.555574 0
    outer loop
      vertex 4.6194 1.91342 -40
      vertex 3.53553 3.53553 0
      vertex 3.53553 3.53553 -40
    endloop
  endfacet
  facet normal -0.831467 -0.555574 0
    outer loop
      vertex 3.53553 3.53553 0
      vertex 4.6194 1.91342 -40
      vertex 4.6194 1.91342 0
    endloop
  endfacet
  facet normal -0.980786 -0.195089 0
    outer loop
      vertex 5 0 -40
      vertex 4.6194 1.91342 0
      vertex 4.6194 1.91342 -40
    endloop
  endfacet
  facet normal -0.980786 -0.195089 0
    outer loop
      vertex 4.6194 1.91342 0
      vertex 5 0 -40
      vertex 5 0 0
    endloop
  endfacet
  facet normal 0.980786 -0.195089 0
    outer loop
      vertex -5 0 0
      vertex -4.6194 1.91342 -40
      vertex -4.6194 1.91342 0
    endloop
  endfacet
  facet normal 0.980786 -0.195089 0
    outer loop
      vertex -4.6194 1.91342 -40
      vertex -5 0 0
      vertex -5 0 -40
    endloop
  endfacet
  facet normal 0.980786 0.195089 0
    outer loop
      vertex -4.6194 -1.91342 0
      vertex -5 0 -40
      vertex -5 0 0
    endloop
  endfacet
  facet normal 0.980786 0.195089 0
    outer loop
      vertex -5 0 -40
      vertex -4.6194 -1.91342 0
      vertex -4.6194 -1.91342 -40
    endloop
  endfacet
  facet normal 0.195089 -0.980786 0
    outer loop
      vertex -1.91342 4.6194 -40
      vertex 0 5 0
      vertex -1.91342 4.6194 0
    endloop
  endfacet
  facet normal 0.195089 -0.980786 0
    outer loop
      vertex 0 5 0
      vertex -1.91342 4.6194 -40
      vertex 0 5 -40
    endloop
  endfacet
  facet normal -0.195089 0.980786 0
    outer loop
      vertex 1.91342 -4.6194 -40
      vertex 0 -5 0
      vertex 1.91342 -4.6194 0
    endloop
  endfacet
  facet normal -0.195089 0.980786 0
    outer loop
      vertex 0 -5 0
      vertex 1.91342 -4.6194 -40
      vertex 0 -5 -40
    endloop
  endfacet
  facet normal -0.831467 0.555574 0
    outer loop
      vertex 3.53553 -3.53553 -40
      vertex 4.6194 -1.91342 0
      vertex 4.6194 -1.91342 -40
    endloop
  endfacet
  facet normal -0.831467 0.555574 0
    outer loop
      vertex 4.6194 -1.91342 0
      vertex 3.53553 -3.53553 -40
      vertex 3.53553 -3.53553 0
    endloop
  endfacet
  facet normal -0.555574 -0.831467 0
    outer loop
      vertex 1.91342 4.6194 -40
      vertex 3.53553 3.53553 0
      vertex 1.91342 4.6194 0
    endloop
  endfacet
  facet normal -0.555574 -0.831467 -0
    outer loop
      vertex 3.53553 3.53553 0
      vertex 1.91342 4.6194 -40
      vertex 3.53553 3.53553 -40
    endloop
  endfacet
  facet normal -0.980786 0.195089 0
    outer loop
      vertex 4.6194 -1.91342 -40
      vertex 5 0 0
      vertex 5 0 -40
    endloop
  endfacet
  facet normal -0.980786 0.195089 0
    outer loop
      vertex 5 0 0
      vertex 4.6194 -1.91342 -40
      vertex 4.6194 -1.91342 0
    endloop
  endfacet
  facet normal 0.831467 -0.555574 0
    outer loop
      vertex -4.6194 1.91342 0
      vertex -3.53553 3.53553 -40
      vertex -3.53553 3.53553 0
    endloop
  endfacet
  facet normal 0.831467 -0.555574 0
    outer loop
      vertex -3.53553 3.53553 -40
      vertex -4.6194 1.91342 0
      vertex -4.6194 1.91342 -40
    endloop
  endfacet
  facet normal -0.555574 0.831467 0
    outer loop
      vertex 3.53553 -3.53553 -40
      vertex 1.91342 -4.6194 0
      vertex 3.53553 -3.53553 0
    endloop
  endfacet
  facet normal -0.555574 0.831467 0
    outer loop
      vertex 1.91342 -4.6194 0
      vertex 3.53553 -3.53553 -40
      vertex 1.91342 -4.6194 -40
    endloop
  endfacet
  facet normal -0.195089 -0.980786 0
    outer loop
      vertex 0 5 -40
      vertex 1.91342 4.6194 0
      vertex 0 5 0
    endloop
  endfacet
  facet normal -0.195089 -0.980786 -0
    outer loop
      vertex 1.91342 4.6194 0
      vertex 0 5 -40
      vertex 1.91342 4.6194 -40
    endloop
  endfacet
  facet normal 0.555574 -0.831467 0
    outer loop
      vertex -3.53553 3.53553 -40
      vertex -1.91342 4.6194 0
      vertex -3.53553 3.53553 0
    endloop
  endfacet
  facet normal 0.555574 -0.831467 0
    outer loop
      vertex -1.91342 4.6194 0
      vertex -3.53553 3.53553 -40
      vertex -1.91342 4.6194 -40
    endloop
  endfacet
  facet normal 0.831467 0.555574 0
    outer loop
      vertex -3.53553 -3.53553 0
      vertex -4.6194 -1.91342 -40
      vertex -4.6194 -1.91342 0
    endloop
  endfacet
  facet normal 0.831467 0.555574 0
    outer loop
      vertex -4.6194 -1.91342 -40
      vertex -3.53553 -3.53553 0
      vertex -3.53553 -3.53553 -40
    endloop
  endfacet
  facet normal 0.195089 0.980786 -0
    outer loop
      vertex 0 -5 -40
      vertex -1.91342 -4.6194 0
      vertex 0 -5 0
    endloop
  endfacet
  facet normal 0.195089 0.980786 0
    outer loop
      vertex -1.91342 -4.6194 0
      vertex 0 -5 -40
      vertex -1.91342 -4.6194 -40
    endloop
  endfacet
  facet normal 0.555574 0.831467 -0
    outer loop
      vertex -1.91342 -4.6194 -40
      vertex -3.53553 -3.53553 0
      vertex -1.91342 -4.6194 0
    endloop
  endfacet
  facet normal 0.555574 0.831467 0
    outer loop
      vertex -3.53553 -3.53553 0
      vertex -1.91342 -4.6194 -40
      vertex -3.53553 -3.53553 -40
    endloop
  endfacet
  facet normal 1 -0 0
    outer loop
      vertex 10 -10 40
      vertex 10 10 20
      vertex 10 10 40
    endloop
  endfacet
  facet normal 1 0 0
    outer loop
      vertex 10 10 20
      vertex 10 -10 40
      vertex 10 -10 20
    endloop
  endfacet
  facet normal -0 0 1
    outer loop
      vertex -10 10 40
      vertex 10 -10 40
      vertex 10 10 40
    endloop
  endfacet
  facet normal 0 0 1
    outer loop
      vertex 10 -10 40
      vertex -10 10 40
      vertex -10 -10 40
    endloop
  endfacet
  facet normal 0 0 -1
    outer loop
      vertex -10 -10 20
      vertex 10 10 20
      vertex 10 -10 20
    endloop
  endfacet
  facet normal -0 0 -1
    outer loop
      vertex 10 10 20
      vertex -10 -10 20
      vertex -10 10 20
    endloop
  endfacet
  facet normal -1 0 0
    outer loop
      vertex -10 -10 20
      vertex -10 10 40
      vertex -10 10 20
    endloop
  endfacet
  facet normal -1 -0 0
    outer loop
      vertex -10 10 40
      vertex -10 -10 20
      vertex -10 -10 40
    endloop
  endfacet
  facet normal 0 1 -0
    outer loop
      vertex 10 10 20
      vertex -10 10 40
      vertex 10 10 40
    endloop
  endfacet
  facet normal 0 1 0
    outer loop
      vertex -10 10 40
      vertex 10 10 20
      vertex -10 10 20
    endloop
  endfacet
  facet normal 0 -1 0
    outer loop
      vertex -10 -10 20
      vertex 10 -10 40
      vertex -10 -10 40
    endloop
  endfacet
  facet normal 0 -1 -0
    outer loop
      vertex 10 -10 40
      vertex -10 -10 20
      vertex 10 -10 20
    endloop
  endfacet
endsolid OpenSCAD_Model
