solid OpenSCAD_Model
  facet normal 1 -0 0
    outer loop
      vertex 25 -17.5 45
      vertex 25 17.5 -30
      vertex 25 17.5 45
    endloop
  endfacet
  facet normal 1 0 0
    outer loop
      vertex 25 17.5 -30
      vertex 25 -17.5 45
      vertex 25 -17.5 -30
    endloop
  endfacet
  facet normal -0 0 1
    outer loop
      vertex -25 17.5 45
      vertex 25 -17.5 45
      vertex 25 17.5 45
    endloop
  endfacet
  facet normal 0 0 1
    outer loop
      vertex 25 -17.5 45
      vertex -25 17.5 45
      vertex -25 -17.5 45
    endloop
  endfacet
  facet normal -1 0 0
    outer loop
      vertex -25 -17.5 -30
      vertex -25 17.5 45
      vertex -25 17.5 -30
    endloop
  endfacet
  facet normal -1 -0 0
    outer loop
      vertex -25 17.5 45
      vertex -25 -17.5 -30
      vertex -25 -17.5 45
    endloop
  endfacet
  facet normal 0 1 0
    outer loop
      vertex -15 17.5 -30
      vertex 25 17.5 45
      vertex 25 17.5 -30
    endloop
  endfacet
  facet normal 0 1 0
    outer loop
      vertex 25 17.5 45
      vertex -15 17.5 -30
      vertex -25 17.5 45
    endloop
  endfacet
  facet normal 0 1 0
    outer loop
      vertex -25 17.5 45
      vertex -15 17.5 -30
      vertex -25 17.5 -30
    endloop
  endfacet
  facet normal 0 1 -0
    outer loop
      vertex 35 17.5 -45
      vertex 25 17.5 -30
      vertex 35 17.5 -30
    endloop
  endfacet
  facet normal 0 1 0
    outer loop
      vertex -15 17.5 -45
      vertex 25 17.5 -30
      vertex 35 17.5 -45
    endloop
  endfacet
  facet normal 0 1 0
    outer loop
      vertex 25 17.5 -30
      vertex -15 17.5 -45
      vertex -15 17.5 -30
    endloop
  endfacet
  facet normal 0 -1 0
    outer loop
      vertex -15 -17.5 -30
      vertex -25 -17.5 45
      vertex -25 -17.5 -30
    endloop
  endfacet
  facet normal 0 -1 0
    outer loop
      vertex -25 -17.5 45
      vertex -15 -17.5 -30
      vertex 25 -17.5 45
    endloop
  endfacet
  facet normal 0 -1 0
    outer loop
      vertex -15 -17.5 -30
      vertex 25 -17.5 -30
      vertex 25 -17.5 45
    endloop
  endfacet
  facet normal 0 -1 0
    outer loop
      vertex -15 -17.5 -45
      vertex 25 -17.5 -30
      vertex -15 -17.5 -30
    endloop
  endfacet
  facet normal 0 -1 0
    outer loop
      vertex 35 -17.5 -45
      vertex 25 -17.5 -30
      vertex -15 -17.5 -45
    endloop
  endfacet
  facet normal 0 -1 0
    outer loop
      vertex 25 -17.5 -30
      vertex 35 -17.5 -45
      vertex 35 -17.5 -30
    endloop
  endfacet
  facet normal -0 0 1
    outer loop
      vertex 25 17.5 -30
      vertex 35 -17.5 -30
      vertex 35 17.5 -30
    endloop
  endfacet
  facet normal 0 0 1
    outer loop
      vertex 35 -17.5 -30
      vertex 25 17.5 -30
      vertex 25 -17.5 -30
    endloop
  endfacet
  facet normal 0 0 -1
    outer loop
      vertex -25 -17.5 -30
      vertex -15 17.5 -30
      vertex -15 -17.5 -30
    endloop
  endfacet
  facet normal -0 0 -1
    outer loop
      vertex -15 17.5 -30
      vertex -25 -17.5 -30
      vertex -25 17.5 -30
    endloop
  endfacet
  facet normal 1 -0 0
    outer loop
      vertex 35 -17.5 -30
      vertex 35 17.5 -45
      vertex 35 17.5 -30
    endloop
  endfacet
  facet normal 1 0 0
    outer loop
      vertex 35 17.5 -45
      vertex 35 -17.5 -30
      vertex 35 -17.5 -45
    endloop
  endfacet
  facet normal 0 0 -1
    outer loop
      vertex -15 -17.5 -45
      vertex 35 17.5 -45
      vertex 35 -17.5 -45
    endloop
  endfacet
  facet normal -0 0 -1
    outer loop
      vertex 35 17.5 -45
      vertex -15 -17.5 -45
      vertex -15 17.5 -45
    endloop
  endfacet
  facet normal -1 0 0
    outer loop
      vertex -15 -17.5 -45
      vertex -15 17.5 -30
      vertex -15 17.5 -45
    endloop
  endfacet
  facet normal -1 -0 0
    outer loop
      vertex -15 17.5 -30
      vertex -15 -17.5 -45
      vertex -15 -17.5 -30
    endloop
  endfacet
endsolid OpenSCAD_Model
