solid OpenSCAD_Model
  facet normal 0.309025 0 0.951054
    outer loop
      vertex -24.5365 -1.5 -1.42658
      vertex -25.772 -2.55032 -1.02513
      vertex -24.5365 -2.32089 -1.42658
    endloop
  endfacet
  facet normal 0.309023 2.82338e-06 0.951055
    outer loop
      vertex -26.2135 -1.5 -0.881678
      vertex -25.772 -2.55032 -1.02513
      vertex -24.5365 -1.5 -1.42658
    endloop
  endfacet
  facet normal 0.309017 0 0.951057
    outer loop
      vertex -25.772 -2.55032 -1.02513
      vertex -26.2135 -1.5 -0.881678
      vertex -26.2135 -2.79625 -0.881678
    endloop
  endfacet
  facet normal -0.809009 0 -0.587796
    outer loop
      vertex -23.5 -5 0
      vertex -24.5365 -1.5 1.42658
      vertex -23.5 -1.5 0
    endloop
  endfacet
  facet normal -0.809009 -0 -0.587796
    outer loop
      vertex -24.5365 -1.5 1.42658
      vertex -23.5 -5 0
      vertex -24.5365 -5 1.42658
    endloop
  endfacet
  facet normal 1 0 0
    outer loop
      vertex -26.2135 -1.5 0.881678
      vertex -26.2135 -2.79625 -0.881678
      vertex -26.2135 -1.5 -0.881678
    endloop
  endfacet
  facet normal 1 0 0
    outer loop
      vertex -26.2135 -1.5 0.881678
      vertex -26.2135 -4.10335 -0.119259
      vertex -26.2135 -2.79625 -0.881678
    endloop
  endfacet
  facet normal 1 -0 0
    outer loop
      vertex -26.2135 -5 0.881678
      vertex -26.2135 -4.10335 -0.119259
      vertex -26.2135 -1.5 0.881678
    endloop
  endfacet
  facet normal 1 0 0
    outer loop
      vertex -26.2135 -4.10335 -0.119259
      vertex -26.2135 -5 0.881678
      vertex -26.2135 -5 -0.119259
    endloop
  endfacet
  facet normal 0.309023 0 -0.951055
    outer loop
      vertex -26.2135 -5 0.881678
      vertex -24.5365 -1.5 1.42658
      vertex -24.5365 -5 1.42658
    endloop
  endfacet
  facet normal 0.309023 0 -0.951055
    outer loop
      vertex -24.5365 -1.5 1.42658
      vertex -26.2135 -5 0.881678
      vertex -26.2135 -1.5 0.881678
    endloop
  endfacet
  facet normal 0 -1 0
    outer loop
      vertex -26.2135 -1.5 0.881678
      vertex -23.5 -1.5 0
      vertex -24.5365 -1.5 1.42658
    endloop
  endfacet
  facet normal 0 -1 0
    outer loop
      vertex -26.2135 -1.5 -0.881678
      vertex -23.5 -1.5 0
      vertex -26.2135 -1.5 0.881678
    endloop
  endfacet
  facet normal 0 -1 0
    outer loop
      vertex -23.5 -1.5 0
      vertex -26.2135 -1.5 -0.881678
      vertex -24.5365 -1.5 -1.42658
    endloop
  endfacet
  facet normal -0.808989 0 0.587824
    outer loop
      vertex -24.2448 -2.55032 -1.02513
      vertex -24.5365 -1.5 -1.42658
      vertex -24.5365 -2.32089 -1.42658
    endloop
  endfacet
  facet normal -0.809009 -1.64467e-05 0.587796
    outer loop
      vertex -24.5365 -1.5 -1.42658
      vertex -24.2448 -2.55032 -1.02513
      vertex -23.5 -1.5 0
    endloop
  endfacet
  facet normal -0.80901 -1.5218e-05 0.587795
    outer loop
      vertex -23.5866 -4.10335 -0.119259
      vertex -23.5 -1.5 0
      vertex -24.2448 -2.55032 -1.02513
    endloop
  endfacet
  facet normal -0.809168 0 0.587578
    outer loop
      vertex -23.5 -5 0
      vertex -23.5866 -4.10335 -0.119259
      vertex -23.5866 -5 -0.119259
    endloop
  endfacet
  facet normal -0.809168 0 0.587578
    outer loop
      vertex -23.5866 -4.10335 -0.119259
      vertex -23.5 -5 0
      vertex -23.5 -1.5 0
    endloop
  endfacet
  facet normal 0.309025 0 0.951054
    outer loop
      vertex -14.5365 -1.5 -1.42658
      vertex -15.772 -2.55032 -1.02513
      vertex -14.5365 -2.32089 -1.42658
    endloop
  endfacet
  facet normal 0.309023 2.82338e-06 0.951055
    outer loop
      vertex -16.2135 -1.5 -0.881678
      vertex -15.772 -2.55032 -1.02513
      vertex -14.5365 -1.5 -1.42658
    endloop
  endfacet
  facet normal 0.309017 0 0.951057
    outer loop
      vertex -15.772 -2.55032 -1.02513
      vertex -16.2135 -1.5 -0.881678
      vertex -16.2135 -2.79625 -0.881678
    endloop
  endfacet
  facet normal -0.809009 0 -0.587796
    outer loop
      vertex -13.5 -5 0
      vertex -14.5365 -1.5 1.42658
      vertex -13.5 -1.5 0
    endloop
  endfacet
  facet normal -0.809009 -0 -0.587796
    outer loop
      vertex -14.5365 -1.5 1.42658
      vertex -13.5 -5 0
      vertex -14.5365 -5 1.42658
    endloop
  endfacet
  facet normal 1 0 0
    outer loop
      vertex -16.2135 -1.5 0.881678
      vertex -16.2135 -2.79625 -0.881678
      vertex -16.2135 -1.5 -0.881678
    endloop
  endfacet
  facet normal 1 0 0
    outer loop
      vertex -16.2135 -1.5 0.881678
      vertex -16.2135 -4.10335 -0.119259
      vertex -16.2135 -2.79625 -0.881678
    endloop
  endfacet
  facet normal 1 -0 0
    outer loop
      vertex -16.2135 -5 0.881678
      vertex -16.2135 -4.10335 -0.119259
      vertex -16.2135 -1.5 0.881678
    endloop
  endfacet
  facet normal 1 0 0
    outer loop
      vertex -16.2135 -4.10335 -0.119259
      vertex -16.2135 -5 0.881678
      vertex -16.2135 -5 -0.119259
    endloop
  endfacet
  facet normal 0 -1 0
    outer loop
      vertex -16.2135 -1.5 0.881678
      vertex -13.5 -1.5 0
      vertex -14.5365 -1.5 1.42658
    endloop
  endfacet
  facet normal 0 -1 0
    outer loop
      vertex -16.2135 -1.5 -0.881678
      vertex -13.5 -1.5 0
      vertex -16.2135 -1.5 0.881678
    endloop
  endfacet
  facet normal 0 -1 0
    outer loop
      vertex -13.5 -1.5 0
      vertex -16.2135 -1.5 -0.881678
      vertex -14.5365 -1.5 -1.42658
    endloop
  endfacet
  facet normal 0.309023 0 -0.951055
    outer loop
      vertex -16.2135 -5 0.881678
      vertex -14.5365 -1.5 1.42658
      vertex -14.5365 -5 1.42658
    endloop
  endfacet
  facet normal 0.309023 0 -0.951055
    outer loop
      vertex -14.5365 -1.5 1.42658
      vertex -16.2135 -5 0.881678
      vertex -16.2135 -1.5 0.881678
    endloop
  endfacet
  facet normal -0.808989 0 0.587824
    outer loop
      vertex -14.2448 -2.55032 -1.02513
      vertex -14.5365 -1.5 -1.42658
      vertex -14.5365 -2.32089 -1.42658
    endloop
  endfacet
  facet normal -0.809009 -1.64467e-05 0.587796
    outer loop
      vertex -14.5365 -1.5 -1.42658
      vertex -14.2448 -2.55032 -1.02513
      vertex -13.5 -1.5 0
    endloop
  endfacet
  facet normal -0.80901 -1.5218e-05 0.587795
    outer loop
      vertex -13.5866 -4.10335 -0.119259
      vertex -13.5 -1.5 0
      vertex -14.2448 -2.55032 -1.02513
    endloop
  endfacet
  facet normal -0.809168 0 0.587578
    outer loop
      vertex -13.5 -5 0
      vertex -13.5866 -4.10335 -0.119259
      vertex -13.5866 -5 -0.119259
    endloop
  endfacet
  facet normal -0.809168 0 0.587578
    outer loop
      vertex -13.5866 -4.10335 -0.119259
      vertex -13.5 -5 0
      vertex -13.5 -1.5 0
    endloop
  endfacet
  facet normal 0.309009 0 0.951059
    outer loop
      vertex -4.53647 -1.5 -1.42658
      vertex -5.77204 -2.55032 -1.02513
      vertex -4.53647 -2.32089 -1.42658
    endloop
  endfacet
  facet normal 0.309015 -6.93361e-06 0.951057
    outer loop
      vertex -6.21352 -1.5 -0.881678
      vertex -5.77204 -2.55032 -1.02513
      vertex -4.53647 -1.5 -1.42658
    endloop
  endfacet
  facet normal 0.30903 0 0.951052
    outer loop
      vertex -5.77204 -2.55032 -1.02513
      vertex -6.21352 -1.5 -0.881678
      vertex -6.21352 -2.79625 -0.881678
    endloop
  endfacet
  facet normal 0.309015 0 -0.951057
    outer loop
      vertex -6.21352 -5 0.881678
      vertex -4.53647 -1.5 1.42658
      vertex -4.53647 -5 1.42658
    endloop
  endfacet
  facet normal 0.309015 0 -0.951057
    outer loop
      vertex -4.53647 -1.5 1.42658
      vertex -6.21352 -5 0.881678
      vertex -6.21352 -1.5 0.881678
    endloop
  endfacet
  facet normal -0.809017 0 -0.587785
    outer loop
      vertex -3.5 -5 0
      vertex -4.53647 -1.5 1.42658
      vertex -3.5 -1.5 0
    endloop
  endfacet
  facet normal -0.809017 -0 -0.587785
    outer loop
      vertex -4.53647 -1.5 1.42658
      vertex -3.5 -5 0
      vertex -4.53647 -5 1.42658
    endloop
  endfacet
  facet normal 1 0 0
    outer loop
      vertex -6.21352 -1.5 0.881678
      vertex -6.21352 -2.79625 -0.881678
      vertex -6.21352 -1.5 -0.881678
    endloop
  endfacet
  facet normal 1 0 0
    outer loop
      vertex -6.21352 -1.5 0.881678
      vertex -6.21352 -4.10335 -0.119259
      vertex -6.21352 -2.79625 -0.881678
    endloop
  endfacet
  facet normal 1 -0 0
    outer loop
      vertex -6.21352 -5 0.881678
      vertex -6.21352 -4.10335 -0.119259
      vertex -6.21352 -1.5 0.881678
    endloop
  endfacet
  facet normal 1 0 0
    outer loop
      vertex -6.21352 -4.10335 -0.119259
      vertex -6.21352 -5 0.881678
      vertex -6.21352 -5 -0.119259
    endloop
  endfacet
  facet normal 0 -1 0
    outer loop
      vertex -6.21352 -1.5 0.881678
      vertex -3.5 -1.5 0
      vertex -4.53647 -1.5 1.42658
    endloop
  endfacet
  facet normal 0 -1 0
    outer loop
      vertex -6.21352 -1.5 -0.881678
      vertex -3.5 -1.5 0
      vertex -6.21352 -1.5 0.881678
    endloop
  endfacet
  facet normal 0 -1 0
    outer loop
      vertex -3.5 -1.5 0
      vertex -6.21352 -1.5 -0.881678
      vertex -4.53647 -1.5 -1.42658
    endloop
  endfacet
  facet normal -0.809017 0 0.587785
    outer loop
      vertex -4.2448 -2.55032 -1.02513
      vertex -4.53647 -1.5 -1.42658
      vertex -4.53647 -2.32089 -1.42658
    endloop
  endfacet
  facet normal -0.809017 1.58146e-07 0.587785
    outer loop
      vertex -4.53647 -1.5 -1.42658
      vertex -4.2448 -2.55032 -1.02513
      vertex -3.5 -1.5 0
    endloop
  endfacet
  facet normal -0.809018 1.08504e-06 0.587784
    outer loop
      vertex -3.58665 -4.10335 -0.119259
      vertex -3.5 -1.5 0
      vertex -4.2448 -2.55032 -1.02513
    endloop
  endfacet
  facet normal -0.809006 0 0.5878
    outer loop
      vertex -3.5 -5 0
      vertex -3.58665 -4.10335 -0.119259
      vertex -3.58665 -5 -0.119259
    endloop
  endfacet
  facet normal -0.809006 0 0.5878
    outer loop
      vertex -3.58665 -4.10335 -0.119259
      vertex -3.5 -5 0
      vertex -3.5 -1.5 0
    endloop
  endfacet
  facet normal 0.309012 0 0.951058
    outer loop
      vertex 5.46352 -1.5 -1.42658
      vertex 4.22796 -2.55032 -1.02513
      vertex 5.46352 -2.32089 -1.42658
    endloop
  endfacet
  facet normal 0.309015 -3.99151e-06 0.951057
    outer loop
      vertex 3.78647 -1.5 -0.881678
      vertex 4.22796 -2.55032 -1.02513
      vertex 5.46352 -1.5 -1.42658
    endloop
  endfacet
  facet normal 0.309023 0 0.951054
    outer loop
      vertex 4.22796 -2.55032 -1.02513
      vertex 3.78647 -1.5 -0.881678
      vertex 3.78647 -2.79625 -0.881678
    endloop
  endfacet
  facet normal 0.309015 0 -0.951057
    outer loop
      vertex 3.78647 -5 0.881678
      vertex 5.46352 -1.5 1.42658
      vertex 5.46352 -5 1.42658
    endloop
  endfacet
  facet normal 0.309015 0 -0.951057
    outer loop
      vertex 5.46352 -1.5 1.42658
      vertex 3.78647 -5 0.881678
      vertex 3.78647 -1.5 0.881678
    endloop
  endfacet
  facet normal -0.809015 0 -0.587789
    outer loop
      vertex 6.5 -5 0
      vertex 5.46352 -1.5 1.42658
      vertex 6.5 -1.5 0
    endloop
  endfacet
  facet normal -0.809015 -0 -0.587789
    outer loop
      vertex 5.46352 -1.5 1.42658
      vertex 6.5 -5 0
      vertex 5.46352 -5 1.42658
    endloop
  endfacet
  facet normal 1 0 0
    outer loop
      vertex 3.78647 -1.5 0.881678
      vertex 3.78647 -2.79625 -0.881678
      vertex 3.78647 -1.5 -0.881678
    endloop
  endfacet
  facet normal 1 0 0
    outer loop
      vertex 3.78647 -1.5 0.881678
      vertex 3.78647 -4.10335 -0.119259
      vertex 3.78647 -2.79625 -0.881678
    endloop
  endfacet
  facet normal 1 -0 0
    outer loop
      vertex 3.78647 -5 0.881678
      vertex 3.78647 -4.10335 -0.119259
      vertex 3.78647 -1.5 0.881678
    endloop
  endfacet
  facet normal 1 0 0
    outer loop
      vertex 3.78647 -4.10335 -0.119259
      vertex 3.78647 -5 0.881678
      vertex 3.78647 -5 -0.119259
    endloop
  endfacet
  facet normal -0.809008 0 0.587798
    outer loop
      vertex 5.7552 -2.55032 -1.02513
      vertex 5.46352 -1.5 -1.42658
      vertex 5.46352 -2.32089 -1.42658
    endloop
  endfacet
  facet normal -0.809015 -5.37685e-06 0.587789
    outer loop
      vertex 5.46352 -1.5 -1.42658
      vertex 5.7552 -2.55032 -1.02513
      vertex 6.5 -1.5 0
    endloop
  endfacet
  facet normal -0.809018 1.08504e-06 0.587784
    outer loop
      vertex 6.41335 -4.10335 -0.119259
      vertex 6.5 -1.5 0
      vertex 5.7552 -2.55032 -1.02513
    endloop
  endfacet
  facet normal -0.809006 0 0.5878
    outer loop
      vertex 6.5 -5 0
      vertex 6.41335 -4.10335 -0.119259
      vertex 6.41335 -5 -0.119259
    endloop
  endfacet
  facet normal -0.809006 0 0.5878
    outer loop
      vertex 6.41335 -4.10335 -0.119259
      vertex 6.5 -5 0
      vertex 6.5 -1.5 0
    endloop
  endfacet
  facet normal 0 -1 0
    outer loop
      vertex 3.78647 -1.5 0.881678
      vertex 6.5 -1.5 0
      vertex 5.46352 -1.5 1.42658
    endloop
  endfacet
  facet normal 0 -1 0
    outer loop
      vertex 3.78647 -1.5 -0.881678
      vertex 6.5 -1.5 0
      vertex 3.78647 -1.5 0.881678
    endloop
  endfacet
  facet normal 0 -1 0
    outer loop
      vertex 6.5 -1.5 0
      vertex 3.78647 -1.5 -0.881678
      vertex 5.46352 -1.5 -1.42658
    endloop
  endfacet
  facet normal 0.309025 0 0.951054
    outer loop
      vertex 15.4635 -1.5 -1.42658
      vertex 14.228 -2.55032 -1.02513
      vertex 15.4635 -2.32089 -1.42658
    endloop
  endfacet
  facet normal 0.309023 2.82338e-06 0.951055
    outer loop
      vertex 13.7865 -1.5 -0.881678
      vertex 14.228 -2.55032 -1.02513
      vertex 15.4635 -1.5 -1.42658
    endloop
  endfacet
  facet normal 0.309017 0 0.951057
    outer loop
      vertex 14.228 -2.55032 -1.02513
      vertex 13.7865 -1.5 -0.881678
      vertex 13.7865 -2.79625 -0.881678
    endloop
  endfacet
  facet normal 0.309023 0 -0.951055
    outer loop
      vertex 13.7865 -5 0.881678
      vertex 15.4635 -1.5 1.42658
      vertex 15.4635 -5 1.42658
    endloop
  endfacet
  facet normal 0.309023 0 -0.951055
    outer loop
      vertex 15.4635 -1.5 1.42658
      vertex 13.7865 -5 0.881678
      vertex 13.7865 -1.5 0.881678
    endloop
  endfacet
  facet normal -0.809009 0 -0.587796
    outer loop
      vertex 16.5 -5 0
      vertex 15.4635 -1.5 1.42658
      vertex 16.5 -1.5 0
    endloop
  endfacet
  facet normal -0.809009 -0 -0.587796
    outer loop
      vertex 15.4635 -1.5 1.42658
      vertex 16.5 -5 0
      vertex 15.4635 -5 1.42658
    endloop
  endfacet
  facet normal 1 0 0
    outer loop
      vertex 13.7865 -1.5 0.881678
      vertex 13.7865 -2.79625 -0.881678
      vertex 13.7865 -1.5 -0.881678
    endloop
  endfacet
  facet normal 1 0 0
    outer loop
      vertex 13.7865 -1.5 0.881678
      vertex 13.7865 -4.10335 -0.119259
      vertex 13.7865 -2.79625 -0.881678
    endloop
  endfacet
  facet normal 1 -0 0
    outer loop
      vertex 13.7865 -5 0.881678
      vertex 13.7865 -4.10335 -0.119259
      vertex 13.7865 -1.5 0.881678
    endloop
  endfacet
  facet normal 1 0 0
    outer loop
      vertex 13.7865 -4.10335 -0.119259
      vertex 13.7865 -5 0.881678
      vertex 13.7865 -5 -0.119259
    endloop
  endfacet
  facet normal 0 -1 0
    outer loop
      vertex 13.7865 -1.5 0.881678
      vertex 16.5 -1.5 0
      vertex 15.4635 -1.5 1.42658
    endloop
  endfacet
  facet normal 0 -1 0
    outer loop
      vertex 13.7865 -1.5 -0.881678
      vertex 16.5 -1.5 0
      vertex 13.7865 -1.5 0.881678
    endloop
  endfacet
  facet normal 0 -1 0
    outer loop
      vertex 16.5 -1.5 0
      vertex 13.7865 -1.5 -0.881678
      vertex 15.4635 -1.5 -1.42658
    endloop
  endfacet
  facet normal -0.808989 0 0.587824
    outer loop
      vertex 15.7552 -2.55032 -1.02513
      vertex 15.4635 -1.5 -1.42658
      vertex 15.4635 -2.32089 -1.42658
    endloop
  endfacet
  facet normal -0.809009 -1.64467e-05 0.587796
    outer loop
      vertex 15.4635 -1.5 -1.42658
      vertex 15.7552 -2.55032 -1.02513
      vertex 16.5 -1.5 0
    endloop
  endfacet
  facet normal -0.80901 -1.5218e-05 0.587795
    outer loop
      vertex 16.4134 -4.10335 -0.119259
      vertex 16.5 -1.5 0
      vertex 15.7552 -2.55032 -1.02513
    endloop
  endfacet
  facet normal -0.809168 0 0.587578
    outer loop
      vertex 16.5 -5 0
      vertex 16.4134 -4.10335 -0.119259
      vertex 16.4134 -5 -0.119259
    endloop
  endfacet
  facet normal -0.809168 0 0.587578
    outer loop
      vertex 16.4134 -4.10335 -0.119259
      vertex 16.5 -5 0
      vertex 16.5 -1.5 0
    endloop
  endfacet
  facet normal 0.309025 0 0.951054
    outer loop
      vertex 25.4635 -1.5 -1.42658
      vertex 24.228 -2.55032 -1.02513
      vertex 25.4635 -2.32089 -1.42658
    endloop
  endfacet
  facet normal 0.309023 2.82338e-06 0.951055
    outer loop
      vertex 23.7865 -1.5 -0.881678
      vertex 24.228 -2.55032 -1.02513
      vertex 25.4635 -1.5 -1.42658
    endloop
  endfacet
  facet normal 0.309017 0 0.951057
    outer loop
      vertex 24.228 -2.55032 -1.02513
      vertex 23.7865 -1.5 -0.881678
      vertex 23.7865 -2.79625 -0.881678
    endloop
  endfacet
  facet normal 0.309023 0 -0.951055
    outer loop
      vertex 23.7865 -5 0.881678
      vertex 25.4635 -1.5 1.42658
      vertex 25.4635 -5 1.42658
    endloop
  endfacet
  facet normal 0.309023 0 -0.951055
    outer loop
      vertex 25.4635 -1.5 1.42658
      vertex 23.7865 -5 0.881678
      vertex 23.7865 -1.5 0.881678
    endloop
  endfacet
  facet normal -0.809009 0 -0.587796
    outer loop
      vertex 26.5 -5 0
      vertex 25.4635 -1.5 1.42658
      vertex 26.5 -1.5 0
    endloop
  endfacet
  facet normal -0.809009 -0 -0.587796
    outer loop
      vertex 25.4635 -1.5 1.42658
      vertex 26.5 -5 0
      vertex 25.4635 -5 1.42658
    endloop
  endfacet
  facet normal 1 0 0
    outer loop
      vertex 23.7865 -1.5 0.881678
      vertex 23.7865 -2.79625 -0.881678
      vertex 23.7865 -1.5 -0.881678
    endloop
  endfacet
  facet normal 1 0 0
    outer loop
      vertex 23.7865 -1.5 0.881678
      vertex 23.7865 -4.10335 -0.119259
      vertex 23.7865 -2.79625 -0.881678
    endloop
  endfacet
  facet normal 1 -0 0
    outer loop
      vertex 23.7865 -5 0.881678
      vertex 23.7865 -4.10335 -0.119259
      vertex 23.7865 -1.5 0.881678
    endloop
  endfacet
  facet normal 1 0 0
    outer loop
      vertex 23.7865 -4.10335 -0.119259
      vertex 23.7865 -5 0.881678
      vertex 23.7865 -5 -0.119259
    endloop
  endfacet
  facet normal 0 -1 0
    outer loop
      vertex 23.7865 -1.5 0.881678
      vertex 26.5 -1.5 0
      vertex 25.4635 -1.5 1.42658
    endloop
  endfacet
  facet normal 0 -1 0
    outer loop
      vertex 23.7865 -1.5 -0.881678
      vertex 26.5 -1.5 0
      vertex 23.7865 -1.5 0.881678
    endloop
  endfacet
  facet normal 0 -1 0
    outer loop
      vertex 26.5 -1.5 0
      vertex 23.7865 -1.5 -0.881678
      vertex 25.4635 -1.5 -1.42658
    endloop
  endfacet
  facet normal -0.808989 0 0.587824
    outer loop
      vertex 25.7552 -2.55032 -1.02513
      vertex 25.4635 -1.5 -1.42658
      vertex 25.4635 -2.32089 -1.42658
    endloop
  endfacet
  facet normal -0.809009 -1.64467e-05 0.587796
    outer loop
      vertex 25.4635 -1.5 -1.42658
      vertex 25.7552 -2.55032 -1.02513
      vertex 26.5 -1.5 0
    endloop
  endfacet
  facet normal -0.80901 -1.5218e-05 0.587795
    outer loop
      vertex 26.4134 -4.10335 -0.119259
      vertex 26.5 -1.5 0
      vertex 25.7552 -2.55032 -1.02513
    endloop
  endfacet
  facet normal -0.809168 0 0.587578
    outer loop
      vertex 26.5 -5 0
      vertex 26.4134 -4.10335 -0.119259
      vertex 26.4134 -5 -0.119259
    endloop
  endfacet
  facet normal -0.809168 0 0.587578
    outer loop
      vertex 26.4134 -4.10335 -0.119259
      vertex 26.5 -5 0
      vertex 26.5 -1.5 0
    endloop
  endfacet
  facet normal 1 -0 0
    outer loop
      vertex 30 -2.00278 -2.09395
      vertex 30 5 -3.5
      vertex 30 5 3.5
    endloop
  endfacet
  facet normal 1 0 0
    outer loop
      vertex 30 5 -3.5
      vertex 30 -2.00278 -2.09395
      vertex 30 -1.72285 -2.59413
    endloop
  endfacet
  facet normal 1 0 0
    outer loop
      vertex 30 5 3.5
      vertex 30 -2.60096 -1.02513
      vertex 30 -2.00278 -2.09395
    endloop
  endfacet
  facet normal 1 -0 0
    outer loop
      vertex 30 -5 3.5
      vertex 30 -2.60096 -1.02513
      vertex 30 5 3.5
    endloop
  endfacet
  facet normal 1 0 0
    outer loop
      vertex 30 -2.60096 -1.02513
      vertex 30 -5 3.5
      vertex 30 -3.33627 -0.587175
    endloop
  endfacet
  facet normal 1 0 0
    outer loop
      vertex 30 -3.33627 -0.587175
      vertex 30 -5 3.5
      vertex 30 -4.12189 -0.119259
    endloop
  endfacet
  facet normal 1 0 0
    outer loop
      vertex 30 -4.12189 -0.119259
      vertex 30 -5 3.5
      vertex 30 -5 -0.119259
    endloop
  endfacet
  facet normal 1 0 0
    outer loop
      vertex 30 5 -3.5
      vertex 30 -1.72285 -2.59413
      vertex 30 -1.72285 -3.5
    endloop
  endfacet
  facet normal -0 0 1
    outer loop
      vertex -30 5 3.5
      vertex 30 -5 3.5
      vertex 30 5 3.5
    endloop
  endfacet
  facet normal 0 0 1
    outer loop
      vertex 30 -5 3.5
      vertex -30 5 3.5
      vertex -30 -5 3.5
    endloop
  endfacet
  facet normal 0 0 -1
    outer loop
      vertex 29.5189 -1.65367 -3.5
      vertex 30 5 -3.5
      vertex 30 -1.72285 -3.5
    endloop
  endfacet
  facet normal 0 0 -1
    outer loop
      vertex -30 5 -3.5
      vertex 29.5189 -1.65367 -3.5
      vertex -30 -1.65367 -3.5
    endloop
  endfacet
  facet normal 0 0 -1
    outer loop
      vertex 29.5189 -1.65367 -3.5
      vertex -30 5 -3.5
      vertex 30 5 -3.5
    endloop
  endfacet
  facet normal -1 0 0
    outer loop
      vertex -30 -1.65367 -2.59413
      vertex -30 5 -3.5
      vertex -30 -1.65367 -3.5
    endloop
  endfacet
  facet normal -1 0 0
    outer loop
      vertex -30 5 -3.5
      vertex -30 -1.65367 -2.59413
      vertex -30 5 3.5
    endloop
  endfacet
  facet normal -1 0 0
    outer loop
      vertex -30 -2.55032 -1.02513
      vertex -30 5 3.5
      vertex -30 -1.65367 -2.59413
    endloop
  endfacet
  facet normal -1 0 0
    outer loop
      vertex -30 -5 3.5
      vertex -30 -2.55032 -1.02513
      vertex -30 -4.10335 -0.119259
    endloop
  endfacet
  facet normal -1 0 0
    outer loop
      vertex -30 -5 3.5
      vertex -30 -4.10335 -0.119259
      vertex -30 -5 -0.119259
    endloop
  endfacet
  facet normal -1 0 0
    outer loop
      vertex -30 -2.55032 -1.02513
      vertex -30 -5 3.5
      vertex -30 5 3.5
    endloop
  endfacet
  facet normal 0 1 -0
    outer loop
      vertex 30 5 -3.5
      vertex -30 5 3.5
      vertex 30 5 3.5
    endloop
  endfacet
  facet normal 0 1 0
    outer loop
      vertex -30 5 3.5
      vertex 30 5 -3.5
      vertex -30 5 -3.5
    endloop
  endfacet
  facet normal 0 -1 0
    outer loop
      vertex 15.4635 -5 1.42658
      vertex 23.7865 -5 0.881678
      vertex 25.4635 -5 1.42658
    endloop
  endfacet
  facet normal 0 -1 0
    outer loop
      vertex 16.5 -5 0
      vertex 23.7865 -5 0.881678
      vertex 15.4635 -5 1.42658
    endloop
  endfacet
  facet normal 0 -1 0
    outer loop
      vertex 23.7865 -5 -0.119259
      vertex 16.5 -5 0
      vertex 16.4134 -5 -0.119259
    endloop
  endfacet
  facet normal 0 -1 0
    outer loop
      vertex 16.5 -5 0
      vertex 23.7865 -5 -0.119259
      vertex 23.7865 -5 0.881678
    endloop
  endfacet
  facet normal 0 -1 0
    outer loop
      vertex 5.46352 -5 1.42658
      vertex 13.7865 -5 0.881678
      vertex 15.4635 -5 1.42658
    endloop
  endfacet
  facet normal 0 -1 0
    outer loop
      vertex 6.5 -5 0
      vertex 13.7865 -5 0.881678
      vertex 5.46352 -5 1.42658
    endloop
  endfacet
  facet normal 0 -1 0
    outer loop
      vertex 13.7865 -5 -0.119259
      vertex 6.5 -5 0
      vertex 6.41335 -5 -0.119259
    endloop
  endfacet
  facet normal 0 -1 0
    outer loop
      vertex 6.5 -5 0
      vertex 13.7865 -5 -0.119259
      vertex 13.7865 -5 0.881678
    endloop
  endfacet
  facet normal 0 -1 0
    outer loop
      vertex -4.53647 -5 1.42658
      vertex 3.78647 -5 0.881678
      vertex 5.46352 -5 1.42658
    endloop
  endfacet
  facet normal 0 -1 0
    outer loop
      vertex -3.5 -5 0
      vertex 3.78647 -5 0.881678
      vertex -4.53647 -5 1.42658
    endloop
  endfacet
  facet normal 0 -1 0
    outer loop
      vertex 3.78647 -5 -0.119259
      vertex -3.5 -5 0
      vertex -3.58665 -5 -0.119259
    endloop
  endfacet
  facet normal 0 -1 0
    outer loop
      vertex -3.5 -5 0
      vertex 3.78647 -5 -0.119259
      vertex 3.78647 -5 0.881678
    endloop
  endfacet
  facet normal 0 -1 0
    outer loop
      vertex -14.5365 -5 1.42658
      vertex -6.21352 -5 0.881678
      vertex -4.53647 -5 1.42658
    endloop
  endfacet
  facet normal 0 -1 0
    outer loop
      vertex -13.5 -5 0
      vertex -6.21352 -5 0.881678
      vertex -14.5365 -5 1.42658
    endloop
  endfacet
  facet normal 0 -1 0
    outer loop
      vertex -6.21352 -5 -0.119259
      vertex -13.5 -5 0
      vertex -13.5866 -5 -0.119259
    endloop
  endfacet
  facet normal 0 -1 0
    outer loop
      vertex -13.5 -5 0
      vertex -6.21352 -5 -0.119259
      vertex -6.21352 -5 0.881678
    endloop
  endfacet
  facet normal 0 -1 0
    outer loop
      vertex -24.5365 -5 1.42658
      vertex -16.2135 -5 0.881678
      vertex -14.5365 -5 1.42658
    endloop
  endfacet
  facet normal 0 -1 0
    outer loop
      vertex -23.5 -5 0
      vertex -16.2135 -5 0.881678
      vertex -24.5365 -5 1.42658
    endloop
  endfacet
  facet normal 0 -1 0
    outer loop
      vertex -16.2135 -5 -0.119259
      vertex -23.5 -5 0
      vertex -23.5866 -5 -0.119259
    endloop
  endfacet
  facet normal 0 -1 0
    outer loop
      vertex -23.5 -5 0
      vertex -16.2135 -5 -0.119259
      vertex -16.2135 -5 0.881678
    endloop
  endfacet
  facet normal 0 -1 0
    outer loop
      vertex -14.5365 -5 1.42658
      vertex -30 -5 3.5
      vertex -24.5365 -5 1.42658
    endloop
  endfacet
  facet normal 0 -1 0
    outer loop
      vertex -30 -5 3.5
      vertex -26.2135 -5 0.881678
      vertex -24.5365 -5 1.42658
    endloop
  endfacet
  facet normal 0 -1 0
    outer loop
      vertex -30 -5 -0.119259
      vertex -26.2135 -5 0.881678
      vertex -30 -5 3.5
    endloop
  endfacet
  facet normal 0 -1 -0
    outer loop
      vertex -26.2135 -5 0.881678
      vertex -30 -5 -0.119259
      vertex -26.2135 -5 -0.119259
    endloop
  endfacet
  facet normal 0 -1 0
    outer loop
      vertex -4.53647 -5 1.42658
      vertex -30 -5 3.5
      vertex -14.5365 -5 1.42658
    endloop
  endfacet
  facet normal 0 -1 0
    outer loop
      vertex -30 -5 3.5
      vertex -4.53647 -5 1.42658
      vertex 30 -5 3.5
    endloop
  endfacet
  facet normal 0 -1 0
    outer loop
      vertex 5.46352 -5 1.42658
      vertex 30 -5 3.5
      vertex -4.53647 -5 1.42658
    endloop
  endfacet
  facet normal 0 -1 0
    outer loop
      vertex 15.4635 -5 1.42658
      vertex 30 -5 3.5
      vertex 5.46352 -5 1.42658
    endloop
  endfacet
  facet normal 0 -1 0
    outer loop
      vertex 25.4635 -5 1.42658
      vertex 30 -5 3.5
      vertex 15.4635 -5 1.42658
    endloop
  endfacet
  facet normal 0 -1 0
    outer loop
      vertex 26.5 -5 0
      vertex 30 -5 3.5
      vertex 25.4635 -5 1.42658
    endloop
  endfacet
  facet normal 0 -1 0
    outer loop
      vertex 30 -5 -0.119259
      vertex 26.5 -5 0
      vertex 26.4134 -5 -0.119259
    endloop
  endfacet
  facet normal 0 -1 0
    outer loop
      vertex 26.5 -5 0
      vertex 30 -5 -0.119259
      vertex 30 -5 3.5
    endloop
  endfacet
  facet normal -0.142331 -0.989819 0
    outer loop
      vertex 29.5189 -1.65367 -3.5
      vertex 30 -1.72285 -2.59413
      vertex 29.5189 -1.65367 -2.59413
    endloop
  endfacet
  facet normal -0.142331 -0.989819 -0
    outer loop
      vertex 30 -1.72285 -2.59413
      vertex 29.5189 -1.65367 -3.5
      vertex 30 -1.72285 -3.5
    endloop
  endfacet
  facet normal 0 -1 0
    outer loop
      vertex -30 -1.65367 -3.5
      vertex 29.5189 -1.65367 -2.59413
      vertex -30 -1.65367 -2.59413
    endloop
  endfacet
  facet normal 0 -1 -0
    outer loop
      vertex 29.5189 -1.65367 -2.59413
      vertex -30 -1.65367 -3.5
      vertex 29.5189 -1.65367 -3.5
    endloop
  endfacet
  facet normal 0 -0.503845 -0.863794
    outer loop
      vertex 26.4134 -4.10335 -0.119259
      vertex 29.6478 -2.55032 -1.02513
      vertex 29.8711 -4.10335 -0.119259
    endloop
  endfacet
  facet normal -0 -0.503845 -0.863794
    outer loop
      vertex 29.6478 -2.55032 -1.02513
      vertex 26.4134 -4.10335 -0.119259
      vertex 25.7552 -2.55032 -1.02513
    endloop
  endfacet
  facet normal -0 -0.503843 -0.863795
    outer loop
      vertex -26.2135 -4.10335 -0.119259
      vertex -30 -4.10335 -0.119259
      vertex -26.2135 -2.79625 -0.881678
    endloop
  endfacet
  facet normal 6.46982e-07 -0.503845 -0.863794
    outer loop
      vertex -30 -2.55032 -1.02513
      vertex -26.2135 -2.79625 -0.881678
      vertex -30 -4.10335 -0.119259
    endloop
  endfacet
  facet normal 0 -0.503852 -0.86379
    outer loop
      vertex -26.2135 -2.79625 -0.881678
      vertex -30 -2.55032 -1.02513
      vertex -25.772 -2.55032 -1.02513
    endloop
  endfacet
  facet normal -0 -0.503843 -0.863795
    outer loop
      vertex -16.2135 -4.10335 -0.119259
      vertex -23.5866 -4.10335 -0.119259
      vertex -16.2135 -2.79625 -0.881678
    endloop
  endfacet
  facet normal 3.09042e-07 -0.503845 -0.863794
    outer loop
      vertex -24.2448 -2.55032 -1.02513
      vertex -16.2135 -2.79625 -0.881678
      vertex -23.5866 -4.10335 -0.119259
    endloop
  endfacet
  facet normal 0 -0.503852 -0.86379
    outer loop
      vertex -16.2135 -2.79625 -0.881678
      vertex -24.2448 -2.55032 -1.02513
      vertex -15.772 -2.55032 -1.02513
    endloop
  endfacet
  facet normal -0 -0.503843 -0.863795
    outer loop
      vertex -6.21352 -4.10335 -0.119259
      vertex -13.5866 -4.10335 -0.119259
      vertex -6.21352 -2.79625 -0.881678
    endloop
  endfacet
  facet normal 3.09043e-07 -0.503845 -0.863794
    outer loop
      vertex -14.2448 -2.55032 -1.02513
      vertex -6.21352 -2.79625 -0.881678
      vertex -13.5866 -4.10335 -0.119259
    endloop
  endfacet
  facet normal 0 -0.503852 -0.86379
    outer loop
      vertex -6.21352 -2.79625 -0.881678
      vertex -14.2448 -2.55032 -1.02513
      vertex -5.77204 -2.55032 -1.02513
    endloop
  endfacet
  facet normal -0 -0.503843 -0.863795
    outer loop
      vertex 3.78647 -4.10335 -0.119259
      vertex -3.58665 -4.10335 -0.119259
      vertex 3.78647 -2.79625 -0.881678
    endloop
  endfacet
  facet normal 3.09043e-07 -0.503845 -0.863794
    outer loop
      vertex -4.2448 -2.55032 -1.02513
      vertex 3.78647 -2.79625 -0.881678
      vertex -3.58665 -4.10335 -0.119259
    endloop
  endfacet
  facet normal 0 -0.503852 -0.86379
    outer loop
      vertex 3.78647 -2.79625 -0.881678
      vertex -4.2448 -2.55032 -1.02513
      vertex 4.22796 -2.55032 -1.02513
    endloop
  endfacet
  facet normal -0 -0.503843 -0.863795
    outer loop
      vertex 13.7865 -4.10335 -0.119259
      vertex 6.41335 -4.10335 -0.119259
      vertex 13.7865 -2.79625 -0.881678
    endloop
  endfacet
  facet normal 3.09042e-07 -0.503845 -0.863794
    outer loop
      vertex 5.7552 -2.55032 -1.02513
      vertex 13.7865 -2.79625 -0.881678
      vertex 6.41335 -4.10335 -0.119259
    endloop
  endfacet
  facet normal 0 -0.503852 -0.86379
    outer loop
      vertex 13.7865 -2.79625 -0.881678
      vertex 5.7552 -2.55032 -1.02513
      vertex 14.228 -2.55032 -1.02513
    endloop
  endfacet
  facet normal -0 -0.503843 -0.863795
    outer loop
      vertex 23.7865 -4.10335 -0.119259
      vertex 16.4134 -4.10335 -0.119259
      vertex 23.7865 -2.79625 -0.881678
    endloop
  endfacet
  facet normal 3.09042e-07 -0.503845 -0.863794
    outer loop
      vertex 15.7552 -2.55032 -1.02513
      vertex 23.7865 -2.79625 -0.881678
      vertex 16.4134 -4.10335 -0.119259
    endloop
  endfacet
  facet normal 0 -0.503852 -0.86379
    outer loop
      vertex 23.7865 -2.79625 -0.881678
      vertex 15.7552 -2.55032 -1.02513
      vertex 24.228 -2.55032 -1.02513
    endloop
  endfacet
  facet normal -0.124504 -0.865843 -0.484576
    outer loop
      vertex 30 -1.72285 -2.59413
      vertex 30 -2.00278 -2.09395
      vertex 29.5189 -1.65367 -2.59413
    endloop
  endfacet
  facet normal -0.0734025 -0.510334 -0.856838
    outer loop
      vertex 29.8711 -4.10335 -0.119259
      vertex 30 -3.33627 -0.587175
      vertex 30 -4.12189 -0.119259
    endloop
  endfacet
  facet normal -0.0733772 -0.510338 -0.856838
    outer loop
      vertex 30 -3.33627 -0.587175
      vertex 29.8711 -4.10335 -0.119259
      vertex 29.6478 -2.55032 -1.02513
    endloop
  endfacet
  facet normal 0 -0.868224 -0.496172
    outer loop
      vertex -30 -1.65367 -2.59413
      vertex -25.772 -2.55032 -1.02513
      vertex -30 -2.55032 -1.02513
    endloop
  endfacet
  facet normal 0 -0.868228 -0.496166
    outer loop
      vertex -30 -1.65367 -2.59413
      vertex -14.5365 -2.32089 -1.42658
      vertex -24.5365 -2.32089 -1.42658
    endloop
  endfacet
  facet normal 0 -0.868228 -0.496166
    outer loop
      vertex -14.5365 -2.32089 -1.42658
      vertex -30 -1.65367 -2.59413
      vertex -4.53647 -2.32089 -1.42658
    endloop
  endfacet
  facet normal 0 -0.868228 -0.496166
    outer loop
      vertex -4.53647 -2.32089 -1.42658
      vertex -30 -1.65367 -2.59413
      vertex 5.46352 -2.32089 -1.42658
    endloop
  endfacet
  facet normal -0 -0.868228 -0.496166
    outer loop
      vertex 29.5189 -1.65367 -2.59413
      vertex 5.46352 -2.32089 -1.42658
      vertex -30 -1.65367 -2.59413
    endloop
  endfacet
  facet normal 0 -0.868228 -0.496166
    outer loop
      vertex 5.46352 -2.32089 -1.42658
      vertex 29.5189 -1.65367 -2.59413
      vertex 15.4635 -2.32089 -1.42658
    endloop
  endfacet
  facet normal 3.7079e-06 -0.86822 -0.496179
    outer loop
      vertex -25.772 -2.55032 -1.02513
      vertex -30 -1.65367 -2.59413
      vertex -24.5365 -2.32089 -1.42658
    endloop
  endfacet
  facet normal 0 -0.868215 -0.496188
    outer loop
      vertex -24.5365 -2.32089 -1.42658
      vertex -15.772 -2.55032 -1.02513
      vertex -24.2448 -2.55032 -1.02513
    endloop
  endfacet
  facet normal 0 -0.868215 -0.496188
    outer loop
      vertex -15.772 -2.55032 -1.02513
      vertex -24.5365 -2.32089 -1.42658
      vertex -14.5365 -2.32089 -1.42658
    endloop
  endfacet
  facet normal 0 -0.868215 -0.496188
    outer loop
      vertex -14.5365 -2.32089 -1.42658
      vertex -5.77204 -2.55032 -1.02513
      vertex -14.2448 -2.55032 -1.02513
    endloop
  endfacet
  facet normal 0 -0.868215 -0.496188
    outer loop
      vertex -5.77204 -2.55032 -1.02513
      vertex -14.5365 -2.32089 -1.42658
      vertex -4.53647 -2.32089 -1.42658
    endloop
  endfacet
  facet normal 0 -0.868215 -0.496188
    outer loop
      vertex -4.53647 -2.32089 -1.42658
      vertex 4.22796 -2.55032 -1.02513
      vertex -4.2448 -2.55032 -1.02513
    endloop
  endfacet
  facet normal 0 -0.868215 -0.496188
    outer loop
      vertex 4.22796 -2.55032 -1.02513
      vertex -4.53647 -2.32089 -1.42658
      vertex 5.46352 -2.32089 -1.42658
    endloop
  endfacet
  facet normal 0 -0.868215 -0.496188
    outer loop
      vertex 5.46352 -2.32089 -1.42658
      vertex 14.228 -2.55032 -1.02513
      vertex 5.7552 -2.55032 -1.02513
    endloop
  endfacet
  facet normal 0 -0.868215 -0.496188
    outer loop
      vertex 14.228 -2.55032 -1.02513
      vertex 5.46352 -2.32089 -1.42658
      vertex 15.4635 -2.32089 -1.42658
    endloop
  endfacet
  facet normal 0 -0.868215 -0.496188
    outer loop
      vertex 15.4635 -2.32089 -1.42658
      vertex 24.228 -2.55032 -1.02513
      vertex 15.7552 -2.55032 -1.02513
    endloop
  endfacet
  facet normal 0 -0.868215 -0.496188
    outer loop
      vertex 24.228 -2.55032 -1.02513
      vertex 15.4635 -2.32089 -1.42658
      vertex 25.4635 -2.32089 -1.42658
    endloop
  endfacet
  facet normal -6.84809e-06 -0.868217 -0.496184
    outer loop
      vertex 29.5189 -1.65367 -2.59413
      vertex 25.7552 -2.55032 -1.02513
      vertex 25.4635 -2.32089 -1.42658
    endloop
  endfacet
  facet normal 0 -0.868224 -0.496172
    outer loop
      vertex 25.7552 -2.55032 -1.02513
      vertex 29.5189 -1.65367 -2.59413
      vertex 29.6478 -2.55032 -1.02513
    endloop
  endfacet
  facet normal 0 -0.868228 -0.496166
    outer loop
      vertex 15.4635 -2.32089 -1.42658
      vertex 29.5189 -1.65367 -2.59413
      vertex 25.4635 -2.32089 -1.42658
    endloop
  endfacet
  facet normal -0.124493 -0.865842 -0.484581
    outer loop
      vertex 29.6478 -2.55032 -1.02513
      vertex 30 -2.00278 -2.09395
      vertex 30 -2.60096 -1.02513
    endloop
  endfacet
  facet normal -0.124497 -0.865841 -0.484582
    outer loop
      vertex 30 -2.00278 -2.09395
      vertex 29.6478 -2.55032 -1.02513
      vertex 29.5189 -1.65367 -2.59413
    endloop
  endfacet
  facet normal -0.0733774 -0.510338 -0.856838
    outer loop
      vertex 30 -2.60096 -1.02513
      vertex 30 -3.33627 -0.587175
      vertex 29.6478 -2.55032 -1.02513
    endloop
  endfacet
  facet normal 0 0 -1
    outer loop
      vertex 30 -5 -0.119259
      vertex 29.8711 -4.10335 -0.119259
      vertex 30 -4.12189 -0.119259
    endloop
  endfacet
  facet normal 0 0 -1
    outer loop
      vertex 26.4134 -5 -0.119259
      vertex 29.8711 -4.10335 -0.119259
      vertex 30 -5 -0.119259
    endloop
  endfacet
  facet normal -0 0 -1
    outer loop
      vertex 29.8711 -4.10335 -0.119259
      vertex 26.4134 -5 -0.119259
      vertex 26.4134 -4.10335 -0.119259
    endloop
  endfacet
  facet normal 0 0 -1
    outer loop
      vertex -30 -5 -0.119259
      vertex -26.2135 -4.10335 -0.119259
      vertex -26.2135 -5 -0.119259
    endloop
  endfacet
  facet normal -0 0 -1
    outer loop
      vertex -26.2135 -4.10335 -0.119259
      vertex -30 -5 -0.119259
      vertex -30 -4.10335 -0.119259
    endloop
  endfacet
  facet normal 0 0 -1
    outer loop
      vertex -23.5866 -5 -0.119259
      vertex -16.2135 -4.10335 -0.119259
      vertex -16.2135 -5 -0.119259
    endloop
  endfacet
  facet normal -0 0 -1
    outer loop
      vertex -16.2135 -4.10335 -0.119259
      vertex -23.5866 -5 -0.119259
      vertex -23.5866 -4.10335 -0.119259
    endloop
  endfacet
  facet normal 0 0 -1
    outer loop
      vertex -13.5866 -5 -0.119259
      vertex -6.21352 -4.10335 -0.119259
      vertex -6.21352 -5 -0.119259
    endloop
  endfacet
  facet normal -0 0 -1
    outer loop
      vertex -6.21352 -4.10335 -0.119259
      vertex -13.5866 -5 -0.119259
      vertex -13.5866 -4.10335 -0.119259
    endloop
  endfacet
  facet normal 0 0 -1
    outer loop
      vertex -3.58665 -5 -0.119259
      vertex 3.78647 -4.10335 -0.119259
      vertex 3.78647 -5 -0.119259
    endloop
  endfacet
  facet normal -0 0 -1
    outer loop
      vertex 3.78647 -4.10335 -0.119259
      vertex -3.58665 -5 -0.119259
      vertex -3.58665 -4.10335 -0.119259
    endloop
  endfacet
  facet normal 0 0 -1
    outer loop
      vertex 6.41335 -5 -0.119259
      vertex 13.7865 -4.10335 -0.119259
      vertex 13.7865 -5 -0.119259
    endloop
  endfacet
  facet normal -0 0 -1
    outer loop
      vertex 13.7865 -4.10335 -0.119259
      vertex 6.41335 -5 -0.119259
      vertex 6.41335 -4.10335 -0.119259
    endloop
  endfacet
  facet normal 0 0 -1
    outer loop
      vertex 16.4134 -5 -0.119259
      vertex 23.7865 -4.10335 -0.119259
      vertex 23.7865 -5 -0.119259
    endloop
  endfacet
  facet normal -0 0 -1
    outer loop
      vertex 23.7865 -4.10335 -0.119259
      vertex 16.4134 -5 -0.119259
      vertex 16.4134 -4.10335 -0.119259
    endloop
  endfacet
  facet normal -0.672489 -0.30906 0.672489
    outer loop
      vertex 12.426 -1.76336 38.8583
      vertex -16.2635 0 10.9792
      vertex -15.8583 -1.76336 10.574
    endloop
  endfacet
  facet normal -0.672489 -0.30906 0.672489
    outer loop
      vertex -16.2635 0 10.9792
      vertex 12.426 -1.76336 38.8583
      vertex 12.0208 0 39.2635
    endloop
  endfacet
  facet normal 0.415628 0.809015 -0.415629
    outer loop
      vertex 15.8583 1.76336 35.4259
      vertex -13.4866 2.85317 8.20234
      vertex 14.7977 2.85317 36.4866
    endloop
  endfacet
  facet normal 0.415633 0.80901 -0.415634
    outer loop
      vertex -13.4866 2.85317 8.20234
      vertex 15.8583 1.76336 35.4259
      vertex -12.426 1.76336 7.14168
    endloop
  endfacet
  facet normal 0.672496 0.309026 -0.672497
    outer loop
      vertex 16.2635 0 35.0208
      vertex -12.426 1.76336 7.14168
      vertex 15.8583 1.76336 35.4259
    endloop
  endfacet
  facet normal 0.672493 0.30904 -0.672494
    outer loop
      vertex -12.426 1.76336 7.14168
      vertex 16.2635 0 35.0208
      vertex -12.0208 0 6.73654
    endloop
  endfacet
  facet normal 0 1 0
    outer loop
      vertex 14.7977 2.85317 36.4866
      vertex -14.7977 2.85317 9.51339
      vertex 13.4866 2.85317 37.7977
    endloop
  endfacet
  facet normal -0 1 0
    outer loop
      vertex -14.7977 2.85317 9.51339
      vertex 14.7977 2.85317 36.4866
      vertex -13.4866 2.85317 8.20234
    endloop
  endfacet
  facet normal -0.415641 0.809002 0.415641
    outer loop
      vertex 13.4866 2.85317 37.7977
      vertex -15.8583 1.76336 10.574
      vertex 12.426 1.76336 38.8583
    endloop
  endfacet
  facet normal -0.41564 0.809003 0.41564
    outer loop
      vertex -15.8583 1.76336 10.574
      vertex 13.4866 2.85317 37.7977
      vertex -14.7977 2.85317 9.51339
    endloop
  endfacet
  facet normal 0.707107 3.95586e-15 0.707107
    outer loop
      vertex 12.426 1.76336 38.8583
      vertex 14.7977 2.85317 36.4866
      vertex 13.4866 2.85317 37.7977
    endloop
  endfacet
  facet normal 0.707117 -4.48335e-05 0.707096
    outer loop
      vertex 12.426 1.76336 38.8583
      vertex 15.8583 1.76336 35.4259
      vertex 14.7977 2.85317 36.4866
    endloop
  endfacet
  facet normal 0.707117 -4.73393e-06 0.707096
    outer loop
      vertex 12.0208 0 39.2635
      vertex 15.8583 1.76336 35.4259
      vertex 12.426 1.76336 38.8583
    endloop
  endfacet
  facet normal 0.707107 4.01e-05 0.707107
    outer loop
      vertex 12.0208 0 39.2635
      vertex 16.2635 0 35.0208
      vertex 15.8583 1.76336 35.4259
    endloop
  endfacet
  facet normal 0.707107 -6.29598e-17 0.707107
    outer loop
      vertex 12.426 -1.76336 38.8583
      vertex 16.2635 0 35.0208
      vertex 12.0208 0 39.2635
    endloop
  endfacet
  facet normal 0.707117 -4.48333e-05 0.707096
    outer loop
      vertex 12.426 -1.76336 38.8583
      vertex 15.8583 -1.76336 35.4259
      vertex 16.2635 0 35.0208
    endloop
  endfacet
  facet normal 0.707117 2.00491e-05 0.707096
    outer loop
      vertex 13.4866 -2.85317 37.7977
      vertex 15.8583 -1.76336 35.4259
      vertex 12.426 -1.76336 38.8583
    endloop
  endfacet
  facet normal 0.707107 6.48835e-05 0.707107
    outer loop
      vertex 15.8583 -1.76336 35.4259
      vertex 13.4866 -2.85317 37.7977
      vertex 14.7977 -2.85317 36.4866
    endloop
  endfacet
  facet normal 0.672496 -0.309026 -0.672497
    outer loop
      vertex -12.426 -1.76336 7.14168
      vertex 16.2635 0 35.0208
      vertex 15.8583 -1.76336 35.4259
    endloop
  endfacet
  facet normal 0.672493 -0.30904 -0.672494
    outer loop
      vertex 16.2635 0 35.0208
      vertex -12.426 -1.76336 7.14168
      vertex -12.0208 0 6.73654
    endloop
  endfacet
  facet normal -0.415641 -0.809002 0.415641
    outer loop
      vertex -15.8583 -1.76336 10.574
      vertex 13.4866 -2.85317 37.7977
      vertex 12.426 -1.76336 38.8583
    endloop
  endfacet
  facet normal -0.41564 -0.809003 0.41564
    outer loop
      vertex 13.4866 -2.85317 37.7977
      vertex -15.8583 -1.76336 10.574
      vertex -14.7977 -2.85317 9.51339
    endloop
  endfacet
  facet normal 0 -1 0
    outer loop
      vertex -14.7977 -2.85317 9.51339
      vertex 14.7977 -2.85317 36.4866
      vertex 13.4866 -2.85317 37.7977
    endloop
  endfacet
  facet normal 0 -1 0
    outer loop
      vertex 14.7977 -2.85317 36.4866
      vertex -14.7977 -2.85317 9.51339
      vertex -13.4866 -2.85317 8.20234
    endloop
  endfacet
  facet normal 0.415628 -0.809015 -0.415629
    outer loop
      vertex -13.4866 -2.85317 8.20234
      vertex 15.8583 -1.76336 35.4259
      vertex 14.7977 -2.85317 36.4866
    endloop
  endfacet
  facet normal 0.415633 -0.80901 -0.415634
    outer loop
      vertex 15.8583 -1.76336 35.4259
      vertex -13.4866 -2.85317 8.20234
      vertex -12.426 -1.76336 7.14168
    endloop
  endfacet
  facet normal -0.672489 0.30906 0.672489
    outer loop
      vertex -16.2635 0 10.9792
      vertex 12.426 1.76336 38.8583
      vertex -15.8583 1.76336 10.574
    endloop
  endfacet
  facet normal -0.672489 0.30906 0.672489
    outer loop
      vertex 12.426 1.76336 38.8583
      vertex -16.2635 0 10.9792
      vertex 12.0208 0 39.2635
    endloop
  endfacet
  facet normal -0.707093 6.51747e-05 -0.70712
    outer loop
      vertex -12.426 1.76336 7.14168
      vertex -14.7977 2.85317 9.51339
      vertex -13.4866 2.85317 8.20234
    endloop
  endfacet
  facet normal -0.707109 -2.47847e-06 -0.707105
    outer loop
      vertex -12.426 1.76336 7.14168
      vertex -15.8583 1.76336 10.574
      vertex -14.7977 2.85317 9.51339
    endloop
  endfacet
  facet normal -0.707109 -2.50067e-05 -0.707105
    outer loop
      vertex -12.0208 0 6.73654
      vertex -15.8583 1.76336 10.574
      vertex -12.426 1.76336 7.14168
    endloop
  endfacet
  facet normal -0.707103 -1.53191e-06 -0.70711
    outer loop
      vertex -12.0208 0 6.73654
      vertex -16.2635 0 10.9792
      vertex -15.8583 1.76336 10.574
    endloop
  endfacet
  facet normal -0.707103 2.25282e-05 -0.70711
    outer loop
      vertex -12.426 -1.76336 7.14168
      vertex -16.2635 0 10.9792
      vertex -12.0208 0 6.73654
    endloop
  endfacet
  facet normal -0.707109 -9.46797e-07 -0.707105
    outer loop
      vertex -12.426 -1.76336 7.14168
      vertex -15.8583 -1.76336 10.574
      vertex -16.2635 0 10.9792
    endloop
  endfacet
  facet normal -0.707109 -3.49201e-05 -0.707105
    outer loop
      vertex -13.4866 -2.85317 8.20234
      vertex -15.8583 -1.76336 10.574
      vertex -12.426 -1.76336 7.14168
    endloop
  endfacet
  facet normal -0.707093 3.27324e-05 -0.70712
    outer loop
      vertex -15.8583 -1.76336 10.574
      vertex -13.4866 -2.85317 8.20234
      vertex -14.7977 -2.85317 9.51339
    endloop
  endfacet
endsolid OpenSCAD_Model
