solid OpenSCAD_Model
  facet normal -0.743147 -0.669129 0
    outer loop
      vertex -6.69131 -7.43145 -7.5
      vertex -8.09017 -5.87785 7.5
      vertex -8.09017 -5.87785 -7.5
    endloop
  endfacet
  facet normal -0.743147 -0.669129 0
    outer loop
      vertex -8.09017 -5.87785 7.5
      vertex -6.69131 -7.43145 -7.5
      vertex -6.69131 -7.43145 7.5
    endloop
  endfacet
  facet normal 0.951055 0.309021 0
    outer loop
      vertex 9.78148 2.07912 7.5
      vertex 9.13545 4.06737 -7.5
      vertex 9.13545 4.06737 7.5
    endloop
  endfacet
  facet normal 0.951055 0.309021 0
    outer loop
      vertex 9.13545 4.06737 -7.5
      vertex 9.78148 2.07912 7.5
      vertex 9.78148 2.07912 -7.5
    endloop
  endfacet
  facet normal 0.994522 0.104526 0
    outer loop
      vertex 10 0 7.5
      vertex 9.78148 2.07912 -7.5
      vertex 9.78148 2.07912 7.5
    endloop
  endfacet
  facet normal 0.994522 0.104526 0
    outer loop
      vertex 9.78148 2.07912 -7.5
      vertex 10 0 7.5
      vertex 10 0 -7.5
    endloop
  endfacet
  facet normal 0.866026 0.5 0
    outer loop
      vertex 9.13545 4.06737 7.5
      vertex 8.09017 5.87785 -7.5
      vertex 8.09017 5.87785 7.5
    endloop
  endfacet
  facet normal 0.866026 0.5 0
    outer loop
      vertex 8.09017 5.87785 -7.5
      vertex 9.13545 4.06737 7.5
      vertex 9.13545 4.06737 -7.5
    endloop
  endfacet
  facet normal 0.951055 -0.309021 0
    outer loop
      vertex 9.13545 -4.06737 7.5
      vertex 9.78148 -2.07912 -7.5
      vertex 9.78148 -2.07912 7.5
    endloop
  endfacet
  facet normal 0.951055 -0.309021 0
    outer loop
      vertex 9.78148 -2.07912 -7.5
      vertex 9.13545 -4.06737 7.5
      vertex 9.13545 -4.06737 -7.5
    endloop
  endfacet
  facet normal 0.587783 -0.809019 0
    outer loop
      vertex 5 -8.66025 -7.5
      vertex 6.69131 -7.43145 7.5
      vertex 5 -8.66025 7.5
    endloop
  endfacet
  facet normal 0.587783 -0.809019 0
    outer loop
      vertex 6.69131 -7.43145 7.5
      vertex 5 -8.66025 -7.5
      vertex 6.69131 -7.43145 -7.5
    endloop
  endfacet
  facet normal 0.743147 -0.669129 0
    outer loop
      vertex 6.69131 -7.43145 7.5
      vertex 8.09017 -5.87785 -7.5
      vertex 8.09017 -5.87785 7.5
    endloop
  endfacet
  facet normal 0.743147 -0.669129 0
    outer loop
      vertex 8.09017 -5.87785 -7.5
      vertex 6.69131 -7.43145 7.5
      vertex 6.69131 -7.43145 -7.5
    endloop
  endfacet
  facet normal 0.994522 -0.104526 0
    outer loop
      vertex 9.78148 -2.07912 7.5
      vertex 10 0 -7.5
      vertex 10 0 7.5
    endloop
  endfacet
  facet normal 0.994522 -0.104526 0
    outer loop
      vertex 10 0 -7.5
      vertex 9.78148 -2.07912 7.5
      vertex 9.78148 -2.07912 -7.5
    endloop
  endfacet
  facet normal -0.406736 -0.913546 0
    outer loop
      vertex -5 -8.66025 -7.5
      vertex -3.09017 -9.51056 7.5
      vertex -5 -8.66025 7.5
    endloop
  endfacet
  facet normal -0.406736 -0.913546 -0
    outer loop
      vertex -3.09017 -9.51056 7.5
      vertex -5 -8.66025 -7.5
      vertex -3.09017 -9.51056 -7.5
    endloop
  endfacet
  facet normal 0.406736 0.913546 -0
    outer loop
      vertex 5 8.66025 -7.5
      vertex 3.09017 9.51056 7.5
      vertex 5 8.66025 7.5
    endloop
  endfacet
  facet normal 0.406736 0.913546 0
    outer loop
      vertex 3.09017 9.51056 7.5
      vertex 5 8.66025 -7.5
      vertex 3.09017 9.51056 -7.5
    endloop
  endfacet
  facet normal 0.743147 0.669129 0
    outer loop
      vertex 8.09017 5.87785 7.5
      vertex 6.69131 7.43145 -7.5
      vertex 6.69131 7.43145 7.5
    endloop
  endfacet
  facet normal 0.743147 0.669129 0
    outer loop
      vertex 6.69131 7.43145 -7.5
      vertex 8.09017 5.87785 7.5
      vertex 8.09017 5.87785 -7.5
    endloop
  endfacet
  facet normal -0.587783 -0.809019 0
    outer loop
      vertex -6.69131 -7.43145 -7.5
      vertex -5 -8.66025 7.5
      vertex -6.69131 -7.43145 7.5
    endloop
  endfacet
  facet normal -0.587783 -0.809019 -0
    outer loop
      vertex -5 -8.66025 7.5
      vertex -6.69131 -7.43145 -7.5
      vertex -5 -8.66025 -7.5
    endloop
  endfacet
  facet normal -0.743147 0.669129 0
    outer loop
      vertex -8.09017 5.87785 -7.5
      vertex -6.69131 7.43145 7.5
      vertex -6.69131 7.43145 -7.5
    endloop
  endfacet
  facet normal -0.743147 0.669129 0
    outer loop
      vertex -6.69131 7.43145 7.5
      vertex -8.09017 5.87785 -7.5
      vertex -8.09017 5.87785 7.5
    endloop
  endfacet
  facet normal 0 1 -0
    outer loop
      vertex 1.04528 9.94522 -7.5
      vertex -1.04528 9.94522 7.5
      vertex 1.04528 9.94522 7.5
    endloop
  endfacet
  facet normal 0 1 0
    outer loop
      vertex -1.04528 9.94522 7.5
      vertex 1.04528 9.94522 -7.5
      vertex -1.04528 9.94522 -7.5
    endloop
  endfacet
  facet normal 0.406736 -0.913546 0
    outer loop
      vertex 3.09017 -9.51056 -7.5
      vertex 5 -8.66025 7.5
      vertex 3.09017 -9.51056 7.5
    endloop
  endfacet
  facet normal 0.406736 -0.913546 0
    outer loop
      vertex 5 -8.66025 7.5
      vertex 3.09017 -9.51056 -7.5
      vertex 5 -8.66025 -7.5
    endloop
  endfacet
  facet normal 0.207914 -0.978147 0
    outer loop
      vertex 1.04528 -9.94522 -7.5
      vertex 3.09017 -9.51056 7.5
      vertex 1.04528 -9.94522 7.5
    endloop
  endfacet
  facet normal 0.207914 -0.978147 0
    outer loop
      vertex 3.09017 -9.51056 7.5
      vertex 1.04528 -9.94522 -7.5
      vertex 3.09017 -9.51056 -7.5
    endloop
  endfacet
  facet normal -0.951055 0.309021 0
    outer loop
      vertex -9.78148 2.07912 -7.5
      vertex -9.13545 4.06737 7.5
      vertex -9.13545 4.06737 -7.5
    endloop
  endfacet
  facet normal -0.951055 0.309021 0
    outer loop
      vertex -9.13545 4.06737 7.5
      vertex -9.78148 2.07912 -7.5
      vertex -9.78148 2.07912 7.5
    endloop
  endfacet
  facet normal 0 0 -1
    outer loop
      vertex 9.78148 -2.07912 -7.5
      vertex 9.78148 2.07912 -7.5
      vertex 10 0 -7.5
    endloop
  endfacet
  facet normal 0 0 -1
    outer loop
      vertex 9.13545 -4.06737 -7.5
      vertex 9.78148 2.07912 -7.5
      vertex 9.78148 -2.07912 -7.5
    endloop
  endfacet
  facet normal 0 0 -1
    outer loop
      vertex 9.13545 -4.06737 -7.5
      vertex 9.13545 4.06737 -7.5
      vertex 9.78148 2.07912 -7.5
    endloop
  endfacet
  facet normal 0 0 -1
    outer loop
      vertex 8.09017 -5.87785 -7.5
      vertex 9.13545 4.06737 -7.5
      vertex 9.13545 -4.06737 -7.5
    endloop
  endfacet
  facet normal 0 0 -1
    outer loop
      vertex 8.09017 -5.87785 -7.5
      vertex 8.09017 5.87785 -7.5
      vertex 9.13545 4.06737 -7.5
    endloop
  endfacet
  facet normal 0 0 -1
    outer loop
      vertex 6.69131 -7.43145 -7.5
      vertex 8.09017 5.87785 -7.5
      vertex 8.09017 -5.87785 -7.5
    endloop
  endfacet
  facet normal 0 0 -1
    outer loop
      vertex 6.69131 -7.43145 -7.5
      vertex 6.69131 7.43145 -7.5
      vertex 8.09017 5.87785 -7.5
    endloop
  endfacet
  facet normal 0 0 -1
    outer loop
      vertex 5 -8.66025 -7.5
      vertex 6.69131 7.43145 -7.5
      vertex 6.69131 -7.43145 -7.5
    endloop
  endfacet
  facet normal 0 0 -1
    outer loop
      vertex 5 -8.66025 -7.5
      vertex 5 8.66025 -7.5
      vertex 6.69131 7.43145 -7.5
    endloop
  endfacet
  facet normal 0 0 -1
    outer loop
      vertex 3.09017 -9.51056 -7.5
      vertex 5 8.66025 -7.5
      vertex 5 -8.66025 -7.5
    endloop
  endfacet
  facet normal 0 0 -1
    outer loop
      vertex 3.09017 -9.51056 -7.5
      vertex 3.09017 9.51056 -7.5
      vertex 5 8.66025 -7.5
    endloop
  endfacet
  facet normal 0 0 -1
    outer loop
      vertex 1.04528 -9.94522 -7.5
      vertex 3.09017 9.51056 -7.5
      vertex 3.09017 -9.51056 -7.5
    endloop
  endfacet
  facet normal 0 0 -1
    outer loop
      vertex 1.04528 -9.94522 -7.5
      vertex 1.04528 9.94522 -7.5
      vertex 3.09017 9.51056 -7.5
    endloop
  endfacet
  facet normal 0 0 -1
    outer loop
      vertex -1.04528 -9.94522 -7.5
      vertex 1.04528 9.94522 -7.5
      vertex 1.04528 -9.94522 -7.5
    endloop
  endfacet
  facet normal 0 0 -1
    outer loop
      vertex -1.04528 -9.94522 -7.5
      vertex -1.04528 9.94522 -7.5
      vertex 1.04528 9.94522 -7.5
    endloop
  endfacet
  facet normal 0 0 -1
    outer loop
      vertex -3.09017 -9.51056 -7.5
      vertex -1.04528 9.94522 -7.5
      vertex -1.04528 -9.94522 -7.5
    endloop
  endfacet
  facet normal 0 0 -1
    outer loop
      vertex -3.09017 -9.51056 -7.5
      vertex -3.09017 9.51056 -7.5
      vertex -1.04528 9.94522 -7.5
    endloop
  endfacet
  facet normal 0 0 -1
    outer loop
      vertex -5 -8.66025 -7.5
      vertex -3.09017 9.51056 -7.5
      vertex -3.09017 -9.51056 -7.5
    endloop
  endfacet
  facet normal 0 0 -1
    outer loop
      vertex -5 -8.66025 -7.5
      vertex -5 8.66025 -7.5
      vertex -3.09017 9.51056 -7.5
    endloop
  endfacet
  facet normal 0 0 -1
    outer loop
      vertex -6.69131 -7.43145 -7.5
      vertex -5 8.66025 -7.5
      vertex -5 -8.66025 -7.5
    endloop
  endfacet
  facet normal 0 0 -1
    outer loop
      vertex -6.69131 -7.43145 -7.5
      vertex -6.69131 7.43145 -7.5
      vertex -5 8.66025 -7.5
    endloop
  endfacet
  facet normal 0 0 -1
    outer loop
      vertex -8.09017 -5.87785 -7.5
      vertex -6.69131 7.43145 -7.5
      vertex -6.69131 -7.43145 -7.5
    endloop
  endfacet
  facet normal 0 0 -1
    outer loop
      vertex -8.09017 -5.87785 -7.5
      vertex -8.09017 5.87785 -7.5
      vertex -6.69131 7.43145 -7.5
    endloop
  endfacet
  facet normal 0 0 -1
    outer loop
      vertex -9.13545 -4.06737 -7.5
      vertex -8.09017 5.87785 -7.5
      vertex -8.09017 -5.87785 -7.5
    endloop
  endfacet
  facet normal 0 0 -1
    outer loop
      vertex -9.13545 -4.06737 -7.5
      vertex -9.13545 4.06737 -7.5
      vertex -8.09017 5.87785 -7.5
    endloop
  endfacet
  facet normal 0 0 -1
    outer loop
      vertex -9.78148 -2.07912 -7.5
      vertex -9.13545 4.06737 -7.5
      vertex -9.13545 -4.06737 -7.5
    endloop
  endfacet
  facet normal 0 0 -1
    outer loop
      vertex -9.78148 -2.07912 -7.5
      vertex -9.78148 2.07912 -7.5
      vertex -9.13545 4.06737 -7.5
    endloop
  endfacet
  facet normal 0 -0 -1
    outer loop
      vertex -9.78148 2.07912 -7.5
      vertex -9.78148 -2.07912 -7.5
      vertex -10 0 -7.5
    endloop
  endfacet
  facet normal -0.951055 -0.309021 0
    outer loop
      vertex -9.13545 -4.06737 -7.5
      vertex -9.78148 -2.07912 7.5
      vertex -9.78148 -2.07912 -7.5
    endloop
  endfacet
  facet normal -0.951055 -0.309021 0
    outer loop
      vertex -9.78148 -2.07912 7.5
      vertex -9.13545 -4.06737 -7.5
      vertex -9.13545 -4.06737 7.5
    endloop
  endfacet
  facet normal -0.406736 0.913546 0
    outer loop
      vertex -3.09017 9.51056 -7.5
      vertex -5 8.66025 7.5
      vertex -3.09017 9.51056 7.5
    endloop
  endfacet
  facet normal -0.406736 0.913546 0
    outer loop
      vertex -5 8.66025 7.5
      vertex -3.09017 9.51056 -7.5
      vertex -5 8.66025 -7.5
    endloop
  endfacet
  facet normal 0 0 -1
    outer loop
      vertex 10 0 7.5
      vertex 15 0 7.5
      vertex 14.6722 -3.11868 7.5
    endloop
  endfacet
  facet normal 0 0 -1
    outer loop
      vertex 9.78148 -2.07912 7.5
      vertex 14.6722 -3.11868 7.5
      vertex 13.7032 -6.10105 7.5
    endloop
  endfacet
  facet normal 0 0 -1
    outer loop
      vertex 15 0 7.5
      vertex 10 0 7.5
      vertex 14.6722 3.11868 7.5
    endloop
  endfacet
  facet normal 0 0 -1
    outer loop
      vertex 9.13545 -4.06737 7.5
      vertex 13.7032 -6.10105 7.5
      vertex 12.1353 -8.81678 7.5
    endloop
  endfacet
  facet normal 0 0 -1
    outer loop
      vertex 9.78148 2.07912 7.5
      vertex 14.6722 3.11868 7.5
      vertex 10 0 7.5
    endloop
  endfacet
  facet normal 0 0 -1
    outer loop
      vertex 8.09017 -5.87785 7.5
      vertex 12.1353 -8.81678 7.5
      vertex 10.037 -11.1472 7.5
    endloop
  endfacet
  facet normal -0 0 -1
    outer loop
      vertex 14.6722 3.11868 7.5
      vertex 9.78148 2.07912 7.5
      vertex 13.7032 6.10105 7.5
    endloop
  endfacet
  facet normal 0 0 -1
    outer loop
      vertex 9.13545 4.06737 7.5
      vertex 13.7032 6.10105 7.5
      vertex 9.78148 2.07912 7.5
    endloop
  endfacet
  facet normal 0 0 -1
    outer loop
      vertex 14.6722 -3.11868 7.5
      vertex 9.78148 -2.07912 7.5
      vertex 10 0 7.5
    endloop
  endfacet
  facet normal 0 0 -1
    outer loop
      vertex 13.7032 -6.10105 7.5
      vertex 9.13545 -4.06737 7.5
      vertex 9.78148 -2.07912 7.5
    endloop
  endfacet
  facet normal 0 0 -1
    outer loop
      vertex 12.1353 -8.81678 7.5
      vertex 8.09017 -5.87785 7.5
      vertex 9.13545 -4.06737 7.5
    endloop
  endfacet
  facet normal 0 0 -1
    outer loop
      vertex 6.69131 -7.43145 7.5
      vertex 10.037 -11.1472 7.5
      vertex 7.5 -12.9904 7.5
    endloop
  endfacet
  facet normal 0 0 -1
    outer loop
      vertex 10.037 -11.1472 7.5
      vertex 6.69131 -7.43145 7.5
      vertex 8.09017 -5.87785 7.5
    endloop
  endfacet
  facet normal 0 0 -1
    outer loop
      vertex 7.5 -12.9904 7.5
      vertex 5 -8.66025 7.5
      vertex 6.69131 -7.43145 7.5
    endloop
  endfacet
  facet normal 0 0 -1
    outer loop
      vertex 4.63525 -14.2658 7.5
      vertex 5 -8.66025 7.5
      vertex 7.5 -12.9904 7.5
    endloop
  endfacet
  facet normal 0 0 -1
    outer loop
      vertex 4.63525 -14.2658 7.5
      vertex 3.09017 -9.51056 7.5
      vertex 5 -8.66025 7.5
    endloop
  endfacet
  facet normal 0 0 -1
    outer loop
      vertex 1.56793 -14.9178 7.5
      vertex 3.09017 -9.51056 7.5
      vertex 4.63525 -14.2658 7.5
    endloop
  endfacet
  facet normal 0 0 -1
    outer loop
      vertex 1.56793 -14.9178 7.5
      vertex 1.04528 -9.94522 7.5
      vertex 3.09017 -9.51056 7.5
    endloop
  endfacet
  facet normal 0 0 -1
    outer loop
      vertex 1.56793 -14.9178 7.5
      vertex -1.04528 -9.94522 7.5
      vertex 1.04528 -9.94522 7.5
    endloop
  endfacet
  facet normal 0 0 -1
    outer loop
      vertex -1.56793 -14.9178 7.5
      vertex -1.04528 -9.94522 7.5
      vertex 1.56793 -14.9178 7.5
    endloop
  endfacet
  facet normal 0 0 -1
    outer loop
      vertex -1.56793 -14.9178 7.5
      vertex -3.09017 -9.51056 7.5
      vertex -1.04528 -9.94522 7.5
    endloop
  endfacet
  facet normal 0 0 -1
    outer loop
      vertex -4.63525 -14.2658 7.5
      vertex -3.09017 -9.51056 7.5
      vertex -1.56793 -14.9178 7.5
    endloop
  endfacet
  facet normal 0 0 -1
    outer loop
      vertex -4.63525 -14.2658 7.5
      vertex -5 -8.66025 7.5
      vertex -3.09017 -9.51056 7.5
    endloop
  endfacet
  facet normal 0 0 -1
    outer loop
      vertex -7.5 -12.9904 7.5
      vertex -5 -8.66025 7.5
      vertex -4.63525 -14.2658 7.5
    endloop
  endfacet
  facet normal -0 0 -1
    outer loop
      vertex -5 -8.66025 7.5
      vertex -7.5 -12.9904 7.5
      vertex -6.69131 -7.43145 7.5
    endloop
  endfacet
  facet normal 0 0 -1
    outer loop
      vertex -10.037 -11.1472 7.5
      vertex -6.69131 -7.43145 7.5
      vertex -7.5 -12.9904 7.5
    endloop
  endfacet
  facet normal -0 0 -1
    outer loop
      vertex -6.69131 -7.43145 7.5
      vertex -10.037 -11.1472 7.5
      vertex -8.09017 -5.87785 7.5
    endloop
  endfacet
  facet normal 0 0 -1
    outer loop
      vertex -12.1353 -8.81678 7.5
      vertex -8.09017 -5.87785 7.5
      vertex -10.037 -11.1472 7.5
    endloop
  endfacet
  facet normal 0 0 -1
    outer loop
      vertex -13.7032 -6.10105 7.5
      vertex -9.13545 -4.06737 7.5
      vertex -12.1353 -8.81678 7.5
    endloop
  endfacet
  facet normal -0 0 -1
    outer loop
      vertex -8.09017 -5.87785 7.5
      vertex -12.1353 -8.81678 7.5
      vertex -9.13545 -4.06737 7.5
    endloop
  endfacet
  facet normal -0 0 -1
    outer loop
      vertex 13.7032 6.10105 7.5
      vertex 9.13545 4.06737 7.5
      vertex 12.1353 8.81678 7.5
    endloop
  endfacet
  facet normal 0 0 -1
    outer loop
      vertex 8.09017 5.87785 7.5
      vertex 12.1353 8.81678 7.5
      vertex 9.13545 4.06737 7.5
    endloop
  endfacet
  facet normal -0 0 -1
    outer loop
      vertex 12.1353 8.81678 7.5
      vertex 8.09017 5.87785 7.5
      vertex 10.037 11.1472 7.5
    endloop
  endfacet
  facet normal 0 0 -1
    outer loop
      vertex 6.69131 7.43145 7.5
      vertex 10.037 11.1472 7.5
      vertex 8.09017 5.87785 7.5
    endloop
  endfacet
  facet normal -0 0 -1
    outer loop
      vertex 10.037 11.1472 7.5
      vertex 6.69131 7.43145 7.5
      vertex 7.5 12.9904 7.5
    endloop
  endfacet
  facet normal 0 0 -1
    outer loop
      vertex 5 8.66025 7.5
      vertex 7.5 12.9904 7.5
      vertex 6.69131 7.43145 7.5
    endloop
  endfacet
  facet normal 0 0 -1
    outer loop
      vertex 5 8.66025 7.5
      vertex 4.63525 14.2658 7.5
      vertex 7.5 12.9904 7.5
    endloop
  endfacet
  facet normal 0 0 -1
    outer loop
      vertex 3.09017 9.51056 7.5
      vertex 4.63525 14.2658 7.5
      vertex 5 8.66025 7.5
    endloop
  endfacet
  facet normal 0 0 -1
    outer loop
      vertex 3.09017 9.51056 7.5
      vertex 1.56793 14.9178 7.5
      vertex 4.63525 14.2658 7.5
    endloop
  endfacet
  facet normal 0 0 -1
    outer loop
      vertex 1.04528 9.94522 7.5
      vertex 1.56793 14.9178 7.5
      vertex 3.09017 9.51056 7.5
    endloop
  endfacet
  facet normal 0 0 -1
    outer loop
      vertex -1.04528 9.94522 7.5
      vertex 1.56793 14.9178 7.5
      vertex 1.04528 9.94522 7.5
    endloop
  endfacet
  facet normal 0 0 -1
    outer loop
      vertex -1.04528 9.94522 7.5
      vertex -1.56793 14.9178 7.5
      vertex 1.56793 14.9178 7.5
    endloop
  endfacet
  facet normal 0 0 -1
    outer loop
      vertex -3.09017 9.51056 7.5
      vertex -1.56793 14.9178 7.5
      vertex -1.04528 9.94522 7.5
    endloop
  endfacet
  facet normal 0 0 -1
    outer loop
      vertex -3.09017 9.51056 7.5
      vertex -4.63525 14.2658 7.5
      vertex -1.56793 14.9178 7.5
    endloop
  endfacet
  facet normal 0 0 -1
    outer loop
      vertex -5 8.66025 7.5
      vertex -4.63525 14.2658 7.5
      vertex -3.09017 9.51056 7.5
    endloop
  endfacet
  facet normal 0 0 -1
    outer loop
      vertex -7.5 12.9904 7.5
      vertex -5 8.66025 7.5
      vertex -6.69131 7.43145 7.5
    endloop
  endfacet
  facet normal 0 0 -1
    outer loop
      vertex -5 8.66025 7.5
      vertex -7.5 12.9904 7.5
      vertex -4.63525 14.2658 7.5
    endloop
  endfacet
  facet normal 0 0 -1
    outer loop
      vertex -10.037 11.1472 7.5
      vertex -6.69131 7.43145 7.5
      vertex -8.09017 5.87785 7.5
    endloop
  endfacet
  facet normal 0 0 -1
    outer loop
      vertex -12.1353 8.81678 7.5
      vertex -8.09017 5.87785 7.5
      vertex -9.13545 4.06737 7.5
    endloop
  endfacet
  facet normal 0 0 -1
    outer loop
      vertex -13.7032 6.10105 7.5
      vertex -9.13545 4.06737 7.5
      vertex -9.78148 2.07912 7.5
    endloop
  endfacet
  facet normal 0 0 -1
    outer loop
      vertex -6.69131 7.43145 7.5
      vertex -10.037 11.1472 7.5
      vertex -7.5 12.9904 7.5
    endloop
  endfacet
  facet normal 0 0 -1
    outer loop
      vertex -14.6722 3.11868 7.5
      vertex -9.78148 2.07912 7.5
      vertex -10 0 7.5
    endloop
  endfacet
  facet normal -0 0 -1
    outer loop
      vertex -9.13545 -4.06737 7.5
      vertex -13.7032 -6.10105 7.5
      vertex -9.78148 -2.07912 7.5
    endloop
  endfacet
  facet normal 0 0 -1
    outer loop
      vertex -14.6722 -3.11868 7.5
      vertex -9.78148 -2.07912 7.5
      vertex -13.7032 -6.10105 7.5
    endloop
  endfacet
  facet normal 0 0 -1
    outer loop
      vertex -8.09017 5.87785 7.5
      vertex -12.1353 8.81678 7.5
      vertex -10.037 11.1472 7.5
    endloop
  endfacet
  facet normal -0 0 -1
    outer loop
      vertex -9.78148 -2.07912 7.5
      vertex -14.6722 -3.11868 7.5
      vertex -10 0 7.5
    endloop
  endfacet
  facet normal 0 0 -1
    outer loop
      vertex -9.13545 4.06737 7.5
      vertex -13.7032 6.10105 7.5
      vertex -12.1353 8.81678 7.5
    endloop
  endfacet
  facet normal 0 0 -1
    outer loop
      vertex -15 0 7.5
      vertex -10 0 7.5
      vertex -14.6722 -3.11868 7.5
    endloop
  endfacet
  facet normal 0 0 -1
    outer loop
      vertex -9.78148 2.07912 7.5
      vertex -14.6722 3.11868 7.5
      vertex -13.7032 6.10105 7.5
    endloop
  endfacet
  facet normal 0 0 -1
    outer loop
      vertex -10 0 7.5
      vertex -15 0 7.5
      vertex -14.6722 3.11868 7.5
    endloop
  endfacet
  facet normal -0.207914 -0.978147 0
    outer loop
      vertex -3.09017 -9.51056 -7.5
      vertex -1.04528 -9.94522 7.5
      vertex -3.09017 -9.51056 7.5
    endloop
  endfacet
  facet normal -0.207914 -0.978147 -0
    outer loop
      vertex -1.04528 -9.94522 7.5
      vertex -3.09017 -9.51056 -7.5
      vertex -1.04528 -9.94522 -7.5
    endloop
  endfacet
  facet normal 0.207914 0.978147 -0
    outer loop
      vertex 3.09017 9.51056 -7.5
      vertex 1.04528 9.94522 7.5
      vertex 3.09017 9.51056 7.5
    endloop
  endfacet
  facet normal 0.207914 0.978147 0
    outer loop
      vertex 1.04528 9.94522 7.5
      vertex 3.09017 9.51056 -7.5
      vertex 1.04528 9.94522 -7.5
    endloop
  endfacet
  facet normal -0.994522 -0.104526 0
    outer loop
      vertex -9.78148 -2.07912 -7.5
      vertex -10 0 7.5
      vertex -10 0 -7.5
    endloop
  endfacet
  facet normal -0.994522 -0.104526 0
    outer loop
      vertex -10 0 7.5
      vertex -9.78148 -2.07912 -7.5
      vertex -9.78148 -2.07912 7.5
    endloop
  endfacet
  facet normal -0.866026 -0.5 0
    outer loop
      vertex -8.09017 -5.87785 -7.5
      vertex -9.13545 -4.06737 7.5
      vertex -9.13545 -4.06737 -7.5
    endloop
  endfacet
  facet normal -0.866026 -0.5 0
    outer loop
      vertex -9.13545 -4.06737 7.5
      vertex -8.09017 -5.87785 -7.5
      vertex -8.09017 -5.87785 7.5
    endloop
  endfacet
  facet normal -0.866026 0.5 0
    outer loop
      vertex -9.13545 4.06737 -7.5
      vertex -8.09017 5.87785 7.5
      vertex -8.09017 5.87785 -7.5
    endloop
  endfacet
  facet normal -0.866026 0.5 0
    outer loop
      vertex -8.09017 5.87785 7.5
      vertex -9.13545 4.06737 -7.5
      vertex -9.13545 4.06737 7.5
    endloop
  endfacet
  facet normal 0.866026 -0.5 0
    outer loop
      vertex 8.09017 -5.87785 7.5
      vertex 9.13545 -4.06737 -7.5
      vertex 9.13545 -4.06737 7.5
    endloop
  endfacet
  facet normal 0.866026 -0.5 0
    outer loop
      vertex 9.13545 -4.06737 -7.5
      vertex 8.09017 -5.87785 7.5
      vertex 8.09017 -5.87785 -7.5
    endloop
  endfacet
  facet normal 0.587783 0.809019 -0
    outer loop
      vertex 6.69131 7.43145 -7.5
      vertex 5 8.66025 7.5
      vertex 6.69131 7.43145 7.5
    endloop
  endfacet
  facet normal 0.587783 0.809019 0
    outer loop
      vertex 5 8.66025 7.5
      vertex 6.69131 7.43145 -7.5
      vertex 5 8.66025 -7.5
    endloop
  endfacet
  facet normal -0.587783 0.809019 0
    outer loop
      vertex -5 8.66025 -7.5
      vertex -6.69131 7.43145 7.5
      vertex -5 8.66025 7.5
    endloop
  endfacet
  facet normal -0.587783 0.809019 0
    outer loop
      vertex -6.69131 7.43145 7.5
      vertex -5 8.66025 -7.5
      vertex -6.69131 7.43145 -7.5
    endloop
  endfacet
  facet normal -0.207914 0.978147 0
    outer loop
      vertex -1.04528 9.94522 -7.5
      vertex -3.09017 9.51056 7.5
      vertex -1.04528 9.94522 7.5
    endloop
  endfacet
  facet normal -0.207914 0.978147 0
    outer loop
      vertex -3.09017 9.51056 7.5
      vertex -1.04528 9.94522 -7.5
      vertex -3.09017 9.51056 -7.5
    endloop
  endfacet
  facet normal 0 -1 0
    outer loop
      vertex -1.04528 -9.94522 -7.5
      vertex 1.04528 -9.94522 7.5
      vertex -1.04528 -9.94522 7.5
    endloop
  endfacet
  facet normal 0 -1 -0
    outer loop
      vertex 1.04528 -9.94522 7.5
      vertex -1.04528 -9.94522 -7.5
      vertex 1.04528 -9.94522 -7.5
    endloop
  endfacet
  facet normal -0.994522 0.104526 0
    outer loop
      vertex -10 0 -7.5
      vertex -9.78148 2.07912 7.5
      vertex -9.78148 2.07912 -7.5
    endloop
  endfacet
  facet normal -0.994522 0.104526 0
    outer loop
      vertex -9.78148 2.07912 7.5
      vertex -10 0 -7.5
      vertex -10 0 7.5
    endloop
  endfacet
  facet normal 0.951059 0.309008 0
    outer loop
      vertex 14.6722 3.11868 9
      vertex 13.7032 6.10105 7.5
      vertex 13.7032 6.10105 9
    endloop
  endfacet
  facet normal 0.951059 0.309008 0
    outer loop
      vertex 13.7032 6.10105 7.5
      vertex 14.6722 3.11868 9
      vertex 14.6722 3.11868 7.5
    endloop
  endfacet
  facet normal 0.994521 0.104533 0
    outer loop
      vertex 15 0 9
      vertex 14.6722 3.11868 7.5
      vertex 14.6722 3.11868 9
    endloop
  endfacet
  facet normal 0.994521 0.104533 0
    outer loop
      vertex 14.6722 3.11868 7.5
      vertex 15 0 9
      vertex 15 0 7.5
    endloop
  endfacet
  facet normal 0.866029 0.499993 0
    outer loop
      vertex 13.7032 6.10105 9
      vertex 12.1353 8.81678 7.5
      vertex 12.1353 8.81678 9
    endloop
  endfacet
  facet normal 0.866029 0.499993 0
    outer loop
      vertex 12.1353 8.81678 7.5
      vertex 13.7032 6.10105 9
      vertex 13.7032 6.10105 7.5
    endloop
  endfacet
  facet normal 0.951059 -0.309008 0
    outer loop
      vertex 13.7032 -6.10105 9
      vertex 14.6722 -3.11868 7.5
      vertex 14.6722 -3.11868 9
    endloop
  endfacet
  facet normal 0.951059 -0.309008 0
    outer loop
      vertex 14.6722 -3.11868 7.5
      vertex 13.7032 -6.10105 9
      vertex 13.7032 -6.10105 7.5
    endloop
  endfacet
  facet normal 0.994521 -0.104533 0
    outer loop
      vertex 14.6722 -3.11868 9
      vertex 15 0 7.5
      vertex 15 0 9
    endloop
  endfacet
  facet normal 0.994521 -0.104533 0
    outer loop
      vertex 15 0 7.5
      vertex 14.6722 -3.11868 9
      vertex 14.6722 -3.11868 7.5
    endloop
  endfacet
  facet normal 0.743148 0.669127 0
    outer loop
      vertex 12.1353 8.81678 9
      vertex 10.037 11.1472 7.5
      vertex 10.037 11.1472 9
    endloop
  endfacet
  facet normal 0.743148 0.669127 0
    outer loop
      vertex 10.037 11.1472 7.5
      vertex 12.1353 8.81678 9
      vertex 12.1353 8.81678 7.5
    endloop
  endfacet
  facet normal -0.951059 -0.309008 0
    outer loop
      vertex -13.7032 -6.10105 7.5
      vertex -14.6722 -3.11868 9
      vertex -14.6722 -3.11868 7.5
    endloop
  endfacet
  facet normal -0.951059 -0.309008 0
    outer loop
      vertex -14.6722 -3.11868 9
      vertex -13.7032 -6.10105 7.5
      vertex -13.7032 -6.10105 9
    endloop
  endfacet
  facet normal -0.951059 0.309008 0
    outer loop
      vertex -14.6722 3.11868 7.5
      vertex -13.7032 6.10105 9
      vertex -13.7032 6.10105 7.5
    endloop
  endfacet
  facet normal -0.951059 0.309008 0
    outer loop
      vertex -13.7032 6.10105 9
      vertex -14.6722 3.11868 7.5
      vertex -14.6722 3.11868 9
    endloop
  endfacet
  facet normal 0.587777 -0.809023 0
    outer loop
      vertex 7.5 -12.9904 7.5
      vertex 10.037 -11.1472 9
      vertex 7.5 -12.9904 9
    endloop
  endfacet
  facet normal 0.587777 -0.809023 0
    outer loop
      vertex 10.037 -11.1472 9
      vertex 7.5 -12.9904 7.5
      vertex 10.037 -11.1472 7.5
    endloop
  endfacet
  facet normal -0.587777 0.809023 0
    outer loop
      vertex -7.5 12.9904 7.5
      vertex -10.037 11.1472 9
      vertex -7.5 12.9904 9
    endloop
  endfacet
  facet normal -0.587777 0.809023 0
    outer loop
      vertex -10.037 11.1472 9
      vertex -7.5 12.9904 7.5
      vertex -10.037 11.1472 7.5
    endloop
  endfacet
  facet normal 0 0 1
    outer loop
      vertex 14.6722 3.11868 9
      vertex 14.6722 -3.11868 9
      vertex 15 0 9
    endloop
  endfacet
  facet normal 0 0 1
    outer loop
      vertex 13.7032 6.10105 9
      vertex 14.6722 -3.11868 9
      vertex 14.6722 3.11868 9
    endloop
  endfacet
  facet normal 0 0 1
    outer loop
      vertex 13.7032 6.10105 9
      vertex 13.7032 -6.10105 9
      vertex 14.6722 -3.11868 9
    endloop
  endfacet
  facet normal 0 0 1
    outer loop
      vertex 12.1353 8.81678 9
      vertex 13.7032 -6.10105 9
      vertex 13.7032 6.10105 9
    endloop
  endfacet
  facet normal 0 0 1
    outer loop
      vertex 12.1353 8.81678 9
      vertex 12.1353 -8.81678 9
      vertex 13.7032 -6.10105 9
    endloop
  endfacet
  facet normal 0 0 1
    outer loop
      vertex 10.037 11.1472 9
      vertex 12.1353 -8.81678 9
      vertex 12.1353 8.81678 9
    endloop
  endfacet
  facet normal 0 0 1
    outer loop
      vertex 10.037 11.1472 9
      vertex 10.037 -11.1472 9
      vertex 12.1353 -8.81678 9
    endloop
  endfacet
  facet normal 0 0 1
    outer loop
      vertex 7.5 12.9904 9
      vertex 10.037 -11.1472 9
      vertex 10.037 11.1472 9
    endloop
  endfacet
  facet normal 0 0 1
    outer loop
      vertex 7.5 12.9904 9
      vertex 7.5 -12.9904 9
      vertex 10.037 -11.1472 9
    endloop
  endfacet
  facet normal 0 0 1
    outer loop
      vertex 4.63525 14.2658 9
      vertex 7.5 -12.9904 9
      vertex 7.5 12.9904 9
    endloop
  endfacet
  facet normal 0 0 1
    outer loop
      vertex 4.63525 14.2658 9
      vertex 4.63525 -14.2658 9
      vertex 7.5 -12.9904 9
    endloop
  endfacet
  facet normal 0 0 1
    outer loop
      vertex 1.56793 14.9178 9
      vertex 4.63525 -14.2658 9
      vertex 4.63525 14.2658 9
    endloop
  endfacet
  facet normal 0 0 1
    outer loop
      vertex 1.56793 14.9178 9
      vertex 1.56793 -14.9178 9
      vertex 4.63525 -14.2658 9
    endloop
  endfacet
  facet normal -0 0 1
    outer loop
      vertex -1.56793 14.9178 9
      vertex 1.56793 -14.9178 9
      vertex 1.56793 14.9178 9
    endloop
  endfacet
  facet normal 0 0 1
    outer loop
      vertex -1.56793 14.9178 9
      vertex -1.56793 -14.9178 9
      vertex 1.56793 -14.9178 9
    endloop
  endfacet
  facet normal -0 0 1
    outer loop
      vertex -4.63525 14.2658 9
      vertex -1.56793 -14.9178 9
      vertex -1.56793 14.9178 9
    endloop
  endfacet
  facet normal 0 0 1
    outer loop
      vertex -4.63525 14.2658 9
      vertex -4.63525 -14.2658 9
      vertex -1.56793 -14.9178 9
    endloop
  endfacet
  facet normal -0 0 1
    outer loop
      vertex -7.5 12.9904 9
      vertex -4.63525 -14.2658 9
      vertex -4.63525 14.2658 9
    endloop
  endfacet
  facet normal 0 0 1
    outer loop
      vertex -7.5 12.9904 9
      vertex -7.5 -12.9904 9
      vertex -4.63525 -14.2658 9
    endloop
  endfacet
  facet normal -0 0 1
    outer loop
      vertex -10.037 11.1472 9
      vertex -7.5 -12.9904 9
      vertex -7.5 12.9904 9
    endloop
  endfacet
  facet normal 0 0 1
    outer loop
      vertex -10.037 11.1472 9
      vertex -10.037 -11.1472 9
      vertex -7.5 -12.9904 9
    endloop
  endfacet
  facet normal -0 0 1
    outer loop
      vertex -12.1353 8.81678 9
      vertex -10.037 -11.1472 9
      vertex -10.037 11.1472 9
    endloop
  endfacet
  facet normal 0 0 1
    outer loop
      vertex -12.1353 8.81678 9
      vertex -12.1353 -8.81678 9
      vertex -10.037 -11.1472 9
    endloop
  endfacet
  facet normal -0 0 1
    outer loop
      vertex -13.7032 6.10105 9
      vertex -12.1353 -8.81678 9
      vertex -12.1353 8.81678 9
    endloop
  endfacet
  facet normal 0 0 1
    outer loop
      vertex -13.7032 6.10105 9
      vertex -13.7032 -6.10105 9
      vertex -12.1353 -8.81678 9
    endloop
  endfacet
  facet normal -0 0 1
    outer loop
      vertex -14.6722 3.11868 9
      vertex -13.7032 -6.10105 9
      vertex -13.7032 6.10105 9
    endloop
  endfacet
  facet normal 0 0 1
    outer loop
      vertex -14.6722 3.11868 9
      vertex -14.6722 -3.11868 9
      vertex -13.7032 -6.10105 9
    endloop
  endfacet
  facet normal 0 -0 1
    outer loop
      vertex -14.6722 -3.11868 9
      vertex -14.6722 3.11868 9
      vertex -15 0 9
    endloop
  endfacet
  facet normal -0.866029 0.499993 0
    outer loop
      vertex -13.7032 6.10105 7.5
      vertex -12.1353 8.81678 9
      vertex -12.1353 8.81678 7.5
    endloop
  endfacet
  facet normal -0.866029 0.499993 0
    outer loop
      vertex -12.1353 8.81678 9
      vertex -13.7032 6.10105 7.5
      vertex -13.7032 6.10105 9
    endloop
  endfacet
  facet normal 0.866029 -0.499993 0
    outer loop
      vertex 12.1353 -8.81678 9
      vertex 13.7032 -6.10105 7.5
      vertex 13.7032 -6.10105 9
    endloop
  endfacet
  facet normal 0.866029 -0.499993 0
    outer loop
      vertex 13.7032 -6.10105 7.5
      vertex 12.1353 -8.81678 9
      vertex 12.1353 -8.81678 7.5
    endloop
  endfacet
  facet normal 0 1 -0
    outer loop
      vertex 1.56793 14.9178 7.5
      vertex -1.56793 14.9178 9
      vertex 1.56793 14.9178 9
    endloop
  endfacet
  facet normal 0 1 0
    outer loop
      vertex -1.56793 14.9178 9
      vertex 1.56793 14.9178 7.5
      vertex -1.56793 14.9178 7.5
    endloop
  endfacet
  facet normal -0.406718 0.913554 0
    outer loop
      vertex -4.63525 14.2658 7.5
      vertex -7.5 12.9904 9
      vertex -4.63525 14.2658 9
    endloop
  endfacet
  facet normal -0.406718 0.913554 0
    outer loop
      vertex -7.5 12.9904 9
      vertex -4.63525 14.2658 7.5
      vertex -7.5 12.9904 7.5
    endloop
  endfacet
  facet normal -0.207918 -0.978146 0
    outer loop
      vertex -4.63525 -14.2658 7.5
      vertex -1.56793 -14.9178 9
      vertex -4.63525 -14.2658 9
    endloop
  endfacet
  facet normal -0.207918 -0.978146 -0
    outer loop
      vertex -1.56793 -14.9178 9
      vertex -4.63525 -14.2658 7.5
      vertex -1.56793 -14.9178 7.5
    endloop
  endfacet
  facet normal -0.406718 -0.913554 0
    outer loop
      vertex -7.5 -12.9904 7.5
      vertex -4.63525 -14.2658 9
      vertex -7.5 -12.9904 9
    endloop
  endfacet
  facet normal -0.406718 -0.913554 -0
    outer loop
      vertex -4.63525 -14.2658 9
      vertex -7.5 -12.9904 7.5
      vertex -4.63525 -14.2658 7.5
    endloop
  endfacet
  facet normal -0.207918 0.978146 0
    outer loop
      vertex -1.56793 14.9178 7.5
      vertex -4.63525 14.2658 9
      vertex -1.56793 14.9178 9
    endloop
  endfacet
  facet normal -0.207918 0.978146 0
    outer loop
      vertex -4.63525 14.2658 9
      vertex -1.56793 14.9178 7.5
      vertex -4.63525 14.2658 7.5
    endloop
  endfacet
  facet normal 0.207918 -0.978146 0
    outer loop
      vertex 1.56793 -14.9178 7.5
      vertex 4.63525 -14.2658 9
      vertex 1.56793 -14.9178 9
    endloop
  endfacet
  facet normal 0.207918 -0.978146 0
    outer loop
      vertex 4.63525 -14.2658 9
      vertex 1.56793 -14.9178 7.5
      vertex 4.63525 -14.2658 7.5
    endloop
  endfacet
  facet normal 0.743148 -0.669127 0
    outer loop
      vertex 10.037 -11.1472 9
      vertex 12.1353 -8.81678 7.5
      vertex 12.1353 -8.81678 9
    endloop
  endfacet
  facet normal 0.743148 -0.669127 0
    outer loop
      vertex 12.1353 -8.81678 7.5
      vertex 10.037 -11.1472 9
      vertex 10.037 -11.1472 7.5
    endloop
  endfacet
  facet normal 0.406718 -0.913554 0
    outer loop
      vertex 4.63525 -14.2658 7.5
      vertex 7.5 -12.9904 9
      vertex 4.63525 -14.2658 9
    endloop
  endfacet
  facet normal 0.406718 -0.913554 0
    outer loop
      vertex 7.5 -12.9904 9
      vertex 4.63525 -14.2658 7.5
      vertex 7.5 -12.9904 7.5
    endloop
  endfacet
  facet normal -0.587777 -0.809023 0
    outer loop
      vertex -10.037 -11.1472 7.5
      vertex -7.5 -12.9904 9
      vertex -10.037 -11.1472 9
    endloop
  endfacet
  facet normal -0.587777 -0.809023 -0
    outer loop
      vertex -7.5 -12.9904 9
      vertex -10.037 -11.1472 7.5
      vertex -7.5 -12.9904 7.5
    endloop
  endfacet
  facet normal 0.587777 0.809023 -0
    outer loop
      vertex 10.037 11.1472 7.5
      vertex 7.5 12.9904 9
      vertex 10.037 11.1472 9
    endloop
  endfacet
  facet normal 0.587777 0.809023 0
    outer loop
      vertex 7.5 12.9904 9
      vertex 10.037 11.1472 7.5
      vertex 7.5 12.9904 7.5
    endloop
  endfacet
  facet normal -0.994521 0.104533 0
    outer loop
      vertex -15 0 7.5
      vertex -14.6722 3.11868 9
      vertex -14.6722 3.11868 7.5
    endloop
  endfacet
  facet normal -0.994521 0.104533 0
    outer loop
      vertex -14.6722 3.11868 9
      vertex -15 0 7.5
      vertex -15 0 9
    endloop
  endfacet
  facet normal 0.207918 0.978146 -0
    outer loop
      vertex 4.63525 14.2658 7.5
      vertex 1.56793 14.9178 9
      vertex 4.63525 14.2658 9
    endloop
  endfacet
  facet normal 0.207918 0.978146 0
    outer loop
      vertex 1.56793 14.9178 9
      vertex 4.63525 14.2658 7.5
      vertex 1.56793 14.9178 7.5
    endloop
  endfacet
  facet normal -0.866029 -0.499993 0
    outer loop
      vertex -12.1353 -8.81678 7.5
      vertex -13.7032 -6.10105 9
      vertex -13.7032 -6.10105 7.5
    endloop
  endfacet
  facet normal -0.866029 -0.499993 0
    outer loop
      vertex -13.7032 -6.10105 9
      vertex -12.1353 -8.81678 7.5
      vertex -12.1353 -8.81678 9
    endloop
  endfacet
  facet normal 0.406718 0.913554 -0
    outer loop
      vertex 7.5 12.9904 7.5
      vertex 4.63525 14.2658 9
      vertex 7.5 12.9904 9
    endloop
  endfacet
  facet normal 0.406718 0.913554 0
    outer loop
      vertex 4.63525 14.2658 9
      vertex 7.5 12.9904 7.5
      vertex 4.63525 14.2658 7.5
    endloop
  endfacet
  facet normal 0 -1 0
    outer loop
      vertex -1.56793 -14.9178 7.5
      vertex 1.56793 -14.9178 9
      vertex -1.56793 -14.9178 9
    endloop
  endfacet
  facet normal 0 -1 -0
    outer loop
      vertex 1.56793 -14.9178 9
      vertex -1.56793 -14.9178 7.5
      vertex 1.56793 -14.9178 7.5
    endloop
  endfacet
  facet normal -0.994521 -0.104533 0
    outer loop
      vertex -14.6722 -3.11868 7.5
      vertex -15 0 9
      vertex -15 0 7.5
    endloop
  endfacet
  facet normal -0.994521 -0.104533 0
    outer loop
      vertex -15 0 9
      vertex -14.6722 -3.11868 7.5
      vertex -14.6722 -3.11868 9
    endloop
  endfacet
  facet normal -0.743148 -0.669127 0
    outer loop
      vertex -10.037 -11.1472 7.5
      vertex -12.1353 -8.81678 9
      vertex -12.1353 -8.81678 7.5
    endloop
  endfacet
  facet normal -0.743148 -0.669127 0
    outer loop
      vertex -12.1353 -8.81678 9
      vertex -10.037 -11.1472 7.5
      vertex -10.037 -11.1472 9
    endloop
  endfacet
  facet normal -0.743148 0.669127 0
    outer loop
      vertex -12.1353 8.81678 7.5
      vertex -10.037 11.1472 9
      vertex -10.037 11.1472 7.5
    endloop
  endfacet
  facet normal -0.743148 0.669127 0
    outer loop
      vertex -10.037 11.1472 9
      vertex -12.1353 8.81678 7.5
      vertex -12.1353 8.81678 9
    endloop
  endfacet
  facet normal -0.92388 -0.382682 0
    outer loop
      vertex -1.76777 -1.76777 14
      vertex -2.5 0 32
      vertex -2.5 0 14
    endloop
  endfacet
  facet normal -0.92388 -0.382682 0
    outer loop
      vertex -2.5 0 32
      vertex -1.76777 -1.76777 14
      vertex -1.76777 -1.76777 32
    endloop
  endfacet
  facet normal 0.382682 0.92388 -0
    outer loop
      vertex 1.76777 1.76777 14
      vertex 0 2.5 32
      vertex 1.76777 1.76777 32
    endloop
  endfacet
  facet normal 0.382682 0.92388 0
    outer loop
      vertex 0 2.5 32
      vertex 1.76777 1.76777 14
      vertex 0 2.5 14
    endloop
  endfacet
  facet normal 0.92388 0.382682 0
    outer loop
      vertex 2.5 0 32
      vertex 1.76777 1.76777 14
      vertex 1.76777 1.76777 32
    endloop
  endfacet
  facet normal 0.92388 0.382682 0
    outer loop
      vertex 1.76777 1.76777 14
      vertex 2.5 0 32
      vertex 2.5 0 14
    endloop
  endfacet
  facet normal 0.92388 -0.382682 0
    outer loop
      vertex 1.76777 -1.76777 32
      vertex 2.5 0 14
      vertex 2.5 0 32
    endloop
  endfacet
  facet normal 0.92388 -0.382682 0
    outer loop
      vertex 2.5 0 14
      vertex 1.76777 -1.76777 32
      vertex 1.76777 -1.76777 14
    endloop
  endfacet
  facet normal -0.382682 -0.92388 0
    outer loop
      vertex -1.76777 -1.76777 14
      vertex 0 -2.5 32
      vertex -1.76777 -1.76777 32
    endloop
  endfacet
  facet normal -0.382682 -0.92388 -0
    outer loop
      vertex 0 -2.5 32
      vertex -1.76777 -1.76777 14
      vertex 0 -2.5 14
    endloop
  endfacet
  facet normal -0.92388 0.382682 0
    outer loop
      vertex -2.5 0 14
      vertex -1.76777 1.76777 32
      vertex -1.76777 1.76777 14
    endloop
  endfacet
  facet normal -0.92388 0.382682 0
    outer loop
      vertex -1.76777 1.76777 32
      vertex -2.5 0 14
      vertex -2.5 0 32
    endloop
  endfacet
  facet normal 0.382682 -0.92388 0
    outer loop
      vertex 0 -2.5 14
      vertex 1.76777 -1.76777 32
      vertex 0 -2.5 32
    endloop
  endfacet
  facet normal 0.382682 -0.92388 0
    outer loop
      vertex 1.76777 -1.76777 32
      vertex 0 -2.5 14
      vertex 1.76777 -1.76777 14
    endloop
  endfacet
  facet normal 0 0 1
    outer loop
      vertex 1.76777 1.76777 32
      vertex 1.76777 -1.76777 32
      vertex 2.5 0 32
    endloop
  endfacet
  facet normal 0 0 1
    outer loop
      vertex 0 2.5 32
      vertex 1.76777 -1.76777 32
      vertex 1.76777 1.76777 32
    endloop
  endfacet
  facet normal 0 0 1
    outer loop
      vertex 0 2.5 32
      vertex 0 -2.5 32
      vertex 1.76777 -1.76777 32
    endloop
  endfacet
  facet normal -0 0 1
    outer loop
      vertex -1.76777 1.76777 32
      vertex 0 -2.5 32
      vertex 0 2.5 32
    endloop
  endfacet
  facet normal 0 0 1
    outer loop
      vertex -1.76777 1.76777 32
      vertex -1.76777 -1.76777 32
      vertex 0 -2.5 32
    endloop
  endfacet
  facet normal 0 -0 1
    outer loop
      vertex -1.76777 -1.76777 32
      vertex -1.76777 1.76777 32
      vertex -2.5 0 32
    endloop
  endfacet
  facet normal -0.382682 0.92388 0
    outer loop
      vertex 0 2.5 14
      vertex -1.76777 1.76777 32
      vertex 0 2.5 32
    endloop
  endfacet
  facet normal -0.382682 0.92388 0
    outer loop
      vertex -1.76777 1.76777 32
      vertex 0 2.5 14
      vertex -1.76777 1.76777 14
    endloop
  endfacet
  facet normal 0 0 -1
    outer loop
      vertex 1.76777 -1.76777 14
      vertex 1.76777 1.76777 14
      vertex 2.5 0 14
    endloop
  endfacet
  facet normal 0 0 -1
    outer loop
      vertex 0 -2.5 14
      vertex 1.76777 1.76777 14
      vertex 1.76777 -1.76777 14
    endloop
  endfacet
  facet normal 0 0 -1
    outer loop
      vertex 0 -2.5 14
      vertex 0 2.5 14
      vertex 1.76777 1.76777 14
    endloop
  endfacet
  facet normal 0 0 -1
    outer loop
      vertex -1.76777 -1.76777 14
      vertex 0 2.5 14
      vertex 0 -2.5 14
    endloop
  endfacet
  facet normal 0 0 -1
    outer loop
      vertex -1.76777 -1.76777 14
      vertex -1.76777 1.76777 14
      vertex 0 2.5 14
    endloop
  endfacet
  facet normal 0 -0 -1
    outer loop
      vertex -1.76777 1.76777 14
      vertex -1.76777 -1.76777 14
      vertex -2.5 0 14
    endloop
  endfacet
endsolid OpenSCAD_Model
