solid OpenSCAD_Model
  facet normal 1 0 0
    outer loop
      vertex 20 20 30
      vertex 20 5 -7.5
      vertex 20 20 -30
    endloop
  endfacet
  facet normal 1 0 0
    outer loop
      vertex 20 20 30
      vertex 20 -5 -7.5
      vertex 20 5 -7.5
    endloop
  endfacet
  facet normal 1 0 0
    outer loop
      vertex 20 -20 -30
      vertex 20 -5 -7.5
      vertex 20 -20 30
    endloop
  endfacet
  facet normal 1 -0 0
    outer loop
      vertex 20 -20 30
      vertex 20 -5 -7.5
      vertex 20 20 30
    endloop
  endfacet
  facet normal 1 -0 0
    outer loop
      vertex 20 5 -12.5
      vertex 20 20 -30
      vertex 20 5 -7.5
    endloop
  endfacet
  facet normal 1 -0 0
    outer loop
      vertex 20 -5 -12.5
      vertex 20 20 -30
      vertex 20 5 -12.5
    endloop
  endfacet
  facet normal 1 0 0
    outer loop
      vertex 20 -5 -12.5
      vertex 20 -20 -30
      vertex 20 20 -30
    endloop
  endfacet
  facet normal 1 0 0
    outer loop
      vertex 20 -5 -7.5
      vertex 20 -20 -30
      vertex 20 -5 -12.5
    endloop
  endfacet
  facet normal -0 0 1
    outer loop
      vertex -20 20 30
      vertex 20 -20 30
      vertex 20 20 30
    endloop
  endfacet
  facet normal 0 0 1
    outer loop
      vertex 20 -20 30
      vertex -20 20 30
      vertex -20 -20 30
    endloop
  endfacet
  facet normal 0 0 -1
    outer loop
      vertex 20 -20 -30
      vertex 3.41506 -0.915063 -30
      vertex 20 20 -30
    endloop
  endfacet
  facet normal 0 0 -1
    outer loop
      vertex 20 -20 -30
      vertex -0.915063 -3.41506 -30
      vertex 3.41506 -0.915063 -30
    endloop
  endfacet
  facet normal -0 0 -1
    outer loop
      vertex -0.915063 -3.41506 -30
      vertex -20 -20 -30
      vertex -3.41506 0.915063 -30
    endloop
  endfacet
  facet normal 0 0 -1
    outer loop
      vertex -20 -20 -30
      vertex -0.915063 -3.41506 -30
      vertex 20 -20 -30
    endloop
  endfacet
  facet normal 0 0 -1
    outer loop
      vertex 0.915063 3.41506 -30
      vertex 20 20 -30
      vertex 3.41506 -0.915063 -30
    endloop
  endfacet
  facet normal 0 0 -1
    outer loop
      vertex -20 20 -30
      vertex 0.915063 3.41506 -30
      vertex -3.41506 0.915063 -30
    endloop
  endfacet
  facet normal 0 0 -1
    outer loop
      vertex 0.915063 3.41506 -30
      vertex -20 20 -30
      vertex 20 20 -30
    endloop
  endfacet
  facet normal 0 0 -1
    outer loop
      vertex -20 20 -30
      vertex -3.41506 0.915063 -30
      vertex -20 -20 -30
    endloop
  endfacet
  facet normal -1 0 0
    outer loop
      vertex -20 -20 -30
      vertex -20 20 30
      vertex -20 20 -30
    endloop
  endfacet
  facet normal -1 -0 0
    outer loop
      vertex -20 20 30
      vertex -20 -20 -30
      vertex -20 -20 30
    endloop
  endfacet
  facet normal 0 1 -0
    outer loop
      vertex 20 20 -30
      vertex -20 20 30
      vertex 20 20 30
    endloop
  endfacet
  facet normal 0 1 0
    outer loop
      vertex -20 20 30
      vertex 20 20 -30
      vertex -20 20 -30
    endloop
  endfacet
  facet normal 0 -1 0
    outer loop
      vertex -5 -20 20
      vertex -20 -20 30
      vertex -15 -20 20
    endloop
  endfacet
  facet normal 0 -1 0
    outer loop
      vertex -20 -20 30
      vertex -15 -20 15
      vertex -15 -20 20
    endloop
  endfacet
  facet normal 0 -1 0
    outer loop
      vertex -15 -20 15
      vertex -15 -20 0
      vertex -5 -20 15
    endloop
  endfacet
  facet normal 0 -1 0
    outer loop
      vertex -20 -20 30
      vertex -15 -20 0
      vertex -15 -20 15
    endloop
  endfacet
  facet normal 0 -1 0
    outer loop
      vertex -20 -20 -30
      vertex -15 -20 0
      vertex -20 -20 30
    endloop
  endfacet
  facet normal 0 -1 0
    outer loop
      vertex -15 -20 -5
      vertex -15 -20 -15
      vertex -5 -20 -5
    endloop
  endfacet
  facet normal 0 -1 -0
    outer loop
      vertex -15 -20 0
      vertex -20 -20 -30
      vertex -15 -20 -5
    endloop
  endfacet
  facet normal 0 -1 -0
    outer loop
      vertex -15 -20 -5
      vertex -20 -20 -30
      vertex -15 -20 -15
    endloop
  endfacet
  facet normal 0 -1 -0
    outer loop
      vertex -15 -20 -25
      vertex -20 -20 -30
      vertex 10 -20 -25
    endloop
  endfacet
  facet normal 0 -1 -0
    outer loop
      vertex -15 -20 -15
      vertex -20 -20 -30
      vertex -15 -20 -25
    endloop
  endfacet
  facet normal 0 -1 0
    outer loop
      vertex -20 -20 30
      vertex -5 -20 20
      vertex 20 -20 30
    endloop
  endfacet
  facet normal 0 -1 0
    outer loop
      vertex -5 -20 15
      vertex 20 -20 30
      vertex -5 -20 20
    endloop
  endfacet
  facet normal 0 -1 0
    outer loop
      vertex -5 -20 0
      vertex -5 -20 15
      vertex -15 -20 0
    endloop
  endfacet
  facet normal 0 -1 0
    outer loop
      vertex -5 -20 15
      vertex -5 -20 0
      vertex 20 -20 30
    endloop
  endfacet
  facet normal 0 -1 0
    outer loop
      vertex 10 -20 -15
      vertex -5 -20 0
      vertex -5 -20 -5
    endloop
  endfacet
  facet normal 0 -1 0
    outer loop
      vertex 10 -20 -15
      vertex -5 -20 -5
      vertex -15 -20 -15
    endloop
  endfacet
  facet normal 0 -1 0
    outer loop
      vertex -5 -20 0
      vertex 10 -20 -15
      vertex 20 -20 30
    endloop
  endfacet
  facet normal 0 -1 0
    outer loop
      vertex 20 -20 -30
      vertex 10 -20 -15
      vertex 10 -20 -25
    endloop
  endfacet
  facet normal 0 -1 0
    outer loop
      vertex 10 -20 -15
      vertex 20 -20 -30
      vertex 20 -20 30
    endloop
  endfacet
  facet normal 0 -1 0
    outer loop
      vertex 20 -20 -30
      vertex 10 -20 -25
      vertex -20 -20 -30
    endloop
  endfacet
  facet normal -1 0 0
    outer loop
      vertex -5 -20 15
      vertex -5 5 20
      vertex -5 5 15
    endloop
  endfacet
  facet normal -1 -0 0
    outer loop
      vertex -5 5 20
      vertex -5 -20 15
      vertex -5 -20 20
    endloop
  endfacet
  facet normal 0 0 -1
    outer loop
      vertex -15 -20 20
      vertex -5 5 20
      vertex -5 -20 20
    endloop
  endfacet
  facet normal -0 0 -1
    outer loop
      vertex -5 5 20
      vertex -15 -20 20
      vertex -15 5 20
    endloop
  endfacet
  facet normal -0 0 1
    outer loop
      vertex -15 5 15
      vertex -5 -20 15
      vertex -5 5 15
    endloop
  endfacet
  facet normal 0 0 1
    outer loop
      vertex -5 -20 15
      vertex -15 5 15
      vertex -15 -20 15
    endloop
  endfacet
  facet normal 1 -0 0
    outer loop
      vertex -15 -20 20
      vertex -15 5 15
      vertex -15 5 20
    endloop
  endfacet
  facet normal 1 0 0
    outer loop
      vertex -15 5 15
      vertex -15 -20 20
      vertex -15 -20 15
    endloop
  endfacet
  facet normal 0 -1 0
    outer loop
      vertex -15 5 15
      vertex -5 5 20
      vertex -15 5 20
    endloop
  endfacet
  facet normal 0 -1 -0
    outer loop
      vertex -5 5 20
      vertex -15 5 15
      vertex -5 5 15
    endloop
  endfacet
  facet normal -1 0 0
    outer loop
      vertex -5 -20 -5
      vertex -5 5 0
      vertex -5 5 -5
    endloop
  endfacet
  facet normal -1 -0 0
    outer loop
      vertex -5 5 0
      vertex -5 -20 -5
      vertex -5 -20 0
    endloop
  endfacet
  facet normal 0 0 -1
    outer loop
      vertex -15 -20 0
      vertex -5 5 0
      vertex -5 -20 0
    endloop
  endfacet
  facet normal -0 0 -1
    outer loop
      vertex -5 5 0
      vertex -15 -20 0
      vertex -15 5 0
    endloop
  endfacet
  facet normal -0 0 1
    outer loop
      vertex -15 5 -5
      vertex -5 -20 -5
      vertex -5 5 -5
    endloop
  endfacet
  facet normal 0 0 1
    outer loop
      vertex -5 -20 -5
      vertex -15 5 -5
      vertex -15 -20 -5
    endloop
  endfacet
  facet normal 1 -0 0
    outer loop
      vertex -15 -20 0
      vertex -15 5 -5
      vertex -15 5 0
    endloop
  endfacet
  facet normal 1 0 0
    outer loop
      vertex -15 5 -5
      vertex -15 -20 0
      vertex -15 -20 -5
    endloop
  endfacet
  facet normal 0 -1 0
    outer loop
      vertex -15 5 -5
      vertex -5 5 0
      vertex -15 5 0
    endloop
  endfacet
  facet normal 0 -1 -0
    outer loop
      vertex -5 5 0
      vertex -15 5 -5
      vertex -5 5 -5
    endloop
  endfacet
  facet normal -1 0 0
    outer loop
      vertex 10 -20 -25
      vertex 10 10 -15
      vertex 10 10 -25
    endloop
  endfacet
  facet normal -1 -0 0
    outer loop
      vertex 10 10 -15
      vertex 10 -20 -25
      vertex 10 -20 -15
    endloop
  endfacet
  facet normal 0 0 -1
    outer loop
      vertex 10 -20 -15
      vertex 3.41506 -0.915063 -15
      vertex 10 10 -15
    endloop
  endfacet
  facet normal 0 0 -1
    outer loop
      vertex 10 -20 -15
      vertex -0.915063 -3.41506 -15
      vertex 3.41506 -0.915063 -15
    endloop
  endfacet
  facet normal -0 0 -1
    outer loop
      vertex -0.915063 -3.41506 -15
      vertex -15 -20 -15
      vertex -3.41506 0.915063 -15
    endloop
  endfacet
  facet normal 0 0 -1
    outer loop
      vertex -15 -20 -15
      vertex -0.915063 -3.41506 -15
      vertex 10 -20 -15
    endloop
  endfacet
  facet normal 0 0 -1
    outer loop
      vertex 0.915063 3.41506 -15
      vertex 10 10 -15
      vertex 3.41506 -0.915063 -15
    endloop
  endfacet
  facet normal 0 0 -1
    outer loop
      vertex -15 10 -15
      vertex 0.915063 3.41506 -15
      vertex -3.41506 0.915063 -15
    endloop
  endfacet
  facet normal 0 0 -1
    outer loop
      vertex 0.915063 3.41506 -15
      vertex -15 10 -15
      vertex 10 10 -15
    endloop
  endfacet
  facet normal 0 0 -1
    outer loop
      vertex -15 10 -15
      vertex -3.41506 0.915063 -15
      vertex -15 -20 -15
    endloop
  endfacet
  facet normal 0 0 1
    outer loop
      vertex 10 10 -25
      vertex 3.41506 -0.915063 -25
      vertex 10 -20 -25
    endloop
  endfacet
  facet normal 0 0 1
    outer loop
      vertex 10 10 -25
      vertex 0.915063 3.41506 -25
      vertex 3.41506 -0.915063 -25
    endloop
  endfacet
  facet normal -0 0 1
    outer loop
      vertex -15 10 -25
      vertex 0.915063 3.41506 -25
      vertex 10 10 -25
    endloop
  endfacet
  facet normal 0 0 1
    outer loop
      vertex 0.915063 3.41506 -25
      vertex -15 10 -25
      vertex -3.41506 0.915063 -25
    endloop
  endfacet
  facet normal -0 0 1
    outer loop
      vertex -0.915063 -3.41506 -25
      vertex 10 -20 -25
      vertex 3.41506 -0.915063 -25
    endloop
  endfacet
  facet normal 0 0 1
    outer loop
      vertex -15 -20 -25
      vertex -3.41506 0.915063 -25
      vertex -15 10 -25
    endloop
  endfacet
  facet normal 0 0 1
    outer loop
      vertex -3.41506 0.915063 -25
      vertex -15 -20 -25
      vertex -0.915063 -3.41506 -25
    endloop
  endfacet
  facet normal 0 0 1
    outer loop
      vertex -0.915063 -3.41506 -25
      vertex -15 -20 -25
      vertex 10 -20 -25
    endloop
  endfacet
  facet normal 1 -0 0
    outer loop
      vertex -15 -20 -15
      vertex -15 10 -25
      vertex -15 10 -15
    endloop
  endfacet
  facet normal 1 0 0
    outer loop
      vertex -15 10 -25
      vertex -15 -20 -15
      vertex -15 -20 -25
    endloop
  endfacet
  facet normal 0 -1 0
    outer loop
      vertex -15 10 -25
      vertex 10 10 -15
      vertex -15 10 -15
    endloop
  endfacet
  facet normal 0 -1 -0
    outer loop
      vertex 10 10 -15
      vertex -15 10 -25
      vertex 10 10 -25
    endloop
  endfacet
  facet normal -0.866025 -0.5 0
    outer loop
      vertex -0.915063 -3.41506 -45
      vertex -3.41506 0.915063 -30
      vertex -3.41506 0.915063 -45
    endloop
  endfacet
  facet normal -0.866025 -0.5 0
    outer loop
      vertex -3.41506 0.915063 -30
      vertex -0.915063 -3.41506 -45
      vertex -0.915063 -3.41506 -30
    endloop
  endfacet
  facet normal -0.866025 -0.5 0
    outer loop
      vertex -0.915063 -3.41506 -25
      vertex -3.41506 0.915063 -15
      vertex -3.41506 0.915063 -25
    endloop
  endfacet
  facet normal -0.866025 -0.5 0
    outer loop
      vertex -3.41506 0.915063 -15
      vertex -0.915063 -3.41506 -25
      vertex -0.915063 -3.41506 -15
    endloop
  endfacet
  facet normal -0.5 0.866025 0
    outer loop
      vertex 0.915063 3.41506 -45
      vertex -3.41506 0.915063 -30
      vertex 0.915063 3.41506 -30
    endloop
  endfacet
  facet normal -0.5 0.866025 0
    outer loop
      vertex -3.41506 0.915063 -30
      vertex 0.915063 3.41506 -45
      vertex -3.41506 0.915063 -45
    endloop
  endfacet
  facet normal -0.5 0.866025 0
    outer loop
      vertex 0.915063 3.41506 -25
      vertex -3.41506 0.915063 -15
      vertex 0.915063 3.41506 -15
    endloop
  endfacet
  facet normal -0.5 0.866025 0
    outer loop
      vertex -3.41506 0.915063 -15
      vertex 0.915063 3.41506 -25
      vertex -3.41506 0.915063 -25
    endloop
  endfacet
  facet normal 0 0 -1
    outer loop
      vertex -0.915063 -3.41506 -45
      vertex 0.915063 3.41506 -45
      vertex 3.41506 -0.915063 -45
    endloop
  endfacet
  facet normal 0 0 -1
    outer loop
      vertex 0.915063 3.41506 -45
      vertex -0.915063 -3.41506 -45
      vertex -3.41506 0.915063 -45
    endloop
  endfacet
  facet normal 0.5 -0.866025 0
    outer loop
      vertex -0.915063 -3.41506 -45
      vertex 3.41506 -0.915063 -30
      vertex -0.915063 -3.41506 -30
    endloop
  endfacet
  facet normal 0.5 -0.866025 0
    outer loop
      vertex 3.41506 -0.915063 -30
      vertex -0.915063 -3.41506 -45
      vertex 3.41506 -0.915063 -45
    endloop
  endfacet
  facet normal 0.5 -0.866025 0
    outer loop
      vertex -0.915063 -3.41506 -25
      vertex 3.41506 -0.915063 -15
      vertex -0.915063 -3.41506 -15
    endloop
  endfacet
  facet normal 0.5 -0.866025 0
    outer loop
      vertex 3.41506 -0.915063 -15
      vertex -0.915063 -3.41506 -25
      vertex 3.41506 -0.915063 -25
    endloop
  endfacet
  facet normal 0.866025 0.5 0
    outer loop
      vertex 3.41506 -0.915063 -30
      vertex 0.915063 3.41506 -45
      vertex 0.915063 3.41506 -30
    endloop
  endfacet
  facet normal 0.866025 0.5 0
    outer loop
      vertex 0.915063 3.41506 -45
      vertex 3.41506 -0.915063 -30
      vertex 3.41506 -0.915063 -45
    endloop
  endfacet
  facet normal 0.866025 0.5 0
    outer loop
      vertex 3.41506 -0.915063 -15
      vertex 0.915063 3.41506 -25
      vertex 0.915063 3.41506 -15
    endloop
  endfacet
  facet normal 0.866025 0.5 0
    outer loop
      vertex 0.915063 3.41506 -25
      vertex 3.41506 -0.915063 -15
      vertex 3.41506 -0.915063 -25
    endloop
  endfacet
  facet normal 1 -0 0
    outer loop
      vertex 40 -5 -7.5
      vertex 40 5 -12.5
      vertex 40 5 -7.5
    endloop
  endfacet
  facet normal 1 0 0
    outer loop
      vertex 40 5 -12.5
      vertex 40 -5 -7.5
      vertex 40 -5 -12.5
    endloop
  endfacet
  facet normal -0 0 1
    outer loop
      vertex 20 5 -7.5
      vertex 40 -5 -7.5
      vertex 40 5 -7.5
    endloop
  endfacet
  facet normal 0 0 1
    outer loop
      vertex 40 -5 -7.5
      vertex 20 5 -7.5
      vertex 20 -5 -7.5
    endloop
  endfacet
  facet normal 0 0 -1
    outer loop
      vertex 20 -5 -12.5
      vertex 40 5 -12.5
      vertex 40 -5 -12.5
    endloop
  endfacet
  facet normal -0 0 -1
    outer loop
      vertex 40 5 -12.5
      vertex 20 -5 -12.5
      vertex 20 5 -12.5
    endloop
  endfacet
  facet normal 0 1 -0
    outer loop
      vertex 40 5 -12.5
      vertex 20 5 -7.5
      vertex 40 5 -7.5
    endloop
  endfacet
  facet normal 0 1 0
    outer loop
      vertex 20 5 -7.5
      vertex 40 5 -12.5
      vertex 20 5 -12.5
    endloop
  endfacet
  facet normal 0 -1 0
    outer loop
      vertex 20 -5 -12.5
      vertex 40 -5 -7.5
      vertex 20 -5 -7.5
    endloop
  endfacet
  facet normal 0 -1 -0
    outer loop
      vertex 40 -5 -7.5
      vertex 20 -5 -12.5
      vertex 40 -5 -12.5
    endloop
  endfacet
endsolid OpenSCAD_Model
