solid OpenSCAD_Model
  facet normal 1 -0 0
    outer loop
      vertex 25 -15 1
      vertex 25 15 -1
      vertex 25 15 1
    endloop
  endfacet
  facet normal 1 0 0
    outer loop
      vertex 25 15 -1
      vertex 25 -15 1
      vertex 25 -15 -1
    endloop
  endfacet
  facet normal 0 0 1
    outer loop
      vertex 25 15 1
      vertex 23 13 1
      vertex 25 -15 1
    endloop
  endfacet
  facet normal 0 0 1
    outer loop
      vertex 25 15 1
      vertex -23 13 1
      vertex 23 13 1
    endloop
  endfacet
  facet normal 0 0 1
    outer loop
      vertex -23 13 1
      vertex -25 15 1
      vertex -23 -13 1
    endloop
  endfacet
  facet normal -0 0 1
    outer loop
      vertex -25 15 1
      vertex -23 13 1
      vertex 25 15 1
    endloop
  endfacet
  facet normal -0 0 1
    outer loop
      vertex 23 -13 1
      vertex 25 -15 1
      vertex 23 13 1
    endloop
  endfacet
  facet normal -0 0 1
    outer loop
      vertex -23 -13 1
      vertex 25 -15 1
      vertex 23 -13 1
    endloop
  endfacet
  facet normal 0 0 1
    outer loop
      vertex -23 -13 1
      vertex -25 -15 1
      vertex 25 -15 1
    endloop
  endfacet
  facet normal 0 0 1
    outer loop
      vertex -25 -15 1
      vertex -23 -13 1
      vertex -25 15 1
    endloop
  endfacet
  facet normal 0 0 -1
    outer loop
      vertex 25 -15 -1
      vertex 23 -13 -1
      vertex 25 15 -1
    endloop
  endfacet
  facet normal 0 0 -1
    outer loop
      vertex 25 -15 -1
      vertex -23 -13 -1
      vertex 23 -13 -1
    endloop
  endfacet
  facet normal -0 0 -1
    outer loop
      vertex -23 -13 -1
      vertex -25 -15 -1
      vertex -23 13 -1
    endloop
  endfacet
  facet normal 0 0 -1
    outer loop
      vertex -25 -15 -1
      vertex -23 -13 -1
      vertex 25 -15 -1
    endloop
  endfacet
  facet normal 0 0 -1
    outer loop
      vertex 23 13 -1
      vertex 25 15 -1
      vertex 23 -13 -1
    endloop
  endfacet
  facet normal 0 0 -1
    outer loop
      vertex -23 13 -1
      vertex 25 15 -1
      vertex 23 13 -1
    endloop
  endfacet
  facet normal 0 0 -1
    outer loop
      vertex -23 13 -1
      vertex -25 15 -1
      vertex 25 15 -1
    endloop
  endfacet
  facet normal 0 0 -1
    outer loop
      vertex -25 15 -1
      vertex -23 13 -1
      vertex -25 -15 -1
    endloop
  endfacet
  facet normal -1 0 0
    outer loop
      vertex -25 -15 -1
      vertex -25 15 1
      vertex -25 15 -1
    endloop
  endfacet
  facet normal -1 -0 0
    outer loop
      vertex -25 15 1
      vertex -25 -15 -1
      vertex -25 -15 1
    endloop
  endfacet
  facet normal 0 1 -0
    outer loop
      vertex 25 15 -1
      vertex -25 15 1
      vertex 25 15 1
    endloop
  endfacet
  facet normal 0 1 0
    outer loop
      vertex -25 15 1
      vertex 25 15 -1
      vertex -25 15 -1
    endloop
  endfacet
  facet normal 0 -1 0
    outer loop
      vertex -25 -15 -1
      vertex 25 -15 1
      vertex -25 -15 1
    endloop
  endfacet
  facet normal 0 -1 -0
    outer loop
      vertex 25 -15 1
      vertex -25 -15 -1
      vertex 25 -15 -1
    endloop
  endfacet
  facet normal -1 0 0
    outer loop
      vertex 23 -13 -1
      vertex 23 13 1
      vertex 23 13 -1
    endloop
  endfacet
  facet normal -1 -0 0
    outer loop
      vertex 23 13 1
      vertex 23 -13 -1
      vertex 23 -13 1
    endloop
  endfacet
  facet normal 1 -0 0
    outer loop
      vertex -23 -13 1
      vertex -23 13 -1
      vertex -23 13 1
    endloop
  endfacet
  facet normal 1 0 0
    outer loop
      vertex -23 13 -1
      vertex -23 -13 1
      vertex -23 -13 -1
    endloop
  endfacet
  facet normal 0 -1 0
    outer loop
      vertex -23 13 -1
      vertex 23 13 1
      vertex -23 13 1
    endloop
  endfacet
  facet normal 0 -1 -0
    outer loop
      vertex 23 13 1
      vertex -23 13 -1
      vertex 23 13 -1
    endloop
  endfacet
  facet normal 0 1 -0
    outer loop
      vertex 23 -13 -1
      vertex -23 -13 1
      vertex 23 -13 1
    endloop
  endfacet
  facet normal 0 1 0
    outer loop
      vertex -23 -13 1
      vertex 23 -13 -1
      vertex -23 -13 -1
    endloop
  endfacet
  facet normal 1 -0 0
    outer loop
      vertex 25 -15 -9
      vertex 25 15 -11
      vertex 25 15 -9
    endloop
  endfacet
  facet normal 1 0 0
    outer loop
      vertex 25 15 -11
      vertex 25 -15 -9
      vertex 25 -15 -11
    endloop
  endfacet
  facet normal 0 0 1
    outer loop
      vertex 25 15 -9
      vertex 23 13 -9
      vertex 25 -15 -9
    endloop
  endfacet
  facet normal 0 0 1
    outer loop
      vertex 25 15 -9
      vertex -23 13 -9
      vertex 23 13 -9
    endloop
  endfacet
  facet normal 0 0 1
    outer loop
      vertex -23 13 -9
      vertex -25 15 -9
      vertex -23 -13 -9
    endloop
  endfacet
  facet normal -0 0 1
    outer loop
      vertex -25 15 -9
      vertex -23 13 -9
      vertex 25 15 -9
    endloop
  endfacet
  facet normal -0 0 1
    outer loop
      vertex 23 -13 -9
      vertex 25 -15 -9
      vertex 23 13 -9
    endloop
  endfacet
  facet normal -0 0 1
    outer loop
      vertex -23 -13 -9
      vertex 25 -15 -9
      vertex 23 -13 -9
    endloop
  endfacet
  facet normal 0 0 1
    outer loop
      vertex -23 -13 -9
      vertex -25 -15 -9
      vertex 25 -15 -9
    endloop
  endfacet
  facet normal 0 0 1
    outer loop
      vertex -25 -15 -9
      vertex -23 -13 -9
      vertex -25 15 -9
    endloop
  endfacet
  facet normal 0 0 -1
    outer loop
      vertex 25 -15 -11
      vertex 23 -13 -11
      vertex 25 15 -11
    endloop
  endfacet
  facet normal 0 0 -1
    outer loop
      vertex 25 -15 -11
      vertex -23 -13 -11
      vertex 23 -13 -11
    endloop
  endfacet
  facet normal -0 0 -1
    outer loop
      vertex -23 -13 -11
      vertex -25 -15 -11
      vertex -23 13 -11
    endloop
  endfacet
  facet normal 0 0 -1
    outer loop
      vertex -25 -15 -11
      vertex -23 -13 -11
      vertex 25 -15 -11
    endloop
  endfacet
  facet normal 0 0 -1
    outer loop
      vertex 23 13 -11
      vertex 25 15 -11
      vertex 23 -13 -11
    endloop
  endfacet
  facet normal 0 0 -1
    outer loop
      vertex -23 13 -11
      vertex 25 15 -11
      vertex 23 13 -11
    endloop
  endfacet
  facet normal 0 0 -1
    outer loop
      vertex -23 13 -11
      vertex -25 15 -11
      vertex 25 15 -11
    endloop
  endfacet
  facet normal 0 0 -1
    outer loop
      vertex -25 15 -11
      vertex -23 13 -11
      vertex -25 -15 -11
    endloop
  endfacet
  facet normal -1 0 0
    outer loop
      vertex -25 -15 -11
      vertex -25 15 -9
      vertex -25 15 -11
    endloop
  endfacet
  facet normal -1 -0 0
    outer loop
      vertex -25 15 -9
      vertex -25 -15 -11
      vertex -25 -15 -9
    endloop
  endfacet
  facet normal 0 1 -0
    outer loop
      vertex 25 15 -11
      vertex -25 15 -9
      vertex 25 15 -9
    endloop
  endfacet
  facet normal 0 1 0
    outer loop
      vertex -25 15 -9
      vertex 25 15 -11
      vertex -25 15 -11
    endloop
  endfacet
  facet normal 0 -1 0
    outer loop
      vertex -25 -15 -11
      vertex 25 -15 -9
      vertex -25 -15 -9
    endloop
  endfacet
  facet normal 0 -1 -0
    outer loop
      vertex 25 -15 -9
      vertex -25 -15 -11
      vertex 25 -15 -11
    endloop
  endfacet
  facet normal -1 0 0
    outer loop
      vertex 23 -13 -11
      vertex 23 13 -9
      vertex 23 13 -11
    endloop
  endfacet
  facet normal -1 -0 0
    outer loop
      vertex 23 13 -9
      vertex 23 -13 -11
      vertex 23 -13 -9
    endloop
  endfacet
  facet normal 1 -0 0
    outer loop
      vertex -23 -13 -9
      vertex -23 13 -11
      vertex -23 13 -9
    endloop
  endfacet
  facet normal 1 0 0
    outer loop
      vertex -23 13 -11
      vertex -23 -13 -9
      vertex -23 -13 -11
    endloop
  endfacet
  facet normal 0 -1 0
    outer loop
      vertex -23 13 -11
      vertex 23 13 -9
      vertex -23 13 -9
    endloop
  endfacet
  facet normal 0 -1 -0
    outer loop
      vertex 23 13 -9
      vertex -23 13 -11
      vertex 23 13 -11
    endloop
  endfacet
  facet normal 0 1 -0
    outer loop
      vertex 23 -13 -11
      vertex -23 -13 -9
      vertex 23 -13 -9
    endloop
  endfacet
  facet normal 0 1 0
    outer loop
      vertex -23 -13 -9
      vertex 23 -13 -11
      vertex -23 -13 -11
    endloop
  endfacet
  facet normal 1 -0 0
    outer loop
      vertex 25 -15 -19
      vertex 25 15 -21
      vertex 25 15 -19
    endloop
  endfacet
  facet normal 1 0 0
    outer loop
      vertex 25 15 -21
      vertex 25 -15 -19
      vertex 25 -15 -21
    endloop
  endfacet
  facet normal 0 0 1
    outer loop
      vertex 25 15 -19
      vertex 23 13 -19
      vertex 25 -15 -19
    endloop
  endfacet
  facet normal 0 0 1
    outer loop
      vertex 25 15 -19
      vertex -23 13 -19
      vertex 23 13 -19
    endloop
  endfacet
  facet normal 0 0 1
    outer loop
      vertex -23 13 -19
      vertex -25 15 -19
      vertex -23 -13 -19
    endloop
  endfacet
  facet normal -0 0 1
    outer loop
      vertex -25 15 -19
      vertex -23 13 -19
      vertex 25 15 -19
    endloop
  endfacet
  facet normal -0 0 1
    outer loop
      vertex 23 -13 -19
      vertex 25 -15 -19
      vertex 23 13 -19
    endloop
  endfacet
  facet normal -0 0 1
    outer loop
      vertex -23 -13 -19
      vertex 25 -15 -19
      vertex 23 -13 -19
    endloop
  endfacet
  facet normal 0 0 1
    outer loop
      vertex -23 -13 -19
      vertex -25 -15 -19
      vertex 25 -15 -19
    endloop
  endfacet
  facet normal 0 0 1
    outer loop
      vertex -25 -15 -19
      vertex -23 -13 -19
      vertex -25 15 -19
    endloop
  endfacet
  facet normal 0 0 -1
    outer loop
      vertex 25 -15 -21
      vertex 23 -13 -21
      vertex 25 15 -21
    endloop
  endfacet
  facet normal 0 0 -1
    outer loop
      vertex 25 -15 -21
      vertex -23 -13 -21
      vertex 23 -13 -21
    endloop
  endfacet
  facet normal -0 0 -1
    outer loop
      vertex -23 -13 -21
      vertex -25 -15 -21
      vertex -23 13 -21
    endloop
  endfacet
  facet normal 0 0 -1
    outer loop
      vertex -25 -15 -21
      vertex -23 -13 -21
      vertex 25 -15 -21
    endloop
  endfacet
  facet normal 0 0 -1
    outer loop
      vertex 23 13 -21
      vertex 25 15 -21
      vertex 23 -13 -21
    endloop
  endfacet
  facet normal 0 0 -1
    outer loop
      vertex -23 13 -21
      vertex 25 15 -21
      vertex 23 13 -21
    endloop
  endfacet
  facet normal 0 0 -1
    outer loop
      vertex -23 13 -21
      vertex -25 15 -21
      vertex 25 15 -21
    endloop
  endfacet
  facet normal 0 0 -1
    outer loop
      vertex -25 15 -21
      vertex -23 13 -21
      vertex -25 -15 -21
    endloop
  endfacet
  facet normal -1 0 0
    outer loop
      vertex -25 -15 -21
      vertex -25 15 -19
      vertex -25 15 -21
    endloop
  endfacet
  facet normal -1 -0 0
    outer loop
      vertex -25 15 -19
      vertex -25 -15 -21
      vertex -25 -15 -19
    endloop
  endfacet
  facet normal 0 1 -0
    outer loop
      vertex 25 15 -21
      vertex -25 15 -19
      vertex 25 15 -19
    endloop
  endfacet
  facet normal 0 1 0
    outer loop
      vertex -25 15 -19
      vertex 25 15 -21
      vertex -25 15 -21
    endloop
  endfacet
  facet normal 0 -1 0
    outer loop
      vertex -25 -15 -21
      vertex 25 -15 -19
      vertex -25 -15 -19
    endloop
  endfacet
  facet normal 0 -1 -0
    outer loop
      vertex 25 -15 -19
      vertex -25 -15 -21
      vertex 25 -15 -21
    endloop
  endfacet
  facet normal -1 0 0
    outer loop
      vertex 23 -13 -21
      vertex 23 13 -19
      vertex 23 13 -21
    endloop
  endfacet
  facet normal -1 -0 0
    outer loop
      vertex 23 13 -19
      vertex 23 -13 -21
      vertex 23 -13 -19
    endloop
  endfacet
  facet normal 1 -0 0
    outer loop
      vertex -23 -13 -19
      vertex -23 13 -21
      vertex -23 13 -19
    endloop
  endfacet
  facet normal 1 0 0
    outer loop
      vertex -23 13 -21
      vertex -23 -13 -19
      vertex -23 -13 -21
    endloop
  endfacet
  facet normal 0 -1 0
    outer loop
      vertex -23 13 -21
      vertex 23 13 -19
      vertex -23 13 -19
    endloop
  endfacet
  facet normal 0 -1 -0
    outer loop
      vertex 23 13 -19
      vertex -23 13 -21
      vertex 23 13 -21
    endloop
  endfacet
  facet normal 0 1 -0
    outer loop
      vertex 23 -13 -21
      vertex -23 -13 -19
      vertex 23 -13 -19
    endloop
  endfacet
  facet normal 0 1 0
    outer loop
      vertex -23 -13 -19
      vertex 23 -13 -21
      vertex -23 -13 -21
    endloop
  endfacet
  facet normal 1 -0 0
    outer loop
      vertex 25 -15 -29
      vertex 25 15 -31
      vertex 25 15 -29
    endloop
  endfacet
  facet normal 1 0 0
    outer loop
      vertex 25 15 -31
      vertex 25 -15 -29
      vertex 25 -15 -31
    endloop
  endfacet
  facet normal 0 0 1
    outer loop
      vertex 25 15 -29
      vertex 23 13 -29
      vertex 25 -15 -29
    endloop
  endfacet
  facet normal 0 0 1
    outer loop
      vertex 25 15 -29
      vertex -23 13 -29
      vertex 23 13 -29
    endloop
  endfacet
  facet normal 0 0 1
    outer loop
      vertex -23 13 -29
      vertex -25 15 -29
      vertex -23 -13 -29
    endloop
  endfacet
  facet normal -0 0 1
    outer loop
      vertex -25 15 -29
      vertex -23 13 -29
      vertex 25 15 -29
    endloop
  endfacet
  facet normal -0 0 1
    outer loop
      vertex 23 -13 -29
      vertex 25 -15 -29
      vertex 23 13 -29
    endloop
  endfacet
  facet normal -0 0 1
    outer loop
      vertex -23 -13 -29
      vertex 25 -15 -29
      vertex 23 -13 -29
    endloop
  endfacet
  facet normal 0 0 1
    outer loop
      vertex -23 -13 -29
      vertex -25 -15 -29
      vertex 25 -15 -29
    endloop
  endfacet
  facet normal 0 0 1
    outer loop
      vertex -25 -15 -29
      vertex -23 -13 -29
      vertex -25 15 -29
    endloop
  endfacet
  facet normal 0 0 -1
    outer loop
      vertex 25 -15 -31
      vertex 23 -13 -31
      vertex 25 15 -31
    endloop
  endfacet
  facet normal 0 0 -1
    outer loop
      vertex 25 -15 -31
      vertex -23 -13 -31
      vertex 23 -13 -31
    endloop
  endfacet
  facet normal -0 0 -1
    outer loop
      vertex -23 -13 -31
      vertex -25 -15 -31
      vertex -23 13 -31
    endloop
  endfacet
  facet normal 0 0 -1
    outer loop
      vertex -25 -15 -31
      vertex -23 -13 -31
      vertex 25 -15 -31
    endloop
  endfacet
  facet normal 0 0 -1
    outer loop
      vertex 23 13 -31
      vertex 25 15 -31
      vertex 23 -13 -31
    endloop
  endfacet
  facet normal 0 0 -1
    outer loop
      vertex -23 13 -31
      vertex 25 15 -31
      vertex 23 13 -31
    endloop
  endfacet
  facet normal 0 0 -1
    outer loop
      vertex -23 13 -31
      vertex -25 15 -31
      vertex 25 15 -31
    endloop
  endfacet
  facet normal 0 0 -1
    outer loop
      vertex -25 15 -31
      vertex -23 13 -31
      vertex -25 -15 -31
    endloop
  endfacet
  facet normal -1 0 0
    outer loop
      vertex -25 -15 -31
      vertex -25 15 -29
      vertex -25 15 -31
    endloop
  endfacet
  facet normal -1 -0 0
    outer loop
      vertex -25 15 -29
      vertex -25 -15 -31
      vertex -25 -15 -29
    endloop
  endfacet
  facet normal 0 1 -0
    outer loop
      vertex 25 15 -31
      vertex -25 15 -29
      vertex 25 15 -29
    endloop
  endfacet
  facet normal 0 1 0
    outer loop
      vertex -25 15 -29
      vertex 25 15 -31
      vertex -25 15 -31
    endloop
  endfacet
  facet normal 0 -1 0
    outer loop
      vertex -25 -15 -31
      vertex 25 -15 -29
      vertex -25 -15 -29
    endloop
  endfacet
  facet normal 0 -1 -0
    outer loop
      vertex 25 -15 -29
      vertex -25 -15 -31
      vertex 25 -15 -31
    endloop
  endfacet
  facet normal -1 0 0
    outer loop
      vertex 23 -13 -31
      vertex 23 13 -29
      vertex 23 13 -31
    endloop
  endfacet
  facet normal -1 -0 0
    outer loop
      vertex 23 13 -29
      vertex 23 -13 -31
      vertex 23 -13 -29
    endloop
  endfacet
  facet normal 1 -0 0
    outer loop
      vertex -23 -13 -29
      vertex -23 13 -31
      vertex -23 13 -29
    endloop
  endfacet
  facet normal 1 0 0
    outer loop
      vertex -23 13 -31
      vertex -23 -13 -29
      vertex -23 -13 -31
    endloop
  endfacet
  facet normal 0 -1 0
    outer loop
      vertex -23 13 -31
      vertex 23 13 -29
      vertex -23 13 -29
    endloop
  endfacet
  facet normal 0 -1 -0
    outer loop
      vertex 23 13 -29
      vertex -23 13 -31
      vertex 23 13 -31
    endloop
  endfacet
  facet normal 0 1 -0
    outer loop
      vertex 23 -13 -31
      vertex -23 -13 -29
      vertex 23 -13 -29
    endloop
  endfacet
  facet normal 0 1 0
    outer loop
      vertex -23 -13 -29
      vertex 23 -13 -31
      vertex -23 -13 -31
    endloop
  endfacet
  facet normal 1 -0 0
    outer loop
      vertex 25 -15 -39
      vertex 25 15 -41
      vertex 25 15 -39
    endloop
  endfacet
  facet normal 1 0 0
    outer loop
      vertex 25 15 -41
      vertex 25 -15 -39
      vertex 25 -15 -41
    endloop
  endfacet
  facet normal 0 0 1
    outer loop
      vertex 25 15 -39
      vertex 23 13 -39
      vertex 25 -15 -39
    endloop
  endfacet
  facet normal 0 0 1
    outer loop
      vertex 25 15 -39
      vertex -23 13 -39
      vertex 23 13 -39
    endloop
  endfacet
  facet normal 0 0 1
    outer loop
      vertex -23 13 -39
      vertex -25 15 -39
      vertex -23 -13 -39
    endloop
  endfacet
  facet normal -0 0 1
    outer loop
      vertex -25 15 -39
      vertex -23 13 -39
      vertex 25 15 -39
    endloop
  endfacet
  facet normal -0 0 1
    outer loop
      vertex 23 -13 -39
      vertex 25 -15 -39
      vertex 23 13 -39
    endloop
  endfacet
  facet normal -0 0 1
    outer loop
      vertex -23 -13 -39
      vertex 25 -15 -39
      vertex 23 -13 -39
    endloop
  endfacet
  facet normal 0 0 1
    outer loop
      vertex -23 -13 -39
      vertex -25 -15 -39
      vertex 25 -15 -39
    endloop
  endfacet
  facet normal 0 0 1
    outer loop
      vertex -25 -15 -39
      vertex -23 -13 -39
      vertex -25 15 -39
    endloop
  endfacet
  facet normal 0 0 -1
    outer loop
      vertex 25 -15 -41
      vertex 23 -13 -41
      vertex 25 15 -41
    endloop
  endfacet
  facet normal 0 0 -1
    outer loop
      vertex 25 -15 -41
      vertex -23 -13 -41
      vertex 23 -13 -41
    endloop
  endfacet
  facet normal -0 0 -1
    outer loop
      vertex -23 -13 -41
      vertex -25 -15 -41
      vertex -23 13 -41
    endloop
  endfacet
  facet normal 0 0 -1
    outer loop
      vertex -25 -15 -41
      vertex -23 -13 -41
      vertex 25 -15 -41
    endloop
  endfacet
  facet normal 0 0 -1
    outer loop
      vertex 23 13 -41
      vertex 25 15 -41
      vertex 23 -13 -41
    endloop
  endfacet
  facet normal 0 0 -1
    outer loop
      vertex -23 13 -41
      vertex 25 15 -41
      vertex 23 13 -41
    endloop
  endfacet
  facet normal 0 0 -1
    outer loop
      vertex -23 13 -41
      vertex -25 15 -41
      vertex 25 15 -41
    endloop
  endfacet
  facet normal 0 0 -1
    outer loop
      vertex -25 15 -41
      vertex -23 13 -41
      vertex -25 -15 -41
    endloop
  endfacet
  facet normal -1 0 0
    outer loop
      vertex -25 -15 -41
      vertex -25 15 -39
      vertex -25 15 -41
    endloop
  endfacet
  facet normal -1 -0 0
    outer loop
      vertex -25 15 -39
      vertex -25 -15 -41
      vertex -25 -15 -39
    endloop
  endfacet
  facet normal 0 1 -0
    outer loop
      vertex 25 15 -41
      vertex -25 15 -39
      vertex 25 15 -39
    endloop
  endfacet
  facet normal 0 1 0
    outer loop
      vertex -25 15 -39
      vertex 25 15 -41
      vertex -25 15 -41
    endloop
  endfacet
  facet normal 0 -1 0
    outer loop
      vertex -25 -15 -41
      vertex 25 -15 -39
      vertex -25 -15 -39
    endloop
  endfacet
  facet normal 0 -1 -0
    outer loop
      vertex 25 -15 -39
      vertex -25 -15 -41
      vertex 25 -15 -41
    endloop
  endfacet
  facet normal -1 0 0
    outer loop
      vertex 23 -13 -41
      vertex 23 13 -39
      vertex 23 13 -41
    endloop
  endfacet
  facet normal -1 -0 0
    outer loop
      vertex 23 13 -39
      vertex 23 -13 -41
      vertex 23 -13 -39
    endloop
  endfacet
  facet normal 1 -0 0
    outer loop
      vertex -23 -13 -39
      vertex -23 13 -41
      vertex -23 13 -39
    endloop
  endfacet
  facet normal 1 0 0
    outer loop
      vertex -23 13 -41
      vertex -23 -13 -39
      vertex -23 -13 -41
    endloop
  endfacet
  facet normal 0 -1 0
    outer loop
      vertex -23 13 -41
      vertex 23 13 -39
      vertex -23 13 -39
    endloop
  endfacet
  facet normal 0 -1 -0
    outer loop
      vertex 23 13 -39
      vertex -23 13 -41
      vertex 23 13 -41
    endloop
  endfacet
  facet normal 0 1 -0
    outer loop
      vertex 23 -13 -41
      vertex -23 -13 -39
      vertex 23 -13 -39
    endloop
  endfacet
  facet normal 0 1 0
    outer loop
      vertex -23 -13 -39
      vertex 23 -13 -41
      vertex -23 -13 -41
    endloop
  endfacet
  facet normal 1 -0 0
    outer loop
      vertex 25 -15 -49
      vertex 25 15 -51
      vertex 25 15 -49
    endloop
  endfacet
  facet normal 1 0 0
    outer loop
      vertex 25 15 -51
      vertex 25 -15 -49
      vertex 25 -15 -51
    endloop
  endfacet
  facet normal 0 0 1
    outer loop
      vertex 25 15 -49
      vertex 23 13 -49
      vertex 25 -15 -49
    endloop
  endfacet
  facet normal 0 0 1
    outer loop
      vertex 25 15 -49
      vertex -23 13 -49
      vertex 23 13 -49
    endloop
  endfacet
  facet normal 0 0 1
    outer loop
      vertex -23 13 -49
      vertex -25 15 -49
      vertex -23 -13 -49
    endloop
  endfacet
  facet normal -0 0 1
    outer loop
      vertex -25 15 -49
      vertex -23 13 -49
      vertex 25 15 -49
    endloop
  endfacet
  facet normal -0 0 1
    outer loop
      vertex 23 -13 -49
      vertex 25 -15 -49
      vertex 23 13 -49
    endloop
  endfacet
  facet normal -0 0 1
    outer loop
      vertex -23 -13 -49
      vertex 25 -15 -49
      vertex 23 -13 -49
    endloop
  endfacet
  facet normal 0 0 1
    outer loop
      vertex -23 -13 -49
      vertex -25 -15 -49
      vertex 25 -15 -49
    endloop
  endfacet
  facet normal 0 0 1
    outer loop
      vertex -25 -15 -49
      vertex -23 -13 -49
      vertex -25 15 -49
    endloop
  endfacet
  facet normal 0 0 -1
    outer loop
      vertex 25 -15 -51
      vertex 23 -13 -51
      vertex 25 15 -51
    endloop
  endfacet
  facet normal 0 0 -1
    outer loop
      vertex 25 -15 -51
      vertex -23 -13 -51
      vertex 23 -13 -51
    endloop
  endfacet
  facet normal -0 0 -1
    outer loop
      vertex -23 -13 -51
      vertex -25 -15 -51
      vertex -23 13 -51
    endloop
  endfacet
  facet normal 0 0 -1
    outer loop
      vertex -25 -15 -51
      vertex -23 -13 -51
      vertex 25 -15 -51
    endloop
  endfacet
  facet normal 0 0 -1
    outer loop
      vertex 23 13 -51
      vertex 25 15 -51
      vertex 23 -13 -51
    endloop
  endfacet
  facet normal 0 0 -1
    outer loop
      vertex -23 13 -51
      vertex 25 15 -51
      vertex 23 13 -51
    endloop
  endfacet
  facet normal 0 0 -1
    outer loop
      vertex -23 13 -51
      vertex -25 15 -51
      vertex 25 15 -51
    endloop
  endfacet
  facet normal 0 0 -1
    outer loop
      vertex -25 15 -51
      vertex -23 13 -51
      vertex -25 -15 -51
    endloop
  endfacet
  facet normal -1 0 0
    outer loop
      vertex -25 -15 -51
      vertex -25 15 -49
      vertex -25 15 -51
    endloop
  endfacet
  facet normal -1 -0 0
    outer loop
      vertex -25 15 -49
      vertex -25 -15 -51
      vertex -25 -15 -49
    endloop
  endfacet
  facet normal 0 1 -0
    outer loop
      vertex 25 15 -51
      vertex -25 15 -49
      vertex 25 15 -49
    endloop
  endfacet
  facet normal 0 1 0
    outer loop
      vertex -25 15 -49
      vertex 25 15 -51
      vertex -25 15 -51
    endloop
  endfacet
  facet normal 0 -1 0
    outer loop
      vertex -25 -15 -51
      vertex 25 -15 -49
      vertex -25 -15 -49
    endloop
  endfacet
  facet normal 0 -1 -0
    outer loop
      vertex 25 -15 -49
      vertex -25 -15 -51
      vertex 25 -15 -51
    endloop
  endfacet
  facet normal -1 0 0
    outer loop
      vertex 23 -13 -51
      vertex 23 13 -49
      vertex 23 13 -51
    endloop
  endfacet
  facet normal -1 -0 0
    outer loop
      vertex 23 13 -49
      vertex 23 -13 -51
      vertex 23 -13 -49
    endloop
  endfacet
  facet normal 1 -0 0
    outer loop
      vertex -23 -13 -49
      vertex -23 13 -51
      vertex -23 13 -49
    endloop
  endfacet
  facet normal 1 0 0
    outer loop
      vertex -23 13 -51
      vertex -23 -13 -49
      vertex -23 -13 -51
    endloop
  endfacet
  facet normal 0 -1 0
    outer loop
      vertex -23 13 -51
      vertex 23 13 -49
      vertex -23 13 -49
    endloop
  endfacet
  facet normal 0 -1 -0
    outer loop
      vertex 23 13 -49
      vertex -23 13 -51
      vertex 23 13 -51
    endloop
  endfacet
  facet normal 0 1 -0
    outer loop
      vertex 23 -13 -51
      vertex -23 -13 -49
      vertex 23 -13 -49
    endloop
  endfacet
  facet normal 0 1 0
    outer loop
      vertex -23 -13 -49
      vertex 23 -13 -51
      vertex -23 -13 -51
    endloop
  endfacet
endsolid OpenSCAD_Model
