solid OpenSCAD_Model
  facet normal 1 0 0
    outer loop
      vertex 70 5 30
      vertex 70 0 30
      vertex 70 5 16
    endloop
  endfacet
  facet normal 1 0 0
    outer loop
      vertex 70 25 16
      vertex 70 30 30
      vertex 70 25 30
    endloop
  endfacet
  facet normal 1 0 0
    outer loop
      vertex 70 30 30
      vertex 70 25 16
      vertex 70 30 0
    endloop
  endfacet
  facet normal 1 -0 0
    outer loop
      vertex 70 5 16
      vertex 70 30 0
      vertex 70 25 16
    endloop
  endfacet
  facet normal 1 0 0
    outer loop
      vertex 70 5 16
      vertex 70 0 0
      vertex 70 30 0
    endloop
  endfacet
  facet normal 1 0 0
    outer loop
      vertex 70 0 0
      vertex 70 5 16
      vertex 70 0 30
    endloop
  endfacet
  facet normal -0 0 1
    outer loop
      vertex 0 25 16
      vertex 70 5 16
      vertex 70 25 16
    endloop
  endfacet
  facet normal 0 0 1
    outer loop
      vertex 70 5 16
      vertex 0 25 16
      vertex 0 5 16
    endloop
  endfacet
  facet normal 0 0 -1
    outer loop
      vertex 0 0 0
      vertex 70 30 0
      vertex 70 0 0
    endloop
  endfacet
  facet normal -0 0 -1
    outer loop
      vertex 70 30 0
      vertex 0 0 0
      vertex 0 30 0
    endloop
  endfacet
  facet normal -1 0 0
    outer loop
      vertex 0 30 0
      vertex 0 25 16
      vertex 0 30 30
    endloop
  endfacet
  facet normal -1 0 0
    outer loop
      vertex 0 30 0
      vertex 0 5 16
      vertex 0 25 16
    endloop
  endfacet
  facet normal -1 0 0
    outer loop
      vertex 0 0 0
      vertex 0 5 16
      vertex 0 30 0
    endloop
  endfacet
  facet normal -1 0 0
    outer loop
      vertex 0 0 30
      vertex 0 5 16
      vertex 0 0 0
    endloop
  endfacet
  facet normal -1 0 0
    outer loop
      vertex 0 5 16
      vertex 0 0 30
      vertex 0 5 30
    endloop
  endfacet
  facet normal -1 -0 0
    outer loop
      vertex 0 30 30
      vertex 0 25 16
      vertex 0 25 30
    endloop
  endfacet
  facet normal 0 1 -0
    outer loop
      vertex 70 30 0
      vertex 0 30 30
      vertex 70 30 30
    endloop
  endfacet
  facet normal 0 1 0
    outer loop
      vertex 0 30 30
      vertex 70 30 0
      vertex 0 30 0
    endloop
  endfacet
  facet normal 0 -1 0
    outer loop
      vertex 0 0 0
      vertex 70 0 30
      vertex 0 0 30
    endloop
  endfacet
  facet normal 0 -1 -0
    outer loop
      vertex 70 0 30
      vertex 0 0 0
      vertex 70 0 0
    endloop
  endfacet
  facet normal -0 0 1
    outer loop
      vertex 0 5 30
      vertex 70 0 30
      vertex 70 5 30
    endloop
  endfacet
  facet normal 0 0 1
    outer loop
      vertex 70 0 30
      vertex 0 5 30
      vertex 0 0 30
    endloop
  endfacet
  facet normal 0 1 -0
    outer loop
      vertex 70 5 16
      vertex 0 5 30
      vertex 70 5 30
    endloop
  endfacet
  facet normal 0 1 0
    outer loop
      vertex 0 5 30
      vertex 70 5 16
      vertex 0 5 16
    endloop
  endfacet
  facet normal -0 0 1
    outer loop
      vertex 0 30 30
      vertex 70 25 30
      vertex 70 30 30
    endloop
  endfacet
  facet normal 0 0 1
    outer loop
      vertex 70 25 30
      vertex 0 30 30
      vertex 0 25 30
    endloop
  endfacet
  facet normal 0 -1 0
    outer loop
      vertex 0 25 16
      vertex 70 25 30
      vertex 0 25 30
    endloop
  endfacet
  facet normal 0 -1 -0
    outer loop
      vertex 70 25 30
      vertex 0 25 16
      vertex 70 25 16
    endloop
  endfacet
endsolid OpenSCAD_Model
