solid OpenSCAD_Model
  facet normal 1 -0 0
    outer loop
      vertex 20 -10 10
      vertex 20 10 0
      vertex 20 10 10
    endloop
  endfacet
  facet normal 1 0 0
    outer loop
      vertex 20 10 0
      vertex 20 -10 10
      vertex 20 -10 0
    endloop
  endfacet
  facet normal -0 0 1
    outer loop
      vertex -20 10 10
      vertex 20 -10 10
      vertex 20 10 10
    endloop
  endfacet
  facet normal 0 0 1
    outer loop
      vertex 20 -10 10
      vertex -20 10 10
      vertex -20 -10 10
    endloop
  endfacet
  facet normal 0 0 -1
    outer loop
      vertex -20 -10 0
      vertex 20 10 0
      vertex 20 -10 0
    endloop
  endfacet
  facet normal -0 0 -1
    outer loop
      vertex 20 10 0
      vertex -20 -10 0
      vertex -20 10 0
    endloop
  endfacet
  facet normal -1 0 0
    outer loop
      vertex -20 -10 0
      vertex -20 10 10
      vertex -20 10 0
    endloop
  endfacet
  facet normal -1 -0 0
    outer loop
      vertex -20 10 10
      vertex -20 -10 0
      vertex -20 -10 10
    endloop
  endfacet
  facet normal 0 1 -0
    outer loop
      vertex 20 10 0
      vertex -20 10 10
      vertex 20 10 10
    endloop
  endfacet
  facet normal 0 1 0
    outer loop
      vertex -20 10 10
      vertex 20 10 0
      vertex -20 10 0
    endloop
  endfacet
  facet normal 0 -1 0
    outer loop
      vertex -20 -10 0
      vertex 20 -10 10
      vertex -20 -10 10
    endloop
  endfacet
  facet normal 0 -1 -0
    outer loop
      vertex 20 -10 10
      vertex -20 -10 0
      vertex 20 -10 0
    endloop
  endfacet
  facet normal 1 -0 0
    outer loop
      vertex 10 -10 -7
      vertex 10 10 -17
      vertex 10 10 -7
    endloop
  endfacet
  facet normal 1 0 0
    outer loop
      vertex 10 10 -17
      vertex 10 -10 -7
      vertex 10 -10 -17
    endloop
  endfacet
  facet normal -0 0 1
    outer loop
      vertex -10 10 -7
      vertex 10 -10 -7
      vertex 10 10 -7
    endloop
  endfacet
  facet normal 0 0 1
    outer loop
      vertex 10 -10 -7
      vertex -10 10 -7
      vertex -10 -10 -7
    endloop
  endfacet
  facet normal 0 0 -1
    outer loop
      vertex -10 -10 -17
      vertex 10 10 -17
      vertex 10 -10 -17
    endloop
  endfacet
  facet normal -0 0 -1
    outer loop
      vertex 10 10 -17
      vertex -10 -10 -17
      vertex -10 10 -17
    endloop
  endfacet
  facet normal -1 0 0
    outer loop
      vertex -10 -10 -17
      vertex -10 10 -7
      vertex -10 10 -17
    endloop
  endfacet
  facet normal -1 -0 0
    outer loop
      vertex -10 10 -7
      vertex -10 -10 -17
      vertex -10 -10 -7
    endloop
  endfacet
  facet normal 0 1 -0
    outer loop
      vertex 10 10 -17
      vertex -10 10 -7
      vertex 10 10 -7
    endloop
  endfacet
  facet normal 0 1 0
    outer loop
      vertex -10 10 -7
      vertex 10 10 -17
      vertex -10 10 -17
    endloop
  endfacet
  facet normal 0 -1 0
    outer loop
      vertex -10 -10 -17
      vertex 10 -10 -7
      vertex -10 -10 -7
    endloop
  endfacet
  facet normal 0 -1 -0
    outer loop
      vertex 10 -10 -7
      vertex -10 -10 -17
      vertex 10 -10 -17
    endloop
  endfacet
endsolid OpenSCAD_Model
