solid OpenSCAD_Model
  facet normal 1 -0 0
    outer loop
      vertex 50 -10 1.5
      vertex 50 10 -16.5
      vertex 50 10 1.5
    endloop
  endfacet
  facet normal 1 0 0
    outer loop
      vertex 50 10 -16.5
      vertex 50 -10 1.5
      vertex 50 -10 -16.5
    endloop
  endfacet
  facet normal -0 0 1
    outer loop
      vertex -50 10 1.5
      vertex 50 -10 1.5
      vertex 50 10 1.5
    endloop
  endfacet
  facet normal 0 0 1
    outer loop
      vertex 50 -10 1.5
      vertex -50 10 1.5
      vertex -50 -10 1.5
    endloop
  endfacet
  facet normal -1 0 0
    outer loop
      vertex -50 -10 -16.5
      vertex -50 10 1.5
      vertex -50 10 -16.5
    endloop
  endfacet
  facet normal -1 -0 0
    outer loop
      vertex -50 10 1.5
      vertex -50 -10 -16.5
      vertex -50 -10 1.5
    endloop
  endfacet
  facet normal 0 1 -0
    outer loop
      vertex 50 10 -16.5
      vertex -50 10 1.5
      vertex 50 10 1.5
    endloop
  endfacet
  facet normal 0 1 0
    outer loop
      vertex -50 10 1.5
      vertex 50 10 -16.5
      vertex -50 10 -16.5
    endloop
  endfacet
  facet normal 0 -1 0
    outer loop
      vertex -50 -10 -16.5
      vertex 50 -10 1.5
      vertex -50 -10 1.5
    endloop
  endfacet
  facet normal 0 -1 -0
    outer loop
      vertex 50 -10 1.5
      vertex -50 -10 -16.5
      vertex 50 -10 -16.5
    endloop
  endfacet
  facet normal 0 0 -1
    outer loop
      vertex -50 -10 -16.5
      vertex 50 10 -16.5
      vertex 50 -10 -16.5
    endloop
  endfacet
  facet normal -0 0 -1
    outer loop
      vertex 50 10 -16.5
      vertex -50 -10 -16.5
      vertex -50 10 -16.5
    endloop
  endfacet
endsolid OpenSCAD_Model
