solid OpenSCAD_Model
  facet normal 1 -0 0
    outer loop
      vertex 10 -10 10
      vertex 10 10 -10
      vertex 10 10 10
    endloop
  endfacet
  facet normal 1 0 0
    outer loop
      vertex 10 10 -10
      vertex 10 -10 10
      vertex 10 -10 -10
    endloop
  endfacet
  facet normal -0 0 1
    outer loop
      vertex -10 10 10
      vertex 10 -10 10
      vertex 10 10 10
    endloop
  endfacet
  facet normal 0 0 1
    outer loop
      vertex 10 -10 10
      vertex -10 10 10
      vertex -10 -10 10
    endloop
  endfacet
  facet normal 0 0 -1
    outer loop
      vertex 10 -10 -10
      vertex 5 -5 -10
      vertex 10 10 -10
    endloop
  endfacet
  facet normal 0 0 -1
    outer loop
      vertex 10 -10 -10
      vertex -5 -5 -10
      vertex 5 -5 -10
    endloop
  endfacet
  facet normal -0 0 -1
    outer loop
      vertex -5 -5 -10
      vertex -10 -10 -10
      vertex -5 5 -10
    endloop
  endfacet
  facet normal 0 0 -1
    outer loop
      vertex -10 -10 -10
      vertex -5 -5 -10
      vertex 10 -10 -10
    endloop
  endfacet
  facet normal 0 0 -1
    outer loop
      vertex 5 5 -10
      vertex 10 10 -10
      vertex 5 -5 -10
    endloop
  endfacet
  facet normal 0 0 -1
    outer loop
      vertex -5 5 -10
      vertex 10 10 -10
      vertex 5 5 -10
    endloop
  endfacet
  facet normal 0 0 -1
    outer loop
      vertex -5 5 -10
      vertex -10 10 -10
      vertex 10 10 -10
    endloop
  endfacet
  facet normal 0 0 -1
    outer loop
      vertex -10 10 -10
      vertex -5 5 -10
      vertex -10 -10 -10
    endloop
  endfacet
  facet normal -1 0 0
    outer loop
      vertex -10 -10 -10
      vertex -10 10 10
      vertex -10 10 -10
    endloop
  endfacet
  facet normal -1 -0 0
    outer loop
      vertex -10 10 10
      vertex -10 -10 -10
      vertex -10 -10 10
    endloop
  endfacet
  facet normal 0 1 -0
    outer loop
      vertex 10 10 -10
      vertex -10 10 10
      vertex 10 10 10
    endloop
  endfacet
  facet normal 0 1 0
    outer loop
      vertex -10 10 10
      vertex 10 10 -10
      vertex -10 10 -10
    endloop
  endfacet
  facet normal 0 -1 0
    outer loop
      vertex -10 -10 -10
      vertex 10 -10 10
      vertex -10 -10 10
    endloop
  endfacet
  facet normal 0 -1 -0
    outer loop
      vertex 10 -10 10
      vertex -10 -10 -10
      vertex 10 -10 -10
    endloop
  endfacet
  facet normal -1 0 0
    outer loop
      vertex 5 -5 -10
      vertex 5 5 0
      vertex 5 5 -10
    endloop
  endfacet
  facet normal -1 -0 0
    outer loop
      vertex 5 5 0
      vertex 5 -5 -10
      vertex 5 -5 0
    endloop
  endfacet
  facet normal 0 0 -1
    outer loop
      vertex -5 -5 0
      vertex 5 5 0
      vertex 5 -5 0
    endloop
  endfacet
  facet normal -0 0 -1
    outer loop
      vertex 5 5 0
      vertex -5 -5 0
      vertex -5 5 0
    endloop
  endfacet
  facet normal 1 -0 0
    outer loop
      vertex -5 -5 0
      vertex -5 5 -10
      vertex -5 5 0
    endloop
  endfacet
  facet normal 1 0 0
    outer loop
      vertex -5 5 -10
      vertex -5 -5 0
      vertex -5 -5 -10
    endloop
  endfacet
  facet normal 0 -1 0
    outer loop
      vertex -5 5 -10
      vertex 5 5 0
      vertex -5 5 0
    endloop
  endfacet
  facet normal 0 -1 -0
    outer loop
      vertex 5 5 0
      vertex -5 5 -10
      vertex 5 5 -10
    endloop
  endfacet
  facet normal 0 1 -0
    outer loop
      vertex 5 -5 -10
      vertex -5 -5 0
      vertex 5 -5 0
    endloop
  endfacet
  facet normal 0 1 0
    outer loop
      vertex -5 -5 0
      vertex 5 -5 -10
      vertex -5 -5 -10
    endloop
  endfacet
  facet normal 1 -0 0
    outer loop
      vertex 32 -10 10
      vertex 32 10 -10
      vertex 32 10 10
    endloop
  endfacet
  facet normal 1 0 0
    outer loop
      vertex 32 10 -10
      vertex 32 -10 10
      vertex 32 -10 -10
    endloop
  endfacet
  facet normal -0 0 1
    outer loop
      vertex 12 10 10
      vertex 32 -10 10
      vertex 32 10 10
    endloop
  endfacet
  facet normal 0 0 1
    outer loop
      vertex 32 -10 10
      vertex 12 10 10
      vertex 12 -10 10
    endloop
  endfacet
  facet normal 0 0 -1
    outer loop
      vertex 32 -10 -10
      vertex 27 -5 -10
      vertex 32 10 -10
    endloop
  endfacet
  facet normal 0 0 -1
    outer loop
      vertex 32 -10 -10
      vertex 17 -5 -10
      vertex 27 -5 -10
    endloop
  endfacet
  facet normal -0 0 -1
    outer loop
      vertex 17 -5 -10
      vertex 12 -10 -10
      vertex 17 5 -10
    endloop
  endfacet
  facet normal 0 0 -1
    outer loop
      vertex 12 -10 -10
      vertex 17 -5 -10
      vertex 32 -10 -10
    endloop
  endfacet
  facet normal 0 0 -1
    outer loop
      vertex 27 5 -10
      vertex 32 10 -10
      vertex 27 -5 -10
    endloop
  endfacet
  facet normal 0 0 -1
    outer loop
      vertex 17 5 -10
      vertex 32 10 -10
      vertex 27 5 -10
    endloop
  endfacet
  facet normal 0 0 -1
    outer loop
      vertex 17 5 -10
      vertex 12 10 -10
      vertex 32 10 -10
    endloop
  endfacet
  facet normal 0 0 -1
    outer loop
      vertex 12 10 -10
      vertex 17 5 -10
      vertex 12 -10 -10
    endloop
  endfacet
  facet normal -1 0 0
    outer loop
      vertex 12 -10 -10
      vertex 12 10 10
      vertex 12 10 -10
    endloop
  endfacet
  facet normal -1 -0 0
    outer loop
      vertex 12 10 10
      vertex 12 -10 -10
      vertex 12 -10 10
    endloop
  endfacet
  facet normal 0 1 -0
    outer loop
      vertex 32 10 -10
      vertex 12 10 10
      vertex 32 10 10
    endloop
  endfacet
  facet normal 0 1 0
    outer loop
      vertex 12 10 10
      vertex 32 10 -10
      vertex 12 10 -10
    endloop
  endfacet
  facet normal 0 -1 0
    outer loop
      vertex 12 -10 -10
      vertex 32 -10 10
      vertex 12 -10 10
    endloop
  endfacet
  facet normal 0 -1 -0
    outer loop
      vertex 32 -10 10
      vertex 12 -10 -10
      vertex 32 -10 -10
    endloop
  endfacet
  facet normal -1 0 0
    outer loop
      vertex 27 -5 -10
      vertex 27 5 0
      vertex 27 5 -10
    endloop
  endfacet
  facet normal -1 -0 0
    outer loop
      vertex 27 5 0
      vertex 27 -5 -10
      vertex 27 -5 0
    endloop
  endfacet
  facet normal 0 0 -1
    outer loop
      vertex 17 -5 0
      vertex 27 5 0
      vertex 27 -5 0
    endloop
  endfacet
  facet normal -0 0 -1
    outer loop
      vertex 27 5 0
      vertex 17 -5 0
      vertex 17 5 0
    endloop
  endfacet
  facet normal 1 -0 0
    outer loop
      vertex 17 -5 0
      vertex 17 5 -10
      vertex 17 5 0
    endloop
  endfacet
  facet normal 1 0 0
    outer loop
      vertex 17 5 -10
      vertex 17 -5 0
      vertex 17 -5 -10
    endloop
  endfacet
  facet normal 0 -1 0
    outer loop
      vertex 17 5 -10
      vertex 27 5 0
      vertex 17 5 0
    endloop
  endfacet
  facet normal 0 -1 -0
    outer loop
      vertex 27 5 0
      vertex 17 5 -10
      vertex 27 5 -10
    endloop
  endfacet
  facet normal 0 1 -0
    outer loop
      vertex 27 -5 -10
      vertex 17 -5 0
      vertex 27 -5 0
    endloop
  endfacet
  facet normal 0 1 0
    outer loop
      vertex 17 -5 0
      vertex 27 -5 -10
      vertex 17 -5 -10
    endloop
  endfacet
  facet normal 1 -0 0
    outer loop
      vertex 54 -10 10
      vertex 54 10 -10
      vertex 54 10 10
    endloop
  endfacet
  facet normal 1 0 0
    outer loop
      vertex 54 10 -10
      vertex 54 -10 10
      vertex 54 -10 -10
    endloop
  endfacet
  facet normal -0 0 1
    outer loop
      vertex 34 10 10
      vertex 54 -10 10
      vertex 54 10 10
    endloop
  endfacet
  facet normal 0 0 1
    outer loop
      vertex 54 -10 10
      vertex 34 10 10
      vertex 34 -10 10
    endloop
  endfacet
  facet normal 0 0 -1
    outer loop
      vertex 54 -10 -10
      vertex 49 -5 -10
      vertex 54 10 -10
    endloop
  endfacet
  facet normal 0 0 -1
    outer loop
      vertex 54 -10 -10
      vertex 39 -5 -10
      vertex 49 -5 -10
    endloop
  endfacet
  facet normal -0 0 -1
    outer loop
      vertex 39 -5 -10
      vertex 34 -10 -10
      vertex 39 5 -10
    endloop
  endfacet
  facet normal 0 0 -1
    outer loop
      vertex 34 -10 -10
      vertex 39 -5 -10
      vertex 54 -10 -10
    endloop
  endfacet
  facet normal 0 0 -1
    outer loop
      vertex 49 5 -10
      vertex 54 10 -10
      vertex 49 -5 -10
    endloop
  endfacet
  facet normal 0 0 -1
    outer loop
      vertex 39 5 -10
      vertex 54 10 -10
      vertex 49 5 -10
    endloop
  endfacet
  facet normal 0 0 -1
    outer loop
      vertex 39 5 -10
      vertex 34 10 -10
      vertex 54 10 -10
    endloop
  endfacet
  facet normal 0 0 -1
    outer loop
      vertex 34 10 -10
      vertex 39 5 -10
      vertex 34 -10 -10
    endloop
  endfacet
  facet normal -1 0 0
    outer loop
      vertex 34 -10 -10
      vertex 34 10 10
      vertex 34 10 -10
    endloop
  endfacet
  facet normal -1 -0 0
    outer loop
      vertex 34 10 10
      vertex 34 -10 -10
      vertex 34 -10 10
    endloop
  endfacet
  facet normal 0 1 -0
    outer loop
      vertex 54 10 -10
      vertex 34 10 10
      vertex 54 10 10
    endloop
  endfacet
  facet normal 0 1 0
    outer loop
      vertex 34 10 10
      vertex 54 10 -10
      vertex 34 10 -10
    endloop
  endfacet
  facet normal 0 -1 0
    outer loop
      vertex 34 -10 -10
      vertex 54 -10 10
      vertex 34 -10 10
    endloop
  endfacet
  facet normal 0 -1 -0
    outer loop
      vertex 54 -10 10
      vertex 34 -10 -10
      vertex 54 -10 -10
    endloop
  endfacet
  facet normal -1 0 0
    outer loop
      vertex 49 -5 -10
      vertex 49 5 0
      vertex 49 5 -10
    endloop
  endfacet
  facet normal -1 -0 0
    outer loop
      vertex 49 5 0
      vertex 49 -5 -10
      vertex 49 -5 0
    endloop
  endfacet
  facet normal 0 0 -1
    outer loop
      vertex 39 -5 0
      vertex 49 5 0
      vertex 49 -5 0
    endloop
  endfacet
  facet normal -0 0 -1
    outer loop
      vertex 49 5 0
      vertex 39 -5 0
      vertex 39 5 0
    endloop
  endfacet
  facet normal 1 -0 0
    outer loop
      vertex 39 -5 0
      vertex 39 5 -10
      vertex 39 5 0
    endloop
  endfacet
  facet normal 1 0 0
    outer loop
      vertex 39 5 -10
      vertex 39 -5 0
      vertex 39 -5 -10
    endloop
  endfacet
  facet normal 0 -1 0
    outer loop
      vertex 39 5 -10
      vertex 49 5 0
      vertex 39 5 0
    endloop
  endfacet
  facet normal 0 -1 -0
    outer loop
      vertex 49 5 0
      vertex 39 5 -10
      vertex 49 5 -10
    endloop
  endfacet
  facet normal 0 1 -0
    outer loop
      vertex 49 -5 -10
      vertex 39 -5 0
      vertex 49 -5 0
    endloop
  endfacet
  facet normal 0 1 0
    outer loop
      vertex 39 -5 0
      vertex 49 -5 -10
      vertex 39 -5 -10
    endloop
  endfacet
  facet normal 1 -0 0
    outer loop
      vertex 76 -10 10
      vertex 76 10 -10
      vertex 76 10 10
    endloop
  endfacet
  facet normal 1 0 0
    outer loop
      vertex 76 10 -10
      vertex 76 -10 10
      vertex 76 -10 -10
    endloop
  endfacet
  facet normal -0 0 1
    outer loop
      vertex 56 10 10
      vertex 76 -10 10
      vertex 76 10 10
    endloop
  endfacet
  facet normal 0 0 1
    outer loop
      vertex 76 -10 10
      vertex 56 10 10
      vertex 56 -10 10
    endloop
  endfacet
  facet normal 0 0 -1
    outer loop
      vertex 76 -10 -10
      vertex 71 -5 -10
      vertex 76 10 -10
    endloop
  endfacet
  facet normal 0 0 -1
    outer loop
      vertex 76 -10 -10
      vertex 61 -5 -10
      vertex 71 -5 -10
    endloop
  endfacet
  facet normal -0 0 -1
    outer loop
      vertex 61 -5 -10
      vertex 56 -10 -10
      vertex 61 5 -10
    endloop
  endfacet
  facet normal 0 0 -1
    outer loop
      vertex 56 -10 -10
      vertex 61 -5 -10
      vertex 76 -10 -10
    endloop
  endfacet
  facet normal 0 0 -1
    outer loop
      vertex 71 5 -10
      vertex 76 10 -10
      vertex 71 -5 -10
    endloop
  endfacet
  facet normal 0 0 -1
    outer loop
      vertex 61 5 -10
      vertex 76 10 -10
      vertex 71 5 -10
    endloop
  endfacet
  facet normal 0 0 -1
    outer loop
      vertex 61 5 -10
      vertex 56 10 -10
      vertex 76 10 -10
    endloop
  endfacet
  facet normal 0 0 -1
    outer loop
      vertex 56 10 -10
      vertex 61 5 -10
      vertex 56 -10 -10
    endloop
  endfacet
  facet normal -1 0 0
    outer loop
      vertex 56 -10 -10
      vertex 56 10 10
      vertex 56 10 -10
    endloop
  endfacet
  facet normal -1 -0 0
    outer loop
      vertex 56 10 10
      vertex 56 -10 -10
      vertex 56 -10 10
    endloop
  endfacet
  facet normal 0 1 -0
    outer loop
      vertex 76 10 -10
      vertex 56 10 10
      vertex 76 10 10
    endloop
  endfacet
  facet normal 0 1 0
    outer loop
      vertex 56 10 10
      vertex 76 10 -10
      vertex 56 10 -10
    endloop
  endfacet
  facet normal 0 -1 0
    outer loop
      vertex 56 -10 -10
      vertex 76 -10 10
      vertex 56 -10 10
    endloop
  endfacet
  facet normal 0 -1 -0
    outer loop
      vertex 76 -10 10
      vertex 56 -10 -10
      vertex 76 -10 -10
    endloop
  endfacet
  facet normal -1 0 0
    outer loop
      vertex 71 -5 -10
      vertex 71 5 0
      vertex 71 5 -10
    endloop
  endfacet
  facet normal -1 -0 0
    outer loop
      vertex 71 5 0
      vertex 71 -5 -10
      vertex 71 -5 0
    endloop
  endfacet
  facet normal 0 0 -1
    outer loop
      vertex 61 -5 0
      vertex 71 5 0
      vertex 71 -5 0
    endloop
  endfacet
  facet normal -0 0 -1
    outer loop
      vertex 71 5 0
      vertex 61 -5 0
      vertex 61 5 0
    endloop
  endfacet
  facet normal 1 -0 0
    outer loop
      vertex 61 -5 0
      vertex 61 5 -10
      vertex 61 5 0
    endloop
  endfacet
  facet normal 1 0 0
    outer loop
      vertex 61 5 -10
      vertex 61 -5 0
      vertex 61 -5 -10
    endloop
  endfacet
  facet normal 0 -1 0
    outer loop
      vertex 61 5 -10
      vertex 71 5 0
      vertex 61 5 0
    endloop
  endfacet
  facet normal 0 -1 -0
    outer loop
      vertex 71 5 0
      vertex 61 5 -10
      vertex 71 5 -10
    endloop
  endfacet
  facet normal 0 1 -0
    outer loop
      vertex 71 -5 -10
      vertex 61 -5 0
      vertex 71 -5 0
    endloop
  endfacet
  facet normal 0 1 0
    outer loop
      vertex 61 -5 0
      vertex 71 -5 -10
      vertex 61 -5 -10
    endloop
  endfacet
  facet normal 1 -0 0
    outer loop
      vertex 98 -10 10
      vertex 98 10 -10
      vertex 98 10 10
    endloop
  endfacet
  facet normal 1 0 0
    outer loop
      vertex 98 10 -10
      vertex 98 -10 10
      vertex 98 -10 -10
    endloop
  endfacet
  facet normal -0 0 1
    outer loop
      vertex 78 10 10
      vertex 98 -10 10
      vertex 98 10 10
    endloop
  endfacet
  facet normal 0 0 1
    outer loop
      vertex 98 -10 10
      vertex 78 10 10
      vertex 78 -10 10
    endloop
  endfacet
  facet normal 0 0 -1
    outer loop
      vertex 98 -10 -10
      vertex 93 -5 -10
      vertex 98 10 -10
    endloop
  endfacet
  facet normal 0 0 -1
    outer loop
      vertex 98 -10 -10
      vertex 83 -5 -10
      vertex 93 -5 -10
    endloop
  endfacet
  facet normal -0 0 -1
    outer loop
      vertex 83 -5 -10
      vertex 78 -10 -10
      vertex 83 5 -10
    endloop
  endfacet
  facet normal 0 0 -1
    outer loop
      vertex 78 -10 -10
      vertex 83 -5 -10
      vertex 98 -10 -10
    endloop
  endfacet
  facet normal 0 0 -1
    outer loop
      vertex 93 5 -10
      vertex 98 10 -10
      vertex 93 -5 -10
    endloop
  endfacet
  facet normal 0 0 -1
    outer loop
      vertex 83 5 -10
      vertex 98 10 -10
      vertex 93 5 -10
    endloop
  endfacet
  facet normal 0 0 -1
    outer loop
      vertex 83 5 -10
      vertex 78 10 -10
      vertex 98 10 -10
    endloop
  endfacet
  facet normal 0 0 -1
    outer loop
      vertex 78 10 -10
      vertex 83 5 -10
      vertex 78 -10 -10
    endloop
  endfacet
  facet normal -1 0 0
    outer loop
      vertex 78 -10 -10
      vertex 78 10 10
      vertex 78 10 -10
    endloop
  endfacet
  facet normal -1 -0 0
    outer loop
      vertex 78 10 10
      vertex 78 -10 -10
      vertex 78 -10 10
    endloop
  endfacet
  facet normal 0 1 -0
    outer loop
      vertex 98 10 -10
      vertex 78 10 10
      vertex 98 10 10
    endloop
  endfacet
  facet normal 0 1 0
    outer loop
      vertex 78 10 10
      vertex 98 10 -10
      vertex 78 10 -10
    endloop
  endfacet
  facet normal 0 -1 0
    outer loop
      vertex 78 -10 -10
      vertex 98 -10 10
      vertex 78 -10 10
    endloop
  endfacet
  facet normal 0 -1 -0
    outer loop
      vertex 98 -10 10
      vertex 78 -10 -10
      vertex 98 -10 -10
    endloop
  endfacet
  facet normal -1 0 0
    outer loop
      vertex 93 -5 -10
      vertex 93 5 0
      vertex 93 5 -10
    endloop
  endfacet
  facet normal -1 -0 0
    outer loop
      vertex 93 5 0
      vertex 93 -5 -10
      vertex 93 -5 0
    endloop
  endfacet
  facet normal 0 0 -1
    outer loop
      vertex 83 -5 0
      vertex 93 5 0
      vertex 93 -5 0
    endloop
  endfacet
  facet normal -0 0 -1
    outer loop
      vertex 93 5 0
      vertex 83 -5 0
      vertex 83 5 0
    endloop
  endfacet
  facet normal 1 -0 0
    outer loop
      vertex 83 -5 0
      vertex 83 5 -10
      vertex 83 5 0
    endloop
  endfacet
  facet normal 1 0 0
    outer loop
      vertex 83 5 -10
      vertex 83 -5 0
      vertex 83 -5 -10
    endloop
  endfacet
  facet normal 0 -1 0
    outer loop
      vertex 83 5 -10
      vertex 93 5 0
      vertex 83 5 0
    endloop
  endfacet
  facet normal 0 -1 -0
    outer loop
      vertex 93 5 0
      vertex 83 5 -10
      vertex 93 5 -10
    endloop
  endfacet
  facet normal 0 1 -0
    outer loop
      vertex 93 -5 -10
      vertex 83 -5 0
      vertex 93 -5 0
    endloop
  endfacet
  facet normal 0 1 0
    outer loop
      vertex 83 -5 0
      vertex 93 -5 -10
      vertex 83 -5 -10
    endloop
  endfacet
  facet normal 1 -0 0
    outer loop
      vertex 120 -10 10
      vertex 120 10 -10
      vertex 120 10 10
    endloop
  endfacet
  facet normal 1 0 0
    outer loop
      vertex 120 10 -10
      vertex 120 -10 10
      vertex 120 -10 -10
    endloop
  endfacet
  facet normal -0 0 1
    outer loop
      vertex 100 10 10
      vertex 120 -10 10
      vertex 120 10 10
    endloop
  endfacet
  facet normal 0 0 1
    outer loop
      vertex 120 -10 10
      vertex 100 10 10
      vertex 100 -10 10
    endloop
  endfacet
  facet normal 0 0 -1
    outer loop
      vertex 120 -10 -10
      vertex 115 -5 -10
      vertex 120 10 -10
    endloop
  endfacet
  facet normal 0 0 -1
    outer loop
      vertex 120 -10 -10
      vertex 105 -5 -10
      vertex 115 -5 -10
    endloop
  endfacet
  facet normal -0 0 -1
    outer loop
      vertex 105 -5 -10
      vertex 100 -10 -10
      vertex 105 5 -10
    endloop
  endfacet
  facet normal 0 0 -1
    outer loop
      vertex 100 -10 -10
      vertex 105 -5 -10
      vertex 120 -10 -10
    endloop
  endfacet
  facet normal 0 0 -1
    outer loop
      vertex 115 5 -10
      vertex 120 10 -10
      vertex 115 -5 -10
    endloop
  endfacet
  facet normal 0 0 -1
    outer loop
      vertex 105 5 -10
      vertex 120 10 -10
      vertex 115 5 -10
    endloop
  endfacet
  facet normal 0 0 -1
    outer loop
      vertex 105 5 -10
      vertex 100 10 -10
      vertex 120 10 -10
    endloop
  endfacet
  facet normal 0 0 -1
    outer loop
      vertex 100 10 -10
      vertex 105 5 -10
      vertex 100 -10 -10
    endloop
  endfacet
  facet normal -1 0 0
    outer loop
      vertex 100 -10 -10
      vertex 100 10 10
      vertex 100 10 -10
    endloop
  endfacet
  facet normal -1 -0 0
    outer loop
      vertex 100 10 10
      vertex 100 -10 -10
      vertex 100 -10 10
    endloop
  endfacet
  facet normal 0 1 -0
    outer loop
      vertex 120 10 -10
      vertex 100 10 10
      vertex 120 10 10
    endloop
  endfacet
  facet normal 0 1 0
    outer loop
      vertex 100 10 10
      vertex 120 10 -10
      vertex 100 10 -10
    endloop
  endfacet
  facet normal 0 -1 0
    outer loop
      vertex 100 -10 -10
      vertex 120 -10 10
      vertex 100 -10 10
    endloop
  endfacet
  facet normal 0 -1 -0
    outer loop
      vertex 120 -10 10
      vertex 100 -10 -10
      vertex 120 -10 -10
    endloop
  endfacet
  facet normal -1 0 0
    outer loop
      vertex 115 -5 -10
      vertex 115 5 0
      vertex 115 5 -10
    endloop
  endfacet
  facet normal -1 -0 0
    outer loop
      vertex 115 5 0
      vertex 115 -5 -10
      vertex 115 -5 0
    endloop
  endfacet
  facet normal 0 0 -1
    outer loop
      vertex 105 -5 0
      vertex 115 5 0
      vertex 115 -5 0
    endloop
  endfacet
  facet normal -0 0 -1
    outer loop
      vertex 115 5 0
      vertex 105 -5 0
      vertex 105 5 0
    endloop
  endfacet
  facet normal 1 -0 0
    outer loop
      vertex 105 -5 0
      vertex 105 5 -10
      vertex 105 5 0
    endloop
  endfacet
  facet normal 1 0 0
    outer loop
      vertex 105 5 -10
      vertex 105 -5 0
      vertex 105 -5 -10
    endloop
  endfacet
  facet normal 0 -1 0
    outer loop
      vertex 105 5 -10
      vertex 115 5 0
      vertex 105 5 0
    endloop
  endfacet
  facet normal 0 -1 -0
    outer loop
      vertex 115 5 0
      vertex 105 5 -10
      vertex 115 5 -10
    endloop
  endfacet
  facet normal 0 1 -0
    outer loop
      vertex 115 -5 -10
      vertex 105 -5 0
      vertex 115 -5 0
    endloop
  endfacet
  facet normal 0 1 0
    outer loop
      vertex 105 -5 0
      vertex 115 -5 -10
      vertex 105 -5 -10
    endloop
  endfacet
endsolid OpenSCAD_Model
