solid OpenSCAD_Model
  facet normal -0 0 1
    outer loop
      vertex -25 15 6
      vertex 25 -15 6
      vertex 25 15 6
    endloop
  endfacet
  facet normal 0 0 1
    outer loop
      vertex 25 -15 6
      vertex -25 15 6
      vertex -25 -15 6
    endloop
  endfacet
  facet normal 0 0 -1
    outer loop
      vertex -25 -15 -6
      vertex 25 15 -6
      vertex 25 -15 -6
    endloop
  endfacet
  facet normal -0 0 -1
    outer loop
      vertex 25 15 -6
      vertex -25 -15 -6
      vertex -25 15 -6
    endloop
  endfacet
  facet normal 0 -1 0
    outer loop
      vertex -25 -15 -6
      vertex 25 -15 6
      vertex -25 -15 6
    endloop
  endfacet
  facet normal 0 -1 -0
    outer loop
      vertex 25 -15 6
      vertex -25 -15 -6
      vertex 25 -15 -6
    endloop
  endfacet
  facet normal 1 -0 0
    outer loop
      vertex 25 -15 6
      vertex 25 15 -6
      vertex 25 15 6
    endloop
  endfacet
  facet normal 1 0 0
    outer loop
      vertex 25 15 -6
      vertex 25 -15 6
      vertex 25 -15 -6
    endloop
  endfacet
  facet normal 0 1 -0
    outer loop
      vertex 25 15 -6
      vertex -25 15 6
      vertex 25 15 6
    endloop
  endfacet
  facet normal 0 1 0
    outer loop
      vertex -25 15 6
      vertex 25 15 -6
      vertex -25 15 -6
    endloop
  endfacet
  facet normal -1 0 0
    outer loop
      vertex -25 -15 -6
      vertex -25 15 6
      vertex -25 15 -6
    endloop
  endfacet
  facet normal -1 -0 0
    outer loop
      vertex -25 15 6
      vertex -25 -15 -6
      vertex -25 -15 6
    endloop
  endfacet
endsolid OpenSCAD_Model
