solid OpenSCAD_Model
  facet normal 0 0 -1
    outer loop
      vertex 15.8301 -17.4186 0
      vertex 16.9282 -13.3205 0
      vertex 17.0708 -16.0407 0
    endloop
  endfacet
  facet normal 0 0 -1
    outer loop
      vertex 9.91481 -13.6374 0
      vertex 16.9282 -13.3205 0
      vertex 15.8301 -17.4186 0
    endloop
  endfacet
  facet normal 0 0 -1
    outer loop
      vertex 8.14705 -10.5756 0
      vertex 13.2322 -1.76777 0
      vertex 13.8564 -8 0
    endloop
  endfacet
  facet normal 0 0 -1
    outer loop
      vertex 16.9282 -13.3205 0
      vertex 9.66506 -11.7404 0
      vertex 13.8564 -8 0
    endloop
  endfacet
  facet normal 0 0 -1
    outer loop
      vertex 9.66506 -11.7404 0
      vertex 16.9282 -13.3205 0
      vertex 9.91481 -13.6374 0
    endloop
  endfacet
  facet normal 0 0 -1
    outer loop
      vertex 15.8301 -17.4186 0
      vertex 8.75 -15.1554 0
      vertex 9.91481 -13.6374 0
    endloop
  endfacet
  facet normal 0 0 -1
    outer loop
      vertex 7.16987 -22.4186 0
      vertex 8.75 -15.1554 0
      vertex 15.8301 -17.4186 0
    endloop
  endfacet
  facet normal 0 0 -1
    outer loop
      vertex 7.16987 -22.4186 0
      vertex 6.85295 -15.4052 0
      vertex 8.75 -15.1554 0
    endloop
  endfacet
  facet normal 0 0 -1
    outer loop
      vertex 3.0718 -21.3205 0
      vertex 6.85295 -15.4052 0
      vertex 7.16987 -22.4186 0
    endloop
  endfacet
  facet normal 0 0 -1
    outer loop
      vertex 0 -16 0
      vertex 5.33494 -14.2404 0
      vertex 3.0718 -21.3205 0
    endloop
  endfacet
  facet normal -0 0 -1
    outer loop
      vertex 6.85295 -15.4052 0
      vertex 3.0718 -21.3205 0
      vertex 5.33494 -14.2404 0
    endloop
  endfacet
  facet normal 0 0 -1
    outer loop
      vertex 3.0718 -21.3205 0
      vertex 7.16987 -22.4186 0
      vertex 4.44966 -22.5611 0
    endloop
  endfacet
  facet normal 0 0 -1
    outer loop
      vertex 17.5 0 0
      vertex 23 5 0
      vertex 23 -5 0
    endloop
  endfacet
  facet normal 0 0 -1
    outer loop
      vertex 20 -8 0
      vertex 23 -5 0
      vertex 21.7634 -7.42705 0
    endloop
  endfacet
  facet normal -0 0 -1
    outer loop
      vertex 23 -5 0
      vertex 20 -8 0
      vertex 16.7678 -1.76777 0
    endloop
  endfacet
  facet normal 0 0 -1
    outer loop
      vertex 16.7678 1.76777 0
      vertex 23 5 0
      vertex 17.5 0 0
    endloop
  endfacet
  facet normal 0 -0 -1
    outer loop
      vertex 20 8 0
      vertex 23 5 0
      vertex 16.7678 1.76777 0
    endloop
  endfacet
  facet normal 0 0 -1
    outer loop
      vertex 23 -5 0
      vertex 16.7678 -1.76777 0
      vertex 17.5 0 0
    endloop
  endfacet
  facet normal 0 0 -1
    outer loop
      vertex 20 -8 0
      vertex 15 -2.5 0
      vertex 16.7678 -1.76777 0
    endloop
  endfacet
  facet normal 0 0 -1
    outer loop
      vertex 13.8564 -8 0
      vertex 15 -2.5 0
      vertex 20 -8 0
    endloop
  endfacet
  facet normal -0 0 -1
    outer loop
      vertex 15 -2.5 0
      vertex 13.8564 -8 0
      vertex 13.2322 -1.76777 0
    endloop
  endfacet
  facet normal 0 0 -1
    outer loop
      vertex 23 5 0
      vertex 20 8 0
      vertex 22.427 6.76335 0
    endloop
  endfacet
  facet normal 0 0 -1
    outer loop
      vertex 15 2.5 0
      vertex 20 8 0
      vertex 16.7678 1.76777 0
    endloop
  endfacet
  facet normal 0 0 -1
    outer loop
      vertex 15 2.5 0
      vertex 13.8564 8 0
      vertex 20 8 0
    endloop
  endfacet
  facet normal 0 -0 -1
    outer loop
      vertex 13.8564 8 0
      vertex 15 2.5 0
      vertex 13.2322 1.76777 0
    endloop
  endfacet
  facet normal 0 0 -1
    outer loop
      vertex 16.9282 13.3205 0
      vertex 15.8301 17.4186 0
      vertex 17.3137 15.1341 0
    endloop
  endfacet
  facet normal 0 0 -1
    outer loop
      vertex 9.66506 11.7404 0
      vertex 16.9282 13.3205 0
      vertex 13.8564 8 0
    endloop
  endfacet
  facet normal 0 0 -1
    outer loop
      vertex 8.14705 10.5756 0
      vertex 13.2322 1.76777 0
      vertex 12.5 0 0
    endloop
  endfacet
  facet normal 0 0 -1
    outer loop
      vertex 8.14705 -10.5756 0
      vertex 13.8564 -8 0
      vertex 9.66506 -11.7404 0
    endloop
  endfacet
  facet normal -0 0 -1
    outer loop
      vertex 13.2322 -1.76777 0
      vertex 8.14705 -10.5756 0
      vertex 12.5 0 0
    endloop
  endfacet
  facet normal 0 0 -1
    outer loop
      vertex 16.9282 13.3205 0
      vertex 9.91481 13.6374 0
      vertex 15.8301 17.4186 0
    endloop
  endfacet
  facet normal 0 0 -1
    outer loop
      vertex 8.75 15.1554 0
      vertex 15.8301 17.4186 0
      vertex 9.91481 13.6374 0
    endloop
  endfacet
  facet normal 0 0 -1
    outer loop
      vertex 8.75 15.1554 0
      vertex 7.16987 22.4186 0
      vertex 15.8301 17.4186 0
    endloop
  endfacet
  facet normal 0 0 -1
    outer loop
      vertex 6.85295 15.4052 0
      vertex 7.16987 22.4186 0
      vertex 8.75 15.1554 0
    endloop
  endfacet
  facet normal 0 0 -1
    outer loop
      vertex 3.0718 21.3205 0
      vertex 7.16987 22.4186 0
      vertex 6.85295 15.4052 0
    endloop
  endfacet
  facet normal 0 0 -1
    outer loop
      vertex 3.0718 21.3205 0
      vertex 6.85295 15.4052 0
      vertex 5.33494 14.2404 0
    endloop
  endfacet
  facet normal 0 0 -1
    outer loop
      vertex 0 16 0
      vertex 5.33494 14.2404 0
      vertex 5.08519 12.3433 0
    endloop
  endfacet
  facet normal -0 0 -1
    outer loop
      vertex 5.33494 -14.2404 0
      vertex 0 -16 0
      vertex 5.08519 -12.3433 0
    endloop
  endfacet
  facet normal 0 0 -1
    outer loop
      vertex -5.08519 -12.3433 0
      vertex 5.08519 -12.3433 0
      vertex 0 -16 0
    endloop
  endfacet
  facet normal 0 0 -1
    outer loop
      vertex 5.08519 -12.3433 0
      vertex -6.25 -10.8253 0
      vertex 5.08519 12.3433 0
    endloop
  endfacet
  facet normal 0 0 -1
    outer loop
      vertex 5.33494 14.2404 0
      vertex 0 16 0
      vertex 3.0718 21.3205 0
    endloop
  endfacet
  facet normal -0 0 -1
    outer loop
      vertex 7.16987 22.4186 0
      vertex 3.0718 21.3205 0
      vertex 5.35629 22.8041 0
    endloop
  endfacet
  facet normal 0 0 -1
    outer loop
      vertex -5.33494 -14.2404 0
      vertex 0 -16 0
      vertex -3.0718 -21.3205 0
    endloop
  endfacet
  facet normal 0 0 -1
    outer loop
      vertex 5.08519 -12.3433 0
      vertex -5.08519 -12.3433 0
      vertex -6.25 -10.8253 0
    endloop
  endfacet
  facet normal 0 0 -1
    outer loop
      vertex -5.33494 14.2404 0
      vertex 0 16 0
      vertex -5.08519 12.3433 0
    endloop
  endfacet
  facet normal 0 0 -1
    outer loop
      vertex -6.25 10.8253 0
      vertex 5.08519 12.3433 0
      vertex -6.25 -10.8253 0
    endloop
  endfacet
  facet normal 0 0 -1
    outer loop
      vertex 0 -16 0
      vertex -5.33494 -14.2404 0
      vertex -5.08519 -12.3433 0
    endloop
  endfacet
  facet normal 0 0 -1
    outer loop
      vertex -7.16987 -22.4186 0
      vertex -3.0718 -21.3205 0
      vertex -5.35629 -22.8041 0
    endloop
  endfacet
  facet normal 0 0 -1
    outer loop
      vertex -3.0718 -21.3205 0
      vertex -6.85295 -15.4052 0
      vertex -5.33494 -14.2404 0
    endloop
  endfacet
  facet normal -0 0 -1
    outer loop
      vertex -3.0718 -21.3205 0
      vertex -7.16987 -22.4186 0
      vertex -6.85295 -15.4052 0
    endloop
  endfacet
  facet normal 0 0 -1
    outer loop
      vertex -7.16987 -22.4186 0
      vertex -8.75 -15.1554 0
      vertex -6.85295 -15.4052 0
    endloop
  endfacet
  facet normal 0 0 -1
    outer loop
      vertex -15.8301 -17.4186 0
      vertex -8.75 -15.1554 0
      vertex -7.16987 -22.4186 0
    endloop
  endfacet
  facet normal 0 0 -1
    outer loop
      vertex -13.8564 8 0
      vertex -8.14705 10.5756 0
      vertex -13.2322 1.76777 0
    endloop
  endfacet
  facet normal 0 0 -1
    outer loop
      vertex -9.66506 -11.7404 0
      vertex -13.2322 -1.76777 0
      vertex -12.5 0 0
    endloop
  endfacet
  facet normal 0 0 -1
    outer loop
      vertex -9.66506 -11.7404 0
      vertex -13.8564 -8 0
      vertex -13.2322 -1.76777 0
    endloop
  endfacet
  facet normal -0 0 -1
    outer loop
      vertex -8.75 -15.1554 0
      vertex -15.8301 -17.4186 0
      vertex -9.91481 -13.6374 0
    endloop
  endfacet
  facet normal 0 0 -1
    outer loop
      vertex -16.9282 -13.3205 0
      vertex -9.91481 -13.6374 0
      vertex -15.8301 -17.4186 0
    endloop
  endfacet
  facet normal -0 0 -1
    outer loop
      vertex -9.66506 -11.7404 0
      vertex -16.9282 -13.3205 0
      vertex -13.8564 -8 0
    endloop
  endfacet
  facet normal 0 -0 -1
    outer loop
      vertex -16.9282 -13.3205 0
      vertex -15.8301 -17.4186 0
      vertex -17.3137 -15.1341 0
    endloop
  endfacet
  facet normal 0 0 -1
    outer loop
      vertex -15 2.5 0
      vertex -13.8564 8 0
      vertex -13.2322 1.76777 0
    endloop
  endfacet
  facet normal 0 0 -1
    outer loop
      vertex -20 8 0
      vertex -15 2.5 0
      vertex -16.7678 1.76777 0
    endloop
  endfacet
  facet normal 0 0 -1
    outer loop
      vertex -15 2.5 0
      vertex -20 8 0
      vertex -13.8564 8 0
    endloop
  endfacet
  facet normal 0 0 -1
    outer loop
      vertex -23 5 0
      vertex -16.7678 1.76777 0
      vertex -17.5 0 0
    endloop
  endfacet
  facet normal -0 0 -1
    outer loop
      vertex -16.7678 -1.76777 0
      vertex -23 -5 0
      vertex -17.5 0 0
    endloop
  endfacet
  facet normal 0 0 -1
    outer loop
      vertex -16.7678 1.76777 0
      vertex -23 5 0
      vertex -20 8 0
    endloop
  endfacet
  facet normal 0 0 -1
    outer loop
      vertex -23 -5 0
      vertex -20 -8 0
      vertex -22.427 -6.76335 0
    endloop
  endfacet
  facet normal -0 0 -1
    outer loop
      vertex -17.5 0 0
      vertex -23 -5 0
      vertex -23 5 0
    endloop
  endfacet
  facet normal 0 0 -1
    outer loop
      vertex -20 8 0
      vertex -23 5 0
      vertex -21.7634 7.42705 0
    endloop
  endfacet
  facet normal 0 -0 -1
    outer loop
      vertex -5.08519 12.3433 0
      vertex 5.08519 12.3433 0
      vertex -6.25 10.8253 0
    endloop
  endfacet
  facet normal 0 0 -1
    outer loop
      vertex 5.08519 12.3433 0
      vertex -5.08519 12.3433 0
      vertex 0 16 0
    endloop
  endfacet
  facet normal 0 0 -1
    outer loop
      vertex -12.5 0 0
      vertex -6.25 -10.8253 0
      vertex -8.14705 -10.5756 0
    endloop
  endfacet
  facet normal 0 0 -1
    outer loop
      vertex -6.25 -10.8253 0
      vertex -12.5 0 0
      vertex -6.25 10.8253 0
    endloop
  endfacet
  facet normal 0 0 -1
    outer loop
      vertex -12.5 0 0
      vertex -8.14705 -10.5756 0
      vertex -9.66506 -11.7404 0
    endloop
  endfacet
  facet normal 0 0 -1
    outer loop
      vertex -6.25 10.8253 0
      vertex -12.5 0 0
      vertex -8.14705 10.5756 0
    endloop
  endfacet
  facet normal 0 0 -1
    outer loop
      vertex -16.9282 -13.3205 0
      vertex -9.66506 -11.7404 0
      vertex -9.91481 -13.6374 0
    endloop
  endfacet
  facet normal 0 0 -1
    outer loop
      vertex -13.2322 1.76777 0
      vertex -8.14705 10.5756 0
      vertex -12.5 0 0
    endloop
  endfacet
  facet normal -0 0 -1
    outer loop
      vertex 0 16 0
      vertex -5.33494 14.2404 0
      vertex -3.0718 21.3205 0
    endloop
  endfacet
  facet normal 0 0 -1
    outer loop
      vertex -6.85295 15.4052 0
      vertex -3.0718 21.3205 0
      vertex -5.33494 14.2404 0
    endloop
  endfacet
  facet normal 0 0 -1
    outer loop
      vertex -7.16987 22.4186 0
      vertex -3.0718 21.3205 0
      vertex -6.85295 15.4052 0
    endloop
  endfacet
  facet normal 0 0 -1
    outer loop
      vertex -3.0718 21.3205 0
      vertex -7.16987 22.4186 0
      vertex -4.44966 22.5611 0
    endloop
  endfacet
  facet normal 0 0 -1
    outer loop
      vertex -8.75 15.1554 0
      vertex -7.16987 22.4186 0
      vertex -6.85295 15.4052 0
    endloop
  endfacet
  facet normal 0 0 -1
    outer loop
      vertex -15.8301 17.4186 0
      vertex -8.75 15.1554 0
      vertex -9.91481 13.6374 0
    endloop
  endfacet
  facet normal -0 0 -1
    outer loop
      vertex -8.14705 10.5756 0
      vertex -13.8564 8 0
      vertex -9.66506 11.7404 0
    endloop
  endfacet
  facet normal 0 0 -1
    outer loop
      vertex -16.9282 13.3205 0
      vertex -9.66506 11.7404 0
      vertex -13.8564 8 0
    endloop
  endfacet
  facet normal 0 0 -1
    outer loop
      vertex -9.66506 11.7404 0
      vertex -16.9282 13.3205 0
      vertex -9.91481 13.6374 0
    endloop
  endfacet
  facet normal 0 0 -1
    outer loop
      vertex -8.75 15.1554 0
      vertex -15.8301 17.4186 0
      vertex -7.16987 22.4186 0
    endloop
  endfacet
  facet normal -0 0 -1
    outer loop
      vertex -9.91481 13.6374 0
      vertex -16.9282 13.3205 0
      vertex -15.8301 17.4186 0
    endloop
  endfacet
  facet normal 0 0 -1
    outer loop
      vertex -15.8301 17.4186 0
      vertex -16.9282 13.3205 0
      vertex -17.0708 16.0407 0
    endloop
  endfacet
  facet normal 0 0 -1
    outer loop
      vertex -13.8564 -8 0
      vertex -15 -2.5 0
      vertex -13.2322 -1.76777 0
    endloop
  endfacet
  facet normal 0 0 -1
    outer loop
      vertex -20 -8 0
      vertex -15 -2.5 0
      vertex -13.8564 -8 0
    endloop
  endfacet
  facet normal 0 0 -1
    outer loop
      vertex -23 -5 0
      vertex -16.7678 -1.76777 0
      vertex -20 -8 0
    endloop
  endfacet
  facet normal -0 0 -1
    outer loop
      vertex -15 -2.5 0
      vertex -20 -8 0
      vertex -16.7678 -1.76777 0
    endloop
  endfacet
  facet normal 0 0 -1
    outer loop
      vertex 6.25 -10.8253 0
      vertex 12.5 0 0
      vertex 8.14705 -10.5756 0
    endloop
  endfacet
  facet normal -0 0 -1
    outer loop
      vertex 16.9282 13.3205 0
      vertex 9.66506 11.7404 0
      vertex 9.91481 13.6374 0
    endloop
  endfacet
  facet normal 0 0 -1
    outer loop
      vertex 13.2322 1.76777 0
      vertex 8.14705 10.5756 0
      vertex 13.8564 8 0
    endloop
  endfacet
  facet normal 0 0 -1
    outer loop
      vertex 13.8564 8 0
      vertex 8.14705 10.5756 0
      vertex 9.66506 11.7404 0
    endloop
  endfacet
  facet normal 0 0 -1
    outer loop
      vertex 6.25 10.8253 0
      vertex 12.5 0 0
      vertex 6.25 -10.8253 0
    endloop
  endfacet
  facet normal 0 0 -1
    outer loop
      vertex 12.5 0 0
      vertex 6.25 10.8253 0
      vertex 8.14705 10.5756 0
    endloop
  endfacet
  facet normal 0 0 -1
    outer loop
      vertex 5.08519 -12.3433 0
      vertex 6.25 10.8253 0
      vertex 6.25 -10.8253 0
    endloop
  endfacet
  facet normal -0 0 -1
    outer loop
      vertex 6.25 10.8253 0
      vertex 5.08519 -12.3433 0
      vertex 5.08519 12.3433 0
    endloop
  endfacet
  facet normal 0.30901 -0.951059 0
    outer loop
      vertex 20 -8 0
      vertex 21.7634 -7.42705 1.5
      vertex 20 -8 1.5
    endloop
  endfacet
  facet normal 0.30901 -0.951059 0
    outer loop
      vertex 21.7634 -7.42705 1.5
      vertex 20 -8 0
      vertex 21.7634 -7.42705 0
    endloop
  endfacet
  facet normal 0.951048 0.309043 0
    outer loop
      vertex 23 5 1.5
      vertex 22.427 6.76335 0
      vertex 22.427 6.76335 1.5
    endloop
  endfacet
  facet normal 0.951048 0.309043 0
    outer loop
      vertex 22.427 6.76335 0
      vertex 23 5 1.5
      vertex 23 5 0
    endloop
  endfacet
  facet normal -0.30901 0.951059 0
    outer loop
      vertex -20 8 0
      vertex -21.7634 7.42705 1.5
      vertex -20 8 1.5
    endloop
  endfacet
  facet normal -0.30901 0.951059 0
    outer loop
      vertex -21.7634 7.42705 1.5
      vertex -20 8 0
      vertex -21.7634 7.42705 0
    endloop
  endfacet
  facet normal 0 1 -0
    outer loop
      vertex 20 8 0
      vertex 13.8564 8 1.5
      vertex 20 8 1.5
    endloop
  endfacet
  facet normal 0 1 0
    outer loop
      vertex 13.8564 8 1.5
      vertex 20 8 0
      vertex 13.8564 8 0
    endloop
  endfacet
  facet normal 0 1 -0
    outer loop
      vertex -13.8564 8 0
      vertex -20 8 1.5
      vertex -13.8564 8 1.5
    endloop
  endfacet
  facet normal 0 1 0
    outer loop
      vertex -20 8 1.5
      vertex -13.8564 8 0
      vertex -20 8 0
    endloop
  endfacet
  facet normal -0.951048 -0.309043 0
    outer loop
      vertex -22.427 -6.76335 0
      vertex -23 -5 1.5
      vertex -23 -5 0
    endloop
  endfacet
  facet normal -0.951048 -0.309043 0
    outer loop
      vertex -23 -5 1.5
      vertex -22.427 -6.76335 0
      vertex -22.427 -6.76335 1.5
    endloop
  endfacet
  facet normal 0 0 1
    outer loop
      vertex 15.8301 17.4186 1.5
      vertex 16.9282 13.3205 1.5
      vertex 17.3137 15.1341 1.5
    endloop
  endfacet
  facet normal -0 0 1
    outer loop
      vertex 9.91481 13.6374 1.5
      vertex 16.9282 13.3205 1.5
      vertex 15.8301 17.4186 1.5
    endloop
  endfacet
  facet normal 0 0 1
    outer loop
      vertex 8.14705 10.5756 1.5
      vertex 13.2322 1.76777 1.5
      vertex 13.8564 8 1.5
    endloop
  endfacet
  facet normal 0 0 1
    outer loop
      vertex 16.9282 13.3205 1.5
      vertex 9.66506 11.7404 1.5
      vertex 13.8564 8 1.5
    endloop
  endfacet
  facet normal 0 0 1
    outer loop
      vertex 9.66506 11.7404 1.5
      vertex 16.9282 13.3205 1.5
      vertex 9.91481 13.6374 1.5
    endloop
  endfacet
  facet normal 0 0 1
    outer loop
      vertex 15.8301 17.4186 1.5
      vertex 8.75 15.1554 1.5
      vertex 9.91481 13.6374 1.5
    endloop
  endfacet
  facet normal 0 0 1
    outer loop
      vertex 7.16987 22.4186 1.5
      vertex 8.75 15.1554 1.5
      vertex 15.8301 17.4186 1.5
    endloop
  endfacet
  facet normal 0 0 1
    outer loop
      vertex 7.16987 22.4186 1.5
      vertex 6.85295 15.4052 1.5
      vertex 8.75 15.1554 1.5
    endloop
  endfacet
  facet normal 0 0 1
    outer loop
      vertex 3.0718 21.3205 1.5
      vertex 7.16987 22.4186 1.5
      vertex 5.35629 22.8041 1.5
    endloop
  endfacet
  facet normal 0 0 1
    outer loop
      vertex 7.16987 22.4186 1.5
      vertex 3.0718 21.3205 1.5
      vertex 6.85295 15.4052 1.5
    endloop
  endfacet
  facet normal 0 0 1
    outer loop
      vertex 6.85295 15.4052 1.5
      vertex 3.0718 21.3205 1.5
      vertex 5.33494 14.2404 1.5
    endloop
  endfacet
  facet normal 0 0 1
    outer loop
      vertex 6.25 -10.8253 1.5
      vertex -6.25 -10.8253 1.5
      vertex 5.08519 -12.3433 1.5
    endloop
  endfacet
  facet normal -0 0 1
    outer loop
      vertex 0 16 1.5
      vertex 5.33494 14.2404 1.5
      vertex 3.0718 21.3205 1.5
    endloop
  endfacet
  facet normal 0 0 1
    outer loop
      vertex 5.33494 14.2404 1.5
      vertex 0 16 1.5
      vertex 5.08519 12.3433 1.5
    endloop
  endfacet
  facet normal 0 0 1
    outer loop
      vertex -5.08519 12.3433 1.5
      vertex 5.08519 12.3433 1.5
      vertex 0 16 1.5
    endloop
  endfacet
  facet normal 0 -0 1
    outer loop
      vertex 3.0718 -21.3205 1.5
      vertex 5.08519 -12.3433 1.5
      vertex 0 -16 1.5
    endloop
  endfacet
  facet normal 0 0 1
    outer loop
      vertex 5.08519 -12.3433 1.5
      vertex 3.0718 -21.3205 1.5
      vertex 4.44966 -22.5611 1.5
    endloop
  endfacet
  facet normal 0 0 1
    outer loop
      vertex -5.33494 14.2404 1.5
      vertex 0 16 1.5
      vertex -3.0718 21.3205 1.5
    endloop
  endfacet
  facet normal 0 0 1
    outer loop
      vertex 5.08519 12.3433 1.5
      vertex -5.08519 12.3433 1.5
      vertex -6.25 10.8253 1.5
    endloop
  endfacet
  facet normal -0 0 1
    outer loop
      vertex -7.16987 22.4186 1.5
      vertex -3.0718 21.3205 1.5
      vertex -4.44966 22.5611 1.5
    endloop
  endfacet
  facet normal 0 0 1
    outer loop
      vertex -6.25 -10.8253 1.5
      vertex 5.08519 12.3433 1.5
      vertex -6.25 10.8253 1.5
    endloop
  endfacet
  facet normal -0 0 1
    outer loop
      vertex -5.33494 -14.2404 1.5
      vertex 0 -16 1.5
      vertex -5.08519 -12.3433 1.5
    endloop
  endfacet
  facet normal 0 0 1
    outer loop
      vertex 0 -16 1.5
      vertex -5.33494 -14.2404 1.5
      vertex -3.0718 -21.3205 1.5
    endloop
  endfacet
  facet normal -0 0 1
    outer loop
      vertex -6.85295 -15.4052 1.5
      vertex -3.0718 -21.3205 1.5
      vertex -5.33494 -14.2404 1.5
    endloop
  endfacet
  facet normal 0 0 1
    outer loop
      vertex -7.16987 -22.4186 1.5
      vertex -3.0718 -21.3205 1.5
      vertex -6.85295 -15.4052 1.5
    endloop
  endfacet
  facet normal 0 0 1
    outer loop
      vertex -3.0718 -21.3205 1.5
      vertex -7.16987 -22.4186 1.5
      vertex -5.35629 -22.8041 1.5
    endloop
  endfacet
  facet normal 0 0 1
    outer loop
      vertex -8.75 -15.1554 1.5
      vertex -7.16987 -22.4186 1.5
      vertex -6.85295 -15.4052 1.5
    endloop
  endfacet
  facet normal 0 0 1
    outer loop
      vertex -15.8301 -17.4186 1.5
      vertex -8.75 -15.1554 1.5
      vertex -9.91481 -13.6374 1.5
    endloop
  endfacet
  facet normal 0 0 1
    outer loop
      vertex -8.14705 -10.5756 1.5
      vertex -13.8564 -8 1.5
      vertex -9.66506 -11.7404 1.5
    endloop
  endfacet
  facet normal 0 0 1
    outer loop
      vertex -16.9282 -13.3205 1.5
      vertex -9.66506 -11.7404 1.5
      vertex -13.8564 -8 1.5
    endloop
  endfacet
  facet normal 0 0 1
    outer loop
      vertex -9.66506 -11.7404 1.5
      vertex -16.9282 -13.3205 1.5
      vertex -9.91481 -13.6374 1.5
    endloop
  endfacet
  facet normal 0 0 1
    outer loop
      vertex -8.75 -15.1554 1.5
      vertex -15.8301 -17.4186 1.5
      vertex -7.16987 -22.4186 1.5
    endloop
  endfacet
  facet normal 0 0 1
    outer loop
      vertex -9.91481 -13.6374 1.5
      vertex -16.9282 -13.3205 1.5
      vertex -15.8301 -17.4186 1.5
    endloop
  endfacet
  facet normal 0 0 1
    outer loop
      vertex -15.8301 -17.4186 1.5
      vertex -16.9282 -13.3205 1.5
      vertex -17.3137 -15.1341 1.5
    endloop
  endfacet
  facet normal 0 0 1
    outer loop
      vertex 20 8 1.5
      vertex 23 5 1.5
      vertex 22.427 6.76335 1.5
    endloop
  endfacet
  facet normal 0 0 1
    outer loop
      vertex 23 5 1.5
      vertex 17.5 0 1.5
      vertex 23 -5 1.5
    endloop
  endfacet
  facet normal 0 0 1
    outer loop
      vertex 23 5 1.5
      vertex 20 8 1.5
      vertex 16.7678 1.76777 1.5
    endloop
  endfacet
  facet normal -0 0 1
    outer loop
      vertex 16.7678 -1.76777 1.5
      vertex 23 -5 1.5
      vertex 17.5 0 1.5
    endloop
  endfacet
  facet normal 0 -0 1
    outer loop
      vertex 20 -8 1.5
      vertex 23 -5 1.5
      vertex 16.7678 -1.76777 1.5
    endloop
  endfacet
  facet normal 0 0 1
    outer loop
      vertex 23 5 1.5
      vertex 16.7678 1.76777 1.5
      vertex 17.5 0 1.5
    endloop
  endfacet
  facet normal 0 0 1
    outer loop
      vertex 20 8 1.5
      vertex 15 2.5 1.5
      vertex 16.7678 1.76777 1.5
    endloop
  endfacet
  facet normal -0 0 1
    outer loop
      vertex 13.8564 8 1.5
      vertex 15 2.5 1.5
      vertex 20 8 1.5
    endloop
  endfacet
  facet normal 0 0 1
    outer loop
      vertex 15 2.5 1.5
      vertex 13.8564 8 1.5
      vertex 13.2322 1.76777 1.5
    endloop
  endfacet
  facet normal 0 0 1
    outer loop
      vertex 23 -5 1.5
      vertex 20 -8 1.5
      vertex 21.7634 -7.42705 1.5
    endloop
  endfacet
  facet normal -0 0 1
    outer loop
      vertex 15 -2.5 1.5
      vertex 20 -8 1.5
      vertex 16.7678 -1.76777 1.5
    endloop
  endfacet
  facet normal 0 0 1
    outer loop
      vertex 15 -2.5 1.5
      vertex 13.8564 -8 1.5
      vertex 20 -8 1.5
    endloop
  endfacet
  facet normal 0 -0 1
    outer loop
      vertex 13.8564 -8 1.5
      vertex 15 -2.5 1.5
      vertex 13.2322 -1.76777 1.5
    endloop
  endfacet
  facet normal 0 0 1
    outer loop
      vertex 16.9282 -13.3205 1.5
      vertex 15.8301 -17.4186 1.5
      vertex 17.0708 -16.0407 1.5
    endloop
  endfacet
  facet normal -0 0 1
    outer loop
      vertex 9.66506 -11.7404 1.5
      vertex 16.9282 -13.3205 1.5
      vertex 13.8564 -8 1.5
    endloop
  endfacet
  facet normal 0 0 1
    outer loop
      vertex 8.14705 -10.5756 1.5
      vertex 13.2322 -1.76777 1.5
      vertex 12.5 0 1.5
    endloop
  endfacet
  facet normal -0 0 1
    outer loop
      vertex 8.14705 10.5756 1.5
      vertex 13.8564 8 1.5
      vertex 9.66506 11.7404 1.5
    endloop
  endfacet
  facet normal 0 0 1
    outer loop
      vertex 13.2322 1.76777 1.5
      vertex 8.14705 10.5756 1.5
      vertex 12.5 0 1.5
    endloop
  endfacet
  facet normal 0 0 1
    outer loop
      vertex 16.9282 -13.3205 1.5
      vertex 9.91481 -13.6374 1.5
      vertex 15.8301 -17.4186 1.5
    endloop
  endfacet
  facet normal -0 0 1
    outer loop
      vertex 8.75 -15.1554 1.5
      vertex 15.8301 -17.4186 1.5
      vertex 9.91481 -13.6374 1.5
    endloop
  endfacet
  facet normal 0 0 1
    outer loop
      vertex 8.75 -15.1554 1.5
      vertex 7.16987 -22.4186 1.5
      vertex 15.8301 -17.4186 1.5
    endloop
  endfacet
  facet normal -0 0 1
    outer loop
      vertex 6.85295 -15.4052 1.5
      vertex 7.16987 -22.4186 1.5
      vertex 8.75 -15.1554 1.5
    endloop
  endfacet
  facet normal 0 0 1
    outer loop
      vertex 4.44966 -22.5611 1.5
      vertex 6.85295 -15.4052 1.5
      vertex 5.33494 -14.2404 1.5
    endloop
  endfacet
  facet normal 0 0 1
    outer loop
      vertex 6.85295 -15.4052 1.5
      vertex 4.44966 -22.5611 1.5
      vertex 7.16987 -22.4186 1.5
    endloop
  endfacet
  facet normal 0 0 1
    outer loop
      vertex 4.44966 -22.5611 1.5
      vertex 5.33494 -14.2404 1.5
      vertex 5.08519 -12.3433 1.5
    endloop
  endfacet
  facet normal -0 0 1
    outer loop
      vertex -15 -2.5 1.5
      vertex -13.8564 -8 1.5
      vertex -13.2322 -1.76777 1.5
    endloop
  endfacet
  facet normal 0 0 1
    outer loop
      vertex -20 -8 1.5
      vertex -15 -2.5 1.5
      vertex -16.7678 -1.76777 1.5
    endloop
  endfacet
  facet normal 0 0 1
    outer loop
      vertex -15 -2.5 1.5
      vertex -20 -8 1.5
      vertex -13.8564 -8 1.5
    endloop
  endfacet
  facet normal 0 0 1
    outer loop
      vertex -23 -5 1.5
      vertex -16.7678 -1.76777 1.5
      vertex -17.5 0 1.5
    endloop
  endfacet
  facet normal 0 0 1
    outer loop
      vertex -16.7678 1.76777 1.5
      vertex -23 5 1.5
      vertex -17.5 0 1.5
    endloop
  endfacet
  facet normal 0 0 1
    outer loop
      vertex -23 5 1.5
      vertex -20 8 1.5
      vertex -21.7634 7.42705 1.5
    endloop
  endfacet
  facet normal 0 0 1
    outer loop
      vertex -23 -5 1.5
      vertex -17.5 0 1.5
      vertex -23 5 1.5
    endloop
  endfacet
  facet normal 0 0 1
    outer loop
      vertex -16.7678 -1.76777 1.5
      vertex -23 -5 1.5
      vertex -20 -8 1.5
    endloop
  endfacet
  facet normal 0 0 1
    outer loop
      vertex -20 -8 1.5
      vertex -23 -5 1.5
      vertex -22.427 -6.76335 1.5
    endloop
  endfacet
  facet normal 0 -0 1
    outer loop
      vertex -5.08519 -12.3433 1.5
      vertex 5.08519 -12.3433 1.5
      vertex -6.25 -10.8253 1.5
    endloop
  endfacet
  facet normal 0 0 1
    outer loop
      vertex 5.08519 -12.3433 1.5
      vertex -5.08519 -12.3433 1.5
      vertex 0 -16 1.5
    endloop
  endfacet
  facet normal 0 0 1
    outer loop
      vertex -12.5 0 1.5
      vertex -6.25 10.8253 1.5
      vertex -8.14705 10.5756 1.5
    endloop
  endfacet
  facet normal 0 0 1
    outer loop
      vertex -6.25 10.8253 1.5
      vertex -12.5 0 1.5
      vertex -6.25 -10.8253 1.5
    endloop
  endfacet
  facet normal 0 0 1
    outer loop
      vertex -13.8564 8 1.5
      vertex -8.14705 10.5756 1.5
      vertex -9.66506 11.7404 1.5
    endloop
  endfacet
  facet normal 0 0 1
    outer loop
      vertex -6.25 -10.8253 1.5
      vertex -12.5 0 1.5
      vertex -8.14705 -10.5756 1.5
    endloop
  endfacet
  facet normal -0 0 1
    outer loop
      vertex -16.9282 13.3205 1.5
      vertex -9.66506 11.7404 1.5
      vertex -9.91481 13.6374 1.5
    endloop
  endfacet
  facet normal -0 0 1
    outer loop
      vertex -13.2322 -1.76777 1.5
      vertex -8.14705 -10.5756 1.5
      vertex -12.5 0 1.5
    endloop
  endfacet
  facet normal 0 0 1
    outer loop
      vertex 0 16 1.5
      vertex -5.33494 14.2404 1.5
      vertex -5.08519 12.3433 1.5
    endloop
  endfacet
  facet normal 0 0 1
    outer loop
      vertex -3.0718 21.3205 1.5
      vertex -6.85295 15.4052 1.5
      vertex -5.33494 14.2404 1.5
    endloop
  endfacet
  facet normal 0 0 1
    outer loop
      vertex -3.0718 21.3205 1.5
      vertex -7.16987 22.4186 1.5
      vertex -6.85295 15.4052 1.5
    endloop
  endfacet
  facet normal 0 0 1
    outer loop
      vertex -7.16987 22.4186 1.5
      vertex -8.75 15.1554 1.5
      vertex -6.85295 15.4052 1.5
    endloop
  endfacet
  facet normal -0 0 1
    outer loop
      vertex -15.8301 17.4186 1.5
      vertex -8.75 15.1554 1.5
      vertex -7.16987 22.4186 1.5
    endloop
  endfacet
  facet normal -0 0 1
    outer loop
      vertex -13.8564 -8 1.5
      vertex -8.14705 -10.5756 1.5
      vertex -13.2322 -1.76777 1.5
    endloop
  endfacet
  facet normal 0 0 1
    outer loop
      vertex -8.14705 10.5756 1.5
      vertex -13.2322 1.76777 1.5
      vertex -12.5 0 1.5
    endloop
  endfacet
  facet normal 0 0 1
    outer loop
      vertex -8.14705 10.5756 1.5
      vertex -13.8564 8 1.5
      vertex -13.2322 1.76777 1.5
    endloop
  endfacet
  facet normal 0 0 1
    outer loop
      vertex -8.75 15.1554 1.5
      vertex -15.8301 17.4186 1.5
      vertex -9.91481 13.6374 1.5
    endloop
  endfacet
  facet normal 0 0 1
    outer loop
      vertex -16.9282 13.3205 1.5
      vertex -9.91481 13.6374 1.5
      vertex -15.8301 17.4186 1.5
    endloop
  endfacet
  facet normal 0 0 1
    outer loop
      vertex -9.66506 11.7404 1.5
      vertex -16.9282 13.3205 1.5
      vertex -13.8564 8 1.5
    endloop
  endfacet
  facet normal 0 -0 1
    outer loop
      vertex -16.9282 13.3205 1.5
      vertex -15.8301 17.4186 1.5
      vertex -17.0708 16.0407 1.5
    endloop
  endfacet
  facet normal 0 0 1
    outer loop
      vertex 6.25 10.8253 1.5
      vertex 12.5 0 1.5
      vertex 8.14705 10.5756 1.5
    endloop
  endfacet
  facet normal 0 0 1
    outer loop
      vertex 16.9282 -13.3205 1.5
      vertex 9.66506 -11.7404 1.5
      vertex 9.91481 -13.6374 1.5
    endloop
  endfacet
  facet normal 0 0 1
    outer loop
      vertex 13.2322 -1.76777 1.5
      vertex 8.14705 -10.5756 1.5
      vertex 13.8564 -8 1.5
    endloop
  endfacet
  facet normal 0 0 1
    outer loop
      vertex 13.8564 -8 1.5
      vertex 8.14705 -10.5756 1.5
      vertex 9.66506 -11.7404 1.5
    endloop
  endfacet
  facet normal 0 0 1
    outer loop
      vertex 6.25 -10.8253 1.5
      vertex 12.5 0 1.5
      vertex 6.25 10.8253 1.5
    endloop
  endfacet
  facet normal 0 0 1
    outer loop
      vertex 12.5 0 1.5
      vertex 6.25 -10.8253 1.5
      vertex 8.14705 -10.5756 1.5
    endloop
  endfacet
  facet normal 0 0 1
    outer loop
      vertex -6.25 -10.8253 1.5
      vertex 6.25 10.8253 1.5
      vertex 5.08519 12.3433 1.5
    endloop
  endfacet
  facet normal 0 0 1
    outer loop
      vertex 6.25 10.8253 1.5
      vertex -6.25 -10.8253 1.5
      vertex 6.25 -10.8253 1.5
    endloop
  endfacet
  facet normal 0 0 1
    outer loop
      vertex -13.8564 8 1.5
      vertex -15 2.5 1.5
      vertex -13.2322 1.76777 1.5
    endloop
  endfacet
  facet normal -0 0 1
    outer loop
      vertex -20 8 1.5
      vertex -15 2.5 1.5
      vertex -13.8564 8 1.5
    endloop
  endfacet
  facet normal -0 0 1
    outer loop
      vertex -23 5 1.5
      vertex -16.7678 1.76777 1.5
      vertex -20 8 1.5
    endloop
  endfacet
  facet normal 0 0 1
    outer loop
      vertex -15 2.5 1.5
      vertex -20 8 1.5
      vertex -16.7678 1.76777 1.5
    endloop
  endfacet
  facet normal -0.891013 0.453978 0
    outer loop
      vertex -23 5 0
      vertex -21.7634 7.42705 1.5
      vertex -21.7634 7.42705 0
    endloop
  endfacet
  facet normal -0.891013 0.453978 0
    outer loop
      vertex -21.7634 7.42705 1.5
      vertex -23 5 0
      vertex -23 5 1.5
    endloop
  endfacet
  facet normal -1 0 0
    outer loop
      vertex -23 -5 0
      vertex -23 5 1.5
      vertex -23 5 0
    endloop
  endfacet
  facet normal -1 -0 0
    outer loop
      vertex -23 5 1.5
      vertex -23 -5 0
      vertex -23 -5 1.5
    endloop
  endfacet
  facet normal 0 -1 0
    outer loop
      vertex -20 -8 0
      vertex -13.8564 -8 1.5
      vertex -20 -8 1.5
    endloop
  endfacet
  facet normal 0 -1 -0
    outer loop
      vertex -13.8564 -8 1.5
      vertex -20 -8 0
      vertex -13.8564 -8 0
    endloop
  endfacet
  facet normal 0 -1 0
    outer loop
      vertex 13.8564 -8 0
      vertex 20 -8 1.5
      vertex 13.8564 -8 1.5
    endloop
  endfacet
  facet normal 0 -1 -0
    outer loop
      vertex 20 -8 1.5
      vertex 13.8564 -8 0
      vertex 20 -8 0
    endloop
  endfacet
  facet normal 1 -0 0
    outer loop
      vertex 23 -5 1.5
      vertex 23 5 0
      vertex 23 5 1.5
    endloop
  endfacet
  facet normal 1 0 0
    outer loop
      vertex 23 5 0
      vertex 23 -5 1.5
      vertex 23 -5 0
    endloop
  endfacet
  facet normal 0.454 0.891002 -0
    outer loop
      vertex 22.427 6.76335 0
      vertex 20 8 1.5
      vertex 22.427 6.76335 1.5
    endloop
  endfacet
  facet normal 0.454 0.891002 0
    outer loop
      vertex 20 8 1.5
      vertex 22.427 6.76335 0
      vertex 20 8 0
    endloop
  endfacet
  facet normal -0.454 -0.891002 0
    outer loop
      vertex -22.427 -6.76335 0
      vertex -20 -8 1.5
      vertex -22.427 -6.76335 1.5
    endloop
  endfacet
  facet normal -0.454 -0.891002 -0
    outer loop
      vertex -20 -8 1.5
      vertex -22.427 -6.76335 0
      vertex -20 -8 0
    endloop
  endfacet
  facet normal 0.891013 -0.453978 0
    outer loop
      vertex 21.7634 -7.42705 1.5
      vertex 23 -5 0
      vertex 23 -5 1.5
    endloop
  endfacet
  facet normal 0.891013 -0.453978 0
    outer loop
      vertex 23 -5 0
      vertex 21.7634 -7.42705 1.5
      vertex 21.7634 -7.42705 0
    endloop
  endfacet
  facet normal 0.923886 0.382668 0
    outer loop
      vertex -16.7678 -1.76777 1.5
      vertex -17.5 0 0
      vertex -17.5 0 1.5
    endloop
  endfacet
  facet normal 0.923886 0.382668 0
    outer loop
      vertex -17.5 0 0
      vertex -16.7678 -1.76777 1.5
      vertex -16.7678 -1.76777 0
    endloop
  endfacet
  facet normal -0.382676 -0.923883 0
    outer loop
      vertex -15 2.5 0
      vertex -13.2322 1.76777 1.5
      vertex -15 2.5 1.5
    endloop
  endfacet
  facet normal -0.382676 -0.923883 -0
    outer loop
      vertex -13.2322 1.76777 1.5
      vertex -15 2.5 0
      vertex -13.2322 1.76777 0
    endloop
  endfacet
  facet normal -0.923886 -0.382668 0
    outer loop
      vertex -12.5 0 0
      vertex -13.2322 1.76777 1.5
      vertex -13.2322 1.76777 0
    endloop
  endfacet
  facet normal -0.923886 -0.382668 0
    outer loop
      vertex -13.2322 1.76777 1.5
      vertex -12.5 0 0
      vertex -12.5 0 1.5
    endloop
  endfacet
  facet normal -0.382676 0.923883 0
    outer loop
      vertex -13.2322 -1.76777 0
      vertex -15 -2.5 1.5
      vertex -13.2322 -1.76777 1.5
    endloop
  endfacet
  facet normal -0.382676 0.923883 0
    outer loop
      vertex -15 -2.5 1.5
      vertex -13.2322 -1.76777 0
      vertex -15 -2.5 0
    endloop
  endfacet
  facet normal 0.382676 0.923883 -0
    outer loop
      vertex -15 -2.5 0
      vertex -16.7678 -1.76777 1.5
      vertex -15 -2.5 1.5
    endloop
  endfacet
  facet normal 0.382676 0.923883 0
    outer loop
      vertex -16.7678 -1.76777 1.5
      vertex -15 -2.5 0
      vertex -16.7678 -1.76777 0
    endloop
  endfacet
  facet normal -0.923886 0.382668 0
    outer loop
      vertex -13.2322 -1.76777 0
      vertex -12.5 0 1.5
      vertex -12.5 0 0
    endloop
  endfacet
  facet normal -0.923886 0.382668 0
    outer loop
      vertex -12.5 0 1.5
      vertex -13.2322 -1.76777 0
      vertex -13.2322 -1.76777 1.5
    endloop
  endfacet
  facet normal 0.923886 -0.382668 0
    outer loop
      vertex -17.5 0 1.5
      vertex -16.7678 1.76777 0
      vertex -16.7678 1.76777 1.5
    endloop
  endfacet
  facet normal 0.923886 -0.382668 0
    outer loop
      vertex -16.7678 1.76777 0
      vertex -17.5 0 1.5
      vertex -17.5 0 0
    endloop
  endfacet
  facet normal 0.382676 -0.923883 0
    outer loop
      vertex -16.7678 1.76777 0
      vertex -15 2.5 1.5
      vertex -16.7678 1.76777 1.5
    endloop
  endfacet
  facet normal 0.382676 -0.923883 0
    outer loop
      vertex -15 2.5 1.5
      vertex -16.7678 1.76777 0
      vertex -15 2.5 0
    endloop
  endfacet
  facet normal -0.382676 -0.923883 0
    outer loop
      vertex 15 2.5 0
      vertex 16.7678 1.76777 1.5
      vertex 15 2.5 1.5
    endloop
  endfacet
  facet normal -0.382676 -0.923883 -0
    outer loop
      vertex 16.7678 1.76777 1.5
      vertex 15 2.5 0
      vertex 16.7678 1.76777 0
    endloop
  endfacet
  facet normal -0.923886 -0.382668 0
    outer loop
      vertex 17.5 0 0
      vertex 16.7678 1.76777 1.5
      vertex 16.7678 1.76777 0
    endloop
  endfacet
  facet normal -0.923886 -0.382668 0
    outer loop
      vertex 16.7678 1.76777 1.5
      vertex 17.5 0 0
      vertex 17.5 0 1.5
    endloop
  endfacet
  facet normal 0.382676 -0.923883 0
    outer loop
      vertex 13.2322 1.76777 0
      vertex 15 2.5 1.5
      vertex 13.2322 1.76777 1.5
    endloop
  endfacet
  facet normal 0.382676 -0.923883 0
    outer loop
      vertex 15 2.5 1.5
      vertex 13.2322 1.76777 0
      vertex 15 2.5 0
    endloop
  endfacet
  facet normal -0.923886 0.382668 0
    outer loop
      vertex 16.7678 -1.76777 0
      vertex 17.5 0 1.5
      vertex 17.5 0 0
    endloop
  endfacet
  facet normal -0.923886 0.382668 0
    outer loop
      vertex 17.5 0 1.5
      vertex 16.7678 -1.76777 0
      vertex 16.7678 -1.76777 1.5
    endloop
  endfacet
  facet normal 0.923886 -0.382668 0
    outer loop
      vertex 12.5 0 1.5
      vertex 13.2322 1.76777 0
      vertex 13.2322 1.76777 1.5
    endloop
  endfacet
  facet normal 0.923886 -0.382668 0
    outer loop
      vertex 13.2322 1.76777 0
      vertex 12.5 0 1.5
      vertex 12.5 0 0
    endloop
  endfacet
  facet normal 0.382676 0.923883 -0
    outer loop
      vertex 15 -2.5 0
      vertex 13.2322 -1.76777 1.5
      vertex 15 -2.5 1.5
    endloop
  endfacet
  facet normal 0.382676 0.923883 0
    outer loop
      vertex 13.2322 -1.76777 1.5
      vertex 15 -2.5 0
      vertex 13.2322 -1.76777 0
    endloop
  endfacet
  facet normal -0.382676 0.923883 0
    outer loop
      vertex 16.7678 -1.76777 0
      vertex 15 -2.5 1.5
      vertex 16.7678 -1.76777 1.5
    endloop
  endfacet
  facet normal -0.382676 0.923883 0
    outer loop
      vertex 15 -2.5 1.5
      vertex 16.7678 -1.76777 0
      vertex 15 -2.5 0
    endloop
  endfacet
  facet normal 0.923886 0.382668 0
    outer loop
      vertex 13.2322 -1.76777 1.5
      vertex 12.5 0 0
      vertex 12.5 0 1.5
    endloop
  endfacet
  facet normal 0.923886 0.382668 0
    outer loop
      vertex 12.5 0 0
      vertex 13.2322 -1.76777 1.5
      vertex 13.2322 -1.76777 0
    endloop
  endfacet
  facet normal 0.978147 -0.207916 0
    outer loop
      vertex 16.9282 13.3205 1.5
      vertex 17.3137 15.1341 0
      vertex 17.3137 15.1341 1.5
    endloop
  endfacet
  facet normal 0.978147 -0.207916 0
    outer loop
      vertex 17.3137 15.1341 0
      vertex 16.9282 13.3205 1.5
      vertex 16.9282 13.3205 0
    endloop
  endfacet
  facet normal 0.207918 0.978146 -0
    outer loop
      vertex 7.16987 22.4186 0
      vertex 5.35629 22.8041 1.5
      vertex 7.16987 22.4186 1.5
    endloop
  endfacet
  facet normal 0.207918 0.978146 0
    outer loop
      vertex 5.35629 22.8041 1.5
      vertex 7.16987 22.4186 0
      vertex 5.35629 22.8041 0
    endloop
  endfacet
  facet normal -0.978147 0.207916 0
    outer loop
      vertex -17.3137 -15.1341 0
      vertex -16.9282 -13.3205 1.5
      vertex -16.9282 -13.3205 0
    endloop
  endfacet
  facet normal -0.978147 0.207916 0
    outer loop
      vertex -16.9282 -13.3205 1.5
      vertex -17.3137 -15.1341 0
      vertex -17.3137 -15.1341 1.5
    endloop
  endfacet
  facet normal -0.866025 0.500001 0
    outer loop
      vertex 0 16 0
      vertex 3.0718 21.3205 1.5
      vertex 3.0718 21.3205 0
    endloop
  endfacet
  facet normal -0.866025 0.500001 0
    outer loop
      vertex 3.0718 21.3205 1.5
      vertex 0 16 0
      vertex 0 16 1.5
    endloop
  endfacet
  facet normal -0.866025 0.500001 0
    outer loop
      vertex -16.9282 -13.3205 0
      vertex -13.8564 -8 1.5
      vertex -13.8564 -8 0
    endloop
  endfacet
  facet normal -0.866025 0.500001 0
    outer loop
      vertex -13.8564 -8 1.5
      vertex -16.9282 -13.3205 0
      vertex -16.9282 -13.3205 1.5
    endloop
  endfacet
  facet normal -0.207918 -0.978146 0
    outer loop
      vertex -7.16987 -22.4186 0
      vertex -5.35629 -22.8041 1.5
      vertex -7.16987 -22.4186 1.5
    endloop
  endfacet
  facet normal -0.207918 -0.978146 -0
    outer loop
      vertex -5.35629 -22.8041 1.5
      vertex -7.16987 -22.4186 0
      vertex -5.35629 -22.8041 0
    endloop
  endfacet
  facet normal -0.838666 -0.544646 0
    outer loop
      vertex -15.8301 -17.4186 0
      vertex -17.3137 -15.1341 1.5
      vertex -17.3137 -15.1341 0
    endloop
  endfacet
  facet normal -0.838666 -0.544646 0
    outer loop
      vertex -17.3137 -15.1341 1.5
      vertex -15.8301 -17.4186 0
      vertex -15.8301 -17.4186 1.5
    endloop
  endfacet
  facet normal -0.500001 -0.866025 0
    outer loop
      vertex -15.8301 -17.4186 0
      vertex -7.16987 -22.4186 1.5
      vertex -15.8301 -17.4186 1.5
    endloop
  endfacet
  facet normal -0.500001 -0.866025 -0
    outer loop
      vertex -7.16987 -22.4186 1.5
      vertex -15.8301 -17.4186 0
      vertex -7.16987 -22.4186 0
    endloop
  endfacet
  facet normal 0.866025 -0.500001 0
    outer loop
      vertex -3.0718 -21.3205 1.5
      vertex 0 -16 0
      vertex 0 -16 1.5
    endloop
  endfacet
  facet normal 0.866025 -0.500001 0
    outer loop
      vertex 0 -16 0
      vertex -3.0718 -21.3205 1.5
      vertex -3.0718 -21.3205 0
    endloop
  endfacet
  facet normal 0.866025 -0.500001 0
    outer loop
      vertex 13.8564 8 1.5
      vertex 16.9282 13.3205 0
      vertex 16.9282 13.3205 1.5
    endloop
  endfacet
  facet normal 0.866025 -0.500001 0
    outer loop
      vertex 16.9282 13.3205 0
      vertex 13.8564 8 1.5
      vertex 13.8564 8 0
    endloop
  endfacet
  facet normal 0.500001 0.866025 -0
    outer loop
      vertex 15.8301 17.4186 0
      vertex 7.16987 22.4186 1.5
      vertex 15.8301 17.4186 1.5
    endloop
  endfacet
  facet normal 0.500001 0.866025 0
    outer loop
      vertex 7.16987 22.4186 1.5
      vertex 15.8301 17.4186 0
      vertex 7.16987 22.4186 0
    endloop
  endfacet
  facet normal -0.544648 0.838665 0
    outer loop
      vertex 5.35629 22.8041 0
      vertex 3.0718 21.3205 1.5
      vertex 5.35629 22.8041 1.5
    endloop
  endfacet
  facet normal -0.544648 0.838665 0
    outer loop
      vertex 3.0718 21.3205 1.5
      vertex 5.35629 22.8041 0
      vertex 3.0718 21.3205 0
    endloop
  endfacet
  facet normal 0.544648 -0.838665 0
    outer loop
      vertex -5.35629 -22.8041 0
      vertex -3.0718 -21.3205 1.5
      vertex -5.35629 -22.8041 1.5
    endloop
  endfacet
  facet normal 0.544648 -0.838665 0
    outer loop
      vertex -3.0718 -21.3205 1.5
      vertex -5.35629 -22.8041 0
      vertex -3.0718 -21.3205 0
    endloop
  endfacet
  facet normal 0.838666 0.544646 0
    outer loop
      vertex 17.3137 15.1341 1.5
      vertex 15.8301 17.4186 0
      vertex 15.8301 17.4186 1.5
    endloop
  endfacet
  facet normal 0.838666 0.544646 0
    outer loop
      vertex 15.8301 17.4186 0
      vertex 17.3137 15.1341 1.5
      vertex 17.3137 15.1341 0
    endloop
  endfacet
  facet normal 0.130551 0.991442 -0
    outer loop
      vertex -6.85295 -15.4052 0
      vertex -8.75 -15.1554 1.5
      vertex -6.85295 -15.4052 1.5
    endloop
  endfacet
  facet normal 0.130551 0.991442 0
    outer loop
      vertex -8.75 -15.1554 1.5
      vertex -6.85295 -15.4052 0
      vertex -8.75 -15.1554 0
    endloop
  endfacet
  facet normal 0.608758 -0.793356 0
    outer loop
      vertex -9.66506 -11.7404 0
      vertex -8.14705 -10.5756 1.5
      vertex -9.66506 -11.7404 1.5
    endloop
  endfacet
  facet normal 0.608758 -0.793356 0
    outer loop
      vertex -8.14705 -10.5756 1.5
      vertex -9.66506 -11.7404 0
      vertex -8.14705 -10.5756 0
    endloop
  endfacet
  facet normal -0.1305 -0.991448 0
    outer loop
      vertex -8.14705 -10.5756 0
      vertex -6.25 -10.8253 1.5
      vertex -8.14705 -10.5756 1.5
    endloop
  endfacet
  facet normal -0.1305 -0.991448 -0
    outer loop
      vertex -6.25 -10.8253 1.5
      vertex -8.14705 -10.5756 0
      vertex -6.25 -10.8253 0
    endloop
  endfacet
  facet normal -0.991445 0.130522 0
    outer loop
      vertex -5.33494 -14.2404 0
      vertex -5.08519 -12.3433 1.5
      vertex -5.08519 -12.3433 0
    endloop
  endfacet
  facet normal -0.991445 0.130522 0
    outer loop
      vertex -5.08519 -12.3433 1.5
      vertex -5.33494 -14.2404 0
      vertex -5.33494 -14.2404 1.5
    endloop
  endfacet
  facet normal -0.608758 0.793356 0
    outer loop
      vertex -5.33494 -14.2404 0
      vertex -6.85295 -15.4052 1.5
      vertex -5.33494 -14.2404 1.5
    endloop
  endfacet
  facet normal -0.608758 0.793356 0
    outer loop
      vertex -6.85295 -15.4052 1.5
      vertex -5.33494 -14.2404 0
      vertex -6.85295 -15.4052 0
    endloop
  endfacet
  facet normal -0.793351 -0.608764 0
    outer loop
      vertex -5.08519 -12.3433 0
      vertex -6.25 -10.8253 1.5
      vertex -6.25 -10.8253 0
    endloop
  endfacet
  facet normal -0.793351 -0.608764 0
    outer loop
      vertex -6.25 -10.8253 1.5
      vertex -5.08519 -12.3433 0
      vertex -5.08519 -12.3433 1.5
    endloop
  endfacet
  facet normal 0.793351 0.608764 0
    outer loop
      vertex -8.75 -15.1554 1.5
      vertex -9.91481 -13.6374 0
      vertex -9.91481 -13.6374 1.5
    endloop
  endfacet
  facet normal 0.793351 0.608764 0
    outer loop
      vertex -9.91481 -13.6374 0
      vertex -8.75 -15.1554 1.5
      vertex -8.75 -15.1554 0
    endloop
  endfacet
  facet normal 0.991445 -0.130529 0
    outer loop
      vertex -9.91481 -13.6374 1.5
      vertex -9.66506 -11.7404 0
      vertex -9.66506 -11.7404 1.5
    endloop
  endfacet
  facet normal 0.991445 -0.130529 0
    outer loop
      vertex -9.66506 -11.7404 0
      vertex -9.91481 -13.6374 1.5
      vertex -9.91481 -13.6374 0
    endloop
  endfacet
  facet normal 0.608758 -0.793356 0
    outer loop
      vertex 5.33494 14.2404 0
      vertex 6.85295 15.4052 1.5
      vertex 5.33494 14.2404 1.5
    endloop
  endfacet
  facet normal 0.608758 -0.793356 0
    outer loop
      vertex 6.85295 15.4052 1.5
      vertex 5.33494 14.2404 0
      vertex 6.85295 15.4052 0
    endloop
  endfacet
  facet normal -0.130551 -0.991442 0
    outer loop
      vertex 6.85295 15.4052 0
      vertex 8.75 15.1554 1.5
      vertex 6.85295 15.4052 1.5
    endloop
  endfacet
  facet normal -0.130551 -0.991442 -0
    outer loop
      vertex 8.75 15.1554 1.5
      vertex 6.85295 15.4052 0
      vertex 8.75 15.1554 0
    endloop
  endfacet
  facet normal 0.991445 -0.130522 0
    outer loop
      vertex 5.08519 12.3433 1.5
      vertex 5.33494 14.2404 0
      vertex 5.33494 14.2404 1.5
    endloop
  endfacet
  facet normal 0.991445 -0.130522 0
    outer loop
      vertex 5.33494 14.2404 0
      vertex 5.08519 12.3433 1.5
      vertex 5.08519 12.3433 0
    endloop
  endfacet
  facet normal -0.793351 -0.608764 0
    outer loop
      vertex 9.91481 13.6374 0
      vertex 8.75 15.1554 1.5
      vertex 8.75 15.1554 0
    endloop
  endfacet
  facet normal -0.793351 -0.608764 0
    outer loop
      vertex 8.75 15.1554 1.5
      vertex 9.91481 13.6374 0
      vertex 9.91481 13.6374 1.5
    endloop
  endfacet
  facet normal 0.793351 0.608764 0
    outer loop
      vertex 6.25 10.8253 1.5
      vertex 5.08519 12.3433 0
      vertex 5.08519 12.3433 1.5
    endloop
  endfacet
  facet normal 0.793351 0.608764 0
    outer loop
      vertex 5.08519 12.3433 0
      vertex 6.25 10.8253 1.5
      vertex 6.25 10.8253 0
    endloop
  endfacet
  facet normal -0.608758 0.793356 0
    outer loop
      vertex 9.66506 11.7404 0
      vertex 8.14705 10.5756 1.5
      vertex 9.66506 11.7404 1.5
    endloop
  endfacet
  facet normal -0.608758 0.793356 0
    outer loop
      vertex 8.14705 10.5756 1.5
      vertex 9.66506 11.7404 0
      vertex 8.14705 10.5756 0
    endloop
  endfacet
  facet normal -0.991445 0.130529 0
    outer loop
      vertex 9.66506 11.7404 0
      vertex 9.91481 13.6374 1.5
      vertex 9.91481 13.6374 0
    endloop
  endfacet
  facet normal -0.991445 0.130529 0
    outer loop
      vertex 9.91481 13.6374 1.5
      vertex 9.66506 11.7404 0
      vertex 9.66506 11.7404 1.5
    endloop
  endfacet
  facet normal 0.1305 0.991448 -0
    outer loop
      vertex 8.14705 10.5756 0
      vertex 6.25 10.8253 1.5
      vertex 8.14705 10.5756 1.5
    endloop
  endfacet
  facet normal 0.1305 0.991448 0
    outer loop
      vertex 6.25 10.8253 1.5
      vertex 8.14705 10.5756 0
      vertex 6.25 10.8253 0
    endloop
  endfacet
  facet normal 0.669121 0.743153 -0
    outer loop
      vertex -3.0718 21.3205 0
      vertex -4.44966 22.5611 1.5
      vertex -3.0718 21.3205 1.5
    endloop
  endfacet
  facet normal 0.669121 0.743153 0
    outer loop
      vertex -4.44966 22.5611 1.5
      vertex -3.0718 21.3205 0
      vertex -4.44966 22.5611 0
    endloop
  endfacet
  facet normal -0.743136 0.669141 0
    outer loop
      vertex -17.0708 16.0407 0
      vertex -15.8301 17.4186 1.5
      vertex -15.8301 17.4186 0
    endloop
  endfacet
  facet normal -0.743136 0.669141 0
    outer loop
      vertex -15.8301 17.4186 1.5
      vertex -17.0708 16.0407 0
      vertex -17.0708 16.0407 1.5
    endloop
  endfacet
  facet normal -0.669121 -0.743153 0
    outer loop
      vertex 3.0718 -21.3205 0
      vertex 4.44966 -22.5611 1.5
      vertex 3.0718 -21.3205 1.5
    endloop
  endfacet
  facet normal -0.669121 -0.743153 -0
    outer loop
      vertex 4.44966 -22.5611 1.5
      vertex 3.0718 -21.3205 0
      vertex 4.44966 -22.5611 0
    endloop
  endfacet
  facet normal -0.866025 -0.500001 0
    outer loop
      vertex -13.8564 8 0
      vertex -16.9282 13.3205 1.5
      vertex -16.9282 13.3205 0
    endloop
  endfacet
  facet normal -0.866025 -0.500001 0
    outer loop
      vertex -16.9282 13.3205 1.5
      vertex -13.8564 8 0
      vertex -13.8564 8 1.5
    endloop
  endfacet
  facet normal -0.866025 -0.500001 0
    outer loop
      vertex 3.0718 -21.3205 0
      vertex 0 -16 1.5
      vertex 0 -16 0
    endloop
  endfacet
  facet normal -0.866025 -0.500001 0
    outer loop
      vertex 0 -16 1.5
      vertex 3.0718 -21.3205 0
      vertex 3.0718 -21.3205 1.5
    endloop
  endfacet
  facet normal 0.743136 -0.669141 0
    outer loop
      vertex 15.8301 -17.4186 1.5
      vertex 17.0708 -16.0407 0
      vertex 17.0708 -16.0407 1.5
    endloop
  endfacet
  facet normal 0.743136 -0.669141 0
    outer loop
      vertex 17.0708 -16.0407 0
      vertex 15.8301 -17.4186 1.5
      vertex 15.8301 -17.4186 0
    endloop
  endfacet
  facet normal 0.0523139 -0.998631 0
    outer loop
      vertex 4.44966 -22.5611 0
      vertex 7.16987 -22.4186 1.5
      vertex 4.44966 -22.5611 1.5
    endloop
  endfacet
  facet normal 0.0523139 -0.998631 0
    outer loop
      vertex 7.16987 -22.4186 1.5
      vertex 4.44966 -22.5611 0
      vertex 7.16987 -22.4186 0
    endloop
  endfacet
  facet normal 0.500001 -0.866025 0
    outer loop
      vertex 7.16987 -22.4186 0
      vertex 15.8301 -17.4186 1.5
      vertex 7.16987 -22.4186 1.5
    endloop
  endfacet
  facet normal 0.500001 -0.866025 0
    outer loop
      vertex 15.8301 -17.4186 1.5
      vertex 7.16987 -22.4186 0
      vertex 15.8301 -17.4186 0
    endloop
  endfacet
  facet normal 0.866025 0.500001 0
    outer loop
      vertex 16.9282 -13.3205 1.5
      vertex 13.8564 -8 0
      vertex 13.8564 -8 1.5
    endloop
  endfacet
  facet normal 0.866025 0.500001 0
    outer loop
      vertex 13.8564 -8 0
      vertex 16.9282 -13.3205 1.5
      vertex 16.9282 -13.3205 0
    endloop
  endfacet
  facet normal 0.866025 0.500001 0
    outer loop
      vertex 0 16 1.5
      vertex -3.0718 21.3205 0
      vertex -3.0718 21.3205 1.5
    endloop
  endfacet
  facet normal 0.866025 0.500001 0
    outer loop
      vertex -3.0718 21.3205 0
      vertex 0 16 1.5
      vertex 0 16 0
    endloop
  endfacet
  facet normal -0.500001 0.866025 0
    outer loop
      vertex -7.16987 22.4186 0
      vertex -15.8301 17.4186 1.5
      vertex -7.16987 22.4186 1.5
    endloop
  endfacet
  facet normal -0.500001 0.866025 0
    outer loop
      vertex -15.8301 17.4186 1.5
      vertex -7.16987 22.4186 0
      vertex -15.8301 17.4186 0
    endloop
  endfacet
  facet normal -0.998629 -0.0523507 0
    outer loop
      vertex -16.9282 13.3205 0
      vertex -17.0708 16.0407 1.5
      vertex -17.0708 16.0407 0
    endloop
  endfacet
  facet normal -0.998629 -0.0523507 0
    outer loop
      vertex -17.0708 16.0407 1.5
      vertex -16.9282 13.3205 0
      vertex -16.9282 13.3205 1.5
    endloop
  endfacet
  facet normal 0.998629 0.0523507 0
    outer loop
      vertex 17.0708 -16.0407 1.5
      vertex 16.9282 -13.3205 0
      vertex 16.9282 -13.3205 1.5
    endloop
  endfacet
  facet normal 0.998629 0.0523507 0
    outer loop
      vertex 16.9282 -13.3205 0
      vertex 17.0708 -16.0407 1.5
      vertex 17.0708 -16.0407 0
    endloop
  endfacet
  facet normal -0.0523139 0.998631 0
    outer loop
      vertex -4.44966 22.5611 0
      vertex -7.16987 22.4186 1.5
      vertex -4.44966 22.5611 1.5
    endloop
  endfacet
  facet normal -0.0523139 0.998631 0
    outer loop
      vertex -7.16987 22.4186 1.5
      vertex -4.44966 22.5611 0
      vertex -7.16987 22.4186 0
    endloop
  endfacet
  facet normal -0.793351 0.608764 0
    outer loop
      vertex 8.75 -15.1554 0
      vertex 9.91481 -13.6374 1.5
      vertex 9.91481 -13.6374 0
    endloop
  endfacet
  facet normal -0.793351 0.608764 0
    outer loop
      vertex 9.91481 -13.6374 1.5
      vertex 8.75 -15.1554 0
      vertex 8.75 -15.1554 1.5
    endloop
  endfacet
  facet normal 0.991445 0.130522 0
    outer loop
      vertex 5.33494 -14.2404 1.5
      vertex 5.08519 -12.3433 0
      vertex 5.08519 -12.3433 1.5
    endloop
  endfacet
  facet normal 0.991445 0.130522 0
    outer loop
      vertex 5.08519 -12.3433 0
      vertex 5.33494 -14.2404 1.5
      vertex 5.33494 -14.2404 0
    endloop
  endfacet
  facet normal 0.793351 -0.608764 0
    outer loop
      vertex 5.08519 -12.3433 1.5
      vertex 6.25 -10.8253 0
      vertex 6.25 -10.8253 1.5
    endloop
  endfacet
  facet normal 0.793351 -0.608764 0
    outer loop
      vertex 6.25 -10.8253 0
      vertex 5.08519 -12.3433 1.5
      vertex 5.08519 -12.3433 0
    endloop
  endfacet
  facet normal -0.608758 -0.793356 0
    outer loop
      vertex 8.14705 -10.5756 0
      vertex 9.66506 -11.7404 1.5
      vertex 8.14705 -10.5756 1.5
    endloop
  endfacet
  facet normal -0.608758 -0.793356 -0
    outer loop
      vertex 9.66506 -11.7404 1.5
      vertex 8.14705 -10.5756 0
      vertex 9.66506 -11.7404 0
    endloop
  endfacet
  facet normal -0.991445 -0.130529 0
    outer loop
      vertex 9.91481 -13.6374 0
      vertex 9.66506 -11.7404 1.5
      vertex 9.66506 -11.7404 0
    endloop
  endfacet
  facet normal -0.991445 -0.130529 0
    outer loop
      vertex 9.66506 -11.7404 1.5
      vertex 9.91481 -13.6374 0
      vertex 9.91481 -13.6374 1.5
    endloop
  endfacet
  facet normal 0.1305 -0.991448 0
    outer loop
      vertex 6.25 -10.8253 0
      vertex 8.14705 -10.5756 1.5
      vertex 6.25 -10.8253 1.5
    endloop
  endfacet
  facet normal 0.1305 -0.991448 0
    outer loop
      vertex 8.14705 -10.5756 1.5
      vertex 6.25 -10.8253 0
      vertex 8.14705 -10.5756 0
    endloop
  endfacet
  facet normal -0.130551 0.991442 0
    outer loop
      vertex 8.75 -15.1554 0
      vertex 6.85295 -15.4052 1.5
      vertex 8.75 -15.1554 1.5
    endloop
  endfacet
  facet normal -0.130551 0.991442 0
    outer loop
      vertex 6.85295 -15.4052 1.5
      vertex 8.75 -15.1554 0
      vertex 6.85295 -15.4052 0
    endloop
  endfacet
  facet normal 0.608758 0.793356 -0
    outer loop
      vertex 6.85295 -15.4052 0
      vertex 5.33494 -14.2404 1.5
      vertex 6.85295 -15.4052 1.5
    endloop
  endfacet
  facet normal 0.608758 0.793356 0
    outer loop
      vertex 5.33494 -14.2404 1.5
      vertex 6.85295 -15.4052 0
      vertex 5.33494 -14.2404 0
    endloop
  endfacet
  facet normal 0.991445 0.130529 0
    outer loop
      vertex -9.66506 11.7404 1.5
      vertex -9.91481 13.6374 0
      vertex -9.91481 13.6374 1.5
    endloop
  endfacet
  facet normal 0.991445 0.130529 0
    outer loop
      vertex -9.91481 13.6374 0
      vertex -9.66506 11.7404 1.5
      vertex -9.66506 11.7404 0
    endloop
  endfacet
  facet normal 0.793351 -0.608764 0
    outer loop
      vertex -9.91481 13.6374 1.5
      vertex -8.75 15.1554 0
      vertex -8.75 15.1554 1.5
    endloop
  endfacet
  facet normal 0.793351 -0.608764 0
    outer loop
      vertex -8.75 15.1554 0
      vertex -9.91481 13.6374 1.5
      vertex -9.91481 13.6374 0
    endloop
  endfacet
  facet normal 0.608758 0.793356 -0
    outer loop
      vertex -8.14705 10.5756 0
      vertex -9.66506 11.7404 1.5
      vertex -8.14705 10.5756 1.5
    endloop
  endfacet
  facet normal 0.608758 0.793356 0
    outer loop
      vertex -9.66506 11.7404 1.5
      vertex -8.14705 10.5756 0
      vertex -9.66506 11.7404 0
    endloop
  endfacet
  facet normal 0.130551 -0.991442 0
    outer loop
      vertex -8.75 15.1554 0
      vertex -6.85295 15.4052 1.5
      vertex -8.75 15.1554 1.5
    endloop
  endfacet
  facet normal 0.130551 -0.991442 0
    outer loop
      vertex -6.85295 15.4052 1.5
      vertex -8.75 15.1554 0
      vertex -6.85295 15.4052 0
    endloop
  endfacet
  facet normal -0.1305 0.991448 0
    outer loop
      vertex -6.25 10.8253 0
      vertex -8.14705 10.5756 1.5
      vertex -6.25 10.8253 1.5
    endloop
  endfacet
  facet normal -0.1305 0.991448 0
    outer loop
      vertex -8.14705 10.5756 1.5
      vertex -6.25 10.8253 0
      vertex -8.14705 10.5756 0
    endloop
  endfacet
  facet normal -0.991445 -0.130522 0
    outer loop
      vertex -5.08519 12.3433 0
      vertex -5.33494 14.2404 1.5
      vertex -5.33494 14.2404 0
    endloop
  endfacet
  facet normal -0.991445 -0.130522 0
    outer loop
      vertex -5.33494 14.2404 1.5
      vertex -5.08519 12.3433 0
      vertex -5.08519 12.3433 1.5
    endloop
  endfacet
  facet normal -0.608758 -0.793356 0
    outer loop
      vertex -6.85295 15.4052 0
      vertex -5.33494 14.2404 1.5
      vertex -6.85295 15.4052 1.5
    endloop
  endfacet
  facet normal -0.608758 -0.793356 -0
    outer loop
      vertex -5.33494 14.2404 1.5
      vertex -6.85295 15.4052 0
      vertex -5.33494 14.2404 0
    endloop
  endfacet
  facet normal -0.793351 0.608764 0
    outer loop
      vertex -6.25 10.8253 0
      vertex -5.08519 12.3433 1.5
      vertex -5.08519 12.3433 0
    endloop
  endfacet
  facet normal -0.793351 0.608764 0
    outer loop
      vertex -5.08519 12.3433 1.5
      vertex -6.25 10.8253 0
      vertex -6.25 10.8253 1.5
    endloop
  endfacet
endsolid OpenSCAD_Model
