solid OpenSCAD_Model
  facet normal 1 -0 0
    outer loop
      vertex 25 -15 1
      vertex 25 15 -1
      vertex 25 15 1
    endloop
  endfacet
  facet normal 1 0 0
    outer loop
      vertex 25 15 -1
      vertex 25 -15 1
      vertex 25 -15 -1
    endloop
  endfacet
  facet normal 0 0 1
    outer loop
      vertex 25 15 1
      vertex 23 13 1
      vertex 25 -15 1
    endloop
  endfacet
  facet normal 0 0 1
    outer loop
      vertex 25 15 1
      vertex -23 13 1
      vertex 23 13 1
    endloop
  endfacet
  facet normal 0 0 1
    outer loop
      vertex -23 13 1
      vertex -25 15 1
      vertex -23 -13 1
    endloop
  endfacet
  facet normal -0 0 1
    outer loop
      vertex -25 15 1
      vertex -23 13 1
      vertex 25 15 1
    endloop
  endfacet
  facet normal -0 0 1
    outer loop
      vertex 23 -13 1
      vertex 25 -15 1
      vertex 23 13 1
    endloop
  endfacet
  facet normal -0 0 1
    outer loop
      vertex -23 -13 1
      vertex 25 -15 1
      vertex 23 -13 1
    endloop
  endfacet
  facet normal 0 0 1
    outer loop
      vertex -23 -13 1
      vertex -25 -15 1
      vertex 25 -15 1
    endloop
  endfacet
  facet normal 0 0 1
    outer loop
      vertex -25 -15 1
      vertex -23 -13 1
      vertex -25 15 1
    endloop
  endfacet
  facet normal 0 0 -1
    outer loop
      vertex 25 -15 -1
      vertex 23 -13 -1
      vertex 25 15 -1
    endloop
  endfacet
  facet normal 0 0 -1
    outer loop
      vertex 25 -15 -1
      vertex -23 -13 -1
      vertex 23 -13 -1
    endloop
  endfacet
  facet normal -0 0 -1
    outer loop
      vertex -23 -13 -1
      vertex -25 -15 -1
      vertex -23 13 -1
    endloop
  endfacet
  facet normal 0 0 -1
    outer loop
      vertex -25 -15 -1
      vertex -23 -13 -1
      vertex 25 -15 -1
    endloop
  endfacet
  facet normal 0 0 -1
    outer loop
      vertex 23 13 -1
      vertex 25 15 -1
      vertex 23 -13 -1
    endloop
  endfacet
  facet normal 0 0 -1
    outer loop
      vertex -23 13 -1
      vertex 25 15 -1
      vertex 23 13 -1
    endloop
  endfacet
  facet normal 0 0 -1
    outer loop
      vertex -23 13 -1
      vertex -25 15 -1
      vertex 25 15 -1
    endloop
  endfacet
  facet normal 0 0 -1
    outer loop
      vertex -25 15 -1
      vertex -23 13 -1
      vertex -25 -15 -1
    endloop
  endfacet
  facet normal -1 0 0
    outer loop
      vertex -25 -15 -1
      vertex -25 15 1
      vertex -25 15 -1
    endloop
  endfacet
  facet normal -1 -0 0
    outer loop
      vertex -25 15 1
      vertex -25 -15 -1
      vertex -25 -15 1
    endloop
  endfacet
  facet normal 0 1 -0
    outer loop
      vertex 25 15 -1
      vertex -25 15 1
      vertex 25 15 1
    endloop
  endfacet
  facet normal 0 1 0
    outer loop
      vertex -25 15 1
      vertex 25 15 -1
      vertex -25 15 -1
    endloop
  endfacet
  facet normal 0 -1 0
    outer loop
      vertex -25 -15 -1
      vertex 25 -15 1
      vertex -25 -15 1
    endloop
  endfacet
  facet normal 0 -1 -0
    outer loop
      vertex 25 -15 1
      vertex -25 -15 -1
      vertex 25 -15 -1
    endloop
  endfacet
  facet normal -1 0 0
    outer loop
      vertex 23 -13 -1
      vertex 23 13 1
      vertex 23 13 -1
    endloop
  endfacet
  facet normal -1 -0 0
    outer loop
      vertex 23 13 1
      vertex 23 -13 -1
      vertex 23 -13 1
    endloop
  endfacet
  facet normal 1 -0 0
    outer loop
      vertex -23 -13 1
      vertex -23 13 -1
      vertex -23 13 1
    endloop
  endfacet
  facet normal 1 0 0
    outer loop
      vertex -23 13 -1
      vertex -23 -13 1
      vertex -23 -13 -1
    endloop
  endfacet
  facet normal 0 -1 0
    outer loop
      vertex -23 13 -1
      vertex 23 13 1
      vertex -23 13 1
    endloop
  endfacet
  facet normal 0 -1 -0
    outer loop
      vertex 23 13 1
      vertex -23 13 -1
      vertex 23 13 -1
    endloop
  endfacet
  facet normal 0 1 -0
    outer loop
      vertex 23 -13 -1
      vertex -23 -13 1
      vertex 23 -13 1
    endloop
  endfacet
  facet normal 0 1 0
    outer loop
      vertex -23 -13 1
      vertex 23 -13 -1
      vertex -23 -13 -1
    endloop
  endfacet
  facet normal 1 -0 0
    outer loop
      vertex 25 -15 -7
      vertex 25 15 -9
      vertex 25 15 -7
    endloop
  endfacet
  facet normal 1 0 0
    outer loop
      vertex 25 15 -9
      vertex 25 -15 -7
      vertex 25 -15 -9
    endloop
  endfacet
  facet normal 0 0 1
    outer loop
      vertex 25 15 -7
      vertex 23 13 -7
      vertex 25 -15 -7
    endloop
  endfacet
  facet normal 0 0 1
    outer loop
      vertex 25 15 -7
      vertex -23 13 -7
      vertex 23 13 -7
    endloop
  endfacet
  facet normal 0 0 1
    outer loop
      vertex -23 13 -7
      vertex -25 15 -7
      vertex -23 -13 -7
    endloop
  endfacet
  facet normal -0 0 1
    outer loop
      vertex -25 15 -7
      vertex -23 13 -7
      vertex 25 15 -7
    endloop
  endfacet
  facet normal -0 0 1
    outer loop
      vertex 23 -13 -7
      vertex 25 -15 -7
      vertex 23 13 -7
    endloop
  endfacet
  facet normal -0 0 1
    outer loop
      vertex -23 -13 -7
      vertex 25 -15 -7
      vertex 23 -13 -7
    endloop
  endfacet
  facet normal 0 0 1
    outer loop
      vertex -23 -13 -7
      vertex -25 -15 -7
      vertex 25 -15 -7
    endloop
  endfacet
  facet normal 0 0 1
    outer loop
      vertex -25 -15 -7
      vertex -23 -13 -7
      vertex -25 15 -7
    endloop
  endfacet
  facet normal 0 0 -1
    outer loop
      vertex 25 -15 -9
      vertex 23 -13 -9
      vertex 25 15 -9
    endloop
  endfacet
  facet normal 0 0 -1
    outer loop
      vertex 25 -15 -9
      vertex -23 -13 -9
      vertex 23 -13 -9
    endloop
  endfacet
  facet normal -0 0 -1
    outer loop
      vertex -23 -13 -9
      vertex -25 -15 -9
      vertex -23 13 -9
    endloop
  endfacet
  facet normal 0 0 -1
    outer loop
      vertex -25 -15 -9
      vertex -23 -13 -9
      vertex 25 -15 -9
    endloop
  endfacet
  facet normal 0 0 -1
    outer loop
      vertex 23 13 -9
      vertex 25 15 -9
      vertex 23 -13 -9
    endloop
  endfacet
  facet normal 0 0 -1
    outer loop
      vertex -23 13 -9
      vertex 25 15 -9
      vertex 23 13 -9
    endloop
  endfacet
  facet normal 0 0 -1
    outer loop
      vertex -23 13 -9
      vertex -25 15 -9
      vertex 25 15 -9
    endloop
  endfacet
  facet normal 0 0 -1
    outer loop
      vertex -25 15 -9
      vertex -23 13 -9
      vertex -25 -15 -9
    endloop
  endfacet
  facet normal -1 0 0
    outer loop
      vertex -25 -15 -9
      vertex -25 15 -7
      vertex -25 15 -9
    endloop
  endfacet
  facet normal -1 -0 0
    outer loop
      vertex -25 15 -7
      vertex -25 -15 -9
      vertex -25 -15 -7
    endloop
  endfacet
  facet normal 0 1 -0
    outer loop
      vertex 25 15 -9
      vertex -25 15 -7
      vertex 25 15 -7
    endloop
  endfacet
  facet normal 0 1 0
    outer loop
      vertex -25 15 -7
      vertex 25 15 -9
      vertex -25 15 -9
    endloop
  endfacet
  facet normal 0 -1 0
    outer loop
      vertex -25 -15 -9
      vertex 25 -15 -7
      vertex -25 -15 -7
    endloop
  endfacet
  facet normal 0 -1 -0
    outer loop
      vertex 25 -15 -7
      vertex -25 -15 -9
      vertex 25 -15 -9
    endloop
  endfacet
  facet normal -1 0 0
    outer loop
      vertex 23 -13 -9
      vertex 23 13 -7
      vertex 23 13 -9
    endloop
  endfacet
  facet normal -1 -0 0
    outer loop
      vertex 23 13 -7
      vertex 23 -13 -9
      vertex 23 -13 -7
    endloop
  endfacet
  facet normal 1 -0 0
    outer loop
      vertex -23 -13 -7
      vertex -23 13 -9
      vertex -23 13 -7
    endloop
  endfacet
  facet normal 1 0 0
    outer loop
      vertex -23 13 -9
      vertex -23 -13 -7
      vertex -23 -13 -9
    endloop
  endfacet
  facet normal 0 -1 0
    outer loop
      vertex -23 13 -9
      vertex 23 13 -7
      vertex -23 13 -7
    endloop
  endfacet
  facet normal 0 -1 -0
    outer loop
      vertex 23 13 -7
      vertex -23 13 -9
      vertex 23 13 -9
    endloop
  endfacet
  facet normal 0 1 -0
    outer loop
      vertex 23 -13 -9
      vertex -23 -13 -7
      vertex 23 -13 -7
    endloop
  endfacet
  facet normal 0 1 0
    outer loop
      vertex -23 -13 -7
      vertex 23 -13 -9
      vertex -23 -13 -9
    endloop
  endfacet
  facet normal 1 -0 0
    outer loop
      vertex 25 -15 -15
      vertex 25 15 -17
      vertex 25 15 -15
    endloop
  endfacet
  facet normal 1 0 0
    outer loop
      vertex 25 15 -17
      vertex 25 -15 -15
      vertex 25 -15 -17
    endloop
  endfacet
  facet normal 0 0 1
    outer loop
      vertex 25 15 -15
      vertex 23 13 -15
      vertex 25 -15 -15
    endloop
  endfacet
  facet normal 0 0 1
    outer loop
      vertex 25 15 -15
      vertex -23 13 -15
      vertex 23 13 -15
    endloop
  endfacet
  facet normal 0 0 1
    outer loop
      vertex -23 13 -15
      vertex -25 15 -15
      vertex -23 -13 -15
    endloop
  endfacet
  facet normal -0 0 1
    outer loop
      vertex -25 15 -15
      vertex -23 13 -15
      vertex 25 15 -15
    endloop
  endfacet
  facet normal -0 0 1
    outer loop
      vertex 23 -13 -15
      vertex 25 -15 -15
      vertex 23 13 -15
    endloop
  endfacet
  facet normal -0 0 1
    outer loop
      vertex -23 -13 -15
      vertex 25 -15 -15
      vertex 23 -13 -15
    endloop
  endfacet
  facet normal 0 0 1
    outer loop
      vertex -23 -13 -15
      vertex -25 -15 -15
      vertex 25 -15 -15
    endloop
  endfacet
  facet normal 0 0 1
    outer loop
      vertex -25 -15 -15
      vertex -23 -13 -15
      vertex -25 15 -15
    endloop
  endfacet
  facet normal 0 0 -1
    outer loop
      vertex 25 -15 -17
      vertex 23 -13 -17
      vertex 25 15 -17
    endloop
  endfacet
  facet normal 0 0 -1
    outer loop
      vertex 25 -15 -17
      vertex -23 -13 -17
      vertex 23 -13 -17
    endloop
  endfacet
  facet normal -0 0 -1
    outer loop
      vertex -23 -13 -17
      vertex -25 -15 -17
      vertex -23 13 -17
    endloop
  endfacet
  facet normal 0 0 -1
    outer loop
      vertex -25 -15 -17
      vertex -23 -13 -17
      vertex 25 -15 -17
    endloop
  endfacet
  facet normal 0 0 -1
    outer loop
      vertex 23 13 -17
      vertex 25 15 -17
      vertex 23 -13 -17
    endloop
  endfacet
  facet normal 0 0 -1
    outer loop
      vertex -23 13 -17
      vertex 25 15 -17
      vertex 23 13 -17
    endloop
  endfacet
  facet normal 0 0 -1
    outer loop
      vertex -23 13 -17
      vertex -25 15 -17
      vertex 25 15 -17
    endloop
  endfacet
  facet normal 0 0 -1
    outer loop
      vertex -25 15 -17
      vertex -23 13 -17
      vertex -25 -15 -17
    endloop
  endfacet
  facet normal -1 0 0
    outer loop
      vertex -25 -15 -17
      vertex -25 15 -15
      vertex -25 15 -17
    endloop
  endfacet
  facet normal -1 -0 0
    outer loop
      vertex -25 15 -15
      vertex -25 -15 -17
      vertex -25 -15 -15
    endloop
  endfacet
  facet normal 0 1 -0
    outer loop
      vertex 25 15 -17
      vertex -25 15 -15
      vertex 25 15 -15
    endloop
  endfacet
  facet normal 0 1 0
    outer loop
      vertex -25 15 -15
      vertex 25 15 -17
      vertex -25 15 -17
    endloop
  endfacet
  facet normal 0 -1 0
    outer loop
      vertex -25 -15 -17
      vertex 25 -15 -15
      vertex -25 -15 -15
    endloop
  endfacet
  facet normal 0 -1 -0
    outer loop
      vertex 25 -15 -15
      vertex -25 -15 -17
      vertex 25 -15 -17
    endloop
  endfacet
  facet normal -1 0 0
    outer loop
      vertex 23 -13 -17
      vertex 23 13 -15
      vertex 23 13 -17
    endloop
  endfacet
  facet normal -1 -0 0
    outer loop
      vertex 23 13 -15
      vertex 23 -13 -17
      vertex 23 -13 -15
    endloop
  endfacet
  facet normal 1 -0 0
    outer loop
      vertex -23 -13 -15
      vertex -23 13 -17
      vertex -23 13 -15
    endloop
  endfacet
  facet normal 1 0 0
    outer loop
      vertex -23 13 -17
      vertex -23 -13 -15
      vertex -23 -13 -17
    endloop
  endfacet
  facet normal 0 -1 0
    outer loop
      vertex -23 13 -17
      vertex 23 13 -15
      vertex -23 13 -15
    endloop
  endfacet
  facet normal 0 -1 -0
    outer loop
      vertex 23 13 -15
      vertex -23 13 -17
      vertex 23 13 -17
    endloop
  endfacet
  facet normal 0 1 -0
    outer loop
      vertex 23 -13 -17
      vertex -23 -13 -15
      vertex 23 -13 -15
    endloop
  endfacet
  facet normal 0 1 0
    outer loop
      vertex -23 -13 -15
      vertex 23 -13 -17
      vertex -23 -13 -17
    endloop
  endfacet
  facet normal 1 -0 0
    outer loop
      vertex 25 -15 -23
      vertex 25 15 -25
      vertex 25 15 -23
    endloop
  endfacet
  facet normal 1 0 0
    outer loop
      vertex 25 15 -25
      vertex 25 -15 -23
      vertex 25 -15 -25
    endloop
  endfacet
  facet normal 0 0 1
    outer loop
      vertex 25 15 -23
      vertex 23 13 -23
      vertex 25 -15 -23
    endloop
  endfacet
  facet normal 0 0 1
    outer loop
      vertex 25 15 -23
      vertex -23 13 -23
      vertex 23 13 -23
    endloop
  endfacet
  facet normal 0 0 1
    outer loop
      vertex -23 13 -23
      vertex -25 15 -23
      vertex -23 -13 -23
    endloop
  endfacet
  facet normal -0 0 1
    outer loop
      vertex -25 15 -23
      vertex -23 13 -23
      vertex 25 15 -23
    endloop
  endfacet
  facet normal -0 0 1
    outer loop
      vertex 23 -13 -23
      vertex 25 -15 -23
      vertex 23 13 -23
    endloop
  endfacet
  facet normal -0 0 1
    outer loop
      vertex -23 -13 -23
      vertex 25 -15 -23
      vertex 23 -13 -23
    endloop
  endfacet
  facet normal 0 0 1
    outer loop
      vertex -23 -13 -23
      vertex -25 -15 -23
      vertex 25 -15 -23
    endloop
  endfacet
  facet normal 0 0 1
    outer loop
      vertex -25 -15 -23
      vertex -23 -13 -23
      vertex -25 15 -23
    endloop
  endfacet
  facet normal 0 0 -1
    outer loop
      vertex 25 -15 -25
      vertex 23 -13 -25
      vertex 25 15 -25
    endloop
  endfacet
  facet normal 0 0 -1
    outer loop
      vertex 25 -15 -25
      vertex -23 -13 -25
      vertex 23 -13 -25
    endloop
  endfacet
  facet normal -0 0 -1
    outer loop
      vertex -23 -13 -25
      vertex -25 -15 -25
      vertex -23 13 -25
    endloop
  endfacet
  facet normal 0 0 -1
    outer loop
      vertex -25 -15 -25
      vertex -23 -13 -25
      vertex 25 -15 -25
    endloop
  endfacet
  facet normal 0 0 -1
    outer loop
      vertex 23 13 -25
      vertex 25 15 -25
      vertex 23 -13 -25
    endloop
  endfacet
  facet normal 0 0 -1
    outer loop
      vertex -23 13 -25
      vertex 25 15 -25
      vertex 23 13 -25
    endloop
  endfacet
  facet normal 0 0 -1
    outer loop
      vertex -23 13 -25
      vertex -25 15 -25
      vertex 25 15 -25
    endloop
  endfacet
  facet normal 0 0 -1
    outer loop
      vertex -25 15 -25
      vertex -23 13 -25
      vertex -25 -15 -25
    endloop
  endfacet
  facet normal -1 0 0
    outer loop
      vertex -25 -15 -25
      vertex -25 15 -23
      vertex -25 15 -25
    endloop
  endfacet
  facet normal -1 -0 0
    outer loop
      vertex -25 15 -23
      vertex -25 -15 -25
      vertex -25 -15 -23
    endloop
  endfacet
  facet normal 0 1 -0
    outer loop
      vertex 25 15 -25
      vertex -25 15 -23
      vertex 25 15 -23
    endloop
  endfacet
  facet normal 0 1 0
    outer loop
      vertex -25 15 -23
      vertex 25 15 -25
      vertex -25 15 -25
    endloop
  endfacet
  facet normal 0 -1 0
    outer loop
      vertex -25 -15 -25
      vertex 25 -15 -23
      vertex -25 -15 -23
    endloop
  endfacet
  facet normal 0 -1 -0
    outer loop
      vertex 25 -15 -23
      vertex -25 -15 -25
      vertex 25 -15 -25
    endloop
  endfacet
  facet normal -1 0 0
    outer loop
      vertex 23 -13 -25
      vertex 23 13 -23
      vertex 23 13 -25
    endloop
  endfacet
  facet normal -1 -0 0
    outer loop
      vertex 23 13 -23
      vertex 23 -13 -25
      vertex 23 -13 -23
    endloop
  endfacet
  facet normal 1 -0 0
    outer loop
      vertex -23 -13 -23
      vertex -23 13 -25
      vertex -23 13 -23
    endloop
  endfacet
  facet normal 1 0 0
    outer loop
      vertex -23 13 -25
      vertex -23 -13 -23
      vertex -23 -13 -25
    endloop
  endfacet
  facet normal 0 -1 0
    outer loop
      vertex -23 13 -25
      vertex 23 13 -23
      vertex -23 13 -23
    endloop
  endfacet
  facet normal 0 -1 -0
    outer loop
      vertex 23 13 -23
      vertex -23 13 -25
      vertex 23 13 -25
    endloop
  endfacet
  facet normal 0 1 -0
    outer loop
      vertex 23 -13 -25
      vertex -23 -13 -23
      vertex 23 -13 -23
    endloop
  endfacet
  facet normal 0 1 0
    outer loop
      vertex -23 -13 -23
      vertex 23 -13 -25
      vertex -23 -13 -25
    endloop
  endfacet
  facet normal 1 -0 0
    outer loop
      vertex 25 -15 -31
      vertex 25 15 -33
      vertex 25 15 -31
    endloop
  endfacet
  facet normal 1 0 0
    outer loop
      vertex 25 15 -33
      vertex 25 -15 -31
      vertex 25 -15 -33
    endloop
  endfacet
  facet normal 0 0 1
    outer loop
      vertex 25 15 -31
      vertex 23 13 -31
      vertex 25 -15 -31
    endloop
  endfacet
  facet normal 0 0 1
    outer loop
      vertex 25 15 -31
      vertex -23 13 -31
      vertex 23 13 -31
    endloop
  endfacet
  facet normal 0 0 1
    outer loop
      vertex -23 13 -31
      vertex -25 15 -31
      vertex -23 -13 -31
    endloop
  endfacet
  facet normal -0 0 1
    outer loop
      vertex -25 15 -31
      vertex -23 13 -31
      vertex 25 15 -31
    endloop
  endfacet
  facet normal -0 0 1
    outer loop
      vertex 23 -13 -31
      vertex 25 -15 -31
      vertex 23 13 -31
    endloop
  endfacet
  facet normal -0 0 1
    outer loop
      vertex -23 -13 -31
      vertex 25 -15 -31
      vertex 23 -13 -31
    endloop
  endfacet
  facet normal 0 0 1
    outer loop
      vertex -23 -13 -31
      vertex -25 -15 -31
      vertex 25 -15 -31
    endloop
  endfacet
  facet normal 0 0 1
    outer loop
      vertex -25 -15 -31
      vertex -23 -13 -31
      vertex -25 15 -31
    endloop
  endfacet
  facet normal 0 0 -1
    outer loop
      vertex 25 -15 -33
      vertex 23 -13 -33
      vertex 25 15 -33
    endloop
  endfacet
  facet normal 0 0 -1
    outer loop
      vertex 25 -15 -33
      vertex -23 -13 -33
      vertex 23 -13 -33
    endloop
  endfacet
  facet normal -0 0 -1
    outer loop
      vertex -23 -13 -33
      vertex -25 -15 -33
      vertex -23 13 -33
    endloop
  endfacet
  facet normal 0 0 -1
    outer loop
      vertex -25 -15 -33
      vertex -23 -13 -33
      vertex 25 -15 -33
    endloop
  endfacet
  facet normal 0 0 -1
    outer loop
      vertex 23 13 -33
      vertex 25 15 -33
      vertex 23 -13 -33
    endloop
  endfacet
  facet normal 0 0 -1
    outer loop
      vertex -23 13 -33
      vertex 25 15 -33
      vertex 23 13 -33
    endloop
  endfacet
  facet normal 0 0 -1
    outer loop
      vertex -23 13 -33
      vertex -25 15 -33
      vertex 25 15 -33
    endloop
  endfacet
  facet normal 0 0 -1
    outer loop
      vertex -25 15 -33
      vertex -23 13 -33
      vertex -25 -15 -33
    endloop
  endfacet
  facet normal -1 0 0
    outer loop
      vertex -25 -15 -33
      vertex -25 15 -31
      vertex -25 15 -33
    endloop
  endfacet
  facet normal -1 -0 0
    outer loop
      vertex -25 15 -31
      vertex -25 -15 -33
      vertex -25 -15 -31
    endloop
  endfacet
  facet normal 0 1 -0
    outer loop
      vertex 25 15 -33
      vertex -25 15 -31
      vertex 25 15 -31
    endloop
  endfacet
  facet normal 0 1 0
    outer loop
      vertex -25 15 -31
      vertex 25 15 -33
      vertex -25 15 -33
    endloop
  endfacet
  facet normal 0 -1 0
    outer loop
      vertex -25 -15 -33
      vertex 25 -15 -31
      vertex -25 -15 -31
    endloop
  endfacet
  facet normal 0 -1 -0
    outer loop
      vertex 25 -15 -31
      vertex -25 -15 -33
      vertex 25 -15 -33
    endloop
  endfacet
  facet normal -1 0 0
    outer loop
      vertex 23 -13 -33
      vertex 23 13 -31
      vertex 23 13 -33
    endloop
  endfacet
  facet normal -1 -0 0
    outer loop
      vertex 23 13 -31
      vertex 23 -13 -33
      vertex 23 -13 -31
    endloop
  endfacet
  facet normal 1 -0 0
    outer loop
      vertex -23 -13 -31
      vertex -23 13 -33
      vertex -23 13 -31
    endloop
  endfacet
  facet normal 1 0 0
    outer loop
      vertex -23 13 -33
      vertex -23 -13 -31
      vertex -23 -13 -33
    endloop
  endfacet
  facet normal 0 -1 0
    outer loop
      vertex -23 13 -33
      vertex 23 13 -31
      vertex -23 13 -31
    endloop
  endfacet
  facet normal 0 -1 -0
    outer loop
      vertex 23 13 -31
      vertex -23 13 -33
      vertex 23 13 -33
    endloop
  endfacet
  facet normal 0 1 -0
    outer loop
      vertex 23 -13 -33
      vertex -23 -13 -31
      vertex 23 -13 -31
    endloop
  endfacet
  facet normal 0 1 0
    outer loop
      vertex -23 -13 -31
      vertex 23 -13 -33
      vertex -23 -13 -33
    endloop
  endfacet
  facet normal 1 -0 0
    outer loop
      vertex 25 -15 -39
      vertex 25 15 -41
      vertex 25 15 -39
    endloop
  endfacet
  facet normal 1 0 0
    outer loop
      vertex 25 15 -41
      vertex 25 -15 -39
      vertex 25 -15 -41
    endloop
  endfacet
  facet normal 0 0 1
    outer loop
      vertex 25 15 -39
      vertex 23 13 -39
      vertex 25 -15 -39
    endloop
  endfacet
  facet normal 0 0 1
    outer loop
      vertex 25 15 -39
      vertex -23 13 -39
      vertex 23 13 -39
    endloop
  endfacet
  facet normal 0 0 1
    outer loop
      vertex -23 13 -39
      vertex -25 15 -39
      vertex -23 -13 -39
    endloop
  endfacet
  facet normal -0 0 1
    outer loop
      vertex -25 15 -39
      vertex -23 13 -39
      vertex 25 15 -39
    endloop
  endfacet
  facet normal -0 0 1
    outer loop
      vertex 23 -13 -39
      vertex 25 -15 -39
      vertex 23 13 -39
    endloop
  endfacet
  facet normal -0 0 1
    outer loop
      vertex -23 -13 -39
      vertex 25 -15 -39
      vertex 23 -13 -39
    endloop
  endfacet
  facet normal 0 0 1
    outer loop
      vertex -23 -13 -39
      vertex -25 -15 -39
      vertex 25 -15 -39
    endloop
  endfacet
  facet normal 0 0 1
    outer loop
      vertex -25 -15 -39
      vertex -23 -13 -39
      vertex -25 15 -39
    endloop
  endfacet
  facet normal 0 0 -1
    outer loop
      vertex 25 -15 -41
      vertex 23 -13 -41
      vertex 25 15 -41
    endloop
  endfacet
  facet normal 0 0 -1
    outer loop
      vertex 25 -15 -41
      vertex -23 -13 -41
      vertex 23 -13 -41
    endloop
  endfacet
  facet normal -0 0 -1
    outer loop
      vertex -23 -13 -41
      vertex -25 -15 -41
      vertex -23 13 -41
    endloop
  endfacet
  facet normal 0 0 -1
    outer loop
      vertex -25 -15 -41
      vertex -23 -13 -41
      vertex 25 -15 -41
    endloop
  endfacet
  facet normal 0 0 -1
    outer loop
      vertex 23 13 -41
      vertex 25 15 -41
      vertex 23 -13 -41
    endloop
  endfacet
  facet normal 0 0 -1
    outer loop
      vertex -23 13 -41
      vertex 25 15 -41
      vertex 23 13 -41
    endloop
  endfacet
  facet normal 0 0 -1
    outer loop
      vertex -23 13 -41
      vertex -25 15 -41
      vertex 25 15 -41
    endloop
  endfacet
  facet normal 0 0 -1
    outer loop
      vertex -25 15 -41
      vertex -23 13 -41
      vertex -25 -15 -41
    endloop
  endfacet
  facet normal -1 0 0
    outer loop
      vertex -25 -15 -41
      vertex -25 15 -39
      vertex -25 15 -41
    endloop
  endfacet
  facet normal -1 -0 0
    outer loop
      vertex -25 15 -39
      vertex -25 -15 -41
      vertex -25 -15 -39
    endloop
  endfacet
  facet normal 0 1 -0
    outer loop
      vertex 25 15 -41
      vertex -25 15 -39
      vertex 25 15 -39
    endloop
  endfacet
  facet normal 0 1 0
    outer loop
      vertex -25 15 -39
      vertex 25 15 -41
      vertex -25 15 -41
    endloop
  endfacet
  facet normal 0 -1 0
    outer loop
      vertex -25 -15 -41
      vertex 25 -15 -39
      vertex -25 -15 -39
    endloop
  endfacet
  facet normal 0 -1 -0
    outer loop
      vertex 25 -15 -39
      vertex -25 -15 -41
      vertex 25 -15 -41
    endloop
  endfacet
  facet normal -1 0 0
    outer loop
      vertex 23 -13 -41
      vertex 23 13 -39
      vertex 23 13 -41
    endloop
  endfacet
  facet normal -1 -0 0
    outer loop
      vertex 23 13 -39
      vertex 23 -13 -41
      vertex 23 -13 -39
    endloop
  endfacet
  facet normal 1 -0 0
    outer loop
      vertex -23 -13 -39
      vertex -23 13 -41
      vertex -23 13 -39
    endloop
  endfacet
  facet normal 1 0 0
    outer loop
      vertex -23 13 -41
      vertex -23 -13 -39
      vertex -23 -13 -41
    endloop
  endfacet
  facet normal 0 -1 0
    outer loop
      vertex -23 13 -41
      vertex 23 13 -39
      vertex -23 13 -39
    endloop
  endfacet
  facet normal 0 -1 -0
    outer loop
      vertex 23 13 -39
      vertex -23 13 -41
      vertex 23 13 -41
    endloop
  endfacet
  facet normal 0 1 -0
    outer loop
      vertex 23 -13 -41
      vertex -23 -13 -39
      vertex 23 -13 -39
    endloop
  endfacet
  facet normal 0 1 0
    outer loop
      vertex -23 -13 -39
      vertex 23 -13 -41
      vertex -23 -13 -41
    endloop
  endfacet
endsolid OpenSCAD_Model
