solid OpenSCAD_Model
  facet normal 1 -0 0
    outer loop
      vertex 30 -15 50
      vertex 30 15 -5
      vertex 30 15 50
    endloop
  endfacet
  facet normal 1 0 0
    outer loop
      vertex 30 15 -5
      vertex 30 -15 50
      vertex 30 -15 -5
    endloop
  endfacet
  facet normal -0 0 1
    outer loop
      vertex -20 15 5
      vertex 20 -15 5
      vertex 20 15 5
    endloop
  endfacet
  facet normal 0 0 1
    outer loop
      vertex 20 -15 5
      vertex -20 15 5
      vertex -20 -15 5
    endloop
  endfacet
  facet normal 0 0 -1
    outer loop
      vertex -30 -15 -5
      vertex 30 15 -5
      vertex 30 -15 -5
    endloop
  endfacet
  facet normal -0 0 -1
    outer loop
      vertex 30 15 -5
      vertex -30 -15 -5
      vertex -30 15 -5
    endloop
  endfacet
  facet normal -1 0 0
    outer loop
      vertex -30 -15 -5
      vertex -30 15 50
      vertex -30 15 -5
    endloop
  endfacet
  facet normal -1 -0 0
    outer loop
      vertex -30 15 50
      vertex -30 -15 -5
      vertex -30 -15 50
    endloop
  endfacet
  facet normal 0 1 0
    outer loop
      vertex 30 15 50
      vertex 20 15 5
      vertex 20 15 50
    endloop
  endfacet
  facet normal 0 1 0
    outer loop
      vertex 20 15 5
      vertex 30 15 -5
      vertex -20 15 5
    endloop
  endfacet
  facet normal 0 1 -0
    outer loop
      vertex 30 15 -5
      vertex 20 15 5
      vertex 30 15 50
    endloop
  endfacet
  facet normal 0 1 -0
    outer loop
      vertex -20 15 5
      vertex -30 15 50
      vertex -20 15 50
    endloop
  endfacet
  facet normal 0 1 0
    outer loop
      vertex -20 15 5
      vertex -30 15 -5
      vertex -30 15 50
    endloop
  endfacet
  facet normal 0 1 0
    outer loop
      vertex -30 15 -5
      vertex -20 15 5
      vertex 30 15 -5
    endloop
  endfacet
  facet normal 0 -1 0
    outer loop
      vertex -30 -15 50
      vertex -20 -15 5
      vertex -20 -15 50
    endloop
  endfacet
  facet normal 0 -1 -0
    outer loop
      vertex -20 -15 5
      vertex -30 -15 -5
      vertex 20 -15 5
    endloop
  endfacet
  facet normal 0 -1 0
    outer loop
      vertex -30 -15 -5
      vertex -20 -15 5
      vertex -30 -15 50
    endloop
  endfacet
  facet normal 0 -1 0
    outer loop
      vertex 20 -15 5
      vertex 30 -15 50
      vertex 20 -15 50
    endloop
  endfacet
  facet normal 0 -1 0
    outer loop
      vertex 20 -15 5
      vertex 30 -15 -5
      vertex 30 -15 50
    endloop
  endfacet
  facet normal 0 -1 0
    outer loop
      vertex 30 -15 -5
      vertex 20 -15 5
      vertex -30 -15 -5
    endloop
  endfacet
  facet normal 1 -0 0
    outer loop
      vertex -20 -15 50
      vertex -20 15 5
      vertex -20 15 50
    endloop
  endfacet
  facet normal 1 0 0
    outer loop
      vertex -20 15 5
      vertex -20 -15 50
      vertex -20 -15 5
    endloop
  endfacet
  facet normal -1 0 0
    outer loop
      vertex 20 -15 5
      vertex 20 15 50
      vertex 20 15 5
    endloop
  endfacet
  facet normal -1 -0 0
    outer loop
      vertex 20 15 50
      vertex 20 -15 5
      vertex 20 -15 50
    endloop
  endfacet
  facet normal -0 0 1
    outer loop
      vertex -30 15 50
      vertex -20 -15 50
      vertex -20 15 50
    endloop
  endfacet
  facet normal 0 0 1
    outer loop
      vertex -20 -15 50
      vertex -30 15 50
      vertex -30 -15 50
    endloop
  endfacet
  facet normal -0 0 1
    outer loop
      vertex 20 15 50
      vertex 30 -15 50
      vertex 30 15 50
    endloop
  endfacet
  facet normal 0 0 1
    outer loop
      vertex 30 -15 50
      vertex 20 15 50
      vertex 20 -15 50
    endloop
  endfacet
endsolid OpenSCAD_Model
